<svg viewBox="0 0 200 200" xmlns="http://www.w3.org/2000/svg"><path d="m100.06 25a47.2 47.2 0 0 0 -24 87.86 8.11 8.11 0 0 1 4 7v11.49a3.88 3.88 0 0 1 1.49-.29h37.06a3.88 3.88 0 0 1 1.49.29v-11.49a8.22 8.22 0 0 1 4-7 47.2 47.2 0 0 0 -24-87.81z" fill="currentColor" stroke="#32363b" stroke-linecap="round" stroke-linejoin="round" stroke-width="4.37"/><g fill="#c8c8cc"><path d="m90.86 164.2v1.66a9.14 9.14 0 0 0 18.28 0v-1.66z" stroke="#32363b" stroke-linecap="round" stroke-linejoin="round" stroke-width="4.37"/><path d="m41.82 73.26h-7.82a2.27 2.27 0 0 1 0-4.53h7.79a2.27 2.27 0 0 1 0 4.53z"/><path d="m44 58.89-7.28-2.76a2.26 2.26 0 0 1 1.61-4.23l7.28 2.76a2.26 2.26 0 1 1 -1.61 4.23z"/><path d="m35.45 88.77a2.26 2.26 0 0 1 1.31-2.91l7.24-2.77a2.26 2.26 0 0 1 1.61 4.23l-7.28 2.77a2.27 2.27 0 0 1 -2.88-1.32z"/><path d="m166 73.26h-7.79a2.27 2.27 0 0 1 0-4.53h7.79a2.27 2.27 0 0 1 0 4.53z"/><path d="m153 57.58a2.25 2.25 0 0 1 1.31-2.92l7.28-2.76a2.26 2.26 0 0 1 1.61 4.23l-7.2 2.76a2.26 2.26 0 0 1 -3-1.31z"/><path d="m161.63 90.09-7.28-2.76a2.27 2.27 0 0 1 1.65-4.24l7.28 2.77a2.26 2.26 0 0 1 -1.61 4.23z"/></g><path d="m115.52 153.08h-31a3.93 3.93 0 0 0 -3.97 3.92v3.35a3.94 3.94 0 0 0 3.93 3.93h31a3.94 3.94 0 0 0 3.93-3.93v-3.35a3.93 3.93 0 0 0 -3.89-3.92z" fill="#fff" stroke="#32363b" stroke-linecap="round" stroke-linejoin="round" stroke-width="4.37"/><path d="m118.53 142h-37.06a3.93 3.93 0 0 0 -3.93 4v3.34a3.93 3.93 0 0 0 3.93 3.93h37.06a3.93 3.93 0 0 0 3.93-3.93v-3.34a3.93 3.93 0 0 0 -3.93-4z" fill="#c8c8cc" stroke="#32363b" stroke-linecap="round" stroke-linejoin="round" stroke-width="4.37"/><path d="m118.53 131h-37.06a3.93 3.93 0 0 0 -3.93 3.93v3.34a3.93 3.93 0 0 0 3.93 3.93h37.06a3.93 3.93 0 0 0 3.93-3.93v-3.34a3.93 3.93 0 0 0 -3.93-3.93z" fill="#fff" stroke="#32363b" stroke-linecap="round" stroke-linejoin="round" stroke-width="4.37"/><path d="m127.43 68.62h-2a2.94 2.94 0 0 1 -2.82-2.08 23.43 23.43 0 0 0 -1.89-4.49 3 3 0 0 1 .51-3.5l1.41-1.41a3 3 0 0 0 0-4.18l-2.38-2.38a3 3 0 0 0 -4.18 0l-1.38 1.42a2.93 2.93 0 0 1 -3.49.51 23.48 23.48 0 0 0 -4.5-1.88 3 3 0 0 1 -2.07-2.82v-2a3 3 0 0 0 -3-2.95h-3.32a3 3 0 0 0 -3 2.95v1.84a2.94 2.94 0 0 1 -2.12 2.83 23.83 23.83 0 0 0 -4.64 1.87 3 3 0 0 1 -3.46-.53l-1.25-1.26a3 3 0 0 0 -4.18 0l-2.34 2.44a3 3 0 0 0 0 4.18l1.13 1.13a2.94 2.94 0 0 1 .54 3.48 23.84 23.84 0 0 0 -2 4.75 2.94 2.94 0 0 1 -2.83 2.08h-1.6a3 3 0 0 0 -2.95 2.95v3.37a3 3 0 0 0 2.95 3h1.43a3 3 0 0 1 2.81 2.06 23.69 23.69 0 0 0 2 4.9 3 3 0 0 1 -.52 3.49l-1 1a3 3 0 0 0 0 4.18l2.38 2.38a3 3 0 0 0 4.18 0l1-1a2.94 2.94 0 0 1 3.48-.51 23.92 23.92 0 0 0 4.9 2 2.93 2.93 0 0 1 2.12 2.83v1.4a3 3 0 0 0 3 3h3.36a3 3 0 0 0 3-3v-1.5a3 3 0 0 1 2.08-2.84 23.43 23.43 0 0 0 4.74-2 3 3 0 0 1 3.52.5l1.13 1.13a3 3 0 0 0 4.18 0l2.38-2.38a3 3 0 0 0 0-4.18l-1.26-1.26a2.93 2.93 0 0 1 -.52-3.45 24.31 24.31 0 0 0 1.79-4.69 3 3 0 0 1 2.84-2.13h1.84a3 3 0 0 0 2.95-3v-3.3a3 3 0 0 0 -2.95-2.95zm-27.43 18.93a14.3 14.3 0 1 1 14.3-14.29 14.29 14.29 0 0 1 -14.3 14.29z" fill="#fff"/></svg>