<?xml version="1.0" encoding="utf-8"?>
<!-- Generator: Adobe Illustrator 24.2.1, SVG Export Plug-In . SVG Version: 6.00 Build 0)  -->
<svg version="1.1" id="Layer_1" xmlns="http://www.w3.org/2000/svg" xmlns:xlink="http://www.w3.org/1999/xlink" x="0px" y="0px"
	 viewBox="0 0 122.7 100" style="enable-background:new 0 0 122.7 100;" xml:space="preserve">
<style type="text/css">
	.st0-2c26a4ca8afe5cd9180546e0103ab1a9{fill:#010101;}
	.st1-2c26a4ca8afe5cd9180546e0103ab1a9{fill:currentColor;}
</style>
<path class="st0-2c26a4ca8afe5cd9180546e0103ab1a9" d="M105.7,90L105.7,90H22C9.1,89.3-0.8,78.2,0,65.3c0.4-6.5,3.4-12.6,8.4-16.7V72c0,6.3,5,11.4,11.3,11.4l0,0h61
	C87,83.4,92,78.3,92,72l0,0V19c11.2,7.1,16.6,20.5,13.5,33.4c10.4,0.9,18.1,10.1,17.1,20.5C121.8,81.9,114.7,89.1,105.7,90z"/>
<path class="st1-2c26a4ca8afe5cd9180546e0103ab1a9" d="M78.8,10H21.5c-2.3,0-4.2,1.9-4.3,4.3v57.3c0,2.4,1.9,4.3,4.3,4.3h57.3c2.4,0,4.3-1.9,4.3-4.3V14.3
	C83.1,11.9,81.2,10,78.8,10z M68.6,67.7C68.5,67.7,68.5,67.7,68.6,67.7c-2.8,0-5-2.3-5-5s2.3-4.9,5-4.9s4.9,2.3,4.9,5
	C73.5,65.6,71.3,67.7,68.6,67.7z"/>
</svg>
