<svg xmlns="http://www.w3.org/2000/svg" viewBox="0 0 122.7 100">
	<title>Block Storage</title>
  <path fill="#010101" d="M105.7 90H22C9.1 89.3-.8 78.2 0 65.3c.4-6.5 3.4-12.6 8.4-16.7V72c0 6.3 5 11.4 11.3 11.4h61C87 83.4 92 78.3 92 72V19c11.2 7.1 16.6 20.5 13.5 33.4 10.4.9 18.1 10.1 17.1 20.5-.8 9-7.9 16.2-16.9 17.1z"/>
  <path fill="currentColor" d="M78.8 10H21.5c-2.3 0-4.2 1.9-4.3 4.3v57.3c0 2.4 1.9 4.3 4.3 4.3h57.3c2.4 0 4.3-1.9 4.3-4.3V14.3c0-2.4-1.9-4.3-4.3-4.3zM68.6 67.7c-.1 0-.1 0 0 0-2.8 0-5-2.3-5-5s2.3-4.9 5-4.9 4.9 2.3 4.9 5c0 2.8-2.2 4.9-4.9 4.9z"/>
</svg>