<svg viewBox="0 0 63.44 63.44" xmlns="http://www.w3.org/2000/svg"><path d="m31.72 61.94a30.22 30.22 0 1 1 30.22-30.22 30.26 30.26 0 0 1 -30.22 30.22z" fill="none" stroke="#020202" stroke-miterlimit="10" stroke-width="3"/><path d="m26.82 15-.06-5h9.92l-.06 5 5.11 2.46 3.89-3.18 6.18 7.76-4 3.08 1.26 5.53 4.94 1.07-2.2 9.67-4.88-1.17-3.53 4.43 2.23 4.5-8.94 4.3-2.13-4.55h-5.66l-2.13 4.55-8.94-4.3 2.23-4.5-3.53-4.43-4.88 1.17-2.21-9.67 4.91-1.06 1.26-5.53-4-3.08 6.18-7.76 3.89 3.18zm-5.18 16.72a10.08 10.08 0 1 0 10.08-10.08 10.08 10.08 0 0 0 -10.08 10.08z" fill="currentColor"/></svg>
