<svg enable-background="new 0 0 200 200" viewBox="0 0 200 200" xmlns="http://www.w3.org/2000/svg"><path d="m102.51 111.26c-14.17 0-27.44-5.73-37.39-16.15-9.88-10.34-15.34-24.12-15.36-38.81-.05-31.18 23.66-55.7 53.98-55.82h.18c12.74 0 25 5.24 34.54 14.76 10.63 10.61 16.71 25.49 16.69 40.83-.02 14.72-5.42 28.54-15.2 38.9-9.89 10.47-23.14 16.26-37.32 16.29-.04 0-.08 0-.12 0zm-37.88-54.98c.02 10.85 4.01 20.99 11.24 28.56 7.12 7.45 16.58 11.55 26.64 11.55h.08c21.09-.04 37.65-17.76 37.68-40.34.02-11.42-4.47-22.45-12.32-30.29-6.74-6.72-15.27-10.42-24.04-10.42-.04 0-.08 0-.12 0-22 .1-39.2 18.08-39.16 40.94zm-4.81 143.24c-10.05 0-20.19-.01-30.23-.06-6.64-.03-11.58-2.1-14.7-6.16-3.47-4.51-4.11-10.68-1.98-18.85 2.41-9.2 7.01-17.66 12.32-22.64 11.2-10.5 23.2-19.72 34.81-28.64l3-2.31c4.28-3.29 10.53-4.29 15.56-2.5 14.44 5.17 28.42 5.14 42.73-.07 4.91-1.79 11.17-.7 15.59 2.71 14.02 10.82 26.11 20.65 36.95 30.04 4.55 3.94 8.54 9.54 10.96 15.36 4.42 10.62 4.61 19.07.58 25.12-2.42 3.63-7.49 7.96-17.9 7.97-16.28.02-32.55.01-48.83.01h-19.27c-6.78 0-13.56.01-20.34.01-6.34 0-12.78.01-19.25.01zm-33.13-15.34c.3.13 1.14.4 2.97.41 16.46.07 33.21.06 49.41.05 6.78 0 13.58-.01 20.35-.01h19.27c16.27 0 32.54.01 48.81-.01 3.21 0 5.1-.68 5.54-1.34.62-.93.91-4.33-1.93-11.16-1.54-3.71-4.15-7.38-6.98-9.83-10.62-9.21-22.49-18.86-36.29-29.51-.36-.28-1.17-.48-1.55-.46-17.42 6.31-35.15 6.33-52.7.05-.32-.08-1.19.08-1.5.29l-3 2.3c-11.32 8.7-23.03 17.7-33.69 27.7-3.25 3.05-6.43 9.15-8.11 15.56-.99 3.84-.72 5.51-.6 5.96z" fill="#060606"/><path d="m64.63 56.28c.02 10.85 4.01 20.99 11.24 28.56 7.12 7.45 16.58 11.55 26.64 11.55h.08c21.09-.04 37.65-17.76 37.68-40.34.02-11.42-4.47-22.45-12.32-30.29-6.74-6.72-15.27-10.42-24.04-10.42-.04 0-.08 0-.12 0-22 .1-39.2 18.08-39.16 40.94zm-37.94 127.9c.3.13 1.14.4 2.97.41 16.46.07 33.21.06 49.41.05 6.78 0 13.58-.01 20.35-.01h19.27c16.27 0 32.54.01 48.81-.01 3.21 0 5.1-.68 5.54-1.34.62-.93.91-4.33-1.93-11.16-1.54-3.71-4.15-7.38-6.98-9.83-10.62-9.21-22.49-18.86-36.29-29.51-.36-.28-1.17-.48-1.55-.46-17.42 6.31-35.15 6.33-52.7.05-.32-.08-1.19.08-1.5.29l-3 2.3c-11.32 8.7-23.03 17.7-33.69 27.7-3.25 3.05-6.43 9.15-8.11 15.56-.99 3.84-.72 5.51-.6 5.96z" fill="currentColor"/></svg>