<svg viewBox="0 0 200 200" xmlns="http://www.w3.org/2000/svg"><path d="m130 100a30 30 0 1 1 -30-30 30 30 0 0 1 30 30z" fill="currentColor"/><g fill="#32363b"><path d="m174 97.2c-13.63-16.61-42.5-36-74-36s-60.48 19.51-74 36a4.43 4.43 0 0 0 0 5.6c14 17 42.89 36 74 36 32.22 0 61-20.1 74-36a4.43 4.43 0 0 0 0-5.6zm-44 2.8a30 30 0 1 1 -30-30 30 30 0 0 1 30 30zm-94.6 0a106.64 106.64 0 0 1 33.72-23.45 38.71 38.71 0 0 0 0 46.89 104.58 104.58 0 0 1 -33.75-23.44zm95.51 23.45a38.71 38.71 0 0 0 0-46.89 104.58 104.58 0 0 1 33.72 23.44 106.64 106.64 0 0 1 -33.75 23.45z"/><path d="m85 100a15 15 0 1 0 15-15 15 15 0 0 0 -15 15zm21.18 0a6.18 6.18 0 1 1 -6.18-6.18 6.18 6.18 0 0 1 6.18 6.18z"/><path d="m100 44.12a4.41 4.41 0 0 0 4.41-4.41v-10.3a4.41 4.41 0 1 0 -8.82 0v10.3a4.41 4.41 0 0 0 4.41 4.41z"/><path d="m126.32 50a4.42 4.42 0 0 0 6-1.65l5.87-10.29a4.41 4.41 0 1 0 -7.66-4.37l-5.85 10.31a4.42 4.42 0 0 0 1.64 6z"/><path d="m67.66 48.37a4.41 4.41 0 1 0 7.66-4.37l-5.87-10.29a4.41 4.41 0 1 0 -7.66 4.37z"/><path d="m100 155.88a4.41 4.41 0 0 0 -4.41 4.41v10.3a4.41 4.41 0 1 0 8.82 0v-10.3a4.41 4.41 0 0 0 -4.41-4.41z"/><path d="m73.68 150a4.42 4.42 0 0 0 -6 1.65l-5.87 10.29a4.41 4.41 0 1 0 7.66 4.37l5.85-10.31a4.42 4.42 0 0 0 -1.64-6z"/><path d="m132.34 151.63a4.41 4.41 0 1 0 -7.66 4.37l5.87 10.29a4.41 4.41 0 1 0 7.66-4.37z"/></g></svg>