<svg viewBox="0 0 72 72" xmlns="http://www.w3.org/2000/svg"><path d="m20.73 9.47h30.54a5.34 5.34 0 0 1 5.33 5.34v42.38a5.34 5.34 0 0 1 -5.33 5.34h-30.54a5.34 5.34 0 0 1 -5.33-5.34v-42.38a5.34 5.34 0 0 1 5.33-5.34z" fill="#fff" stroke="#32363b" stroke-linecap="round" stroke-linejoin="round" stroke-width="2.51"/><path d="m21.92 43.37h28.16" fill="none" stroke="currentColor" stroke-linecap="round" stroke-linejoin="round" stroke-width="2"/><path d="m25.38 50.23a1.92 1.92 0 0 0 -1.38-.63.91.91 0 0 0 -1 1c0 1.43 3.26 1.15 3.26 3.57a2.11 2.11 0 0 1 -1.86 2.19v1.24h-.95v-1.2a3.71 3.71 0 0 1 -2.08-.91l.62-.94a2.87 2.87 0 0 0 1.78.75c.78 0 1.16-.39 1.16-1 0-1.59-3.26-1.36-3.26-3.61a2 2 0 0 1 1.78-2.1v-1.3h.95v1.2a2.79 2.79 0 0 1 1.74.94z" fill="currentColor"/><g fill="none" stroke-miterlimit="10" stroke-width="1.18"><circle cx="23.8" cy="16.86" r="2.41" stroke="currentColor"/><circle cx="23.8" cy="25.58" r="2.41" stroke="currentColor"/><circle cx="23.8" cy="34.3" r="2.41" stroke="currentColor"/><path d="m30.97 16.86h19.11" stroke="#32363b" stroke-linecap="round"/><path d="m30.97 25.43h19.11" stroke="#32363b" stroke-linecap="round"/><path d="m30.97 34.3h19.11" stroke="#32363b" stroke-linecap="round"/></g></svg>