<svg viewBox="0 0 200 200" xmlns="http://www.w3.org/2000/svg"><path d="m172.77 58.93a2.15 2.15 0 0 1 .08.62v32.19a2.34 2.34 0 0 1 -1.18 2l-27 15.56v30.84a2.35 2.35 0 0 1 -1.17 2l-56.43 32.55a3 3 0 0 1 -.41.17l-.16.06a2.22 2.22 0 0 1 -1.2 0l-.19-.07a3.2 3.2 0 0 1 -.39-.16l-56.39-32.48a2.33 2.33 0 0 1 -1.18-2v-96.62a2.57 2.57 0 0 1 .08-.62c0-.07.06-.13.08-.2a2.28 2.28 0 0 1 .15-.36 1.66 1.66 0 0 1 .16-.21 2.78 2.78 0 0 1 .21-.27 2 2 0 0 1 .23-.18 2.56 2.56 0 0 1 .26-.2l28.2-16.24a2.4 2.4 0 0 1 2.35 0l28.2 16.24a2.43 2.43 0 0 1 .25.2 1.41 1.41 0 0 1 .23.18 1.78 1.78 0 0 1 .21.27 1.66 1.66 0 0 1 .16.21 2.83 2.83 0 0 1 .16.36c0 .07.06.13.08.2a2.57 2.57 0 0 1 .08.62v60.33l23.5-13.53v-30.85a2.55 2.55 0 0 1 .08-.61c0-.07.06-.13.08-.2a2.32 2.32 0 0 1 .16-.36 1.66 1.66 0 0 1 .16-.21 1.78 1.78 0 0 1 .21-.27 1.41 1.41 0 0 1 .23-.18 2.43 2.43 0 0 1 .25-.2l28.2-16.24a2.4 2.4 0 0 1 2.35 0l28.2 16.24a2.56 2.56 0 0 1 .26.2 2 2 0 0 1 .23.18 2.78 2.78 0 0 1 .21.27 1.66 1.66 0 0 1 .16.21 3.88 3.88 0 0 1 .15.36 1.67 1.67 0 0 1 .1.2zm-4.62 31.46v-26.78l-9.87 5.68-13.63 7.85v26.78l23.51-13.53zm-28.15 48.43v-26.82l-13.41 7.66-38.34 21.88v27.05zm-108.15-91.17v91.17l51.7 29.76v-27l-27-15.29a2.26 2.26 0 0 1 -.26-.2 1.63 1.63 0 0 1 -.22-.17c-.08-.08-.13-.17-.2-.25a1.7 1.7 0 0 1 -.17-.23 2.52 2.52 0 0 1 -.12-.29 1.28 1.28 0 0 1 -.11-.27 2 2 0 0 1 0-.34 2.48 2.48 0 0 1 0-.27v-63l-13.75-7.94zm25.85-17.59-23.5 13.53 23.49 13.52 23.5-13.53-23.5-13.52zm12.22 84.41 13.63-7.85v-59l-9.87 5.68-13.63 7.88v59zm72.38-68.47-23.49 13.55 23.49 13.52 23.49-13.53zm-2.3 31.14-13.63-7.85-9.87-5.68v26.78l13.63 7.84 9.87 5.69zm-54.11 60.34 34.46-19.67 17.23-9.81-23.48-13.54-27.03 15.54-24.63 14.2z" fill="#32363b" fill-rule="evenodd"/></svg>