<svg viewBox="0 0 200 200" xmlns="http://www.w3.org/2000/svg"><path d="m100 25a75 75 0 1 0 75 75 75 75 0 0 0 -75-75zm64.86 101.27-21.32 3.73a112.16 112.16 0 0 0 3.92-27.45h22.48a69.31 69.31 0 0 1 -5.08 23.72zm-134.8-23.77h22.48a112.16 112.16 0 0 0 3.92 27.5l-21.32-3.68a69.31 69.31 0 0 1 -5.08-23.82zm5.08-28.77 21.32-3.68a112.16 112.16 0 0 0 -3.92 27.45h-22.48a69.31 69.31 0 0 1 5.08-23.77zm67.36-8.59a172.07 172.07 0 0 1 26.8 2.45l8.82 1.52a107.06 107.06 0 0 1 4.34 28.39h-40zm27.65-2.48a177.88 177.88 0 0 0 -27.65-2.52v-30c14.33 1.38 26.78 14.5 33.84 33.6zm-32.65-2.52a178 178 0 0 0 -27.65 2.52l-6.19 1.07c7.06-19.1 19.51-32.23 33.84-33.6zm-26.8 7.45a172.07 172.07 0 0 1 26.8-2.45v32.36h-40a107.06 107.06 0 0 1 4.34-28.39zm-13.16 34.91h40v32.36a172.07 172.07 0 0 1 -26.8-2.45l-8.82-1.52a107.06 107.06 0 0 1 -4.38-28.39zm12.31 34.84a177.89 177.89 0 0 0 27.65 2.53v30c-14.33-1.38-26.78-14.5-33.84-33.6zm32.65 2.53a178 178 0 0 0 27.65-2.53l6.19-1.07c-7.06 19.1-19.51 32.23-33.84 33.6zm26.8-7.46a172.07 172.07 0 0 1 -26.8 2.45v-32.36h40a107.06 107.06 0 0 1 -4.34 28.39zm18.16-34.91a112.16 112.16 0 0 0 -3.92-27.45l21.32 3.68a69.31 69.31 0 0 1 5.08 23.77zm14.88-29.28-20.45-3.53a69 69 0 0 0 -19.89-31.13 70.37 70.37 0 0 1 40.34 34.66zm-84.34-34.66a69 69 0 0 0 -19.89 31.13l-20.45 3.53a70.37 70.37 0 0 1 40.34-34.66zm-40.34 98.22 20.45 3.53a69 69 0 0 0 19.89 31.13 70.37 70.37 0 0 1 -40.34-34.66zm84.34 34.66a69 69 0 0 0 19.89-31.13l20.45-3.53a70.37 70.37 0 0 1 -40.34 34.66z" fill="#32363b"/></svg>