<svg enable-background="new 0 0 165 165" viewBox="0 0 165 165" xmlns="http://www.w3.org/2000/svg"><path d="m164.4 93.2c0 3.7-3 6.7-6.7 6.7s-6.7-3-6.7-6.7 3-6.7 6.7-6.7c3.7.1 6.7 3.1 6.7 6.7zm-46.8-15.8h-28.6v-8.6c7.6-.2 13.7-6.5 13.7-14.2s-6.1-14-13.7-14.3v-14h14.5c3.5-.3 6.1-3.5 5.7-7-.3-3.1-2.7-5.5-5.8-5.7 1.4-5.6-2-11.2-7.6-12.6-4.8-1.3-9.8 1.1-12 5.6-2.1-1.9-5.3-1.7-7.1.3-.8.9-1.3 2.1-1.3 3.4v.1c-4.4.1-7.9 3.7-7.8 8 .1 4.2 3.3 7.6 7.5 7.8h12.7v14.1c-7.6.3-13.7 6.6-13.7 14.3s6.1 14 13.7 14.3v8.6h-27.3v6.9h-20.3v18h20.3v8.4h-33.8v7h-2.1l-10.1-28h12.7v-5.4h-11.8l11.4-17.5c2.1 1.3 4.6 2 7.3 2 7.9 0 14.3-6.4 14.3-14.3s-6.4-14.3-14.3-14.3-14.3 6.4-14.3 14.3c0 4.8 2.4 9.1 6 11.6l-11.7 18h-14.1v5.4h13.4l10.1 28h-17v18h41.5v-18h-20.2v-5.9h33.3.6 12v5.9h-15.8v5.4h15.8v18h-47v5.5h-20.2v18h41.5v-18h-20.2v-4.4h45.8v6.3h-15.7v5.4h28.6v-5.4h-11.8v-6.3h41.8v4.4h-20.3v18h41.6v-18h-20.3v-5.5h-42.8v-17.9h11.7v-5.4h-11.7v-5.9h41.8v5.9h-20.3v18h41.6v-18h-20.3v-7h-42.8-.6-12.5v-8.4h20.3v-18h-20.3v-5.8h26.8.6 27.5v5.8h-20.3v18h41.6v-18h-20.3z" fill="#393e44"/></svg>