<svg viewBox="0 0 200 200" xmlns="http://www.w3.org/2000/svg"><g fill="none" stroke-miterlimit="10"><path d="m139.53 48.05-32.2 66.08" stroke="currentColor" stroke-width="5.38"/><path d="m107.33 114.13-65.58 10.73" stroke="currentColor" stroke-width="5.38"/><path d="m107.33 114.13 57.27 43.51" stroke="currentColor" stroke-width="5.38"/><path d="m119.86 144.71a33.07 33.07 0 0 1 -37.15-8.55" stroke="#32363b" stroke-linecap="round" stroke-width="3.23"/><path d="m128.42 88.7a33 33 0 0 1 11.26 18.66" stroke="#32363b" stroke-linecap="round" stroke-width="3.23"/><path d="m74.68 109.09a33 33 0 0 1 32.65-28 33.52 33.52 0 0 1 7.49.85" stroke="#32363b" stroke-linecap="round" stroke-width="3.23"/></g><path d="m107.33 138.52a24.39 24.39 0 1 1 24.39-24.39 24.42 24.42 0 0 1 -24.39 24.39z" fill="currentColor"/><path d="m107.33 92.09a22 22 0 1 1 -22 22 22.07 22.07 0 0 1 22-22m0-4.71a26.75 26.75 0 1 0 26.75 26.75 26.75 26.75 0 0 0 -26.75-26.75z" fill="#32363b"/><circle cx="41.75" cy="124.86" fill="currentColor" r="12.54"/><path d="m41.75 114.68a10.19 10.19 0 1 1 -10.19 10.18 10.18 10.18 0 0 1 10.19-10.18m0-4.71a14.89 14.89 0 1 0 14.89 14.89 14.92 14.92 0 0 0 -14.89-14.86z" fill="#32363b"/><circle cx="164.6" cy="157.64" fill="currentColor" r="12.54"/><path d="m164.6 147.46a10.19 10.19 0 1 1 -10.19 10.18 10.18 10.18 0 0 1 10.19-10.18m0-4.71a14.9 14.9 0 1 0 14.89 14.89 14.91 14.91 0 0 0 -14.89-14.89z" fill="#32363b"/><circle cx="139.53" cy="48.05" fill="currentColor" r="12.54"/><path d="m139.53 37.87a10.19 10.19 0 1 1 -10.19 10.18 10.18 10.18 0 0 1 10.19-10.18m0-4.71a14.9 14.9 0 1 0 14.89 14.89 14.91 14.91 0 0 0 -14.89-14.89z" fill="#32363b"/></svg>