<svg viewBox="0 0 200 200" xmlns="http://www.w3.org/2000/svg" xmlns:xlink="http://www.w3.org/1999/xlink"><clipPath id="a"><path d="m166.66 64.48v75l-64.95 37.5-64.95-37.5v-75l64.95-37.5z"/></clipPath><path d="m166.66 64.48v75l-64.95 37.5-64.95-37.5v-75l64.95-37.5z" fill="currentColor"/><g clip-path="url(#a)"><path d="m36.76 64.48 64.95 36.55 64.95-36.55-64.95-37.5z" fill="#fff"/></g><g stroke-linecap="round"><path d="m166.66 64.48v75l-64.95 37.5-64.95-37.5v-75l64.95-37.5z" fill="none" stroke="#32363b" stroke-width="4.5"/><path d="m73.3 114.26v10.38h14.3v13.06h28.22v-13.06h14.3v-10.38h13.81v-40.4h-84.44v40.4z" fill="#fff" stroke="#32363b" stroke-width="4.5"/><path d="m101.71 86.35v13.43" fill="none" stroke="currentColor" stroke-linejoin="round" stroke-width="5.44"/><path d="m114.92 86.35v13.43" fill="none" stroke="currentColor" stroke-linejoin="round" stroke-width="5.44"/><path d="m88.49 86.35v13.43" fill="none" stroke="currentColor" stroke-linejoin="round" stroke-width="5.44"/><path d="m75.28 86.35v13.43" fill="none" stroke="currentColor" stroke-linejoin="round" stroke-width="5.44"/><path d="m128.14 86.35v13.43" fill="none" stroke="currentColor" stroke-linejoin="round" stroke-width="5.44"/></g></svg>