<svg viewBox="0 0 200 200" xmlns="http://www.w3.org/2000/svg"><path d="m165.44 100.06h9.56a66.87 66.87 0 0 0 -133.57-4.73l-9.67-9.67-6.76 6.75 20.55 20.59 20.55-20.59-6.78-6.75-8.22 8.22a57.34 57.34 0 0 1 114.34 6.18z" fill="currentColor" stroke="#32363b" stroke-linecap="round" stroke-linejoin="round" stroke-width="4.37"/><g fill="#32363b"><path d="m96.15 164.13a68.88 68.88 0 0 0 10.24.94l.16-9.56a58.74 58.74 0 0 1 -8.78-.81z"/><path d="m56.55 124.52-8.48 4.4a67.63 67.63 0 0 0 5.41 8.74l7.72-5.66a57.73 57.73 0 0 1 -4.65-7.48z"/><path d="m76.71 157.58a66.36 66.36 0 0 0 9.44 4l3-9.06a55.58 55.58 0 0 1 -8.11-3.44z"/><path d="m66.94 138.71-6.76 6.76a67.15 67.15 0 0 0 7.8 6.69l5.65-7.71a57.21 57.21 0 0 1 -6.69-5.74z"/><path d="m146.63 140 6.56 6.93a67.3 67.3 0 0 0 6.91-7.6l-7.56-5.87a58.16 58.16 0 0 1 -5.91 6.54z"/><path d="m115.33 155 1.31 9.48a67.69 67.69 0 0 0 10-2.19l-2.75-9.16a57.71 57.71 0 0 1 -8.56 1.87z"/><path d="m157.43 126.08 8.35 4.65a66.73 66.73 0 0 0 4.3-9.33l-9-3.32a57.82 57.82 0 0 1 -3.65 8z"/><path d="m132.15 149.9 4.14 8.62a66.76 66.76 0 0 0 8.89-5.16l-5.41-7.87a58.93 58.93 0 0 1 -7.62 4.41z"/></g></svg>