<svg xmlns="http://www.w3.org/2000/svg" viewBox="0 0 110.9 100">
  <title>Object Storage</title>
  <path fill="#010101" d="M95.6 90H20C8.3 89.4-.6 79.4 0 67.7.4 61.1 3.9 55 9.4 51.3l2.3 22.1c.5 5.2 4.8 9.1 10 9.1h37.9c5.2 0 9.5-4 10-9.1l5.3-50.2 1.2-.3C90.5 27 98.9 41.6 95.4 56c9.4.8 16.3 9.1 15.5 18.5-.7 8.1-7.2 14.6-15.3 15.5z"/>
  <path fill="currentColor" d="M73 10H8.5c-2.5 0-4.4 2-4.4 4.4s2 4.4 4.4 4.4h3.6L18 72.7c.1 2 1.8 3.6 3.8 3.6h37.9c2 0 3.7-1.5 3.9-3.5l5.9-53.9h3.6c2.5 0 4.4-2 4.4-4.4S75.5 10 73 10zM53.9 71.4c-2.5 0-4.5-2-4.5-4.5s2-4.5 4.5-4.5 4.5 2 4.5 4.5c-.1 2.5-2.1 4.5-4.5 4.5z"/>
</svg>