<?xml version="1.0" encoding="utf-8"?>
<!-- Generator: Adobe Illustrator 23.0.4, SVG Export Plug-In . SVG Version: 6.00 Build 0)  -->
<svg version="1.1" id="Layer_1" xmlns="http://www.w3.org/2000/svg" xmlns:xlink="http://www.w3.org/1999/xlink" x="0px" y="0px"
	 viewBox="0 0 110.9 100" style="enable-background:new 0 0 110.9 100;" xml:space="preserve">
<style type="text/css">
	.st0-a3cd3bc2538574e9ce1089d223b8578b{fill:#010101;}
	.st1-a3cd3bc2538574e9ce1089d223b8578b{fill:currentColor;}
</style>
<title>objectStorage</title>
<g>
	<g id="Layer_1-2">
		<path class="st0-a3cd3bc2538574e9ce1089d223b8578b" d="M95.6,90L95.6,90H20C8.3,89.4-0.6,79.4,0,67.7C0.4,61.1,3.9,55,9.4,51.3l2.3,22.1c0.5,5.2,4.8,9.1,10,9.1
			h37.9c5.2,0,9.5-4,10-9.1l5.3-50.2c0.4-0.1,0.8-0.2,1.2-0.3C90.5,27,98.9,41.6,95.4,56c9.4,0.8,16.3,9.1,15.5,18.5
			C110.2,82.6,103.7,89.1,95.6,90L95.6,90z"/>
		<path class="st1-a3cd3bc2538574e9ce1089d223b8578b" d="M73,10H8.5c-2.5,0-4.4,2-4.4,4.4s2,4.4,4.4,4.4h3.6L18,72.7c0.1,2,1.8,3.6,3.8,3.6h37.9c2,0,3.7-1.5,3.9-3.5
			l5.9-53.9h3.6c2.5,0,4.4-2,4.4-4.4S75.5,10,73,10L73,10z M53.9,71.4c-2.5,0-4.5-2-4.5-4.5c0-2.5,2-4.5,4.5-4.5s4.5,2,4.5,4.5
			c0,0,0,0,0,0C58.3,69.4,56.3,71.4,53.9,71.4z"/>
	</g>
</g>
</svg>
