<svg viewBox="0 0 200 200" xmlns="http://www.w3.org/2000/svg"><path d="m22.81 40.75h154.38v118.51h-154.38z" fill="currentColor"/><path d="m175 42.93v114.14h-150v-114.14zm4.38-4.37h-158.76v122.88h158.76z" fill="#32363b"/><g fill="#fff"><path d="m52.28 116.26c3.37 2.49 6.37 3.66 8.93 3.66s3.66-.73 3.66-2.19c0-1.91-3.37-2.78-7-4.25-4.24-1.68-9.22-4.83-9.22-10.83 0-7.17 5.85-11.85 14.49-11.85a21.59 21.59 0 0 1 13.46 4.83l-5.6 7.46c-2.63-1.9-5.19-3.07-7.46-3.07s-3.22.58-3.22 2c0 1.9 3.22 2.63 6.88 4 4.39 1.61 9.36 4.39 9.36 11 0 6.88-5.41 12.15-15.66 12.15a24.4 24.4 0 0 1 -14.18-5.17z"/><path d="m85.35 116.26c3.37 2.49 6.37 3.66 8.93 3.66s3.66-.73 3.66-2.19c0-1.91-3.37-2.78-7-4.25-4.25-1.68-9.22-4.83-9.22-10.83 0-7.17 5.85-11.85 14.48-11.85a21.65 21.65 0 0 1 13.47 4.83l-5.56 7.46c-2.64-1.9-5.2-3.07-7.47-3.07s-3.22.58-3.22 2c0 1.9 3.22 2.63 6.88 4 4.39 1.61 9.37 4.39 9.37 11 0 6.88-5.42 12.15-15.66 12.15a24.45 24.45 0 0 1 -14.22-5.17z"/><path d="m115.79 77.33h12.59v11.86l-.59 6.29c2.49-2.19 6-4.68 11-4.68 8 0 11.42 5.85 11.42 14.93v22.53h-12.61v-20.92c0-4.69-1.17-5.86-3.66-5.86-2.34 0-3.66 1-5.56 2.78v24h-12.59z"/></g><path d="m25 42.93h150v16.91h-150z" fill="#32363b"/></svg>