<svg viewBox="0 0 200 200" xmlns="http://www.w3.org/2000/svg"><path d="m83.16 176.89a7.26 7.26 0 0 1 -5.16-2.15c-6.77-6.85-10.43-11.21-15.66-20.53-5.44-9.75-8.34-21.61-8.34-34.3 0-24.22 20.64-43.91 46-43.91s46 19.7 46 43.92a7.25 7.25 0 0 1 -14.5 0c0-16.22-14.12-29.42-31.49-29.42s-31.48 13.2-31.48 29.42c0 10.18 2.24 19.59 6.49 27.21a68 68 0 0 0 13.26 17.39 7.21 7.21 0 0 1 2.11 5.2 7.05 7.05 0 0 1 -2.09 5 6.91 6.91 0 0 1 -5.14 2.17z" fill="currentColor"/><path d="m100 79.49c23.44 0 42.49 18.11 42.49 40.42a3.75 3.75 0 0 1 -7.5 0c.01-18.15-15.68-32.91-34.99-32.91s-35 14.77-35 32.92c0 10.8 2.4 20.78 6.93 28.91a71.14 71.14 0 0 0 13.85 18.17 3.71 3.71 0 0 1 0 5.29 3.35 3.35 0 0 1 -2.58 1.13 3.74 3.74 0 0 1 -2.67-1.13c-6.48-6.56-10-10.72-15.07-19.76-5.18-9.23-7.91-20.51-7.91-32.59 0-22.27 19.05-40.42 42.48-40.42m0-7c-27.28 0-49.48 21.27-49.48 47.42 0 13.29 3 25.74 8.8 36 5.39 9.62 9.36 14.33 16.21 21.26a10.69 10.69 0 0 0 7.64 3.21 10.42 10.42 0 0 0 7.65-3.29 10.56 10.56 0 0 0 3.06-7.35 10.81 10.81 0 0 0 -3.18-7.77 64 64 0 0 1 -12.68-16.6c-4-7.08-6-15.9-6-25.49-.05-14.29 12.51-25.91 27.95-25.91s28 11.63 28 25.92a10.75 10.75 0 0 0 21.5 0c0-26.15-22.2-47.42-49.49-47.42z" fill="#32363b"/><path d="m56.49 47a7.26 7.26 0 0 1 -3.49-13.59 97.27 97.27 0 0 1 47.07-11.91c16.57 0 31 3.65 46.83 11.83a7.14 7.14 0 0 1 3.58 4.25 7.24 7.24 0 0 1 -6.91 9.42 7.45 7.45 0 0 1 -3.21-.74l-.12-.06c-13.86-7.14-25.88-10.2-40.17-10.2a82.76 82.76 0 0 0 -40.07 10.15 7.46 7.46 0 0 1 -3.48.88z" fill="currentColor"/><path d="m100.07 25c16 0 29.92 3.53 45.22 11.44a3.75 3.75 0 0 1 -1.72 7.08 4 4 0 0 1 -1.73-.41c-14.36-7.42-26.84-10.61-41.77-10.61a86.27 86.27 0 0 0 -41.78 10.57 3.76 3.76 0 1 1 -3.6-6.6 93.9 93.9 0 0 1 45.38-11.47m0-7a100.79 100.79 0 0 0 -48.72 12.33 10.72 10.72 0 0 0 -4.35 14.53l.05.09a10.78 10.78 0 0 0 9.43 5.58 10.94 10.94 0 0 0 5.09-1.27h.06a79.41 79.41 0 0 1 38.43-9.72c13.7 0 25.23 2.94 38.56 9.83l.25.13a11.17 11.17 0 0 0 4.69 1.06 10.74 10.74 0 0 0 9.52-5.75.41.41 0 0 0 0-.09 10.79 10.79 0 0 0 -4.66-14.48c-16.25-8.47-31.19-12.24-48.35-12.24z" fill="#32363b"/><path d="m121.78 178.5a6.1 6.1 0 0 1 -2-.31c-12.51-3.42-20.73-8.09-29.3-16.61a58.39 58.39 0 0 1 -17.27-41.58c0-14.11 11.93-25.59 26.6-25.59s26.6 11.48 26.6 25.59c0 6.11 5.42 11.09 12.1 11.09s12.1-5 12.1-11.09c0-26.34-22.81-47.76-50.84-47.76-20 0-38.23 11.08-46.42 28.23a44.82 44.82 0 0 0 -4 19.53 71.25 71.25 0 0 0 4.76 25.81 7.24 7.24 0 0 1 -4.23 9.33 7.33 7.33 0 0 1 -2.57.47 7.23 7.23 0 0 1 -6.79-4.69 87 87 0 0 1 -5.75-30.92 58.94 58.94 0 0 1 5.48-25.78c10.6-22.22 33.94-36.49 59.48-36.49 36 0 65.34 27.93 65.34 62.26 0 14.11-11.93 25.59-26.6 25.59s-26.6-11.48-26.6-25.59c0-6.12-5.43-11.09-12.1-11.09s-12.1 5-12.1 11.09a43.9 43.9 0 0 0 13 31.34c6.64 6.61 13.09 10.23 23 12.94a7.29 7.29 0 0 1 4.38 3.41 7.16 7.16 0 0 1 .69 5.54 7.25 7.25 0 0 1 -6.96 5.28z" fill="currentColor"/><path d="m99.73 61.22c34.09 0 61.84 26.37 61.84 58.77 0 12.19-10.39 22.09-23.1 22.09s-23.1-9.9-23.1-22.09c0-8-7-14.59-15.6-14.59s-15.6 6.53-15.6 14.59a47.48 47.48 0 0 0 14 33.82c7.09 7.05 14 10.95 24.57 13.84a3.77 3.77 0 0 1 2.62 4.61 3.73 3.73 0 0 1 -3.6 2.74 2.82 2.82 0 0 1 -1-.15c-12-3.26-19.77-7.69-27.87-15.75a54.91 54.91 0 0 1 -16.18-39.1c0-12.19 10.35-22.09 23.1-22.09s23.1 9.9 23.1 22.09c0 8 7 14.59 15.6 14.59s15.6-6.53 15.6-14.59c0-28.27-24.38-51.26-54.34-51.26-21.34 0-40.8 11.85-49.58 30.22a48.26 48.26 0 0 0 -4.38 21 74.87 74.87 0 0 0 5 27 3.76 3.76 0 0 1 -7 2.62 83.61 83.61 0 0 1 -5.54-29.58 55.42 55.42 0 0 1 5.14-24.26c10-20.93 32.13-34.47 56.32-34.47m0-7c-26.88 0-51.46 15.09-62.64 38.45a62.41 62.41 0 0 0 -5.82 27.28 90.55 90.55 0 0 0 5.91 32.11v.06a10.76 10.76 0 0 0 13.82 6.23h.11a10.72 10.72 0 0 0 6.28-13.77 68 68 0 0 1 -4.58-24.63 41.29 41.29 0 0 1 3.69-18c7.62-16 24.6-26.26 43.27-26.26 26.1 0 47.34 19.85 47.34 44.26 0 4.18-3.86 7.59-8.6 7.59s-8.6-3.41-8.6-7.59c0-16-13.51-29.09-30.1-29.09s-30.1 13-30.1 29.09a61.83 61.83 0 0 0 18.29 44.06c8.9 8.86 17.83 13.93 30.76 17.49a9.94 9.94 0 0 0 3 .45 10.75 10.75 0 0 0 10.35-7.87 10.62 10.62 0 0 0 -1-8.19 10.78 10.78 0 0 0 -6.44-5h-.06c-9.4-2.57-15.22-5.84-21.47-12.05a40.45 40.45 0 0 1 -12-28.86c0-4.19 3.86-7.59 8.6-7.59s8.6 3.4 8.6 7.59c0 16 13.5 29.09 30.1 29.09s30.13-13.12 30.13-29.12a63.88 63.88 0 0 0 -20.32-46.61 70.06 70.06 0 0 0 -48.52-19.17z" fill="#32363b"/><path d="m36.24 86.4a7.44 7.44 0 0 1 -4.11-1.26l-.13-.06a7.24 7.24 0 0 1 -1.68-10.08 81.52 81.52 0 0 1 29.4-25.65 90.08 90.08 0 0 1 80.57-.08 81.91 81.91 0 0 1 29.37 25.45 7.23 7.23 0 0 1 -5.9 11.45 7.25 7.25 0 0 1 -5.91-3 66.8 66.8 0 0 0 -24.16-21 75.45 75.45 0 0 0 -67.3.06 67 67 0 0 0 -24.21 21.15 7.38 7.38 0 0 1 -5.94 3.02z" fill="currentColor"/><path d="m100.09 43.29a84.62 84.62 0 0 1 38.6 9.09 78.38 78.38 0 0 1 28.13 24.37 3.75 3.75 0 0 1 -6.11 4.35 70.43 70.43 0 0 0 -25.43-22 78.92 78.92 0 0 0 -70.5.08 70.44 70.44 0 0 0 -25.46 22.18 3.8 3.8 0 0 1 -3.08 1.54 3.87 3.87 0 0 1 -2.17-.67 3.74 3.74 0 0 1 -.9-5.22 78 78 0 0 1 28.16-24.56 84.77 84.77 0 0 1 38.76-9.16m0-7a91.66 91.66 0 0 0 -42 9.94 85.12 85.12 0 0 0 -30.64 26.77 10.76 10.76 0 0 0 2.56 15l.17.12a10.85 10.85 0 0 0 14.76-2.52 1.13 1.13 0 0 0 .1-.13 63.54 63.54 0 0 1 22.96-20.13 72 72 0 0 1 64.09-.06 63.47 63.47 0 0 1 22.91 19.89 10.75 10.75 0 0 0 17.51-12.48 85.52 85.52 0 0 0 -30.61-26.54 91.79 91.79 0 0 0 -41.81-9.86z" fill="#32363b"/><path d="m136.89 163c-9.62 0-18.11-2.43-25.21-7.24a43.48 43.48 0 0 1 -19.35-35.76 7.25 7.25 0 0 1 14.5 0 29 29 0 0 0 13 23.8c4.7 3.21 10.28 4.76 17 4.76a45.7 45.7 0 0 0 7.24-.66 7.25 7.25 0 0 1 2.55 14.28 56.92 56.92 0 0 1 -9.73.82z" fill="currentColor"/><path d="m99.58 116.2a3.76 3.76 0 0 1 3.75 3.75 32.46 32.46 0 0 0 14.55 26.7c5.29 3.6 11.51 5.36 19 5.36a49.8 49.8 0 0 0 7.84-.71 3.75 3.75 0 0 1 1.31 7.39 54.27 54.27 0 0 1 -9.15.82c-8.92 0-16.76-2.25-23.25-6.64a40 40 0 0 1 -17.8-32.87 3.76 3.76 0 0 1 3.75-3.75m0-7a10.76 10.76 0 0 0 -10.75 10.75 47 47 0 0 0 20.88 38.71c7.7 5.21 16.85 7.85 27.18 7.85a60.81 60.81 0 0 0 10.39-.93 10.81 10.81 0 0 0 6.91-4.43 10.58 10.58 0 0 0 1.77-8.09 10.76 10.76 0 0 0 -10.56-8.82 11 11 0 0 0 -1.9.17 42.6 42.6 0 0 1 -6.61.6c-6 0-11-1.35-15.07-4.15a25.45 25.45 0 0 1 -11.49-20.91 10.76 10.76 0 0 0 -10.75-10.8z" fill="#32363b"/></svg>