<svg viewBox="0 0 50 52" xmlns="http://www.w3.org/2000/svg"><g fill-rule="evenodd"><path d="m49.6 11.6v.2 11c0 .3-.2.6-.4.7l-9.2 5.2v10.5c0 .3-.2.5-.4.7l-19.2 11.1s-.1 0-.1.1c0 0 0 0-.1 0s-.3 0-.4 0c0 0 0 0-.1 0 0 0-.1 0-.1-.1l-19.2-11.1c-.2-.1-.4-.4-.4-.7v-32.9c0-.1 0-.1 0-.2 0 0 0 0 0-.1 0 0 0-.1.1-.1 0 0 0 0 .1-.1 0 0 0-.1.1-.1 0 0 .1 0 .1-.1 0 0 .1-.1.1-.1l9.5-5.4c.2-.1.6-.1.8 0l9.6 5.5s.1 0 .1.1c0 0 .1 0 .1.1 0 0 0 .1.1.1 0 0 0 0 .1.1 0 0 0 .1.1.1v.1.2 20.6l8-4.6v-10.6c0-.1 0-.1 0-.2 0 0 0 0 0-.1 0 0 0-.1.1-.1 0 0 0 0 .1-.1 0 0 0-.1.1-.1 0 0 .1 0 .1-.1 0 0 .1-.1.1-.1l9.6-5.5c.2-.1.6-.1.8 0l9.6 5.5s.1 0 .1.1c0 0 .1 0 .1.1 0 0 0 .1.1.1 0 0 0 0 .1.1-.2 0-.2.1-.2.2 0-.1 0-.1 0 0zm-1.5 10.7v-9.1l-3.4 1.9-4.7 2.7v9.1zm-9.7 16.5v-9.1l-4.6 2.6-13 7.4v9.2s17.6-10.1 17.6-10.1zm-36.8-31.1v31.1l17.6 10.1v-9.2l-9.2-5.2s-.1 0-.1-.1c0 0-.1 0-.1-.1s0-.1-.1-.1c0 0 0 0-.1-.1v-.1-.1-.1-.1-21.4l-4.6-2.6zm8.8-6-8 4.6 8 4.6 8-4.6zm4.2 28.8 4.6-2.7v-20.1l-3.4 1.9-4.6 2.7v20.1s3.4-1.9 3.4-1.9zm24.6-23.3-8 4.6 8 4.6 8-4.6s-8-4.6-8-4.6zm-.8 10.6-4.6-2.7-3.4-1.9v9.1l4.6 2.7 3.4 1.9zm-18.4 20.5 11.7-6.7 5.9-3.4-8-4.6-9.2 5.4-8.4 4.8s8 4.5 8 4.5z" fill="#32363b"/><path d="m48.1 22.3v-9.1l-3.4 1.9-4.7 2.7v9.1zm-9.7 16.5v-9.1l-4.6 2.6-13 7.4v9.2s17.6-10.1 17.6-10.1zm-36.8-31.1v31.1l17.6 10.1v-9.2l-9.2-5.2s-.1 0-.1-.1c0 0-.1 0-.1-.1s0-.1-.1-.1c0 0 0 0-.1-.1v-.1-.1-.1-.1-21.4l-4.6-2.6zm8.8-6-8 4.6 8 4.6 8-4.6zm4.2 28.8 4.6-2.7v-20.1l-3.4 1.9-4.6 2.7v20.1s3.4-1.9 3.4-1.9zm24.6-23.3-8 4.6 8 4.6 8-4.6s-8-4.6-8-4.6zm-.8 10.6-4.6-2.7-3.4-1.9v9.1l4.6 2.7 3.4 1.9zm-18.4 20.5 11.7-6.7 5.9-3.4-8-4.6-9.2 5.4-8.4 4.8s8 4.5 8 4.5z" fill="currentColor" class="u-fill-current-color"/></g></svg>