<svg viewBox="0 0 200 200" xmlns="http://www.w3.org/2000/svg"><path d="m110.74 41.09h-64.3a21.48 21.48 0 0 0 -21.44 21.4v32.15a21.52 21.52 0 0 0 21.44 21.44v16.09a5.36 5.36 0 0 0 9.13 3.76l19.85-19.85h35.32a21.48 21.48 0 0 0 21.39-21.44v-32.15a21.45 21.45 0 0 0 -21.39-21.4zm10.72 53.55a10.58 10.58 0 0 1 -10.72 10.71h-37.53a5.38 5.38 0 0 0 -3.76 1.58l-12.3 12.31v-8.51a5.36 5.36 0 0 0 -5.33-5.38h-5.38a10.57 10.57 0 0 1 -10.72-10.71v-32.15a10.55 10.55 0 0 1 10.72-10.68h64.3a10.56 10.56 0 0 1 10.72 10.68z" fill="currentColor"/><path d="m137.51 62.49v10.71h16.06a10.59 10.59 0 0 1 10.72 10.72v32.16a10.57 10.57 0 0 1 -10.72 10.71h-5.35a5.36 5.36 0 0 0 -5.37 5.34v8.5l-12.26-12.26a5.34 5.34 0 0 0 -3.79-1.58h-37.49a10.54 10.54 0 0 1 -9.31-5.33h-2.4l-6.26 6.25a21.46 21.46 0 0 0 17.93 9.8h35.27l19.86 19.84a5.36 5.36 0 0 0 9.13-3.78v-16.06a21.5 21.5 0 0 0 21.47-21.43v-32.16a21.51 21.51 0 0 0 -21.43-21.43z" fill="#32363b"/></svg>