<svg viewBox="0 0 200 200" xmlns="http://www.w3.org/2000/svg"><g fill="#32363b"><path d="m154.65 48.74-73.87 79.85 92.83-42.83a74.93 74.93 0 0 0 -18.96-37.02z"/><path d="m99.84 25a74.78 74.78 0 0 0 -28.84 5.74l-9.91 83.52 49.52-88.5a76.05 76.05 0 0 0 -10.77-.76z"/><path d="m174.35 90.36-88 49.23 82.52-9.79a75 75 0 0 0 6.13-29.66 77 77 0 0 0 -.65-9.78z"/><path d="m141.92 162.43a75.58 75.58 0 0 0 23.75-26l-77.35 15.35z"/><path d="m115.11 26.54-43.06 93.32 79.88-73.86a74.91 74.91 0 0 0 -36.82-19.46z"/><path d="m106.12 175a74.77 74.77 0 0 0 23.6-5.91l-43.33-5.09z"/><path d="m31.33 69.24a74.69 74.69 0 0 0 -6.33 24.16l11.67 20.86z"/><path d="m64.46 33.83a75.48 75.48 0 0 0 -26.46 23.65l10.9 54.85z"/></g></svg>