<svg viewBox="0 0 200 200" xmlns="http://www.w3.org/2000/svg"><path d="m96.27 25h5.08c.24 0 .48.09.73.11 1.68.13 3.37.21 5 .39a68.31 68.31 0 0 1 18.27 4.35q33.23 13.15 44.98 46.83a68.16 68.16 0 0 1 3.55 18.38c.09 1.44.16 2.88.24 4.32v1.24c0 .32-.08.65-.08 1a73.3 73.3 0 0 1 -3 19.68 75.41 75.41 0 0 1 -58 52.64 49.21 49.21 0 0 1 -10.67 1.06c-2.37-.06-4.75 0-7.12 0-1.3 0-2.6 0-3.89-.11a70.41 70.41 0 0 1 -15.52-3.19 75.3 75.3 0 0 1 -49.9-53.2 2.48 2.48 0 0 1 0-1 3.44 3.44 0 0 1 3.63-3h30.05a3.52 3.52 0 0 1 3.32 2.07c.14.26.25.52.38.78a39.44 39.44 0 1 0 39-56.45 38.16 38.16 0 0 0 -17.88 2.55 39.14 39.14 0 0 0 -21.27 20 4 4 0 0 1 -4 2.5c-9.7 0-19.39 0-29.09 0h-.62a3.55 3.55 0 0 1 -3.38-4.5 74.54 74.54 0 0 1 25.69-39.86 73.58 73.58 0 0 1 41.55-16.36z" fill="#32363b"/><path d="m81 100.17a17.83 17.83 0 1 1 17.81 17.83 17.84 17.84 0 0 1 -17.81-17.83z" fill="currentColor"/></svg>