<svg viewBox="0 0 200 200" xmlns="http://www.w3.org/2000/svg"><path d="m89 26.07c2.15-1.53 4.05-1.27 6.34 0l19.16 11a3.2 3.2 0 0 0 2.4-.07l18.76-10.89c2.15-1.27 3.93-1.53 6.09-.13l28.8 16.62a5.17 5.17 0 0 1 2.92 4.95v33.45a4.9 4.9 0 0 1 -2.67 4.69l-17 9.77c4.06 3.3 4.06 3.3 4.06 8.5v31.35a4.28 4.28 0 0 1 -2.54 4.18l-59.25 34.27c-2.79 1.65-4.82 1.65-7.61 0l-59.26-34.26a4.72 4.72 0 0 1 -2.67-4.56v-69.79a4.64 4.64 0 0 1 2.54-4.44zm-.14 77.93a2.71 2.71 0 0 0 -1.52-2.78l-54.21-31.13v62a3.1 3.1 0 0 0 1.78 3.05l53.67 30.93zm60.4 31.09a2.91 2.91 0 0 0 1.77-2.92l-.12-26-25.13 14.34c-3.55 2-6 .63-6-3.43v-26.69a15 15 0 0 0 -.13-2.28l-22.84 13.2a2.64 2.64 0 0 0 -1.35 2.69v62.18zm-58.65-39.61a2.3 2.3 0 0 0 2.79 0l13.2-7.62 9.64-5.71-3.3-1.9-22.33-12.94c-2.79-1.65-2.79-4.7 0-6.35l11.67-6.72a2.53 2.53 0 0 0 1.65-2.92 8.82 8.82 0 0 1 0-1.78c-.38-3.3.13-6.09 3.68-7.48.13 0 .25-.26.38-.51l-14.72-8.5a2.64 2.64 0 0 0 -3.17 0l-53.42 31.08zm72.46-49.24c-.51-.38-.64-.51-.77-.51l-22.45-12.94a2.94 2.94 0 0 0 -2.29.13l-19.92 11.42-3 1.77a2.55 2.55 0 0 1 .77.51l22.45 12.94a3.57 3.57 0 0 0 2.29-.12l9.59-5.44 13.32-7.74zm2.41 34.52a2.73 2.73 0 0 0 1-2.16c.13-8.12 0-16.24 0-24.49 0-.51-.12-1-.12-1.53h-.64l-22.44 13.07a2.7 2.7 0 0 0 -1 2.16v26.27zm-54.48-28.56v17.39a2.57 2.57 0 0 0 1.52 2.54l11.95 6.87a4 4 0 0 1 2.28 3.93v5.07a2 2 0 0 0 .51 1.52c2.54 1.65 5.2 3 8 4.7a10.6 10.6 0 0 0 .26-1.15v-25.64a2.75 2.75 0 0 0 -1.27-1.9zm15.86 45.05v14.85l20.3-11.8a2.76 2.76 0 0 0 -.38-.64c-.51.13-1 .38-1.4.51a43 43 0 0 0 -4.06 2.42 4.37 4.37 0 0 1 -5.07.12c-3.05-1.9-6.22-3.55-9.39-5.45zm-28-33.12c1.9 1.15 3.42 2 5.07 2.92v-6a50.39 50.39 0 0 1 -5.07 3z" fill="#32363b"/></svg>