<svg viewBox="0 0 200 200" xmlns="http://www.w3.org/2000/svg"><path d="m100 167.68c-58.44-15.28-62.07-83.82-61.78-104.55a2.82 2.82 0 0 1 2.46-2.74c30.22-3.91 51.2-20.88 58.82-28a.72.72 0 0 1 1 0c7.62 7.12 28.6 24.08 58.81 28a2.83 2.83 0 0 1 2.47 2.74c.29 20.73-3.34 89.27-61.78 104.55z" fill="currentColor"/><path d="m169 63a10.07 10.07 0 0 0 -8.75-9.79c-28.14-3.64-47.71-19.47-54.82-26.11a8 8 0 0 0 -10.84 0c-7.12 6.67-26.69 22.5-54.83 26.14a10.07 10.07 0 0 0 -8.76 9.76c-.31 22.17 3.7 95.76 68.12 111.86a3.5 3.5 0 0 0 1.74 0c64.43-16.07 68.44-89.66 68.14-111.86zm-69 104.68c-58.44-15.28-62.07-83.82-61.78-104.55a2.82 2.82 0 0 1 2.46-2.74c30.22-3.91 51.2-20.88 58.82-28a.72.72 0 0 1 1 0c7.62 7.12 28.6 24.08 58.81 28a2.83 2.83 0 0 1 2.47 2.74c.29 20.73-3.34 89.27-61.78 104.55z" fill="#32363b"/><g fill="#fff"><path d="m81.52 100.62a10.87 10.87 0 0 0 -2.37-1.94 27.2 27.2 0 0 0 -2.71-1.45c-.92-.42-1.82-.83-2.71-1.21a18.17 18.17 0 0 1 -2.38-1.22 5.8 5.8 0 0 1 -1.67-1.49 3.21 3.21 0 0 1 -.63-2 3.76 3.76 0 0 1 .28-1.46 3.14 3.14 0 0 1 .85-1.19 4.2 4.2 0 0 1 1.42-.77 6.36 6.36 0 0 1 2-.28 9.44 9.44 0 0 1 2.68.36 15.18 15.18 0 0 1 2.16.8c.62.29 1.14.56 1.57.81a2.13 2.13 0 0 0 .93.37.63.63 0 0 0 .46-.16 1 1 0 0 0 .27-.5 5.54 5.54 0 0 0 .13-.88c0-.35 0-.79 0-1.3s0-.85 0-1.16a4.8 4.8 0 0 0 -.09-.77 2 2 0 0 0 -.16-.49 1.75 1.75 0 0 0 -.36-.45 4.28 4.28 0 0 0 -1.09-.67 14.43 14.43 0 0 0 -1.89-.72 16.3 16.3 0 0 0 -2.28-.5 15.55 15.55 0 0 0 -2.45-.19 16.32 16.32 0 0 0 -4.48.61 10.66 10.66 0 0 0 -3.67 1.85 9 9 0 0 0 -2.47 3.11 9.81 9.81 0 0 0 -.86 4.37 9.57 9.57 0 0 0 .64 3.7 9 9 0 0 0 1.66 2.67 10.88 10.88 0 0 0 2.33 1.94 24 24 0 0 0 2.68 1.45c.92.43 1.82.83 2.69 1.21a17.26 17.26 0 0 1 2.32 1.22 6.22 6.22 0 0 1 1.67 1.49 3.26 3.26 0 0 1 .64 2 4.37 4.37 0 0 1 -.38 1.83 3.64 3.64 0 0 1 -1.12 1.39 5.34 5.34 0 0 1 -1.72.86 8 8 0 0 1 -2.29.3 11.71 11.71 0 0 1 -3.41-.44 15.8 15.8 0 0 1 -2.54-1c-.71-.36-1.29-.68-1.74-1a2.18 2.18 0 0 0 -1.06-.44.81.81 0 0 0 -.46.14 1 1 0 0 0 -.32.49 3.89 3.89 0 0 0 -.17.91 13.2 13.2 0 0 0 -.06 1.38 9 9 0 0 0 .15 1.88 2 2 0 0 0 .49 1 5.68 5.68 0 0 0 1.13.8 11.89 11.89 0 0 0 2 .86 18.39 18.39 0 0 0 2.7.71 18 18 0 0 0 3.31.29 17.2 17.2 0 0 0 4.94-.69 12 12 0 0 0 4-2.06 9.9 9.9 0 0 0 2.74-3.42 10.66 10.66 0 0 0 1-4.76 9.41 9.41 0 0 0 -.64-3.6 9.26 9.26 0 0 0 -1.68-2.66z"/><path d="m109.67 100.62a11.36 11.36 0 0 0 -2.37-1.94 27.35 27.35 0 0 0 -2.72-1.45c-.92-.42-1.82-.83-2.71-1.21a18.83 18.83 0 0 1 -2.38-1.22 5.8 5.8 0 0 1 -1.67-1.49 3.21 3.21 0 0 1 -.63-2 4 4 0 0 1 .28-1.46 3.14 3.14 0 0 1 .85-1.19 4.15 4.15 0 0 1 1.43-.77 6.25 6.25 0 0 1 2-.28 9.39 9.39 0 0 1 2.68.36 15.18 15.18 0 0 1 2.16.8c.62.29 1.14.56 1.57.81a2.13 2.13 0 0 0 .93.37.63.63 0 0 0 .46-.16 1 1 0 0 0 .27-.5 5.54 5.54 0 0 0 .13-.88c0-.35 0-.79 0-1.3s0-.85 0-1.16a6.1 6.1 0 0 0 -.1-.77 2 2 0 0 0 -.16-.49 1.9 1.9 0 0 0 -.35-.45 4.59 4.59 0 0 0 -1.1-.67 14.27 14.27 0 0 0 -1.88-.72 16.45 16.45 0 0 0 -2.29-.5 15.46 15.46 0 0 0 -2.45-.19 16.38 16.38 0 0 0 -4.48.61 10.66 10.66 0 0 0 -3.67 1.85 9 9 0 0 0 -2.47 3.13 9.81 9.81 0 0 0 -.92 4.35 9.57 9.57 0 0 0 .64 3.7 9.21 9.21 0 0 0 1.66 2.67 10.88 10.88 0 0 0 2.33 1.94 24 24 0 0 0 2.68 1.45c.93.43 1.82.83 2.69 1.21a18 18 0 0 1 2.33 1.22 6.33 6.33 0 0 1 1.66 1.49 3.26 3.26 0 0 1 .64 2 4.37 4.37 0 0 1 -.38 1.83 3.64 3.64 0 0 1 -1.07 1.39 5.23 5.23 0 0 1 -1.72.86 8 8 0 0 1 -2.28.3 11.73 11.73 0 0 1 -3.42-.44 16.18 16.18 0 0 1 -2.54-1c-.71-.36-1.29-.68-1.74-1a2.12 2.12 0 0 0 -1-.44.82.82 0 0 0 -.47.14 1 1 0 0 0 -.32.49 3.89 3.89 0 0 0 -.17.91 13.55 13.55 0 0 0 0 1.38 9.08 9.08 0 0 0 .14 1.88 1.94 1.94 0 0 0 .5 1 5.39 5.39 0 0 0 1.13.8 11.39 11.39 0 0 0 2 .86 18.74 18.74 0 0 0 2.7.71 18 18 0 0 0 3.31.29 17.26 17.26 0 0 0 5-.69 12 12 0 0 0 4-2.06 9.79 9.79 0 0 0 2.74-3.42 10.66 10.66 0 0 0 1-4.76 9.22 9.22 0 0 0 -.64-3.6 9 9 0 0 0 -1.67-2.66z"/><path d="m138.37 112.06a1.13 1.13 0 0 0 -.33-.48.78.78 0 0 0 -.47-.15h-10.82v-27.68a.76.76 0 0 0 -.17-.48 1.3 1.3 0 0 0 -.57-.35 5.45 5.45 0 0 0 -1.07-.21 15.47 15.47 0 0 0 -1.7-.08 15.68 15.68 0 0 0 -1.69.08 5.16 5.16 0 0 0 -1.07.21 1.19 1.19 0 0 0 -.57.35.72.72 0 0 0 -.18.48v31.25a2.12 2.12 0 0 0 .6 1.69 2.16 2.16 0 0 0 1.48.52h15.77a.7.7 0 0 0 .42-.21 1.09 1.09 0 0 0 .33-.52 3.77 3.77 0 0 0 .2-.9 10.13 10.13 0 0 0 .07-1.34 10.29 10.29 0 0 0 -.07-1.35 3.75 3.75 0 0 0 -.2-.87z"/></g></svg>