<svg viewBox="0 0 200 200" xmlns="http://www.w3.org/2000/svg"><g fill="#32363b"><path d="m56.08 142.81-2.12 1a33.55 33.55 0 0 0 0-4.48q-4.52-35.64-9.12-71.25c-.47-3.62-1.12-7.23-1.68-10.84a7.83 7.83 0 0 0 -1.3 5.08c1.2 15.74 1.75 31.57 3.93 47.17 1.62 11.58 5.38 22.85 8.19 34.27 1.93.65 3.85 1.78 5.81 1.88 6.81.32 13.64.18 20.46.4 17.78.56 35.57 1.29 53.35 1.74 1.77 0 3.58-1.35 5.37-2.08.35-.34.83-.61 1-1 11.9-23.7 16.97-49.07 17.43-75.49a12 12 0 0 0 -1.81 4.24c-4.29 18.11-8.6 36.23-12.8 54.36-1.39 6-2.48 12-3.71 18-2.87-.27-5.77-.32-8.6-.84a227.27 227.27 0 0 0 -60.4-2.64c-4.67.4-9.39.29-14.08.42l29.06-31-1.9-1.68q-13.41 15.63-26.8 31.28c-.28.34-.2.97-.28 1.46zm102.05-77.81c-23.05-9.26-101.23-16.39-115.43-10.9zm-112.36-8.89-.93.82 52.16 53.33 1-1a230 230 0 0 0 -52.23-53.15zm110.44 11-.71-1a229.38 229.38 0 0 0 -55.92 43.51l.79 1zm-21.13 76.22 1.64-1.19-27.41-34.19-1.31 1.05z"/><path d="m158.13 65-115.43-10.9c14.2-5.49 92.38 1.64 115.43 10.9z"/><path d="m139 145.74c-1.79.73-3.6 2.12-5.37 2.08-17.78-.45-35.57-1.18-53.35-1.74-6.82-.22-13.65-.08-20.46-.4-2-.1-3.88-1.23-5.81-1.88h-.07l2.13-1-.08-.07c4.69-.13 9.41 0 14.08-.42a227.27 227.27 0 0 1 60.4 2.64c2.83.52 5.73.57 8.6.84z"/><path d="m139.08 145.8c1.23-6 2.32-12 3.71-18 4.2-18.13 8.51-36.25 12.8-54.36a12 12 0 0 1 1.81-4.24c-.46 26.42-5.53 51.75-17.35 75.51-.21.41-.69.68-1 1z"/><path d="m54 143.8c-2.81-11.42-6.57-22.69-8.19-34.27-2.16-15.6-2.71-31.43-3.91-47.17a7.83 7.83 0 0 1 1.3-5.08c.56 3.61 1.21 7.22 1.68 10.84q4.6 35.63 9.12 71.25a32 32 0 0 1 0 4.48z"/></g><path d="m45.77 56.11a230 230 0 0 1 52.16 53.18l-1 1-52.09-53.36z" fill="currentColor"/><path d="m156.21 67.1-55.84 43.5-.79-1a229.38 229.38 0 0 1 55.92-43.53z" fill="currentColor"/><path d="m135.08 143.32-27.08-34.32 1.33-1.07 27.41 34.19z" fill="#32363b"/><path d="m56.08 142.81c.08-.49 0-1.12.28-1.44q13.36-15.66 26.8-31.28l1.9 1.68-29.06 30.97z" fill="#32363b"/></svg>