<svg viewBox="0 0 200 200" xmlns="http://www.w3.org/2000/svg"><path d="m175 62a4.68 4.68 0 0 0 -2.68-3.74l-70.32-32.82a4.65 4.65 0 0 0 -4 0l-70.3 32.81a4.69 4.69 0 0 0 -2.7 3.75s0 .49 0 .51v79.69a4.69 4.69 0 0 0 3 4.34l70.31 28.12a4.62 4.62 0 0 0 3.48 0l70.31-28.12a4.69 4.69 0 0 0 2.95-4.35v-79.69s-.05-.5-.05-.5zm-75-27.14 58.52 27.31-22.53 9-59.62-25.28zm-35.07 16.36 58.7 24.9-23.63 9.46-58.52-23.41zm-30.55 18.2 60.93 24.38v69.59l-60.93-24.39zm70.31 94v-69.62l60.94-24.38v69.58z" fill="#32363b"/><g fill="currentColor"><path d="m34.38 69.42 60.93 24.38v69.59l-60.93-24.38z"/><path d="m104.69 163.39v-69.59l60.94-24.38v69.59z"/></g></svg>