<?xml version="1.0" encoding="UTF-8"?><svg id="uuid-ff7c1083-0774-400b-b4c5-1b9700d986ae" xmlns="http://www.w3.org/2000/svg" xmlns:xlink="http://www.w3.org/1999/xlink" viewBox="0 0 519 656" width="100%" height="100%"><defs><radialGradient id="uuid-34d9ede2-17a6-44ae-9970-ad791e0b831f" cx="449.286" cy="85.5395" fx="449.286" fy="85.5395" r="45.111" gradientUnits="userSpaceOnUse"><stop offset="0" stop-color="#000"/><stop offset="1" stop-color="#000" stop-opacity="0"/></radialGradient><radialGradient id="uuid-f4e22a63-e0db-45fa-987b-29f1470a3f3d" cx="375.4906" fx="375.4906" xlink:href="#uuid-34d9ede2-17a6-44ae-9970-ad791e0b831f"/></defs><path d="M401.1353,38.207c-.0859.9102-.4219,1.6201-1.0078,2.1299s-1.3652.7646-2.3379.7646c-.6797,0-1.2783-.1611-1.7959-.4834s-.917-.7803-1.1982-1.374-.4277-1.2832-.4395-2.0684v-.7969c0-.8047.1426-1.5137.4277-2.127s.6943-1.0859,1.2275-1.418,1.1494-.498,1.8486-.498c.9414,0,1.6992.2549,2.2734.7646s.9082,1.2314,1.002,2.165h-1.4766c-.0703-.6133-.249-1.0557-.5361-1.3271s-.708-.4072-1.2627-.4072c-.6445,0-1.1396.2354-1.4854.7065s-.5225,1.1626-.5303,2.0732v.7568c0,.9224.165,1.6265.4951,2.1113s.8135.7271,1.4502.7271c.582,0,1.0195-.1309,1.3125-.3926s.4785-.6973.5566-1.3066h1.4766Z" style="fill:#000; stroke-width:0px;"/><path d="M403.8365,40.9844h-1.4238v-9h1.4238v9Z" style="fill:#000; stroke-width:0px;"/><path d="M405.3892,32.998c0-.2188.0693-.4004.208-.5449s.3369-.2168.5947-.2168.457.0723.5977.2168.2109.3262.2109.5449c0,.2148-.0703.3936-.2109.5361s-.3398.2139-.5977.2139-.4561-.0713-.5947-.2139-.208-.3213-.208-.5361ZM406.901,40.9844h-1.4238v-6.3398h1.4238v6.3398Z" style="fill:#000; stroke-width:0px;"/><path d="M411.2428,41.1016c-.9023,0-1.6338-.2842-2.1943-.8525s-.8408-1.3252-.8408-2.2705v-.1758c0-.6328.1221-1.1982.3662-1.6963s.5869-.8857,1.0283-1.1631.9336-.416,1.4766-.416c.8633,0,1.5303.2754,2.001.8262s.7061,1.3301.7061,2.3379v.5742h-4.1426c.043.5234.2178.9375.5244,1.2422s.6924.457,1.1572.457c.6523,0,1.1836-.2637,1.5938-.791l.7676.7324c-.2539.3789-.5928.6729-1.0166.8818s-.8994.3135-1.4268.3135ZM411.0728,35.6699c-.3906,0-.7061.1367-.9463.4102s-.3936.6543-.46,1.1426h2.7129v-.1055c-.0312-.4766-.1582-.8369-.3809-1.0811s-.5312-.3662-.9258-.3662Z" style="fill:#000; stroke-width:0px;"/><path d="M416.2115,34.6445l.041.7324c.4688-.5664,1.084-.8496,1.8457-.8496,1.3203,0,1.9922.7559,2.0156,2.2676v4.1895h-1.4238v-4.1074c0-.4023-.0869-.7002-.2607-.8936s-.458-.29-.8525-.29c-.5742,0-1.002.2598-1.2832.7793v4.5117h-1.4238v-6.3398h1.3418Z" style="fill:#000; stroke-width:0px;"/><path d="M423.3482,33.1035v1.541h1.1191v1.0547h-1.1191v3.5391c0,.2422.0479.417.1436.5244s.2666.1611.5127.1611c.1641,0,.3301-.0195.498-.0586v1.1016c-.3242.0898-.6367.1348-.9375.1348-1.0938,0-1.6406-.6035-1.6406-1.8105v-3.5918h-1.043v-1.0547h1.043v-1.541h1.4238Z" style="fill:#000; stroke-width:0px;"/><path d="M429.108,39.2617c0-.2539-.1045-.4473-.3135-.5801s-.5557-.25-1.04-.3516-.8887-.2305-1.2129-.3867c-.7109-.3438-1.0664-.8418-1.0664-1.4941,0-.5469.2305-1.0039.6914-1.3711s1.0469-.5508,1.7578-.5508c.7578,0,1.3701.1875,1.8369.5625s.7002.8613.7002,1.459h-1.4238c0-.2734-.1016-.501-.3047-.6826s-.4727-.2725-.8086-.2725c-.3125,0-.5674.0723-.7646.2168s-.2959.3379-.2959.5801c0,.2188.0918.3887.2754.5098s.5547.2432,1.1133.3662.9971.2695,1.3154.4395.5547.374.709.6123.2314.5273.2314.8672c0,.5703-.2363,1.0322-.709,1.3857s-1.0918.5303-1.8574.5303c-.5195,0-.9824-.0938-1.3887-.2812s-.7227-.4453-.9492-.7734-.3398-.6816-.3398-1.0605h1.3828c.0195.3359.1465.5947.3809.7764s.5449.2725.9316.2725c.375,0,.6602-.0713.8555-.2139s.293-.3291.293-.5596Z" style="fill:#000; stroke-width:0px;"/><path d="M244.2105,164.1997v6.9023c0,.6484-.1611,1.1436-.4834,1.4854s-.7939.5127-1.415.5127c-.2617,0-.5137-.0332-.7559-.0996v-1.125c.1484.0352.3164.0527.5039.0527.4727,0,.7148-.2578.7266-.7734v-6.9551h1.4238ZM242.6637,162.5532c0-.2188.0693-.4004.208-.5449s.3369-.2168.5947-.2168.457.0723.5977.2168.2109.3262.2109.5449c0,.2148-.0703.3936-.2109.5361s-.3398.2139-.5977.2139-.4561-.0713-.5947-.2139-.208-.3213-.208-.5361Z" style="fill:#000; stroke-width:0px;"/><path d="M245.734,162.5532c0-.2188.0693-.4004.208-.5449s.3369-.2168.5947-.2168.457.0723.5977.2168.2109.3262.2109.5449c0,.2148-.0703.3936-.2109.5361s-.3398.2139-.5977.2139-.4561-.0713-.5947-.2139-.208-.3213-.208-.5361ZM247.2457,170.5396h-1.4238v-6.3398h1.4238v6.3398Z" style="fill:#000; stroke-width:0px;"/><path d="M250.5797,162.6587v1.541h1.1191v1.0547h-1.1191v3.5391c0,.2422.0479.417.1436.5244s.2666.1611.5127.1611c.1641,0,.3301-.0195.498-.0586v1.1016c-.3242.0898-.6367.1348-.9375.1348-1.0938,0-1.6406-.6035-1.6406-1.8105v-3.5918h-1.043v-1.0547h1.043v-1.541h1.4238Z" style="fill:#000; stroke-width:0px;"/><path d="M256.3394,168.8169c0-.2539-.1045-.4473-.3135-.5801s-.5557-.25-1.04-.3516-.8887-.2305-1.2129-.3867c-.7109-.3438-1.0664-.8418-1.0664-1.4941,0-.5469.2305-1.0039.6914-1.3711s1.0469-.5508,1.7578-.5508c.7578,0,1.3701.1875,1.8369.5625s.7002.8613.7002,1.459h-1.4238c0-.2734-.1016-.501-.3047-.6826s-.4727-.2725-.8086-.2725c-.3125,0-.5674.0723-.7646.2168s-.2959.3379-.2959.5801c0,.2188.0918.3887.2754.5098s.5547.2432,1.1133.3662.9971.2695,1.3154.4395.5547.374.709.6123.2314.5273.2314.8672c0,.5703-.2363,1.0322-.709,1.3857s-1.0918.5303-1.8574.5303c-.5195,0-.9824-.0938-1.3887-.2812s-.7227-.4453-.9492-.7734-.3398-.6816-.3398-1.0605h1.3828c.0195.3359.1465.5947.3809.7764s.5449.2725.9316.2725c.375,0,.6602-.0713.8555-.2139s.293-.3291.293-.5596Z" style="fill:#000; stroke-width:0px;"/><path d="M258.982,162.5532c0-.2188.0693-.4004.208-.5449s.3369-.2168.5947-.2168.457.0723.5977.2168.2109.3262.2109.5449c0,.2148-.0703.3936-.2109.5361s-.3398.2139-.5977.2139-.4561-.0713-.5947-.2139-.208-.3213-.208-.5361ZM260.4937,170.5396h-1.4238v-6.3398h1.4238v6.3398Z" style="fill:#000; stroke-width:0px;"/><path d="M264.8062,167.4868h-3.0762v-1.1484h3.0762v1.1484Z" style="fill:#000; stroke-width:0px;"/><path d="M271.4508,166.9478c0,1.2266-.2295,2.1514-.6885,2.7744s-1.1572.9346-2.0947.9346c-.9219,0-1.6162-.3037-2.083-.9111s-.7061-1.5068-.7178-2.6982v-1.4766c0-1.2266.2295-2.1465.6885-2.7598s1.1592-.9199,2.1006-.9199c.9336,0,1.6299.2988,2.0889.8965s.6943,1.4922.7061,2.6836v1.4766ZM270.0269,165.354c0-.8008-.1094-1.3877-.3281-1.7607s-.5664-.5596-1.043-.5596c-.4648,0-.8066.1768-1.0254.5303s-.334.9053-.3457,1.6553v1.9336c0,.7969.1113,1.3906.334,1.7812s.5723.5859,1.0488.5859c.457,0,.7949-.1807,1.0137-.542s.334-.9268.3457-1.6963v-1.9277Z" style="fill:#000; stroke-width:0px;"/><path d="M276.566,170.5396h-1.418v-6.8535l-2.0918.7129v-1.1953l3.3281-1.2246h.1816v8.5605Z" style="fill:#000; stroke-width:0px;"/><path d="M280.5094,169.0396c.2656,0,.4707.0752.6152.2256s.2168.3389.2168.5654c0,.2227-.0723.4072-.2168.5537s-.3496.2197-.6152.2197c-.2539,0-.4551-.0723-.6035-.2168s-.2227-.3301-.2227-.5566.0723-.415.2168-.5654.3477-.2256.6094-.2256Z" style="fill:#000; stroke-width:0px;"/><path d="M282.7066,167.3228c0-.9766.2266-1.7607.6797-2.3525s1.0605-.8877,1.8223-.8877c.6719,0,1.2148.2344,1.6289.7031v-3.2461h1.4238v9h-1.2891l-.0703-.6562c-.4258.5156-.9941.7734-1.7051.7734-.7422,0-1.3428-.2988-1.8018-.8965s-.6885-1.4102-.6885-2.4375ZM284.1305,167.4458c0,.6445.124,1.1475.3721,1.5088s.6006.542,1.0576.542c.582,0,1.0078-.2598,1.2773-.7793v-2.707c-.2617-.5078-.6836-.7617-1.2656-.7617-.4609,0-.8164.1826-1.0664.5479s-.375.915-.375,1.6494Z" style="fill:#000; stroke-width:0px;"/><path d="M289.4801,167.311c0-.6211.123-1.1807.3691-1.6787s.5918-.8809,1.0371-1.1484.957-.4014,1.5352-.4014c.8555,0,1.5498.2754,2.083.8262s.8213,1.2812.8643,2.1914l.0059.334c0,.625-.1201,1.1836-.3604,1.6758s-.584.873-1.0312,1.1426-.9639.4043-1.5498.4043c-.8945,0-1.6104-.2979-2.1475-.8936s-.8057-1.3896-.8057-2.3818v-.0703ZM290.9039,167.4341c0,.6523.1348,1.1631.4043,1.5322s.6445.5537,1.125.5537.8545-.1875,1.1221-.5625.4014-.9238.4014-1.6465c0-.6406-.1377-1.1484-.4131-1.5234s-.6494-.5625-1.1221-.5625c-.4648,0-.834.1846-1.1074.5537s-.4102.9209-.4102,1.6553Z" style="fill:#000; stroke-width:0px;"/><path d="M297.9176,164.1997l.041.6621c.4453-.5195,1.0547-.7793,1.8281-.7793.8477,0,1.4277.3242,1.7402.9727.4609-.6484,1.1094-.9727,1.9453-.9727.6992,0,1.2197.1934,1.5615.5801s.5166.957.5244,1.7109v4.166h-1.4238v-4.125c0-.4023-.0879-.6973-.2637-.8848s-.4668-.2812-.873-.2812c-.3242,0-.5889.0869-.7939.2607s-.3486.4014-.4307.6826l.0059,4.3477h-1.4238v-4.1719c-.0195-.7461-.4004-1.1191-1.1426-1.1191-.5703,0-.9746.2324-1.2129.6973v4.5938h-1.4238v-6.3398h1.3418Z" style="fill:#000; stroke-width:0px;"/><path d="M310.8082,170.5396c-.0625-.1211-.1172-.3184-.1641-.5918-.4531.4727-1.0078.709-1.6641.709-.6367,0-1.1562-.1816-1.5586-.5449s-.6035-.8125-.6035-1.3477c0-.6758.251-1.1943.7529-1.5557s1.2197-.542,2.1533-.542h.873v-.416c0-.3281-.0918-.5908-.2754-.7881s-.4629-.2959-.8379-.2959c-.3242,0-.5898.0811-.7969.2432s-.3105.3682-.3105.6182h-1.4238c0-.3477.1152-.6729.3457-.9756s.5439-.54.9404-.7119.8389-.2578,1.3271-.2578c.7422,0,1.334.1865,1.7754.5596s.668.8975.6797,1.5732v2.8594c0,.5703.0801,1.0254.2402,1.3652v.0996h-1.4531ZM309.2437,169.5142c.2812,0,.5459-.0684.7939-.2051s.4346-.3203.5596-.5508v-1.1953h-.7676c-.5273,0-.9238.0918-1.1895.2754s-.3984.4434-.3984.7793c0,.2734.0908.4912.2725.6533s.4248.2432.7295.2432Z" style="fill:#000; stroke-width:0px;"/><path d="M313.5152,162.5532c0-.2188.0693-.4004.208-.5449s.3369-.2168.5947-.2168.457.0723.5977.2168.2109.3262.2109.5449c0,.2148-.0703.3936-.2109.5361s-.3398.2139-.5977.2139-.4561-.0713-.5947-.2139-.208-.3213-.208-.5361ZM315.0269,170.5396h-1.4238v-6.3398h1.4238v6.3398Z" style="fill:#000; stroke-width:0px;"/><path d="M317.898,164.1997l.041.7324c.4688-.5664,1.084-.8496,1.8457-.8496,1.3203,0,1.9922.7559,2.0156,2.2676v4.1895h-1.4238v-4.1074c0-.4023-.0869-.7002-.2607-.8936s-.458-.29-.8525-.29c-.5742,0-1.002.2598-1.2832.7793v4.5117h-1.4238v-6.3398h1.3418Z" style="fill:#000; stroke-width:0px;"/><path d="M324.1383,169.0396c.2656,0,.4707.0752.6152.2256s.2168.3389.2168.5654c0,.2227-.0723.4072-.2168.5537s-.3496.2197-.6152.2197c-.2539,0-.4551-.0723-.6035-.2168s-.2227-.3301-.2227-.5566.0723-.415.2168-.5654.3477-.2256.6094-.2256Z" style="fill:#000; stroke-width:0px;"/><path d="M329.2066,169.52c.3555,0,.6504-.1035.8848-.3105s.3594-.4629.375-.7676h1.3418c-.0156.3945-.1387.7627-.3691,1.1045s-.543.6123-.9375.8115-.8203.2988-1.2773.2988c-.8867,0-1.5898-.2871-2.1094-.8613s-.7793-1.3672-.7793-2.3789v-.1465c0-.9648.2578-1.7373.7734-2.3174s1.2188-.8701,2.1094-.8701c.7539,0,1.3682.2197,1.8428.6592s.7236,1.0166.7471,1.7314h-1.3418c-.0156-.3633-.1396-.6621-.3721-.8965s-.5283-.3516-.8877-.3516c-.4609,0-.8164.167-1.0664.501s-.377.8408-.3809,1.5205v.2285c0,.6875.124,1.2002.3721,1.5381s.6064.5068,1.0752.5068Z" style="fill:#000; stroke-width:0px;"/><path d="M332.6168,167.311c0-.6211.123-1.1807.3691-1.6787s.5918-.8809,1.0371-1.1484.957-.4014,1.5352-.4014c.8555,0,1.5498.2754,2.083.8262s.8213,1.2812.8643,2.1914l.0059.334c0,.625-.1201,1.1836-.3604,1.6758s-.584.873-1.0312,1.1426-.9639.4043-1.5498.4043c-.8945,0-1.6104-.2979-2.1475-.8936s-.8057-1.3896-.8057-2.3818v-.0703ZM334.0406,167.4341c0,.6523.1348,1.1631.4043,1.5322s.6445.5537,1.125.5537.8545-.1875,1.1221-.5625.4014-.9238.4014-1.6465c0-.6406-.1377-1.1484-.4131-1.5234s-.6494-.5625-1.1221-.5625c-.4648,0-.834.1846-1.1074.5537s-.4102.9209-.4102,1.6553Z" style="fill:#000; stroke-width:0px;"/><path d="M341.0543,164.1997l.041.6621c.4453-.5195,1.0547-.7793,1.8281-.7793.8477,0,1.4277.3242,1.7402.9727.4609-.6484,1.1094-.9727,1.9453-.9727.6992,0,1.2197.1934,1.5615.5801s.5166.957.5244,1.7109v4.166h-1.4238v-4.125c0-.4023-.0879-.6973-.2637-.8848s-.4668-.2812-.873-.2812c-.3242,0-.5889.0869-.7939.2607s-.3486.4014-.4307.6826l.0059,4.3477h-1.4238v-4.1719c-.0195-.7461-.4004-1.1191-1.1426-1.1191-.5703,0-.9746.2324-1.2129.6973v4.5938h-1.4238v-6.3398h1.3418Z" style="fill:#000; stroke-width:0px;"/><circle cx="449.286" cy="85.5395" r="45.111" style="fill:url(#uuid-34d9ede2-17a6-44ae-9970-ad791e0b831f); opacity:.43; stroke-width:0px;"/><circle cx="449.286" cy="85.5395" r="32.8888" style="fill:#0b153b; stroke:#fff; stroke-miterlimit:10; stroke-width:2px;"/><path d="M451.9704,85.9396c3.3956-1.1378,5.8489-4.3022,5.8489-8.0711.0178-4.7289-3.8044-8.5511-8.5333-8.5511-4.7111,0-8.5511,3.8222-8.5511,8.5511,0,3.7689,2.4533,6.9333,5.8489,8.0711-5.5645,1.1911-9.7422,6.0267-9.7422,11.8222h24.8888c0-5.7956-4.1778-10.6311-9.76-11.8222h0Z" style="fill:#fff; stroke-width:0px;"/><circle cx="375.4906" cy="85.5395" r="45.111" style="fill:url(#uuid-f4e22a63-e0db-45fa-987b-29f1470a3f3d); opacity:.43; stroke-width:0px;"/><circle cx="375.4906" cy="85.5395" r="32.8888" style="fill:#0b153b; stroke:#fff; stroke-miterlimit:10; stroke-width:2px;"/><path d="M378.175,85.9396c3.3956-1.1378,5.8489-4.3022,5.8489-8.0711.0178-4.7289-3.8044-8.5511-8.5333-8.5511-4.7111,0-8.5511,3.8222-8.5511,8.5511,0,3.7689,2.4533,6.9333,5.8489,8.0711-5.5645,1.1911-9.7422,6.0267-9.7422,11.8222h24.8888c0-5.7956-4.1778-10.6311-9.76-11.8222h0Z" style="fill:#fff; stroke-width:0px;"/><rect x="176.8244" y="185.8727" width="331.5549" height="184.4736" rx="5.8073" ry="5.8073" style="fill:#deebfd; stroke:#6cafff; stroke-miterlimit:10; stroke-width:2px;"/><line x1="412.3883" y1="118.4284" x2="412.3883" y2="163.3634" style="fill:none; stroke:#000; stroke-miterlimit:10; stroke-width:2px;"/><polygon points="407.4019 161.9044 412.3883 170.5396 417.3746 161.9044 407.4019 161.9044" style="fill:#000; stroke-width:0px;"/><rect x="351.0552" y="221.4282" width="139.573" height="34.6666" rx="2.9879" ry="2.9879" style="fill:#fff; stroke:#288900; stroke-miterlimit:10; stroke-width:1.8891px;"/><path d="M401.8795,243.6504h-1.4824l-3.8027-6.0527v6.0527h-1.4824v-8.5312h1.4824l3.8145,6.0762v-6.0762h1.4707v8.5312Z" style="fill:#0b153b; stroke-width:0px;"/><path d="M410.1705,242.543c-.3086.4023-.7363.707-1.2832.9141s-1.168.3105-1.8633.3105c-.7148,0-1.3477-.1621-1.8984-.4863s-.9756-.7881-1.2744-1.3916-.4541-1.3076-.4658-2.1123v-.668c0-1.2891.3086-2.2959.9258-3.0205s1.4785-1.0869,2.584-1.0869c.9492,0,1.7031.2354,2.2617.7061s.8945,1.1475,1.0078,2.0303h-1.4531c-.1641-1.0273-.7598-1.541-1.7871-1.541-.6641,0-1.1689.2393-1.5146.7173s-.5244,1.1797-.5361,2.1045v.6553c0,.9214.1943,1.6362.583,2.146.3887.5093.9287.7637,1.6201.7637.7578,0,1.2969-.1719,1.6172-.5156v-1.6699h-1.7578v-1.125h3.2344v3.2695Z" style="fill:#0b153b; stroke-width:0px;"/><path d="M413.3638,243.6504h-1.4766v-8.5312h1.4766v8.5312Z" style="fill:#0b153b; stroke-width:0px;"/><path d="M421.9537,243.6504h-1.4824l-3.8027-6.0527v6.0527h-1.4824v-8.5312h1.4824l3.8145,6.0762v-6.0762h1.4707v8.5312Z" style="fill:#0b153b; stroke-width:0px;"/><path d="M426.7408,238.2012l1.793-3.082h1.7109l-2.5781,4.2305,2.6367,4.3008h-1.7285l-1.834-3.1289-1.8398,3.1289h-1.7227l2.6426-4.3008-2.584-4.2305h1.7109l1.793,3.082Z" style="fill:#0b153b; stroke-width:0px;"/><rect x="197.4806" y="288.5391" width="139.573" height="34.6666" rx="2.9879" ry="2.9879" style="fill:#fff; stroke:#6cafff; stroke-miterlimit:10; stroke-width:1.8891px;"/><path d="M225.4605,307.2153v3.1641h-1.4824v-8.5312h3.2637c.9531,0,1.71.2485,2.2705.7451s.8408,1.1533.8408,1.9707c0,.8369-.2744,1.4878-.8232,1.9531-.5488.4658-1.3174.6982-2.3057.6982h-1.7637ZM225.4605,306.02h1.7812c.5273,0,.9297-.124,1.207-.3721s.416-.6064.416-1.0752c0-.4609-.1406-.8291-.4219-1.1045s-.668-.417-1.1602-.4248h-1.8223v2.9766Z" style="fill:#0b153b; stroke-width:0px;"/><path d="M234.8297,305.3403c-.1875-.0312-.3809-.0469-.5801-.0469-.6523,0-1.0918.25-1.3184.75v4.3359h-1.4238v-6.3398h1.3594l.0352.709c.3438-.5508.8203-.8262,1.4297-.8262.2031,0,.3711.0273.5039.082l-.0059,1.3359Z" style="fill:#0b153b; stroke-width:0px;"/><path d="M235.2515,307.1509c0-.6211.123-1.1807.3691-1.6787s.5918-.8809,1.0371-1.1484.957-.4014,1.5352-.4014c.8555,0,1.5498.2754,2.083.8262s.8213,1.2812.8643,2.1914l.0059.334c0,.625-.1201,1.1836-.3604,1.6758s-.584.873-1.0312,1.1426-.9639.4043-1.5498.4043c-.8945,0-1.6104-.2979-2.1475-.8936s-.8057-1.3896-.8057-2.3818v-.0703ZM236.6754,307.2739c0,.6523.1348,1.1631.4043,1.5322s.6445.5537,1.125.5537.8545-.1875,1.1221-.5625.4014-.9238.4014-1.6465c0-.6406-.1377-1.1484-.4131-1.5234s-.6494-.5625-1.1221-.5625c-.4648,0-.834.1846-1.1074.5537s-.4102.9209-.4102,1.6553Z" style="fill:#0b153b; stroke-width:0px;"/><path d="M245.9039,308.6567c0-.2539-.1045-.4473-.3135-.5801s-.5557-.25-1.04-.3516-.8887-.2305-1.2129-.3867c-.7109-.3438-1.0664-.8418-1.0664-1.4941,0-.5469.2305-1.0039.6914-1.3711s1.0469-.5508,1.7578-.5508c.7578,0,1.3701.1875,1.8369.5625s.7002.8613.7002,1.459h-1.4238c0-.2734-.1016-.501-.3047-.6826s-.4727-.2725-.8086-.2725c-.3125,0-.5674.0723-.7646.2168s-.2959.3379-.2959.5801c0,.2188.0918.3887.2754.5098s.5547.2432,1.1133.3662.9971.2695,1.3154.4395.5547.374.709.6123.2314.5273.2314.8672c0,.5703-.2363,1.0322-.709,1.3857s-1.0918.5303-1.8574.5303c-.5195,0-.9824-.0938-1.3887-.2812s-.7227-.4453-.9492-.7734-.3398-.6816-.3398-1.0605h1.3828c.0195.3359.1465.5947.3809.7764s.5449.2725.9316.2725c.375,0,.6602-.0713.8555-.2139s.293-.3291.293-.5596Z" style="fill:#0b153b; stroke-width:0px;"/><path d="M248.2769,307.1509c0-.6211.123-1.1807.3691-1.6787s.5918-.8809,1.0371-1.1484.957-.4014,1.5352-.4014c.8555,0,1.5498.2754,2.083.8262s.8213,1.2812.8643,2.1914l.0059.334c0,.625-.1201,1.1836-.3604,1.6758s-.584.873-1.0312,1.1426-.9639.4043-1.5498.4043c-.8945,0-1.6104-.2979-2.1475-.8936s-.8057-1.3896-.8057-2.3818v-.0703ZM249.7008,307.2739c0,.6523.1348,1.1631.4043,1.5322s.6445.5537,1.125.5537.8545-.1875,1.1221-.5625.4014-.9238.4014-1.6465c0-.6406-.1377-1.1484-.4131-1.5234s-.6494-.5625-1.1221-.5625c-.4648,0-.834.1846-1.1074.5537s-.4102.9209-.4102,1.6553Z" style="fill:#0b153b; stroke-width:0px;"/><path d="M255.109,307.1626c0-.9766.2266-1.7607.6797-2.3525s1.0605-.8877,1.8223-.8877c.6719,0,1.2148.2344,1.6289.7031v-3.2461h1.4238v9h-1.2891l-.0703-.6562c-.4258.5156-.9941.7734-1.7051.7734-.7422,0-1.3428-.2988-1.8018-.8965s-.6885-1.4102-.6885-2.4375ZM256.5328,307.2856c0,.6445.124,1.1475.3721,1.5088s.6006.542,1.0576.542c.582,0,1.0078-.2598,1.2773-.7793v-2.707c-.2617-.5078-.6836-.7617-1.2656-.7617-.4609,0-.8164.1826-1.0664.5479s-.375.915-.375,1.6494Z" style="fill:#0b153b; stroke-width:0px;"/><path d="M264.3668,308.3403l1.2891-4.3008h1.5176l-2.5195,7.3008c-.3867,1.0664-1.043,1.5996-1.9688,1.5996-.207,0-.4355-.0352-.6855-.106v-1.1069l.2695.0176c.3594,0,.6299-.0654.8115-.1963s.3252-.3501.4307-.6587l.2051-.5444-2.2266-6.3057h1.5352l1.3418,4.3008Z" style="fill:#0b153b; stroke-width:0px;"/><path d="M271.3805,311.1118h-1.1191l3.3574-9.2637h1.1191l-3.3574,9.2637Z" style="fill:#0b153b; stroke-width:0px;"/><path d="M281.7867,304.9302l1.793-3.082h1.7109l-2.5781,4.2305,2.6367,4.3008h-1.7285l-1.834-3.1289-1.8398,3.1289h-1.7227l2.6426-4.3008-2.584-4.2305h1.7109l1.793,3.082Z" style="fill:#0b153b; stroke-width:0px;"/><path d="M288.3668,301.8481l2.4609,6.5391,2.4551-6.5391h1.916v8.5312h-1.4766v-2.8125l.1465-3.7617-2.5195,6.5742h-1.0605l-2.5137-6.5684.1465,3.7559v2.8125h-1.4766v-8.5312h1.9219Z" style="fill:#0b153b; stroke-width:0px;"/><path d="M298.4332,307.2153v3.1641h-1.4824v-8.5312h3.2637c.9531,0,1.71.2485,2.2705.7451s.8408,1.1533.8408,1.9707c0,.8369-.2744,1.4878-.8232,1.9531-.5488.4658-1.3174.6982-2.3057.6982h-1.7637ZM298.4332,306.02h1.7812c.5273,0,.9297-.124,1.207-.3721s.416-.6064.416-1.0752c0-.4609-.1406-.8291-.4219-1.1045s-.668-.417-1.1602-.4248h-1.8223v2.9766Z" style="fill:#0b153b; stroke-width:0px;"/><path d="M306.1031,307.2153v3.1641h-1.4824v-8.5312h3.2637c.9531,0,1.71.2485,2.2705.7451s.8408,1.1533.8408,1.9707c0,.8369-.2744,1.4878-.8232,1.9531-.5488.4658-1.3174.6982-2.3057.6982h-1.7637ZM306.1031,306.02h1.7812c.5273,0,.9297-.124,1.207-.3721s.416-.6064.416-1.0752c0-.4609-.1406-.8291-.4219-1.1045s-.668-.417-1.1602-.4248h-1.8223v2.9766Z" style="fill:#0b153b; stroke-width:0px;"/><rect y="503.4276" width="163.9446" height="41.5555" rx="5.5489" ry="5.5489" style="fill:#d9efce; stroke:#69a547; stroke-miterlimit:10; stroke-width:2px;"/><path d="M75.3336,519.959h1.4766v5.9824c0,.8164-.2549,1.4648-.7646,1.9453s-1.1826.7207-2.0186.7207c-.8906,0-1.5781-.2246-2.0625-.6738s-.7266-1.0742-.7266-1.875h1.4766c0,.4531.1123.7939.3369,1.0225s.5498.3428.9756.3428c.3984,0,.7158-.1318.9521-.3955s.3545-.6279.3545-1.0928v-5.9766Z" style="fill:#0b153b; stroke-width:0px;"/><path d="M81.5094,526.6328l2.168-6.6738h1.6289l-3.0703,8.5312h-1.4355l-3.0586-8.5312h1.623l2.1445,6.6738Z" style="fill:#0b153b; stroke-width:0px;"/><path d="M86.2672,528.4902v-8.5312h2.9238c.9648,0,1.6992.1934,2.2031.5801s.7559.9629.7559,1.7285c0,.3906-.1055.7422-.3164,1.0547s-.5195.5547-.9258.7266c.4609.125.8174.3604,1.0693.7061s.3779.7607.3779,1.2451c0,.8008-.2568,1.416-.7705,1.8457s-1.249.6445-2.2061.6445h-3.1113ZM87.7496,523.5508h1.4531c.4609,0,.8213-.1045,1.0811-.3135s.3896-.5049.3896-.8877c0-.4219-.1201-.7266-.3604-.9141s-.6143-.2812-1.1221-.2812h-1.4414v2.3965ZM87.7496,524.6406v2.666h1.6465c.4648,0,.8281-.1152,1.0898-.3457s.3926-.5508.3926-.9609c0-.8867-.4531-1.3398-1.3594-1.3594h-1.7695Z" style="fill:#0b153b; stroke-width:0px;"/><rect x="177.5277" y="503.4276" width="163.9446" height="41.5555" rx="5.5489" ry="5.5489" style="fill:#d9efce; stroke:#69a547; stroke-miterlimit:10; stroke-width:2px;"/><path d="M252.8609,519.959h1.4766v5.9824c0,.8164-.2549,1.4648-.7646,1.9453s-1.1826.7207-2.0186.7207c-.8906,0-1.5781-.2246-2.0625-.6738s-.7266-1.0742-.7266-1.875h1.4766c0,.4531.1123.7939.3369,1.0225s.5498.3428.9756.3428c.3984,0,.7158-.1318.9521-.3955s.3545-.6279.3545-1.0928v-5.9766Z" style="fill:#0b153b; stroke-width:0px;"/><path d="M259.0367,526.6328l2.168-6.6738h1.6289l-3.0703,8.5312h-1.4355l-3.0586-8.5312h1.623l2.1445,6.6738Z" style="fill:#0b153b; stroke-width:0px;"/><path d="M263.7945,528.4902v-8.5312h2.9238c.9648,0,1.6992.1934,2.2031.5801s.7559.9629.7559,1.7285c0,.3906-.1055.7422-.3164,1.0547s-.5195.5547-.9258.7266c.4609.125.8174.3604,1.0693.7061s.3779.7607.3779,1.2451c0,.8008-.2568,1.416-.7705,1.8457s-1.249.6445-2.2061.6445h-3.1113ZM265.2769,523.5508h1.4531c.4609,0,.8213-.1045,1.0811-.3135s.3896-.5049.3896-.8877c0-.4219-.1201-.7266-.3604-.9141s-.6143-.2812-1.1221-.2812h-1.4414v2.3965ZM265.2769,524.6406v2.666h1.6465c.4648,0,.8281-.1152,1.0898-.3457s.3926-.5508.3926-.9609c0-.8867-.4531-1.3398-1.3594-1.3594h-1.7695Z" style="fill:#0b153b; stroke-width:0px;"/><rect x="355.0554" y="503.4276" width="163.9446" height="41.5555" rx="5.5489" ry="5.5489" style="fill:#d9efce; stroke:#69a547; stroke-miterlimit:10; stroke-width:2px;"/><path d="M430.3892,519.959h1.4766v5.9824c0,.8164-.2549,1.4648-.7646,1.9453s-1.1826.7207-2.0186.7207c-.8906,0-1.5781-.2246-2.0625-.6738s-.7266-1.0742-.7266-1.875h1.4766c0,.4531.1123.7939.3369,1.0225s.5498.3428.9756.3428c.3984,0,.7158-.1318.9521-.3955s.3545-.6279.3545-1.0928v-5.9766Z" style="fill:#0b153b; stroke-width:0px;"/><path d="M436.565,526.6328l2.168-6.6738h1.6289l-3.0703,8.5312h-1.4355l-3.0586-8.5312h1.623l2.1445,6.6738Z" style="fill:#0b153b; stroke-width:0px;"/><path d="M441.3228,528.4902v-8.5312h2.9238c.9648,0,1.6992.1934,2.2031.5801s.7559.9629.7559,1.7285c0,.3906-.1055.7422-.3164,1.0547s-.5195.5547-.9258.7266c.4609.125.8174.3604,1.0693.7061s.3779.7607.3779,1.2451c0,.8008-.2568,1.416-.7705,1.8457s-1.249.6445-2.2061.6445h-3.1113ZM442.8053,523.5508h1.4531c.4609,0,.8213-.1045,1.0811-.3135s.3896-.5049.3896-.8877c0-.4219-.1201-.7266-.3604-.9141s-.6143-.2812-1.1221-.2812h-1.4414v2.3965ZM442.8053,524.6406v2.666h1.6465c.4648,0,.8281-.1152,1.0898-.3457s.3926-.5508.3926-.9609c0-.8867-.4531-1.3398-1.3594-1.3594h-1.7695Z" style="fill:#0b153b; stroke-width:0px;"/><rect x="0" y="563.3163" width="163.9446" height="41.5555" rx="5.5488" ry="5.5488" style="fill:none; stroke:#69a547; stroke-dasharray:0 0 5.0178 5.0178; stroke-miterlimit:10; stroke-width:2px;"/><path d="M75.3336,579.8477h1.4766v5.9824c0,.8164-.2549,1.4648-.7646,1.9453s-1.1826.7207-2.0186.7207c-.8906,0-1.5781-.2246-2.0625-.6738s-.7266-1.0742-.7266-1.875h1.4766c0,.4531.1123.7939.3369,1.0225s.5498.3428.9756.3428c.3984,0,.7158-.1318.9521-.3955s.3545-.6279.3545-1.0928v-5.9766Z" style="fill:#0b153b; stroke-width:0px;"/><path d="M81.5094,586.5215l2.168-6.6738h1.6289l-3.0703,8.5312h-1.4355l-3.0586-8.5312h1.623l2.1445,6.6738Z" style="fill:#0b153b; stroke-width:0px;"/><path d="M86.2672,588.3789v-8.5312h2.9238c.9648,0,1.6992.1934,2.2031.5801s.7559.9629.7559,1.7285c0,.3906-.1055.7422-.3164,1.0547s-.5195.5547-.9258.7266c.4609.125.8174.3604,1.0693.7061s.3779.7607.3779,1.2451c0,.8008-.2568,1.416-.7705,1.8457s-1.249.6445-2.2061.6445h-3.1113ZM87.7496,583.4395h1.4531c.4609,0,.8213-.1045,1.0811-.3135s.3896-.5049.3896-.8877c0-.4219-.1201-.7266-.3604-.9141s-.6143-.2812-1.1221-.2812h-1.4414v2.3965ZM87.7496,584.5293v2.666h1.6465c.4648,0,.8281-.1152,1.0898-.3457s.3926-.5508.3926-.9609c0-.8867-.4531-1.3398-1.3594-1.3594h-1.7695Z" style="fill:#0b153b; stroke-width:0px;"/><rect x="177.5277" y="563.3163" width="163.9446" height="41.5555" rx="5.5489" ry="5.5489" style="fill:none; stroke:#69a547; stroke-dasharray:0 0 5.0178 5.0178; stroke-miterlimit:10; stroke-width:2px;"/><path d="M252.8609,579.8477h1.4766v5.9824c0,.8164-.2549,1.4648-.7646,1.9453s-1.1826.7207-2.0186.7207c-.8906,0-1.5781-.2246-2.0625-.6738s-.7266-1.0742-.7266-1.875h1.4766c0,.4531.1123.7939.3369,1.0225s.5498.3428.9756.3428c.3984,0,.7158-.1318.9521-.3955s.3545-.6279.3545-1.0928v-5.9766Z" style="fill:#0b153b; stroke-width:0px;"/><path d="M259.0367,586.5215l2.168-6.6738h1.6289l-3.0703,8.5312h-1.4355l-3.0586-8.5312h1.623l2.1445,6.6738Z" style="fill:#0b153b; stroke-width:0px;"/><path d="M263.7945,588.3789v-8.5312h2.9238c.9648,0,1.6992.1934,2.2031.5801s.7559.9629.7559,1.7285c0,.3906-.1055.7422-.3164,1.0547s-.5195.5547-.9258.7266c.4609.125.8174.3604,1.0693.7061s.3779.7607.3779,1.2451c0,.8008-.2568,1.416-.7705,1.8457s-1.249.6445-2.2061.6445h-3.1113ZM265.2769,583.4395h1.4531c.4609,0,.8213-.1045,1.0811-.3135s.3896-.5049.3896-.8877c0-.4219-.1201-.7266-.3604-.9141s-.6143-.2812-1.1221-.2812h-1.4414v2.3965ZM265.2769,584.5293v2.666h1.6465c.4648,0,.8281-.1152,1.0898-.3457s.3926-.5508.3926-.9609c0-.8867-.4531-1.3398-1.3594-1.3594h-1.7695Z" style="fill:#0b153b; stroke-width:0px;"/><rect x="355.0554" y="563.3163" width="163.9446" height="41.5555" rx="5.5489" ry="5.5489" style="fill:none; stroke:#69a547; stroke-dasharray:0 0 5.0178 5.0178; stroke-miterlimit:10; stroke-width:2px;"/><path d="M430.3892,579.8477h1.4766v5.9824c0,.8164-.2549,1.4648-.7646,1.9453s-1.1826.7207-2.0186.7207c-.8906,0-1.5781-.2246-2.0625-.6738s-.7266-1.0742-.7266-1.875h1.4766c0,.4531.1123.7939.3369,1.0225s.5498.3428.9756.3428c.3984,0,.7158-.1318.9521-.3955s.3545-.6279.3545-1.0928v-5.9766Z" style="fill:#0b153b; stroke-width:0px;"/><path d="M436.565,586.5215l2.168-6.6738h1.6289l-3.0703,8.5312h-1.4355l-3.0586-8.5312h1.623l2.1445,6.6738Z" style="fill:#0b153b; stroke-width:0px;"/><path d="M441.3228,588.3789v-8.5312h2.9238c.9648,0,1.6992.1934,2.2031.5801s.7559.9629.7559,1.7285c0,.3906-.1055.7422-.3164,1.0547s-.5195.5547-.9258.7266c.4609.125.8174.3604,1.0693.7061s.3779.7607.3779,1.2451c0,.8008-.2568,1.416-.7705,1.8457s-1.249.6445-2.2061.6445h-3.1113ZM442.8053,583.4395h1.4531c.4609,0,.8213-.1045,1.0811-.3135s.3896-.5049.3896-.8877c0-.4219-.1201-.7266-.3604-.9141s-.6143-.2812-1.1221-.2812h-1.4414v2.3965ZM442.8053,584.5293v2.666h1.6465c.4648,0,.8281-.1152,1.0898-.3457s.3926-.5508.3926-.9609c0-.8867-.4531-1.3398-1.3594-1.3594h-1.7695Z" style="fill:#0b153b; stroke-width:0px;"/><polyline points="81.9722 483.5847 81.9722 408.0945 437.0277 408.0945 437.0277 483.5847" style="fill:none; stroke:#69a547; stroke-miterlimit:10; stroke-width:2px;"/><polygon points="86.9586 482.1257 81.9722 490.761 76.9859 482.1257 86.9586 482.1257" style="fill:#69a547; stroke-width:0px;"/><polygon points="432.0413 482.1257 437.0277 490.761 442.014 482.1257 432.0413 482.1257" style="fill:#69a547; stroke-width:0px;"/><line x1="259.4998" y1="408.0945" x2="259.4998" y2="483.5847" style="fill:none; stroke:#69a547; stroke-miterlimit:10; stroke-width:2px;"/><polygon points="254.5135 482.1257 259.4998 490.761 264.4863 482.1257 254.5135 482.1257" style="fill:#69a547; stroke-width:0px;"/><line x1="420.8416" y1="408.0945" x2="420.8416" y2="340.6042" style="fill:none; stroke:#69a547; stroke-miterlimit:10; stroke-width:2px;"/><polygon points="425.828 342.0631 420.8416 333.4279 415.8553 342.0631 425.828 342.0631" style="fill:#69a547; stroke-width:0px;"/><polyline points="100.3892 503.4276 100.3892 424.0944 244.3889 424.0944 244.3889 340.6042" style="fill:none; stroke:#ef544d; stroke-miterlimit:10; stroke-width:2px;"/><polygon points="249.3752 342.0631 244.3889 333.4279 239.4025 342.0631 249.3752 342.0631" style="fill:#ef544d; stroke-width:0px;"/><line x1="276.351" y1="503.4276" x2="276.351" y2="340.6042" style="fill:none; stroke:#ef544d; stroke-miterlimit:10; stroke-width:2px;"/><polygon points="281.3374 342.0631 276.351 333.4279 271.3647 342.0631 281.3374 342.0631" style="fill:#ef544d; stroke-width:0px;"/><polyline points="399.0553 503.4276 399.0553 424.0944 309.2777 424.0944 309.2777 340.6042" style="fill:none; stroke:#ef544d; stroke-miterlimit:10; stroke-width:2px;"/><polygon points="314.264 342.0631 309.2777 333.4279 304.2913 342.0631 314.264 342.0631" style="fill:#ef544d; stroke-width:0px;"/><polyline points="351.0551 238.7615 276.351 238.7615 276.351 263.1407" style="fill:none; stroke:#000; stroke-miterlimit:10; stroke-width:2px;"/><polygon points="271.3647 261.6817 276.351 270.317 281.3374 261.6817 271.3647 261.6817" style="fill:#000; stroke-width:0px;"/><path d="M203.9058,203.0278h1.5947v6.4619c0,.8823-.2754,1.5825-.8262,2.1016-.5498.519-1.2773.7783-2.1797.7783-.9619,0-1.7051-.2427-2.2285-.7275-.5225-.4854-.7842-1.1606-.7842-2.0254h1.5947c0,.4893.1211.8574.3643,1.1045.2422.2466.5938.3701,1.0537.3701.4297,0,.7725-.1426,1.0283-.4272.2549-.2847.3828-.6782.3828-1.1807v-6.4556Z" style="fill:#3081d1; stroke-width:0px;"/><path d="M207.1842,203.6162c0-.2363.0752-.4326.2246-.5884.1504-.1562.3643-.2344.6426-.2344s.4941.0781.6455.2344c.1523.1558.2275.3521.2275.5884,0,.2324-.0752.4253-.2275.5791-.1514.1543-.3672.231-.6455.231s-.4922-.0767-.6426-.231c-.1494-.1538-.2246-.3467-.2246-.5791ZM208.817,212.2432h-1.5381v-6.8481h1.5381v6.8481Z" style="fill:#3081d1; stroke-width:0px;"/><path d="M212.4185,203.7305v1.6646h1.209v1.1392h-1.209v3.8228c0,.2617.0518.4507.1553.5664.1035.1162.2881.1743.5537.1743.1777,0,.3564-.021.5381-.0635v1.1899c-.3496.0972-.6875.1455-1.0127.1455-1.1816,0-1.7715-.6519-1.7715-1.9556v-3.8799h-1.127v-1.1392h1.127v-1.6646h1.5371Z" style="fill:#3081d1; stroke-width:0px;"/><path d="M218.6412,210.3823c0-.2744-.1133-.4829-.3389-.6265s-.6006-.27-1.123-.3799c-.5234-.1099-.96-.249-1.3105-.418-.7676-.3711-1.1523-.9092-1.1523-1.6138,0-.5908.249-1.0845.7471-1.481s1.1309-.5952,1.8994-.5952c.8184,0,1.4795.2026,1.9834.6079.5049.4048.7568.9302.7568,1.5757h-1.5381c0-.2949-.1094-.541-.3291-.7373s-.5107-.2939-.873-.2939c-.3379,0-.6133.0781-.8262.2339-.2129.1562-.3203.3652-.3203.6265,0,.2368.0996.4199.2979.5508s.5996.2627,1.2031.3955c.6025.1333,1.0762.2915,1.4209.4751.3438.1831.5986.4038.7656.6611.166.2573.25.5698.25.937,0,.6157-.2559,1.1147-.7656,1.4966-.5107.3818-1.1797.5728-2.0068.5728-.5615,0-1.0615-.1011-1.5-.3037s-.7803-.481-1.0254-.8354-.3672-.7363-.3672-1.1455h1.4941c.0205.3628.1582.6421.4111.8384s.5889.2944,1.0059.2944c.4053,0,.7139-.0767.9248-.231.2109-.1538.3164-.3555.3164-.6045Z" style="fill:#3081d1; stroke-width:0px;"/><path d="M221.4947,203.6162c0-.2363.0752-.4326.2246-.5884.1504-.1562.3643-.2344.6426-.2344s.4941.0781.6455.2344c.1523.1558.2275.3521.2275.5884,0,.2324-.0752.4253-.2275.5791-.1514.1543-.3672.231-.6455.231s-.4922-.0767-.6426-.231c-.1494-.1538-.2246-.3467-.2246-.5791ZM223.1275,212.2432h-1.5381v-6.8481h1.5381v6.8481Z" style="fill:#3081d1; stroke-width:0px;"/><path d="M230.2545,203.0278l2.6582,7.0635,2.6523-7.0635h2.0693v9.2153h-1.5947v-3.0381l.1582-4.0635-2.7217,7.1016h-1.1455l-2.7158-7.0952.1582,4.0571v3.0381h-1.5947v-9.2153h2.0762Z" style="fill:#3081d1; stroke-width:0px;"/><path d="M242.3941,212.3696c-.9746,0-1.7646-.3066-2.3701-.9209-.6055-.6138-.9082-1.4312-.9082-2.4526v-.1899c0-.6836.1318-1.2939.3955-1.832s.6338-.957,1.1104-1.2563c.4775-.2998,1.0088-.4497,1.5957-.4497.9326,0,1.6523.2979,2.1611.8926.5088.5952.7627,1.437.7627,2.5254v.6201h-4.4746c.0459.5659.2354,1.0127.5664,1.3418.3311.3296.748.4941,1.25.4941.7041,0,1.2783-.2852,1.7217-.8545l.8291.791c-.2744.4092-.6406.7271-1.0986.9526-.457.2256-.9707.3384-1.541.3384ZM242.2105,206.5024c-.4219,0-.7627.1479-1.0215.4429-.2598.2954-.4258.707-.4971,1.2344h2.9307v-.1138c-.0342-.5146-.1709-.9043-.4121-1.168-.2402-.2637-.5732-.3955-1-.3955Z" style="fill:#3081d1; stroke-width:0px;"/><path d="M249.3502,212.3696c-.9746,0-1.7646-.3066-2.3701-.9209-.6055-.6138-.9082-1.4312-.9082-2.4526v-.1899c0-.6836.1318-1.2939.3955-1.832s.6338-.957,1.1104-1.2563c.4775-.2998,1.0088-.4497,1.5957-.4497.9326,0,1.6523.2979,2.1611.8926.5088.5952.7627,1.437.7627,2.5254v.6201h-4.4746c.0459.5659.2354,1.0127.5664,1.3418.3311.3296.748.4941,1.25.4941.7041,0,1.2783-.2852,1.7217-.8545l.8291.791c-.2744.4092-.6406.7271-1.0986.9526-.457.2256-.9707.3384-1.541.3384ZM249.1666,206.5024c-.4219,0-.7627.1479-1.0215.4429-.2598.2954-.4258.707-.4971,1.2344h2.9307v-.1138c-.0342-.5146-.1709-.9043-.4121-1.168-.2402-.2637-.5732-.3955-1-.3955Z" style="fill:#3081d1; stroke-width:0px;"/><path d="M255.2174,203.7305v1.6646h1.209v1.1392h-1.209v3.8228c0,.2617.0518.4507.1553.5664.1035.1162.2881.1743.5537.1743.1777,0,.3564-.021.5381-.0635v1.1899c-.3496.0972-.6875.1455-1.0127.1455-1.1816,0-1.7715-.6519-1.7715-1.9556v-3.8799h-1.127v-1.1392h1.127v-1.6646h1.5371Z" style="fill:#3081d1; stroke-width:0px;"/><path d="M262.6676,212.2432h-1.5957v-9.2153h1.5957v9.2153Z" style="fill:#3081d1; stroke-width:0px;"/><path d="M265.9137,205.395l.0449.791c.5059-.6118,1.1709-.918,1.9932-.918,1.4268,0,2.1523.8169,2.1777,2.4497v4.5254h-1.5381v-4.437c0-.4346-.0938-.7563-.2812-.9648-.1885-.209-.4951-.3135-.9209-.3135-.6211,0-1.083.2808-1.3867.8418v4.8735h-1.5381v-6.8481h1.4492Z" style="fill:#3081d1; stroke-width:0px;"/><path d="M275.5347,210.3823c0-.2744-.1133-.4829-.3389-.6265s-.6006-.27-1.123-.3799c-.5234-.1099-.96-.249-1.3105-.418-.7676-.3711-1.1523-.9092-1.1523-1.6138,0-.5908.249-1.0845.7471-1.481s1.1309-.5952,1.8994-.5952c.8184,0,1.4795.2026,1.9834.6079.5049.4048.7568.9302.7568,1.5757h-1.5381c0-.2949-.1094-.541-.3291-.7373s-.5107-.2939-.873-.2939c-.3379,0-.6133.0781-.8262.2339-.2129.1562-.3203.3652-.3203.6265,0,.2368.0996.4199.2979.5508s.5996.2627,1.2031.3955c.6025.1333,1.0762.2915,1.4209.4751.3438.1831.5986.4038.7656.6611.166.2573.25.5698.25.937,0,.6157-.2559,1.1147-.7656,1.4966-.5107.3818-1.1797.5728-2.0068.5728-.5615,0-1.0615-.1011-1.5-.3037s-.7803-.481-1.0254-.8354-.3672-.7363-.3672-1.1455h1.4941c.0205.3628.1582.6421.4111.8384s.5889.2944,1.0059.2944c.4053,0,.7139-.0767.9248-.231.2109-.1538.3164-.3555.3164-.6045Z" style="fill:#3081d1; stroke-width:0px;"/><path d="M280.3131,203.7305v1.6646h1.209v1.1392h-1.209v3.8228c0,.2617.0518.4507.1553.5664.1035.1162.2881.1743.5537.1743.1777,0,.3564-.021.5381-.0635v1.1899c-.3496.0972-.6875.1455-1.0127.1455-1.1816,0-1.7715-.6519-1.7715-1.9556v-3.8799h-1.127v-1.1392h1.127v-1.6646h1.5371Z" style="fill:#3081d1; stroke-width:0px;"/><path d="M286.7877,212.2432c-.0674-.1309-.127-.3438-.1768-.6392-.4902.5103-1.0889.7656-1.7979.7656-.6875,0-1.249-.1963-1.6836-.5884-.4346-.3926-.6523-.8779-.6523-1.4561,0-.73.2715-1.29.8135-1.6802s1.3174-.5854,2.3262-.5854h.9434v-.4497c0-.354-.0996-.6377-.2979-.8511-.1982-.2129-.5-.3198-.9053-.3198-.3496,0-.6367.0879-.8604.2627-.2236.1753-.3359.3979-.3359.668h-1.5381c0-.3755.125-.7271.374-1.0537.249-.3271.5869-.5835,1.0156-.769s.9062-.2788,1.4336-.2788c.8018,0,1.4404.2017,1.918.6045.4766.4033.7217.9697.7344,1.6997v3.0884c0,.6162.0859,1.1079.2588,1.4751v.1074h-1.5693ZM285.0982,211.1357c.3037,0,.5889-.0742.8574-.2217.2676-.1479.4688-.3462.6045-.5952v-1.291h-.8291c-.5703,0-.998.0991-1.2852.2974-.2871.1987-.4307.479-.4307.8418,0,.2954.0986.5308.2949.7061.1963.1748.459.2627.7881.2627Z" style="fill:#3081d1; stroke-width:0px;"/><path d="M291.1363,205.395l.0449.791c.5059-.6118,1.1709-.918,1.9932-.918,1.4268,0,2.1523.8169,2.1777,2.4497v4.5254h-1.5381v-4.437c0-.4346-.0938-.7563-.2812-.9648-.1885-.209-.4951-.3135-.9209-.3135-.6211,0-1.083.2808-1.3867.8418v4.8735h-1.5381v-6.8481h1.4492Z" style="fill:#3081d1; stroke-width:0px;"/><path d="M299.732,211.1421c.3838,0,.7021-.1118.9551-.3354.2539-.2236.3887-.5005.4053-.8296h1.4492c-.0166.4263-.1494.8242-.3984,1.1934s-.5859.6611-1.0127.8765c-.4258.2153-.8857.3228-1.3799.3228-.958,0-1.7168-.3101-2.2783-.9302-.5615-.6206-.8418-1.4771-.8418-2.5698v-.1582c0-1.042.2783-1.8765.8359-2.5034.5566-.6265,1.3164-.9399,2.2783-.9399.8145,0,1.4775.2373,1.9902.7124.5127.4746.7822,1.0981.8066,1.8701h-1.4492c-.0166-.3926-.1504-.7153-.4014-.9683-.251-.2534-.5713-.3799-.959-.3799-.498,0-.8818.1802-1.1523.541-.2695.3608-.4072.9082-.4111,1.6426v.2471c0,.7427.1338,1.2964.4023,1.6611.2676.3652.6543.5479,1.1611.5479Z" style="fill:#3081d1; stroke-width:0px;"/><path d="M306.7193,212.3696c-.9746,0-1.7646-.3066-2.3701-.9209-.6055-.6138-.9082-1.4312-.9082-2.4526v-.1899c0-.6836.1318-1.2939.3955-1.832s.6338-.957,1.1104-1.2563c.4775-.2998,1.0088-.4497,1.5957-.4497.9326,0,1.6523.2979,2.1611.8926.5088.5952.7627,1.437.7627,2.5254v.6201h-4.4746c.0459.5659.2354,1.0127.5664,1.3418.3311.3296.748.4941,1.25.4941.7041,0,1.2783-.2852,1.7217-.8545l.8291.791c-.2744.4092-.6406.7271-1.0986.9526-.457.2256-.9707.3384-1.541.3384ZM306.5357,206.5024c-.4219,0-.7627.1479-1.0215.4429-.2598.2954-.4258.707-.4971,1.2344h2.9307v-.1138c-.0342-.5146-.1709-.9043-.4121-1.168-.2402-.2637-.5732-.3955-1-.3955Z" style="fill:#3081d1; stroke-width:0px;"/><line x1="352.2685" y1="305.8724" x2="340.1114" y2="305.8724" style="fill:none; stroke:#000; stroke-miterlimit:10; stroke-width:2px;"/><polygon points="341.5704 300.8861 332.9351 305.8724 341.5704 310.8588 341.5704 300.8861" style="fill:#000; stroke-width:0px;"/><rect x="351.0551" y="288.5391" width="139.573" height="34.6666" rx="2.9879" ry="2.9879" style="fill:#fff; stroke:#14146d; stroke-miterlimit:10; stroke-width:1.8891px;"/><path d="M408.2379,301.8481h1.4766v5.9824c0,.8164-.2549,1.4648-.7646,1.9453s-1.1826.7207-2.0186.7207c-.8906,0-1.5781-.2246-2.0625-.6738s-.7266-1.0742-.7266-1.875h1.4766c0,.4531.1123.7939.3369,1.0225s.5498.3428.9756.3428c.3984,0,.7158-.1318.9521-.3955s.3545-.6279.3545-1.0928v-5.9766Z" style="fill:#0b153b; stroke-width:0px;"/><path d="M411.273,302.3931c0-.2188.0693-.4004.208-.5449s.3369-.2168.5947-.2168.457.0723.5977.2168.2109.3262.2109.5449c0,.2148-.0703.3936-.2109.5361s-.3398.2139-.5977.2139-.4561-.0713-.5947-.2139-.208-.3213-.208-.5361ZM412.7847,310.3794h-1.4238v-6.3398h1.4238v6.3398Z" style="fill:#0b153b; stroke-width:0px;"/><path d="M416.939,309.3599c.3555,0,.6504-.1035.8848-.3105s.3594-.4629.375-.7676h1.3418c-.0156.3945-.1387.7627-.3691,1.1045s-.543.6123-.9375.8115-.8203.2988-1.2773.2988c-.8867,0-1.5898-.2871-2.1094-.8613s-.7793-1.3672-.7793-2.3789v-.1465c0-.9648.2578-1.7373.7734-2.3174s1.2188-.8701,2.1094-.8701c.7539,0,1.3682.2197,1.8428.6592s.7236,1.0166.7471,1.7314h-1.3418c-.0156-.3633-.1396-.6621-.3721-.8965s-.5283-.3516-.8877-.3516c-.4609,0-.8164.167-1.0664.501s-.377.8408-.3809,1.5205v.2285c0,.6875.124,1.2002.3721,1.5381s.6064.5068,1.0752.5068Z" style="fill:#0b153b; stroke-width:0px;"/><path d="M420.3492,307.1509c0-.6211.123-1.1807.3691-1.6787s.5918-.8809,1.0371-1.1484.957-.4014,1.5352-.4014c.8555,0,1.5498.2754,2.083.8262s.8213,1.2812.8643,2.1914l.0059.334c0,.625-.1201,1.1836-.3604,1.6758s-.584.873-1.0312,1.1426-.9639.4043-1.5498.4043c-.8945,0-1.6104-.2979-2.1475-.8936s-.8057-1.3896-.8057-2.3818v-.0703ZM421.773,307.2739c0,.6523.1348,1.1631.4043,1.5322s.6445.5537,1.125.5537.8545-.1875,1.1221-.5625.4014-.9238.4014-1.6465c0-.6406-.1377-1.1484-.4131-1.5234s-.6494-.5625-1.1221-.5625c-.4648,0-.834.1846-1.1074.5537s-.4102.9209-.4102,1.6553Z" style="fill:#0b153b; stroke-width:0px;"/><path d="M427.9488,310.3794v-5.2852h-.9668v-1.0547h.9668v-.5801c0-.7031.1953-1.2461.5859-1.6289s.9375-.5742,1.6406-.5742c.25,0,.5156.0352.7969.1055l-.0352,1.1133c-.1562-.0312-.3379-.0469-.5449-.0469-.6797,0-1.0195.3496-1.0195,1.0488v.5625h1.2891v1.0547h-1.2891v5.2852h-1.4238Z" style="fill:#0b153b; stroke-width:0px;"/><path d="M431.4351,307.1509c0-.6211.123-1.1807.3691-1.6787s.5918-.8809,1.0371-1.1484.957-.4014,1.5352-.4014c.8555,0,1.5498.2754,2.083.8262s.8213,1.2812.8643,2.1914l.0059.334c0,.625-.1201,1.1836-.3604,1.6758s-.584.873-1.0312,1.1426-.9639.4043-1.5498.4043c-.8945,0-1.6104-.2979-2.1475-.8936s-.8057-1.3896-.8057-2.3818v-.0703ZM432.859,307.2739c0,.6523.1348,1.1631.4043,1.5322s.6445.5537,1.125.5537.8545-.1875,1.1221-.5625.4014-.9238.4014-1.6465c0-.6406-.1377-1.1484-.4131-1.5234s-.6494-.5625-1.1221-.5625c-.4648,0-.834.1846-1.1074.5537s-.4102.9209-.4102,1.6553Z" style="fill:#0b153b; stroke-width:0px;"/></svg>