<?xml version="1.0" encoding="utf-8"?>
<!-- Generator: Adobe Illustrator 24.1.0, SVG Export Plug-In . SVG Version: 6.00 Build 0)  -->
<svg version="1.1" id="Layer_1" xmlns="http://www.w3.org/2000/svg" xmlns:xlink="http://www.w3.org/1999/xlink" x="0px" y="0px"
	 viewBox="0 0 100 100" style="enable-background:new 0 0 100 100;" xml:space="preserve">
<style type="text/css">
	.st0-934bb9062140b609be29025e77ba06c6{fill:#010101;}
	.st1-934bb9062140b609be29025e77ba06c6{fill:currentColor;}
	.st2-934bb9062140b609be29025e77ba06c6{fill:#FFFFFF;}
</style>
<path class="st0-934bb9062140b609be29025e77ba06c6" d="M71.1,53.6H66c-0.4,1.8-1.1,3.5-2.1,5.1l3.6,3.6l-5.2,5.1l-3.6-3.6c-1.6,1-3.3,1.7-5.1,2.1V71h-7.3v-5
	c-1.8-0.4-3.5-1.1-5.1-2.1l-3.6,3.6l-5.1-5.1l3.6-3.6c-1-1.6-1.7-3.3-2.1-5.1h-5.1v-7.3H34c0.4-1.6,1-3.1,1.8-4.6
	c0.1-0.2,0.2-0.4,0.3-0.5l-3.6-3.6l5.1-5.1l3.6,3.6c1.6-1,3.3-1.7,5.1-2.1V29h7.3v5c1.8,0.4,3.5,1.1,5.1,2.1l3.6-3.6l5.1,5.1
	l-3.6,3.6c0.1,0.2,0.2,0.4,0.3,0.5c0.8,1.4,1.4,3,1.8,4.6H71L71.1,53.6z"/>
<g>
	<g id="Layer_1-2">
		<path class="st1-934bb9062140b609be29025e77ba06c6" d="M90,56.9V43.1h-9.6c-0.7-3.1-1.8-6-3.4-8.7c-0.2-0.3-0.4-0.7-0.6-1l6.8-6.8l-9.8-9.7l-6.8,6.8
			c-3-1.9-6.3-3.2-9.7-4V10H43.1v9.6c-3.4,0.8-6.7,2.1-9.7,4l-6.8-6.8l-9.7,9.8l6.8,6.8c-0.2,0.3-0.4,0.7-0.6,1
			c-1.6,2.7-2.7,5.6-3.4,8.7H10v13.8h9.6c0.8,3.4,2.1,6.7,4,9.7l-6.8,6.8l9.7,9.8l6.8-6.8c3,1.9,6.3,3.2,9.7,4V90h13.8v-9.6
			c3.4-0.8,6.7-2.1,9.7-4l6.8,6.8l9.8-9.8l-6.8-6.8c1.9-3,3.2-6.3,4-9.7L90,56.9z M71.1,53.6H66c-0.4,1.8-1.1,3.5-2.1,5.1l3.6,3.6
			l-5.2,5.1l-3.6-3.6c-1.6,1-3.3,1.7-5.1,2.1V71h-7.3v-5c-1.8-0.4-3.5-1.1-5.1-2.1l-3.6,3.6l-5.1-5.1l3.6-3.6
			c-1-1.6-1.7-3.3-2.1-5.1h-5.1v-7.3H34c0.4-1.6,1-3.1,1.8-4.6c0.1-0.2,0.2-0.4,0.3-0.5l-3.6-3.6l5.1-5.1l3.6,3.6
			c1.6-1,3.3-1.7,5.1-2.1V29h7.3v5c1.8,0.4,3.5,1.1,5.1,2.1l3.6-3.6l5.1,5.1l-3.6,3.6c0.1,0.2,0.2,0.4,0.3,0.5
			c0.8,1.4,1.4,3,1.8,4.6H71L71.1,53.6z"/>
		<path class="st1-934bb9062140b609be29025e77ba06c6" d="M59.8,45.3c-0.1-0.3-0.3-0.5-0.4-0.8c-1.1-1.9-2.8-3.4-4.7-4.3c-0.3-0.2-0.7-0.3-1-0.4
			c-2.4-0.8-4.9-0.8-7.3,0c-0.4,0.1-0.7,0.3-1,0.4c-2,0.9-3.6,2.5-4.7,4.3c-0.1,0.3-0.3,0.5-0.4,0.8c-0.2,0.3-0.3,0.7-0.4,1
			c-0.8,2.4-0.8,4.9,0,7.3c0.1,0.4,0.3,0.7,0.4,1c1.1,2.3,2.9,4.1,5.1,5.1c0.3,0.2,0.7,0.3,1,0.4c1.2,0.4,2.4,0.6,3.6,0.6l0,0
			c1.2,0,2.5-0.2,3.6-0.6c0.3-0.1,0.7-0.3,1-0.4c2.3-1.1,4.1-2.9,5.1-5.1c0.2-0.3,0.3-0.7,0.4-1c0.8-2.4,0.8-4.9,0-7.3
			C60.1,46,60,45.7,59.8,45.3z M50,55.6c-3.1,0-5.5-2.5-5.5-5.5l0,0c0-1,0.3-1.9,0.7-2.8c1.5-2.7,4.9-3.6,7.6-2
			c2.7,1.5,3.6,4.9,2,7.6C53.8,54.5,52,55.6,50,55.6z"/>
	</g>
</g>
<path class="st2-934bb9062140b609be29025e77ba06c6" d="M50,55.6c-3.1,0-5.5-2.5-5.5-5.5l0,0c0-1,0.3-1.9,0.7-2.8c1.5-2.7,4.9-3.6,7.6-2c2.7,1.5,3.6,4.9,2,7.6
	C53.8,54.5,52,55.6,50,55.6z"/>
</svg>
