<svg viewBox="0 0 200 200" xmlns="http://www.w3.org/2000/svg"><path d="m142.26 167.23a8.69 8.69 0 0 1 -5.13-1.7l-34.55-25.1a4.38 4.38 0 0 0 -5.16 0l-34.55 25.1a8.69 8.69 0 0 1 -5.13 1.7 8.91 8.91 0 0 1 -7.16-3.69 8.61 8.61 0 0 1 -1.2-7.81l13.2-40.61a4.37 4.37 0 0 0 -1.6-4.91l-34.54-25.1a8.77 8.77 0 0 1 5.15-15.86h42.7a4.39 4.39 0 0 0 4.18-3l13.19-40.64a8.77 8.77 0 0 1 16.68 0l13.19 40.61a4.39 4.39 0 0 0 4.18 3h42.7a8.77 8.77 0 0 1 5.15 15.86l-34.56 25.13a4.37 4.37 0 0 0 -1.6 4.91l13.2 40.61a8.61 8.61 0 0 1 -1.2 7.81 8.91 8.91 0 0 1 -7.14 3.69z" fill="currentColor"/><path d="m100 21.74a6.46 6.46 0 0 1 6.26 4.54l13.19 40.61a6.59 6.59 0 0 0 6.26 4.55h42.7a6.58 6.58 0 0 1 3.87 11.9l-34.55 25.1a6.56 6.56 0 0 0 -2.39 7.35l13.2 40.61a6.61 6.61 0 0 1 -6.28 8.65 6.52 6.52 0 0 1 -3.85-1.29l-34.54-25.1a6.57 6.57 0 0 0 -7.74 0l-34.54 25.1a6.52 6.52 0 0 1 -3.85 1.29 6.61 6.61 0 0 1 -6.28-8.65l13.2-40.61a6.56 6.56 0 0 0 -2.39-7.35l-34.55-25.1a6.58 6.58 0 0 1 3.87-11.9h42.7a6.59 6.59 0 0 0 6.26-4.55l13.19-40.61a6.46 6.46 0 0 1 6.26-4.54m0-4.38a10.8 10.8 0 0 0 -10.42 7.57l-13.19 40.61a2.2 2.2 0 0 1 -2.1 1.52h-42.7a11 11 0 0 0 -6.44 19.82l34.55 25.12a2.21 2.21 0 0 1 .8 2.46l-13.2 40.59a10.78 10.78 0 0 0 1.51 9.78 11.11 11.11 0 0 0 8.93 4.59 10.86 10.86 0 0 0 6.42-2.12l34.54-25.1a2.22 2.22 0 0 1 2.6 0l34.54 25.1a10.86 10.86 0 0 0 6.42 2.12 11.11 11.11 0 0 0 8.93-4.59 10.78 10.78 0 0 0 1.51-9.78l-13.2-40.61a2.21 2.21 0 0 1 .8-2.46l34.55-25.1a11 11 0 0 0 -6.44-19.82h-42.7a2.2 2.2 0 0 1 -2.1-1.52l-13.19-40.61a10.8 10.8 0 0 0 -10.42-7.57z" fill="#32363b"/><g fill="none" stroke="#32363b" stroke-linecap="round" stroke-width="4.37"><path d="m100 21.74v78.26l-74.75-23.72"/><path d="m174.32 75.13-74.32 24.87-46.53 63.46"/><path d="m100 100 46.53 63.46"/></g></svg>