<svg xmlns="http://www.w3.org/2000/svg" viewBox="0 0 100 100">
  <title>Monitoring</title>
  <path fill="none" stroke="#010101" stroke-linejoin="round" stroke-width="4.3483" d="M90 56.9V43.1h-9.6c-.7-3-1.8-5.9-3.3-8.6-.2-.4-.4-.8-.7-1.1l6.8-6.8-9.8-9.8-6.8 6.8c-3-1.9-6.3-3.2-9.7-4V10H43.1v9.6c-3.4.8-6.7 2.1-9.7 4l-6.8-6.8-9.7 9.8 6.8 6.8c-.2.4-.5.8-.7 1.1-1.5 2.7-2.7 5.6-3.3 8.6H10v13.8h9.6c.8 3.4 2.1 6.7 4 9.7l-6.8 6.8 9.7 9.8 6.8-6.8c3 1.9 6.3 3.2 9.7 4V90h13.8v-9.6c3.4-.8 6.7-2.1 9.7-4l6.8 6.8 9.8-9.8-6.8-6.8c1.9-3 3.2-6.3 4-9.7H90z"/>
  <path fill="currentColor" d="M74 51.8h-9.5L62 46.2l-4.7 12.7-3.1-7.7L50 65.6l-1.9 6.6-6.3-26.8-1.6-7-1.7 5-2.9 8.4H26c-.8.1-1.5-.5-1.6-1.4-.1-.8.5-1.5 1.4-1.6H33.4l2.4-7 4.9-14.1 4.6 19.6 3.1 13.3 1.6-5.5 1.8-6.1 2-6.8 1.9 4.5 1.6 3.9 2.2-6.1 2.3-6.3 1.7 3.9 2.9 6.6H74c.8.1 1.4.8 1.4 1.6-.1.9-.7 1.5-1.4 1.5z"/>
</svg>