<?xml version="1.0" encoding="utf-8"?>
<!-- Generator: Adobe Illustrator 23.0.4, SVG Export Plug-In . SVG Version: 6.00 Build 0)  -->
<svg version="1.1" id="Layer_1" xmlns="http://www.w3.org/2000/svg" xmlns:xlink="http://www.w3.org/1999/xlink" x="0px" y="0px"
	 viewBox="0 0 100 100" style="enable-background:new 0 0 100 100;" xml:space="preserve">
<style type="text/css">
	.st0-77db84d49500d9cb3cf54797f9cecbb3{fill:none;stroke:#010101;stroke-width:4.3483;stroke-linejoin:round;}
	.st1-77db84d49500d9cb3cf54797f9cecbb3{fill:currentColor;}
</style>
<title>monitoring</title>
<g>
	<g id="Layer_1-2">
		<path class="st0-77db84d49500d9cb3cf54797f9cecbb3" d="M90,56.9V43.1h-9.6c-0.7-3-1.8-5.9-3.3-8.6c-0.2-0.4-0.4-0.8-0.7-1.1l6.8-6.8l-9.8-9.8l-6.8,6.8
			c-3-1.9-6.3-3.2-9.7-4V10H43.1v9.6c-3.4,0.8-6.7,2.1-9.7,4l-6.8-6.8l-9.7,9.8l6.8,6.8c-0.2,0.4-0.5,0.8-0.7,1.1
			c-1.5,2.7-2.7,5.6-3.3,8.6H10v13.8h9.6c0.8,3.4,2.1,6.7,4,9.7l-6.8,6.8l9.7,9.8l6.8-6.8c3,1.9,6.3,3.2,9.7,4V90h13.8v-9.6
			c3.4-0.8,6.7-2.1,9.7-4l6.8,6.8l9.8-9.8l-6.8-6.8c1.9-3,3.2-6.3,4-9.7L90,56.9z"/>
		<path class="st1-77db84d49500d9cb3cf54797f9cecbb3" d="M74,51.8h-9.5l-2.5-5.6l-4.7,12.7l-3.1-7.7L50,65.6l-1.9,6.6l-6.3-26.8l-1.6-7l-1.7,5l-2.9,8.4H26
			c-0.8,0.1-1.5-0.5-1.6-1.4c-0.1-0.8,0.5-1.5,1.4-1.6c0.1,0,0.2,0,0.2,0h7.4l2.4-7l4.9-14.1l4.6,19.6l3.1,13.3l1.6-5.5l1.8-6.1
			l2-6.8l1.9,4.5l1.6,3.9l2.2-6.1l2.3-6.3l1.7,3.9l2.9,6.6H74c0.8,0.1,1.4,0.8,1.4,1.6C75.3,51.2,74.7,51.8,74,51.8L74,51.8z"/>
	</g>
</g>
</svg>
