<svg viewBox="0 0 200 200" xmlns="http://www.w3.org/2000/svg"><g fill="#32363b"><path d="m73.33 122h79.67a4.39 4.39 0 0 0 4.22-3.18l17.58-61.53a4.4 4.4 0 0 0 -4.22-5.6h-107.39l-3.14-14.17a4.4 4.4 0 0 0 -4.29-3.44h-26.37a4.4 4.4 0 0 0 0 8.79h22.85c.55 2.51 15 67.65 15.86 71.4a13.18 13.18 0 0 0 5.24 25.28h79.66a4.4 4.4 0 0 0 0-8.79h-79.66a4.4 4.4 0 0 1 0-8.79zm91.45-61.52-15.07 52.73h-72.85l-11.71-52.76z"/><path d="m69 152.73a13.18 13.18 0 1 0 13.18-13.18 13.2 13.2 0 0 0 -13.18 13.18zm13.18-4.39a4.4 4.4 0 1 1 -4.4 4.39 4.4 4.4 0 0 1 4.35-4.39z"/><path d="m131.05 152.73a13.19 13.19 0 1 0 13.19-13.18 13.21 13.21 0 0 0 -13.19 13.18zm13.19-4.39a4.4 4.4 0 1 1 -4.4 4.39 4.4 4.4 0 0 1 4.4-4.39z"/></g><path d="m164.78 60.45-15.07 52.73h-72.85l-11.71-52.73z" fill="currentColor"/></svg>