<svg xmlns="http://www.w3.org/2000/svg" viewBox="0 0 288 288">
  <title>DDOS Protection</title>
  <path fill="currentColor" d="M246.8 57.6c-42.7 0-75.4-12.2-103-39.1-27.7 26.9-60.3 39.1-103 39.1 0 70-14.5 170.3 103 211.1 117.4-40.8 103-141.1 103-211.1z"/>
  <path fill="#fff" stroke="#040404" stroke-linecap="round" stroke-linejoin="round" stroke-width="10.48" d="M191.2 135.6c4.5-17.7-6.2-35.6-23.8-40.1-15.4-3.9-31.4 3.7-38.1 18.1-6.5-6-16.6-5.5-22.6 1-2.7 2.9-4.2 6.8-4.2 10.7v.4c-13.9.1-25.1 11.5-25 25.4.1 13.3 10.6 24.3 24 24.9l90-.1c11.2-1.1 19.3-11.1 18.2-22.2-1-9.6-8.7-17.2-18.5-18.1h0z"/>
</svg>