<svg viewBox="0 0 200 200" xmlns="http://www.w3.org/2000/svg"><path d="m167.31 50h-134.62a7.71 7.71 0 0 0 -7.69 7.69v84.62a7.71 7.71 0 0 0 7.69 7.69h134.62a7.71 7.71 0 0 0 7.69-7.69v-84.62a7.71 7.71 0 0 0 -7.69-7.69zm-34.94 53.74 32.7 40.38.1.11h-130.34l.1-.11 32.7-40.38a2.89 2.89 0 0 0 -4.49-3.63l-32.37 40v-80.74l61.34 46a13.73 13.73 0 0 0 15.77 0l61.35-46v80.73l-32.37-40a2.89 2.89 0 0 0 -4.49 3.63z" fill="#32363b"/><path d="m164.42 55.77-60 45a8 8 0 0 1 -8.85 0l-60-45z" fill="currentColor"/></svg>