<svg viewBox="0 0 200 200" xmlns="http://www.w3.org/2000/svg"><path d="m146.88 118.07c0 6.21-3.28 9.26-9.38 9.37h-75c-6.1-.11-9.38-3.16-9.38-9.37s3.28-9.27 9.38-9.37h75c6.1.1 9.38 3.15 9.38 9.37m-9.38 14.06h-75c-6.1.11-9.38 3.16-9.38 9.37s3.28 9.27 9.38 9.37h75c6.1-.1 9.38-3.15 9.38-9.37s-3.28-9.26-9.38-9.37m23.44-51.55c-6.1.11-9.38 3.15-9.38 9.37v51.55c0 6.22 3.28 9.27 9.38 9.37 9.15-.32 14.06-9.46 14.06-28.11v-23.44c0-12.44-4.91-18.53-14.06-18.74m-121.88 0c-9.15.21-14.06 6.3-14.06 18.74v23.43c0 18.65 4.91 27.79 14.06 28.11 6.1-.1 9.38-3.15 9.38-9.37v-51.55c0-6.22-3.28-9.26-9.38-9.37m121.88-4.69c0-15.54-8.19-23.16-23.44-23.43h-75c-15.25.27-23.44 7.89-23.44 23.43 9.15.16 14.06 4.73 14.06 14s4.88 13.95 14.07 14.12h65.62c9.15-.17 14.07-4.74 14.07-14.06s4.91-13.89 14.06-14z" fill="currentColor" stroke="#32363b" stroke-linecap="round" stroke-linejoin="bevel" stroke-width="4.71"/></svg>