<svg viewBox="0 0 200 200" xmlns="http://www.w3.org/2000/svg"><path d="m60.56 159.92c-15 0-21.06-6.67-21.06-23a110.55 110.55 0 0 1 .76-12.54 93 93 0 0 0 .67-10.61c0-2.34-1-7.82-10.17-8.1l-2.12-.07v-18.6h2.12c9.18-.28 10.17-5.76 10.17-8.1a93 93 0 0 0 -.67-10.61 110.71 110.71 0 0 1 -.76-12.59c0-16.38 6.1-23.06 21.06-23.06h12.19v17.24h-4.48c-3.68 0-4.67 0-4.67 6.67 0 3.49.13 6.82.27 10.34.15 3.76.3 7.64.3 12 0 9.11-2.35 14.52-7.91 17.43 5.56 2.92 7.91 8.32 7.91 17.44 0 4.32-.15 8.2-.3 12-.14 3.52-.27 6.85-.27 10.33 0 6.68 1 6.68 4.67 6.68h4.48v17.23z" fill="#CCCCCC"/><path d="m70.56 34.83v12.86h-2.29c-5.28 0-6.86 1.43-6.86 8.86s.58 14 .58 22.3c.01 11.43-3.86 15.43-11.44 17.15v.57c7.58 1.71 11.45 5.72 11.45 17.15 0 8.29-.58 15-.58 22.29 0 7.44 1.58 8.87 6.86 8.87h2.29v12.86h-10c-13.15 0-18.87-5.15-18.87-20.87 0-10 1.43-14.29 1.43-23.15 0-4.86-3.14-10-12.29-10.29v-14.29c9.15-.29 12.29-5.43 12.29-10.29 0-8.86-1.43-13.15-1.43-23.15 0-15.72 5.72-20.87 18.87-20.87h10m4.38-4.37h-14.39c-16.08 0-23.24 7.78-23.24 25.24a111.66 111.66 0 0 0 .77 12.77 91.76 91.76 0 0 1 .66 10.38c0 4.68-4.38 5.8-8.06 5.92l-4.23.13v22.77l4.23.13c3.68.12 8.06 1.24 8.06 5.92a91.91 91.91 0 0 1 -.66 10.38 111.51 111.51 0 0 0 -.77 12.77c0 17.46 7.16 25.24 23.24 25.24h14.38v-21.61h-6.67a9.34 9.34 0 0 1 -2.07-.16 14 14 0 0 1 -.41-4.33c0-3.44.13-6.74.27-10.25.15-3.77.3-7.68.3-12 0-8.29-1.9-13.89-6.13-17.44 4.23-3.54 6.13-9.15 6.13-17.43 0-4.37-.15-8.27-.3-12-.14-3.5-.27-6.8-.27-10.25a13.93 13.93 0 0 1 .41-4.32 9.34 9.34 0 0 1 2.07-.16h6.67v-21.7z" fill="#32363b"/><path d="m83.24 159.92v-17.23h4.47c3.68 0 4.67 0 4.67-6.68 0-3.48-.13-6.81-.27-10.33-.15-3.76-.3-7.64-.3-12 0-9.12 2.36-14.52 7.91-17.44-5.55-2.91-7.91-8.32-7.91-17.43 0-4.32.15-8.2.3-12 .14-3.52.27-6.85.27-10.34 0-6.67-1-6.67-4.67-6.67h-4.47v-17.16h12.19c14.95 0 21 6.68 21 23.06a110.71 110.71 0 0 1 -.76 12.54 95.15 95.15 0 0 0 -.67 10.61c0 2.34 1 7.82 10.17 8.1l2.12.07v18.53l-2.12.07c-9.18.28-10.17 5.76-10.17 8.1a95.31 95.31 0 0 0 .67 10.61 110.55 110.55 0 0 1 .76 12.54c0 16.38-6.1 23-21 23z" fill="#CCCCCC"/><path d="m95.43 34.83c13.15 0 18.86 5.15 18.86 20.87 0 10-1.43 14.29-1.43 23.15 0 4.86 3.15 10 12.29 10.29v14.29c-9.14.29-12.29 5.43-12.29 10.29 0 8.86 1.43 13.15 1.43 23.15 0 15.72-5.71 20.87-18.86 20.87h-10v-12.86h2.29c5.29 0 6.86-1.43 6.86-8.87 0-7.28-.57-14-.57-22.29 0-11.43 3.86-15.44 11.43-17.15v-.57c-7.58-1.72-11.44-5.72-11.44-17.15 0-8.29.57-15 .57-22.3s-1.57-8.86-6.86-8.86h-2.29v-12.86h10m0-4.37h-14.37v21.61h6.66a9.34 9.34 0 0 1 2.07.16 13.58 13.58 0 0 1 .41 4.32c0 3.45-.13 6.75-.26 10.25-.15 3.78-.31 7.68-.31 12 0 8.28 1.9 13.89 6.14 17.43-4.24 3.55-6.14 9.15-6.14 17.44 0 4.36.16 8.27.31 12 .13 3.51.26 6.81.26 10.25a13.61 13.61 0 0 1 -.41 4.33 9.34 9.34 0 0 1 -2.07.16h-6.66v21.61h14.38c16.07 0 23.24-7.78 23.24-25.24a113.85 113.85 0 0 0 -.77-12.77 91.91 91.91 0 0 1 -.66-10.38c0-4.68 4.38-5.8 8.05-5.92l4.24-.13v-22.68l-4.24-.13c-3.67-.12-8.05-1.24-8.05-5.92a91.76 91.76 0 0 1 .66-10.38 114 114 0 0 0 .77-12.77c0-17.46-7.17-25.24-23.24-25.24z" fill="#32363b"/><path d="m133.16 150.94 2.18-.71c8.76-2.85 14.39-7.69 15.56-13.22-9.9-.65-15.07-8.15-15.07-15.57 0-8.91 7.33-15.62 17-15.62 11.74 0 18.48 8.92 18.48 24.48 0 18.24-10.9 31.72-29.9 37l-1.93.53zm19.15-55.33c-9.4 0-16.48-7.33-16.48-17s7.08-17.05 16.48-17.05 16.47 7.33 16.47 17.05-7.08 17-16.47 17z" fill="#fff"/><path d="m152.31 63.7c8.28 0 14.29 6.57 14.29 14.86s-6 14.87-14.29 14.87-14.31-6.58-14.31-14.87 6-14.86 14.3-14.86m.57 44.3c10.57 0 16.29 8.29 16.29 22.3 0 16.86-9.72 29.72-28.3 34.87l-4.86-12.86c11.44-3.72 17.3-10.44 17.3-17.44h-1c-7.44 0-14.3-4.86-14.3-13.43 0-8 6.58-13.44 14.87-13.44m-.57-48.68c-10.47 0-18.67 8.46-18.67 19.24s8.2 19.24 18.67 19.24 18.7-8.45 18.7-19.24-8.2-19.24-18.66-19.24zm.57 44.31c-11 0-19.24 7.65-19.24 17.81a17.54 17.54 0 0 0 14.37 17.36c-1.92 3.82-6.6 7.16-13.31 9.35l-4.36 1.41 1.62 4.29 4.86 12.86 1.41 3.74 3.85-1.06c20-5.55 31.5-19.8 31.5-39.09 0-16.7-7.72-26.67-20.66-26.67z" fill="#32363b"/></svg>