<?xml version="1.0" encoding="utf-8"?>
<!-- Generator: Adobe Illustrator 26.2.1, SVG Export Plug-In . SVG Version: 6.00 Build 0)  -->
<svg version="1.1" id="Layer_1" xmlns="http://www.w3.org/2000/svg" xmlns:xlink="http://www.w3.org/1999/xlink" x="0px" y="0px"
	 viewBox="0 0 36 36" style="enable-background:new 0 0 36 36;" xml:space="preserve">
<style type="text/css">
	.st0{fill:#32363B;}
	.st1{fill:#CCCCCC;}
</style>
<g>
	<path class="st0" d="M31.62,26.06V17.5H18.5V9.94h4.27V0.4h-9.53v9.53h4.27v7.56H4.38v8.56H0.12v9.53h9.53v-9.53H5.38V18.5H17.5
		v7.56h-4.27v9.53h9.53v-9.53H18.5V18.5h12.12v7.56h-4.27v9.53h9.53v-9.53H31.62z M14.23,8.94V1.4h7.53v7.53H18.5h-1H14.23z
		 M8.65,27.06v7.53H1.12v-7.53h3.27h1H8.65z M21.77,27.06v7.53h-7.53v-7.53h3.27h1H21.77z M34.88,34.6h-7.53v-7.53h3.27h1h3.27V34.6
		z"/>
	<polygon class="st1" points="14.23,8.94 14.23,1.4 21.77,1.4 21.77,8.94 18.5,8.94 17.5,8.94 	"/>
	<polygon class="st1" points="8.65,27.06 8.65,34.6 1.12,34.6 1.12,27.06 4.38,27.06 5.38,27.06 	"/>
	<polygon class="st1" points="21.77,27.06 21.77,34.6 14.23,34.6 14.23,27.06 17.5,27.06 18.5,27.06 	"/>
	<polygon class="st1" points="34.88,34.6 27.35,34.6 27.35,27.06 30.62,27.06 31.62,27.06 34.88,27.06 	"/>
</g>
</svg>
