<?xml version="1.0" encoding="utf-8"?>
<!-- Generator: Adobe Illustrator 24.2.1, SVG Export Plug-In . SVG Version: 6.00 Build 0)  -->
<svg version="1.1" id="Layer_1" xmlns="http://www.w3.org/2000/svg" xmlns:xlink="http://www.w3.org/1999/xlink" x="0px" y="0px"
	 viewBox="0 0 512 512" style="enable-background:new 0 0 512 512;" xml:space="preserve">
<style type="text/css">
	.st0{fill:#32363B;}
	.st1{fill:#00B050;}
</style>
<g>
	<path class="st0" d="M368.1,194c-27.6,0-50-22.4-50-50s22.4-50,50-50c27.5,0,49.9,22.4,50,50C418.1,171.6,395.7,194,368.1,194z"/>
	<g>
		<path class="st1" d="M132.2,266.5c-4-0.1-71.1-0.5-95-0.5H21l50.9-101.8c3.6-7,15.3-14.2,23.2-14.2h101.2l-7.1,14.4
			c-13.6,27.5-30.7,62-46.1,93l2,9.9L132.2,266.5z"/>
		<path class="st1" d="M246.1,475c0-23.9-0.4-91-0.5-95.1l-0.7-10.5h8.8c18-8.9,37.1-18.4,55.3-27.4c13.6-6.8,26.7-13.3,38.5-19.1
			l2.1-1h12.3l0.1,10v85.3c0,8-7.2,19.6-14.4,23.2l-101.5,50.8V475z"/>
		<path class="st1" d="M21.9,479.7l0-0.5c0.1-11.5,1.3-41.5,9.7-70.3c16.2-55.4,47.5-67,70.8-67c17.9,0,36.2,7.3,47.9,18.9
			c15.5,15.5,25.4,45.3,14.3,72.3c-7.4,18-23.3,32.1-47.3,42c-22.5,9.2-51.2,14.2-85.2,14.8l-10.5,0.2L21.9,479.7z"/>
		<path class="st1" d="M368.1,175.9c-17.7,0-31.9-14.2-31.9-31.9s14.2-31.9,31.9-31.9S400,126.3,400,144l0,0
			C399.8,161.7,385.6,175.9,368.1,175.9z"/>
		<path class="st0" d="M248,506c-9.9,0-17.9-8.1-17.9-18V384c0-56.2-45.8-102-102-102H24.2c-9.9,0-18-8-18-17.9
			c0.1-2.7,0.7-5.5,1.9-8.2l49.3-98.6C63.8,144.6,80.9,134,95,134h107.5l1.8-2.8c25.4-40,52.4-69.3,82.6-89.5
			C322.6,17.7,363.1,6,410.5,6c24.3,0,49.5,0,81,6.8c3.1,0.6,7.1,4.6,7.8,7.8c6.9,31.9,6.8,56.9,6.7,81.1
			c0,47.2-11.7,87.5-35.8,123.4c-20.2,30.2-49.5,57.2-89.5,82.7l-2.8,1.8v107.8c0,14-10.6,31.1-23.2,37.4l-98.6,49.3
			C253.5,505.3,250.7,505.9,248,506z M249.6,379.7c0.1,2.9,0.5,71,0.5,95.3v9.7l95.8-47.9c5.8-2.8,12.1-13,12.1-19.6v-91.3h-7.4
			l-1.3,0.6c-11.8,5.8-24.9,12.3-38.5,19.1c-18.5,9.2-37.9,18.8-56.2,27.8h-5.4L249.6,379.7z M410.5,26c-61.2,0-111,21.8-152.3,66.8
			c-36,39.2-60.8,90.1-84.9,139.4c-4.4,9-8.9,18.2-13.4,27.2l-3.2,6.3l6.8,2.1c38.6,11.8,68.8,42,80.6,80.6l2.1,6.8l6.3-3.2
			c8.7-4.4,17.8-8.8,26.6-13c97-47.3,206.9-100.8,206.9-237.3c0.1-20.2,0.2-41.1-4.2-66.5l-0.7-4.2l-4.2-0.7
			C452.3,26,432,26,410.5,26z M95.1,154c-6.4,0-16.7,6.3-19.6,12.1l-48,95.9h9.7c24,0,92.8,0.4,95.2,0.5l7.8,0.5l-1.3-6.2
			c15.6-31.4,33-66.5,46.7-94.2l4.3-8.7H95.1z"/>
		<path class="st0" d="M6,506v-20h0.1l0.1-5.9c0.8-54,11.7-94.9,32.5-121.7c20.8-26.8,46.1-32.4,63.7-32.4c22,0,44.7,9.1,59.1,23.6
			c23.3,23.4,30.8,57.6,18.9,86.9c-7.7,19.1-23.5,35.4-45.5,47.1c-26.3,13.9-61,21.4-103.1,22.2l-5.9,0.1v0.1H6z M102.4,346
			c-71.7,0-76.3,111-76.5,133.3l0,0.5l-0.2,6.3L32,486c33.5-0.6,61.7-5.5,83.7-14.5c22.9-9.4,38.1-22.8,45.1-39.8
			c10.3-25.1,0.8-53.7-13.4-67.9C136.7,353,119,346,102.4,346z"/>
	</g>
</g>
</svg>
