<?xml version="1.0" encoding="utf-8"?>
<!-- Generator: Adobe Illustrator 26.2.1, SVG Export Plug-In . SVG Version: 6.00 Build 0)  -->
<svg version="1.1" id="Layer_1" xmlns="http://www.w3.org/2000/svg" xmlns:xlink="http://www.w3.org/1999/xlink" x="0px" y="0px"
	 viewBox="0 0 36 36" style="enable-background:new 0 0 36 36;" xml:space="preserve">
<style type="text/css">
	.st0{fill:#32363B;}
	.st1{fill:#00B04F;}
</style>
<g>
	<g>
		<path class="st0" d="M27.74,9.46l-9.51-4.91c-0.14-0.07-0.31-0.07-0.46,0L8.26,9.46C8.25,9.47,8.25,9.48,8.24,9.49
			c-0.06,0.03-0.1,0.08-0.14,0.13C8.08,9.64,8.07,9.65,8.06,9.67C8.02,9.74,7.99,9.82,7.99,9.91v4.53c0,0.28,0.22,0.5,0.5,0.5
			s0.5-0.22,0.5-0.5v-3.71l2.92,1.51v4.56c0,0.19,0.11,0.36,0.27,0.45l5.59,2.84c0.07,0.04,0.15,0.05,0.23,0.05s0.16-0.02,0.23-0.05
			l5.59-2.84c0.17-0.09,0.27-0.26,0.27-0.45v-4.56l3.65-1.88c0.17-0.09,0.27-0.26,0.27-0.44S27.9,9.55,27.74,9.46z M23.09,16.48
			L18,19.07l-5.09-2.59v-3.73l4.86,2.51c0.07,0.04,0.15,0.06,0.23,0.06s0.16-0.02,0.23-0.06l4.86-2.51V16.48z M18,14.25L9.58,9.91
			L18,5.56l8.42,4.35L18,14.25z"/>
		<path class="st0" d="M18,26.5c0.7,0,1.26-0.56,1.26-1.26c0-0.7-0.56-1.26-1.26-1.26c-0.7,0-1.26,0.56-1.26,1.26
			C16.74,25.94,17.31,26.5,18,26.5z"/>
		<path class="st0" d="M31.53,1.36H4.47c-2.11,0-3.83,1.72-3.83,3.83v19.19c0,2.11,1.72,3.83,3.83,3.83h9.99
			c-0.14,2.98-1.48,5.41-3.05,5.41H9.57c-0.28,0-0.5,0.22-0.5,0.5s0.22,0.5,0.5,0.5h16.87c0.28,0,0.5-0.22,0.5-0.5
			s-0.22-0.5-0.5-0.5H24.6c-1.58,0-2.92-2.43-3.05-5.41h9.99c2.11,0,3.83-1.72,3.83-3.83V5.2C35.37,3.08,33.65,1.36,31.53,1.36z
			 M22.47,33.64h-8.95c1.09-1.12,1.83-3.09,1.93-5.41h5.1C20.64,30.55,21.38,32.51,22.47,33.64z M34.37,24.39
			c0,1.56-1.27,2.83-2.83,2.83H4.47c-1.56,0-2.83-1.27-2.83-2.83v-1.12h32.73V24.39z M34.37,22.27H1.63V5.2
			c0-1.56,1.27-2.83,2.83-2.83h27.07c1.56,0,2.83,1.27,2.83,2.83V22.27z"/>
	</g>
	<path class="st1" d="M23.09,16.48L18,19.07l-5.09-2.59v-3.73l4.86,2.51c0.07,0.04,0.15,0.06,0.23,0.06s0.16-0.02,0.23-0.06
		l4.86-2.51V16.48z"/>
	<polygon class="st1" points="18,14.25 9.58,9.91 18,5.56 26.42,9.91 	"/>
</g>
</svg>
