<?xml version="1.0" encoding="utf-8"?>
<!-- Generator: Adobe Illustrator 26.2.1, SVG Export Plug-In . SVG Version: 6.00 Build 0)  -->
<svg version="1.1" id="Layer_1" xmlns="http://www.w3.org/2000/svg" xmlns:xlink="http://www.w3.org/1999/xlink" x="0px" y="0px"
	 viewBox="0 0 36 36" style="enable-background:new 0 0 36 36;" xml:space="preserve">
<style type="text/css">
	.st0{fill:#32363B;}
	.st1{fill:none;}
	.st2{fill:#CCCCCC;}
	.st3{fill:#00B050;}
</style>
<g>
	<g>
		<path class="st0" d="M21.79,28.47H4.67c-0.28,0-0.5,0.22-0.5,0.5s0.22,0.5,0.5,0.5h17.12c0.28,0,0.5-0.22,0.5-0.5
			S22.07,28.47,21.79,28.47z"/>
		<path class="st0" d="M21.79,25.34H4.67c-0.28,0-0.5,0.22-0.5,0.5s0.22,0.5,0.5,0.5h17.12c0.28,0,0.5-0.22,0.5-0.5
			S22.07,25.34,21.79,25.34z"/>
		<path class="st0" d="M21.79,22.2H4.67c-0.28,0-0.5,0.22-0.5,0.5s0.22,0.5,0.5,0.5h17.12c0.28,0,0.5-0.22,0.5-0.5
			S22.07,22.2,21.79,22.2z"/>
	</g>
	<g>
		<path class="st1" d="M21.79,25.34H4.67c-0.28,0-0.5,0.22-0.5,0.5s0.22,0.5,0.5,0.5h17.12c0.28,0,0.5-0.22,0.5-0.5
			S22.07,25.34,21.79,25.34z"/>
		<path class="st1" d="M21.79,22.2H4.67c-0.28,0-0.5,0.22-0.5,0.5s0.22,0.5,0.5,0.5h17.12c0.28,0,0.5-0.22,0.5-0.5
			S22.07,22.2,21.79,22.2z"/>
		<path class="st1" d="M21.79,28.47H4.67c-0.28,0-0.5,0.22-0.5,0.5s0.22,0.5,0.5,0.5h17.12c0.28,0,0.5-0.22,0.5-0.5
			S22.07,28.47,21.79,28.47z"/>
		<path class="st1" d="M25.42,18.94l-0.06-0.06c-0.18,0.22-0.37,0.43-0.57,0.63c-0.12,0.12-0.24,0.22-0.37,0.33
			c-0.09,0.08-0.17,0.17-0.27,0.24l0.27,0.27l1,1l6.92,6.92l1.2-1.2L25.42,18.94z"/>
		<path class="st1" d="M18.78,21.99c-1.99,0-3.87-0.68-5.38-1.92H4.67c-0.28,0-0.5-0.22-0.5-0.5s0.22-0.5,0.5-0.5h7.72
			c-0.57-0.65-1.02-1.38-1.35-2.13H4.67c-0.28,0-0.5-0.22-0.5-0.5s0.22-0.5,0.5-0.5h6c-0.21-0.7-0.33-1.41-0.35-2.14H4.67
			c-0.28,0-0.5-0.22-0.5-0.5s0.22-0.5,0.5-0.5h5.67c0.06-0.72,0.21-1.44,0.46-2.13H4.67c-0.28,0-0.5-0.22-0.5-0.5s0.22-0.5,0.5-0.5
			h6.55c0.39-0.77,0.9-1.49,1.53-2.13H4.67c-0.28,0-0.5-0.22-0.5-0.5s0.22-0.5,0.5-0.5h9.28c3.17-2.2,7.52-1.99,10.47,0.64V3.91
			H2.04v28.19h22.38V21.76l-1.09-1.09C21.98,21.53,20.42,21.99,18.78,21.99z M21.79,29.47H4.67c-0.28,0-0.5-0.22-0.5-0.5
			s0.22-0.5,0.5-0.5h17.12c0.28,0,0.5,0.22,0.5,0.5S22.07,29.47,21.79,29.47z M21.79,26.34H4.67c-0.28,0-0.5-0.22-0.5-0.5
			s0.22-0.5,0.5-0.5h17.12c0.28,0,0.5,0.22,0.5,0.5S22.07,26.34,21.79,26.34z M21.79,23.2H4.67c-0.28,0-0.5-0.22-0.5-0.5
			s0.22-0.5,0.5-0.5h17.12c0.28,0,0.5,0.22,0.5,0.5S22.07,23.2,21.79,23.2z"/>
		<path class="st2" d="M25.92,15.73C25.92,15.73,25.92,15.73,25.92,15.73C25.92,15.73,25.92,15.73,25.92,15.73z"/>
		<path class="st2" d="M25.42,16.93c0.01-0.01,0.01-0.03,0.02-0.04c-0.03,0.06-0.06,0.12-0.09,0.18
			C25.37,17.02,25.4,16.98,25.42,16.93z"/>
		<path class="st3" d="M24.08,8.21c-0.55-0.55-1.17-1-1.82-1.34c-0.25-0.13-0.5-0.24-0.75-0.34c-0.87-0.34-1.8-0.51-2.72-0.51
			c-0.92,0-1.85,0.17-2.72,0.51c-0.63,0.24-1.23,0.58-1.78,1c-0.27,0.21-0.54,0.43-0.79,0.68c-0.45,0.45-0.83,0.95-1.14,1.48
			c-0.19,0.32-0.36,0.64-0.49,0.98c-0.28,0.69-0.45,1.41-0.52,2.13c-0.03,0.33-0.03,0.67-0.02,1c0.03,0.72,0.16,1.44,0.4,2.14
			c0.11,0.34,0.25,0.67,0.41,0.98c0.35,0.68,0.8,1.31,1.37,1.88c0.1,0.1,0.2,0.18,0.3,0.27c0.43,0.39,0.9,0.73,1.4,1
			c1.09,0.6,2.32,0.92,3.6,0.92c0.31,0,0.62-0.03,0.92-0.06c0.07-0.01,0.14-0.02,0.21-0.03c0.27-0.04,0.53-0.09,0.8-0.16
			c0.03-0.01,0.06-0.01,0.09-0.02c1.23-0.34,2.35-0.99,3.28-1.91c0.45-0.45,0.81-0.96,1.13-1.49c0.05-0.08,0.1-0.16,0.14-0.24
			c0.03-0.06,0.06-0.12,0.09-0.18c0.19-0.37,0.35-0.76,0.48-1.15c0,0,0,0,0,0c0.13-0.41,0.23-0.83,0.29-1.27
			c0-0.03,0.01-0.06,0.01-0.1c0.03-0.29,0.05-0.58,0.05-0.87c0-0.28-0.02-0.56-0.05-0.84c-0.01-0.08-0.02-0.16-0.04-0.24
			c-0.03-0.2-0.06-0.4-0.11-0.6c-0.02-0.08-0.04-0.16-0.06-0.25c-0.05-0.2-0.12-0.4-0.19-0.6c-0.02-0.06-0.04-0.13-0.07-0.19
			c-0.09-0.24-0.22-0.46-0.34-0.69c-0.06-0.12-0.11-0.25-0.18-0.36c-0.04-0.07-0.08-0.13-0.12-0.2c-0.21-0.33-0.44-0.66-0.7-0.96
			c0,0,0,0,0,0C24.31,8.45,24.2,8.33,24.08,8.21z M24.42,16.92c-0.27,0.44-0.59,0.86-0.97,1.25c-0.41,0.41-0.86,0.74-1.34,1.02
			c-0.83,0.49-1.75,0.78-2.68,0.87c-0.22,0.02-0.43,0.03-0.65,0.03c-0.22,0-0.43-0.01-0.65-0.03c-1.01-0.1-2.01-0.43-2.89-1
			c-0.4-0.25-0.78-0.55-1.13-0.9c-2.57-2.57-2.57-6.76,0-9.33c0.56-0.56,1.2-0.99,1.88-1.31c1.76-0.82,3.81-0.82,5.58,0
			c0.68,0.32,1.32,0.75,1.88,1.31c0.38,0.38,0.7,0.8,0.97,1.25C25.69,12.18,25.69,14.83,24.42,16.92z"/>
		<path class="st0" d="M25.95,18.05c0.86-1.35,1.33-2.91,1.33-4.55c0-1.95-0.65-3.79-1.85-5.29V2.91H1.04v30.19h24.38V22.76
			l6.92,6.92l2.62-2.62L25.95,18.05z M25.12,9.54c0.04,0.06,0.08,0.13,0.12,0.2c0.06,0.1,0.13,0.19,0.18,0.3
			c0.13,0.24,0.24,0.5,0.34,0.75c0.02,0.06,0.05,0.13,0.07,0.19c0.07,0.2,0.13,0.4,0.19,0.6c0.02,0.08,0.04,0.16,0.06,0.25
			c0.05,0.2,0.08,0.4,0.11,0.6c0.01,0.08,0.03,0.16,0.04,0.24c0.03,0.28,0.05,0.56,0.05,0.84c0,0.29-0.02,0.58-0.05,0.87
			c0,0.03-0.01,0.06-0.01,0.1c-0.06,0.43-0.15,0.86-0.29,1.27c0,0,0,0,0,0c-0.13,0.4-0.29,0.78-0.48,1.15
			c-0.01,0.01-0.01,0.03-0.02,0.04c-0.02,0.05-0.05,0.09-0.07,0.14c-0.04,0.08-0.08,0.17-0.13,0.25l-0.01-0.01
			c-0.32,0.53-0.68,1.04-1.13,1.49c-0.92,0.92-2.05,1.57-3.28,1.91c-0.03,0.01-0.06,0.01-0.09,0.02c-0.26,0.07-0.53,0.12-0.8,0.16
			c-0.07,0.01-0.14,0.02-0.21,0.03c-0.3,0.04-0.61,0.06-0.92,0.06c-1.28,0-2.51-0.32-3.6-0.92c-0.5-0.27-0.96-0.61-1.4-1
			c-0.1-0.09-0.2-0.17-0.3-0.27c-0.57-0.57-1.02-1.2-1.37-1.88c-0.16-0.32-0.3-0.65-0.41-0.98c-0.24-0.69-0.37-1.41-0.4-2.14
			c-0.01-0.33-0.01-0.67,0.02-1c0.07-0.73,0.24-1.45,0.52-2.13c0.14-0.34,0.31-0.66,0.49-0.98c0.31-0.53,0.69-1.03,1.14-1.48
			c0.25-0.25,0.52-0.47,0.79-0.68c0.56-0.42,1.16-0.76,1.78-1c0.87-0.34,1.8-0.51,2.72-0.51c0.92,0,1.85,0.17,2.72,0.51
			c0.26,0.1,0.51,0.21,0.75,0.34c0.66,0.34,1.27,0.79,1.82,1.34c0.12,0.12,0.23,0.25,0.34,0.38c0,0,0,0,0,0
			C24.69,8.88,24.91,9.21,25.12,9.54z M24.42,32.09H2.04V3.91h22.38v3.26c-2.95-2.63-7.3-2.84-10.47-0.64H4.67
			c-0.28,0-0.5,0.22-0.5,0.5s0.22,0.5,0.5,0.5h8.09c-0.64,0.64-1.14,1.37-1.53,2.13H4.67c-0.28,0-0.5,0.22-0.5,0.5s0.22,0.5,0.5,0.5
			h6.13c-0.24,0.69-0.4,1.41-0.46,2.13H4.67c-0.28,0-0.5,0.22-0.5,0.5s0.22,0.5,0.5,0.5h5.65c0.03,0.72,0.14,1.44,0.35,2.14h-6
			c-0.28,0-0.5,0.22-0.5,0.5s0.22,0.5,0.5,0.5h6.36c0.34,0.76,0.78,1.48,1.35,2.13H4.67c-0.28,0-0.5,0.22-0.5,0.5s0.22,0.5,0.5,0.5
			h8.73c1.51,1.25,3.4,1.92,5.38,1.92c1.64,0,3.2-0.47,4.55-1.33l1.09,1.09V32.09z M25.42,21.34l-1-1l-0.27-0.27
			c0.09-0.08,0.18-0.16,0.27-0.24c0.12-0.11,0.25-0.21,0.37-0.33c0.2-0.2,0.39-0.41,0.57-0.63l0.06,0.06l8.13,8.13l-1.2,1.2
			L25.42,21.34z"/>
		<path class="st0" d="M25.76,10.78c-0.1-0.26-0.21-0.51-0.34-0.75v0.07C25.54,10.32,25.67,10.54,25.76,10.78z"/>
		<path class="st0" d="M25.42,10.03c-0.05-0.1-0.12-0.2-0.18-0.3c0.07,0.12,0.12,0.24,0.18,0.36V10.03z"/>
		<path class="st0" d="M26.21,14.47c-0.06,0.43-0.16,0.86-0.29,1.27C26.05,15.32,26.15,14.9,26.21,14.47z"/>
		<path class="st0" d="M25.92,15.73c-0.13,0.4-0.29,0.78-0.48,1.15C25.63,16.51,25.79,16.13,25.92,15.73z"/>
		<path class="st0" d="M25.22,17.32c0.05-0.08,0.09-0.17,0.13-0.25c-0.04,0.08-0.09,0.16-0.14,0.24L25.22,17.32z"/>
		<path class="st0" d="M24.42,10.08c-0.27-0.44-0.59-0.86-0.97-1.25c-0.56-0.56-1.2-0.99-1.88-1.31c-1.76-0.82-3.81-0.82-5.58,0
			c-0.68,0.32-1.32,0.75-1.88,1.31c-2.57,2.57-2.57,6.76,0,9.33c0.35,0.35,0.73,0.64,1.13,0.9c0.89,0.57,1.88,0.9,2.89,1
			c0.22,0.02,0.43,0.03,0.65,0.03c0.22,0,0.43-0.01,0.65-0.03c0.93-0.09,1.85-0.39,2.68-0.87c0.48-0.28,0.93-0.62,1.34-1.02
			c0.38-0.38,0.7-0.8,0.97-1.25C25.69,14.83,25.69,12.18,24.42,10.08z M22.75,17.46c-1.01,1-2.3,1.52-3.62,1.6h-0.68
			c-1.19-0.07-2.34-0.52-3.3-1.34h6.65c0.28,0,0.5-0.22,0.5-0.5s-0.22-0.5-0.5-0.5h-7.57c-0.46-0.65-0.78-1.38-0.93-2.13h8.5
			c0.28,0,0.5-0.22,0.5-0.5s-0.22-0.5-0.5-0.5h-8.6c-0.01-0.73,0.12-1.45,0.38-2.14h8.21c0.28,0,0.5-0.22,0.5-0.5s-0.22-0.5-0.5-0.5
			h-7.7c0.21-0.32,0.45-0.63,0.73-0.91c1.09-1.09,2.53-1.64,3.96-1.64c1.43,0,2.87,0.55,3.96,1.64
			C24.93,11.73,24.93,15.28,22.75,17.46z"/>
	</g>
	<path class="st3" d="M25.42,21.34l-1-1l-0.27-0.27c0.09-0.08,0.18-0.16,0.27-0.24c0.12-0.11,0.25-0.21,0.37-0.33
		c0.2-0.2,0.39-0.41,0.57-0.63l0.06,0.06l8.13,8.13l-1.2,1.2L25.42,21.34z"/>
</g>
</svg>
