<svg viewBox="0 0 200 200" xmlns="http://www.w3.org/2000/svg"><path d="m160.33 114.67h-8.16v-14.67a44.07 44.07 0 0 0 -44-44h-15.17a24.46 24.46 0 1 0 -46 15.5 64.25 64.25 0 0 0 -15 19.2 62.88 62.88 0 0 0 -7 28.86 4.89 4.89 0 0 0 4.89 4.89h130.44a4.89 4.89 0 0 1 0 9.78h-48.92a14.68 14.68 0 0 0 0 29.35h26.09a4.89 4.89 0 1 0 0-9.78h-26.09a4.89 4.89 0 0 1 0-9.78h48.92a14.68 14.68 0 0 0 0-29.35zm-17.94 0h-28.51a14.69 14.69 0 0 1 13.84-9.78 4.9 4.9 0 0 0 0-9.79 24.51 24.51 0 0 0 -24 19.57h-29a14.69 14.69 0 0 1 13.84-9.78 4.9 4.9 0 0 0 0-9.79 24.51 24.51 0 0 0 -24 19.57h-29.56a53.37 53.37 0 0 1 21.3-38.16 4.88 4.88 0 0 0 1-6.85 14.68 14.68 0 1 1 22.1 1.58 4.89 4.89 0 0 0 6.92 6.92 24.32 24.32 0 0 0 6.68-12.41h15.17a34.28 34.28 0 0 1 34.22 34.25v14.68z" fill="#32363b"/><circle cx="54.35" cy="99.99" fill="currentColor" r="4.89"/></svg>