<svg viewBox="0 0 200 200" xmlns="http://www.w3.org/2000/svg"><g fill="currentColor" stroke="#32363b" stroke-linecap="round" stroke-linejoin="round" stroke-width="4.37"><path d="m88 144.63a46.17 46.17 0 0 1 -33.61-51.87l-21.06-5.65c-.52 1.83-1 3.54-1.51 5l-6.2 19.12c-1.71 5.25.25 12.56 4.35 16.25l14.93 13.45c2.05 1.84 4.67 4.36 7.23 6.93s5.08 5.18 6.93 7.23l13.46 14.91c3.69 4.09 11 6.05 16.25 4.35l19.12-6.2c1.45-.47 3.15-1 5-1.51l-5.64-21a46 46 0 0 1 -19.25-1.01z"/><path d="m163 127.25c.58-2.69 1.45-6.22 2.39-9.72s2-7 2.8-9.62l6.21-19.12c1.7-5.25-.26-12.56-4.36-16.25l-14.94-13.47c-1.13-1-2.43-2.23-3.8-3.55l-15.42 15.42a46.09 46.09 0 0 1 8.75 41 46.1 46.1 0 0 1 -28.1 31.15l5.64 21.07c1.85-.46 3.58-.86 5.07-1.18l19.67-4.19c5.39-1.15 10.74-6.5 11.89-11.89z"/><path d="m88.05 55.38a46.05 46.05 0 0 1 41 8.74l15.45-15.41c-1.32-1.37-2.54-2.67-3.56-3.8l-13.46-14.91c-3.69-4.09-11-6-16.25-4.35l-19.12 6.2c-2.63.85-6.11 1.86-9.62 2.8s-7 1.81-9.73 2.38l-19.66 4.16c-5.4 1.15-10.75 6.5-11.9 11.89l-4.2 19.67c-.32 1.48-.72 3.22-1.18 5.07l21.06 5.64a46.14 46.14 0 0 1 31.17-28.08z"/></g></svg>