<svg viewBox="0 0 50.2 50.2" xmlns="http://www.w3.org/2000/svg"><path d="m48.5 24.6-2-1.2c-.1-.2-.1-.4-.1-.6l1.7-1.6c.2-.1.2-.4.2-.6s-.2-.4-.4-.5l-2.2-.8c-.1-.2-.1-.4-.2-.6l1.4-1.9c.2-.2.2-.5.1-.7s-.3-.4-.5-.4l-2.3-.4c-.1-.2-.2-.3-.3-.5l1-2.1c.1-.3 0-.5-.1-.7-.2-.2-.4-.3-.6-.3l-2.3.1c-.2-.1-.3-.3-.4-.4l.5-2.3c0-.3-.1-.5-.1-.6-.1-.1-.3-.2-.5-.2h-.2l-2.3.5c-.1-.2-.2-.3-.4-.4l.1-2.3c0-.2-.1-.5-.3-.6-.1-.1-.3-.1-.4-.1s-.2.1-.3.1l-2.1 1c-.2-.1-.3-.2-.5-.3l-.4-2.3c0-.2-.2-.4-.4-.5-.1-.1-.2-.1-.3-.1s-.3 0-.4.1l-1.9 1.4c-.2-.1-.4-.1-.6-.2l-.8-2.2c-.1-.2-.3-.4-.5-.4h-.1c-.2 0-.4.1-.5.2l-1.6 1.7c-.2-.1-.4-.1-.6-.1l-1.2-2c-.1-.2-.4-.3-.6-.3s-.5.1-.6.3l-1.2 2c-.2.1-.4.1-.6.1l-1.6-1.7c-.1-.1-.3-.2-.5-.2h-.1c-.2 0-.4.2-.5.4l-.7 2.2c-.2.1-.4.1-.6.2l-1.9-1.4c-.1-.1-.3-.1-.4-.1s-.2.1-.3.1c-.2.1-.4.3-.4.5l-.4 2.3c-.2.1-.3.2-.5.3l-2.1-1c-.1-.1-.2-.1-.3-.1-.2 0-.3 0-.4.1-.2.1-.3.4-.3.6l.1 2.3c-.1.2-.3.3-.4.4l-2.3-.5h-.2c-.2 0-.4.1-.5.2-.2.1-.3.4-.2.6l.6 2.2c-.2.1-.3.2-.4.4l-2.3-.1c-.3 0-.5.1-.6.3-.2.2-.2.5-.1.7l1 2.1c-.1.2-.2.3-.3.5l-2.3.4c-.2 0-.4.2-.5.4-.1.3 0 .5.1.7l1.4 1.9c-.1.2-.1.4-.2.6l-2.2.8c-.2.1-.4.3-.4.5-.1.2 0 .5.2.6l1.7 1.6c-.1.2-.1.4-.1.6l-2 1.2c-.2.1-.3.4-.3.6 0 .3.1.5.3.6l2 1.2c.1.2.1.4.1.6l-1.7 1.6c-.2.1-.2.4-.2.6s.2.4.3.5l2.2.8c.1.2.1.4.2.6l-1.4 1.9c-.2.2-.2.5-.1.7s.3.4.5.4l2.3.4c.1.2.2.3.3.5l-1 2.1c-.1.3 0 .5.1.7.2.2.4.3.6.3l2.3-.1c.2.1.3.3.4.4l-.5 2.3c0 .2 0 .4.2.6.1.1.3.2.5.2h.2l2.2-.6c.1.2.2.3.4.4l-.1 2.3c0 .2.1.5.3.6.1.1.3.1.4.1s.2-.1.3-.1l2.1-1c.2.1.3.2.5.3l.4 2.3c0 .2.2.4.4.5.1.1.2.1.3.1s.3 0 .4-.1l1.9-1.4c.2.1.4.1.6.2l.8 2.2c.1.2.3.4.5.4h.1c.2 0 .4-.1.5-.2l1.6-1.6c.2.1.4.1.6.1l1.2 2c.1.2.4.3.6.3.3 0 .5-.1.6-.3l1.2-2c.2-.1.4-.1.6-.1l1.6 1.7c.1.1.3.2.5.2h.1c.2 0 .4-.2.5-.4l.8-2.2c.2-.1.4-.1.6-.2l1.9 1.4c.1.1.3.1.4.1s.1-.1.1-.1c.2-.1.4-.3.4-.5l.4-2.3c.2-.1.3-.2.5-.3l2.1 1c.1.1.2.1.3.1.2 0 .3 0 .4-.1.2-.1.3-.4.3-.6l-.1-2.3c.1-.2.3-.3.4-.4l2.3.5h.2c.2 0 .4-.1.5-.2.2-.1.3-.4.2-.6l-.5-2.3c.2-.1.3-.2.4-.4l2.3.1c.3 0 .5-.1.6-.3.2-.2.2-.5.1-.7l-1-2.1c.1-.2.2-.3.3-.5l2.3-.4c.2 0 .4-.2.5-.4.1-.3 0-.5-.1-.7l-1.4-1.9c.1-.2.1-.4.2-.6l2.3-.7c.2-.1.4-.3.4-.5.1-.2 0-.4-.2-.6l-1.7-1.6c.1-.2.1-.4.1-.6l2-1.2c.2-.1.3-.4.3-.6 0-.3-.1-.5-.3-.6zm-36.6 3.5h-2.3c-.2-1-.3-2.1-.3-3.1v-.9l2.2-1c.1-.1.2-.1.4-.2zm15-7.8c.1 0 .3.1.5.1-.2.1-.5.1-.8.1h-3.9v-.2zm-4.1 7.9h2.9c.4 0 .9.2 1.2 1-.3-.5-.8-.8-1.5-.8h-2.6zm-6.6-16.2c1.6-1.2 3.3-2 5.2-2.4l1.6 1.7c.3.3.6.5 1 .7zm15.2 25.1-.5 2.5c-1.8.7-3.8 1.1-5.8 1.1-2.1 0-4.1-.4-6-1.2l-.5-2.5c0-.1-.1-.2-.1-.3h6.8c1.2 0 1.8-.8 1.8-1.7v-4.9c0 .1.1.3.1.5.2 1.2.4 2.1.6 2.7.4 1.1 1.7 3.3 3.7 3.4 0 .1-.1.3-.1.4zm3.7-23.8c-1.8-1.2-3.7-1.5-4.5-1.5h-4.4c-.1 0-.1.1-.2.1v-.1h.2c.2-.1.5-.3.7-.5l1.8-1.8c4 .9 7.5 3.4 9.7 6.9l-.3.6c-.6-1.9-2.1-3.1-3-3.7zm5.7 11.4h-.3c-1 0-1.7.8-1.7 1.8v.8c0 .9-.2.9-.7.9h-.1c-.1 0-.3 0-.4-.1-.4-1.9-1.1-3-1.8-3.9.7-.6 1.2-1.2 1.6-1.8.3.3.6.6 1 .8l2.4 1z" fill="currentColor" class="u-fill-current-color"/><path d="m25.1 1.5c.2 0 .5.1.6.3l1.2 2c.2 0 .4 0 .6.1l1.6-1.7c.1-.1.3-.2.5-.2h.1c.2 0 .4.2.5.4l.8 2.2c.2.1.4.1.6.2l1.9-1.4c.1-.1.3-.1.4-.1s.2 0 .3.1c.2.1.4.3.4.5l.4 2.3c.2.1.3.2.5.3l2.1-1c.1 0 .2-.1.3-.1s.3 0 .4.1c.2.1.3.4.3.6l-.1 2.3c.2.1.3.2.4.4l2.3-.5h.2c.2 0 .4.1.5.2 0 .1.1.3.1.6l-.5 2.3c.1.1.2.3.4.4l2.3-.1c.2 0 .4.1.6.3.1.2.2.4.1.7l-1 2.1c.1.2.2.3.3.5l2.3.4c.2 0 .4.2.5.4s.1.5-.1.7l-1.4 1.9c.1.2.1.4.2.6l2.2.8c.2.1.4.3.4.5s0 .5-.2.6l-1.7 1.6c0 .2 0 .4.1.6l2 1.2c.2.1.3.3.3.6 0 .2-.1.5-.3.6l-2 1.2c0 .2 0 .4-.1.6l1.7 1.6c.2.2.3.4.2.6 0 .2-.2.4-.4.5l-2.3.7c-.1.2-.1.4-.2.6l1.4 1.9c.1.2.2.4.1.7-.1.2-.3.4-.5.4l-2.3.4c-.1.2-.2.3-.3.5l1 2.1c.1.2.1.5-.1.7-.1.2-.3.3-.6.3l-2.3-.1c-.1.2-.2.3-.4.4l.5 2.3c.1.2 0 .5-.2.6-.1.1-.3.2-.5.2-.1 0-.1 0-.2 0l-2.3-.5c-.1.1-.3.2-.4.4l.1 2.3c0 .2-.1.5-.3.6-.1.1-.2.1-.4.1-.1 0-.2 0-.3-.1l-2.1-1c-.2.1-.3.2-.5.3l-.4 2.3c0 .2-.2.4-.4.5 0 0 0 .1-.1.1s-.3 0-.4-.1l-1.9-1.4c-.2.1-.4.1-.6.2l-.8 2.2c-.1.2-.3.4-.5.4h-.1c-.2 0-.4-.1-.5-.2l-1.6-1.7c-.2 0-.4 0-.6.1l-1.2 2c-.1.2-.3.3-.6.3-.2 0-.5-.1-.6-.3l-1.2-2c-.2 0-.4 0-.6-.1l-1.6 1.6c-.1.1-.3.2-.5.2h-.1c-.2 0-.4-.2-.5-.4l-.8-2.2c-.2-.1-.4-.1-.6-.2l-1.9 1.4c-.1.1-.3.1-.4.1s-.2 0-.3-.1c-.2-.1-.4-.3-.4-.5l-.4-2.3c-.2-.1-.3-.2-.5-.3l-2.1 1c-.1 0-.2.1-.3.1s-.3 0-.4-.1c-.2-.1-.3-.4-.3-.6l.1-2.3c-.2-.1-.3-.2-.4-.4l-2.2.6c-.1 0-.1 0-.2 0-.2 0-.4-.1-.5-.2-.2-.2-.2-.4-.2-.6l.5-2.3c-.1-.1-.2-.3-.4-.4l-2.3.1c-.2 0-.4-.1-.6-.3-.1-.2-.2-.4-.1-.7l1-2.1c-.1-.2-.2-.3-.3-.5l-2.3-.4c-.2 0-.4-.2-.5-.4s-.1-.5.1-.7l1.4-1.9c-.1-.2-.1-.4-.2-.6l-2.2-.8c-.1-.1-.3-.3-.3-.5s0-.5.2-.6l1.7-1.6c0-.2 0-.4-.1-.6l-2-1.2c-.2-.1-.3-.3-.3-.6 0-.2.1-.5.3-.6l2-1.2c0-.2 0-.4.1-.6l-1.7-1.6c-.2-.1-.3-.4-.2-.6 0-.2.2-.4.4-.5l2.2-.8c.1-.2.1-.4.2-.6l-1.4-1.9c-.1-.2-.2-.4-.1-.7.1-.2.3-.4.5-.4l2.3-.4c.1-.2.2-.3.3-.5l-1-2.1c-.1-.2-.1-.5.1-.7.1-.2.3-.3.6-.3l2.3.1c.1-.2.2-.3.4-.4l-.6-2.2c-.1-.2 0-.5.2-.6.1-.1.3-.2.5-.2h.2l2.3.5c.1-.1.3-.2.4-.4l-.1-2.3c0-.2.1-.5.3-.6.1-.1.2-.1.4-.1.1 0 .2 0 .3.1l2.1 1c.2-.1.3-.2.5-.3l.4-2.3c0-.2.2-.4.4-.5.1 0 .2-.1.3-.1s.3 0 .4.1l1.9 1.4c.2-.1.4-.1.6-.2l.7-2.2c.1-.2.3-.4.5-.4h.1c.2 0 .4.1.5.2l1.6 1.7c.2 0 .4 0 .6-.1l1.2-2c.1-.2.4-.3.6-.3m-1.1 4.6c-.6.5-.6 1.4 0 2 .3.3.6.4 1 .4.3 0 .7-.1 1-.4.6-.5.6-1.4 0-2-.3-.3-.6-.4-1-.4s-.7.1-1 .4m.9 4.5c-.3 0-.7-.1-.9-.4l-2.2-2.2c-3.8.7-7.2 2.7-9.7 5.5h18.3c.5 0 2.2.2 3.7 1.2 1.1.7 2.7 2.2 2.7 4.6 0 2.2-1.8 3.8-3.5 4.9 1.4 1.1 2.3 1.7 2.8 4.7.1.5.9.9 1.8.9h.2c.9-.1 2-.5 2-2.4v-.8c0-.2.1-.3.2-.3h1.8c0-.4 0-.8 0-1.3 0-.6 0-1.2-.1-1.7l-3-1.5c-.6-.3-.9-1-.6-1.7l1.7-3.7c-2.5-4.3-6.8-7.5-11.8-8.4l-2.4 2.3c-.3.2-.7.3-1 .3m-16.6 10.6c.2 0 .4 0 .6-.1.7-.3 1-1.1.7-1.9-.2-.5-.7-.8-1.3-.8-.2 0-.4 0-.6.1-.7.3-1 1.1-.7 1.9.2.5.7.8 1.3.8m33.4.1c.5 0 1-.3 1.3-.8.3-.7 0-1.5-.7-1.9-.2-.1-.4-.1-.6-.1-.5 0-1 .3-1.3.8-.3.7 0 1.5.7 1.9.2 0 .4.1.6.1m-33.8 1.8c-.1.6-.1 1.2-.1 1.8 0 1.6.2 3.2.7 4.7h4.9v-11h-2.4l.6 1.4c.3.6 0 1.4-.6 1.7zm13.2-1h5.4c1.2 0 2.5-.4 2.5-1.5 0-1.4-1.8-1.7-2.1-1.7h-5.8zm.1 7.8h4.1c.2 0 .3 0 .3.2v5c0 .1-.1.2-.3.2h-14.1l1.5 1.8 2.9-.6h.3c.6 0 1.1.4 1.2 1l.7 3.3c2.2 1 4.7 1.6 7.3 1.6 2.5 0 5-.6 7.1-1.5l.7-3.3c.1-.6.7-1 1.2-1h.3l3 .6c.6-.6 1.1-1.2 1.6-1.9-.1 0-.2 0-.3 0h-7c-1.2 0-2.2-1.6-2.5-2.4-.3-.7-.7-3-.8-3.7-.6-2.3-2.3-2.4-2.7-2.4h-4.5zm-6.6 11h.3c.8-.2 1.2-.9 1.1-1.7-.1-.7-.7-1.1-1.4-1.1-.1 0-.2 0-.3 0-.8.2-1.2.9-1.1 1.7.2.7.8 1.1 1.4 1.1m20.5.1h.3c.6 0 1.2-.5 1.4-1.1.2-.8-.3-1.5-1.1-1.7-.1 0-.2 0-.3 0-.6 0-1.2.5-1.4 1.1-.1.8.3 1.5 1.1 1.7m-10-41c-.8 0-1.5.4-1.9 1l-.4.7-.6-.6c-.4-.4-1-.7-1.6-.7-.1 0-.3 0-.4 0-.8.2-1.4.7-1.6 1.4l-.3.8-.7-.5c-.4-.3-.8-.4-1.3-.4-.3 0-.6.1-.8.2-.7.3-1.2.9-1.3 1.7l-.2.8-.8-.3c-.3-.1-.6-.2-.9-.2-.4 0-.8.1-1.2.4-.6.4-1 1.1-1 1.9v.8l-.7-.2c-.2 0-.3-.1-.5-.1-.6 0-1.1.2-1.5.6-.5.5-.8 1.3-.6 2l.2.9h-.8c-.7 0-1.4.4-1.8 1s-.5 1.4-.2 2.1l.2.7-.8.1c-.7.1-1.4.6-1.7 1.3s-.2 1.5.3 2.1l.5.7-.8.3c-.7.3-1.2.9-1.4 1.6-.1.7.1 1.5.6 2l.6.6-.7.5c-.6.4-1 1.1-1 1.9s.4 1.5 1 1.9l.7.4-.6.6c-.6.5-.8 1.3-.7 2s.7 1.4 1.4 1.6l.8.3-.5.7c-.4.6-.5 1.4-.2 2.1s.9 1.2 1.7 1.3l.8.1-.3.8c-.3.7-.3 1.5.2 2.1.4.6 1.1 1 1.8 1h.1.8l-.2.8c-.2.7 0 1.5.6 2 .4.4 1 .6 1.5.6.2 0 .3 0 .5-.1l.8-.2v.8c0 .7.3 1.5 1 1.9.4.2.8.4 1.2.4.3 0 .6-.1.9-.2l.8-.4.1.8c.1.7.6 1.4 1.3 1.7.3.1.6.2.8.2.5 0 .9-.1 1.3-.4l.7-.5.3.8c.3.7.9 1.2 1.6 1.4h.4c.6 0 1.2-.3 1.6-.7l.6-.6.4.7c.4.6 1.1 1 1.9 1s1.4-.4 1.9-1l.5-.7.6.6c.4.4 1 .7 1.6.7h.4c.7-.1 1.4-.7 1.6-1.4l.3-.8.7.5c.4.3.8.4 1.3.4.3 0 .6-.1.8-.2.7-.3 1.2-.9 1.3-1.7l.1-.8.8.3c.3.1.6.2.9.2.4 0 .8-.1 1.2-.4.6-.4 1-1.1 1-1.9v-.8l.8.2c.2 0 .3.1.5.1.6 0 1.1-.2 1.5-.6.5-.5.8-1.3.6-2l-.3-.7h.8.1c.7 0 1.4-.4 1.8-1s.5-1.4.2-2.1l-.3-.8.8-.1c.7-.1 1.4-.6 1.7-1.3s.2-1.5-.3-2.1l-.5-.7.8-.3c.7-.3 1.2-.9 1.4-1.6.1-.7-.1-1.5-.7-2l-.6-.6.7-.4c.6-.4 1-1.1 1-1.9s-.4-1.4-1-1.9l-.3-.2-.4-.2.6-.6c.6-.5.8-1.3.7-2s-.7-1.4-1.4-1.6l-.8-.3.5-.7c.4-.6.5-1.4.2-2.1s-.9-1.2-1.7-1.3l-.7-.2.4-.8c.3-.7.3-1.5-.2-2.1-.4-.6-1.1-1-1.8-1h-.1-.8l.2-.8c.2-.7-.1-1.5-.6-2-.4-.4-1-.6-1.5-.6-.2 0-.3 0-.5.1l-.9.2v-.8c0-.7-.3-1.5-1-1.9-.4-.2-.8-.4-1.2-.4-.3 0-.6.1-.9.2l-.8.4-.1-.9c-.1-.7-.6-1.4-1.3-1.7-.3-.1-.5-.2-.8-.2-.5 0-.9.1-1.3.4l-.7.5-.3-.8c-.3-.7-.9-1.2-1.6-1.4-.1 0-.3 0-.4 0-.6 0-1.2.3-1.6.7l-.6.6-.5-.7c-.4-.6-1-1-1.8-1zm.9 11.9c.3-.1.6-.3.9-.6l1.8-1.8c4 .9 7.5 3.4 9.7 6.9l-.3.6c-.6-1.9-2.1-3.1-3-3.7-1.8-1.2-3.7-1.5-4.5-1.5zm-9.8 0c1.6-1.1 3.3-1.9 5.2-2.3l1.6 1.7c.3.3.6.5 1 .7zm6.4 8.4h4.3c.1 0 .3.1.5.1-.2.1-.5.1-.8.1h-3.9v-.2zm13.2 3.9c.7-.6 1.2-1.2 1.6-1.8.3.3.6.6 1 .8l2.4 1v.5h-.3c-1 0-1.7.8-1.7 1.8v.8c0 .9-.2.9-.7.9h-.1c-.1 0-.3 0-.4-.1-.4-1.9-1.1-3-1.8-3.9zm-26.5-.1 2.2-1c.1-.1.2-.1.4-.2v5.2h-2.3c-.2-1-.3-2.1-.3-3.1 0-.3 0-.6 0-.9zm13.4 4.1h3c.4 0 .9.2 1.2 1-.3-.5-.8-.8-1.5-.8h-2.6v-.2zm-4.2 8.5h6.8c1.2 0 1.8-.8 1.8-1.7v-4.9c0 .1.1.3.1.5.2 1.2.4 2.1.6 2.7.4 1.1 1.7 3.3 3.7 3.4 0 .1-.1.3-.1.4l-.5 2.5c-1.8.7-3.8 1.1-5.8 1.1-2.1 0-4.1-.4-6-1.2l-.5-2.5c0-.1-.1-.2-.1-.3z" fill="#32363b"/></svg>