<svg viewBox="0 0 200 200" xmlns="http://www.w3.org/2000/svg"><path d="m31.25 31.25h137.5v18.75h-137.5z" fill="currentColor" stroke="#32363b" stroke-linecap="round" stroke-linejoin="round" stroke-width="4.37"/><g fill="#32363b"><path d="m171.88 25h-143.76a3.12 3.12 0 0 0 -3.12 3.12v143.76a3.12 3.12 0 0 0 3.12 3.12h143.76a3.12 3.12 0 0 0 3.12-3.12v-143.76a3.12 3.12 0 0 0 -3.12-3.12zm-3.13 6.25v18.75h-137.5v-18.75zm-137.5 137.5v-112.5h137.5v112.5z"/><path d="m37.5 37.5h6.25v6.25h-6.25z"/><path d="m50 37.5h6.25v6.25h-6.25z"/><path d="m62.5 37.5h6.25v6.25h-6.25z"/><path d="m137.5 37.5h25v6.25h-25z"/></g><path d="m100 65.62a46.88 46.88 0 1 0 46.88 46.88 46.93 46.93 0 0 0 -46.88-46.88zm38.59 34.18c-5.37-3.6-12.35-5.86-18.69-7.2-1.34-6.36-3.61-13.33-7.2-18.69a40.84 40.84 0 0 1 25.89 25.89zm-16.77 9.58a99.93 99.93 0 0 0 -.82-10.13c9.59 2.36 16.27 6.18 18.64 10.13zm-6.24 0h-12.46v-12.46a94.17 94.17 0 0 1 11.42 1 94.17 94.17 0 0 1 1.04 11.46zm-12.46-18.7v-17.85c3.95 2.37 7.77 9 10.13 18.64a99.93 99.93 0 0 0 -10.13-.79zm-6.24-17.85v17.85a99.93 99.93 0 0 0 -10.13.79c2.36-9.59 6.18-16.27 10.13-18.64zm0 24.09v12.46h-12.46a94.17 94.17 0 0 1 1-11.42 94.17 94.17 0 0 1 11.46-1.04zm-18.7 12.46h-17.85c2.37-3.95 9-7.77 18.64-10.13a99.93 99.93 0 0 0 -.79 10.13zm0 6.24a99.93 99.93 0 0 0 .82 10.13c-9.59-2.36-16.27-6.18-18.64-10.13zm6.24 0h12.46v12.46a94.17 94.17 0 0 1 -11.42-1 94.17 94.17 0 0 1 -1-11.42zm12.46 18.7v17.85c-3.95-2.37-7.77-9-10.13-18.64a99.93 99.93 0 0 0 10.13.79zm6.24 17.85v-17.85a99.93 99.93 0 0 0 10.13-.79c-2.36 9.59-6.18 16.27-10.13 18.64zm0-24.09v-12.46h12.46a94.17 94.17 0 0 1 -1 11.42 94.17 94.17 0 0 1 -11.46 1.04zm18.7-12.46h17.85c-2.37 3.95-9 7.77-18.64 10.13a99.93 99.93 0 0 0 .79-10.13zm-34.52-41.71c-3.6 5.37-5.86 12.35-7.2 18.69-6.35 1.34-13.32 3.6-18.69 7.2a40.84 40.84 0 0 1 25.89-25.89zm-25.89 51.29c5.37 3.6 12.35 5.86 18.69 7.2 1.34 6.34 3.6 13.32 7.2 18.69a40.84 40.84 0 0 1 -25.89-25.89zm51.29 25.89c3.6-5.37 5.86-12.35 7.2-18.69 6.34-1.34 13.32-3.6 18.69-7.2a40.84 40.84 0 0 1 -25.89 25.89z" fill="currentColor"/></svg>