<svg viewBox="0 0 200 200" xmlns="http://www.w3.org/2000/svg"><path d="m157.91 27.2h-115.82a9.89 9.89 0 0 0 -9.89 9.89v17.91a9.89 9.89 0 0 0 9.89 9.89h7.91a2 2 0 0 1 2 2.41l-2.23 12.41a1.15 1.15 0 0 0 1.92 1l16.1-15.28a2 2 0 0 1 1.41-.56h61.6a2.06 2.06 0 0 1 1.41.56l16.09 15.32a1.15 1.15 0 0 0 1.93-1l-2.23-12.43a2 2 0 0 1 2-2.41h7.9a9.89 9.89 0 0 0 9.9-9.91v-17.91a9.89 9.89 0 0 0 -9.89-9.89z" fill="currentColor"/><path d="m83.68 123.17a3.48 3.48 0 0 1 -.35-1.51l-.07-5.8a31.07 31.07 0 0 0 -6.75-19.34h-25.33a18.24 18.24 0 0 0 -18.24 18.24v55.06h27.43l-1.32-8.34a4.66 4.66 0 0 1 4.6-5.38h10.77a6.1 6.1 0 0 0 6.11-6.1v-10.08a3.64 3.64 0 0 1 3.62-3.68 3.6 3.6 0 0 0 3.3-5.15z" fill="#fff"/><path d="m83.56 91.05h-30.93a25.35 25.35 0 0 0 -24.81 30.54l5.12 24.52h7.22a6.83 6.83 0 0 0 6.84-6.83v-4.46a7.67 7.67 0 0 1 3-6.07l7.65-5.93a11.67 11.67 0 0 0 4.53-9.24 11.68 11.68 0 0 1 11.66-11.68h1.47a9.56 9.56 0 0 0 9.55-9.55 1.3 1.3 0 0 0 -1.3-1.3z" fill="currentColor"/><path d="m62.16 172.8h-31.16a3.34 3.34 0 0 1 -3.34-3.34v-3.94a3.34 3.34 0 0 1 3.66-3.33l31.12 3a3.33 3.33 0 0 1 3 3.32v1a3.34 3.34 0 0 1 -3.34 3.34z" fill="currentColor"/><path d="m116.32 123.17a3.63 3.63 0 0 0 .35-1.51l.07-5.8a31.07 31.07 0 0 1 6.75-19.34h25.33a18.24 18.24 0 0 1 18.24 18.24v55.06h-27.43l1.31-8.34a4.65 4.65 0 0 0 -4.59-5.38h-10.77a6.1 6.1 0 0 1 -6.11-6.1v-10.08a3.64 3.64 0 0 0 -3.62-3.68 3.6 3.6 0 0 1 -3.3-5.15z" fill="#fff"/><path d="m116.44 91.05h30.92a25.35 25.35 0 0 1 24.82 30.54l-5.12 24.52h-7.22a6.83 6.83 0 0 1 -6.83-6.83v-4.46a7.67 7.67 0 0 0 -3-6.07l-7.65-5.93a11.67 11.67 0 0 1 -4.53-9.24 11.68 11.68 0 0 0 -11.69-11.68h-1.47a9.56 9.56 0 0 1 -9.55-9.55 1.3 1.3 0 0 1 1.3-1.3z" fill="currentColor"/><path d="m137.84 172.8h31.16a3.34 3.34 0 0 0 3.34-3.34v-3.94a3.34 3.34 0 0 0 -3.66-3.33l-31.12 3a3.33 3.33 0 0 0 -3 3.32v1a3.34 3.34 0 0 0 3.34 3.34z" fill="currentColor"/><path d="m153.22 39.93a2.2 2.2 0 0 0 -2.2-2.19h-102.02a2.2 2.2 0 1 0 0 4.39h102a2.2 2.2 0 0 0 2.22-2.2z" fill="#fff"/><path d="m49 48.79a2.2 2.2 0 1 0 0 4.39h51a2.2 2.2 0 1 0 0-4.39z" fill="#fff"/><g fill="#32363b"><path d="m42.09 67.11h7.72l-2.2 12.21a3.35 3.35 0 0 0 5.6 3l16.05-15.21h61.48l16 15.23a3.35 3.35 0 0 0 5.6-3l-2.2-12.21h7.72a12.11 12.11 0 0 0 12.14-12.13v-14.28a2.2 2.2 0 0 0 -4.39 0v14.28a7.71 7.71 0 0 1 -7.7 7.69h-7.91a4.26 4.26 0 0 0 -4.18 5l1.68 9.31-13.78-13.12a4.23 4.23 0 0 0 -2.92-1.17h-61.6a4.23 4.23 0 0 0 -2.92 1.17l-13.78 13.12 1.66-9.25a4.25 4.25 0 0 0 -4.18-5h-7.89a7.7 7.7 0 0 1 -7.7-7.75v-17.91a7.71 7.71 0 0 1 7.7-7.7h115.82a7.72 7.72 0 0 1 7.7 7.7v3.36a2.2 2.2 0 1 0 4.39 0v-3.36a12.1 12.1 0 0 0 -12.09-12.09h-115.82a12.1 12.1 0 0 0 -12.09 12.09v17.91a12.11 12.11 0 0 0 12.09 12.11z"/><path d="m169.26 160v-13.66l5.07-24.3a27.55 27.55 0 0 0 -27-33.19h-30.89a3.5 3.5 0 0 0 -3.5 3.5 11.75 11.75 0 0 0 4.74 9.42 33.23 33.23 0 0 0 -3.13 14.06l-.08 5.8a1.45 1.45 0 0 1 -.13.59l-3.78 7.93a5.8 5.8 0 0 0 5.24 8.29 1.44 1.44 0 0 1 1.47 1.48v10.08a8.3 8.3 0 0 0 8.3 8.3h10.78a2.45 2.45 0 0 1 1.87.86 2.41 2.41 0 0 1 .55 2l-.27 1.75-1.19.11a5.52 5.52 0 0 0 -5 5.51v1a5.55 5.55 0 0 0 5.54 5.54h31.15a5.54 5.54 0 0 0 5.54-5.54v-3.94a5.53 5.53 0 0 0 -5.23-5.53zm-21.9-66.74a23.16 23.16 0 0 1 22.64 27.88l-4.76 22.78h-5.43a4.64 4.64 0 0 1 -4.63-4.64v-4.46a10 10 0 0 0 -3.83-7.81l-7.66-5.93a9.54 9.54 0 0 1 -3.68-7.5 13.89 13.89 0 0 0 -13.85-13.88h-1.47a7.37 7.37 0 0 1 -7.3-6.45zm-5.8 63.05a6.86 6.86 0 0 0 -5.21-2.39h-10.78a3.89 3.89 0 0 1 -3.9-3.9v-10.1a5.83 5.83 0 0 0 -5.87-5.87 1.41 1.41 0 0 1 -1.27-2l3.77-7.93a5.81 5.81 0 0 0 .57-2.42l.07-5.83a29 29 0 0 1 2.69-12.17 15.9 15.9 0 0 0 4.53.41 9.5 9.5 0 0 1 9.49 9.48 14 14 0 0 0 5.38 11l7.66 5.93a5.51 5.51 0 0 1 2.12 4.33v4.46a9 9 0 0 0 9 9h5v12l-21.81 2.14.1-.63a6.87 6.87 0 0 0 -1.56-5.52zm28.54 13.16a1.15 1.15 0 0 1 -1.14 1.15h-31.12a1.15 1.15 0 0 1 -1.14-1.15v-1a1.14 1.14 0 0 1 1-1.14l31.12-3a1.14 1.14 0 0 1 1.25 1.14z"/><path d="m85.66 122.22a1.46 1.46 0 0 1 -.14-.59l-.07-5.77a33.45 33.45 0 0 0 -3.13-14.09 11.75 11.75 0 0 0 4.74-9.42 3.5 3.5 0 0 0 -3.5-3.5h-30.92a27.55 27.55 0 0 0 -27 33.19l1.36 6.59a2.2 2.2 0 1 0 4.3-.9l-1.3-6.59a23.15 23.15 0 0 1 22.64-27.89h30a7.37 7.37 0 0 1 -7.3 6.45h-1.5a13.89 13.89 0 0 0 -13.84 13.88 9.54 9.54 0 0 1 -3.68 7.5l-7.7 5.92a10 10 0 0 0 -3.83 7.81v4.46a4.64 4.64 0 0 1 -4.63 4.64h-5.44l-3.51-16.87a2.2 2.2 0 1 0 -4.3.9l3.83 18.39v13.67a5.51 5.51 0 0 0 -5.23 5.52v3.94a5.54 5.54 0 0 0 5.49 5.54h31.16a5.54 5.54 0 0 0 5.53-5.54v-1a5.51 5.51 0 0 0 -5-5.51l-1.19-.11-.28-1.75a2.46 2.46 0 0 1 2.43-2.84h10.78a8.29 8.29 0 0 0 8.29-8.3v-10.03a1.45 1.45 0 0 1 1.39-1.48 5.8 5.8 0 0 0 5.33-8.29zm-22.36 46.29v1a1.15 1.15 0 0 1 -1.14 1.15h-31.16a1.15 1.15 0 0 1 -1.14-1.15v-3.94a1.15 1.15 0 0 1 1.14-1.2l31.23 3a1.14 1.14 0 0 1 1 1.14zm20.9-34.46a5.83 5.83 0 0 0 -5.85 5.87v10.08a3.89 3.89 0 0 1 -3.9 3.9h-10.8a6.85 6.85 0 0 0 -6.77 7.91l.1.63-21.84-2.1v-12h5a9 9 0 0 0 9-9v-4.46a5.52 5.52 0 0 1 2.13-4.33l7.73-5.99a14 14 0 0 0 5.38-11 9.5 9.5 0 0 1 9.49-9.48 15.9 15.9 0 0 0 4.53-.41 29.06 29.06 0 0 1 2.69 12.2l.07 5.8a6 6 0 0 0 .56 2.42l3.75 7.91a1.41 1.41 0 0 1 -1.27 2z"/></g></svg>