<svg viewBox="0 0 200 200" xmlns="http://www.w3.org/2000/svg"><path d="m53.12 64.06v-28.12a16.55 16.55 0 0 1 .63-4.69h-17.81a11 11 0 0 0 -10.94 10.94v28.12a11 11 0 0 0 10.94 10.94h2.31l8 10.62a4.8 4.8 0 0 0 3.56 1.88h.19a4.44 4.44 0 0 0 3.5-1.63l9.37-10.68a20.56 20.56 0 0 1 -9.75-17.38z" fill="#32363b"/><path d="m164.06 31.25h-17.81a16.55 16.55 0 0 1 .63 4.69v28.12a20.55 20.55 0 0 1 -9.75 17.38l9.37 10.68a4.43 4.43 0 0 0 3.5 1.63h.19a4.8 4.8 0 0 0 3.56-1.88l7.94-10.62h2.37a11 11 0 0 0 10.94-10.94v-28.12a11 11 0 0 0 -10.94-10.94z" fill="#32363b"/><path d="m100 87.5h-.17a4.69 4.69 0 0 1 -3.58-1.88l-7.97-10.62h-14.84a11 11 0 0 1 -10.94-10.94v-28.12a11 11 0 0 1 10.94-10.94h53.12a11 11 0 0 1 10.94 10.94v28.12a11 11 0 0 1 -10.94 10.94h-13.5l-9.53 10.9a4.68 4.68 0 0 1 -3.53 1.6z" fill="#fff" stroke="#32363b" stroke-linecap="round" stroke-linejoin="round" stroke-width="4.58"/><g fill="#32363b"><circle cx="50" cy="118.75" r="12.5"/><path d="m66.69 140a26.17 26.17 0 0 0 -10.44 20.94v1.56h-26.56a4.73 4.73 0 0 1 -4.69-4.69v-3.12a17.18 17.18 0 0 1 17.19-17.19h15.62a17.11 17.11 0 0 1 8.88 2.5z"/><circle cx="150" cy="118.75" r="12.5"/><path d="m175 154.69v3.12a4.73 4.73 0 0 1 -4.69 4.69h-26.56v-1.56a26.17 26.17 0 0 0 -10.44-20.94 17.11 17.11 0 0 1 8.88-2.5h15.62a17.18 17.18 0 0 1 17.19 17.19z"/></g><circle cx="100" cy="115.63" fill="currentColor" r="18.75" stroke="#32363b" stroke-linecap="round" stroke-linejoin="round" stroke-width="4.58"/><path d="m117.19 143.75h-34.38a17.21 17.21 0 0 0 -17.19 17.19v9.37a4.69 4.69 0 0 0 4.69 4.69h59.38a4.7 4.7 0 0 0 4.69-4.69v-9.37a17.21 17.21 0 0 0 -17.19-17.19z" fill="currentColor" stroke="#32363b" stroke-linecap="round" stroke-linejoin="round" stroke-width="4.58"/></svg>