<svg viewBox="0 0 200 200" xmlns="http://www.w3.org/2000/svg"><path d="m100.29 133.78a33.78 33.78 0 1 1 32.45-43.16h13.07a46.47 46.47 0 1 0 0 18.76h-13.07a33.83 33.83 0 0 1 -32.45 24.4" fill="#32363b"/><path d="m77.52 122.77a32.15 32.15 0 0 0 22.77 9.45v-13.47a18.69 18.69 0 0 1 -13.29-5.49l-9.52 9.51z" fill="#32363b"/><path d="m68.08 100a32 32 0 0 0 2.73 13l12.32-5.42a18.74 18.74 0 0 1 17.16-26.29v-13.51a32.25 32.25 0 0 0 -32.21 32.22" fill="currentColor"/><path d="m112 70-4.88 12.55a18.79 18.79 0 0 1 9.43 8.09h14.59a32.34 32.34 0 0 0 -19.14-20.64" fill="#32363b"/><path d="m107.09 117.46 4.91 12.54a32.38 32.38 0 0 0 19.14-20.65h-14.61a18.76 18.76 0 0 1 -9.44 8.09" fill="currentColor"/><path d="m40.69 118c-.21-.7-.42-1.41-.61-2.13v-.13c-.17-.66-.33-1.33-.49-2l-.09-.41c-.13-.57-.24-1.15-.36-1.73 0-.25-.09-.51-.13-.77-.08-.46-.17-.92-.24-1.39s-.11-.8-.16-1.19a61.36 61.36 0 0 1 -.61-8.25h-12.71a75 75 0 0 0 .55 9v.2c.1.8.21 1.61.34 2.41 0 .22.07.44.11.67.11.66.22 1.31.35 2 .06.35.14.69.21 1 .11.52.22 1 .34 1.55s.22.91.33 1.37.21.8.31 1.21.3 1.06.46 1.6c.06.22.12.44.19.66a74.85 74.85 0 0 0 3.13 8.49l11.66-5.13a62.27 62.27 0 0 1 -2.6-7z" fill="#32363b"/><path d="m100.29 162.28a62.07 62.07 0 0 1 -44-18.27l-9 9a75 75 0 0 0 127.44-43.64h-12.86a62.39 62.39 0 0 1 -61.58 52.9" fill="currentColor"/><path d="m100.29 37.72a61.91 61.91 0 0 1 37.23 12.39l7.63-10.22a75 75 0 0 0 -114.76 32.91l11.87 4.61a62.37 62.37 0 0 1 58-39.69" fill="currentColor"/><path d="m161.87 90.62h12.84a74.52 74.52 0 0 0 -10.79-30.33l-10.81 6.71a62 62 0 0 1 8.76 23.59" fill="#32363b"/><path d="m147.4 90.62h12.89a60.9 60.9 0 0 0 -38-47.2l-4.6 11.83a48.21 48.21 0 0 1 29.71 35.37" fill="currentColor"/><path d="m100.29 52v-12.72a60.82 60.82 0 0 0 -56.58 38.72l11.82 4.6a48.11 48.11 0 0 1 44.76-30.6" fill="#32363b"/><path d="m52.26 100h-12.68a60.8 60.8 0 0 0 38.17 56.36l4.71-11.78a48.09 48.09 0 0 1 -30.2-44.58" fill="currentColor"/><path d="m100.29 148v12.68a60.81 60.81 0 0 0 60-51.34h-12.89a48.1 48.1 0 0 1 -47.11 38.66" fill="#32363b"/></svg>