<svg viewBox="0 0 200 200" xmlns="http://www.w3.org/2000/svg" xmlns:xlink="http://www.w3.org/1999/xlink"><linearGradient id="a" gradientTransform="matrix(1.61 0 0 -1.61 2737.03 5649.1)" gradientUnits="userSpaceOnUse" x1="759.9" x2="805.57" y1="3435.29" y2="3435.29"><stop offset="0" stop-color="#373737"/><stop offset="1" stop-color="#171717"/></linearGradient><path d="m103.12 32.12c-23.72.88-29.82 22.16-25.45 40.7-.4.12-1.9.64-4.42 1.49-.11 0-.2.09-.31.12-14.25 4.82-53.69 18.72-47.23 23.34 3.93 2.81 16.06 5.14 28.06 6.22 2.17.2 4.36.39 6.47.5a30.71 30.71 0 0 1 -.37 4.73c-2.92 19.64 7.8 47.22 41.57 50.21 25.87 2.29 45.61-18.59 47.78-38 10.05 4.19 20.12 7.29 24.46 6.79 8.44-1-25.68-47.67-40.88-57.56 3.28-17.17-4.21-38.77-28.5-38.52-.39-.01-.81-.03-1.18-.02z" fill="#fff" fill-rule="evenodd" stroke="#32363b" stroke-linejoin="round" stroke-width="4.5"/><path d="m127.52 163.59c-13.07 3.72-21.2 6.76-20.33 1.39s9.92-10.54 18.63-13c9.33-2.67 24.84 8.58 25 13.31.18 3.84-12.82-3.74-23.3-1.7z" fill="currentColor" stroke="#32363b" stroke-linejoin="round" stroke-width="4.5"/><path d="m117.54 78.77a37.66 37.66 0 1 0 .06 0" fill="currentColor" stroke="#32363b" stroke-linejoin="round" stroke-width="4.5"/><path d="m92.76 78.77a37.65 37.65 0 1 1 -.06 0" fill="none" stroke="url(#a)" stroke-linecap="round" stroke-linejoin="round" stroke-width="4.24"/><path d="m104.34 87.12c-19.2-.47-33.78 23.65-23.9 40.34 7.59 15.27 30.82 20.48 43.29 8 11.58-10.5 12.52-31.39-.25-41.29a27.36 27.36 0 0 0 -19.14-7.05z" fill="currentColor" stroke="#32363b" stroke-linejoin="round" stroke-width="4.5"/><path d="m101.83 105.61a10.23 10.23 0 1 1 -6.33 13 10.23 10.23 0 0 1 6.33-13" fill="#fff" stroke="#32363b" stroke-linejoin="round" stroke-width="4.5"/><path d="m104.34 87.12c-19.2-.47-33.78 23.65-23.9 40.34 7.59 15.27 30.82 20.48 43.29 8 11.58-10.5 12.52-31.39-.25-41.29a27.36 27.36 0 0 0 -19.14-7.05z" fill="none"/><g stroke="#32363b"><path d="m106.09 142.74-.18-10.13" fill="none" stroke-miterlimit="14.84" stroke-width="2.54"/><path d="m105.13 97.71v-10.49" fill="none" stroke-miterlimit="14.84" stroke-width="2.54"/><path d="m122.36 114.77 10.49-.07" fill="none" stroke-miterlimit="14.84" stroke-width="2.54"/><path d="m77.23 115.54 10.49-.25" fill="none" stroke-miterlimit="14.84" stroke-width="2.54"/><path d="m90.51 90.92 3 5.78" fill="none" stroke-miterlimit="14.84" stroke-width="2.54"/><path d="m119.4 90.67-3 5.77" fill="none" stroke-miterlimit="14.84" stroke-width="2.54"/><path d="m92.06 139.07 3-5.78" fill="none" stroke-miterlimit="14.84" stroke-width="2.54"/><path d="m119.34 139.07-3-5.78" fill="none" stroke-miterlimit="14.84" stroke-width="2.54"/><path d="m129.9 101.63-6 2.45" fill="none" stroke-miterlimit="14.84" stroke-width="2.54"/><path d="m129.67 127.87-6.81-2.77" fill="none" stroke-miterlimit="14.84" stroke-width="2.54"/><path d="m86.24 105.37-6-2.45" fill="none" stroke-miterlimit="14.84" stroke-width="2.54"/><path d="m86.76 125.65-6 2.45" fill="none" stroke-miterlimit="14.84" stroke-width="2.54"/><path d="m103.5 62.39c-9.63-.61-16 .77-14.87 7.28 1.12 6.36 8.27 12.67 14.69 13.1 6.88.45 16.5-8.35 16.16-14.37-.28-4.95-8.36-6.7-15.98-6.01z" fill="currentColor" stroke-linejoin="round" stroke-width="4.5"/><path d="m89.82 163.59c13.3 3.72 21.57 6.76 20.68 1.39s-10.09-10.54-19-13c-9.49-2.67-25.27 8.58-25.46 13.31-.11 3.84 13.14-3.74 23.78-1.7z" fill="currentColor" stroke-linejoin="round" stroke-width="4.5"/><path d="m76 50.75a42.89 42.89 0 0 0 -1.09 4.25c1.34 1.66 4.78 2.32 6.35 3.84a.91.91 0 0 1 .17.17c.68.95-.34 3.14 6.65 5.26 7.47 2.26 8.81 2 10.52 1.52s2.58-3.05 2.58-3.05.58-3.06 2.75-3.3h.26c2.17.24 2.75 3.3 2.75 3.3s.86 2.54 2.58 3.05 3 .74 10.52-1.52 5.71-4.67 6.85-5.46c1.56-1.52 5-2.18 6.35-3.84-.19-1.26-.87-3.42-1.09-4.24-.44.23-5 3-5.42 3.14-1.21-2.52-3-2.61-10.92-1-7.7 1.61-9.59 4-9.69 4.17h-4c-.11-.15-2-2.56-9.69-4.17-7.95-1.65-9.72-1.56-10.92 1-.45-.19-5-2.91-5.43-3.14z" fill="currentColor" fill-rule="evenodd" stroke-linejoin="round" stroke-width="2"/></g></svg>