<svg viewBox="0 0 200 200" xmlns="http://www.w3.org/2000/svg"><path d="m101.11 27.16a75 75 0 1 0 75 75 75.09 75.09 0 0 0 -75-75" fill="currentColor" stroke="#32363b" stroke-linejoin="round" stroke-width="4.5"/><g fill="#fff"><path d="m98.37 103.51c-.68 1.46-1.42 3.1-2.19 4.84-2.72 6.17-5.73 13.67-6.84 18.48a27.83 27.83 0 0 0 -.63 6.19c0 .93.05 1.91.13 2.9a35.67 35.67 0 0 0 23.64.36 22.35 22.35 0 0 1 -2.36-2.49c-4.81-6.15-7.5-15.15-11.75-30.28"/><path d="m80.59 73a35.78 35.78 0 0 0 -.42 58.3c2.2-9.17 7.72-17.56 16-34.37-.5-1.35-1.06-2.83-1.68-4.38-2.29-5.74-5.6-12.42-8.55-15.44a23.91 23.91 0 0 0 -5.35-4.11"/><path d="m132.4 143.39a58.4 58.4 0 0 1 -12.09-2.52 43.05 43.05 0 0 1 -47.51-70.95 31.83 31.83 0 0 0 -7.47-.92c-12.64.12-26 7.11-31.53 26a36 36 0 0 0 -.39 7.29 67.77 67.77 0 0 0 123.21 39 79.23 79.23 0 0 1 -18.47 2.46 47 47 0 0 1 -5.75-.33"/><path d="m119.66 130.26a21 21 0 0 0 2.69.92 35.84 35.84 0 0 0 14.65-28.89 35.79 35.79 0 0 0 -47.09-34c7.28 8.29 10.78 20.15 14.16 33.11s1.08 3.6 2.93 8.36a82.3 82.3 0 0 0 7.3 14.94c1.87 2.87 3.93 4.94 5.33 5.55"/><path d="m101.18 34.51a67.66 67.66 0 0 0 -55.08 28.31 34.34 34.34 0 0 1 18.64-5.4 36.42 36.42 0 0 1 17.05 4.13c.71.42 1.4.86 2.06 1.32a43.07 43.07 0 0 1 60.4 39.42 42.88 42.88 0 0 1 -12.81 30.63 52.41 52.41 0 0 0 6.13.35c7.5 0 15.62-1.66 21.7-6.77 4-3.34 7.29-8.23 9.13-15.57a67.66 67.66 0 0 0 -67.21-76.42"/></g></svg>