<svg viewBox="0 0 200 200" xmlns="http://www.w3.org/2000/svg"><path d="m126.23 25a4.21 4.21 0 0 0 1 .49c13.41 2.79 20.08 11.82 22.53 24.52.59 3.06 1.92 4.22 4.93 4.84 18.11 3.75 23.4 15.56 13.36 31-4 6.08-9.54 11.15-14.62 16.44-1.85 1.93-2.36 3.31-.9 5.73 4.49 7.4 8.1 15.17 9.39 23.88 2.15 14.57-6.54 24.06-21.27 22.31-6.38-.76-12.66-2.74-18.83-4.67-2.77-.87-4.38-.91-6.39 1.46a79.49 79.49 0 0 1 -24.32 19.73c-22.18 11.37-38.91-1.26-42.34-21.5-.7-4.09-1.72-6.33-6.41-7.31-15.81-3.31-18-16.2-13.11-28.78 3.16-8.09 9.19-14.19 15.51-20 4.63-4.24 4.15-4.11 1.72-9.66-3-6.93-6.15-14-7.65-21.37-2.79-13.62 5-22.18 18.91-22.33 8.26-.08 15.84 2.22 23.2 5.5 2.39 1.08 3.93.87 5.83-1.13 8.66-9.15 18.68-16.15 31.23-19.15zm-30.44 105.81c5.79-2.23 11.44-4.59 17.22-6.59 7.85-2.72 13.17-7.68 15.51-15.77a47.17 47.17 0 0 1 3.12-7.2c1.1-2.3 1-4.19-1-6q-12.6-11.41-25.1-23c-1.92-1.76-4-1.82-6.23-.75-8.21 3.94-16.54 7.67-24.6 11.9a69.59 69.59 0 0 0 -11.72 8c-3.38 2.79-3.9 6.27-1.89 8.69a155.51 155.51 0 0 0 31.65 29 30.66 30.66 0 0 0 3.04 1.72zm-41.68 12.83c2.44 15.56 12.26 20.66 23.89 17.93 8.53-2 15.54-6.77 21.93-12.53 2.17-1.95 4.14-4.13 6.38-6.38-3.54-2.27-6.41-4.26-9.45-6a5 5 0 0 0 -3.53-.34c-12.65 4.18-25.56 6.97-39.22 7.32zm37.06-93.92c4.41 2.77 8.45 5 12.17 7.74 2.4 1.74 4.56 1.75 7.31 1.11 7-1.63 14.15-3.23 21.31-4.17 6.13-.8 6.38-.65 4.12-6.3a32.08 32.08 0 0 0 -2.08-4.37c-3.77-6.4-9.37-9.18-16.75-8-10.19 1.63-18.31 7.01-26.08 13.99zm-33.09 52.15a103.87 103.87 0 0 0 -5.56 28.45c-.14 3.55 1.33 4.81 4.46 4.83 6.11 0 12.25.29 18.34-.14 4.6-.33 9.14-1.58 14.65-2.6-6.19-5.47-11.57-9.91-16.59-14.73s-9.9-10.2-15.3-15.81zm-6.08-14.96c5.44-3.85 10.47-6.9 13.23-13s6.77-11.43 10.77-18.06c-6-.76-11.34-2.09-16.69-2-7.71.22-12.52 4.49-13.31 10.73-1 8.06 2.11 15.04 6 22.33zm70.59 57a29.27 29.27 0 0 0 15.79 1.51c6.44-1.08 10.15-5.63 10.54-12.23.42-6.9-2.25-13-5.14-18.92-1.46-3-3-3-4.68-.08-5.48 9.81-10.88 19.58-16.5 29.72zm14.21-58.09c.78-6.84 1.56-12.73 2-18.65.08-.94-1.11-2.83-1.8-2.87a56 56 0 0 0 -20.43 2.32zm10 13.88h1.35c4.88-5.48 9.48-11.14 10.74-18.75 1-6.07-2.34-11.83-7-12.94-1.89 9.14-3.89 18.24-5.7 27.38-.26 1.35.4 2.87.64 4.31zm-100 31.87c2.13-10.57 4.2-21.13 6.42-32.07-5.82 5.5-10.93 11.24-13.45 18.79-1.92 5.76 1.23 11.47 7.05 13.28zm24.74-58.46.64.64 20.52-9.6c-3.12-1.62-5.79-3.19-8.63-4.36a3.48 3.48 0 0 0 -3.17.74c-3.25 4.09-6.27 8.37-9.36 12.58zm47.51 53.21-.56-.53-18.29 8.3a80.19 80.19 0 0 0 7.59 4 3.39 3.39 0 0 0 3.08-.7c2.86-3.58 5.48-7.39 8.18-11.07z" fill="#32363b"/><path d="m94.61 108.69c-4.59.08-8.49-3.38-8.58-7.6-.09-4.39 3.79-8 8.58-8 4.55 0 8.42 3.59 8.44 7.8s-3.84 7.72-8.44 7.8z" fill="currentColor"/></svg>