<?xml version="1.0" encoding="utf-8"?>
<!-- Generator: Adobe Illustrator 24.1.0, SVG Export Plug-In . SVG Version: 6.00 Build 0)  -->
<svg version="1.1" id="Layer_1" xmlns="http://www.w3.org/2000/svg" xmlns:xlink="http://www.w3.org/1999/xlink" x="0px" y="0px"
	 viewBox="0 0 210.6 204.6" style="enable-background:new 0 0 210.6 204.6;" xml:space="preserve">
<style type="text/css">
	.st0-204c1be3633c698a115e92da0d701a87{fill:currentColor;}
	.st1-204c1be3633c698a115e92da0d701a87{fill:#32363B;}
	.st2-204c1be3633c698a115e92da0d701a87{fill:#FFFFFF;}
</style>
<path class="st0-204c1be3633c698a115e92da0d701a87" d="M206.4,123.6L206.4,123.6L188.9,48c-0.9-4-3.6-7.3-7.3-9.1L111.1,5.2c-3.7-1.8-8-1.8-11.7,0L28.9,38.9
	c-3.7,1.8-6.3,5.1-7.3,9.1L4.2,123.7c-0.4,1.9-0.4,3.9,0,5.8c0.1,0.6,0.3,1.2,0.5,1.7c0.3,1,0.8,1.9,1.3,2.7
	c0.2,0.4,0.5,0.7,0.8,1.1l48.8,60.7c0.2,0.3,0.4,0.5,0.7,0.8c0.8,0.8,1.6,1.5,2.6,2.1c1.2,0.8,2.5,1.3,3.9,1.7
	c1.1,0.3,2.3,0.5,3.4,0.5H67h77.5c0.5,0,0.9,0,1.4-0.1c0.7-0.1,1.3-0.2,2-0.4c0.5-0.1,0.9-0.3,1.4-0.4c0.4-0.1,0.7-0.3,1-0.4
	c0.5-0.2,1-0.5,1.5-0.8c1.2-0.8,2.3-1.7,3.2-2.9l1.5-1.8l47.3-58.8c0.9-1.1,1.6-2.4,2.1-3.8c0.2-0.6,0.4-1.1,0.5-1.7
	C206.8,127.5,206.8,125.6,206.4,123.6z"/>
<g>
	<g>
		<path class="st1-204c1be3633c698a115e92da0d701a87" d="M105.2,152c-25.5,0-46.3-20.8-46.3-46.3s20.8-46.3,46.3-46.3s46.3,20.8,46.3,46.3S130.7,152,105.2,152z
			 M105.2,67.4c-21.2,0-38.4,17.2-38.4,38.4s17.2,38.4,38.4,38.4s38.4-17.2,38.4-38.4S126.3,67.4,105.2,67.4z"/>
	</g>
	<path class="st2-204c1be3633c698a115e92da0d701a87" d="M171.9,115.7l-45.6-9.6c0-0.2,0-0.2,0-0.3c0-3.5-0.9-6.8-2.4-9.6l36.9-28.7c1.7-1.4,2.1-3.8,0.7-5.6
		c-1.4-1.7-3.8-2.1-5.6-0.7L119,89.9c-2.8-2.4-6.1-4.2-9.9-4.9V38.2c0-2.1-1.7-4-4-4c-2.1,0-4,1.7-4,4v46.9c-3.7,0.7-7,2.3-9.6,4.7
		L55.3,60.7c-1.7-1.4-4.2-1-5.6,0.5c-1.4,1.7-1,4.2,0.5,5.6l36.2,29.1c-1.6,3-2.4,6.3-2.4,9.9c0,0.3,0,0.5,0,0.9l-45.5,10.6
		c-2.1,0.5-3.5,2.6-3,4.7c0.3,1.7,2.1,3,3.8,3c0.3,0,0.5,0,0.9-0.2l45.5-10.6c1.4,3.3,3.7,6.1,6.4,8.2l-20.9,41.8
		c-1,1.9-0.2,4.4,1.7,5.2c0.5,0.3,1.2,0.3,1.7,0.3c1.4,0,2.8-0.9,3.5-2.1L99.2,126c1.9,0.5,3.8,0.9,5.7,0.9s3.8-0.3,5.6-0.7l20.6,42
		c0.7,1.4,2.1,2.3,3.5,2.3c0.5,0,1.2-0.2,1.7-0.3c1.9-0.9,2.8-3.3,1.7-5.2l-20.2-42.3c3-2.3,5.4-5.2,6.8-8.7l45.6,9.6
		c0.3,0,0.5,0,0.9,0c1.7,0,3.5-1.2,3.8-3.1C175.4,118.3,174,116.2,171.9,115.7z M95.6,98.1l9.6-4.5l9.6,4.5l2.4,10.3l-6.6,8.4H99.9
		l-6.8-8.2L95.6,98.1z"/>
</g>
</svg>
