<?xml version="1.0" encoding="UTF-8" standalone="no"?><!DOCTYPE svg PUBLIC "-//W3C//DTD SVG 1.1//EN" "http://www.w3.org/Graphics/SVG/1.1/DTD/svg11.dtd">
<svg width="100%" height="100%" viewBox="0 0 1150 800" version="1.1"
    xmlns="http://www.w3.org/2000/svg"
    xmlns:xlink="http://www.w3.org/1999/xlink" xml:space="preserve"
    xmlns:serif="http://www.serif.com/" style="fill-rule:evenodd;clip-rule:evenodd;stroke-linejoin:round;stroke-miterlimit:2;">
    <rect x="-0" y="0" width="1150" height="800" style="fill:url(#_Radial1);fill-rule:nonzero;stroke:#fff;stroke-width:1px;"/>
    <g>
        <g class="bullet bullet-2-1">
            <path d="M65,50l270,0c8.284,0 15,6.716 15,15l0,665c0,8.284 -6.716,15 -15,15l-270,0c-8.284,0 -15,-6.716 -15,-15l0,-665c0,-8.284 6.716,-15 15,-15Z" style="fill:#fff;fill-opacity:0.2;"/>
            <path d="M65,50l270,0c8.284,0 15,6.716 15,15l0,665c0,8.284 -6.716,15 -15,15l-270,0c-8.284,0 -15,-6.716 -15,-15l0,-665c0,-8.284 6.716,-15 15,-15Zm0,0l0,0" style="fill:none;stroke:#fff;stroke-width:1px;stroke-linecap:round;stroke-miterlimit:10;"/>
            <path d="M120,150l160,0c8.284,0 15,6.716 15,15l0,200c0,8.284 -6.716,15 -15,15l-160,0c-8.284,0 -15,-6.716 -15,-15l0,-200c0,-8.284 6.716,-15 15,-15Zm0,0l0,0" style="fill:none;stroke:#fff;stroke-width:1px;stroke-linecap:round;stroke-miterlimit:10;"/>
            <rect x="172.543" y="185" width="3.973" height="8.699" style="fill:#fff;"/>
            <rect x="223.484" y="185" width="3.973" height="8.699" style="fill:#fff;"/>
            <rect x="210.749" y="185" width="3.973" height="8.699" style="fill:#fff;"/>
            <rect x="185.278" y="185" width="3.973" height="8.699" style="fill:#fff;"/>
            <rect x="198.014" y="185" width="3.973" height="8.699" style="fill:#fff;"/>
            <rect x="172.543" y="256.301" width="3.973" height="8.699" style="fill:#fff;"/>
            <rect x="223.484" y="256.301" width="3.973" height="8.699" style="fill:#fff;"/>
            <rect x="210.749" y="256.301" width="3.973" height="8.699" style="fill:#fff;"/>
            <rect x="185.278" y="256.301" width="3.973" height="8.699" style="fill:#fff;"/>
            <rect x="198.014" y="256.301" width="3.973" height="8.699" style="fill:#fff;"/>
            <rect x="160" y="248.481" width="8.698" height="3.973" style="fill:#fff;"/>
            <rect x="160" y="197.532" width="8.698" height="3.973" style="fill:#fff;"/>
            <rect x="160" y="210.269" width="8.698" height="3.973" style="fill:#fff;"/>
            <rect x="160" y="235.743" width="8.698" height="3.973" style="fill:#fff;"/>
            <rect x="160" y="223.006" width="8.698" height="3.973" style="fill:#fff;"/>
            <rect x="231.302" y="248.487" width="8.698" height="3.973" style="fill:#fff;"/>
            <rect x="231.302" y="197.538" width="8.698" height="3.973" style="fill:#fff;"/>
            <rect x="231.302" y="210.275" width="8.698" height="3.973" style="fill:#fff;"/>
            <rect x="231.302" y="235.75" width="8.698" height="3.973" style="fill:#fff;"/>
            <rect x="231.302" y="223.012" width="8.698" height="3.973" style="fill:#fff;"/>
            <path d="M227.414,252.419l-54.828,-0l-0,-54.838l54.828,0l-0,54.838Zm-3.888,-50.949l-47.052,-0l-0,47.06l47.052,0l-0,-47.06Z" style="fill:#fff;"/>
            <path d="M120,440l160,0c8.284,0 15,6.716 15,15l0,230c0,8.284 -6.716,15 -15,15l-160,0c-8.284,0 -15,-6.716 -15,-15l0,-230c0,-8.284 6.716,-15 15,-15Zm0,0l0,0" style="fill:none;stroke:#fff;stroke-width:1px;stroke-linecap:round;stroke-miterlimit:10;"/>
            <path d="M226.588,542.994c2.115,2.016 2.115,5.284 0,7.3c-2.114,2.015 -5.542,2.015 -7.657,-0c-2.114,-2.016 -2.114,-5.284 0,-7.3c2.115,-2.016 5.543,-2.016 7.657,0Z" style="fill:#fff;"/>
            <path d="M226.588,513.096c2.115,2.016 2.115,5.284 0,7.3c-2.114,2.016 -5.542,2.016 -7.657,-0c-2.114,-2.016 -2.114,-5.284 0,-7.3c2.115,-2.015 5.543,-2.015 7.657,0Z" style="fill:#fff;"/>
            <path d="M160,498.573c0,-2.458 1.774,-5.03 5.519,-7.073c6.466,-3.527 19.477,-6.044 34.483,-6.044c15.002,-0 28.009,2.517 34.479,6.044c3.745,2.043 5.519,4.615 5.519,7.073l0,53.837c0,2.446 -1.774,5.011 -5.526,7.044c-6.466,3.502 -19.474,6.002 -34.472,6.002c-15.002,-0 -28.01,-2.5 -34.476,-6.002c-3.752,-2.033 -5.526,-4.598 -5.526,-7.044l0,-53.837Zm74.625,53.837c0,-0.106 -0.017,-6.971 0,-6.961l0,-15.406c-0.103,0.049 -0.206,0.098 -0.312,0.146c-6.432,2.961 -19.385,5.069 -34.311,5.069c-14.93,0 -27.883,-2.108 -34.315,-5.069c-0.106,-0.048 -0.209,-0.097 -0.312,-0.146l-0,15.406c0.017,-0.009 -0,6.861 -0,6.961c-0,0.517 0.446,0.928 0.995,1.393c1.05,0.885 2.598,1.681 4.524,2.419c6.562,2.516 17.164,4.109 29.108,4.109c11.94,-0 22.542,-1.593 29.104,-4.109c1.926,-0.738 3.474,-1.534 4.524,-2.419c0.549,-0.465 0.995,-0.876 0.995,-1.393Zm0,-46.844c-0.017,0.01 0,-6.886 0,-6.993c0,-0.525 -0.446,-0.948 -1.002,-1.421c-1.05,-0.891 -2.598,-1.693 -4.52,-2.435c-6.566,-2.532 -17.164,-4.136 -29.101,-4.136c-11.941,0 -22.539,1.604 -29.105,4.136c-1.922,0.742 -3.47,1.544 -4.52,2.435c-0.556,0.473 -1.002,0.896 -1.002,1.421c-0,0.102 0.017,7.002 -0,6.993l-0,11.971c0.017,-0.007 0.031,-0.015 0.048,-0.023l-0,6.172c-0.028,0.031 0.093,0.269 0.192,0.372c0.165,0.17 0.36,0.333 0.59,0.497c1.057,0.758 2.616,1.437 4.555,2.068c6.593,2.147 17.243,3.51 29.242,3.51c11.995,0 22.645,-1.363 29.238,-3.51c1.939,-0.631 3.498,-1.31 4.555,-2.068c0.226,-0.163 0.425,-0.327 0.59,-0.497c0.1,-0.103 0.22,-0.345 0.189,-0.377l-0,-6.169c0.017,0.009 0.034,0.017 0.051,0.025l0,-11.971Z" style="fill:#fff;"/>
            <path d="M223.395,494.152c12.92,3.122 12.92,8.183 -0,11.305c-12.92,3.122 -33.867,3.122 -46.787,-0c-12.92,-3.122 -12.92,-8.183 -0,-11.305c12.92,-3.122 33.867,-3.122 46.787,-0Z" style="fill:#fff;"/>
            <path d="M200,380l0,60" style="fill:none;stroke:#fff;stroke-width:2px;stroke-linecap:round;stroke-miterlimit:10;"/>
            <path d="M815,50l270,0c8.284,0 15,6.716 15,15l0,665c0,8.284 -6.716,15 -15,15l-270,0c-8.284,0 -15,-6.716 -15,-15l0,-665c0,-8.284 6.716,-15 15,-15Z" style="fill:#26a8d4;fill-opacity:0.2;"/>
            <path d="M815,50l270,0c8.284,0 15,6.716 15,15l0,665c0,8.284 -6.716,15 -15,15l-270,0c-8.284,0 -15,-6.716 -15,-15l0,-665c0,-8.284 6.716,-15 15,-15Zm0,0l0,0" style="fill:none;stroke:#41bbd4;stroke-width:1px;stroke-linecap:round;stroke-miterlimit:10;"/>
            <path d="M870,150l160,0c8.284,0 15,6.716 15,15l0,200c0,8.284 -6.716,15 -15,15l-160,0c-8.284,0 -15,-6.716 -15,-15l0,-200c0,-8.284 6.716,-15 15,-15Zm0,0l0,0" style="fill:none;stroke:#41bbd4;stroke-width:1px;stroke-linecap:round;stroke-miterlimit:10;"/>
            <path d="M951.288,180.348l37.428,21.617c0.792,0.454 1.284,1.3 1.284,2.217l0,43.236c0,0.917 -0.492,1.763 -1.284,2.226l-37.428,21.608c-0.8,0.464 -1.776,0.464 -2.568,0l-37.436,-21.608c-0.792,-0.463 -1.284,-1.309 -1.284,-2.226l0,-43.236c0,-0.917 0.492,-1.763 1.284,-2.217l37.436,-21.617c0.792,-0.464 1.768,-0.464 2.568,-0Zm-1.292,5.188l-34.861,20.137l-0,40.264l34.861,20.127l34.869,-20.127l0,-40.264l-34.869,-20.137Z" style="fill:#fff;"/>
            <path d="M949.996,195.933l25.871,14.933l0,29.878l-25.871,14.939l-25.865,-14.939l-0,-29.878l25.865,-14.933Z" style="fill:#19a553;"/>
            <path d="M870,440l160,0c8.284,0 15,6.716 15,15l0,230c0,8.284 -6.716,15 -15,15l-160,0c-8.284,0 -15,-6.716 -15,-15l0,-230c0,-8.284 6.716,-15 15,-15Zm0,0l0,0" style="fill:none;stroke:#41bbd4;stroke-width:1px;stroke-linecap:round;stroke-miterlimit:10;"/>
            <path d="M974.93,533.433c-2.374,-2.373 -6.228,-2.373 -8.602,0.001c-2.374,2.374 -2.374,6.229 -0,8.603c2.374,2.374 6.229,2.373 8.603,-0.001c2.373,-2.374 2.373,-6.229 -0.001,-8.603Z" style="fill:#19a553;"/>
            <path d="M990,482.174l0,65.652c0,3.957 -3.217,7.174 -7.179,7.174l-65.643,0c-3.961,0 -7.178,-3.217 -7.178,-7.174l0,-65.652c0,-3.957 3.217,-7.174 7.178,-7.174l65.643,-0c3.962,-0 7.179,3.217 7.179,7.174Zm-5.405,0c0,-0.973 -0.795,-1.772 -1.774,-1.772l-65.643,-0c-0.978,-0 -1.773,0.799 -1.773,1.772l0,65.652c0,0.973 0.795,1.772 1.773,1.772l65.643,0c0.979,0 1.774,-0.799 1.774,-1.772l0,-65.652Z" style="fill:#fff;"/>
            <path d="M950,380l0,60" style="fill:none;stroke:#41bbec;stroke-width:2px;stroke-linecap:round;stroke-miterlimit:10;"/>
            <path d="M295,322.822l521.7,-0.297" style="fill:none;stroke:#fff;stroke-width:3px;stroke-linecap:round;stroke-miterlimit:10;"/>
            <path d="M850.3,322.528l-33.607,-12.581l0.014,25.2l33.593,-12.619Z" style="fill:#fff;stroke:#fff;stroke-width:3px;stroke-linejoin:miter;stroke-miterlimit:10;"/>
            <g>
                <path d="M855,207.503l-521.7,0.297" style="fill:none;fill-rule:nonzero;stroke:#41bbec;stroke-width:3px;stroke-linecap:round;stroke-miterlimit:10;stroke-dasharray:12,12;"/>
                <path d="M299.7,207.819l33.607,12.581l-0.014,-25.2l-33.593,12.619Z" style="fill:#41bbec;fill-rule:nonzero;stroke:#41bbec;stroke-width:3px;stroke-linejoin:miter;stroke-miterlimit:10;"/>
            </g>
        </g>
        <g class="bullet bullet-2">
            <g>
                <path d="M174.657,308.731l4.882,-14.439l2.073,0l4.882,14.439l-1.936,-0l-2.523,-8.064c-0.263,-0.808 -0.512,-1.614 -0.748,-2.418c-0.235,-0.804 -0.467,-1.622 -0.695,-2.453l-0.088,-0c-0.219,0.84 -0.446,1.66 -0.681,2.46c-0.235,0.799 -0.485,1.603 -0.748,2.411l-2.553,8.064l-1.865,-0Zm2.568,-4.396l-0,-1.466l6.648,0l0,1.466l-6.648,0Z" style="fill:#fff;"/>
                <path d="M187.234,308.731l-0,-0.967l5.625,-8.253l-5.003,-0l0,-1.474l7.292,-0l0,0.967l-5.626,8.253l5.814,-0l-0,1.474l-8.102,-0Z" style="fill:#fff;"/>
                <path d="M200.597,308.995c-1.125,-0 -1.95,-0.356 -2.475,-1.067c-0.525,-0.711 -0.788,-1.748 -0.788,-3.112l0,-6.776l1.807,-0l-0,6.539c-0,0.997 0.159,1.72 0.477,2.169c0.318,0.449 0.83,0.673 1.535,0.673c0.543,-0 1.03,-0.143 1.46,-0.429c0.431,-0.285 0.899,-0.743 1.406,-1.373l0,-7.579l1.807,-0l0,10.691l-1.489,0l-0.156,-1.669l-0.057,0c-0.492,0.58 -1.02,1.047 -1.583,1.402c-0.563,0.354 -1.211,0.531 -1.944,0.531Z" style="fill:#fff;"/>
                <path d="M209.429,308.731l-0,-10.694l1.495,-0l0.152,1.948l0.06,-0c0.365,-0.684 0.808,-1.223 1.331,-1.619c0.523,-0.395 1.093,-0.593 1.71,-0.593c0.236,-0 0.443,0.016 0.624,0.048c0.18,0.032 0.352,0.089 0.517,0.172l-0.398,1.543c-0.153,-0.044 -0.299,-0.077 -0.437,-0.099c-0.138,-0.022 -0.318,-0.033 -0.54,-0.033c-0.451,0 -0.924,0.182 -1.417,0.546c-0.492,0.364 -0.922,1.002 -1.288,1.914l0,6.867l-1.809,0Z" style="fill:#fff;"/>
                <path d="M221.185,308.995c-0.961,-0 -1.831,-0.222 -2.611,-0.667c-0.78,-0.444 -1.398,-1.084 -1.853,-1.919c-0.455,-0.835 -0.683,-1.842 -0.683,-3.022c0,-1.162 0.232,-2.162 0.697,-3c0.464,-0.837 1.063,-1.482 1.797,-1.934c0.735,-0.451 1.513,-0.677 2.335,-0.677c0.915,-0 1.689,0.207 2.324,0.621c0.634,0.415 1.115,0.997 1.442,1.747c0.328,0.75 0.491,1.633 0.491,2.647c0,0.184 -0.006,0.366 -0.02,0.546c-0.013,0.18 -0.039,0.359 -0.078,0.536l-7.691,-0l-0,-1.426l6.158,0c-0,-1.038 -0.225,-1.832 -0.673,-2.381c-0.448,-0.55 -1.09,-0.824 -1.926,-0.824c-0.49,-0 -0.967,0.137 -1.433,0.411c-0.465,0.273 -0.85,0.713 -1.155,1.317c-0.305,0.605 -0.457,1.405 -0.457,2.4c-0,0.907 0.159,1.668 0.478,2.283c0.319,0.615 0.749,1.079 1.29,1.392c0.54,0.314 1.132,0.47 1.774,0.47c0.521,0 1.003,-0.071 1.446,-0.215c0.444,-0.143 0.849,-0.338 1.216,-0.584l0.658,1.186c-0.459,0.318 -0.979,0.58 -1.56,0.785c-0.582,0.205 -1.237,0.308 -1.966,0.308Z" style="fill:#fff;"/>
                <path d="M133.64,340.731l-4.525,-14.439l1.946,0l2.242,7.805c0.164,0.573 0.319,1.115 0.466,1.625c0.147,0.511 0.296,1.018 0.446,1.521c0.15,0.504 0.309,1.04 0.478,1.609l0.088,-0c0.169,-0.569 0.325,-1.105 0.467,-1.609c0.143,-0.503 0.289,-1.01 0.439,-1.521c0.15,-0.51 0.311,-1.052 0.484,-1.625l2.402,-7.805l1.869,0l-4.673,14.439l-2.129,-0Z" style="fill:#fff;"/>
                <path d="M142.249,340.731l-0,-10.692l1.804,-0l-0,10.692l-1.804,-0Zm0.902,-12.892c-0.352,-0 -0.642,-0.11 -0.869,-0.33c-0.227,-0.22 -0.341,-0.506 -0.341,-0.858c-0,-0.352 0.114,-0.638 0.341,-0.858c0.227,-0.22 0.517,-0.33 0.869,-0.33c0.352,-0 0.642,0.11 0.869,0.33c0.227,0.22 0.341,0.506 0.341,0.858c-0,0.352 -0.114,0.638 -0.341,0.858c-0.227,0.22 -0.517,0.33 -0.869,0.33Z" style="fill:#fff;"/>
                <path d="M147.667,340.731l0,-10.694l1.495,-0l0.153,1.948l0.06,-0c0.365,-0.684 0.808,-1.223 1.331,-1.619c0.523,-0.395 1.093,-0.593 1.71,-0.593c0.235,-0 0.443,0.016 0.623,0.048c0.181,0.032 0.353,0.089 0.518,0.172l-0.398,1.543c-0.153,-0.044 -0.299,-0.077 -0.437,-0.099c-0.139,-0.022 -0.318,-0.033 -0.54,-0.033c-0.451,0 -0.924,0.182 -1.417,0.546c-0.493,0.364 -0.922,1.002 -1.288,1.914l-0,6.867l-1.81,0Z" style="fill:#fff;"/>
                <path d="M158.675,340.934c-1.139,0 -1.933,-0.332 -2.383,-0.995c-0.449,-0.664 -0.674,-1.524 -0.674,-2.581l-0,-5.852l-1.591,-0l-0,-1.365l1.672,-0.101l0.223,-3.44l1.516,0l0,3.44l2.895,-0l-0,1.466l-2.895,-0l0,5.886c0,0.648 0.122,1.154 0.366,1.517c0.243,0.364 0.67,0.545 1.28,0.545c0.196,0 0.395,-0.019 0.597,-0.056c0.202,-0.038 0.408,-0.11 0.618,-0.215l0.386,1.281c-0.279,0.137 -0.592,0.25 -0.939,0.338c-0.348,0.088 -0.704,0.132 -1.071,0.132Z" style="fill:#fff;"/>
                <path d="M165.87,340.995c-1.124,-0 -1.949,-0.356 -2.475,-1.067c-0.525,-0.711 -0.787,-1.748 -0.787,-3.112l-0,-6.776l1.806,-0l0,6.539c0,0.997 0.159,1.72 0.477,2.169c0.318,0.449 0.83,0.673 1.536,0.673c0.543,-0 1.03,-0.143 1.46,-0.429c0.43,-0.285 0.899,-0.743 1.406,-1.373l-0,-7.579l1.807,-0l-0,10.691l-1.49,0l-0.155,-1.669l-0.058,0c-0.492,0.58 -1.019,1.047 -1.582,1.402c-0.563,0.354 -1.211,0.531 -1.945,0.531Z" style="fill:#fff;"/>
                <path d="M177.176,340.995c-0.596,-0 -1.132,-0.119 -1.608,-0.358c-0.476,-0.238 -0.85,-0.584 -1.125,-1.038c-0.274,-0.454 -0.411,-1.002 -0.411,-1.644c0,-1.201 0.528,-2.11 1.584,-2.727c1.057,-0.618 2.723,-1.05 5,-1.296c-0.003,-0.446 -0.067,-0.871 -0.191,-1.276c-0.125,-0.404 -0.349,-0.732 -0.672,-0.983c-0.323,-0.252 -0.774,-0.377 -1.355,-0.377c-0.613,-0 -1.191,0.113 -1.734,0.341c-0.542,0.227 -1.027,0.479 -1.455,0.756l-0.703,-1.24c0.328,-0.221 0.71,-0.438 1.145,-0.65c0.436,-0.213 0.912,-0.387 1.428,-0.523c0.517,-0.136 1.061,-0.204 1.633,-0.204c0.867,-0 1.573,0.181 2.118,0.543c0.546,0.362 0.948,0.873 1.206,1.533c0.258,0.66 0.387,1.436 0.387,2.329l0,6.55l-1.503,-0l-0.142,-1.273l-0.071,0c-0.515,0.422 -1.066,0.784 -1.651,1.085c-0.585,0.301 -1.212,0.452 -1.88,0.452Zm0.503,-1.507c0.519,0 1.01,-0.115 1.472,-0.347c0.462,-0.231 0.95,-0.573 1.465,-1.025l0,-2.883c-1.198,0.14 -2.147,0.326 -2.846,0.56c-0.7,0.233 -1.2,0.518 -1.502,0.854c-0.301,0.337 -0.452,0.734 -0.452,1.191c-0,0.591 0.182,1.014 0.546,1.268c0.364,0.255 0.803,0.382 1.317,0.382Z" style="fill:#fff;"/>
                <path d="M187.719,340.934c-0.454,0 -0.822,-0.093 -1.105,-0.278c-0.283,-0.185 -0.489,-0.457 -0.619,-0.815c-0.13,-0.359 -0.196,-0.796 -0.196,-1.313l0,-13.465l1.808,-0l-0,13.597c-0,0.288 0.053,0.488 0.159,0.6c0.106,0.112 0.232,0.167 0.378,0.167c0.053,0 0.106,-0.003 0.157,-0.011c0.051,-0.007 0.121,-0.018 0.209,-0.033l0.253,1.365c-0.124,0.053 -0.272,0.097 -0.446,0.133c-0.173,0.035 -0.373,0.053 -0.598,0.053Z" style="fill:#fff;"/>
                <path d="M195.981,340.731l0,-14.439l2.318,0l2.719,7.72c0.179,0.489 0.347,0.977 0.504,1.464c0.158,0.487 0.314,1 0.469,1.54l0.088,-0c0.16,-0.54 0.314,-1.053 0.461,-1.54c0.148,-0.487 0.303,-0.975 0.467,-1.464l2.719,-7.72l2.304,0l0,14.439l-1.716,-0l0,-7.934c0,-0.426 0.013,-0.903 0.038,-1.43c0.026,-0.527 0.059,-1.054 0.101,-1.579c0.041,-0.525 0.083,-1 0.125,-1.423l-0.088,0l-1.136,3.482l-2.698,7.445l-1.341,0l-2.707,-7.445l-1.116,-3.482l-0.088,0c0.041,0.423 0.08,0.898 0.118,1.423c0.037,0.525 0.068,1.052 0.093,1.579c0.026,0.527 0.038,1.004 0.038,1.43l0,7.934l-1.672,-0Z" style="fill:#fff;"/>
                <path d="M214.276,340.995c-0.597,-0 -1.133,-0.119 -1.608,-0.358c-0.476,-0.238 -0.851,-0.584 -1.125,-1.038c-0.274,-0.454 -0.411,-1.002 -0.411,-1.644c-0,-1.201 0.528,-2.11 1.584,-2.727c1.056,-0.618 2.723,-1.05 5,-1.296c-0.003,-0.446 -0.067,-0.871 -0.192,-1.276c-0.125,-0.404 -0.348,-0.732 -0.671,-0.983c-0.323,-0.252 -0.775,-0.377 -1.355,-0.377c-0.613,-0 -1.191,0.113 -1.734,0.341c-0.543,0.227 -1.028,0.479 -1.455,0.756l-0.703,-1.24c0.328,-0.221 0.709,-0.438 1.145,-0.65c0.435,-0.213 0.911,-0.387 1.428,-0.523c0.517,-0.136 1.061,-0.204 1.633,-0.204c0.866,-0 1.572,0.181 2.118,0.543c0.546,0.362 0.948,0.873 1.206,1.533c0.258,0.66 0.387,1.436 0.387,2.329l0,6.55l-1.503,-0l-0.142,-1.273l-0.071,0c-0.516,0.422 -1.066,0.784 -1.651,1.085c-0.586,0.301 -1.212,0.452 -1.88,0.452Zm0.503,-1.507c0.519,0 1.01,-0.115 1.472,-0.347c0.462,-0.231 0.95,-0.573 1.465,-1.025l-0,-2.883c-1.198,0.14 -2.147,0.326 -2.847,0.56c-0.699,0.233 -1.2,0.518 -1.501,0.854c-0.302,0.337 -0.453,0.734 -0.453,1.191c0,0.591 0.183,1.014 0.547,1.268c0.364,0.255 0.803,0.382 1.317,0.382Z" style="fill:#fff;"/>
                <path d="M227.155,340.995c-0.957,-0 -1.817,-0.221 -2.577,-0.663c-0.761,-0.441 -1.363,-1.08 -1.805,-1.914c-0.442,-0.835 -0.663,-1.841 -0.663,-3.018c0,-1.191 0.238,-2.205 0.714,-3.043c0.476,-0.838 1.106,-1.477 1.889,-1.919c0.783,-0.442 1.629,-0.662 2.537,-0.662c0.706,-0 1.313,0.118 1.819,0.353c0.506,0.236 0.945,0.536 1.315,0.899l-0.896,1.125c-0.268,-0.266 -0.581,-0.477 -0.939,-0.635c-0.357,-0.157 -0.763,-0.236 -1.218,-0.236c-0.64,-0 -1.212,0.173 -1.714,0.519c-0.502,0.346 -0.902,0.826 -1.198,1.441c-0.297,0.615 -0.445,1.334 -0.445,2.158c0,0.816 0.141,1.529 0.421,2.141c0.281,0.612 0.67,1.089 1.168,1.433c0.498,0.343 1.078,0.514 1.741,0.514c0.493,0 0.952,-0.093 1.377,-0.28c0.425,-0.187 0.796,-0.427 1.112,-0.722l0.787,1.111c-0.449,0.422 -0.962,0.761 -1.539,1.016c-0.577,0.255 -1.205,0.382 -1.886,0.382Z" style="fill:#fff;"/>
                <path d="M232.93,340.731l-0,-15.674l1.809,0l0,4.288l-0.065,2.198c0.502,-0.486 1.037,-0.903 1.605,-1.25c0.568,-0.347 1.216,-0.52 1.946,-0.52c1.134,-0 1.961,0.356 2.483,1.068c0.521,0.712 0.782,1.75 0.782,3.114l-0,6.776l-1.81,-0l0,-6.542c0,-1.001 -0.157,-1.725 -0.472,-2.173c-0.315,-0.448 -0.83,-0.672 -1.545,-0.672c-0.547,0 -1.035,0.138 -1.465,0.415c-0.429,0.276 -0.915,0.685 -1.459,1.228l0,7.744l-1.809,-0Z" style="fill:#fff;"/>
                <path d="M244.899,340.731l-0,-10.692l1.804,-0l-0,10.692l-1.804,-0Zm0.902,-12.892c-0.352,-0 -0.642,-0.11 -0.869,-0.33c-0.228,-0.22 -0.341,-0.506 -0.341,-0.858c-0,-0.352 0.113,-0.638 0.341,-0.858c0.227,-0.22 0.517,-0.33 0.869,-0.33c0.352,-0 0.641,0.11 0.869,0.33c0.227,0.22 0.341,0.506 0.341,0.858c-0,0.352 -0.114,0.638 -0.341,0.858c-0.228,0.22 -0.517,0.33 -0.869,0.33Z" style="fill:#fff;"/>
                <path d="M250.317,340.731l0,-10.694l1.495,-0l0.153,1.542l0.06,0c0.514,-0.508 1.058,-0.937 1.632,-1.284c0.574,-0.348 1.226,-0.522 1.955,-0.522c1.134,-0 1.962,0.356 2.483,1.068c0.522,0.712 0.783,1.75 0.783,3.114l-0,6.776l-1.81,0l-0,-6.542c-0,-1.001 -0.158,-1.725 -0.473,-2.173c-0.315,-0.448 -0.83,-0.672 -1.545,-0.672c-0.546,0 -1.035,0.138 -1.464,0.415c-0.429,0.276 -0.916,0.685 -1.459,1.228l-0,7.744l-1.81,-0Z" style="fill:#fff;"/>
                <path d="M266.684,340.995c-0.961,-0 -1.831,-0.222 -2.611,-0.667c-0.78,-0.444 -1.398,-1.084 -1.853,-1.919c-0.455,-0.835 -0.683,-1.842 -0.683,-3.022c0,-1.162 0.232,-2.162 0.696,-3c0.464,-0.837 1.064,-1.482 1.798,-1.934c0.734,-0.451 1.513,-0.677 2.335,-0.677c0.915,-0 1.689,0.207 2.324,0.621c0.634,0.415 1.115,0.997 1.442,1.747c0.327,0.75 0.491,1.633 0.491,2.647c0,0.184 -0.007,0.366 -0.02,0.546c-0.014,0.18 -0.04,0.359 -0.078,0.536l-7.691,-0l-0,-1.426l6.157,0c0,-1.038 -0.224,-1.832 -0.672,-2.381c-0.449,-0.55 -1.09,-0.824 -1.926,-0.824c-0.49,-0 -0.968,0.137 -1.433,0.411c-0.465,0.273 -0.85,0.713 -1.155,1.317c-0.305,0.605 -0.457,1.405 -0.457,2.4c-0,0.907 0.159,1.668 0.478,2.283c0.319,0.615 0.749,1.079 1.289,1.392c0.541,0.314 1.133,0.47 1.775,0.47c0.52,0 1.002,-0.071 1.446,-0.215c0.443,-0.143 0.849,-0.338 1.215,-0.584l0.659,1.186c-0.459,0.318 -0.979,0.58 -1.561,0.785c-0.581,0.205 -1.236,0.308 -1.965,0.308Z" style="fill:#fff;"/>
            </g>
            <g>
                <path d="M174.937,608.544l4.882,-14.439l2.073,0l4.882,14.439l-1.936,0l-2.523,-8.064c-0.263,-0.808 -0.512,-1.614 -0.748,-2.418c-0.235,-0.804 -0.467,-1.622 -0.695,-2.453l-0.088,-0c-0.219,0.84 -0.446,1.66 -0.681,2.46c-0.235,0.799 -0.485,1.603 -0.748,2.411l-2.553,8.064l-1.865,0Zm2.568,-4.396l-0,-1.466l6.648,0l0,1.466l-6.648,0Z" style="fill:#fff;"/>
                <path d="M187.514,608.544l-0,-0.967l5.625,-8.253l-5.003,-0l0,-1.474l7.292,-0l0,0.967l-5.626,8.253l5.814,0l-0,1.474l-8.102,0Z" style="fill:#fff;"/>
                <path d="M200.877,608.808c-1.125,0 -1.95,-0.356 -2.475,-1.067c-0.525,-0.711 -0.788,-1.748 -0.788,-3.112l0,-6.776l1.807,-0l-0,6.539c-0,0.997 0.159,1.72 0.477,2.169c0.318,0.448 0.83,0.673 1.535,0.673c0.543,-0 1.03,-0.143 1.46,-0.429c0.431,-0.285 0.899,-0.743 1.406,-1.373l0,-7.579l1.807,-0l0,10.691l-1.489,-0l-0.156,-1.669l-0.057,0c-0.492,0.58 -1.02,1.047 -1.583,1.402c-0.563,0.354 -1.211,0.531 -1.944,0.531Z" style="fill:#fff;"/>
                <path d="M209.709,608.544l-0,-10.694l1.495,-0l0.152,1.948l0.06,-0c0.365,-0.684 0.808,-1.223 1.331,-1.619c0.523,-0.395 1.093,-0.593 1.71,-0.593c0.236,-0 0.443,0.016 0.624,0.048c0.18,0.032 0.352,0.089 0.517,0.172l-0.398,1.543c-0.153,-0.044 -0.299,-0.077 -0.437,-0.099c-0.138,-0.022 -0.318,-0.033 -0.54,-0.033c-0.451,0 -0.924,0.182 -1.417,0.546c-0.492,0.364 -0.922,1.002 -1.288,1.914l0,6.867l-1.809,0Z" style="fill:#fff;"/>
                <path d="M221.465,608.808c-0.961,0 -1.831,-0.222 -2.611,-0.667c-0.78,-0.444 -1.398,-1.084 -1.853,-1.919c-0.455,-0.835 -0.683,-1.842 -0.683,-3.022c0,-1.162 0.232,-2.162 0.697,-2.999c0.464,-0.838 1.063,-1.483 1.797,-1.935c0.735,-0.451 1.513,-0.677 2.335,-0.677c0.915,-0 1.689,0.207 2.324,0.621c0.634,0.415 1.115,0.997 1.442,1.747c0.328,0.75 0.491,1.633 0.491,2.647c0,0.184 -0.006,0.366 -0.02,0.546c-0.013,0.18 -0.039,0.359 -0.078,0.536l-7.691,-0l-0,-1.426l6.158,0c-0,-1.038 -0.225,-1.832 -0.673,-2.381c-0.448,-0.55 -1.09,-0.824 -1.926,-0.824c-0.49,-0 -0.967,0.137 -1.433,0.411c-0.465,0.273 -0.85,0.713 -1.155,1.317c-0.305,0.605 -0.457,1.405 -0.457,2.4c-0,0.907 0.159,1.668 0.478,2.283c0.319,0.615 0.749,1.079 1.29,1.392c0.54,0.314 1.132,0.471 1.774,0.471c0.521,-0 1.003,-0.072 1.446,-0.216c0.444,-0.143 0.849,-0.338 1.216,-0.584l0.658,1.186c-0.459,0.318 -0.979,0.58 -1.56,0.785c-0.582,0.205 -1.237,0.308 -1.966,0.308Z" style="fill:#fff;"/>
                <path d="M159.6,640.544l-0,-14.439l3.62,0c1.478,0 2.722,0.278 3.732,0.835c1.01,0.556 1.776,1.368 2.296,2.435c0.521,1.067 0.781,2.365 0.781,3.892c-0,1.527 -0.258,2.834 -0.774,3.921c-0.516,1.086 -1.275,1.917 -2.276,2.493c-1.001,0.575 -2.227,0.863 -3.678,0.863l-3.701,-0Zm1.837,-1.507l1.641,0c1.127,0 2.065,-0.228 2.815,-0.684c0.75,-0.456 1.311,-1.112 1.683,-1.969c0.372,-0.856 0.558,-1.895 0.558,-3.117c0,-1.213 -0.186,-2.242 -0.558,-3.086c-0.372,-0.845 -0.933,-1.484 -1.683,-1.918c-0.75,-0.434 -1.688,-0.652 -2.815,-0.652l-1.641,0l0,11.426Z" style="fill:#fff;"/>
                <path d="M175.432,640.808c-0.597,0 -1.133,-0.119 -1.609,-0.358c-0.475,-0.238 -0.85,-0.584 -1.124,-1.038c-0.274,-0.454 -0.411,-1.002 -0.411,-1.644c-0,-1.201 0.528,-2.11 1.584,-2.727c1.056,-0.618 2.723,-1.05 5,-1.296c-0.003,-0.446 -0.067,-0.871 -0.192,-1.276c-0.125,-0.404 -0.348,-0.732 -0.671,-0.983c-0.323,-0.252 -0.775,-0.377 -1.355,-0.377c-0.613,-0 -1.191,0.113 -1.734,0.341c-0.543,0.227 -1.028,0.479 -1.455,0.756l-0.703,-1.24c0.328,-0.221 0.709,-0.438 1.145,-0.65c0.435,-0.213 0.911,-0.387 1.428,-0.523c0.516,-0.136 1.061,-0.204 1.633,-0.204c0.866,-0 1.572,0.181 2.118,0.543c0.546,0.362 0.947,0.873 1.206,1.533c0.258,0.66 0.387,1.436 0.387,2.329l-0,6.55l-1.503,-0l-0.142,-1.273l-0.071,0c-0.516,0.422 -1.066,0.784 -1.651,1.085c-0.586,0.301 -1.212,0.452 -1.88,0.452Zm0.502,-1.507c0.52,0 1.011,-0.115 1.473,-0.347c0.461,-0.231 0.95,-0.573 1.465,-1.025l-0,-2.883c-1.198,0.14 -2.147,0.326 -2.847,0.56c-0.699,0.233 -1.2,0.518 -1.501,0.854c-0.302,0.337 -0.453,0.734 -0.453,1.191c0,0.591 0.182,1.014 0.547,1.268c0.364,0.255 0.803,0.382 1.316,0.382Z" style="fill:#fff;"/>
                <path d="M187.198,640.747c-1.139,0 -1.934,-0.332 -2.383,-0.995c-0.45,-0.664 -0.675,-1.524 -0.675,-2.581l-0,-5.852l-1.591,-0l-0,-1.365l1.672,-0.101l0.223,-3.44l1.516,0l0,3.44l2.895,-0l-0,1.466l-2.895,-0l0,5.886c0,0.648 0.122,1.154 0.366,1.517c0.243,0.364 0.67,0.545 1.28,0.545c0.196,0 0.396,-0.019 0.598,-0.056c0.202,-0.038 0.408,-0.11 0.617,-0.215l0.386,1.281c-0.279,0.137 -0.592,0.25 -0.939,0.338c-0.347,0.088 -0.704,0.132 -1.07,0.132Z" style="fill:#fff;"/>
                <path d="M193.245,640.808c-0.596,0 -1.132,-0.119 -1.608,-0.358c-0.475,-0.238 -0.85,-0.584 -1.125,-1.038c-0.274,-0.454 -0.411,-1.002 -0.411,-1.644c0,-1.201 0.528,-2.11 1.585,-2.727c1.056,-0.618 2.722,-1.05 4.999,-1.296c-0.003,-0.446 -0.067,-0.871 -0.191,-1.276c-0.125,-0.404 -0.349,-0.732 -0.672,-0.983c-0.323,-0.252 -0.774,-0.377 -1.355,-0.377c-0.613,-0 -1.191,0.113 -1.734,0.341c-0.542,0.227 -1.027,0.479 -1.455,0.756l-0.703,-1.24c0.328,-0.221 0.71,-0.438 1.145,-0.65c0.436,-0.213 0.912,-0.387 1.428,-0.523c0.517,-0.136 1.061,-0.204 1.633,-0.204c0.867,-0 1.573,0.181 2.118,0.543c0.546,0.362 0.948,0.873 1.206,1.533c0.258,0.66 0.387,1.436 0.387,2.329l0,6.55l-1.503,-0l-0.142,-1.273l-0.071,0c-0.515,0.422 -1.066,0.784 -1.651,1.085c-0.585,0.301 -1.212,0.452 -1.88,0.452Zm0.503,-1.507c0.52,0 1.01,-0.115 1.472,-0.347c0.462,-0.231 0.95,-0.573 1.465,-1.025l0,-2.883c-1.198,0.14 -2.147,0.326 -2.846,0.56c-0.7,0.233 -1.2,0.518 -1.502,0.854c-0.301,0.337 -0.452,0.734 -0.452,1.191c-0,0.591 0.182,1.014 0.546,1.268c0.364,0.255 0.803,0.382 1.317,0.382Z" style="fill:#fff;"/>
                <path d="M206.428,640.544l0,-14.439l3.62,0c1.478,0 2.722,0.278 3.733,0.835c1.01,0.556 1.775,1.368 2.295,2.435c0.521,1.067 0.781,2.365 0.781,3.892c0,1.527 -0.258,2.834 -0.774,3.921c-0.516,1.086 -1.274,1.917 -2.275,2.493c-1.002,0.575 -2.228,0.863 -3.679,0.863l-3.701,-0Zm1.837,-1.507l1.641,0c1.127,0 2.065,-0.228 2.815,-0.684c0.75,-0.456 1.311,-1.112 1.683,-1.969c0.372,-0.856 0.558,-1.895 0.558,-3.117c0,-1.213 -0.186,-2.242 -0.558,-3.086c-0.372,-0.845 -0.933,-1.484 -1.683,-1.918c-0.75,-0.434 -1.688,-0.652 -2.815,-0.652l-1.641,0l0,11.426Z" style="fill:#fff;"/>
                <path d="M219.789,640.544l0,-10.692l1.804,0l0,10.692l-1.804,0Zm0.902,-12.892c-0.352,0 -0.642,-0.11 -0.869,-0.33c-0.227,-0.22 -0.341,-0.506 -0.341,-0.858c0,-0.352 0.114,-0.638 0.341,-0.858c0.227,-0.22 0.517,-0.33 0.869,-0.33c0.352,0 0.642,0.11 0.869,0.33c0.227,0.22 0.341,0.506 0.341,0.858c0,0.352 -0.114,0.638 -0.341,0.858c-0.227,0.22 -0.517,0.33 -0.869,0.33Z" style="fill:#fff;"/>
                <path d="M228.002,640.808c-0.787,0 -1.527,-0.136 -2.219,-0.408c-0.692,-0.272 -1.282,-0.647 -1.771,-1.125l0.833,-1.055c0.467,0.377 0.954,0.668 1.462,0.872c0.507,0.205 1.092,0.307 1.755,0.307c0.702,-0 1.228,-0.164 1.577,-0.492c0.35,-0.328 0.524,-0.718 0.524,-1.169c0,-0.367 -0.118,-0.672 -0.354,-0.916c-0.236,-0.243 -0.537,-0.45 -0.903,-0.62c-0.365,-0.17 -0.751,-0.328 -1.156,-0.475c-0.532,-0.191 -1.038,-0.415 -1.519,-0.674c-0.481,-0.259 -0.873,-0.583 -1.176,-0.971c-0.303,-0.389 -0.455,-0.875 -0.455,-1.46c0,-0.863 0.327,-1.585 0.981,-2.165c0.653,-0.581 1.556,-0.871 2.708,-0.871c0.669,-0 1.288,0.112 1.857,0.337c0.569,0.225 1.058,0.513 1.468,0.865l-0.833,1.055c-0.374,-0.266 -0.759,-0.473 -1.155,-0.623c-0.396,-0.15 -0.835,-0.225 -1.316,-0.225c-0.675,0 -1.172,0.156 -1.491,0.467c-0.319,0.311 -0.478,0.667 -0.478,1.067c-0,0.328 0.097,0.6 0.291,0.814c0.194,0.215 0.462,0.4 0.804,0.557c0.341,0.156 0.733,0.312 1.174,0.468c0.558,0.204 1.089,0.433 1.594,0.687c0.505,0.255 0.914,0.584 1.228,0.989c0.314,0.405 0.472,0.933 0.472,1.585c-0,0.578 -0.15,1.107 -0.449,1.588c-0.299,0.48 -0.739,0.865 -1.32,1.156c-0.581,0.29 -1.292,0.435 -2.133,0.435Z" style="fill:#fff;"/>
                <path d="M234.409,640.544l0,-15.674l1.794,0l-0,10.599l0.06,0l4.533,-5.619l2.022,-0l-3.566,4.314l4.037,6.38l-1.979,0l-3.117,-5.14l-1.99,2.317l-0,2.823l-1.794,0Z" style="fill:#fff;"/>
            </g>
            <g>
                <path d="M162.715,115.117l7.1,-21.002l3.016,0l7.101,21.002l-2.816,0l-3.67,-11.73c-0.382,-1.175 -0.745,-2.348 -1.087,-3.517c-0.342,-1.169 -0.679,-2.358 -1.011,-3.568l-0.128,0c-0.318,1.223 -0.649,2.415 -0.991,3.578c-0.342,1.163 -0.705,2.332 -1.088,3.507l-3.714,11.73l-2.712,0Zm3.735,-6.394l-0,-2.132l9.67,-0l0,2.132l-9.67,0Z" style="fill:#fff;"/>
                <path d="M181.021,115.117l-0,-1.407l8.183,-12.004l-7.277,0l-0,-2.144l10.606,0l-0,1.407l-8.183,12.004l8.456,0l-0,2.144l-11.785,0Z" style="fill:#fff;"/>
                <path d="M200.471,115.501c-1.636,0 -2.836,-0.517 -3.6,-1.551c-0.763,-1.035 -1.145,-2.544 -1.145,-4.528l-0,-9.856l2.628,0l-0,9.512c-0,1.45 0.231,2.501 0.693,3.154c0.463,0.653 1.207,0.98 2.234,0.98c0.79,-0 1.498,-0.208 2.123,-0.624c0.626,-0.415 1.308,-1.081 2.045,-1.998l0,-11.024l2.629,0l-0,15.551l-2.167,0l-0.226,-2.427l-0.084,-0c-0.716,0.843 -1.483,1.523 -2.302,2.038c-0.818,0.515 -1.761,0.773 -2.828,0.773Z" style="fill:#fff;"/>
                <path d="M213.33,115.117l0,-15.555l2.175,0l0.222,2.833l0.087,0c0.53,-0.994 1.176,-1.778 1.936,-2.354c0.761,-0.575 1.59,-0.863 2.487,-0.863c0.343,0 0.645,0.023 0.907,0.07c0.262,0.046 0.513,0.13 0.753,0.25l-0.579,2.245c-0.223,-0.064 -0.435,-0.112 -0.636,-0.144c-0.201,-0.032 -0.463,-0.048 -0.785,-0.048c-0.657,0 -1.344,0.265 -2.061,0.794c-0.717,0.53 -1.341,1.458 -1.874,2.784l0,9.988l-2.632,0Z" style="fill:#fff;"/>
                <path d="M230.444,115.501c-1.398,0 -2.664,-0.323 -3.798,-0.97c-1.135,-0.646 -2.033,-1.577 -2.695,-2.791c-0.662,-1.214 -0.994,-2.68 -0.994,-4.396c0,-1.69 0.338,-3.145 1.013,-4.363c0.675,-1.218 1.547,-2.156 2.615,-2.813c1.068,-0.657 2.2,-0.986 3.396,-0.986c1.331,0 2.457,0.301 3.38,0.904c0.923,0.603 1.622,1.45 2.098,2.541c0.476,1.091 0.714,2.375 0.714,3.85c0,0.267 -0.009,0.532 -0.029,0.794c-0.02,0.262 -0.057,0.522 -0.113,0.78l-11.188,-0l0,-2.074l8.957,0c-0,-1.51 -0.326,-2.665 -0.978,-3.464c-0.652,-0.799 -1.586,-1.198 -2.801,-1.198c-0.713,-0 -1.408,0.199 -2.085,0.597c-0.676,0.398 -1.236,1.037 -1.68,1.917c-0.443,0.879 -0.665,2.042 -0.665,3.49c-0,1.32 0.232,2.427 0.696,3.321c0.464,0.894 1.089,1.569 1.875,2.025c0.787,0.456 1.647,0.684 2.581,0.684c0.757,0 1.459,-0.104 2.104,-0.313c0.645,-0.208 1.234,-0.491 1.767,-0.849l0.958,1.724c-0.667,0.463 -1.424,0.843 -2.269,1.142c-0.846,0.299 -1.799,0.448 -2.859,0.448Z" style="fill:#fff;"/>
            </g>
            <g>
                <path d="M920.665,308.731l-0,-14.439l1.837,0l-0,12.878l6.307,0l0,1.561l-8.144,0Z" style="fill:#fff;"/>
                <path d="M931.19,308.731l0,-10.692l1.804,-0l0,10.692l-1.804,-0Zm0.902,-12.892c-0.352,-0 -0.641,-0.11 -0.869,-0.33c-0.227,-0.22 -0.341,-0.506 -0.341,-0.858c0,-0.352 0.114,-0.638 0.341,-0.858c0.228,-0.22 0.517,-0.33 0.869,-0.33c0.352,-0 0.642,0.11 0.869,0.33c0.228,0.22 0.341,0.506 0.341,0.858c0,0.352 -0.113,0.638 -0.341,0.858c-0.227,0.22 -0.517,0.33 -0.869,0.33Z" style="fill:#fff;"/>
                <path d="M936.615,308.731l-0,-10.694l1.495,-0l0.153,1.542l0.06,0c0.514,-0.508 1.058,-0.937 1.632,-1.284c0.574,-0.348 1.226,-0.522 1.955,-0.522c1.134,-0 1.962,0.356 2.483,1.068c0.522,0.712 0.782,1.75 0.782,3.114l0,6.776l-1.81,0l0,-6.542c0,-1.001 -0.157,-1.725 -0.472,-2.173c-0.315,-0.448 -0.83,-0.672 -1.545,-0.672c-0.547,0 -1.035,0.138 -1.464,0.415c-0.43,0.276 -0.916,0.685 -1.46,1.228l0,7.744l-1.809,-0Z" style="fill:#fff;"/>
                <path d="M952.807,308.995c-0.874,-0 -1.688,-0.22 -2.442,-0.661c-0.755,-0.441 -1.362,-1.079 -1.823,-1.914c-0.46,-0.834 -0.69,-1.842 -0.69,-3.022c-0,-1.19 0.23,-2.204 0.69,-3.044c0.461,-0.839 1.068,-1.479 1.823,-1.92c0.754,-0.441 1.568,-0.661 2.442,-0.661c0.874,-0 1.686,0.22 2.436,0.661c0.749,0.441 1.357,1.081 1.822,1.92c0.465,0.84 0.698,1.854 0.698,3.044c-0,1.18 -0.233,2.188 -0.698,3.022c-0.465,0.835 -1.073,1.473 -1.822,1.914c-0.75,0.441 -1.562,0.661 -2.436,0.661Zm0,-1.507c0.613,0 1.153,-0.17 1.619,-0.51c0.467,-0.341 0.828,-0.818 1.083,-1.433c0.256,-0.615 0.384,-1.33 0.384,-2.147c-0,-0.817 -0.128,-1.535 -0.384,-2.154c-0.255,-0.619 -0.616,-1.102 -1.083,-1.447c-0.466,-0.345 -1.006,-0.518 -1.619,-0.518c-0.613,0 -1.151,0.173 -1.612,0.518c-0.462,0.345 -0.823,0.828 -1.083,1.447c-0.261,0.619 -0.391,1.337 -0.391,2.154c0,0.817 0.13,1.532 0.391,2.147c0.26,0.615 0.621,1.092 1.083,1.433c0.461,0.34 0.999,0.51 1.612,0.51Z" style="fill:#fff;"/>
                <path d="M964.225,308.995c-1.336,-0 -2.404,-0.489 -3.204,-1.468c-0.8,-0.978 -1.2,-2.355 -1.2,-4.129c-0,-1.156 0.216,-2.154 0.649,-2.994c0.432,-0.839 1,-1.488 1.703,-1.945c0.703,-0.457 1.462,-0.686 2.275,-0.686c0.629,-0 1.17,0.108 1.624,0.325c0.453,0.216 0.911,0.521 1.373,0.914l-0.077,-1.834l0,-4.121l1.81,0l-0,15.674l-1.495,0l-0.153,-1.262l-0.06,-0c-0.413,0.413 -0.897,0.77 -1.451,1.073c-0.554,0.302 -1.152,0.453 -1.794,0.453Zm0.4,-1.523c0.498,0 0.969,-0.122 1.414,-0.366c0.445,-0.245 0.888,-0.609 1.329,-1.093l0,-5.606c-0.451,-0.409 -0.888,-0.696 -1.31,-0.862c-0.421,-0.166 -0.854,-0.249 -1.298,-0.249c-0.57,-0 -1.086,0.17 -1.548,0.51c-0.461,0.34 -0.831,0.818 -1.107,1.434c-0.277,0.615 -0.415,1.329 -0.415,2.142c0,1.279 0.256,2.281 0.767,3.004c0.511,0.724 1.234,1.086 2.168,1.086Z" style="fill:#fff;"/>
                <path d="M977.134,308.995c-0.961,-0 -1.832,-0.222 -2.611,-0.667c-0.78,-0.444 -1.398,-1.084 -1.853,-1.919c-0.456,-0.835 -0.683,-1.842 -0.683,-3.022c-0,-1.162 0.232,-2.162 0.696,-3c0.464,-0.837 1.064,-1.482 1.798,-1.934c0.734,-0.451 1.513,-0.677 2.335,-0.677c0.914,-0 1.689,0.207 2.323,0.621c0.635,0.415 1.116,0.997 1.443,1.747c0.327,0.75 0.491,1.633 0.491,2.647c-0,0.184 -0.007,0.366 -0.02,0.546c-0.014,0.18 -0.04,0.359 -0.078,0.536l-7.692,-0l0,-1.426l6.158,0c0,-1.038 -0.224,-1.832 -0.672,-2.381c-0.449,-0.55 -1.091,-0.824 -1.926,-0.824c-0.49,-0 -0.968,0.137 -1.433,0.411c-0.465,0.273 -0.85,0.713 -1.155,1.317c-0.305,0.605 -0.458,1.405 -0.458,2.4c0,0.907 0.16,1.668 0.479,2.283c0.319,0.615 0.748,1.079 1.289,1.392c0.541,0.314 1.132,0.47 1.775,0.47c0.52,0 1.002,-0.071 1.446,-0.215c0.443,-0.143 0.848,-0.338 1.215,-0.584l0.659,1.186c-0.459,0.318 -0.98,0.58 -1.561,0.785c-0.581,0.205 -1.236,0.308 -1.965,0.308Z" style="fill:#fff;"/>
                <path d="M913.689,340.731l0,-10.692l1.804,-0l0,10.692l-1.803,-0Zm0.902,-12.892c-0.352,-0 -0.642,-0.11 -0.87,-0.33c-0.227,-0.22 -0.341,-0.506 -0.341,-0.858c0,-0.352 0.114,-0.638 0.341,-0.858c0.228,-0.22 0.518,-0.33 0.87,-0.33c0.351,-0 0.641,0.11 0.869,0.33c0.227,0.22 0.341,0.506 0.341,0.858c-0,0.352 -0.114,0.638 -0.341,0.858c-0.228,0.22 -0.518,0.33 -0.87,0.33Z" style="fill:#fff;"/>
                <path d="M919.11,340.731l0,-10.694l1.495,-0l0.153,1.542l0.06,0c0.514,-0.508 1.058,-0.937 1.632,-1.284c0.574,-0.348 1.226,-0.522 1.955,-0.522c1.134,-0 1.962,0.356 2.483,1.068c0.522,0.712 0.783,1.75 0.783,3.114l-0,6.776l-1.81,0l-0,-6.542c-0,-1.001 -0.158,-1.725 -0.473,-2.173c-0.315,-0.448 -0.83,-0.672 -1.545,-0.672c-0.546,0 -1.034,0.138 -1.464,0.415c-0.429,0.276 -0.916,0.685 -1.459,1.228l-0,7.744l-1.81,-0Z" style="fill:#fff;"/>
                <path d="M933.942,340.995c-0.788,-0 -1.527,-0.136 -2.219,-0.408c-0.692,-0.272 -1.283,-0.647 -1.771,-1.125l0.833,-1.055c0.467,0.377 0.954,0.668 1.461,0.872c0.507,0.205 1.093,0.307 1.756,0.307c0.702,-0 1.228,-0.164 1.577,-0.492c0.349,-0.328 0.524,-0.718 0.524,-1.169c0,-0.367 -0.118,-0.672 -0.354,-0.916c-0.236,-0.243 -0.537,-0.45 -0.903,-0.62c-0.365,-0.17 -0.751,-0.328 -1.156,-0.475c-0.532,-0.191 -1.039,-0.415 -1.519,-0.674c-0.481,-0.259 -0.873,-0.583 -1.176,-0.971c-0.303,-0.389 -0.455,-0.875 -0.455,-1.46c-0,-0.863 0.327,-1.585 0.981,-2.165c0.653,-0.581 1.556,-0.871 2.708,-0.871c0.669,-0 1.288,0.112 1.857,0.337c0.568,0.225 1.058,0.513 1.467,0.865l-0.832,1.055c-0.374,-0.266 -0.759,-0.473 -1.155,-0.623c-0.396,-0.15 -0.835,-0.225 -1.317,-0.225c-0.675,0 -1.171,0.156 -1.49,0.467c-0.319,0.311 -0.479,0.667 -0.479,1.067c0,0.328 0.097,0.6 0.292,0.814c0.194,0.215 0.462,0.4 0.803,0.557c0.342,0.156 0.734,0.312 1.175,0.468c0.557,0.204 1.089,0.433 1.593,0.687c0.505,0.255 0.915,0.584 1.229,0.989c0.314,0.405 0.471,0.933 0.471,1.585c0,0.578 -0.149,1.107 -0.448,1.588c-0.299,0.48 -0.739,0.865 -1.32,1.156c-0.581,0.29 -1.292,0.435 -2.133,0.435Z" style="fill:#fff;"/>
                <path d="M943.29,340.934c-1.139,0 -1.933,-0.332 -2.383,-0.995c-0.45,-0.664 -0.674,-1.524 -0.674,-2.581l-0,-5.852l-1.592,-0l0,-1.365l1.672,-0.101l0.223,-3.44l1.517,0l0,3.44l2.894,-0l0,1.466l-2.894,-0l0,5.886c0,0.648 0.122,1.154 0.366,1.517c0.243,0.364 0.67,0.545 1.28,0.545c0.196,0 0.395,-0.019 0.597,-0.056c0.202,-0.038 0.408,-0.11 0.618,-0.215l0.385,1.281c-0.278,0.137 -0.591,0.25 -0.938,0.338c-0.348,0.088 -0.705,0.132 -1.071,0.132Z" style="fill:#fff;"/>
                <path d="M949.35,340.995c-0.597,-0 -1.133,-0.119 -1.608,-0.358c-0.476,-0.238 -0.851,-0.584 -1.125,-1.038c-0.274,-0.454 -0.411,-1.002 -0.411,-1.644c-0,-1.201 0.528,-2.11 1.584,-2.727c1.056,-0.618 2.723,-1.05 5,-1.296c-0.003,-0.446 -0.067,-0.871 -0.192,-1.276c-0.125,-0.404 -0.348,-0.732 -0.671,-0.983c-0.323,-0.252 -0.775,-0.377 -1.355,-0.377c-0.613,-0 -1.191,0.113 -1.734,0.341c-0.543,0.227 -1.028,0.479 -1.455,0.756l-0.703,-1.24c0.328,-0.221 0.709,-0.438 1.145,-0.65c0.435,-0.213 0.911,-0.387 1.428,-0.523c0.516,-0.136 1.061,-0.204 1.633,-0.204c0.866,-0 1.572,0.181 2.118,0.543c0.546,0.362 0.948,0.873 1.206,1.533c0.258,0.66 0.387,1.436 0.387,2.329l-0,6.55l-1.503,-0l-0.142,-1.273l-0.071,0c-0.516,0.422 -1.066,0.784 -1.651,1.085c-0.586,0.301 -1.212,0.452 -1.88,0.452Zm0.502,-1.507c0.52,0 1.011,-0.115 1.473,-0.347c0.461,-0.231 0.95,-0.573 1.465,-1.025l-0,-2.883c-1.198,0.14 -2.147,0.326 -2.847,0.56c-0.699,0.233 -1.2,0.518 -1.501,0.854c-0.302,0.337 -0.453,0.734 -0.453,1.191c0,0.591 0.182,1.014 0.547,1.268c0.364,0.255 0.803,0.382 1.316,0.382Z" style="fill:#fff;"/>
                <path d="M957.978,340.731l-0,-10.694l1.495,-0l0.153,1.542l0.06,0c0.514,-0.508 1.058,-0.937 1.632,-1.284c0.574,-0.348 1.226,-0.522 1.955,-0.522c1.134,-0 1.962,0.356 2.483,1.068c0.522,0.712 0.782,1.75 0.782,3.114l0,6.776l-1.809,0l-0,-6.542c-0,-1.001 -0.158,-1.725 -0.473,-2.173c-0.315,-0.448 -0.83,-0.672 -1.545,-0.672c-0.547,0 -1.035,0.138 -1.464,0.415c-0.429,0.276 -0.916,0.685 -1.46,1.228l0,7.744l-1.809,-0Z" style="fill:#fff;"/>
                <path d="M974.259,340.995c-0.958,-0 -1.817,-0.221 -2.578,-0.663c-0.761,-0.441 -1.362,-1.08 -1.804,-1.914c-0.442,-0.835 -0.663,-1.841 -0.663,-3.018c-0,-1.191 0.238,-2.205 0.714,-3.043c0.476,-0.838 1.105,-1.477 1.889,-1.919c0.783,-0.442 1.629,-0.662 2.537,-0.662c0.706,-0 1.312,0.118 1.819,0.353c0.506,0.236 0.944,0.536 1.315,0.899l-0.896,1.125c-0.269,-0.266 -0.582,-0.477 -0.939,-0.635c-0.357,-0.157 -0.764,-0.236 -1.219,-0.236c-0.64,-0 -1.211,0.173 -1.713,0.519c-0.503,0.346 -0.902,0.826 -1.198,1.441c-0.297,0.615 -0.445,1.334 -0.445,2.158c-0,0.816 0.14,1.529 0.421,2.141c0.28,0.612 0.67,1.089 1.168,1.433c0.497,0.343 1.078,0.514 1.741,0.514c0.493,0 0.952,-0.093 1.377,-0.28c0.425,-0.187 0.796,-0.427 1.112,-0.722l0.787,1.111c-0.449,0.422 -0.962,0.761 -1.539,1.016c-0.577,0.255 -1.206,0.382 -1.886,0.382Z" style="fill:#fff;"/>
                <path d="M983.902,340.995c-0.961,-0 -1.832,-0.222 -2.612,-0.667c-0.78,-0.444 -1.397,-1.084 -1.853,-1.919c-0.455,-0.835 -0.682,-1.842 -0.682,-3.022c-0,-1.162 0.232,-2.162 0.696,-3c0.464,-0.837 1.063,-1.482 1.798,-1.934c0.734,-0.451 1.512,-0.677 2.335,-0.677c0.914,-0 1.689,0.207 2.323,0.621c0.635,0.415 1.116,0.997 1.443,1.747c0.327,0.75 0.491,1.633 0.491,2.647c-0,0.184 -0.007,0.366 -0.021,0.546c-0.013,0.18 -0.039,0.359 -0.077,0.536l-7.692,-0l0,-1.426l6.158,0c-0,-1.038 -0.224,-1.832 -0.673,-2.381c-0.448,-0.55 -1.09,-0.824 -1.925,-0.824c-0.49,-0 -0.968,0.137 -1.433,0.411c-0.466,0.273 -0.851,0.713 -1.155,1.317c-0.305,0.605 -0.458,1.405 -0.458,2.4c0,0.907 0.16,1.668 0.478,2.283c0.319,0.615 0.749,1.079 1.29,1.392c0.541,0.314 1.132,0.47 1.775,0.47c0.52,0 1.002,-0.071 1.445,-0.215c0.444,-0.143 0.849,-0.338 1.216,-0.584l0.658,1.186c-0.459,0.318 -0.979,0.58 -1.56,0.785c-0.581,0.205 -1.236,0.308 -1.965,0.308Z" style="fill:#fff;"/>
            </g>
            <g>
                <path d="M920.945,598.088l-0,-14.439l1.837,0l-0,12.878l6.307,0l0,1.561l-8.144,0Z" style="fill:#fff;"/>
                <path d="M931.47,598.088l0,-10.692l1.804,0l0,10.692l-1.804,0Zm0.902,-12.892c-0.352,0 -0.641,-0.11 -0.869,-0.33c-0.227,-0.22 -0.341,-0.506 -0.341,-0.858c0,-0.352 0.114,-0.638 0.341,-0.858c0.228,-0.22 0.517,-0.33 0.869,-0.33c0.352,0 0.642,0.11 0.869,0.33c0.228,0.22 0.341,0.506 0.341,0.858c0,0.352 -0.113,0.638 -0.341,0.858c-0.227,0.22 -0.517,0.33 -0.869,0.33Z" style="fill:#fff;"/>
                <path d="M936.895,598.088l-0,-10.694l1.495,-0l0.153,1.542l0.06,0c0.514,-0.508 1.058,-0.937 1.632,-1.284c0.574,-0.348 1.226,-0.522 1.955,-0.522c1.134,-0 1.962,0.356 2.483,1.068c0.522,0.712 0.782,1.75 0.782,3.114l0,6.776l-1.81,0l0,-6.542c0,-1.001 -0.157,-1.725 -0.472,-2.173c-0.315,-0.448 -0.83,-0.672 -1.545,-0.672c-0.547,0 -1.035,0.138 -1.464,0.415c-0.43,0.276 -0.916,0.685 -1.46,1.228l0,7.744l-1.809,0Z" style="fill:#fff;"/>
                <path d="M953.087,598.352c-0.874,0 -1.688,-0.22 -2.442,-0.661c-0.755,-0.441 -1.362,-1.079 -1.823,-1.914c-0.46,-0.834 -0.69,-1.842 -0.69,-3.022c-0,-1.19 0.23,-2.204 0.69,-3.043c0.461,-0.84 1.068,-1.48 1.823,-1.921c0.754,-0.441 1.568,-0.661 2.442,-0.661c0.874,-0 1.686,0.22 2.436,0.661c0.749,0.441 1.357,1.081 1.822,1.921c0.465,0.839 0.698,1.853 0.698,3.043c-0,1.18 -0.233,2.188 -0.698,3.022c-0.465,0.835 -1.073,1.473 -1.822,1.914c-0.75,0.441 -1.562,0.661 -2.436,0.661Zm0,-1.507c0.613,0 1.153,-0.17 1.619,-0.51c0.467,-0.341 0.828,-0.818 1.083,-1.433c0.256,-0.615 0.384,-1.33 0.384,-2.147c-0,-0.817 -0.128,-1.535 -0.384,-2.154c-0.255,-0.619 -0.616,-1.102 -1.083,-1.447c-0.466,-0.345 -1.006,-0.518 -1.619,-0.518c-0.613,0 -1.151,0.173 -1.612,0.518c-0.462,0.345 -0.823,0.828 -1.083,1.447c-0.261,0.619 -0.391,1.337 -0.391,2.154c0,0.817 0.13,1.533 0.391,2.147c0.26,0.615 0.621,1.092 1.083,1.433c0.461,0.34 0.999,0.51 1.612,0.51Z" style="fill:#fff;"/>
                <path d="M964.505,598.352c-1.336,0 -2.404,-0.489 -3.204,-1.468c-0.8,-0.978 -1.2,-2.355 -1.2,-4.129c-0,-1.156 0.216,-2.154 0.649,-2.994c0.432,-0.839 1,-1.488 1.703,-1.945c0.703,-0.457 1.462,-0.686 2.275,-0.686c0.629,-0 1.17,0.108 1.624,0.325c0.453,0.216 0.911,0.521 1.373,0.914l-0.077,-1.834l0,-4.121l1.81,0l-0,15.674l-1.495,0l-0.153,-1.262l-0.06,-0c-0.413,0.413 -0.897,0.77 -1.451,1.073c-0.554,0.302 -1.152,0.453 -1.794,0.453Zm0.4,-1.523c0.498,0 0.969,-0.122 1.414,-0.366c0.445,-0.245 0.888,-0.609 1.329,-1.093l0,-5.606c-0.451,-0.409 -0.888,-0.696 -1.31,-0.862c-0.421,-0.166 -0.854,-0.249 -1.298,-0.249c-0.57,-0 -1.086,0.17 -1.548,0.51c-0.461,0.34 -0.831,0.818 -1.107,1.434c-0.277,0.615 -0.415,1.329 -0.415,2.142c0,1.279 0.256,2.281 0.767,3.004c0.511,0.724 1.234,1.086 2.168,1.086Z" style="fill:#fff;"/>
                <path d="M977.414,598.352c-0.961,0 -1.832,-0.222 -2.611,-0.667c-0.78,-0.444 -1.398,-1.084 -1.853,-1.919c-0.456,-0.835 -0.683,-1.842 -0.683,-3.022c-0,-1.162 0.232,-2.162 0.696,-2.999c0.464,-0.838 1.064,-1.483 1.798,-1.935c0.734,-0.451 1.513,-0.677 2.335,-0.677c0.914,-0 1.689,0.207 2.323,0.621c0.635,0.415 1.116,0.997 1.443,1.747c0.327,0.75 0.491,1.633 0.491,2.647c-0,0.184 -0.007,0.366 -0.02,0.546c-0.014,0.18 -0.04,0.359 -0.078,0.536l-7.692,-0l0,-1.426l6.158,0c0,-1.038 -0.224,-1.832 -0.672,-2.381c-0.449,-0.55 -1.091,-0.824 -1.926,-0.824c-0.49,-0 -0.968,0.137 -1.433,0.411c-0.465,0.273 -0.85,0.713 -1.155,1.317c-0.305,0.605 -0.458,1.405 -0.458,2.4c0,0.907 0.16,1.668 0.479,2.283c0.319,0.615 0.748,1.079 1.289,1.392c0.541,0.314 1.132,0.471 1.775,0.471c0.52,-0 1.002,-0.072 1.446,-0.216c0.443,-0.143 0.848,-0.338 1.215,-0.584l0.659,1.186c-0.459,0.318 -0.98,0.58 -1.561,0.785c-0.581,0.205 -1.236,0.308 -1.965,0.308Z" style="fill:#fff;"/>
                <path d="M889.536,630.088l-0,-14.439l4.286,0c0.979,0 1.841,0.119 2.589,0.357c0.747,0.238 1.33,0.615 1.749,1.133c0.419,0.518 0.629,1.2 0.629,2.046c-0,0.741 -0.181,1.394 -0.543,1.959c-0.361,0.564 -0.884,0.957 -1.567,1.177l-0,0.088c0.898,0.163 1.611,0.525 2.142,1.086c0.53,0.562 0.795,1.33 0.795,2.304c-0,0.962 -0.232,1.761 -0.694,2.397c-0.462,0.636 -1.105,1.111 -1.928,1.423c-0.823,0.313 -1.771,0.469 -2.844,0.469l-4.614,0Zm1.837,-8.295l2.138,-0c1.228,-0 2.114,-0.213 2.657,-0.639c0.544,-0.426 0.816,-1.003 0.816,-1.731c-0,-0.847 -0.286,-1.445 -0.858,-1.794c-0.571,-0.348 -1.415,-0.522 -2.531,-0.522l-2.222,-0l0,4.686Zm0,6.837l2.513,0c1.24,0 2.204,-0.229 2.892,-0.688c0.688,-0.459 1.033,-1.174 1.033,-2.147c-0,-0.89 -0.338,-1.544 -1.012,-1.964c-0.675,-0.419 -1.646,-0.629 -2.913,-0.629l-2.513,0l0,5.428Z" style="fill:#fff;"/>
                <path d="M904.19,630.291c-0.454,0 -0.822,-0.093 -1.105,-0.278c-0.283,-0.185 -0.49,-0.457 -0.62,-0.815c-0.13,-0.358 -0.195,-0.796 -0.195,-1.313l0,-13.465l1.807,-0l0,13.597c0,0.288 0.053,0.488 0.159,0.6c0.106,0.112 0.232,0.168 0.379,0.168c0.053,-0 0.105,-0.004 0.157,-0.011c0.051,-0.008 0.121,-0.019 0.209,-0.033l0.253,1.364c-0.124,0.053 -0.273,0.097 -0.446,0.133c-0.174,0.035 -0.373,0.053 -0.598,0.053Z" style="fill:#fff;"/>
                <path d="M912.018,630.352c-0.874,0 -1.688,-0.22 -2.443,-0.661c-0.754,-0.441 -1.362,-1.079 -1.822,-1.914c-0.461,-0.834 -0.691,-1.842 -0.691,-3.022c0,-1.19 0.23,-2.204 0.691,-3.043c0.46,-0.84 1.068,-1.48 1.822,-1.921c0.755,-0.441 1.569,-0.661 2.443,-0.661c0.873,-0 1.685,0.22 2.435,0.661c0.75,0.441 1.357,1.081 1.822,1.921c0.466,0.839 0.698,1.853 0.698,3.043c0,1.18 -0.232,2.188 -0.698,3.022c-0.465,0.835 -1.072,1.473 -1.822,1.914c-0.75,0.441 -1.562,0.661 -2.435,0.661Zm-0,-1.507c0.613,0 1.152,-0.17 1.619,-0.51c0.466,-0.341 0.827,-0.818 1.083,-1.433c0.255,-0.615 0.383,-1.33 0.383,-2.147c0,-0.817 -0.128,-1.535 -0.383,-2.154c-0.256,-0.619 -0.617,-1.102 -1.083,-1.447c-0.467,-0.345 -1.006,-0.518 -1.619,-0.518c-0.614,0 -1.151,0.173 -1.613,0.518c-0.462,0.345 -0.823,0.828 -1.083,1.447c-0.26,0.619 -0.39,1.337 -0.39,2.154c-0,0.817 0.13,1.533 0.39,2.147c0.26,0.615 0.621,1.092 1.083,1.433c0.462,0.34 0.999,0.51 1.613,0.51Z" style="fill:#fff;"/>
                <path d="M924.011,630.352c-0.958,0 -1.817,-0.221 -2.578,-0.663c-0.76,-0.441 -1.362,-1.08 -1.804,-1.914c-0.442,-0.835 -0.663,-1.841 -0.663,-3.018c-0,-1.191 0.238,-2.205 0.714,-3.043c0.476,-0.838 1.105,-1.477 1.889,-1.919c0.783,-0.442 1.629,-0.662 2.537,-0.662c0.706,-0 1.312,0.118 1.819,0.353c0.506,0.236 0.945,0.536 1.315,0.899l-0.896,1.125c-0.268,-0.266 -0.581,-0.477 -0.939,-0.635c-0.357,-0.157 -0.763,-0.236 -1.219,-0.236c-0.64,0 -1.211,0.173 -1.713,0.519c-0.502,0.346 -0.902,0.826 -1.198,1.441c-0.297,0.615 -0.445,1.334 -0.445,2.158c0,0.816 0.14,1.529 0.421,2.141c0.281,0.612 0.67,1.089 1.168,1.433c0.498,0.343 1.078,0.514 1.741,0.514c0.493,0 0.952,-0.093 1.377,-0.28c0.425,-0.187 0.796,-0.427 1.112,-0.722l0.787,1.111c-0.449,0.422 -0.962,0.761 -1.539,1.016c-0.577,0.255 -1.205,0.382 -1.886,0.382Z" style="fill:#fff;"/>
                <path d="M929.756,630.088l-0,-15.674l1.793,0l0,10.599l0.06,0l4.533,-5.619l2.023,-0l-3.566,4.314l4.036,6.38l-1.978,0l-3.118,-5.14l-1.99,2.317l0,2.823l-1.793,0Z" style="fill:#fff;"/>
                <path d="M949.182,630.352c-1.022,0 -1.96,-0.193 -2.813,-0.578c-0.854,-0.386 -1.599,-0.91 -2.238,-1.574l1.035,-1.184c0.513,0.531 1.125,0.95 1.834,1.259c0.71,0.308 1.448,0.462 2.214,0.462c0.952,-0 1.693,-0.216 2.224,-0.647c0.53,-0.431 0.795,-0.997 0.795,-1.7c-0,-0.494 -0.107,-0.89 -0.322,-1.187c-0.214,-0.297 -0.501,-0.547 -0.861,-0.75c-0.36,-0.204 -0.769,-0.405 -1.226,-0.603l-2.074,-0.907c-0.458,-0.201 -0.911,-0.459 -1.36,-0.772c-0.45,-0.313 -0.822,-0.709 -1.119,-1.188c-0.296,-0.479 -0.445,-1.067 -0.445,-1.766c0,-0.738 0.195,-1.394 0.585,-1.969c0.39,-0.574 0.926,-1.028 1.61,-1.362c0.683,-0.334 1.467,-0.501 2.35,-0.501c0.875,0 1.678,0.164 2.409,0.493c0.732,0.328 1.346,0.747 1.843,1.255l-0.979,1.185c-0.456,-0.402 -0.956,-0.722 -1.499,-0.961c-0.544,-0.238 -1.135,-0.357 -1.774,-0.357c-0.806,0 -1.457,0.19 -1.95,0.569c-0.494,0.379 -0.741,0.892 -0.741,1.539c-0,0.461 0.119,0.838 0.357,1.131c0.238,0.293 0.544,0.535 0.918,0.724c0.373,0.19 0.745,0.368 1.115,0.535l2.058,0.89c0.573,0.244 1.084,0.53 1.532,0.857c0.447,0.326 0.8,0.73 1.057,1.21c0.257,0.48 0.386,1.078 0.386,1.794c-0,0.76 -0.196,1.451 -0.587,2.074c-0.391,0.623 -0.956,1.116 -1.694,1.481c-0.739,0.365 -1.619,0.548 -2.64,0.548Z" style="fill:#fff;"/>
                <path d="M959.65,630.291c-1.139,0 -1.934,-0.332 -2.383,-0.995c-0.45,-0.664 -0.675,-1.524 -0.675,-2.581l0,-5.852l-1.591,-0l-0,-1.365l1.672,-0.101l0.223,-3.44l1.517,0l-0,3.44l2.894,-0l-0,1.466l-2.894,-0l-0,5.886c-0,0.648 0.121,1.154 0.365,1.517c0.244,0.364 0.67,0.545 1.28,0.545c0.197,0 0.396,-0.019 0.598,-0.056c0.202,-0.038 0.408,-0.11 0.618,-0.215l0.385,1.281c-0.279,0.137 -0.592,0.25 -0.939,0.338c-0.347,0.088 -0.704,0.132 -1.07,0.132Z" style="fill:#fff;"/>
                <path d="M967.632,630.352c-0.874,0 -1.688,-0.22 -2.443,-0.661c-0.754,-0.441 -1.362,-1.079 -1.822,-1.914c-0.46,-0.834 -0.691,-1.842 -0.691,-3.022c0,-1.19 0.231,-2.204 0.691,-3.043c0.46,-0.84 1.068,-1.48 1.822,-1.921c0.755,-0.441 1.569,-0.661 2.443,-0.661c0.874,-0 1.686,0.22 2.435,0.661c0.75,0.441 1.358,1.081 1.823,1.921c0.465,0.839 0.697,1.853 0.697,3.043c0,1.18 -0.232,2.188 -0.697,3.022c-0.465,0.835 -1.073,1.473 -1.823,1.914c-0.749,0.441 -1.561,0.661 -2.435,0.661Zm-0,-1.507c0.613,0 1.153,-0.17 1.619,-0.51c0.466,-0.341 0.827,-0.818 1.083,-1.433c0.256,-0.615 0.383,-1.33 0.383,-2.147c0,-0.817 -0.127,-1.535 -0.383,-2.154c-0.256,-0.619 -0.617,-1.102 -1.083,-1.447c-0.466,-0.345 -1.006,-0.518 -1.619,-0.518c-0.613,0 -1.151,0.173 -1.613,0.518c-0.461,0.345 -0.822,0.828 -1.083,1.447c-0.26,0.619 -0.39,1.337 -0.39,2.154c0,0.817 0.13,1.533 0.39,2.147c0.261,0.615 0.622,1.092 1.083,1.433c0.462,0.34 1,0.51 1.613,0.51Z" style="fill:#fff;"/>
                <path d="M975.372,630.088l-0,-10.694l1.495,-0l0.153,1.948l0.06,-0c0.364,-0.684 0.808,-1.223 1.331,-1.619c0.523,-0.395 1.093,-0.593 1.71,-0.593c0.235,-0 0.443,0.016 0.623,0.048c0.18,0.032 0.353,0.089 0.518,0.172l-0.398,1.543c-0.154,-0.044 -0.3,-0.077 -0.438,-0.099c-0.138,-0.022 -0.318,-0.033 -0.539,-0.033c-0.452,0 -0.924,0.182 -1.417,0.546c-0.493,0.364 -0.923,1.002 -1.289,1.914l0,6.867l-1.809,0Z" style="fill:#fff;"/>
                <path d="M985.012,630.352c-0.597,0 -1.133,-0.119 -1.608,-0.358c-0.476,-0.238 -0.851,-0.584 -1.125,-1.038c-0.274,-0.454 -0.411,-1.002 -0.411,-1.644c-0,-1.201 0.528,-2.11 1.584,-2.727c1.056,-0.618 2.723,-1.05 5,-1.296c-0.003,-0.446 -0.067,-0.871 -0.192,-1.276c-0.125,-0.404 -0.348,-0.732 -0.671,-0.983c-0.323,-0.252 -0.775,-0.377 -1.355,-0.377c-0.613,-0 -1.191,0.113 -1.734,0.341c-0.543,0.227 -1.028,0.479 -1.455,0.756l-0.703,-1.24c0.328,-0.221 0.709,-0.438 1.145,-0.65c0.435,-0.213 0.911,-0.387 1.428,-0.523c0.517,-0.136 1.061,-0.204 1.633,-0.204c0.866,-0 1.572,0.181 2.118,0.543c0.546,0.362 0.948,0.873 1.206,1.533c0.258,0.66 0.387,1.436 0.387,2.329l-0,6.55l-1.503,0l-0.142,-1.273l-0.071,0c-0.516,0.422 -1.066,0.784 -1.651,1.085c-0.586,0.301 -1.212,0.452 -1.88,0.452Zm0.503,-1.507c0.519,0 1.01,-0.115 1.472,-0.347c0.462,-0.231 0.95,-0.573 1.465,-1.025l-0,-2.883c-1.198,0.14 -2.147,0.326 -2.847,0.56c-0.699,0.233 -1.2,0.518 -1.501,0.854c-0.302,0.337 -0.453,0.734 -0.453,1.191c0,0.591 0.182,1.014 0.547,1.268c0.364,0.255 0.803,0.382 1.317,0.382Z" style="fill:#fff;"/>
                <path d="M997.223,635.009c-0.873,0 -1.643,-0.112 -2.31,-0.337c-0.667,-0.225 -1.186,-0.55 -1.558,-0.973c-0.371,-0.424 -0.557,-0.943 -0.557,-1.557c-0,-0.464 0.139,-0.903 0.417,-1.317c0.277,-0.414 0.661,-0.781 1.151,-1.101l-0,-0.088c-0.27,-0.177 -0.497,-0.409 -0.681,-0.696c-0.184,-0.287 -0.276,-0.639 -0.276,-1.056c-0,-0.447 0.128,-0.842 0.383,-1.185c0.255,-0.344 0.52,-0.61 0.794,-0.8l-0,-0.088c-0.35,-0.283 -0.668,-0.674 -0.955,-1.175c-0.287,-0.5 -0.43,-1.066 -0.43,-1.697c-0,-0.779 0.184,-1.454 0.553,-2.025c0.368,-0.571 0.856,-1.011 1.464,-1.32c0.607,-0.309 1.272,-0.464 1.996,-0.464c0.298,-0 0.577,0.024 0.836,0.073c0.259,0.048 0.483,0.112 0.673,0.191l3.731,-0l-0,1.393l-2.228,0l-0,0.088c0.26,0.232 0.476,0.523 0.647,0.876c0.171,0.352 0.256,0.77 0.256,1.253c0,0.758 -0.175,1.413 -0.524,1.964c-0.35,0.551 -0.821,0.977 -1.412,1.277c-0.591,0.3 -1.251,0.451 -1.979,0.451c-0.26,-0 -0.528,-0.032 -0.805,-0.096c-0.277,-0.064 -0.54,-0.153 -0.789,-0.267c-0.186,0.158 -0.346,0.333 -0.48,0.525c-0.134,0.192 -0.201,0.438 -0.201,0.738c-0,0.337 0.135,0.615 0.405,0.833c0.269,0.219 0.759,0.328 1.468,0.328l2.081,-0c1.249,-0 2.184,0.203 2.805,0.608c0.621,0.406 0.932,1.055 0.932,1.946c-0,0.662 -0.221,1.273 -0.663,1.833c-0.442,0.56 -1.068,1.01 -1.877,1.352c-0.81,0.342 -1.766,0.513 -2.867,0.513Zm-0.009,-9.529c0.41,0 0.787,-0.103 1.13,-0.311c0.343,-0.207 0.619,-0.501 0.828,-0.881c0.209,-0.38 0.314,-0.83 0.314,-1.349c0,-0.791 -0.221,-1.405 -0.664,-1.842c-0.442,-0.437 -0.978,-0.655 -1.608,-0.655c-0.631,0 -1.167,0.218 -1.609,0.655c-0.443,0.437 -0.664,1.051 -0.664,1.842c0,0.519 0.105,0.969 0.314,1.349c0.209,0.38 0.485,0.674 0.828,0.881c0.343,0.208 0.72,0.311 1.131,0.311Zm0.264,8.282c0.679,-0 1.27,-0.103 1.774,-0.309c0.503,-0.206 0.897,-0.476 1.18,-0.811c0.283,-0.334 0.425,-0.688 0.425,-1.06c-0,-0.497 -0.184,-0.843 -0.552,-1.037c-0.368,-0.194 -0.902,-0.291 -1.603,-0.291l-1.846,0c-0.199,0 -0.419,-0.013 -0.66,-0.04c-0.241,-0.026 -0.484,-0.066 -0.729,-0.119c-0.382,0.271 -0.659,0.56 -0.832,0.867c-0.173,0.308 -0.259,0.616 -0.259,0.926c-0,0.574 0.276,1.03 0.827,1.368c0.552,0.337 1.31,0.506 2.275,0.506Z" style="fill:#fff;"/>
                <path d="M1008.8,630.352c-0.961,0 -1.832,-0.222 -2.612,-0.667c-0.78,-0.444 -1.397,-1.084 -1.852,-1.919c-0.456,-0.835 -0.683,-1.842 -0.683,-3.022c-0,-1.162 0.232,-2.162 0.696,-2.999c0.464,-0.838 1.063,-1.483 1.798,-1.935c0.734,-0.451 1.512,-0.677 2.335,-0.677c0.914,-0 1.689,0.207 2.323,0.621c0.635,0.415 1.116,0.997 1.443,1.747c0.327,0.75 0.491,1.633 0.491,2.647c-0,0.184 -0.007,0.366 -0.021,0.546c-0.013,0.18 -0.039,0.359 -0.077,0.536l-7.692,-0l0,-1.426l6.158,0c-0,-1.038 -0.224,-1.832 -0.673,-2.381c-0.448,-0.55 -1.09,-0.824 -1.925,-0.824c-0.49,-0 -0.968,0.137 -1.433,0.411c-0.465,0.273 -0.851,0.713 -1.155,1.317c-0.305,0.605 -0.458,1.405 -0.458,2.4c0,0.907 0.16,1.668 0.479,2.283c0.318,0.615 0.748,1.079 1.289,1.392c0.541,0.314 1.132,0.471 1.775,0.471c0.52,-0 1.002,-0.072 1.446,-0.216c0.443,-0.143 0.848,-0.338 1.215,-0.584l0.658,1.186c-0.459,0.318 -0.979,0.58 -1.56,0.785c-0.581,0.205 -1.236,0.308 -1.965,0.308Z" style="fill:#fff;"/>
                <path d="M920.263,662.088l-4.525,-14.439l1.946,0l2.243,7.805c0.163,0.573 0.319,1.115 0.466,1.625c0.147,0.511 0.295,1.018 0.445,1.521c0.15,0.504 0.309,1.04 0.478,1.609l0.088,-0c0.169,-0.569 0.325,-1.105 0.467,-1.609c0.143,-0.503 0.289,-1.01 0.439,-1.521c0.15,-0.51 0.311,-1.052 0.484,-1.625l2.402,-7.805l1.87,0l-4.674,14.439l-2.129,0Z" style="fill:#fff;"/>
                <path d="M932.756,662.352c-0.873,0 -1.688,-0.22 -2.442,-0.661c-0.755,-0.441 -1.362,-1.079 -1.823,-1.914c-0.46,-0.834 -0.69,-1.842 -0.69,-3.022c-0,-1.19 0.23,-2.204 0.69,-3.043c0.461,-0.84 1.068,-1.48 1.823,-1.921c0.754,-0.441 1.569,-0.661 2.442,-0.661c0.874,-0 1.686,0.22 2.436,0.661c0.75,0.441 1.357,1.081 1.822,1.921c0.465,0.839 0.698,1.853 0.698,3.043c-0,1.18 -0.233,2.188 -0.698,3.022c-0.465,0.835 -1.072,1.473 -1.822,1.914c-0.75,0.441 -1.562,0.661 -2.436,0.661Zm0,-1.507c0.613,0 1.153,-0.17 1.619,-0.51c0.467,-0.341 0.828,-0.818 1.083,-1.433c0.256,-0.615 0.384,-1.33 0.384,-2.147c-0,-0.817 -0.128,-1.535 -0.384,-2.154c-0.255,-0.619 -0.616,-1.102 -1.083,-1.447c-0.466,-0.345 -1.006,-0.518 -1.619,-0.518c-0.613,0 -1.15,0.173 -1.612,0.518c-0.462,0.345 -0.823,0.828 -1.083,1.447c-0.26,0.619 -0.39,1.337 -0.39,2.154c-0,0.817 0.13,1.533 0.39,2.147c0.26,0.615 0.621,1.092 1.083,1.433c0.462,0.34 0.999,0.51 1.612,0.51Z" style="fill:#fff;"/>
                <path d="M942.429,662.291c-0.453,0 -0.822,-0.093 -1.104,-0.278c-0.283,-0.185 -0.49,-0.457 -0.62,-0.815c-0.13,-0.358 -0.195,-0.796 -0.195,-1.313l-0,-13.465l1.807,-0l0,13.597c0,0.288 0.053,0.488 0.159,0.6c0.106,0.112 0.232,0.168 0.379,0.168c0.053,-0 0.105,-0.004 0.156,-0.011c0.052,-0.008 0.121,-0.019 0.209,-0.033l0.254,1.364c-0.124,0.053 -0.273,0.097 -0.446,0.133c-0.174,0.035 -0.373,0.053 -0.599,0.053Z" style="fill:#fff;"/>
                <path d="M949.237,662.352c-1.125,0 -1.95,-0.356 -2.475,-1.067c-0.525,-0.711 -0.787,-1.748 -0.787,-3.112l-0,-6.776l1.806,-0l0,6.539c0,0.997 0.159,1.72 0.477,2.169c0.318,0.449 0.83,0.673 1.536,0.673c0.543,-0 1.029,-0.143 1.46,-0.429c0.43,-0.285 0.899,-0.743 1.405,-1.373l0,-7.579l1.808,-0l-0,10.691l-1.49,0l-0.156,-1.669l-0.057,0c-0.492,0.58 -1.02,1.047 -1.583,1.402c-0.562,0.354 -1.211,0.531 -1.944,0.531Z" style="fill:#fff;"/>
                <path d="M958.059,662.088l0,-10.694l1.495,-0l0.153,1.551l0.06,-0c0.468,-0.509 0.98,-0.939 1.537,-1.289c0.557,-0.351 1.154,-0.526 1.791,-0.526c0.822,-0 1.465,0.183 1.928,0.548c0.464,0.366 0.805,0.862 1.025,1.49c0.556,-0.608 1.122,-1.1 1.696,-1.475c0.574,-0.375 1.185,-0.563 1.831,-0.563c1.106,-0 1.925,0.356 2.456,1.068c0.531,0.712 0.797,1.75 0.797,3.114l0,6.776l-1.809,0l-0,-6.542c-0,-1.001 -0.16,-1.725 -0.48,-2.173c-0.32,-0.448 -0.823,-0.672 -1.51,-0.672c-0.415,0 -0.841,0.136 -1.279,0.407c-0.437,0.271 -0.904,0.683 -1.402,1.236l0,7.744l-1.809,0l-0,-6.542c-0,-1.001 -0.16,-1.725 -0.48,-2.173c-0.319,-0.448 -0.823,-0.672 -1.51,-0.672c-0.803,0 -1.696,0.548 -2.68,1.643l-0,7.744l-1.81,0Z" style="fill:#fff;"/>
                <path d="M980.622,662.352c-0.961,0 -1.832,-0.222 -2.612,-0.667c-0.78,-0.444 -1.397,-1.084 -1.853,-1.919c-0.455,-0.835 -0.682,-1.842 -0.682,-3.022c-0,-1.162 0.232,-2.162 0.696,-2.999c0.464,-0.838 1.063,-1.483 1.798,-1.935c0.734,-0.451 1.512,-0.677 2.335,-0.677c0.914,-0 1.689,0.207 2.323,0.621c0.635,0.415 1.115,0.997 1.443,1.747c0.327,0.75 0.491,1.633 0.491,2.647c-0,0.184 -0.007,0.366 -0.021,0.546c-0.013,0.18 -0.039,0.359 -0.077,0.536l-7.692,-0l0,-1.426l6.158,0c-0,-1.038 -0.224,-1.832 -0.673,-2.381c-0.448,-0.55 -1.09,-0.824 -1.925,-0.824c-0.49,-0 -0.968,0.137 -1.433,0.411c-0.466,0.273 -0.851,0.713 -1.156,1.317c-0.304,0.605 -0.457,1.405 -0.457,2.4c0,0.907 0.16,1.668 0.478,2.283c0.319,0.615 0.749,1.079 1.29,1.392c0.541,0.314 1.132,0.471 1.774,0.471c0.521,-0 1.003,-0.072 1.446,-0.216c0.444,-0.143 0.849,-0.338 1.216,-0.584l0.658,1.186c-0.459,0.318 -0.979,0.58 -1.56,0.785c-0.581,0.205 -1.237,0.308 -1.965,0.308Z" style="fill:#fff;"/>
            </g>
            <g>
                <path d="M906.922,115.117l0,-21.002l2.673,0l-0,18.732l9.174,0l-0,2.27l-11.847,0Z" style="fill:#fff;"/>
                <path d="M922.224,115.117l0,-15.552l2.624,0l0,15.552l-2.624,0Zm1.312,-18.752c-0.512,0 -0.933,-0.16 -1.264,-0.48c-0.33,-0.32 -0.496,-0.736 -0.496,-1.248c0,-0.512 0.166,-0.928 0.496,-1.248c0.331,-0.32 0.752,-0.48 1.264,-0.48c0.512,0 0.934,0.16 1.264,0.48c0.331,0.32 0.496,0.736 0.496,1.248c0,0.512 -0.165,0.928 -0.496,1.248c-0.33,0.32 -0.752,0.48 -1.264,0.48Z" style="fill:#fff;"/>
                <path d="M930.106,115.117l0,-15.555l2.175,0l0.222,2.244l0.087,-0c0.748,-0.74 1.54,-1.363 2.375,-1.869c0.834,-0.506 1.782,-0.759 2.843,-0.759c1.65,0 2.854,0.518 3.612,1.554c0.759,1.035 1.138,2.545 1.138,4.529l-0,9.856l-2.633,0l0,-9.516c0,-1.455 -0.229,-2.509 -0.687,-3.16c-0.458,-0.652 -1.207,-0.977 -2.247,-0.977c-0.795,-0 -1.505,0.201 -2.13,0.603c-0.624,0.402 -1.332,0.997 -2.123,1.786l0,11.264l-2.632,0Z" style="fill:#fff;"/>
                <path d="M953.651,115.501c-1.271,0 -2.456,-0.321 -3.553,-0.962c-1.098,-0.641 -1.981,-1.569 -2.651,-2.783c-0.669,-1.214 -1.004,-2.679 -1.004,-4.396c-0,-1.73 0.335,-3.206 1.004,-4.427c0.67,-1.221 1.553,-2.152 2.651,-2.793c1.097,-0.641 2.282,-0.962 3.553,-0.962c1.271,0 2.452,0.321 3.542,0.962c1.091,0.641 1.974,1.572 2.651,2.793c0.676,1.221 1.015,2.697 1.015,4.427c-0,1.717 -0.339,3.182 -1.015,4.396c-0.677,1.214 -1.56,2.142 -2.651,2.783c-1.09,0.641 -2.271,0.962 -3.542,0.962Zm-0,-2.191c0.891,-0 1.676,-0.248 2.355,-0.743c0.678,-0.495 1.203,-1.19 1.575,-2.084c0.372,-0.894 0.558,-1.935 0.558,-3.123c-0,-1.188 -0.186,-2.233 -0.558,-3.133c-0.372,-0.901 -0.897,-1.603 -1.575,-2.105c-0.679,-0.502 -1.464,-0.753 -2.355,-0.753c-0.892,0 -1.674,0.251 -2.346,0.753c-0.671,0.502 -1.197,1.204 -1.575,2.105c-0.379,0.9 -0.568,1.945 -0.568,3.133c0,1.188 0.189,2.229 0.568,3.123c0.378,0.894 0.904,1.589 1.575,2.084c0.672,0.495 1.454,0.743 2.346,0.743Z" style="fill:#fff;"/>
                <path d="M970.25,115.501c-1.943,0 -3.497,-0.712 -4.66,-2.135c-1.164,-1.423 -1.746,-3.425 -1.746,-6.006c-0,-1.682 0.315,-3.134 0.944,-4.355c0.629,-1.221 1.455,-2.164 2.478,-2.829c1.023,-0.665 2.126,-0.998 3.308,-0.998c0.915,0 1.703,0.158 2.362,0.473c0.66,0.315 1.326,0.758 1.997,1.329l-0.111,-2.668l0,-5.993l2.632,0l0,22.798l-2.174,0l-0.222,-1.836l-0.088,0c-0.601,0.601 -1.304,1.121 -2.11,1.561c-0.807,0.439 -1.676,0.659 -2.61,0.659Zm0.583,-2.215c0.723,0 1.409,-0.178 2.056,-0.533c0.648,-0.356 1.292,-0.885 1.933,-1.589l0,-8.154c-0.657,-0.595 -1.292,-1.013 -1.905,-1.255c-0.613,-0.241 -1.243,-0.362 -1.889,-0.362c-0.829,0 -1.579,0.247 -2.251,0.742c-0.671,0.495 -1.208,1.19 -1.61,2.086c-0.403,0.895 -0.604,1.934 -0.604,3.115c0,1.861 0.372,3.318 1.116,4.371c0.744,1.053 1.795,1.579 3.154,1.579Z" style="fill:#fff;"/>
                <path d="M989.019,115.501c-1.398,0 -2.664,-0.323 -3.798,-0.97c-1.135,-0.646 -2.033,-1.577 -2.695,-2.791c-0.663,-1.214 -0.994,-2.68 -0.994,-4.396c0,-1.69 0.338,-3.145 1.013,-4.363c0.675,-1.218 1.547,-2.156 2.615,-2.813c1.068,-0.657 2.2,-0.986 3.396,-0.986c1.331,0 2.457,0.301 3.38,0.904c0.923,0.603 1.622,1.45 2.098,2.541c0.476,1.091 0.714,2.375 0.714,3.85c0,0.267 -0.01,0.532 -0.029,0.794c-0.02,0.262 -0.058,0.522 -0.113,0.78l-11.188,-0l0,-2.074l8.957,0c-0,-1.51 -0.326,-2.665 -0.978,-3.464c-0.653,-0.799 -1.586,-1.198 -2.801,-1.198c-0.713,-0 -1.408,0.199 -2.085,0.597c-0.676,0.398 -1.236,1.037 -1.68,1.917c-0.443,0.879 -0.665,2.042 -0.665,3.49c-0,1.32 0.232,2.427 0.696,3.321c0.463,0.894 1.089,1.569 1.875,2.025c0.787,0.456 1.647,0.684 2.581,0.684c0.757,0 1.458,-0.104 2.104,-0.313c0.645,-0.208 1.234,-0.491 1.767,-0.849l0.958,1.724c-0.667,0.463 -1.424,0.843 -2.269,1.142c-0.846,0.299 -1.799,0.448 -2.859,0.448Z" style="fill:#fff;"/>
            </g>
        </g>
        <g class="bullet bullet-1">
            <g>
                <path d="M374.215,301.598c11.716,11.716 11.716,30.711 -0,42.426c-11.716,11.716 -30.711,11.716 -42.427,0c-11.715,-11.715 -11.715,-30.71 0,-42.426c11.716,-11.716 30.711,-11.716 42.427,0" style="fill:#1e9ad6;stroke:#fff;stroke-width:3px;stroke-linecap:round;stroke-miterlimit:10;"/>
                <g>
                    <path d="M339.174,332.311l0,-1.511c1.91,-1.867 3.536,-3.529 4.879,-4.986c1.342,-1.457 2.365,-2.772 3.069,-3.947c0.704,-1.174 1.056,-2.276 1.056,-3.306c-0,-1.1 -0.297,-1.997 -0.892,-2.691c-0.594,-0.695 -1.507,-1.042 -2.738,-1.042c-0.797,-0 -1.537,0.22 -2.22,0.659c-0.683,0.44 -1.299,0.984 -1.847,1.634l-1.389,-1.351c0.796,-0.89 1.647,-1.605 2.555,-2.144c0.908,-0.539 1.976,-0.809 3.205,-0.809c1.178,0 2.198,0.233 3.057,0.699c0.86,0.466 1.523,1.12 1.988,1.961c0.466,0.842 0.698,1.826 0.698,2.952c0,1.234 -0.345,2.462 -1.037,3.685c-0.691,1.224 -1.64,2.506 -2.847,3.846c-1.207,1.34 -2.588,2.805 -4.142,4.395c0.518,-0.047 1.06,-0.086 1.626,-0.118c0.566,-0.031 1.096,-0.046 1.592,-0.046l5.746,-0l0,2.12l-12.359,0Z" style="fill:#fff;"/>
                    <path d="M358.72,332.671c-0.814,0 -1.545,-0.162 -2.193,-0.487c-0.649,-0.325 -1.16,-0.798 -1.534,-1.417c-0.374,-0.619 -0.561,-1.366 -0.561,-2.242c0,-1.637 0.721,-2.876 2.161,-3.718c1.44,-0.842 3.713,-1.431 6.818,-1.767c-0.005,-0.608 -0.092,-1.188 -0.262,-1.739c-0.17,-0.552 -0.475,-0.999 -0.915,-1.342c-0.441,-0.342 -1.056,-0.514 -1.848,-0.514c-0.836,0 -1.624,0.155 -2.364,0.465c-0.74,0.311 -1.402,0.654 -1.985,1.031l-0.958,-1.69c0.447,-0.302 0.967,-0.597 1.561,-0.887c0.594,-0.29 1.243,-0.528 1.948,-0.713c0.704,-0.186 1.446,-0.279 2.226,-0.279c1.182,0 2.144,0.247 2.889,0.741c0.744,0.494 1.292,1.191 1.644,2.09c0.352,0.9 0.528,1.959 0.528,3.176l0,8.932l-2.05,0l-0.193,-1.735l-0.097,-0c-0.703,0.575 -1.454,1.068 -2.252,1.479c-0.798,0.411 -1.652,0.616 -2.563,0.616Zm0.685,-2.054c0.709,-0 1.378,-0.158 2.008,-0.474c0.63,-0.315 1.296,-0.781 1.998,-1.397l-0,-3.932c-1.634,0.191 -2.928,0.445 -3.882,0.763c-0.954,0.318 -1.637,0.707 -2.048,1.165c-0.411,0.459 -0.616,1.001 -0.616,1.624c-0,0.806 0.248,1.383 0.745,1.73c0.496,0.347 1.095,0.521 1.795,0.521Z" style="fill:#fff;"/>
                </g>
            </g>
            <g>
                <path d="M596.213,366.147c11.716,11.716 11.716,30.711 0,42.427c-11.715,11.715 -30.71,11.715 -42.426,-0c-11.716,-11.716 -11.716,-30.711 -0,-42.427c11.716,-11.715 30.711,-11.716 42.426,0" style="fill:#1e9ad6;stroke:#fff;stroke-width:3px;stroke-linecap:round;stroke-miterlimit:10;"/>
                <path d="M566.651,399.861l0,-2.015c2.547,-2.49 4.715,-4.706 6.505,-6.648c1.79,-1.943 3.155,-3.697 4.093,-5.263c0.938,-1.566 1.407,-3.035 1.407,-4.408c0,-1.467 -0.396,-2.663 -1.188,-3.589c-0.793,-0.926 -2.01,-1.389 -3.651,-1.389c-1.063,0 -2.049,0.293 -2.96,0.879c-0.911,0.586 -1.733,1.312 -2.464,2.178l-1.851,-1.8c1.061,-1.188 2.196,-2.14 3.407,-2.859c1.21,-0.719 2.634,-1.078 4.272,-1.078c1.572,-0 2.931,0.31 4.078,0.931c1.146,0.621 2.029,1.493 2.65,2.615c0.62,1.122 0.93,2.434 0.93,3.935c0,1.645 -0.46,3.284 -1.382,4.915c-0.922,1.631 -2.187,3.34 -3.797,5.127c-1.609,1.787 -3.45,3.74 -5.522,5.86c0.691,-0.063 1.414,-0.115 2.168,-0.157c0.754,-0.041 1.462,-0.062 2.123,-0.062l7.661,-0l0,2.827l-16.479,0Z" style="fill:#fff;fill-rule:nonzero;"/>
            </g>
            <g>
                <path d="M596.213,123.692c11.716,11.716 11.716,30.711 0,42.426c-11.715,11.716 -30.71,11.716 -42.426,0c-11.716,-11.715 -11.716,-30.71 -0,-42.426c11.716,-11.716 30.711,-11.716 42.426,0" style="fill:#1e9ad6;stroke:#fff;stroke-width:3px;stroke-linecap:round;stroke-miterlimit:10;"/>
                <path d="M568.205,157.405l0,-2.739l5.844,-0l0,-18.783l-4.648,0l0,-2.116c1.171,-0.209 2.191,-0.469 3.061,-0.78c0.87,-0.311 1.659,-0.675 2.366,-1.094l2.511,0l0,22.773l5.269,-0l-0,2.739l-14.403,0Z" style="fill:#fff;fill-rule:nonzero;"/>
            </g>
        </g>
    </g>
    <defs>
        <radialGradient id="_Radial1" cx="0" cy="0" r="1" gradientUnits="userSpaceOnUse" gradientTransform="matrix(466.487,0,0,576.922,386.301,94.0314)">
            <stop offset="0" style="stop-color:#0c4d82;stop-opacity:1"/>
            <stop offset="0.21" style="stop-color:#0f4b7f;stop-opacity:1"/>
            <stop offset="0.43" style="stop-color:#134676;stop-opacity:1"/>
            <stop offset="0.65" style="stop-color:#173d68;stop-opacity:1"/>
            <stop offset="0.88" style="stop-color:#163055;stop-opacity:1"/>
            <stop offset="1" style="stop-color:#14274a;stop-opacity:1"/>
        </radialGradient>
    </defs>
</svg>