<?xml version="1.0" encoding="utf-8"?>
<!-- Generator: Adobe Illustrator 28.3.0, SVG Export Plug-In . SVG Version: 6.00 Build 0)  -->
<svg version="1.1" id="Layer_1" xmlns="http://www.w3.org/2000/svg" xmlns:xlink="http://www.w3.org/1999/xlink" x="0px" y="0px"
	 viewBox="0 0 792 612" style="enable-background:new 0 0 792 612;" xml:space="preserve">
<style type="text/css">
	.st0{fill:#DAEAD4;}
	.st1{fill:#CFE3F2;}
	.st2{fill:#FFFFFF;}
	.st3{font-family:'Roboto-Bold';}
	.st4{font-size:22px;}
	.st5{fill:#808285;}
	.st6{font-size:18px;}
	.st7{enable-background:new    ;}
	.st8{fill:none;stroke:#6E6F72;stroke-width:3;stroke-miterlimit:10;}
	.st9{fill:#6E6F72;}
	.st10{font-family:'Roboto-Regular';}
	.st11{font-size:13px;}
</style>
<g>
	<rect x="313.8" y="106.8" class="st0" width="390.2" height="382.7"/>
	<rect x="133.1" y="106.8" class="st1" width="192.1" height="382.7"/>
	<path class="st2" d="M191.9,314c0,22.4,18.2,40.5,40.5,40.5s40.5-18.2,40.5-40.5c0-22.4-18.2-40.5-40.5-40.5S191.9,291.7,191.9,314
		L191.9,314z M267.4,311.4h-10.3c-0.1-3.8-0.6-7.3-1.3-10.7h9.2C266.4,304,267.1,307.6,267.4,311.4L267.4,311.4z M197.5,316.7h10.2
		c0.2,3.9,0.6,7.3,1.4,10.7h-9.2C198.5,324.1,197.8,320.6,197.5,316.7z M212.9,316.7h16.8v10.7h-15.4
		C213.7,324.1,213.2,320.6,212.9,316.7z M229.7,332.8v16.1c-5.8-1.5-10.7-7.5-13.9-16.1H229.7z M235,348.7v-16.1h13.9
		C245.8,341.2,240.8,347.3,235,348.7z M235,327.4v-10.7h16.8c-0.2,3.9-0.6,7.4-1.4,10.7H235z M257.1,316.7h10.2
		c-0.4,3.8-1.1,7.3-2.5,10.7h-9C256.5,324,257,320.6,257.1,316.7z M251.9,311.4h-16.8v-10.7h15.4C251.2,304,251.7,307.6,251.9,311.4
		z M235,295.4v-16.1c5.8,1.5,10.7,7.4,13.9,16.1H235z M229.7,279.3v16.1h-13.9C219.1,286.9,224,280.9,229.7,279.3z M229.7,300.7
		v10.7h-16.8c0.2-3.9,0.6-7.4,1.4-10.7H229.7z M207.8,311.4h-10.3c0.4-3.8,1.1-7.3,2.5-10.7h9.2
		C208.3,304.1,207.9,307.6,207.8,311.4L207.8,311.4z M202.6,332.8h7.7c1.6,5,3.9,9.3,6.5,12.8C211.1,342.6,206.1,338.3,202.6,332.8z
		 M247.9,345.6c2.7-3.5,4.9-7.7,6.5-12.8h7.7C258.6,338.3,253.8,342.6,247.9,345.6L247.9,345.6z M262.1,295.4h-7.9
		c-1.6-5-3.8-9.4-6.3-12.9C253.8,285.6,258.6,289.9,262.1,295.4z M216.9,282.5c-2.7,3.5-4.8,7.9-6.3,12.9h-7.9
		C206.1,289.9,211.1,285.6,216.9,282.5z"/>
	<g>
		<path class="st2" d="M417.7,353.1h-29.9c-0.7,0-1.3-0.1-1.7-0.2c-0.5-0.1-1.2-0.4-1.9-0.8c-0.6-0.3-0.9-0.7-1.3-1
			c-0.1-0.1-0.3-0.3-0.4-0.5l-18.7-23.3c-0.1-0.1-0.2-0.3-0.3-0.5c-0.2-0.3-0.5-0.7-0.6-1.3c-0.1-0.3-0.2-0.6-0.2-0.9
			c-0.2-0.9-0.2-1.9,0-2.8l6.7-28.9c0.5-2,1.8-3.6,3.6-4.5l26.9-12.9c1.8-0.9,3.9-0.9,5.8,0l26.9,12.8c1.9,0.9,3.2,2.6,3.6,4.5
			c0,0,6.7,28.9,6.7,28.9c0.2,0.9,0.2,1.9,0,2.9c0,0.3-0.1,0.5-0.2,0.7l0,0.1c-0.3,0.7-0.6,1.4-1.1,1.9l-18.6,23.1
			c-0.4,0.5-0.9,1-1.6,1.4l0,0c-0.2,0.1-0.5,0.3-0.8,0.4h0c-0.1,0-0.3,0.1-0.5,0.2h0c0,0,0,0-0.1,0c-0.1,0-0.2,0.1-0.4,0.1
			c-0.3,0.1-0.6,0.1-0.9,0.2C418.2,353.1,417.9,353.1,417.7,353.1L417.7,353.1z M366.2,325.5l18.6,23.2c0,0,0,0.1,0.1,0.1
			c0,0,0,0,0.1,0.1c0.3,0.3,0.5,0.5,0.7,0.6l0,0c0.3,0.2,0.6,0.3,1.1,0.5c0.3,0.1,0.7,0.1,0.9,0.1h29.9c0.1,0,0.2,0,0.2,0
			c0,0,0,0,0.1,0c0.2,0,0.4,0,0.6-0.1c0,0,0.1,0,0.1,0c0,0,0,0,0.1,0c0.1,0,0.2-0.1,0.3-0.1l0,0c0.1,0,0.1-0.1,0.2-0.1
			c0.1,0,0.2-0.1,0.3-0.2c0.4-0.2,0.7-0.5,0.8-0.7l0,0l18.6-23.1c0.2-0.3,0.4-0.6,0.6-1l0-0.1c0-0.1,0.1-0.2,0.1-0.3
			c0.1-0.7,0.1-1.2,0-1.8l-6.7-28.8c-0.2-1.1-1-2-2-2.5l-26.9-12.9c-1-0.5-2.2-0.5-3.2,0l-26.9,12.8c-1,0.5-1.7,1.3-2,2.5l-6.7,28.9
			c-0.1,0.5-0.1,1.1,0,1.6v0c0,0,0,0.1,0.1,0.3c0,0,0,0.1,0,0.1c0.1,0.2,0.2,0.5,0.3,0.7c0,0,0,0,0,0.1l0,0
			C366.2,325.4,366.2,325.5,366.2,325.5L366.2,325.5z"/>
		<path class="st2" d="M428.2,319.8l-7.9-1.7c0.1-0.7,0.1-1.4,0.1-2.1c0-3.5-1.1-6.8-2.8-9.6l6.4-5c0.7-0.5,0.8-1.4,0.3-2.1
			c-0.5-0.7-1.4-0.8-2.1-0.3l-6.4,5c-2.9-3.2-6.9-5.2-11.4-5.6v-8.1c0-0.8-0.7-1.5-1.5-1.5c-0.8,0-1.5,0.7-1.5,1.5v8.2
			c-4.4,0.4-8.4,2.4-11.3,5.4l-6.3-5.1c-0.7-0.5-1.6-0.4-2.1,0.2c-0.5,0.7-0.4,1.6,0.2,2.1l6.3,5.1c-1.9,2.8-3,6.2-3,9.8
			c0,0.9,0,1.7,0.2,2.6l-8,1.9c-0.8,0.2-1.3,1-1.2,1.8c0.1,0.7,0.8,1.2,1.4,1.2c0.1,0,0.2,0,0.3-0.1l8-1.9c1.3,4,4,7.4,7.5,9.6
			l-3.5,7.3c-0.4,0.7-0.1,1.7,0.7,2c0.2,0.1,0.5,0.1,0.7,0.1c0.5,0,1.1-0.3,1.3-0.8l3.7-7.3c2,0.8,4.3,1.3,6.7,1.3
			c2.2,0,4.3-0.4,6.3-1.2l3.6,7.4c0.3,0.5,0.8,0.9,1.3,0.9c0.2,0,0.5-0.1,0.7-0.1c0.7-0.3,1.1-1.3,0.7-2l-3.5-7.4
			c3.8-2.2,6.6-5.8,7.9-10l7.9,1.7h0.3c0.7,0,1.3-0.5,1.4-1.2C429.5,320.8,428.9,320,428.2,319.8L428.2,319.8z M417.3,316.1
			c0,0.5,0,1-0.1,1.5l-6.5-1.4v-0.1c0-1.3-0.3-2.6-0.9-3.7l5.3-4.1C416.5,310.5,417.3,313.2,417.3,316.1z M413.2,305.9L408,310
			c-1.1-0.9-2.3-1.6-3.8-1.9v-6.7C407.7,301.8,410.8,303.4,413.2,305.9z M406.3,313.1l0.9,4l-2.5,3.2h-4.1l-2.6-3.1l1-4l3.7-1.7
			L406.3,313.1z M401.1,301.4v6.7c-1.4,0.3-2.7,0.9-3.7,1.8l-5.2-4.2C394.6,303.4,397.6,301.8,401.1,301.4z M388,316.1
			c0-2.9,0.8-5.6,2.3-7.9l5.2,4.1c-0.6,1.2-0.9,2.4-0.9,3.8v0.3l-6.5,1.5C388.1,317.3,388,316.7,388,316.1L388,316.1z M388.8,320.8
			l6.4-1.5c0.5,1.3,1.4,2.3,2.5,3.1l-3,6C392,326.6,389.9,323.9,388.8,320.8L388.8,320.8z M402.7,330.7c-1.9,0-3.7-0.4-5.3-1l3-6
			c0.7,0.2,1.4,0.3,2.2,0.3s1.4-0.1,2.1-0.3l2.9,6C406.1,330.4,404.4,330.7,402.7,330.7L402.7,330.7z M410.4,328.5l-2.9-6
			c1.2-0.9,2-2,2.6-3.3l6.6,1.4C415.5,323.9,413.3,326.7,410.4,328.5z"/>
	</g>
	<text transform="matrix(1 0 0 1 168.0447 471.7084)" class="st2 st3 st4">Akamai Edge</text>
	<text transform="matrix(1 0 0 1 178.8752 256.4336)" class="st5 st3 st6">Datastream 2</text>
	<text transform="matrix(1 0 0 1 524.7977 160.668)" class="st7"><tspan x="0" y="0" class="st5 st3 st6">Object Storage</tspan><tspan x="19.8" y="21.6" class="st5 st3 st6">Endpoints</tspan></text>
	<text transform="matrix(1 0 0 1 355.4812 235.4091)" class="st7"><tspan x="0" y="0" class="st5 st3 st6" style="text-decoration: underline;">LKE Cluster</tspan><tspan x="-4.9" y="21.6" class="st5 st3 st6">ELK + Vector</tspan></text>
	<text transform="matrix(1 0 0 1 347.762 471.7084)" class="st2 st3 st4">Akamai Cloud</text>
	<g>
		<g>
			<line class="st8" x1="93.1" y1="313.9" x2="173.2" y2="313.9"/>
			<g>
				<polygon class="st9" points="171.6,319.3 181,313.9 171.6,308.6 				"/>
			</g>
		</g>
	</g>
	<g>
		<g>
			<line class="st8" x1="286.1" y1="313.9" x2="341.6" y2="313.9"/>
			<g>
				<polygon class="st9" points="340,319.3 349.4,313.9 340,308.6 				"/>
			</g>
		</g>
	</g>
	<g>
		<g>
			<g>
				<path class="st2" d="M558,196.1h54v5.2h-54V196.1z"/>
				<path class="st2" d="M598.5,250.5h-27c-2.6,0-4.9-2.1-5.2-4.9l-5-40.8h47.2l-5,40.8C603.4,248.4,601.2,250.5,598.5,250.5
					L598.5,250.5z M564.2,207.3l4.6,38c0.2,1.5,1.4,2.7,2.8,2.7h27c1.4,0,2.5-1.2,2.8-2.7l4.6-38H564.2L564.2,207.3z"/>
				<path class="st2" d="M592.9,242.7C592.8,242.7,592.8,242.7,592.9,242.7c-2.1,0-3.7-1.7-3.7-3.7s1.7-3.6,3.7-3.6s3.6,1.7,3.6,3.7
					C596.6,241.1,594.9,242.7,592.9,242.7z"/>
			</g>
			<g>
				<path class="st2" d="M558,286.8h54v5.2h-54V286.8z"/>
				<path class="st2" d="M598.5,341.2h-27c-2.6,0-4.9-2.1-5.2-4.9l-5-40.8h47.2l-5,40.8C603.4,339.1,601.2,341.2,598.5,341.2
					L598.5,341.2z M564.2,298l4.6,38c0.2,1.5,1.4,2.7,2.8,2.7h27c1.4,0,2.5-1.2,2.8-2.7l4.6-38H564.2L564.2,298z"/>
				<path class="st2" d="M592.9,333.4C592.8,333.4,592.8,333.4,592.9,333.4c-2.1,0-3.7-1.7-3.7-3.7c0-2,1.7-3.6,3.7-3.6
					s3.6,1.7,3.6,3.7C596.6,331.8,594.9,333.4,592.9,333.4z"/>
			</g>
			<g>
				<path class="st2" d="M558,377.5h54v5.2h-54V377.5z"/>
				<path class="st2" d="M598.5,431.8h-27c-2.6,0-4.9-2.1-5.2-4.9l-5-40.8h47.2l-5,40.8C603.4,429.7,601.2,431.8,598.5,431.8
					L598.5,431.8z M564.2,388.6l4.6,38c0.2,1.5,1.4,2.7,2.8,2.7h27c1.4,0,2.5-1.2,2.8-2.7l4.6-38H564.2L564.2,388.6z"/>
				<path class="st2" d="M592.9,424C592.8,424,592.8,424,592.9,424c-2.1,0-3.7-1.7-3.7-3.7s1.7-3.6,3.7-3.6s3.6,1.7,3.6,3.7
					C596.6,422.5,594.9,424,592.9,424z"/>
			</g>
		</g>
		<g>
			<g>
				<g>
					<line class="st8" x1="452.2" y1="313.9" x2="541.5" y2="313.9"/>
					<g>
						<polygon class="st9" points="540.8,319.3 550.2,313.9 540.8,308.6 						"/>
					</g>
				</g>
			</g>
			<g>
				<g>
					<g>
						<line class="st8" x1="450.3" y1="314.7" x2="545.2" y2="219.8"/>
						<g>
							<polygon class="st9" points="547.8,224.7 550.7,214.3 540.3,217.2 							"/>
						</g>
					</g>
				</g>
				<g>
					<g>
						<line class="st8" x1="545.2" y1="408.2" x2="450.3" y2="313.3"/>
						<g>
							<polygon class="st9" points="540.3,410.8 550.7,413.7 547.8,403.2 							"/>
						</g>
					</g>
				</g>
			</g>
		</g>
	</g>
	<text transform="matrix(1 0 0 1 90.7919 301.9665)" class="st5 st10 st11">Client requests</text>
	<text transform="matrix(1 0 0 1 285.7804 301.9665)" class="st5 st10 st11">Log ingest</text>
	<text transform="matrix(1 0 0 1 477.1355 301.9665)" class="st5 st10 st11">Parsed logs</text>
	<text transform="matrix(1 0 0 1 627.7169 219.7697)"><tspan x="0" y="0" class="st5 st10 st11">Log</tspan><tspan x="-11.2" y="15.6" class="st5 st10 st11">storage</tspan></text>
	<text transform="matrix(1 0 0 1 627.7169 311.3965)"><tspan x="0" y="0" class="st5 st10 st11">Log</tspan><tspan x="-11.2" y="15.6" class="st5 st10 st11">storage</tspan></text>
	<text transform="matrix(1 0 0 1 627.7169 399.5526)"><tspan x="0" y="0" class="st5 st10 st11">Log</tspan><tspan x="-11.2" y="15.6" class="st5 st10 st11">storage</tspan></text>
</g>
</svg>
