<svg xmlns="http://www.w3.org/2000/svg" version="1.1" id="Layer_1" x="0" y="0" style="enable-background:new 0 0 1296 1296" xml:space="preserve" viewBox="71.1 323.5 1153.8 649"><style>.figure2-st1{fill:#41bbec}.figure2-st3{fill:none;stroke:#a5a5a5;stroke-width:1.2019;stroke-linejoin:round;stroke-miterlimit:10}.figure2-st4{fill-rule:evenodd;clip-rule:evenodd;fill:#a5a5a5}.figure2-st5{fill:none;stroke:#a5a5a5;stroke-width:1.2019;stroke-miterlimit:10}.figure2-st6,.figure2-st7{fill:none;stroke-linejoin:round;stroke-miterlimit:10}.figure2-st6{opacity:0;stroke:#010101;stroke-width:10;stroke-linecap:round}.figure2-st7{stroke:#179bd7;stroke-width:1.2019}.figure2-st8{fill-rule:evenodd;clip-rule:evenodd;fill:#179bd7}.figure2-st9{fill:none;stroke:#179bd7;stroke-width:1.2019;stroke-miterlimit:10}.figure2-st10{opacity:.2;fill-rule:evenodd;clip-rule:evenodd;fill:#26a8d4}.figure2-st11{fill:none;stroke:#41bbec;stroke-width:2.4037;stroke-linejoin:round;stroke-miterlimit:10}.figure2-st12{opacity:.2;fill-rule:evenodd;clip-rule:evenodd;fill:#fff}.figure2-st13{fill:none;stroke:#179bd7;stroke-width:1.2019;stroke-linejoin:round;stroke-miterlimit:10;stroke-dasharray:4.8074,3.6056}.figure2-st17{fill-rule:evenodd;clip-rule:evenodd;fill:#9e9e9e}.figure2-st18{fill:none;stroke:#9e9e9e;stroke-width:1.2019;stroke-miterlimit:10}.figure2-st19{enable-background:new}.figure2-st20{fill:#fff}.figure2-st22{fill:#209ad6}.figure2-st23{fill:none;stroke:#fff;stroke-width:.75;stroke-miterlimit:10}.figure2-st24{fill:#1d99d6}</style><radialGradient id="SVGID_1_" cx="458.677" cy="399.783" r="468.028" gradientUnits="userSpaceOnUse"><stop offset="0" style="stop-color:#0c4d82"></stop><stop offset=".205" style="stop-color:#0f4b7f"></stop><stop offset=".425" style="stop-color:#134676"></stop><stop offset=".65" style="stop-color:#173d68"></stop><stop offset=".878" style="stop-color:#163055"></stop><stop offset="1" style="stop-color:#14274a"></stop></radialGradient><path style="fill:url(#SVGID_1_)" d="M71.1 323.5h1153.8v649H71.1z"></path><path class="figure2-st1" d="M119.1 392.7v-30.8h8.7c2.7 0 5 .6 7.1 1.8s3.6 2.9 4.8 5 1.7 4.7 1.7 7.5v2c0 2.9-.6 5.4-1.7 7.6s-2.7 3.9-4.8 5c-2.1 1.2-4.5 1.8-7.3 1.8h-8.5zm4-27.5v24.1h4.3c3.1 0 5.6-1 7.3-2.9 1.7-1.9 2.6-4.7 2.6-8.3v-1.8c0-3.5-.8-6.2-2.5-8.2-1.6-1.9-4-2.9-7-2.9h-4.7zM161 392.7c-.2-.5-.4-1.3-.5-2.4-1.8 1.9-4 2.8-6.5 2.8-2.3 0-4.1-.6-5.5-1.9-1.4-1.3-2.2-2.9-2.2-4.8 0-2.4.9-4.2 2.7-5.5 1.8-1.3 4.4-2 7.6-2h3.8V377c0-1.4-.4-2.5-1.2-3.3s-2-1.2-3.6-1.2c-1.4 0-2.6.4-3.5 1.1-.9.7-1.4 1.6-1.4 2.6h-3.9c0-1.1.4-2.2 1.2-3.3.8-1.1 1.9-1.9 3.3-2.5s2.9-.9 4.6-.9c2.6 0 4.7.7 6.2 2s2.3 3.1 2.3 5.4v10.5c0 2.1.3 3.8.8 5v.3H161zm-6.5-3c1.2 0 2.4-.3 3.5-1 1.1-.6 1.9-1.5 2.4-2.5v-4.7h-3.1c-4.8 0-7.2 1.4-7.2 4.2 0 1.2.4 2.2 1.2 2.9.8.8 1.9 1.1 3.2 1.1zM175.7 364.3v5.5h4.3v3h-4.3V387c0 .9.2 1.6.6 2.1.4.5 1 .7 1.9.7.5 0 1.1-.1 1.9-.3v3.2c-1 .3-2 .4-3 .4-1.7 0-3.1-.5-4-1.6-.9-1.1-1.3-2.6-1.3-4.5v-14.2h-4.2v-3h4.2v-5.5h3.9zM198.6 392.7c-.2-.5-.4-1.3-.5-2.4-1.8 1.9-4 2.8-6.5 2.8-2.3 0-4.1-.6-5.5-1.9-1.4-1.3-2.2-2.9-2.2-4.8 0-2.4.9-4.2 2.7-5.5 1.8-1.3 4.4-2 7.6-2h3.8V377c0-1.4-.4-2.5-1.2-3.3s-2-1.2-3.6-1.2c-1.4 0-2.6.4-3.5 1.1-.9.7-1.4 1.6-1.4 2.6h-3.9c0-1.1.4-2.2 1.2-3.3.8-1.1 1.9-1.9 3.3-2.5s2.9-.9 4.6-.9c2.6 0 4.7.7 6.2 2s2.3 3.1 2.3 5.4v10.5c0 2.1.3 3.8.8 5v.3h-4.2zm-6.5-3c1.2 0 2.4-.3 3.5-1 1.1-.6 1.9-1.5 2.4-2.5v-4.7h-3.1c-4.8 0-7.2 1.4-7.2 4.2 0 1.2.4 2.2 1.2 2.9.9.8 2 1.1 3.2 1.1zM217.7 379c-3.5-1-6-2.2-7.6-3.7-1.6-1.5-2.4-3.3-2.4-5.4 0-2.4 1-4.4 2.9-6 1.9-1.6 4.5-2.4 7.6-2.4 2.1 0 4 .4 5.7 1.2s2.9 1.9 3.8 3.4c.9 1.4 1.4 3 1.4 4.7H225c0-1.9-.6-3.3-1.8-4.4-1.2-1.1-2.9-1.6-5-1.6-2 0-3.6.4-4.7 1.3s-1.7 2.1-1.7 3.7c0 1.3.5 2.3 1.6 3.2 1.1.9 2.9 1.7 5.4 2.4 2.6.7 4.6 1.5 6 2.4s2.5 1.9 3.2 3 1 2.5 1 4.1c0 2.5-1 4.5-2.9 6s-4.5 2.2-7.8 2.2c-2.1 0-4.1-.4-5.9-1.2-1.8-.8-3.2-1.9-4.2-3.3s-1.5-3-1.5-4.8h4.1c0 1.9.7 3.3 2.1 4.4 1.4 1.1 3.2 1.6 5.5 1.6 2.1 0 3.8-.4 4.9-1.3 1.1-.9 1.7-2.1 1.7-3.6s-.5-2.7-1.6-3.5c-1-.8-2.9-1.6-5.7-2.4zM239 364.3v5.5h4.3v3H239V387c0 .9.2 1.6.6 2.1.4.5 1 .7 1.9.7.5 0 1.1-.1 1.9-.3v3.2c-1 .3-2 .4-3 .4-1.7 0-3.1-.5-4-1.6-.9-1.1-1.3-2.6-1.3-4.5v-14.2h-4.2v-3h4.2v-5.5h3.9zM258.9 373.3c-.6-.1-1.2-.1-1.9-.1-2.6 0-4.3 1.1-5.2 3.3v16.2h-3.9v-22.9h3.8l.1 2.6c1.3-2 3.1-3.1 5.5-3.1.8 0 1.3.1 1.7.3v3.7zM272 393.1c-3.1 0-5.6-1-7.6-3.1-1.9-2-2.9-4.8-2.9-8.2v-.7c0-2.3.4-4.3 1.3-6.1.9-1.8 2.1-3.2 3.6-4.2 1.6-1 3.2-1.5 5.1-1.5 3 0 5.3 1 6.9 2.9 1.6 2 2.5 4.8 2.5 8.4v1.6h-15.5c.1 2.3.7 4.1 2 5.5 1.3 1.4 2.9 2.1 4.8 2.1 1.4 0 2.5-.3 3.5-.8 1-.6 1.8-1.3 2.5-2.2l2.4 1.9c-1.9 2.9-4.8 4.4-8.6 4.4zm-.5-20.5c-1.6 0-2.9.6-4 1.7s-1.7 2.8-2 4.8H277v-.3c-.1-2-.6-3.5-1.6-4.6-1-1-2.3-1.6-3.9-1.6zM299.5 392.7c-.2-.5-.4-1.3-.5-2.4-1.8 1.9-4 2.8-6.5 2.8-2.3 0-4.1-.6-5.5-1.9-1.4-1.3-2.2-2.9-2.2-4.8 0-2.4.9-4.2 2.7-5.5 1.8-1.3 4.4-2 7.6-2h3.8V377c0-1.4-.4-2.5-1.2-3.3s-2-1.2-3.6-1.2c-1.4 0-2.6.4-3.5 1.1-.9.7-1.4 1.6-1.4 2.6h-3.9c0-1.1.4-2.2 1.2-3.3.8-1.1 1.9-1.9 3.3-2.5s2.9-.9 4.6-.9c2.6 0 4.7.7 6.2 2s2.3 3.1 2.3 5.4v10.5c0 2.1.3 3.8.8 5v.3h-4.2zm-6.5-3c1.2 0 2.4-.3 3.5-1 1.1-.6 1.9-1.5 2.4-2.5v-4.7h-3.1c-4.8 0-7.2 1.4-7.2 4.2 0 1.2.4 2.2 1.2 2.9.9.8 2 1.1 3.2 1.1zM312.6 369.8l.1 2.5c1.7-2 3.9-3 6.8-3 3.2 0 5.4 1.2 6.5 3.7.8-1.1 1.8-2 3-2.7 1.2-.7 2.7-1 4.3-1 5 0 7.6 2.7 7.6 8v15.3H337v-15.1c0-1.6-.4-2.9-1.1-3.7s-2-1.2-3.8-1.2c-1.5 0-2.7.4-3.6 1.3-1 .9-1.5 2-1.7 3.5v15.2H323v-15c0-3.3-1.6-5-4.9-5-2.6 0-4.3 1.1-5.3 3.3v16.7h-3.9v-22.9h3.7zM363.4 361.9l10.1 25.1 10.1-25.1h5.3v30.8h-4.1v-12l.4-12.9-10.2 24.9h-3.1l-10.1-24.8.4 12.9v12h-4.1V362h5.3zM409.5 390.4c-1.5 1.8-3.8 2.7-6.7 2.7-2.4 0-4.3-.7-5.6-2.1-1.3-1.4-1.9-3.5-1.9-6.3v-14.9h3.9v14.8c0 3.5 1.4 5.2 4.2 5.2 3 0 5-1.1 6-3.3v-16.6h3.9v22.9h-3.7l-.1-2.4zM423.4 392.7h-3.9v-32.5h3.9v32.5zM435 364.3v5.5h4.3v3H435V387c0 .9.2 1.6.6 2.1.4.5 1 .7 1.9.7.5 0 1.1-.1 1.9-.3v3.2c-1 .3-2 .4-3 .4-1.7 0-3.1-.5-4-1.6-.9-1.1-1.3-2.6-1.3-4.5v-14.2h-4.2v-3h4.2v-5.5h3.9zM443.9 363.8c0-.6.2-1.2.6-1.6s1-.7 1.7-.7c.8 0 1.3.2 1.7.7.4.4.6 1 .6 1.6s-.2 1.2-.6 1.6c-.4.4-1 .6-1.7.6-.8 0-1.3-.2-1.7-.6s-.6-1-.6-1.6zm4.2 28.9h-3.9v-22.9h3.9v22.9zM473.6 381.5c0 3.5-.8 6.3-2.4 8.4-1.6 2.1-3.7 3.2-6.5 3.2s-5-.9-6.5-2.6v11h-3.9v-31.6h3.6l.2 2.5c1.6-2 3.8-3 6.6-3 2.7 0 4.9 1 6.5 3.1s2.4 5 2.4 8.6v.4zm-3.9-.4c0-2.6-.5-4.6-1.6-6.1s-2.6-2.2-4.5-2.2c-2.4 0-4.1 1-5.3 3.1v10.9c1.2 2.1 3 3.1 5.4 3.1 1.9 0 3.4-.7 4.5-2.2 1-1.5 1.5-3.7 1.5-6.6zM482.9 392.7H479v-32.5h3.9v32.5zM498.6 393.1c-3.1 0-5.6-1-7.6-3.1-1.9-2-2.9-4.8-2.9-8.2v-.7c0-2.3.4-4.3 1.3-6.1.9-1.8 2.1-3.2 3.6-4.2 1.6-1 3.2-1.5 5.1-1.5 3 0 5.3 1 6.9 2.9 1.6 2 2.5 4.8 2.5 8.4v1.6H492c.1 2.3.7 4.1 2 5.5 1.3 1.4 2.9 2.1 4.8 2.1 1.4 0 2.5-.3 3.5-.8 1-.6 1.8-1.3 2.5-2.2l2.4 1.9c-1.9 2.9-4.8 4.4-8.6 4.4zm-.5-20.5c-1.6 0-2.9.6-4 1.7s-1.7 2.8-2 4.8h11.5v-.3c-.1-2-.6-3.5-1.6-4.6-1-1-2.3-1.6-3.9-1.6zM519.7 378.2l5.1-8.3h4.6l-7.5 11.3 7.7 11.6H525l-5.3-8.6-5.3 8.6h-4.5l7.7-11.6-7.5-11.3h4.5l5.1 8.3zM533.5 363.8c0-.6.2-1.2.6-1.6s1-.7 1.7-.7c.8 0 1.3.2 1.7.7s.6 1 .6 1.6-.2 1.2-.6 1.6-1 .6-1.7.6c-.8 0-1.3-.2-1.7-.6s-.6-1-.6-1.6zm4.2 28.9h-3.9v-22.9h3.9v22.9zM547.7 369.8l.1 2.9c1.7-2.2 4-3.3 6.8-3.3 4.8 0 7.3 2.7 7.3 8.2v15.1H558v-15.1c0-1.6-.4-2.9-1.1-3.7-.7-.8-1.9-1.2-3.5-1.2-1.3 0-2.4.3-3.3 1-1 .7-1.7 1.6-2.2 2.7v16.3H544v-22.9h3.7zM566.9 381.1c0-3.6.8-6.4 2.5-8.5 1.6-2.1 3.8-3.2 6.5-3.2 2.8 0 5 1 6.5 3l.2-2.5h3.6v22.3c0 3-.9 5.3-2.6 7-1.8 1.7-4.1 2.6-7.1 2.6-1.6 0-3.3-.4-4.8-1.1s-2.8-1.7-3.6-2.9l2-2.3c1.7 2.1 3.7 3.1 6.1 3.1 1.9 0 3.4-.5 4.4-1.6 1.1-1.1 1.6-2.6 1.6-4.5v-2c-1.6 1.8-3.7 2.7-6.4 2.7s-4.8-1.1-6.5-3.2c-1.6-2.3-2.4-5.2-2.4-8.9zm3.9.4c0 2.6.5 4.6 1.6 6.1s2.5 2.2 4.4 2.2c2.5 0 4.3-1.1 5.4-3.4V376c-1.2-2.2-3-3.3-5.4-3.3-1.9 0-3.4.7-4.5 2.2s-1.5 3.7-1.5 6.6zM614.7 380.2h-7.2v12.4h-4.1v-30.8h10.2c3.5 0 6.1.8 8 2.4 1.9 1.6 2.8 3.9 2.8 6.9 0 1.9-.5 3.6-1.6 5s-2.5 2.5-4.3 3.2l7.2 13.1v.3h-4.4l-6.6-12.5zm-7.2-3.3h6.2c2 0 3.6-.5 4.8-1.6s1.8-2.4 1.8-4.2c0-1.9-.6-3.4-1.7-4.4-1.1-1-2.8-1.5-4.9-1.5h-6.2v11.7zM639 393.1c-3.1 0-5.6-1-7.6-3.1-1.9-2-2.9-4.8-2.9-8.2v-.7c0-2.3.4-4.3 1.3-6.1.9-1.8 2.1-3.2 3.6-4.2 1.6-1 3.2-1.5 5.1-1.5 3 0 5.3 1 6.9 2.9 1.6 2 2.5 4.8 2.5 8.4v1.6h-15.5c.1 2.3.7 4.1 2 5.5 1.3 1.4 2.9 2.1 4.8 2.1 1.4 0 2.5-.3 3.5-.8 1-.6 1.8-1.3 2.5-2.2l2.4 1.9c-1.9 2.9-4.8 4.4-8.6 4.4zm-.5-20.5c-1.6 0-2.9.6-4 1.7s-1.7 2.8-2 4.8H644v-.3c-.1-2-.6-3.5-1.6-4.6-1-1-2.3-1.6-3.9-1.6zM654.3 392.7v-19.8h-3.6v-3h3.6v-2.3c0-2.5.7-4.3 2-5.7 1.3-1.3 3.2-2 5.6-2 .9 0 1.8.1 2.7.4l-.2 3.1c-.7-.1-1.4-.2-2.1-.2-1.3 0-2.2.4-2.9 1.1-.7.7-1 1.8-1 3.2v2.4h4.9v3h-4.9v19.8h-4.1zM676.9 393.1c-3.1 0-5.6-1-7.6-3.1-1.9-2-2.9-4.8-2.9-8.2v-.7c0-2.3.4-4.3 1.3-6.1.9-1.8 2.1-3.2 3.6-4.2 1.6-1 3.2-1.5 5.1-1.5 3 0 5.3 1 6.9 2.9 1.6 2 2.5 4.8 2.5 8.4v1.6h-15.5c.1 2.3.7 4.1 2 5.5 1.3 1.4 2.9 2.1 4.8 2.1 1.4 0 2.5-.3 3.5-.8 1-.6 1.8-1.3 2.5-2.2l2.4 1.9c-1.9 2.9-4.8 4.4-8.6 4.4zm-.5-20.5c-1.6 0-2.9.6-4 1.7s-1.7 2.8-2 4.8h11.5v-.3c-.1-2-.6-3.5-1.6-4.6-1-1-2.3-1.6-3.9-1.6zM701.4 373.3c-.6-.1-1.2-.1-1.9-.1-2.6 0-4.3 1.1-5.2 3.3v16.2h-3.9v-22.9h3.8l.1 2.6c1.3-2 3.1-3.1 5.5-3.1.8 0 1.3.1 1.7.3v3.7zM714.5 393.1c-3.1 0-5.6-1-7.6-3.1-1.9-2-2.9-4.8-2.9-8.2v-.7c0-2.3.4-4.3 1.3-6.1.9-1.8 2.1-3.2 3.6-4.2 1.6-1 3.2-1.5 5.1-1.5 3 0 5.3 1 6.9 2.9 1.6 2 2.5 4.8 2.5 8.4v1.6h-15.5c.1 2.3.7 4.1 2 5.5 1.3 1.4 2.9 2.1 4.8 2.1 1.4 0 2.5-.3 3.5-.8 1-.6 1.8-1.3 2.5-2.2l2.4 1.9c-1.9 2.9-4.8 4.4-8.6 4.4zm-.5-20.5c-1.6 0-2.9.6-4 1.7s-1.7 2.8-2 4.8h11.5v-.3c-.1-2-.6-3.5-1.6-4.6-1-1-2.3-1.6-3.9-1.6zM731.6 369.8l.1 2.9c1.7-2.2 4-3.3 6.8-3.3 4.8 0 7.3 2.7 7.3 8.2v15.1H742v-15.1c0-1.6-.4-2.9-1.1-3.7-.7-.8-1.9-1.2-3.5-1.2-1.3 0-2.4.3-3.3 1-1 .7-1.7 1.6-2.2 2.7v16.3H728v-22.9h3.6zM760.9 389.9c1.4 0 2.6-.4 3.7-1.3s1.6-1.9 1.7-3.2h3.7c-.1 1.3-.5 2.6-1.4 3.7s-1.9 2.1-3.3 2.8c-1.4.7-2.9 1.1-4.4 1.1-3.1 0-5.6-1-7.4-3.1-1.8-2.1-2.8-4.9-2.8-8.5v-.7c0-2.2.4-4.2 1.2-5.9.8-1.7 2-3.1 3.5-4 1.5-1 3.3-1.4 5.4-1.4 2.6 0 4.7.8 6.4 2.3 1.7 1.5 2.6 3.5 2.7 6h-3.7c-.1-1.5-.7-2.7-1.7-3.6s-2.2-1.4-3.7-1.4c-2 0-3.5.7-4.6 2.1-1.1 1.4-1.6 3.5-1.6 6.2v.7c0 2.6.5 4.7 1.6 6.1 1.2 1.4 2.7 2.1 4.7 2.1zM783.9 393.1c-3.1 0-5.6-1-7.6-3.1-1.9-2-2.9-4.8-2.9-8.2v-.7c0-2.3.4-4.3 1.3-6.1.9-1.8 2.1-3.2 3.6-4.2 1.6-1 3.2-1.5 5.1-1.5 3 0 5.3 1 6.9 2.9 1.6 2 2.5 4.8 2.5 8.4v1.6h-15.5c.1 2.3.7 4.1 2 5.5 1.3 1.4 2.9 2.1 4.8 2.1 1.4 0 2.5-.3 3.5-.8 1-.6 1.8-1.3 2.5-2.2l2.4 1.9c-1.9 2.9-4.8 4.4-8.6 4.4zm-.5-20.5c-1.6 0-2.9.6-4 1.7s-1.7 2.8-2 4.8h11.5v-.3c-.1-2-.6-3.5-1.6-4.6-1-1-2.2-1.6-3.9-1.6zM825.7 384.6h-12.9l-2.9 8h-4.2l11.7-30.8h3.5l11.8 30.8h-4.2l-2.8-8zm-11.7-3.3h10.5l-5.2-14.4-5.3 14.4zM847.3 373.3c-.6-.1-1.2-.1-1.9-.1-2.6 0-4.3 1.1-5.2 3.3v16.2h-3.9v-22.9h3.8l.1 2.6c1.3-2 3.1-3.1 5.5-3.1.8 0 1.3.1 1.7.3v3.7zM860.1 389.9c1.4 0 2.6-.4 3.7-1.3s1.6-1.9 1.7-3.2h3.7c-.1 1.3-.5 2.6-1.4 3.7s-1.9 2.1-3.3 2.8c-1.4.7-2.9 1.1-4.4 1.1-3.1 0-5.6-1-7.4-3.1-1.8-2.1-2.8-4.9-2.8-8.5v-.7c0-2.2.4-4.2 1.2-5.9.8-1.7 2-3.1 3.5-4 1.5-1 3.3-1.4 5.4-1.4 2.6 0 4.7.8 6.4 2.3 1.7 1.5 2.6 3.5 2.7 6h-3.7c-.1-1.5-.7-2.7-1.7-3.6s-2.2-1.4-3.7-1.4c-2 0-3.5.7-4.6 2.1-1.1 1.4-1.6 3.5-1.6 6.2v.7c0 2.6.5 4.7 1.6 6.1 1.1 1.4 2.7 2.1 4.7 2.1zM877.5 372.6c1.7-2.1 4-3.2 6.8-3.2 4.8 0 7.3 2.7 7.3 8.2v15.1h-3.9v-15.1c0-1.6-.4-2.9-1.1-3.7-.7-.8-1.9-1.2-3.5-1.2-1.3 0-2.4.3-3.3 1-1 .7-1.7 1.6-2.2 2.7v16.3h-3.9v-32.5h3.9v12.4zM897.4 363.8c0-.6.2-1.2.6-1.6s1-.7 1.7-.7c.8 0 1.3.2 1.7.7s.6 1 .6 1.6-.2 1.2-.6 1.6-1 .6-1.7.6c-.8 0-1.3-.2-1.7-.6s-.6-1-.6-1.6zm4.2 28.9h-3.9v-22.9h3.9v22.9zM913.2 364.3v5.5h4.3v3h-4.3V387c0 .9.2 1.6.6 2.1.4.5 1 .7 1.9.7.5 0 1.1-.1 1.9-.3v3.2c-1 .3-2 .4-3 .4-1.7 0-3.1-.5-4-1.6-.9-1.1-1.3-2.6-1.3-4.5v-14.2h-4.2v-3h4.2v-5.5h3.9zM931.5 393.1c-3.1 0-5.6-1-7.6-3.1-1.9-2-2.9-4.8-2.9-8.2v-.7c0-2.3.4-4.3 1.3-6.1.9-1.8 2.1-3.2 3.6-4.2 1.6-1 3.2-1.5 5.1-1.5 3 0 5.3 1 6.9 2.9 1.6 2 2.5 4.8 2.5 8.4v1.6h-15.5c.1 2.3.7 4.1 2 5.5 1.3 1.4 2.9 2.1 4.8 2.1 1.4 0 2.5-.3 3.5-.8 1-.6 1.8-1.3 2.5-2.2l2.4 1.9c-1.9 2.9-4.8 4.4-8.6 4.4zm-.5-20.5c-1.6 0-2.9.6-4 1.7s-1.7 2.8-2 4.8h11.5v-.3c-.1-2-.6-3.5-1.6-4.6-.9-1-2.2-1.6-3.9-1.6zM954.1 389.9c1.4 0 2.6-.4 3.7-1.3s1.6-1.9 1.7-3.2h3.7c-.1 1.3-.5 2.6-1.4 3.7s-1.9 2.1-3.3 2.8c-1.4.7-2.9 1.1-4.4 1.1-3.1 0-5.6-1-7.4-3.1-1.8-2.1-2.8-4.9-2.8-8.5v-.7c0-2.2.4-4.2 1.2-5.9.8-1.7 2-3.1 3.5-4 1.5-1 3.3-1.4 5.4-1.4 2.6 0 4.7.8 6.4 2.3 1.7 1.5 2.6 3.5 2.7 6h-3.7c-.1-1.5-.7-2.7-1.7-3.6s-2.2-1.4-3.7-1.4c-2 0-3.5.7-4.6 2.1-1.1 1.4-1.6 3.5-1.6 6.2v.7c0 2.6.5 4.7 1.6 6.1 1.2 1.4 2.7 2.1 4.7 2.1zM972.9 364.3v5.5h4.3v3h-4.3V387c0 .9.2 1.6.6 2.1.4.5 1 .7 1.9.7.5 0 1.1-.1 1.9-.3v3.2c-1 .3-2 .4-3 .4-1.7 0-3.1-.5-4-1.6-.9-1.1-1.3-2.6-1.3-4.5v-14.2h-4.2v-3h4.2v-5.5h3.9zM995.8 390.4c-1.5 1.8-3.8 2.7-6.7 2.7-2.4 0-4.3-.7-5.6-2.1-1.3-1.4-1.9-3.5-1.9-6.3v-14.9h3.9v14.8c0 3.5 1.4 5.2 4.2 5.2 3 0 5-1.1 6-3.3v-16.6h3.9v22.9h-3.7l-.1-2.4zM1016.6 373.3c-.6-.1-1.2-.1-1.9-.1-2.6 0-4.3 1.1-5.2 3.3v16.2h-3.9v-22.9h3.8l.1 2.6c1.3-2 3.1-3.1 5.5-3.1.8 0 1.3.1 1.7.3v3.7zM1029.7 393.1c-3.1 0-5.6-1-7.6-3.1-1.9-2-2.9-4.8-2.9-8.2v-.7c0-2.3.4-4.3 1.3-6.1.9-1.8 2.1-3.2 3.6-4.2 1.6-1 3.2-1.5 5.1-1.5 3 0 5.3 1 6.9 2.9 1.6 2 2.5 4.8 2.5 8.4v1.6h-15.5c.1 2.3.7 4.1 2 5.5 1.3 1.4 2.9 2.1 4.8 2.1 1.4 0 2.5-.3 3.5-.8 1-.6 1.8-1.3 2.5-2.2l2.4 1.9c-1.9 2.9-4.8 4.4-8.6 4.4zm-.5-20.5c-1.6 0-2.9.6-4 1.7s-1.7 2.8-2 4.8h11.5v-.3c-.1-2-.6-3.5-1.6-4.6-.9-1-2.2-1.6-3.9-1.6z"></path><path d="M952.6 493.8c0-4.4 3.6-8 8-8h213c4.4 0 8 3.6 8 8v130.9c0 4.4-3.6 8-8 8h-213c-4.4 0-8-3.6-8-8V493.8z" style="fill-rule:evenodd;clip-rule:evenodd;fill:#172548"></path><path class="figure2-st3" d="M952.6 493.8c0-4.4 3.6-8 8-8h213c4.4 0 8 3.6 8 8v130.9c0 4.4-3.6 8-8 8h-213c-4.4 0-8-3.6-8-8V493.8zM985.9 530h55.5"></path><path class="figure2-st4" d="m985.9 526.6-9.4 3.4 9.4 3.4z"></path><path class="figure2-st5" d="m985.9 526.6-9.4 3.4 9.4 3.4z"></path><path class="figure2-st4" d="m1041.4 533.4 9.4-3.4-9.4-3.4z"></path><path class="figure2-st5" d="m1041.4 533.4 9.4-3.4-9.4-3.4z"></path><path class="figure2-st7" d="M985.9 587h55.5"></path><path class="figure2-st8" d="m985.9 583.6-9.4 3.4 9.4 3.4z"></path><path class="figure2-st9" d="m985.9 583.6-9.4 3.4 9.4 3.4z"></path><path class="figure2-st8" d="m1041.4 590.4 9.4-3.4-9.4-3.4z"></path><path class="figure2-st9" d="m1041.4 590.4 9.4-3.4-9.4-3.4z"></path><path class="figure2-st10" d="M432.1 438.3c0-4.2 3.4-7.7 7.7-7.7h258.1c4.2 0 7.7 3.4 7.7 7.7v118.5c0 4.2-3.4 7.7-7.7 7.7H439.8c-4.2 0-7.7-3.4-7.7-7.7V438.3z"></path><path class="figure2-st11" d="M432.1 438.3c0-4.2 3.4-7.7 7.7-7.7h258.1c4.2 0 7.7 3.4 7.7 7.7v118.5c0 4.2-3.4 7.7-7.7 7.7H439.8c-4.2 0-7.7-3.4-7.7-7.7V438.3z"></path><path class="figure2-st12" d="M627.2 458.4c0-3 2.4-5.4 5.4-5.4h46.1c3 0 5.4 2.4 5.4 5.4v52.9c0 3-2.4 5.4-5.4 5.4h-46.1c-3 0-5.4-2.4-5.4-5.4v-52.9z"></path><path class="figure2-st10" d="M448.2 446.2c0-2.9 2.3-5.2 5.2-5.2h149.4c2.9 0 5.2 2.3 5.2 5.2v80.5c0 2.9-2.3 5.2-5.2 5.2H453.4c-2.9 0-5.2-2.3-5.2-5.2v-80.5z"></path><path class="figure2-st13" d="M448.2 446.2c0-2.9 2.3-5.2 5.2-5.2h149.4c2.9 0 5.2 2.3 5.2 5.2v80.5c0 2.9-2.3 5.2-5.2 5.2H453.4c-2.9 0-5.2-2.3-5.2-5.2v-80.5z"></path><path class="figure2-st12" d="M464.8 455.1c0-1.6 1.3-3 3-3H495c1.6 0 3 1.3 3 3v25.3c0 1.6-1.3 3-3 3h-27.2c-1.6 0-3-1.3-3-3v-25.3z"></path><path class="figure2-st12" d="M483.8 476.8c0-1.7 1.3-3 3-3H514c1.6 0 3 1.3 3 3v25.3c0 1.6-1.3 3-3 3h-27.2c-1.6 0-3-1.3-3-3v-25.3z"></path><path class="figure2-st12" d="M505.7 492.4c0-1.7 1.3-3 3-3h27.2c1.6 0 3 1.3 3 3v25.3c0 1.6-1.3 3-3 3h-27.2c-1.6 0-3-1.3-3-3v-25.3zM517.2 455.1c0-1.6 1.3-3 3-3h27.2c1.6 0 3 1.3 3 3v25.3c0 1.6-1.3 3-3 3h-27.2c-1.6 0-3-1.3-3-3v-25.3z"></path><path class="figure2-st12" d="M536.2 476.8c0-1.7 1.3-3 3-3h27.2c1.6 0 3 1.3 3 3v25.3c0 1.6-1.3 3-3 3h-27.2c-1.6 0-3-1.3-3-3v-25.3z"></path><path class="figure2-st12" d="M558.1 492.4c0-1.7 1.3-3 3-3h27.2c1.6 0 3 1.3 3 3v25.3c0 1.6-1.3 3-3 3h-27.2c-1.6 0-3-1.3-3-3v-25.3z"></path><path class="figure2-st10" d="M432.1 584.4c0-4.2 3.4-7.7 7.7-7.7h258.1c4.2 0 7.7 3.4 7.7 7.7v118.5c0 4.2-3.4 7.7-7.7 7.7H439.8c-4.2 0-7.7-3.4-7.7-7.7V584.4z"></path><path class="figure2-st11" d="M432.1 584.4c0-4.2 3.4-7.7 7.7-7.7h258.1c4.2 0 7.7 3.4 7.7 7.7v118.5c0 4.2-3.4 7.7-7.7 7.7H439.8c-4.2 0-7.7-3.4-7.7-7.7V584.4z"></path><path class="figure2-st12" d="M627.2 604.5c0-3 2.4-5.4 5.4-5.4h46.1c3 0 5.4 2.4 5.4 5.4v52.9c0 3-2.4 5.4-5.4 5.4h-46.1c-3 0-5.4-2.4-5.4-5.4v-52.9z"></path><path class="figure2-st10" d="M448.2 592.3c0-2.9 2.3-5.2 5.2-5.2h149.4c2.9 0 5.2 2.3 5.2 5.2v80.5c0 2.9-2.3 5.2-5.2 5.2H453.4c-2.9 0-5.2-2.3-5.2-5.2v-80.5z"></path><path class="figure2-st13" d="M448.2 592.3c0-2.9 2.3-5.2 5.2-5.2h149.4c2.9 0 5.2 2.3 5.2 5.2v80.5c0 2.9-2.3 5.2-5.2 5.2H453.4c-2.9 0-5.2-2.3-5.2-5.2v-80.5z"></path><path class="figure2-st12" d="M464.8 601.2c0-1.6 1.3-3 3-3H495c1.6 0 3 1.3 3 3v25.3c0 1.7-1.3 3-3 3h-27.2c-1.6 0-3-1.3-3-3v-25.3z"></path><path class="figure2-st12" d="M483.8 622.9c0-1.6 1.3-3 3-3H514c1.6 0 3 1.3 3 3v25.3c0 1.6-1.3 3-3 3h-27.2c-1.6 0-3-1.3-3-3v-25.3z"></path><path class="figure2-st12" d="M505.7 638.5c0-1.6 1.3-3 3-3h27.2c1.6 0 3 1.3 3 3v25.3c0 1.7-1.3 3-3 3h-27.2c-1.6 0-3-1.3-3-3v-25.3zM517.2 601.2c0-1.6 1.3-3 3-3h27.2c1.6 0 3 1.3 3 3v25.3c0 1.6-1.3 3-3 3h-27.2c-1.6 0-3-1.3-3-3v-25.3z"></path><path class="figure2-st12" d="M536.2 622.9c0-1.7 1.3-3 3-3h27.2c1.6 0 3 1.3 3 3v25.3c0 1.6-1.3 3-3 3h-27.2c-1.6 0-3-1.3-3-3v-25.3z"></path><path class="figure2-st12" d="M558.1 638.5c0-1.7 1.3-3 3-3h27.2c1.6 0 3 1.3 3 3v25.3c0 1.6-1.3 3-3 3h-27.2c-1.6 0-3-1.3-3-3v-25.3z"></path><path class="figure2-st10" d="M432.1 804.9c0-4.2 3.4-7.7 7.7-7.7h258.1c4.2 0 7.7 3.4 7.7 7.7v118.5c0 4.2-3.4 7.7-7.7 7.7H439.8c-4.2 0-7.7-3.4-7.7-7.7V804.9z"></path><path class="figure2-st11" d="M432.1 804.9c0-4.2 3.4-7.7 7.7-7.7h258.1c4.2 0 7.7 3.4 7.7 7.7v118.5c0 4.2-3.4 7.7-7.7 7.7H439.8c-4.2 0-7.7-3.4-7.7-7.7V804.9z"></path><path class="figure2-st12" d="M627.2 825c0-3 2.4-5.4 5.4-5.4h46.1c3 0 5.4 2.4 5.4 5.4v53c0 3-2.4 5.4-5.4 5.4h-46.1c-3 0-5.4-2.4-5.4-5.4v-53z"></path><path class="figure2-st10" d="M448.2 812.8c0-2.9 2.3-5.2 5.2-5.2h149.4c2.9 0 5.2 2.3 5.2 5.2v80.5c0 2.9-2.3 5.2-5.2 5.2H453.4c-2.9 0-5.2-2.3-5.2-5.2v-80.5z"></path><path class="figure2-st13" d="M448.2 812.8c0-2.9 2.3-5.2 5.2-5.2h149.4c2.9 0 5.2 2.3 5.2 5.2v80.5c0 2.9-2.3 5.2-5.2 5.2H453.4c-2.9 0-5.2-2.3-5.2-5.2v-80.5z"></path><path class="figure2-st12" d="M464.8 821.8c0-1.6 1.3-3 3-3H495c1.6 0 3 1.3 3 3v25.3c0 1.6-1.3 3-3 3h-27.2c-1.6 0-3-1.3-3-3v-25.3z"></path><path class="figure2-st12" d="M483.8 843.4c0-1.6 1.3-3 3-3H514c1.6 0 3 1.3 3 3v25.3c0 1.6-1.3 3-3 3h-27.2c-1.6 0-3-1.3-3-3v-25.3z"></path><path class="figure2-st12" d="M505.7 859.1c0-1.6 1.3-3 3-3h27.2c1.6 0 3 1.3 3 3v25.3c0 1.6-1.3 3-3 3h-27.2c-1.6 0-3-1.3-3-3v-25.3zM517.2 821.8c0-1.6 1.3-3 3-3h27.2c1.6 0 3 1.3 3 3v25.3c0 1.6-1.3 3-3 3h-27.2c-1.6 0-3-1.3-3-3v-25.3z"></path><path class="figure2-st12" d="M536.2 843.4c0-1.6 1.3-3 3-3h27.2c1.6 0 3 1.3 3 3v25.3c0 1.6-1.3 3-3 3h-27.2c-1.6 0-3-1.3-3-3v-25.3z"></path><path class="figure2-st12" d="M558.1 859.1c0-1.6 1.3-3 3-3h27.2c1.6 0 3 1.3 3 3v25.3c0 1.6-1.3 3-3 3h-27.2c-1.6 0-3-1.3-3-3v-25.3z"></path><path d="M266.9 618.1c0-6.5 5.3-11.8 11.8-11.8h96.7c6.5 0 11.8 5.3 11.8 11.8v167.4c0 6.5-5.3 11.8-11.8 11.8h-96.7c-6.5 0-11.8-5.3-11.8-11.8V618.1z" style="opacity:.2938;fill-rule:evenodd;clip-rule:evenodd;fill:#f8993a"></path><path d="M266.9 618.1c0-6.5 5.3-11.8 11.8-11.8h96.7c6.5 0 11.8 5.3 11.8 11.8v167.4c0 6.5-5.3 11.8-11.8 11.8h-96.7c-6.5 0-11.8-5.3-11.8-11.8V618.1z" style="fill:none;stroke:#f8993a;stroke-width:2.4037;stroke-linejoin:round;stroke-miterlimit:10"></path><path class="figure2-st10" d="M828 663.3c0-4.7 3.8-8.4 8.4-8.4h138.1c4.7 0 8.4 3.8 8.4 8.4v130.1c0 4.7-3.8 8.4-8.4 8.4h-138c-4.7 0-8.4-3.8-8.4-8.4V663.3z"></path><path class="figure2-st11" d="M828.1 663.3c0-4.7 3.8-8.4 8.4-8.4h138.1c4.7 0 8.4 3.8 8.4 8.4v130.1c0 4.7-3.8 8.4-8.4 8.4H836.5c-4.7 0-8.4-3.8-8.4-8.4V663.3z"></path><path class="figure2-st10" d="M844.3 674.7c0-2.6 2.1-4.8 4.8-4.8h111.6c2.6 0 4.8 2.1 4.8 4.8v73.6c0 2.6-2.1 4.8-4.8 4.8H849.1c-2.6 0-4.8-2.1-4.8-4.8v-73.6z"></path><path class="figure2-st13" d="M844.3 674.7c0-2.6 2.1-4.8 4.8-4.8h111.6c2.6 0 4.8 2.1 4.8 4.8v73.6c0 2.6-2.1 4.8-4.8 4.8H849.1c-2.6 0-4.8-2.1-4.8-4.8v-73.6z"></path><path class="figure2-st12" d="M851 680.5c0-1.6 1.3-3 3-3h27.2c1.7 0 3 1.3 3 3v25.3c0 1.7-1.3 3-3 3H854c-1.7 0-3-1.3-3-3v-25.3zM887.6 698.8c0-1.7 1.3-3 3-3h27.2c1.6 0 3 1.3 3 3v25.3c0 1.6-1.3 3-3 3h-27.2c-1.7 0-3-1.3-3-3v-25.3zM924.2 717.5c0-1.6 1.3-3 3-3h27.2c1.7 0 3 1.3 3 3v25.3c0 1.6-1.3 3-3 3h-27.2c-1.7 0-3-1.3-3-3v-25.3z"></path><path class="figure2-st10" d="M119.8 450.7c0-3.2 2.6-5.8 5.8-5.8h89.5c3.2 0 5.8 2.6 5.8 5.8v463.9c0 3.2-2.6 5.8-5.8 5.8h-89.5c-3.2 0-5.8-2.6-5.8-5.8V450.7z"></path><path class="figure2-st13" d="M119.8 450.7c0-3.2 2.6-5.8 5.8-5.8h89.5c3.2 0 5.8 2.6 5.8 5.8v463.9c0 3.2-2.6 5.8-5.8 5.8h-89.5c-3.2 0-5.8-2.6-5.8-5.8V450.7z"></path><path style="fill:none;stroke:#9e9e9e;stroke-width:1.2019;stroke-linejoin:round;stroke-miterlimit:10" d="M202 498.6h42.6v203.2h11.1"></path><path class="figure2-st17" d="m204 495.2-9.4 3.4 9.4 3.4z"></path><path class="figure2-st18" d="m204 495.2-9.4 3.4 9.4 3.4z"></path><path class="figure2-st17" d="m255.7 705.2 9.4-3.4-9.4-3.4z"></path><path class="figure2-st18" d="m255.7 705.2 9.4-3.4-9.4-3.4z"></path><path class="figure2-st3" d="M191.5 572.5h53.1v129.3h11.1"></path><path class="figure2-st4" d="m191.5 569.1-9.3 3.4 9.3 3.4z"></path><path class="figure2-st5" d="m191.5 569.1-9.3 3.4 9.3 3.4z"></path><path class="figure2-st4" d="m255.7 705.2 9.4-3.4-9.4-3.4z"></path><path class="figure2-st5" d="m255.7 705.2 9.4-3.4-9.4-3.4z"></path><path class="figure2-st3" d="M198.3 647.8h46.3v54h11.1"></path><path class="figure2-st4" d="m200.3 644.4-9.4 3.4 9.4 3.4z"></path><path class="figure2-st5" d="m200.3 644.4-9.4 3.4 9.4 3.4z"></path><path class="figure2-st4" d="m255.7 705.2 9.4-3.4-9.4-3.4z"></path><path class="figure2-st5" d="m255.7 705.2 9.4-3.4-9.4-3.4z"></path><path class="figure2-st3" d="M202 735.1h42.6v-33.3h11.2"></path><path class="figure2-st4" d="m204 731.7-9.4 3.4 9.4 3.4z"></path><path class="figure2-st5" d="m204 731.7-9.4 3.4 9.4 3.4z"></path><path class="figure2-st4" d="m255.8 705.2 9.3-3.4-9.3-3.4z"></path><path class="figure2-st5" d="m255.8 705.2 9.3-3.4-9.3-3.4z"></path><path class="figure2-st3" d="M191.5 809h53.1V701.8h11.1"></path><path class="figure2-st4" d="m191.5 805.6-9.3 3.4 9.3 3.4z"></path><path class="figure2-st5" d="m191.5 805.6-9.3 3.4 9.3 3.4z"></path><path class="figure2-st4" d="m255.7 705.2 9.4-3.4-9.4-3.4z"></path><path class="figure2-st5" d="m255.7 705.2 9.4-3.4-9.4-3.4z"></path><path class="figure2-st3" d="M195.3 884.3h49.3V701.8h11.1"></path><path class="figure2-st4" d="m200.3 880.9-9.4 3.4 9.4 3.4z"></path><path class="figure2-st5" d="m200.3 880.9-9.4 3.4 9.4 3.4z"></path><path class="figure2-st4" d="m255.7 705.2 9.4-3.4-9.4-3.4z"></path><path class="figure2-st5" d="m255.7 705.2 9.4-3.4-9.4-3.4z"></path><path class="figure2-st3" d="M398.2 701.8h11.4V497.6H421"></path><path class="figure2-st4" d="m398.2 698.4-9.4 3.4 9.4 3.4z"></path><path class="figure2-st5" d="m398.2 698.4-9.4 3.4 9.4 3.4z"></path><path class="figure2-st4" d="m421 501 9.4-3.4-9.4-3.4z"></path><path class="figure2-st5" d="m421 501 9.4-3.4-9.4-3.4z"></path><path class="figure2-st3" d="M398.2 701.8h11.4v-58.1H421"></path><path class="figure2-st4" d="m398.2 698.4-9.4 3.4 9.4 3.4z"></path><path class="figure2-st5" d="m398.2 698.4-9.4 3.4 9.4 3.4z"></path><path class="figure2-st4" d="m421 647.1 9.4-3.4-9.4-3.4z"></path><path class="figure2-st5" d="m421 647.1 9.4-3.4-9.4-3.4z"></path><path class="figure2-st3" d="M398.2 701.8h11.4v162.4H421"></path><path class="figure2-st4" d="m398.2 698.4-9.4 3.4 9.4 3.4z"></path><path class="figure2-st5" d="m398.2 698.4-9.4 3.4 9.4 3.4z"></path><path class="figure2-st4" d="m421 867.6 9.4-3.4-9.4-3.4z"></path><path class="figure2-st5" d="m421 867.6 9.4-3.4-9.4-3.4z"></path><path class="figure2-st7" d="M695.2 851.5h210.4V813"></path><path class="figure2-st8" d="m695.2 848.1-9.3 3.4 9.3 3.4z"></path><path class="figure2-st9" d="m695.2 848.1-9.3 3.4 9.3 3.4z"></path><path class="figure2-st8" d="m909 813-3.4-9.4-3.4 9.4z"></path><path class="figure2-st9" d="m909 813-3.4-9.4-3.4 9.4z"></path><path class="figure2-st7" d="M695.2 484.9h210.4v158.9"></path><path class="figure2-st8" d="m695.2 481.5-9.4 3.4 9.4 3.4z"></path><path class="figure2-st9" d="m695.2 481.5-9.4 3.4 9.4 3.4z"></path><path class="figure2-st8" d="m902.1 643.8 3.5 9.3 3.4-9.3z"></path><path class="figure2-st9" d="m902.1 643.8 3.5 9.3 3.4-9.3z"></path><path class="figure2-st7" d="M695.2 630.9h210.4v12.9"></path><path class="figure2-st8" d="m695.2 627.5-9.3 3.4 9.3 3.5z"></path><path class="figure2-st9" d="m695.2 627.5-9.3 3.4 9.3 3.5z"></path><path class="figure2-st8" d="m902.2 643.8 3.4 9.4 3.4-9.4z"></path><path class="figure2-st9" d="m902.2 643.8 3.4 9.4 3.4-9.4z"></path><path class="figure2-st7" d="M398.2 742.8h419"></path><path class="figure2-st8" d="m398.2 739.4-9.3 3.4 9.3 3.4z"></path><path class="figure2-st9" d="m398.2 739.4-9.3 3.4 9.3 3.4z"></path><path class="figure2-st8" d="m817.2 746.2 9.4-3.4-9.4-3.4z"></path><path class="figure2-st9" d="m817.2 746.2 9.4-3.4-9.4-3.4z"></path><g class="figure2-st19"><path class="figure2-st20" d="M1082.2 535.2h-2.6v-5.5h-5.1v5.5h-2.6v-12.8h2.6v5.2h5.1v-5.2h2.6v12.8zM1093.9 524.6h-3.9v10.7h-2.6v-10.7h-3.9v-2.1h10.4v2.1zM1105.2 524.6h-3.9v10.7h-2.6v-10.7h-3.9v-2.1h10.4v2.1zM1109.3 530.7v4.5h-2.6v-12.8h5c1 0 1.8.2 2.5.5s1.3.9 1.7 1.5c.4.6.6 1.4.6 2.2 0 1.3-.4 2.2-1.3 3s-2 1.1-3.6 1.1h-2.3zm0-2.1h2.4c.7 0 1.2-.2 1.6-.5s.5-.8.5-1.4c0-.6-.2-1.1-.6-1.5s-.9-.6-1.5-.6h-2.4v4zM1130.5 530h-5.1v5.2h-2.6v-12.8h8.3v2.1h-5.7v3.3h5.1v2.2zM1135.1 535.2h-2.5v-13.5h2.5v13.5zM1136.8 530.4c0-.9.2-1.8.5-2.5s.9-1.3 1.6-1.7 1.5-.6 2.4-.6c1.3 0 2.3.4 3.1 1.2s1.3 1.9 1.4 3.2v.7c0 1.5-.4 2.6-1.2 3.5s-1.9 1.3-3.3 1.3-2.5-.4-3.3-1.3-1.2-2.1-1.2-3.6v-.2zm2.6.2c0 .9.2 1.6.5 2.1s.8.7 1.5.7c.6 0 1.1-.2 1.4-.7.3-.5.5-1.2.5-2.3 0-.9-.2-1.6-.5-2.1s-.8-.7-1.5-.7c-.6 0-1.1.2-1.4.7-.4.5-.5 1.2-.5 2.3zM1155.7 531.8l1.2-6.1h2.5l-2.4 9.5h-2.1l-1.8-6-1.8 6h-2.1l-2.4-9.5h2.5l1.2 6 1.7-6h1.8l1.7 6.1z"></path></g><g class="figure2-st19"><path class="figure2-st20" d="M1074.4 590.2h5.6v2.1h-8.2v-12.8h2.6v10.7zM1081 587.4c0-.9.2-1.8.5-2.5s.9-1.3 1.6-1.7 1.5-.6 2.4-.6c1.3 0 2.3.4 3.1 1.2s1.3 1.9 1.4 3.2v.7c0 1.5-.4 2.6-1.2 3.5s-1.9 1.3-3.3 1.3-2.5-.4-3.3-1.3-1.2-2.1-1.2-3.6v-.2zm2.5.2c0 .9.2 1.6.5 2.1s.8.7 1.5.7c.6 0 1.1-.2 1.4-.7.3-.5.5-1.2.5-2.3 0-.9-.2-1.6-.5-2.1s-.8-.7-1.5-.7c-.6 0-1.1.2-1.4.7-.3.6-.5 1.3-.5 2.3zM1091.2 587.5c0-1.5.3-2.6 1-3.5s1.6-1.3 2.8-1.3c1 0 1.9.4 2.4 1.1l.1-.9h2.3v9.2c0 .8-.2 1.6-.6 2.2s-.9 1.1-1.6 1.4-1.5.5-2.4.5c-.7 0-1.4-.1-2-.4s-1.2-.6-1.5-1.1l1.1-1.5c.6.7 1.4 1.1 2.3 1.1.7 0 1.2-.2 1.6-.5.4-.4.6-.9.6-1.5v-.5c-.6.7-1.4 1-2.3 1-1.1 0-2.1-.4-2.8-1.3s-1.1-2.1-1.1-3.6v-.4zm2.5.1c0 .9.2 1.5.5 2s.8.7 1.4.7c.8 0 1.3-.3 1.7-.9v-4c-.3-.6-.9-.9-1.6-.9-.6 0-1.1.2-1.4.7-.4.7-.6 1.5-.6 2.4zM1114.2 587.1h-5.1v5.2h-2.6v-12.8h8.3v2.1h-5.7v3.3h5.1v2.2zM1118.8 592.3h-2.5v-13.5h2.5v13.5zM1120.5 587.4c0-.9.2-1.8.5-2.5s.9-1.3 1.6-1.7 1.5-.6 2.4-.6c1.3 0 2.3.4 3.1 1.2s1.3 1.9 1.4 3.2v.7c0 1.5-.4 2.6-1.2 3.5s-1.9 1.3-3.3 1.3-2.5-.4-3.3-1.3-1.2-2.1-1.2-3.6v-.2zm2.6.2c0 .9.2 1.6.5 2.1s.8.7 1.5.7c.6 0 1.1-.2 1.4-.7.3-.5.5-1.2.5-2.3 0-.9-.2-1.6-.5-2.1s-.8-.7-1.5-.7c-.6 0-1.1.2-1.4.7-.3.6-.5 1.3-.5 2.3zM1139.4 588.8l1.2-6.1h2.5l-2.4 9.5h-2.1l-1.8-6-1.8 6h-2.1l-2.4-9.5h2.5l1.2 6 1.7-6h1.8l1.7 6.1z"></path></g><path style="fill:#179bd7" d="M128.3 436.4h84.1v17.1h-84.1z"></path><path class="figure2-st20" d="M159.3 445.7c-.1.9-.4 1.6-1 2.1s-1.3.7-2.2.7c-1 0-1.8-.4-2.4-1.1s-.9-1.7-.9-2.9v-.8c0-.8.1-1.5.4-2.1s.7-1.1 1.2-1.4 1.1-.5 1.8-.5c.9 0 1.6.3 2.2.8s.9 1.2 1 2.1h-1.1c-.1-.7-.3-1.2-.6-1.5s-.8-.5-1.4-.5c-.7 0-1.3.3-1.7.8-.4.5-.6 1.3-.6 2.3v.8c0 .9.2 1.7.6 2.2s.9.8 1.6.8c.6 0 1.1-.1 1.4-.4s.6-.8.7-1.5h1zM161.8 448.4h-1.1v-9h1.1v9zM163.5 440.4c0-.2.1-.3.2-.4s.3-.2.5-.2.4.1.5.2.2.3.2.4-.1.3-.2.4-.3.2-.5.2-.4-.1-.5-.2-.2-.2-.2-.4zm1.2 8h-1.1v-6.3h1.1v6.3zM169.1 448.5c-.9 0-1.6-.3-2.1-.8s-.8-1.3-.8-2.3v-.2c0-.6.1-1.2.4-1.7s.6-.9 1-1.2.9-.4 1.4-.4c.8 0 1.5.3 1.9.8s.7 1.3.7 2.3v.5h-4.3c0 .6.2 1.1.5 1.5s.8.6 1.3.6c.4 0 .7-.1 1-.2s.5-.4.7-.6l.7.5c-.6.8-1.4 1.2-2.4 1.2zm-.2-5.7c-.4 0-.8.2-1.1.5s-.5.8-.6 1.3h3.2v-.1c0-.6-.2-1-.4-1.3s-.6-.4-1.1-.4zM173.8 442.1v.8c.5-.6 1.1-.9 1.9-.9 1.3 0 2 .8 2 2.3v4.2h-1.1v-4.2c0-.5-.1-.8-.3-1s-.5-.3-1-.3c-.4 0-.7.1-.9.3s-.5.4-.6.7v4.5h-1.1v-6.3h1.1zM180.9 440.5v1.5h1.2v.8h-1.2v3.9c0 .3.1.4.2.6.1.1.3.2.5.2.1 0 .3 0 .5-.1v.9c-.3.1-.6.1-.8.1-.5 0-.8-.1-1.1-.4s-.4-.7-.4-1.2v-3.9h-1.2v-.8h1.2v-1.5h1.1zM187 446.7c0-.3-.1-.5-.3-.7s-.6-.3-1.2-.4-1-.3-1.3-.4-.6-.4-.7-.6-.2-.5-.2-.8c0-.5.2-1 .7-1.3s1-.5 1.7-.5 1.3.2 1.7.6.7.8.7 1.4H187c0-.3-.1-.6-.4-.8s-.6-.3-1-.3-.7.1-.9.3-.3.4-.3.7c0 .3.1.5.3.6s.6.3 1.1.4 1 .3 1.3.4.6.4.7.6.2.5.2.9c0 .6-.2 1-.7 1.4s-1 .5-1.8.5c-.5 0-1-.1-1.3-.3s-.7-.4-.9-.8-.3-.7-.3-1h1.1c0 .4.2.7.4.9s.6.3 1.1.3c.4 0 .7-.1 1-.2s.4-.6.4-.9zM193.6 512.8v-31.5h-46.4v31.5H163v2.7h-3.4v6.3h21.8v-6.3h-3.7v-2.7h15.9zm-14.4 6.8h-17.4v-2.1h17.4v2.1zm-3.7-5.7v1.4h-10.3v-1.4h10.3zm-26.1-30.4h42v27.1h-42v-27.1zM193.6 749.2v-31.5h-46.4v31.5H163v2.7h-3.4v6.3h21.8v-6.3h-3.7v-2.7h15.9zm-14.4 7h-17.4v-2.1h17.4v2.1zm-3.7-5.8v1.4h-10.3v-1.4h10.3zm-26.1-30.5h42V747h-42v-27.1zM165.3 648.4h-4v-3.8h-2v4h-4.2v2h4.2v4.2h2v-4.2h4v-2.2z"></path><path class="figure2-st20" d="M164.5 639.7h15.2c4 0 6.7 2 7.9 5.7 1.2 3.7 2.2 7.5 3.3 12.7.5 2.5-.5 5-2.8 6.5-.8.3-1.7.5-2.5.5-1.7 0-3.3-.8-4.2-2-1.2-1.3-2.5-3.2-4.9-4.5-2.2-1.2-4.2-1.7-6.2-1.7-2.5 0-4.9.8-6.7 2.5-1.3.8-2.5 2.2-3.7 3.3-1.2 1.3-2.8 2-4.5 2-.5 0-1.3 0-2-.3-2.2-.8-3.7-2.8-3.3-5.4 0-1.3.5-3.7.8-5.4.8-3.2 1.7-6.2 2.8-9.5.8-2.8 4-4.5 6.7-4.5l4.1.1zm0-2.2h-4c-4 0-7.5 2.8-8.7 6.5-1.2 3.3-2 6.5-2.8 9.9-.5 1.7-.8 3.7-1.2 5.4-.3 3.3 1.7 6.2 5 7.5.8.3 1.7.5 2.5.5 2.2 0 4.5-1.2 5.9-2.8 1.2-1.3 2.2-2.5 3.3-3.7 1.7-1.2 3.7-2 5.7-2 1.7 0 3.2.5 4.9 1.3 1.7 1.2 2.8 2.5 4.2 4 1.3 1.7 3.7 2.8 5.9 2.8 1.2 0 2.2-.3 3.3-.8 3.2-1.7 5-5.4 4-8.7-1.2-4.2-2.2-8.5-3.3-12.7-1.3-4.9-5-7.4-9.9-7.4h-9c-1.8.2-3.8.2-5.8.2z"></path><path class="figure2-st20" d="M179.4 647.4c1 0 1.7-.8 1.7-1.7 0-1-.8-1.7-1.7-1.7-.8 0-1.7.8-1.7 1.7 0 .8.8 1.7 1.7 1.7zM184.6 649.9c1 0 1.7-.8 1.7-1.7 0-1-.8-1.7-1.7-1.7-.8 0-1.7.8-1.7 1.7-.2.8.6 1.7 1.7 1.7zM176 652.4c1 0 1.7-.8 1.7-1.7 0-1-.8-1.7-1.7-1.7-.8 0-1.7.8-1.7 1.7 0 .9.7 1.7 1.7 1.7zM181 654.9c1 0 1.7-.8 1.7-1.7 0-1-.8-1.7-1.7-1.7-1 0-1.7.8-1.7 1.7.1.9.9 1.7 1.7 1.7zM165.3 882.6h-4v-4h-2v4h-4.2v2h4.2v4.2h2v-4.2h4v-2z"></path><path class="figure2-st20" d="M164.5 873.7h15.2c4 0 6.7 2 7.9 5.7s2.2 7.5 3.3 12.7c.5 2.5-.5 5-2.8 6.5-.8.3-1.7.5-2.5.5-1.7 0-3.3-.8-4.2-2-1.2-1.3-2.5-3.2-4.9-4.5-2.2-1.2-4.2-1.7-6.2-1.7-2.5 0-4.9.8-6.7 2.5-1.3.8-2.5 2.2-3.7 3.3-1.2 1.3-2.8 2-4.5 2-.5 0-1.3 0-2-.3-2.2-.8-3.7-2.8-3.3-5.4 0-1.3.5-3.7.8-5.4.8-3.2 1.7-6.2 2.8-9.5.8-2.8 4-4.5 6.7-4.5l4.1.1zm0-2.2h-4c-4 0-7.5 2.8-8.7 6.5-1.2 3.3-2 6.5-2.8 9.9-.5 1.7-.8 3.7-1.2 5.4-.3 3.3 1.7 6.2 5 7.5.8.3 1.7.5 2.5.5 2.2 0 4.5-1.2 5.9-2.8 1.2-1.3 2.2-2.5 3.3-3.7 1.7-1.2 3.7-2 5.7-2 1.7 0 3.2.5 4.9 1.3 1.7 1.2 2.8 2.5 4.2 4 1.3 1.7 3.7 2.8 5.9 2.8 1.2 0 2.2-.3 3.3-.8 3.2-1.7 5-5.4 4-8.7-1.2-4.2-2.2-8.5-3.3-12.7-1.3-4.9-5-7.4-9.9-7.4h-9c-1.8.2-3.8.2-5.8.2z"></path><path class="figure2-st20" d="M179.4 881.4c1 0 1.7-.8 1.7-1.7 0-1-.8-1.7-1.7-1.7-.8 0-1.7.8-1.7 1.7 0 .9.8 1.7 1.7 1.7zM184.6 883.9c1 0 1.7-.8 1.7-1.7 0-1-.8-1.7-1.7-1.7-.8 0-1.7.8-1.7 1.7-.2.9.6 1.7 1.7 1.7zM176 886.4c1 0 1.7-.8 1.7-1.7 0-.8-.8-1.7-1.7-1.7-.8 0-1.7.8-1.7 1.7 0 .9.7 1.7 1.7 1.7zM181 888.9c1 0 1.7-.8 1.7-1.7 0-1-.8-1.7-1.7-1.7-1 0-1.7.8-1.7 1.7.1.9.9 1.7 1.7 1.7zM179.9 555.2v37.2h-19v-37.2h19zm1.9-1.9h-22.9v41h22.9v-41z"></path><path class="figure2-st20" d="M170.3 590.5c1 0 1.8-.8 1.8-1.8s-.8-1.8-1.8-1.8-1.8.8-1.8 1.8c.2 1 .8 1.8 1.8 1.8zM179.9 792.6v37.2h-19v-37.2h19zm1.9-2h-22.9v41h22.9v-41z"></path><path class="figure2-st20" d="M170.3 827.9c1 0 1.8-.8 1.8-1.8s-.8-1.8-1.8-1.8-1.8.8-1.8 1.8c0 .9.8 1.8 1.8 1.8z"></path><g class="figure2-st19"><path class="figure2-st20" d="M149.4 474.1v-8.5h2.8c.9 0 1.6.2 2.1.6s.7.9.7 1.7c0 .4-.1.8-.3 1.1s-.5.5-.9.7c.5.1.8.4 1.1.7s.4.8.4 1.3c0 .8-.2 1.4-.7 1.8s-1.2.7-2.1.7h-3.1zm1.1-4.9h1.7c.5 0 .9-.1 1.2-.4.3-.2.4-.6.4-1 0-.5-.1-.8-.4-1-.3-.2-.7-.3-1.2-.3h-1.7v2.7zm0 .9v3.1h1.9c.5 0 .9-.1 1.2-.4s.5-.6.5-1.1c0-1-.6-1.5-1.7-1.5h-1.9zM159.8 468.7h-.5c-.7 0-1.2.3-1.4.9v4.5h-1.1v-6.3h1.1v.7c.4-.6.9-.8 1.5-.8.2 0 .4 0 .5.1v.9zM160.4 470.8c0-.6.1-1.2.4-1.7s.6-.9 1-1.1.9-.4 1.5-.4c.9 0 1.6.3 2.1.9s.8 1.4.8 2.4v.1c0 .6-.1 1.2-.4 1.7s-.6.9-1 1.1-.9.4-1.5.4c-.9 0-1.6-.3-2.1-.9s-.8-1.4-.8-2.5zm1 .2c0 .7.2 1.3.5 1.7s.8.6 1.3.6c.6 0 1-.2 1.3-.6s.5-1 .5-1.8c0-.7-.2-1.3-.5-1.7s-.8-.6-1.3-.6-1 .2-1.3.6-.5 1-.5 1.8zM173.1 472.6l1.2-4.8h1.1l-1.8 6.3h-.9l-1.5-4.8-1.5 4.8h-.9l-1.8-6.3h1.1l1.2 4.7 1.5-4.7h.9l1.4 4.8zM180.2 472.4c0-.3-.1-.5-.3-.7s-.6-.3-1.2-.4-1-.3-1.3-.4-.6-.4-.7-.6-.2-.5-.2-.8c0-.5.2-1 .7-1.3s1-.5 1.7-.5 1.3.2 1.7.6.7.8.7 1.4h-1.1c0-.3-.1-.6-.4-.8s-.6-.3-1-.3-.7.1-.9.3-.3.4-.3.7c0 .3.1.5.3.6s.6.3 1.1.4 1 .3 1.3.4.6.4.7.6.2.5.2.9c0 .6-.2 1-.7 1.4s-1 .5-1.8.5c-.5 0-1-.1-1.3-.3s-.7-.4-.9-.8-.3-.7-.3-1h1.1c0 .4.2.7.4.9s.6.3 1.1.3c.4 0 .7-.1 1-.2s.4-.6.4-.9zM185.3 474.2c-.9 0-1.6-.3-2.1-.8s-.8-1.3-.8-2.3v-.2c0-.6.1-1.2.4-1.7s.6-.9 1-1.2.9-.4 1.4-.4c.8 0 1.5.3 1.9.8s.7 1.3.7 2.3v.5h-4.3c0 .6.2 1.1.5 1.5s.8.6 1.3.6c.4 0 .7-.1 1-.2s.5-.4.7-.6l.7.5c-.5.8-1.3 1.2-2.4 1.2zm-.1-5.7c-.4 0-.8.2-1.1.5s-.5.8-.6 1.3h3.2v-.1c0-.6-.2-1-.4-1.3s-.7-.4-1.1-.4zM192.1 468.7h-.5c-.7 0-1.2.3-1.4.9v4.5h-1.1v-6.3h1.1v.7c.4-.6.9-.8 1.5-.8.2 0 .4 0 .5.1v.9z"></path></g><g class="figure2-st19"><path class="figure2-st20" d="M149.4 710.6v-8.5h2.8c.9 0 1.6.2 2.1.6s.7.9.7 1.7c0 .4-.1.8-.3 1.1s-.5.5-.9.7c.5.1.8.4 1.1.7s.4.8.4 1.3c0 .8-.2 1.4-.7 1.8s-1.2.7-2.1.7h-3.1zm1.1-4.9h1.7c.5 0 .9-.1 1.2-.4.3-.2.4-.6.4-1 0-.5-.1-.8-.4-1-.3-.2-.7-.3-1.2-.3h-1.7v2.7zm0 .9v3.1h1.9c.5 0 .9-.1 1.2-.4s.5-.6.5-1.1c0-1-.6-1.5-1.7-1.5h-1.9zM159.8 705.2h-.5c-.7 0-1.2.3-1.4.9v4.5h-1.1v-6.3h1.1v.7c.4-.6.9-.8 1.5-.8.2 0 .4 0 .5.1v.9zM160.4 707.4c0-.6.1-1.2.4-1.7s.6-.9 1-1.1.9-.4 1.5-.4c.9 0 1.6.3 2.1.9s.8 1.4.8 2.4v.1c0 .6-.1 1.2-.4 1.7s-.6.9-1 1.1-.9.4-1.5.4c-.9 0-1.6-.3-2.1-.9s-.8-1.5-.8-2.5zm1 .1c0 .7.2 1.3.5 1.7s.8.6 1.3.6c.6 0 1-.2 1.3-.6s.5-1 .5-1.8c0-.7-.2-1.3-.5-1.7s-.8-.6-1.3-.6-1 .2-1.3.6-.5 1-.5 1.8zM173.1 709.1l1.2-4.8h1.1l-1.8 6.3h-.9l-1.5-4.8-1.5 4.8h-.9l-1.8-6.3h1.1l1.2 4.7 1.5-4.7h.9l1.4 4.8zM180.2 708.9c0-.3-.1-.5-.3-.7s-.6-.3-1.2-.4-1-.3-1.3-.4-.6-.4-.7-.6-.2-.5-.2-.8c0-.5.2-1 .7-1.3s1-.5 1.7-.5 1.3.2 1.7.6.7.8.7 1.4h-1.1c0-.3-.1-.6-.4-.8s-.6-.3-1-.3-.7.1-.9.3-.3.4-.3.7c0 .3.1.5.3.6s.6.3 1.1.4 1 .3 1.3.4.6.4.7.6.2.5.2.9c0 .6-.2 1-.7 1.4s-1 .5-1.8.5c-.5 0-1-.1-1.3-.3s-.7-.4-.9-.8-.3-.7-.3-1h1.1c0 .4.2.7.4.9s.6.3 1.1.3c.4 0 .7-.1 1-.2s.4-.6.4-.9zM185.3 710.7c-.9 0-1.6-.3-2.1-.8s-.8-1.3-.8-2.3v-.2c0-.6.1-1.2.4-1.7s.6-.9 1-1.2.9-.4 1.4-.4c.8 0 1.5.3 1.9.8s.7 1.3.7 2.3v.5h-4.3c0 .6.2 1.1.5 1.5s.8.6 1.3.6c.4 0 .7-.1 1-.2s.5-.4.7-.6l.7.5c-.5.8-1.3 1.2-2.4 1.2zm-.1-5.7c-.4 0-.8.2-1.1.5s-.5.8-.6 1.3h3.2v-.1c0-.6-.2-1-.4-1.3s-.7-.4-1.1-.4zM192.1 705.2h-.5c-.7 0-1.2.3-1.4.9v4.5h-1.1v-6.3h1.1v.7c.4-.6.9-.8 1.5-.8.2 0 .4 0 .5.1v.9z"></path></g><g class="figure2-st19"><path class="figure2-st20" d="m143.2 537.5 2.8 7 2.8-7h1.5v8.5h-1.1v-3.3l.1-3.6-2.8 6.9h-.9l-2.8-6.9.1 3.6v3.3h-1.1v-8.5h1.4zM151.8 542.8c0-.6.1-1.2.4-1.7s.6-.9 1-1.1.9-.4 1.5-.4c.9 0 1.6.3 2.1.9s.8 1.4.8 2.4v.1c0 .6-.1 1.2-.4 1.7s-.6.9-1 1.1-.9.4-1.5.4c-.9 0-1.6-.3-2.1-.9s-.8-1.5-.8-2.5zm1.1.1c0 .7.2 1.3.5 1.7s.8.6 1.3.6c.6 0 1-.2 1.3-.6s.5-1 .5-1.8c0-.7-.2-1.3-.5-1.7s-.8-.6-1.3-.6-1 .2-1.3.6-.5 1-.5 1.8zM164.3 542.9c0 1-.2 1.7-.7 2.3s-1 .9-1.8.9-1.4-.3-1.9-.8l-.1.7h-1v-9h1.1v3.4c.4-.5 1-.8 1.8-.8s1.4.3 1.8.9.8 1.3.8 2.4zm-1.1-.1c0-.7-.1-1.3-.4-1.7s-.7-.6-1.2-.6c-.7 0-1.2.3-1.5 1v2.7c.3.7.8 1 1.6 1 .5 0 .9-.2 1.2-.6s.3-1 .3-1.8zM165.6 538c0-.2.1-.3.2-.4s.3-.2.5-.2.4.1.5.2.2.3.2.4-.1.3-.2.4-.3.2-.5.2-.4-.1-.5-.2-.2-.3-.2-.4zm1.2 8h-1.1v-6.3h1.1v6.3zM169.7 546h-1.1v-9h1.1v9zM174.1 546.1c-.9 0-1.6-.3-2.1-.8s-.8-1.3-.8-2.3v-.2c0-.6.1-1.2.4-1.7s.6-.9 1-1.2.9-.4 1.4-.4c.8 0 1.5.3 1.9.8s.7 1.3.7 2.3v.5h-4.3c0 .6.2 1.1.5 1.5s.8.6 1.3.6c.4 0 .7-.1 1-.2s.5-.4.7-.6l.7.5c-.6.8-1.4 1.2-2.4 1.2zm-.2-5.7c-.4 0-.8.2-1.1.5s-.5.8-.6 1.3h3.2v-.1c0-.6-.2-1-.4-1.3s-.6-.4-1.1-.4zM184.7 546c-.1-.1-.1-.3-.2-.7-.5.5-1.1.8-1.8.8-.6 0-1.1-.2-1.5-.5s-.6-.8-.6-1.3c0-.7.3-1.2.8-1.5s1.2-.5 2.1-.5h1.1v-.5c0-.4-.1-.7-.3-.9s-.6-.3-1-.3-.7.1-1 .3-.4.4-.4.7h-1.1c0-.3.1-.6.3-.9s.5-.5.9-.7.8-.3 1.3-.3c.7 0 1.3.2 1.7.5s.6.9.6 1.5v2.9c0 .6.1 1 .2 1.4v.1h-1.1zm-1.8-.8c.3 0 .7-.1 1-.3s.5-.4.7-.7v-1.3h-.8c-1.3 0-2 .4-2 1.2 0 .3.1.6.3.8s.4.3.8.3zM192.7 542.9c0 1-.2 1.7-.7 2.3s-1 .9-1.8.9-1.4-.2-1.8-.7v3.1h-1.1v-8.8h1l.1.7c.4-.5 1.1-.8 1.8-.8.8 0 1.4.3 1.8.9s.7 1.3.7 2.4zm-1.1-.1c0-.7-.2-1.3-.5-1.7s-.7-.6-1.3-.6c-.7 0-1.1.3-1.5.9v3c.3.6.8.9 1.5.9.5 0 .9-.2 1.2-.6s.6-1.1.6-1.9zM199.4 542.9c0 1-.2 1.7-.7 2.3s-1 .9-1.8.9-1.4-.2-1.8-.7v3.1H194v-8.8h1l.1.7c.4-.5 1.1-.8 1.8-.8.8 0 1.4.3 1.8.9s.7 1.3.7 2.4zm-1.1-.1c0-.7-.2-1.3-.5-1.7s-.7-.6-1.3-.6c-.7 0-1.1.3-1.5.9v3c.3.6.8.9 1.5.9.5 0 .9-.2 1.2-.6s.6-1.1.6-1.9z"></path></g><g class="figure2-st19"><path class="figure2-st20" d="m143.2 774.9 2.8 7 2.8-7h1.5v8.5h-1.1v-3.3l.1-3.6-2.8 6.9h-.9l-2.8-6.9.1 3.6v3.3h-1.1v-8.5h1.4zM151.8 780.2c0-.6.1-1.2.4-1.7s.6-.9 1-1.1.9-.4 1.5-.4c.9 0 1.6.3 2.1.9s.8 1.4.8 2.4v.1c0 .6-.1 1.2-.4 1.7s-.6.9-1 1.1-.9.4-1.5.4c-.9 0-1.6-.3-2.1-.9s-.8-1.5-.8-2.5zm1.1.1c0 .7.2 1.3.5 1.7s.8.6 1.3.6c.6 0 1-.2 1.3-.6s.5-1 .5-1.8c0-.7-.2-1.3-.5-1.7s-.8-.6-1.3-.6-1 .2-1.3.6-.5 1-.5 1.8zM164.3 780.3c0 1-.2 1.7-.7 2.3s-1 .9-1.8.9-1.4-.3-1.9-.8l-.1.7h-1v-9h1.1v3.4c.4-.5 1-.8 1.8-.8s1.4.3 1.8.9.8 1.3.8 2.4zm-1.1-.1c0-.7-.1-1.3-.4-1.7s-.7-.6-1.2-.6c-.7 0-1.2.3-1.5 1v2.7c.3.7.8 1 1.6 1 .5 0 .9-.2 1.2-.6s.3-1 .3-1.8zM165.6 775.4c0-.2.1-.3.2-.4s.3-.2.5-.2.4.1.5.2.2.3.2.4-.1.3-.2.4-.3.2-.5.2-.4-.1-.5-.2-.2-.2-.2-.4zm1.2 8h-1.1v-6.3h1.1v6.3zM169.7 783.4h-1.1v-9h1.1v9zM174.1 783.5c-.9 0-1.6-.3-2.1-.8s-.8-1.3-.8-2.3v-.2c0-.6.1-1.2.4-1.7s.6-.9 1-1.2.9-.4 1.4-.4c.8 0 1.5.3 1.9.8s.7 1.3.7 2.3v.5h-4.3c0 .6.2 1.1.5 1.5s.8.6 1.3.6c.4 0 .7-.1 1-.2s.5-.4.7-.6l.7.5c-.6.8-1.4 1.2-2.4 1.2zm-.2-5.7c-.4 0-.8.2-1.1.5s-.5.8-.6 1.3h3.2v-.1c0-.6-.2-1-.4-1.3s-.6-.4-1.1-.4zM184.7 783.4c-.1-.1-.1-.3-.2-.7-.5.5-1.1.8-1.8.8-.6 0-1.1-.2-1.5-.5s-.6-.8-.6-1.3c0-.7.3-1.2.8-1.5s1.2-.5 2.1-.5h1.1v-.5c0-.4-.1-.7-.3-.9s-.6-.3-1-.3-.7.1-1 .3-.4.4-.4.7h-1.1c0-.3.1-.6.3-.9s.5-.5.9-.7.8-.3 1.3-.3c.7 0 1.3.2 1.7.5s.6.9.6 1.5v2.9c0 .6.1 1 .2 1.4v.1h-1.1zm-1.8-.8c.3 0 .7-.1 1-.3s.5-.4.7-.7v-1.3h-.8c-1.3 0-2 .4-2 1.2 0 .3.1.6.3.8s.4.3.8.3zM192.7 780.3c0 1-.2 1.7-.7 2.3s-1 .9-1.8.9-1.4-.2-1.8-.7v3.1h-1.1v-8.8h1l.1.7c.4-.5 1.1-.8 1.8-.8.8 0 1.4.3 1.8.9s.7 1.3.7 2.4zm-1.1-.1c0-.7-.2-1.3-.5-1.7s-.7-.6-1.3-.6c-.7 0-1.1.3-1.5.9v3c.3.6.8.9 1.5.9.5 0 .9-.2 1.2-.6s.6-1.1.6-1.9zM199.4 780.3c0 1-.2 1.7-.7 2.3s-1 .9-1.8.9-1.4-.2-1.8-.7v3.1H194v-8.8h1l.1.7c.4-.5 1.1-.8 1.8-.8.8 0 1.4.3 1.8.9s.7 1.3.7 2.4zm-1.1-.1c0-.7-.2-1.3-.5-1.7s-.7-.6-1.3-.6c-.7 0-1.1.3-1.5.9v3c.3.6.8.9 1.5.9.5 0 .9-.2 1.2-.6s.6-1.1.6-1.9z"></path></g><g class="figure2-st19"><path class="figure2-st20" d="M155.8 627.2c-.1.9-.4 1.6-1 2.1s-1.3.7-2.2.7c-1 0-1.8-.4-2.4-1.1s-.9-1.7-.9-2.9v-.8c0-.8.1-1.5.4-2.1s.7-1.1 1.2-1.4 1.1-.5 1.8-.5c.9 0 1.6.3 2.2.8s.9 1.2 1 2.1h-1.1c-.1-.7-.3-1.2-.6-1.5s-.8-.5-1.4-.5c-.7 0-1.3.3-1.7.8-.4.5-.6 1.3-.6 2.3v.8c0 .9.2 1.7.6 2.2s.9.8 1.6.8c.6 0 1.1-.1 1.4-.4s.6-.8.7-1.5h1zM156.9 626.7c0-.6.1-1.2.4-1.7s.6-.9 1-1.1.9-.4 1.5-.4c.9 0 1.6.3 2.1.9s.8 1.4.8 2.4v.1c0 .6-.1 1.2-.4 1.7s-.6.9-1 1.1-.9.4-1.5.4c-.9 0-1.6-.3-2.1-.9s-.8-1.5-.8-2.5zm1.1.1c0 .7.2 1.3.5 1.7s.8.6 1.3.6c.6 0 1-.2 1.3-.6s.5-1 .5-1.8c0-.7-.2-1.3-.5-1.7s-.8-.6-1.3-.6-1 .2-1.3.6-.5 1-.5 1.8zM165.1 623.6v.8c.5-.6 1.1-.9 1.9-.9 1.3 0 2 .8 2 2.3v4.2h-1.1v-4.2c0-.5-.1-.8-.3-1s-.5-.3-1-.3c-.4 0-.7.1-.9.3s-.5.4-.6.7v4.5H164v-6.3h1.1zM174.4 628.2c0-.3-.1-.5-.3-.7s-.6-.3-1.2-.4-1-.3-1.3-.4-.6-.4-.7-.6-.2-.5-.2-.8c0-.5.2-1 .7-1.3s1-.5 1.7-.5 1.3.2 1.7.6.7.8.7 1.4h-1.1c0-.3-.1-.6-.4-.8s-.6-.3-1-.3-.7.1-.9.3-.3.4-.3.7c0 .3.1.5.3.6s.6.3 1.1.4 1 .3 1.3.4.6.4.7.6.2.5.2.9c0 .6-.2 1-.7 1.4s-1 .5-1.8.5c-.5 0-1-.1-1.3-.3s-.7-.4-.9-.8-.3-.7-.3-1h1.1c0 .4.2.7.4.9s.6.3 1.1.3c.4 0 .7-.1 1-.2s.4-.6.4-.9zM176.6 626.7c0-.6.1-1.2.4-1.7s.6-.9 1-1.1.9-.4 1.5-.4c.9 0 1.6.3 2.1.9s.8 1.4.8 2.4v.1c0 .6-.1 1.2-.4 1.7s-.6.9-1 1.1-.9.4-1.5.4c-.9 0-1.6-.3-2.1-.9s-.8-1.5-.8-2.5zm1 .1c0 .7.2 1.3.5 1.7s.8.6 1.3.6c.6 0 1-.2 1.3-.6s.5-1 .5-1.8c0-.7-.2-1.3-.5-1.7s-.8-.6-1.3-.6-1 .2-1.3.6-.5 1-.5 1.8zM184.9 629.9h-1.1v-9h1.1v9zM189.2 630c-.9 0-1.6-.3-2.1-.8s-.8-1.3-.8-2.3v-.2c0-.6.1-1.2.4-1.7s.6-.9 1-1.2.9-.4 1.4-.4c.8 0 1.5.3 1.9.8s.7 1.3.7 2.3v.5h-4.3c0 .6.2 1.1.5 1.5s.8.6 1.3.6c.4 0 .7-.1 1-.2s.5-.4.7-.6l.7.5c-.5.8-1.3 1.2-2.4 1.2zm-.1-5.7c-.4 0-.8.2-1.1.5s-.5.8-.6 1.3h3.2v-.1c0-.6-.2-1-.4-1.3s-.6-.4-1.1-.4z"></path></g><g class="figure2-st19"><path class="figure2-st20" d="M155.8 861.4c-.1.9-.4 1.6-1 2.1s-1.3.7-2.2.7c-1 0-1.8-.4-2.4-1.1s-.9-1.7-.9-2.9v-.8c0-.8.1-1.5.4-2.1s.7-1.1 1.2-1.4 1.1-.5 1.8-.5c.9 0 1.6.3 2.2.8s.9 1.2 1 2.1h-1.1c-.1-.7-.3-1.2-.6-1.5s-.8-.5-1.4-.5c-.7 0-1.3.3-1.7.8-.4.5-.6 1.3-.6 2.3v.8c0 .9.2 1.7.6 2.2.4.5.9.8 1.6.8.6 0 1.1-.1 1.4-.4s.6-.8.7-1.5h1zM156.9 860.8c0-.6.1-1.2.4-1.7s.6-.9 1-1.1.9-.4 1.5-.4c.9 0 1.6.3 2.1.9s.8 1.4.8 2.4v.1c0 .6-.1 1.2-.4 1.7s-.6.9-1 1.1-.9.4-1.5.4c-.9 0-1.6-.3-2.1-.9s-.8-1.4-.8-2.5zm1.1.2c0 .7.2 1.3.5 1.7s.8.6 1.3.6c.6 0 1-.2 1.3-.6s.5-1 .5-1.8c0-.7-.2-1.3-.5-1.7s-.8-.6-1.3-.6-1 .2-1.3.6-.5 1-.5 1.8zM165.1 857.7v.8c.5-.6 1.1-.9 1.9-.9 1.3 0 2 .8 2 2.3v4.2h-1.1v-4.2c0-.5-.1-.8-.3-1s-.5-.3-1-.3c-.4 0-.7.1-.9.3s-.5.4-.6.7v4.5H164v-6.3h1.1zM174.4 862.4c0-.3-.1-.5-.3-.7s-.6-.3-1.2-.4-1-.3-1.3-.4-.6-.4-.7-.6-.2-.5-.2-.8c0-.5.2-1 .7-1.3s1-.5 1.7-.5 1.3.2 1.7.6.7.8.7 1.4h-1.1c0-.3-.1-.6-.4-.8s-.6-.3-1-.3-.7.1-.9.3-.3.4-.3.7c0 .3.1.5.3.6s.6.3 1.1.4 1 .3 1.3.4.6.4.7.6.2.5.2.9c0 .6-.2 1-.7 1.4s-1 .5-1.8.5c-.5 0-1-.1-1.3-.3s-.7-.4-.9-.8-.3-.7-.3-1h1.1c0 .4.2.7.4.9s.6.3 1.1.3c.4 0 .7-.1 1-.2s.4-.6.4-.9zM176.6 860.8c0-.6.1-1.2.4-1.7s.6-.9 1-1.1.9-.4 1.5-.4c.9 0 1.6.3 2.1.9s.8 1.4.8 2.4v.1c0 .6-.1 1.2-.4 1.7s-.6.9-1 1.1-.9.4-1.5.4c-.9 0-1.6-.3-2.1-.9s-.8-1.4-.8-2.5zm1 .2c0 .7.2 1.3.5 1.7s.8.6 1.3.6c.6 0 1-.2 1.3-.6s.5-1 .5-1.8c0-.7-.2-1.3-.5-1.7s-.8-.6-1.3-.6-1 .2-1.3.6-.5 1-.5 1.8zM184.9 864.1h-1.1v-9h1.1v9zM189.2 864.2c-.9 0-1.6-.3-2.1-.8s-.8-1.3-.8-2.3v-.2c0-.6.1-1.2.4-1.7s.6-.9 1-1.2.9-.4 1.4-.4c.8 0 1.5.3 1.9.8s.7 1.3.7 2.3v.5h-4.3c0 .6.2 1.1.5 1.5s.8.6 1.3.6c.4 0 .7-.1 1-.2s.5-.4.7-.6l.7.5c-.5.8-1.3 1.2-2.4 1.2zm-.1-5.7c-.4 0-.8.2-1.1.5s-.5.8-.6 1.3h3.2v-.1c0-.6-.2-1-.4-1.3s-.6-.4-1.1-.4z"></path></g><path class="figure2-st22" d="M330 705c-12.7-3.9-22-15.6-22-29.5 0-14 9.5-25.9 22.3-29.6 1.4-.4 1-1.3-.6-1.3-17.2 0-31.2 13.9-31.2 30.9s13.9 30.8 31.2 30.8c1.6.1 1.7-.8.3-1.3z"></path><path class="figure2-st22" d="M313.9 682.8c-.1-.8-.1-1.6-.1-2.5 0-13.5 11-24.5 24.5-24.5 12.7 0 16.7 5.7 17.2 5.3s-4.7-11.7-19.7-11.7c-13.5 0-24.5 11-24.5 24.5 0 3.2.6 6.2 1.6 8.8.5 1.3 1.1 1.3 1 .1z"></path><path class="figure2-st22" d="M324.2 665.2c6.3-2.8 14.4-2.9 22.2-.1 5.3 1.9 8.3 4.4 8.6 4.4.4-.1-3-5.7-9.3-8.1-7.7-2.9-15.8-1.4-21.8 3.3-.7.5-.4.8.3.5z"></path><g class="figure2-st19"><path class="figure2-st20" d="M293.8 732.5h-4.7v3.8h5.4v1.2h-6.8v-10.8h6.8v1.2h-5.3v3.5h4.7v1.1zM295.6 733.5c0-1.2.3-2.2.9-3 .6-.7 1.3-1.1 2.3-1.1.9 0 1.7.3 2.2 1v-4.2h1.4v11.4h-1.3l-.1-.9c-.5.7-1.3 1-2.3 1-.9 0-1.7-.4-2.3-1.1s-.9-1.8-.9-3v-.1zm1.4.1c0 .9.2 1.6.6 2.1s.9.8 1.6.8c.9 0 1.5-.4 1.9-1.2v-3.7c-.4-.8-1-1.1-1.9-1.1-.7 0-1.2.3-1.6.8s-.6 1.3-.6 2.3zM304.2 733.5c0-1.2.3-2.2.9-3 .6-.7 1.3-1.1 2.3-1.1 1 0 1.7.3 2.3 1l.1-.9h1.2v7.8c0 1-.3 1.9-.9 2.4-.6.6-1.4.9-2.5.9-.6 0-1.1-.1-1.7-.4-.6-.2-1-.6-1.3-1l.7-.8c.6.7 1.3 1.1 2.2 1.1.7 0 1.2-.2 1.6-.6.4-.4.6-.9.6-1.6v-.7c-.5.6-1.3.9-2.2.9-.9 0-1.7-.4-2.3-1.1s-1-1.6-1-2.9zm1.4.1c0 .9.2 1.6.6 2.1s.9.8 1.6.8c.9 0 1.5-.4 1.9-1.2v-3.7c-.4-.8-1-1.1-1.9-1.1-.7 0-1.2.3-1.6.8s-.6 1.3-.6 2.3zM316.3 737.7c-1.1 0-2-.4-2.6-1.1-.7-.7-1-1.7-1-2.9v-.3c0-.8.2-1.5.5-2.1s.7-1.1 1.3-1.5 1.1-.5 1.8-.5c1 0 1.8.3 2.4 1 .6.7.9 1.7.9 2.9v.6H314c0 .8.2 1.4.7 1.9.4.5 1 .7 1.7.7.5 0 .9-.1 1.2-.3.3-.2.6-.5.9-.8l.8.7c-.6 1.2-1.6 1.7-3 1.7zm-.1-7.2c-.6 0-1 .2-1.4.6-.4.4-.6 1-.7 1.7h4v-.1c0-.7-.2-1.2-.6-1.6-.3-.4-.8-.6-1.3-.6zM332.9 734.1c-.1 1.1-.6 2-1.3 2.6-.7.6-1.6.9-2.8.9-1.3 0-2.3-.5-3.1-1.4-.8-.9-1.1-2.1-1.1-3.7v-1c0-1 .2-1.9.5-2.6.4-.8.9-1.3 1.5-1.7.7-.4 1.4-.6 2.3-.6 1.1 0 2.1.3 2.8 1 .7.6 1.1 1.5 1.2 2.7h-1.4c-.1-.9-.4-1.5-.8-1.9-.4-.4-1-.6-1.7-.6-.9 0-1.6.3-2.1 1s-.8 1.6-.8 2.9v1c0 1.2.2 2.1.7 2.8.5.7 1.2 1 2 1s1.4-.2 1.8-.5.7-1 .8-1.9h1.5zM334.9 737.5v-10.8h3c.9 0 1.8.2 2.5.6s1.3 1 1.7 1.8c.4.8.6 1.6.6 2.6v.7c0 1-.2 1.9-.6 2.7-.4.8-1 1.4-1.7 1.8-.7.4-1.6.6-2.5.6h-3zm1.4-9.6v8.4h1.5c1.1 0 1.9-.3 2.6-1 .6-.7.9-1.7.9-2.9v-.6c0-1.2-.3-2.2-.9-2.9-.6-.7-1.4-1-2.4-1h-1.7zM353.1 737.5h-1.4l-5.4-8.3v8.3h-1.4v-10.8h1.4l5.4 8.3v-8.3h1.4v10.8zM358.8 734.6c0-.5.1-1 .4-1.4.3-.4.8-.9 1.7-1.5-.5-.6-.8-1-1-1.4s-.2-.7-.2-1.1c0-.8.2-1.5.7-1.9.5-.5 1.1-.7 2-.7.7 0 1.4.2 1.8.6.5.4.7 1 .7 1.6 0 .4-.1.8-.3 1.2-.2.4-.6.8-1.1 1.2l-.8.6 2.4 2.9c.3-.6.5-1.4.5-2.1h1.2c0 1.3-.3 2.3-.9 3.1l1.5 1.8h-1.6l-.7-.9c-.4.3-.8.6-1.3.7-.5.2-1 .3-1.5.3-1 0-1.9-.3-2.5-.8s-1-1.3-1-2.2zm3.5 2c.7 0 1.4-.3 2-.8l-2.6-3.1-.2.2c-.8.6-1.2 1.2-1.2 1.9 0 .6.2 1 .6 1.4s.7.4 1.4.4zm-1.2-7.4c0 .5.3 1.1.9 1.8l.9-.6c.3-.2.6-.5.7-.7.1-.2.2-.5.2-.8 0-.3-.1-.6-.4-.8-.2-.2-.6-.3-.9-.3-.4 0-.7.1-1 .4-.3.2-.4.6-.4 1z"></path></g><g class="figure2-st19"><path class="figure2-st20" d="M304.4 750.1c-1.2-.3-2.1-.8-2.7-1.3-.6-.5-.8-1.1-.8-1.9 0-.8.3-1.5 1-2.1.7-.6 1.6-.8 2.6-.8.7 0 1.4.1 2 .4s1 .7 1.3 1.2.5 1.1.5 1.6h-1.4c0-.7-.2-1.2-.6-1.5-.4-.4-1-.6-1.8-.6-.7 0-1.2.2-1.6.5-.4.3-.6.7-.6 1.3 0 .4.2.8.6 1.1s1 .6 1.9.8c.9.3 1.6.5 2.1.8.5.3.9.7 1.1 1.1.2.4.4.9.4 1.4 0 .9-.3 1.6-1 2.1s-1.6.8-2.7.8c-.7 0-1.4-.1-2.1-.4s-1.1-.7-1.5-1.2c-.3-.5-.5-1.1-.5-1.7h1.4c0 .7.2 1.2.7 1.5s1.1.6 1.9.6c.7 0 1.3-.2 1.7-.5.4-.3.6-.7.6-1.2s-.2-.9-.6-1.2c-.3-.2-.9-.5-1.9-.8zM313.3 755.1c-1.1 0-2-.4-2.6-1.1-.7-.7-1-1.7-1-2.9v-.3c0-.8.2-1.5.5-2.1s.7-1.1 1.3-1.5 1.1-.5 1.8-.5c1 0 1.8.3 2.4 1 .6.7.9 1.7.9 2.9v.6H311c0 .8.2 1.4.7 1.9.4.5 1 .7 1.7.7.5 0 .9-.1 1.2-.3.3-.2.6-.5.9-.8l.8.7c-.6 1.2-1.6 1.7-3 1.7zm-.2-7.2c-.6 0-1 .2-1.4.6-.4.4-.6 1-.7 1.7h4v-.1c0-.7-.2-1.2-.6-1.6-.2-.4-.7-.6-1.3-.6zM321.2 754c.5 0 .9-.1 1.3-.4.4-.3.6-.7.6-1.1h1.3c0 .5-.2.9-.5 1.3s-.7.7-1.2 1-1 .4-1.5.4c-1.1 0-2-.4-2.6-1.1-.6-.7-1-1.7-1-3v-.2c0-.8.1-1.5.4-2.1.3-.6.7-1.1 1.2-1.4s1.2-.5 1.9-.5c.9 0 1.6.3 2.2.8s.9 1.2.9 2.1h-1.3c0-.5-.2-.9-.6-1.3-.4-.3-.8-.5-1.3-.5-.7 0-1.2.2-1.6.8s-.6 1.2-.6 2.2v.3c0 .9.2 1.6.6 2.1.6.3 1.1.6 1.8.6zM330.9 754.1c-.5.6-1.3.9-2.3.9-.9 0-1.5-.2-1.9-.7-.4-.5-.7-1.2-.7-2.2v-5.2h1.4v5.2c0 1.2.5 1.8 1.5 1.8s1.7-.4 2.1-1.2v-5.8h1.4v8h-1.3l-.2-.8zM338.2 748.2c-.2 0-.4-.1-.7-.1-.9 0-1.5.4-1.8 1.1v5.7h-1.4v-8h1.3v.9c.4-.7 1.1-1.1 1.9-1.1.3 0 .5 0 .6.1v1.4zM339.4 744.8c0-.2.1-.4.2-.6.1-.2.3-.2.6-.2s.5.1.6.2c.1.2.2.3.2.6s-.1.4-.2.6c-.1.1-.3.2-.6.2s-.5-.1-.6-.2c-.1-.2-.2-.4-.2-.6zm1.5 10.1h-1.4v-8h1.4v8zM344.9 745v1.9h1.5v1.1h-1.5v5c0 .3.1.6.2.7.1.2.4.2.7.2.2 0 .4 0 .7-.1v1.1c-.4.1-.7.1-1 .1-.6 0-1.1-.2-1.4-.6-.3-.4-.5-.9-.5-1.6v-5h-1.5v-1.1h1.5V745h1.3zM350.6 752.9l1.9-6h1.5l-3.2 9.2c-.5 1.3-1.3 2-2.4 2h-.3l-.5-.1v-1.1h.4c.5 0 .8-.1 1.1-.3s.5-.5.6-1l.3-.8-2.9-7.9h1.5l2 6z"></path></g><path class="figure2-st1" d="M549 549.6h-1.4v3.1h-1.8v-8.5h3.2c1 0 1.8.2 2.3.7s.8 1.1.8 1.9c0 .6-.1 1.1-.4 1.5s-.6.7-1.1.9l1.8 3.5v.1h-1.9l-1.5-3.2zm-1.4-1.4h1.4c.4 0 .8-.1 1-.3s.4-.5.4-.9-.1-.7-.3-.9-.6-.3-1.1-.3h-1.4v2.4zM556.3 552.8c-.9 0-1.7-.3-2.3-.9s-.9-1.3-.9-2.3v-.2c0-.6.1-1.2.4-1.7s.6-.9 1-1.2 1-.4 1.5-.4c.9 0 1.5.3 2 .8s.7 1.3.7 2.3v.7h-4c.1.4.2.7.5 1s.6.4 1 .4c.7 0 1.2-.2 1.5-.7l.8.9c-.3.4-.6.6-1 .8s-.7.5-1.2.5zm-.2-5.2c-.3 0-.6.1-.8.3s-.3.6-.4 1h2.4v-.1c0-.4-.1-.7-.3-.9s-.5-.3-.9-.3zM559.6 549.5c0-1 .2-1.8.7-2.3s1.1-.9 1.9-.9c.7 0 1.2.2 1.6.7l.1-.6h1.5v6.1c0 .6-.1 1-.4 1.4s-.6.7-1.1.9-1 .3-1.6.3c-.5 0-.9-.1-1.4-.3s-.8-.4-1-.7l.8-1c.4.5.9.7 1.5.7.4 0 .8-.1 1-.4s.4-.6.4-1v-.3c-.4.4-.9.7-1.5.7-.8 0-1.4-.3-1.8-.9s-.7-1.3-.7-2.4zm1.7.1c0 .6.1 1 .3 1.4.2.3.5.5.9.5.5 0 .9-.2 1.1-.6v-2.7c-.2-.4-.6-.6-1.1-.6-.4 0-.7.2-1 .5-.1.4-.2.9-.2 1.5zM566.7 544.7c0-.3.1-.5.3-.6s.4-.2.7-.2c.3 0 .5.1.7.2s.3.4.3.6c0 .3-.1.5-.3.6s-.4.2-.7.2-.5-.1-.7-.2-.3-.3-.3-.6zm1.8 8h-1.7v-6.3h1.7v6.3zM569.6 549.5c0-.6.1-1.2.4-1.7s.6-.9 1-1.1 1-.4 1.6-.4c.9 0 1.6.3 2.1.8s.8 1.2.9 2.1v.4c0 1-.3 1.8-.8 2.3s-1.3.9-2.2.9-1.6-.3-2.2-.9-.8-1.3-.8-2.4zm1.7.1c0 .6.1 1.1.3 1.4.2.3.6.5 1 .5s.7-.2 1-.5c.2-.3.3-.8.3-1.5 0-.6-.1-1-.3-1.4-.2-.3-.6-.5-1-.5s-.7.2-1 .5c-.2.3-.3.8-.3 1.5zM578.2 546.4l.1.7c.5-.6 1.1-.8 1.8-.8s1.2.2 1.5.6.5 1 .5 1.8v4.1h-1.7v-4.1c0-.4-.1-.6-.2-.8s-.4-.2-.8-.2c-.5 0-.8.2-1.1.6v4.5h-1.7v-6.3h1.6zM590.4 552.7h-1.7v-6.5l-2 .6v-1.4l3.5-1.3h.2v8.6zM548.6 916.3h-1.4v3.1h-1.8v-8.5h3.2c1 0 1.8.2 2.3.7s.8 1.1.8 1.9c0 .6-.1 1.1-.4 1.5s-.6.7-1.1.9l1.8 3.5v.1h-1.9l-1.5-3.2zm-1.4-1.5h1.4c.4 0 .8-.1 1-.3s.4-.5.4-.9-.1-.7-.3-.9-.6-.3-1.1-.3h-1.4v2.4zM555.9 919.5c-.9 0-1.7-.3-2.3-.9s-.9-1.3-.9-2.3v-.2c0-.6.1-1.2.4-1.7s.6-.9 1-1.2 1-.4 1.5-.4c.9 0 1.5.3 2 .8s.7 1.3.7 2.3v.7h-4c.1.4.2.7.5 1s.6.4 1 .4c.7 0 1.2-.2 1.5-.7l.8.9c-.3.4-.6.6-1 .8s-.6.5-1.2.5zm-.2-5.2c-.3 0-.6.1-.8.3s-.3.6-.4 1h2.4v-.1c0-.4-.1-.7-.3-.9s-.5-.3-.9-.3zM559.3 916.2c0-1 .2-1.8.7-2.3s1.1-.9 1.9-.9c.7 0 1.2.2 1.6.7l.1-.6h1.5v6.1c0 .6-.1 1-.4 1.4s-.6.7-1.1.9-1 .3-1.6.3c-.5 0-.9-.1-1.4-.3s-.8-.4-1-.7l.8-1c.4.5.9.7 1.5.7.4 0 .8-.1 1-.4s.4-.6.4-1v-.3c-.4.4-.9.7-1.5.7-.8 0-1.4-.3-1.8-.9s-.7-1.4-.7-2.4zm1.6.1c0 .6.1 1 .3 1.4.2.3.5.5.9.5.5 0 .9-.2 1.1-.6v-2.7c-.2-.4-.6-.6-1.1-.6-.4 0-.7.2-1 .5 0 .3-.2.8-.2 1.5zM566.3 911.4c0-.3.1-.5.3-.6s.4-.2.7-.2c.3 0 .5.1.7.2s.3.4.3.6c0 .3-.1.5-.3.6s-.4.2-.7.2-.5-.1-.7-.2-.3-.3-.3-.6zm1.8 8h-1.7V913h1.7v6.4zM569.3 916.2c0-.6.1-1.2.4-1.7s.6-.9 1-1.1 1-.4 1.6-.4c.9 0 1.6.3 2.1.8s.8 1.2.9 2.1v.4c0 1-.3 1.8-.8 2.3s-1.3.9-2.2.9-1.6-.3-2.2-.9-.8-1.4-.8-2.4zm1.7.1c0 .6.1 1.1.3 1.4.2.3.6.5 1 .5s.7-.2 1-.5c.2-.3.3-.8.3-1.5 0-.6-.1-1-.3-1.4-.2-.3-.6-.5-1-.5s-.7.2-1 .5c-.2.3-.3.8-.3 1.5zM577.9 913l.1.7c.5-.6 1.1-.8 1.8-.8s1.2.2 1.5.6.5 1 .5 1.8v4.1h-1.7v-4.1c0-.4-.1-.6-.2-.8s-.4-.2-.8-.2c-.5 0-.8.2-1.1.6v4.5h-1.7V913h1.6zM589.2 913.8l1.6-2.9h2l-2.5 4.2 2.5 4.3h-2l-1.6-3-1.6 3h-2l2.5-4.3-2.5-4.2h2l1.6 2.9zM549 695.3h-1.4v3.1h-1.8v-8.5h3.2c1 0 1.8.2 2.3.7s.8 1.1.8 1.9c0 .6-.1 1.1-.4 1.5s-.6.7-1.1.9l1.8 3.5v.1h-1.9l-1.5-3.2zm-1.4-1.5h1.4c.4 0 .8-.1 1-.3s.4-.5.4-.9-.1-.7-.3-.9-.6-.3-1.1-.3h-1.4v2.4zM556.3 698.5c-.9 0-1.7-.3-2.3-.9s-.9-1.3-.9-2.3v-.2c0-.6.1-1.2.4-1.7s.6-.9 1-1.2 1-.4 1.5-.4c.9 0 1.5.3 2 .8s.7 1.3.7 2.3v.7h-4c.1.4.2.7.5 1s.6.4 1 .4c.7 0 1.2-.2 1.5-.7l.8.9c-.3.4-.6.6-1 .8s-.7.5-1.2.5zm-.2-5.2c-.3 0-.6.1-.8.3s-.3.6-.4 1h2.4v-.1c0-.4-.1-.7-.3-.9s-.5-.3-.9-.3zM559.6 695.2c0-1 .2-1.8.7-2.3s1.1-.9 1.9-.9c.7 0 1.2.2 1.6.7l.1-.6h1.5v6.1c0 .6-.1 1-.4 1.4s-.6.7-1.1.9-1 .3-1.6.3c-.5 0-.9-.1-1.4-.3s-.8-.4-1-.7l.8-1c.4.5.9.7 1.5.7.4 0 .8-.1 1-.4s.4-.6.4-1v-.3c-.4.4-.9.7-1.5.7-.8 0-1.4-.3-1.8-.9s-.7-1.4-.7-2.4zm1.7.1c0 .6.1 1 .3 1.4.2.3.5.5.9.5.5 0 .9-.2 1.1-.6v-2.7c-.2-.4-.6-.6-1.1-.6-.4 0-.7.2-1 .5-.1.3-.2.8-.2 1.5zM566.7 690.4c0-.3.1-.5.3-.6s.4-.2.7-.2c.3 0 .5.1.7.2s.3.4.3.6c0 .3-.1.5-.3.6s-.4.2-.7.2-.5-.1-.7-.2-.3-.3-.3-.6zm1.8 8h-1.7v-6.3h1.7v6.3zM569.6 695.2c0-.6.1-1.2.4-1.7s.6-.9 1-1.1 1-.4 1.6-.4c.9 0 1.6.3 2.1.8s.8 1.2.9 2.1v.4c0 1-.3 1.8-.8 2.3s-1.3.9-2.2.9-1.6-.3-2.2-.9-.8-1.4-.8-2.4zm1.7.1c0 .6.1 1.1.3 1.4.2.3.6.5 1 .5s.7-.2 1-.5c.2-.3.3-.8.3-1.5 0-.6-.1-1-.3-1.4-.2-.3-.6-.5-1-.5s-.7.2-1 .5c-.2.3-.3.8-.3 1.5zM578.2 692.1l.1.7c.5-.6 1.1-.8 1.8-.8s1.2.2 1.5.6.5 1 .5 1.8v4.1h-1.7v-4.1c0-.4-.1-.6-.2-.8s-.4-.2-.8-.2c-.5 0-.8.2-1.1.6v4.5h-1.7v-6.3h1.6zM592.2 698.4h-5.8v-1.2l2.8-2.9c.4-.4.7-.8.8-1.1s.3-.6.3-.9c0-.4-.1-.7-.3-.9s-.5-.3-.8-.3c-.4 0-.7.1-.9.4s-.3.6-.3 1h-1.7c0-.5.1-1 .4-1.4s.6-.8 1.1-1 1-.4 1.5-.4c.9 0 1.6.2 2 .6s.7 1 .7 1.8c0 .4-.1.9-.3 1.3s-.6.9-1.1 1.5l-1.9 2h3.7v1.5z"></path><g class="figure2-st19"><path class="figure2-st1" d="M869 785.5h-3.1l-.6 1.8h-1.9l3.2-8.5h1.6l3.2 8.5h-1.9l-.5-1.8zm-2.6-1.5h2.1l-1.1-3.2-1 3.2zM874.5 784.7l-.6.6v1.9h-1.7v-9h1.7v5l.3-.4 1.6-1.9h2l-2.3 2.6 2.5 3.7h-1.9l-1.6-2.5zM882.3 787.2c-.1-.2-.1-.3-.2-.6-.4.5-.9.7-1.6.7-.6 0-1.1-.2-1.5-.5s-.6-.8-.6-1.4c0-.7.2-1.2.7-1.5s1.2-.5 2.2-.5h.8v-.4c0-.3-.1-.5-.2-.7s-.4-.3-.7-.3c-.3 0-.5.1-.7.2s-.2.3-.2.6h-1.7c0-.4.1-.7.3-1s.5-.6 1-.7.9-.3 1.4-.3c.8 0 1.4.2 1.9.6s.7.9.7 1.7v2.7c0 .6.1 1.1.3 1.4v.1h-1.9zm-1.4-1.2c.2 0 .5-.1.7-.2s.4-.3.5-.4v-1.1h-.6c-.8 0-1.3.3-1.4.9v.1c0 .2.1.4.2.5s.3.2.6.2zM886.6 780.9l.1.7c.4-.6 1.1-.8 1.8-.8.8 0 1.4.3 1.7 1 .4-.6 1.1-1 1.9-1 .7 0 1.2.2 1.5.6s.5 1 .5 1.8v4h-1.7v-4c0-.4-.1-.6-.2-.8s-.4-.2-.7-.2c-.5 0-.9.2-1.1.7v4.4h-1.7v-4c0-.4-.1-.6-.2-.8s-.4-.2-.7-.2c-.5 0-.8.2-1 .6v4.5H885v-6.3h1.6zM899.1 787.2c-.1-.2-.1-.3-.2-.6-.4.5-.9.7-1.6.7-.6 0-1.1-.2-1.5-.5s-.6-.8-.6-1.4c0-.7.2-1.2.7-1.5s1.2-.5 2.2-.5h.8v-.4c0-.3-.1-.5-.2-.7s-.4-.3-.7-.3c-.3 0-.5.1-.7.2s-.2.3-.2.6h-1.7c0-.4.1-.7.3-1s.5-.6 1-.7.9-.3 1.4-.3c.8 0 1.4.2 1.9.6s.7.9.7 1.7v2.7c0 .6.1 1.1.3 1.4v.1h-1.9zm-1.4-1.2c.2 0 .5-.1.7-.2s.4-.3.5-.4v-1.1h-.6c-.8 0-1.3.3-1.4.9v.1c0 .2.1.4.2.5s.3.2.6.2zM901.8 779.2c0-.3.1-.5.3-.6s.4-.2.7-.2c.3 0 .5.1.7.2s.3.4.3.6c0 .3-.1.5-.3.6s-.4.2-.7.2-.5-.1-.7-.2-.3-.3-.3-.6zm1.8 8h-1.7v-6.3h1.7v6.3zM911.3 784.1h-1.4v3.1h-1.8v-8.5h3.2c1 0 1.8.2 2.3.7s.8 1.1.8 1.9c0 .6-.1 1.1-.4 1.5s-.6.7-1.1.9l1.8 3.5v.1h-1.9l-1.5-3.2zm-1.4-1.4h1.4c.4 0 .8-.1 1-.3s.4-.5.4-.9-.1-.7-.3-.9-.6-.3-1.1-.3h-1.4v2.4zM918.6 787.3c-.9 0-1.7-.3-2.3-.9s-.9-1.3-.9-2.3v-.1c0-.6.1-1.2.4-1.7s.6-.9 1-1.2 1-.4 1.5-.4c.9 0 1.5.3 2 .8s.7 1.3.7 2.3v.7h-4c.1.4.2.7.5 1s.6.4 1 .4c.7 0 1.2-.2 1.5-.7l.8.9c-.3.4-.6.6-1 .8s-.7.4-1.2.4zm-.2-5.2c-.3 0-.6.1-.8.3s-.3.6-.4 1h2.4v-.1c0-.4-.1-.7-.3-.9s-.5-.3-.9-.3zM921.9 784c0-1 .2-1.8.7-2.3s1.1-.9 1.9-.9c.7 0 1.2.2 1.6.7l.1-.6h1.5v6.1c0 .6-.1 1-.4 1.4s-.6.7-1.1.9-1 .3-1.6.3c-.5 0-.9-.1-1.4-.3s-.8-.4-1-.7l.8-1c.4.5.9.7 1.5.7.4 0 .8-.1 1-.4s.4-.6.4-1v-.3c-.4.4-.9.7-1.5.7-.8 0-1.4-.3-1.8-.9s-.7-1.3-.7-2.4zm1.7.1c0 .6.1 1 .3 1.4.2.3.5.5.9.5.5 0 .9-.2 1.1-.6v-2.7c-.2-.4-.6-.6-1.1-.6-.4 0-.7.2-1 .5-.1.4-.2.9-.2 1.5zM929 779.2c0-.3.1-.5.3-.6s.4-.2.7-.2c.3 0 .5.1.7.2s.3.4.3.6c0 .3-.1.5-.3.6s-.4.2-.7.2-.5-.1-.7-.2-.3-.3-.3-.6zm1.8 8h-1.7v-6.3h1.7v6.3zM931.9 784c0-.6.1-1.2.4-1.7s.6-.9 1-1.1 1-.4 1.6-.4c.9 0 1.6.3 2.1.8s.8 1.2.9 2.1v.4c0 1-.3 1.8-.8 2.3s-1.3.9-2.2.9-1.6-.3-2.2-.9-.8-1.3-.8-2.4zm1.7.1c0 .6.1 1.1.3 1.4.2.3.6.5 1 .5s.7-.2 1-.5c.2-.3.3-.8.3-1.5 0-.6-.1-1-.3-1.4-.2-.3-.6-.5-1-.5s-.7.2-1 .5c-.2.3-.3.8-.3 1.5zM940.5 780.9l.1.7c.5-.6 1.1-.8 1.8-.8s1.2.2 1.5.6.5 1 .5 1.8v4.1h-1.7v-4.1c0-.4-.1-.6-.2-.8s-.4-.2-.8-.2c-.5 0-.8.2-1.1.6v4.5h-1.7V781h1.6z"></path></g><g class="figure2-st19"><path class="figure2-st1" d="M867.7 770.4h3v.7h-3.9v-6.4h.8v5.7zM873.3 768.1l-.8.8v2.2h-.8v-6.4h.8v3.2l2.8-3.2h1l-2.5 2.8 2.7 3.6h-1l-2.2-3zM880.9 768.1h-2.8v2.3h3.2v.7h-4.1v-6.4h4v.7H878v2.1h2.8v.6zM886.8 767.7h1.8v.8h-1.8v2h-.8v-2h-1.8v-.8h1.8v-1.9h.8v1.9zM895.6 768.1h-2.8v2.3h3.2v.7h-4v-6.4h4v.7h-3.2v2.1h2.8v.6zM897.9 770.4h3v.7H897v-6.4h.8v5.7zM903.6 768.1l-.8.8v2.2h-.8v-6.4h.8v3.2l2.8-3.2h1l-2.5 2.8 2.7 3.6h-1l-2.2-3zM912 767.7h1.8v.8H912v2h-.8v-2h-1.8v-.8h1.8v-1.9h.8v1.9zM919.2 770l1.8-5.3h.9l-2.4 6.4h-.7l-2.4-6.4h.9l1.9 5.3zM924.5 771.2c-.6 0-1.2-.2-1.6-.6-.4-.4-.6-1-.6-1.7v-.1c0-.5.1-.9.3-1.3.2-.4.4-.7.8-.9.3-.2.7-.3 1.1-.3.6 0 1.1.2 1.4.6.3.4.5 1 .5 1.8v.3h-3.2c0 .5.1.8.4 1.1.3.3.6.4 1 .4.3 0 .5-.1.7-.2.2-.1.4-.3.5-.5l.5.4c-.4.7-1 1-1.8 1zm-.1-4.3c-.3 0-.6.1-.8.4-.2.2-.4.6-.4 1h2.4v-.1c0-.4-.1-.7-.3-1-.3-.2-.6-.3-.9-.3zM929.2 770.5c.3 0 .5-.1.8-.3s.3-.4.4-.7h.8c0 .3-.1.5-.3.8s-.4.4-.7.6c-.3.1-.6.2-.9.2-.6 0-1.2-.2-1.5-.6-.4-.4-.6-1-.6-1.8v-.1c0-.5.1-.9.3-1.2.2-.4.4-.6.7-.8.3-.2.7-.3 1.1-.3.5 0 1 .2 1.3.5.4.3.5.7.6 1.2h-.8c0-.3-.1-.6-.3-.8-.2-.2-.5-.3-.8-.3-.4 0-.7.1-1 .4-.2.3-.3.7-.3 1.3v.2c0 .5.1 1 .3 1.3s.5.4.9.4zM933.1 765.2v1.2h.9v.6h-.9v3c0 .2 0 .3.1.4.1.1.2.1.4.1.1 0 .2 0 .4-.1v.7c-.2.1-.4.1-.6.1-.4 0-.6-.1-.8-.3-.2-.2-.3-.5-.3-.9v-3h-.9v-.6h.9v-1.2h.8zM934.6 768.7c0-.5.1-.9.3-1.3.2-.4.4-.7.8-.9.3-.2.7-.3 1.1-.3.6 0 1.2.2 1.6.7.4.4.6 1 .6 1.8v.1c0 .5-.1.9-.3 1.2-.2.4-.4.7-.8.9-.3.2-.7.3-1.1.3-.6 0-1.2-.2-1.6-.7-.4-.4-.6-1-.6-1.8zm.9.1c0 .5.1 1 .4 1.3.2.3.6.5 1 .5s.7-.2 1-.5c.2-.3.4-.8.4-1.4 0-.5-.1-.9-.4-1.3-.2-.3-.6-.5-1-.5s-.7.2-1 .5-.4.8-.4 1.4zM942.3 767.1h-.4c-.5 0-.9.2-1.1.7v3.4h-.8v-4.8h.8v.5c.3-.4.6-.6 1.1-.6.2 0 .3 0 .4.1v.7z"></path></g><path class="figure2-st20" d="M664.4 460.3c-2.3-.6-5.4-.9-8.7-.9s-6.3.3-8.7.9c-2.9.8-4.4 2-4.4 3.5v18.7c0 1.5 1.5 2.8 4.4 3.5 2.3.6 5.4.9 8.7.9 3.2 0 6.3-.3 8.7-1.1 2.9-.8 4.4-2 4.4-3.5v-18.7c0-1.4-1.5-2.6-4.4-3.3zm3 22.2c0 1.8-5.2 3.2-11.8 3.2-6.6 0-11.8-1.4-11.8-3.2V475c.6.3 1.2.5 2 .8 2.6.8 6.1 1.1 9.8 1.1s7.1-.5 9.7-1.1c.8-.3 1.4-.5 2-.8v7.5h.1zm0-10c-1.2.8-5.1 2.1-11.8 2.1s-10.6-1.2-11.8-2.1v-8.7c0-1.8 5.2-3.2 11.8-3.2 6.6 0 11.8 1.4 11.8 3.2v8.7z"></path><path class="figure2-st20" d="M655.6 461.5c-7.2 0-11 1.7-11 2.5s3.8 2.6 11 2.6c7.1 0 11-1.7 11-2.5.1-.8-3.8-2.6-11-2.6z"></path><circle class="figure2-st20" cx="663.3" cy="480.8" r="1.5"></circle><circle class="figure2-st20" cx="663.3" cy="469.9" r="1.5"></circle><g class="figure2-st19"><path class="figure2-st20" d="M638.6 496.2h3v.7h-3.9v-6.4h.8v5.7zM642.2 494.5c0-.5.1-.9.3-1.3.2-.4.4-.7.8-.9.3-.2.7-.3 1.1-.3.6 0 1.2.2 1.6.7.4.4.6 1 .6 1.8v.1c0 .5-.1.9-.3 1.2-.2.4-.4.7-.8.9-.3.2-.7.3-1.1.3-.6 0-1.2-.2-1.6-.7-.4-.4-.6-1-.6-1.8zm.8.1c0 .5.1 1 .4 1.3s.6.5 1 .5.7-.2 1-.5c.2-.3.4-.8.4-1.4 0-.5-.1-.9-.4-1.3-.2-.3-.6-.5-1-.5s-.7.2-1 .5-.4.8-.4 1.4zM649.5 496.3c.3 0 .5-.1.8-.3s.3-.4.4-.7h.8c0 .3-.1.5-.3.8s-.4.4-.7.6c-.3.1-.6.2-.9.2-.6 0-1.2-.2-1.5-.6-.4-.4-.6-1-.6-1.8v-.1c0-.5.1-.9.3-1.2.2-.4.4-.6.7-.8s.7-.3 1.1-.3c.5 0 1 .2 1.3.5.4.3.5.7.6 1.2h-.8c0-.3-.1-.6-.3-.8-.2-.2-.5-.3-.8-.3-.4 0-.7.1-1 .4-.2.3-.3.7-.3 1.3v.2c0 .5.1 1 .3 1.3s.4.4.9.4zM655.2 496.9c0-.1-.1-.3-.1-.5-.4.4-.8.6-1.4.6-.5 0-.9-.1-1.2-.4-.3-.3-.5-.6-.5-1 0-.5.2-.9.6-1.2.4-.3.9-.4 1.6-.4h.8v-.4c0-.3-.1-.5-.3-.7-.2-.2-.4-.3-.8-.3-.3 0-.5.1-.7.2-.2.1-.3.3-.3.5h-.8c0-.2.1-.5.3-.7.2-.2.4-.4.7-.5.3-.1.6-.2 1-.2.5 0 1 .1 1.3.4.3.3.5.7.5 1.1v2.2c0 .4.1.8.2 1v.1h-.9zm-1.4-.6c.3 0 .5-.1.7-.2s.4-.3.5-.5v-1h-.6c-1 0-1.5.3-1.5.9 0 .3.1.5.3.6s.4.2.6.2zM658 496.9h-.8v-6.8h.8v6.8zM662.5 496.2h3v.7h-3.9v-6.4h.8v5.7zM666.2 494.5c0-.5.1-.9.3-1.3.2-.4.4-.7.8-.9.3-.2.7-.3 1.1-.3.6 0 1.2.2 1.6.7.4.4.6 1 .6 1.8v.1c0 .5-.1.9-.3 1.2-.2.4-.4.7-.8.9-.3.2-.7.3-1.1.3-.6 0-1.2-.2-1.6-.7-.4-.4-.6-1-.6-1.8zm.8.1c0 .5.1 1 .4 1.3.2.3.6.5 1 .5s.7-.2 1-.5c.2-.3.4-.8.4-1.4 0-.5-.1-.9-.4-1.3-.2-.3-.6-.5-1-.5s-.7.2-1 .5-.4.8-.4 1.4zM671.4 494.5c0-.7.2-1.3.5-1.8.3-.4.8-.7 1.4-.7.6 0 1 .2 1.4.6v-.5h.7v4.6c0 .6-.2 1.1-.5 1.5-.4.4-.9.5-1.5.5-.3 0-.7-.1-1-.2s-.6-.3-.8-.6l.4-.5c.3.4.8.6 1.3.6.4 0 .7-.1.9-.3.2-.2.3-.5.3-.9v-.4c-.3.4-.8.6-1.3.6-.6 0-1-.2-1.4-.7-.3-.4-.4-1-.4-1.8zm.8.1c0 .5.1 1 .3 1.3.2.3.5.5.9.5.5 0 .9-.2 1.1-.7v-2.2c-.2-.5-.6-.7-1.1-.7-.4 0-.7.2-.9.5s-.3.7-.3 1.3z"></path></g><g class="figure2-st19"><path class="figure2-st20" d="M634.8 505.4v2.5h-.8v-6.4h2.4c.7 0 1.2.2 1.6.5s.6.8.6 1.4c0 .6-.2 1.1-.6 1.4-.4.3-.9.5-1.7.5h-1.5zm0-.7h1.5c.5 0 .8-.1 1-.3s.4-.5.4-.9-.1-.7-.4-.9c-.2-.2-.6-.3-1-.4h-1.6v2.5zM641.9 503.9h-.4c-.5 0-.9.2-1.1.7v3.4h-.8v-4.8h.8v.5c.3-.4.6-.6 1.1-.6.2 0 .3 0 .4.1v.7zM642.3 505.5c0-.5.1-.9.3-1.3.2-.4.4-.7.8-.9.3-.2.7-.3 1.1-.3.6 0 1.2.2 1.6.7.4.4.6 1 .6 1.8v.1c0 .5-.1.9-.3 1.2-.2.4-.4.7-.8.9-.3.2-.7.3-1.1.3-.6 0-1.2-.2-1.6-.7-.4-.4-.6-1-.6-1.8zm.8.1c0 .5.1 1 .4 1.3s.6.5 1 .5.7-.2 1-.5c.2-.3.4-.8.4-1.4 0-.5-.1-.9-.4-1.3-.2-.3-.6-.5-1-.5s-.7.2-1 .5-.4.8-.4 1.4zM649.6 507.3c.3 0 .5-.1.8-.3s.3-.4.4-.7h.8c0 .3-.1.5-.3.8s-.4.4-.7.6c-.3.1-.6.2-.9.2-.6 0-1.2-.2-1.5-.6-.4-.4-.6-1-.6-1.8v-.1c0-.5.1-.9.3-1.2.2-.4.4-.6.7-.8s.7-.3 1.1-.3c.5 0 1 .2 1.3.5.4.3.5.7.6 1.2h-.8c0-.3-.1-.6-.3-.8-.2-.2-.5-.3-.8-.3-.4 0-.7.1-1 .4-.2.3-.3.7-.3 1.3v.2c0 .5.1 1 .3 1.3s.4.4.9.4zM654.3 508c-.6 0-1.2-.2-1.6-.6-.4-.4-.6-1-.6-1.7v-.1c0-.5.1-.9.3-1.3.2-.4.4-.7.8-.9.3-.2.7-.3 1.1-.3.6 0 1.1.2 1.4.6.3.4.5 1 .5 1.8v.3H653c0 .5.1.8.4 1.1.3.3.6.4 1 .4.3 0 .5-.1.7-.2.2-.1.4-.3.5-.5l.5.4c-.4.7-1 1-1.8 1zm-.1-4.2c-.3 0-.6.1-.8.4-.2.2-.4.6-.4 1h2.4v-.1c0-.4-.1-.7-.3-1-.3-.2-.5-.3-.9-.3zM659.9 506.7c0-.2-.1-.4-.2-.5-.2-.1-.5-.2-.9-.3-.4-.1-.7-.2-1-.3-.2-.1-.4-.3-.5-.4-.1-.2-.2-.4-.2-.6 0-.4.2-.7.5-1 .3-.3.8-.4 1.3-.4s1 .1 1.3.4c.3.3.5.6.5 1.1h-.8c0-.2-.1-.4-.3-.6-.2-.2-.4-.2-.7-.2-.3 0-.5.1-.7.2s-.2.3-.2.5.1.3.2.4.4.2.8.3c.4.1.7.2 1 .3.3.1.4.3.6.5.1.2.2.4.2.6 0 .4-.2.8-.5 1-.3.3-.8.4-1.3.4-.4 0-.7-.1-1-.2s-.5-.3-.7-.6c-.2-.2-.2-.5-.2-.8h.8c0 .3.1.5.3.6.2.2.5.2.8.2.3 0 .6-.1.7-.2.1-.1.2-.2.2-.4zM664.5 506.7c0-.2-.1-.4-.2-.5-.2-.1-.5-.2-.9-.3-.4-.1-.7-.2-1-.3-.2-.1-.4-.3-.5-.4-.1-.2-.2-.4-.2-.6 0-.4.2-.7.5-1 .3-.3.8-.4 1.3-.4s1 .1 1.3.4c.3.3.5.6.5 1.1h-.8c0-.2-.1-.4-.3-.6-.2-.2-.4-.2-.7-.2-.3 0-.5.1-.7.2s-.2.3-.2.5.1.3.2.4.4.2.8.3c.4.1.7.2 1 .3.3.1.4.3.6.5.1.2.2.4.2.6 0 .4-.2.8-.5 1-.3.3-.8.4-1.3.4-.4 0-.7-.1-1-.2s-.5-.3-.7-.6c-.2-.2-.2-.5-.2-.8h.8c0 .3.1.5.3.6.2.2.5.2.8.2.3 0 .6-.1.7-.2.1-.1.2-.2.2-.4zM666.4 501.9c0-.1 0-.2.1-.3.1-.1.2-.1.4-.1s.3 0 .4.1.1.2.1.3c0 .1 0 .2-.1.3s-.2.1-.4.1-.3 0-.4-.1c-.1 0-.1-.2-.1-.3zm.9 6h-.8v-4.8h.8v4.8zM669.4 503.2v.6c.4-.5.8-.7 1.4-.7 1 0 1.5.6 1.5 1.7v3.1h-.8v-3.1c0-.3-.1-.6-.2-.8-.2-.2-.4-.2-.7-.2-.3 0-.5.1-.7.2s-.4.3-.5.6v3.4h-.8v-4.8h.8zM673.4 505.5c0-.7.2-1.3.5-1.8.3-.4.8-.7 1.4-.7.6 0 1 .2 1.4.6v-.5h.7v4.6c0 .6-.2 1.1-.5 1.5-.4.4-.9.5-1.5.5-.3 0-.7-.1-1-.2s-.6-.3-.8-.6l.4-.5c.3.4.8.6 1.3.6.4 0 .7-.1.9-.3.2-.2.3-.5.3-.9v-.4c-.3.4-.8.6-1.3.6-.6 0-1-.2-1.4-.7-.3-.4-.4-1-.4-1.8zm.8.1c0 .5.1 1 .3 1.3.2.3.5.5.9.5.5 0 .9-.2 1.1-.7v-2.2c-.2-.5-.6-.7-1.1-.7-.4 0-.7.2-.9.5s-.3.7-.3 1.3z"></path></g><path class="figure2-st20" d="M664.4 606.4c-2.3-.6-5.4-.9-8.7-.9s-6.3.3-8.7.9c-2.9.8-4.4 2-4.4 3.5v18.7c0 1.5 1.5 2.8 4.4 3.5 2.3.6 5.4.9 8.7.9 3.2 0 6.3-.3 8.7-1.1 2.9-.8 4.4-2 4.4-3.5v-18.7c0-1.4-1.5-2.6-4.4-3.3zm3 22.2c0 1.8-5.2 3.2-11.8 3.2-6.6 0-11.8-1.4-11.8-3.2v-7.5c.6.3 1.2.5 2 .8 2.6.8 6.1 1.1 9.8 1.1s7.1-.5 9.7-1.1c.8-.3 1.4-.5 2-.8v7.5h.1zm0-10c-1.2.8-5.1 2.1-11.8 2.1s-10.6-1.2-11.8-2.1v-8.7c0-1.8 5.2-3.2 11.8-3.2 6.6 0 11.8 1.4 11.8 3.2v8.7z"></path><path class="figure2-st20" d="M655.6 607.6c-7.2 0-11 1.7-11 2.5s3.8 2.6 11 2.6c7.1 0 11-1.7 11-2.5s-3.8-2.6-11-2.6z"></path><circle class="figure2-st20" cx="663.3" cy="626.9" r="1.5"></circle><circle class="figure2-st20" cx="663.3" cy="616" r="1.5"></circle><g class="figure2-st19"><path class="figure2-st20" d="M638.6 642.3h3v.7h-3.9v-6.4h.8v5.7zM642.2 640.6c0-.5.1-.9.3-1.3.2-.4.4-.7.8-.9.3-.2.7-.3 1.1-.3.6 0 1.2.2 1.6.7.4.4.6 1 .6 1.8v.1c0 .5-.1.9-.3 1.2-.2.4-.4.7-.8.9-.3.2-.7.3-1.1.3-.6 0-1.2-.2-1.6-.7-.4-.4-.6-1-.6-1.8zm.8.1c0 .5.1 1 .4 1.3s.6.5 1 .5.7-.2 1-.5c.2-.3.4-.8.4-1.4 0-.5-.1-.9-.4-1.3-.2-.3-.6-.5-1-.5s-.7.2-1 .5-.4.8-.4 1.4zM649.5 642.5c.3 0 .5-.1.8-.3s.3-.4.4-.7h.8c0 .3-.1.5-.3.8s-.4.4-.7.6c-.3.1-.6.2-.9.2-.6 0-1.2-.2-1.5-.6-.4-.4-.6-1-.6-1.8v-.1c0-.5.1-.9.3-1.2.2-.4.4-.6.7-.8s.7-.3 1.1-.3c.5 0 1 .2 1.3.5.4.3.5.7.6 1.2h-.8c0-.3-.1-.6-.3-.8-.2-.2-.5-.3-.8-.3-.4 0-.7.1-1 .4-.2.3-.3.7-.3 1.3v.2c0 .5.1 1 .3 1.3s.4.4.9.4zM655.2 643c0-.1-.1-.3-.1-.5-.4.4-.8.6-1.4.6-.5 0-.9-.1-1.2-.4-.3-.3-.5-.6-.5-1 0-.5.2-.9.6-1.2.4-.3.9-.4 1.6-.4h.8v-.4c0-.3-.1-.5-.3-.7-.2-.2-.4-.3-.8-.3-.3 0-.5.1-.7.2-.2.1-.3.3-.3.5h-.8c0-.2.1-.5.3-.7.2-.2.4-.4.7-.5.3-.1.6-.2 1-.2.5 0 1 .1 1.3.4.3.3.5.7.5 1.1v2.2c0 .4.1.8.2 1v.1h-.9zm-1.4-.6c.3 0 .5-.1.7-.2s.4-.3.5-.5v-1h-.6c-1 0-1.5.3-1.5.9 0 .3.1.5.3.6s.4.2.6.2zM658 643h-.8v-6.8h.8v6.8zM662.5 642.3h3v.7h-3.9v-6.4h.8v5.7zM666.2 640.6c0-.5.1-.9.3-1.3.2-.4.4-.7.8-.9.3-.2.7-.3 1.1-.3.6 0 1.2.2 1.6.7.4.4.6 1 .6 1.8v.1c0 .5-.1.9-.3 1.2-.2.4-.4.7-.8.9-.3.2-.7.3-1.1.3-.6 0-1.2-.2-1.6-.7-.4-.4-.6-1-.6-1.8zm.8.1c0 .5.1 1 .4 1.3.2.3.6.5 1 .5s.7-.2 1-.5c.2-.3.4-.8.4-1.4 0-.5-.1-.9-.4-1.3-.2-.3-.6-.5-1-.5s-.7.2-1 .5-.4.8-.4 1.4zM671.4 640.6c0-.7.2-1.3.5-1.8.3-.4.8-.7 1.4-.7.6 0 1 .2 1.4.6v-.5h.7v4.6c0 .6-.2 1.1-.5 1.5-.4.4-.9.5-1.5.5-.3 0-.7-.1-1-.2s-.6-.3-.8-.6l.4-.5c.3.4.8.6 1.3.6.4 0 .7-.1.9-.3.2-.2.3-.5.3-.9v-.4c-.3.4-.8.6-1.3.6-.6 0-1-.2-1.4-.7-.3-.4-.4-1-.4-1.8zm.8.1c0 .5.1 1 .3 1.3.2.3.5.5.9.5.5 0 .9-.2 1.1-.7v-2.2c-.2-.5-.6-.7-1.1-.7-.4 0-.7.2-.9.5s-.3.7-.3 1.3z"></path></g><g class="figure2-st19"><path class="figure2-st20" d="M634.8 651.5v2.5h-.8v-6.4h2.4c.7 0 1.2.2 1.6.5s.6.8.6 1.4c0 .6-.2 1.1-.6 1.4-.4.3-.9.5-1.7.5h-1.5zm0-.7h1.5c.5 0 .8-.1 1-.3s.4-.5.4-.9-.1-.7-.4-.9c-.2-.2-.6-.3-1-.4h-1.6v2.5zM641.9 650h-.4c-.5 0-.9.2-1.1.7v3.4h-.8v-4.8h.8v.5c.3-.4.6-.6 1.1-.6.2 0 .3 0 .4.1v.7zM642.3 651.6c0-.5.1-.9.3-1.3.2-.4.4-.7.8-.9.3-.2.7-.3 1.1-.3.6 0 1.2.2 1.6.7.4.4.6 1 .6 1.8v.1c0 .5-.1.9-.3 1.2-.2.4-.4.7-.8.9-.3.2-.7.3-1.1.3-.6 0-1.2-.2-1.6-.7-.4-.4-.6-1-.6-1.8zm.8.1c0 .5.1 1 .4 1.3s.6.5 1 .5.7-.2 1-.5c.2-.3.4-.8.4-1.4 0-.5-.1-.9-.4-1.3-.2-.3-.6-.5-1-.5s-.7.2-1 .5-.4.8-.4 1.4zM649.6 653.5c.3 0 .5-.1.8-.3s.3-.4.4-.7h.8c0 .3-.1.5-.3.8s-.4.4-.7.6c-.3.1-.6.2-.9.2-.6 0-1.2-.2-1.5-.6-.4-.4-.6-1-.6-1.8v-.1c0-.5.1-.9.3-1.2.2-.4.4-.6.7-.8s.7-.3 1.1-.3c.5 0 1 .2 1.3.5.4.3.5.7.6 1.2h-.8c0-.3-.1-.6-.3-.8-.2-.2-.5-.3-.8-.3-.4 0-.7.1-1 .4-.2.3-.3.7-.3 1.3v.2c0 .5.1 1 .3 1.3s.4.4.9.4zM654.3 654.1c-.6 0-1.2-.2-1.6-.6-.4-.4-.6-1-.6-1.7v-.1c0-.5.1-.9.3-1.3.2-.4.4-.7.8-.9.3-.2.7-.3 1.1-.3.6 0 1.1.2 1.4.6.3.4.5 1 .5 1.8v.3H653c0 .5.1.8.4 1.1.3.3.6.4 1 .4.3 0 .5-.1.7-.2.2-.1.4-.3.5-.5l.5.4c-.4.7-1 1-1.8 1zm-.1-4.2c-.3 0-.6.1-.8.4-.2.2-.4.6-.4 1h2.4v-.1c0-.4-.1-.7-.3-1-.3-.2-.5-.3-.9-.3zM659.9 652.8c0-.2-.1-.4-.2-.5-.2-.1-.5-.2-.9-.3-.4-.1-.7-.2-1-.3-.2-.1-.4-.3-.5-.4-.1-.2-.2-.4-.2-.6 0-.4.2-.7.5-1 .3-.3.8-.4 1.3-.4s1 .1 1.3.4c.3.3.5.6.5 1.1h-.8c0-.2-.1-.4-.3-.6-.2-.2-.4-.2-.7-.2-.3 0-.5.1-.7.2s-.2.3-.2.5.1.3.2.4.4.2.8.3c.4.1.7.2 1 .3.3.1.4.3.6.5.1.2.2.4.2.6 0 .4-.2.8-.5 1-.3.3-.8.4-1.3.4-.4 0-.7-.1-1-.2s-.5-.3-.7-.6c-.2-.2-.2-.5-.2-.8h.8c0 .3.1.5.3.6.2.2.5.2.8.2.3 0 .6-.1.7-.2.1-.1.2-.2.2-.4zM664.5 652.8c0-.2-.1-.4-.2-.5-.2-.1-.5-.2-.9-.3-.4-.1-.7-.2-1-.3-.2-.1-.4-.3-.5-.4-.1-.2-.2-.4-.2-.6 0-.4.2-.7.5-1 .3-.3.8-.4 1.3-.4s1 .1 1.3.4c.3.3.5.6.5 1.1h-.8c0-.2-.1-.4-.3-.6-.2-.2-.4-.2-.7-.2-.3 0-.5.1-.7.2s-.2.3-.2.5.1.3.2.4.4.2.8.3c.4.1.7.2 1 .3.3.1.4.3.6.5.1.2.2.4.2.6 0 .4-.2.8-.5 1-.3.3-.8.4-1.3.4-.4 0-.7-.1-1-.2s-.5-.3-.7-.6c-.2-.2-.2-.5-.2-.8h.8c0 .3.1.5.3.6.2.2.5.2.8.2.3 0 .6-.1.7-.2.1-.1.2-.2.2-.4zM666.4 648c0-.1 0-.2.1-.3.1-.1.2-.1.4-.1s.3 0 .4.1.1.2.1.3c0 .1 0 .2-.1.3s-.2.1-.4.1-.3 0-.4-.1c-.1 0-.1-.2-.1-.3zm.9 6h-.8v-4.8h.8v4.8zM669.4 649.3v.6c.4-.5.8-.7 1.4-.7 1 0 1.5.6 1.5 1.7v3.1h-.8v-3.1c0-.3-.1-.6-.2-.8-.2-.2-.4-.2-.7-.2-.3 0-.5.1-.7.2s-.4.3-.5.6v3.4h-.8v-4.8h.8zM673.4 651.6c0-.7.2-1.3.5-1.8.3-.4.8-.7 1.4-.7.6 0 1 .2 1.4.6v-.5h.7v4.6c0 .6-.2 1.1-.5 1.5-.4.4-.9.5-1.5.5-.3 0-.7-.1-1-.2s-.6-.3-.8-.6l.4-.5c.3.4.8.6 1.3.6.4 0 .7-.1.9-.3.2-.2.3-.5.3-.9v-.4c-.3.4-.8.6-1.3.6-.6 0-1-.2-1.4-.7-.3-.4-.4-1-.4-1.8zm.8.1c0 .5.1 1 .3 1.3.2.3.5.5.9.5.5 0 .9-.2 1.1-.7v-2.2c-.2-.5-.6-.7-1.1-.7-.4 0-.7.2-.9.5s-.3.7-.3 1.3z"></path></g><path class="figure2-st20" d="M664.4 826.9c-2.3-.6-5.4-.9-8.7-.9s-6.3.3-8.7.9c-2.9.8-4.4 2-4.4 3.5v18.7c0 1.5 1.5 2.8 4.4 3.5 2.3.6 5.4.9 8.7.9 3.2 0 6.3-.3 8.7-1.1 2.9-.8 4.4-2 4.4-3.5v-18.7c0-1.3-1.5-2.5-4.4-3.3zm3 22.2c0 1.8-5.2 3.2-11.8 3.2-6.6 0-11.8-1.4-11.8-3.2v-7.5c.6.3 1.2.5 2 .8 2.6.8 6.1 1.1 9.8 1.1s7.1-.5 9.7-1.1c.8-.3 1.4-.5 2-.8v7.5h.1zm0-9.9c-1.2.8-5.1 2.1-11.8 2.1s-10.6-1.2-11.8-2.1v-8.7c0-1.8 5.2-3.2 11.8-3.2 6.6 0 11.8 1.4 11.8 3.2v8.7z"></path><path class="figure2-st20" d="M655.6 828.1c-7.2 0-11 1.7-11 2.5s3.8 2.6 11 2.6c7.1 0 11-1.7 11-2.5s-3.8-2.6-11-2.6z"></path><circle class="figure2-st20" cx="663.3" cy="847.5" r="1.5"></circle><circle class="figure2-st20" cx="663.3" cy="836.6" r="1.5"></circle><g class="figure2-st19"><path class="figure2-st20" d="M638.6 862.9h3v.7h-3.9v-6.4h.8v5.7zM642.2 861.2c0-.5.1-.9.3-1.3.2-.4.4-.7.8-.9.3-.2.7-.3 1.1-.3.6 0 1.2.2 1.6.7.4.4.6 1 .6 1.8v.1c0 .5-.1.9-.3 1.2-.2.4-.4.7-.8.9-.3.2-.7.3-1.1.3-.6 0-1.2-.2-1.6-.7-.4-.5-.6-1-.6-1.8zm.8.1c0 .5.1 1 .4 1.3s.6.5 1 .5.7-.2 1-.5c.2-.3.4-.8.4-1.4 0-.5-.1-.9-.4-1.3-.2-.3-.6-.5-1-.5s-.7.2-1 .5-.4.8-.4 1.4zM649.5 863c.3 0 .5-.1.8-.3s.3-.4.4-.7h.8c0 .3-.1.5-.3.8s-.4.4-.7.6c-.3.1-.6.2-.9.2-.6 0-1.2-.2-1.5-.6-.4-.4-.6-1-.6-1.8v-.1c0-.5.1-.9.3-1.2.2-.4.4-.6.7-.8s.7-.3 1.1-.3c.5 0 1 .2 1.3.5.4.3.5.7.6 1.2h-.8c0-.3-.1-.6-.3-.8-.2-.2-.5-.3-.8-.3-.4 0-.7.1-1 .4-.2.3-.3.7-.3 1.3v.2c0 .5.1 1 .3 1.3s.4.4.9.4zM655.2 863.6c0-.1-.1-.3-.1-.5-.4.4-.8.6-1.4.6-.5 0-.9-.1-1.2-.4-.3-.3-.5-.6-.5-1 0-.5.2-.9.6-1.2.4-.3.9-.4 1.6-.4h.8v-.4c0-.3-.1-.5-.3-.7-.2-.2-.4-.3-.8-.3-.3 0-.5.1-.7.2-.2.1-.3.3-.3.5h-.8c0-.2.1-.5.3-.7.2-.2.4-.4.7-.5.3-.1.6-.2 1-.2.5 0 1 .1 1.3.4.3.3.5.7.5 1.1v2.2c0 .4.1.8.2 1v.1h-.9zm-1.4-.6c.3 0 .5-.1.7-.2s.4-.3.5-.5v-1h-.6c-1 0-1.5.3-1.5.9 0 .3.1.5.3.6s.4.2.6.2zM658 863.6h-.8v-6.8h.8v6.8zM662.5 862.9h3v.7h-3.9v-6.4h.8v5.7zM666.2 861.2c0-.5.1-.9.3-1.3.2-.4.4-.7.8-.9.3-.2.7-.3 1.1-.3.6 0 1.2.2 1.6.7.4.4.6 1 .6 1.8v.1c0 .5-.1.9-.3 1.2-.2.4-.4.7-.8.9-.3.2-.7.3-1.1.3-.6 0-1.2-.2-1.6-.7-.4-.5-.6-1-.6-1.8zm.8.1c0 .5.1 1 .4 1.3.2.3.6.5 1 .5s.7-.2 1-.5c.2-.3.4-.8.4-1.4 0-.5-.1-.9-.4-1.3-.2-.3-.6-.5-1-.5s-.7.2-1 .5-.4.8-.4 1.4zM671.4 861.2c0-.7.2-1.3.5-1.8.3-.4.8-.7 1.4-.7.6 0 1 .2 1.4.6v-.5h.7v4.6c0 .6-.2 1.1-.5 1.5-.4.4-.9.5-1.5.5-.3 0-.7-.1-1-.2s-.6-.3-.8-.6l.4-.5c.3.4.8.6 1.3.6.4 0 .7-.1.9-.3.2-.2.3-.5.3-.9v-.4c-.3.4-.8.6-1.3.6-.6 0-1-.2-1.4-.7-.3-.5-.4-1.1-.4-1.8zm.8.1c0 .5.1 1 .3 1.3.2.3.5.5.9.5.5 0 .9-.2 1.1-.7v-2.2c-.2-.5-.6-.7-1.1-.7-.4 0-.7.2-.9.5s-.3.7-.3 1.3z"></path></g><g class="figure2-st19"><path class="figure2-st20" d="M634.8 872.1v2.5h-.8v-6.4h2.4c.7 0 1.2.2 1.6.5s.6.8.6 1.4c0 .6-.2 1.1-.6 1.4-.4.3-.9.5-1.7.5h-1.5zm0-.7h1.5c.5 0 .8-.1 1-.3s.4-.5.4-.9-.1-.7-.4-.9c-.2-.2-.6-.3-1-.4h-1.6v2.5zM641.9 870.6h-.4c-.5 0-.9.2-1.1.7v3.4h-.8v-4.8h.8v.5c.3-.4.6-.6 1.1-.6.2 0 .3 0 .4.1v.7zM642.3 872.2c0-.5.1-.9.3-1.3.2-.4.4-.7.8-.9.3-.2.7-.3 1.1-.3.6 0 1.2.2 1.6.7.4.4.6 1 .6 1.8v.1c0 .5-.1.9-.3 1.2-.2.4-.4.7-.8.9-.3.2-.7.3-1.1.3-.6 0-1.2-.2-1.6-.7-.4-.5-.6-1-.6-1.8zm.8.1c0 .5.1 1 .4 1.3s.6.5 1 .5.7-.2 1-.5c.2-.3.4-.8.4-1.4 0-.5-.1-.9-.4-1.3-.2-.3-.6-.5-1-.5s-.7.2-1 .5-.4.8-.4 1.4zM649.6 874c.3 0 .5-.1.8-.3s.3-.4.4-.7h.8c0 .3-.1.5-.3.8s-.4.4-.7.6c-.3.1-.6.2-.9.2-.6 0-1.2-.2-1.5-.6-.4-.4-.6-1-.6-1.8v-.1c0-.5.1-.9.3-1.2.2-.4.4-.6.7-.8s.7-.3 1.1-.3c.5 0 1 .2 1.3.5.4.3.5.7.6 1.2h-.8c0-.3-.1-.6-.3-.8-.2-.2-.5-.3-.8-.3-.4 0-.7.1-1 .4-.2.3-.3.7-.3 1.3v.2c0 .5.1 1 .3 1.3s.4.4.9.4zM654.3 874.7c-.6 0-1.2-.2-1.6-.6-.4-.4-.6-1-.6-1.7v-.1c0-.5.1-.9.3-1.3.2-.4.4-.7.8-.9.3-.2.7-.3 1.1-.3.6 0 1.1.2 1.4.6.3.4.5 1 .5 1.8v.3H653c0 .5.1.8.4 1.1.3.3.6.4 1 .4.3 0 .5-.1.7-.2.2-.1.4-.3.5-.5l.5.4c-.4.7-1 1-1.8 1zm-.1-4.3c-.3 0-.6.1-.8.4-.2.2-.4.6-.4 1h2.4v-.1c0-.4-.1-.7-.3-1-.3-.2-.5-.3-.9-.3zM659.9 873.3c0-.2-.1-.4-.2-.5-.2-.1-.5-.2-.9-.3-.4-.1-.7-.2-1-.3-.2-.1-.4-.3-.5-.4-.1-.2-.2-.4-.2-.6 0-.4.2-.7.5-1 .3-.3.8-.4 1.3-.4s1 .1 1.3.4c.3.3.5.6.5 1.1h-.8c0-.2-.1-.4-.3-.6-.2-.2-.4-.2-.7-.2-.3 0-.5.1-.7.2s-.2.3-.2.5.1.3.2.4.4.2.8.3c.4.1.7.2 1 .3.3.1.4.3.6.5.1.2.2.4.2.6 0 .4-.2.8-.5 1-.3.3-.8.4-1.3.4-.4 0-.7-.1-1-.2s-.5-.3-.7-.6c-.2-.2-.2-.5-.2-.8h.8c0 .3.1.5.3.6.2.2.5.2.8.2.3 0 .6-.1.7-.2.1 0 .2-.2.2-.4zM664.5 873.3c0-.2-.1-.4-.2-.5-.2-.1-.5-.2-.9-.3-.4-.1-.7-.2-1-.3-.2-.1-.4-.3-.5-.4-.1-.2-.2-.4-.2-.6 0-.4.2-.7.5-1 .3-.3.8-.4 1.3-.4s1 .1 1.3.4c.3.3.5.6.5 1.1h-.8c0-.2-.1-.4-.3-.6-.2-.2-.4-.2-.7-.2-.3 0-.5.1-.7.2s-.2.3-.2.5.1.3.2.4.4.2.8.3c.4.1.7.2 1 .3.3.1.4.3.6.5.1.2.2.4.2.6 0 .4-.2.8-.5 1-.3.3-.8.4-1.3.4-.4 0-.7-.1-1-.2s-.5-.3-.7-.6c-.2-.2-.2-.5-.2-.8h.8c0 .3.1.5.3.6.2.2.5.2.8.2.3 0 .6-.1.7-.2.1 0 .2-.2.2-.4zM666.4 868.6c0-.1 0-.2.1-.3.1-.1.2-.1.4-.1s.3 0 .4.1.1.2.1.3c0 .1 0 .2-.1.3s-.2.1-.4.1-.3 0-.4-.1c-.1-.1-.1-.2-.1-.3zm.9 6h-.8v-4.8h.8v4.8zM669.4 869.8v.6c.4-.5.8-.7 1.4-.7 1 0 1.5.6 1.5 1.7v3.1h-.8v-3.1c0-.3-.1-.6-.2-.8-.2-.2-.4-.2-.7-.2-.3 0-.5.1-.7.2s-.4.3-.5.6v3.4h-.8v-4.8h.8zM673.4 872.2c0-.7.2-1.3.5-1.8.3-.4.8-.7 1.4-.7.6 0 1 .2 1.4.6v-.5h.7v4.6c0 .6-.2 1.1-.5 1.5-.4.4-.9.5-1.5.5-.3 0-.7-.1-1-.2s-.6-.3-.8-.6l.4-.5c.3.4.8.6 1.3.6.4 0 .7-.1.9-.3.2-.2.3-.5.3-.9v-.4c-.3.4-.8.6-1.3.6-.6 0-1-.2-1.4-.7-.3-.5-.4-1.1-.4-1.8zm.8.1c0 .5.1 1 .3 1.3.2.3.5.5.9.5.5 0 .9-.2 1.1-.7v-2.2c-.2-.5-.6-.7-1.1-.7-.4 0-.7.2-.9.5s-.3.7-.3 1.3z"></path></g><path class="figure2-st23" d="M897.7 701.2v2.4M900.9 701.2v2.4M904.2 701.2v2.4M907.5 701.2v2.4M910.7 701.2v2.4M897.7 719.4v2.4M900.9 719.4v2.4M904.2 719.4v2.4M907.5 719.4v2.4M910.7 719.4v2.4M897.7 705h13v13h-13zM893.9 718h2.4M893.9 714.7h2.4M893.9 711.5h2.4M893.9 708.2h2.4M893.9 705h2.4M912.1 718h2.4M912.1 714.7h2.4M912.1 711.5h2.4M912.1 708.2h2.4M912.1 705h2.4M934.3 719.9v2.4M937.6 719.9v2.4M940.8 719.9v2.4M944.1 719.9v2.4M947.3 719.9v2.4M934.3 738.1v2.4M937.6 738.1v2.4M940.8 738.1v2.4M944.1 738.1v2.4M947.3 738.1v2.4M934.3 723.7h13v13h-13zM930.5 736.7h2.4M930.5 733.5h2.4M930.5 730.2h2.4M930.5 726.9h2.4M930.5 723.7h2.4M948.7 736.7h2.4M948.7 733.5h2.4M948.7 730.2h2.4M948.7 726.9h2.4M948.7 723.7h2.4M861.1 682.8v2.5M864.3 682.8v2.5M867.6 682.8v2.5M870.9 682.8v2.5M874.1 682.8v2.5M861.1 701v2.4M864.3 701v2.4M867.6 701v2.4M870.9 701v2.4M874.1 701v2.4M861.1 686.6h13v13h-13zM857.3 699.7h2.4M857.3 696.4h2.4M857.3 693.1h2.4M857.3 689.9h2.4M857.3 686.6h2.4M875.5 699.7h2.4M875.5 696.4h2.4M875.5 693.1h2.4M875.5 689.9h2.4M875.5 686.6h2.4M474.9 457.5v2.4M478.1 457.5v2.4M481.4 457.5v2.4M484.6 457.5v2.4M487.9 457.5v2.4M474.9 475.7v2.4M478.1 475.7v2.4M481.4 475.7v2.4M484.6 475.7v2.4M487.9 475.7v2.4M474.9 461.3h13v13h-13zM471.1 474.3h2.4M471.1 471.1h2.4M471.1 467.8h2.4M471.1 464.5h2.4M471.1 461.3h2.4M489.3 474.3h2.4M489.3 471.1h2.4M489.3 467.8h2.4M489.3 464.5h2.4M489.3 461.3h2.4M527.3 457.5v2.4M530.5 457.5v2.4M533.8 457.5v2.4M537.1 457.5v2.4M540.3 457.5v2.4M527.3 475.7v2.4M530.5 475.7v2.4M533.8 475.7v2.4M537.1 475.7v2.4M540.3 475.7v2.4M527.3 461.3h13v13h-13zM523.5 474.3h2.4M523.5 471.1h2.4M523.5 467.8h2.4M523.5 464.5h2.4M523.5 461.3h2.4M541.7 474.3h2.4M541.7 471.1h2.4M541.7 467.8h2.4M541.7 464.5h2.4M541.7 461.3h2.4M568.2 494.8v2.4M571.5 494.8v2.4M574.7 494.8v2.4M578 494.8v2.4M581.3 494.8v2.4M568.2 513v2.4M571.5 513v2.4M574.7 513v2.4M578 513v2.4M581.3 513v2.4M568.2 498.6h13v13h-13zM564.4 511.6h2.5M564.4 508.3h2.5M564.4 505.1h2.5M564.4 501.8h2.5M564.4 498.6h2.5M582.6 511.6h2.4M582.6 508.3h2.4M582.6 505.1h2.4M582.6 501.8h2.4M582.6 498.6h2.4M515.8 494.8v2.4M519 494.8v2.4M522.3 494.8v2.4M525.6 494.8v2.4M528.8 494.8v2.4M515.8 513v2.4M519 513v2.4M522.3 513v2.4M525.6 513v2.4M528.8 513v2.4M515.8 498.6h13v13h-13zM512 511.6h2.4M512 508.3h2.4M512 505.1h2.4M512 501.8h2.4M512 498.6h2.4M530.2 511.6h2.4M530.2 508.3h2.4M530.2 505.1h2.4M530.2 501.8h2.4M530.2 498.6h2.4M546.3 479.1v2.5M549.5 479.1v2.5M552.8 479.1v2.5M556 479.1v2.5M559.3 479.1v2.5M546.3 497.3v2.4M549.5 497.3v2.4M552.8 497.3v2.4M556 497.3v2.4M559.3 497.3v2.4M546.3 482.9h13v13h-13zM542.5 495.9h2.4M542.5 492.7h2.4M542.5 489.4h2.4M542.5 486.2h2.4M542.5 482.9h2.4M560.7 495.9h2.4M560.7 492.7h2.4M560.7 489.4h2.4M560.7 486.2h2.4M560.7 482.9h2.4M493.8 479.1v2.5M497.1 479.1v2.5M500.4 479.1v2.5M503.6 479.1v2.5M506.9 479.1v2.5M493.8 497.3v2.4M497.1 497.3v2.4M500.4 497.3v2.4M503.6 497.3v2.4M506.9 497.3v2.4M493.8 482.9h13v13h-13zM490.1 495.9h2.4M490.1 492.7h2.4M490.1 489.4h2.4M490.1 486.2h2.4M490.1 482.9h2.4M508.2 495.9h2.5M508.2 492.7h2.5M508.2 489.4h2.5M508.2 486.2h2.5M508.2 482.9h2.5M474.9 603.6v2.4M478.1 603.6v2.4M481.4 603.6v2.4M484.6 603.6v2.4M487.9 603.6v2.4M474.9 621.8v2.4M478.1 621.8v2.4M481.4 621.8v2.4M484.6 621.8v2.4M487.9 621.8v2.4M474.9 607.4h13v13h-13zM471.1 620.4h2.4M471.1 617.2h2.4M471.1 613.9h2.4M471.1 610.6h2.4M471.1 607.4h2.4M489.3 620.4h2.4M489.3 617.2h2.4M489.3 613.9h2.4M489.3 610.6h2.4M489.3 607.4h2.4M527.3 603.6v2.4M530.5 603.6v2.4M533.8 603.6v2.4M537.1 603.6v2.4M540.3 603.6v2.4M527.3 621.8v2.4M530.5 621.8v2.4M533.8 621.8v2.4M537.1 621.8v2.4M540.3 621.8v2.4M527.3 607.4h13v13h-13zM523.5 620.4h2.4M523.5 617.2h2.4M523.5 613.9h2.4M523.5 610.6h2.4M523.5 607.4h2.4M541.7 620.4h2.4M541.7 617.2h2.4M541.7 613.9h2.4M541.7 610.6h2.4M541.7 607.4h2.4M568.2 640.9v2.4M571.5 640.9v2.4M574.7 640.9v2.4M578 640.9v2.4M581.2 640.9v2.4M568.2 659.1v2.4M571.5 659.1v2.4M574.7 659.1v2.4M578 659.1v2.4M581.2 659.1v2.4M568.2 644.7h13v13h-13zM564.4 657.7h2.5M564.4 654.4h2.5M564.4 651.2h2.5M564.4 647.9h2.5M564.4 644.7h2.5M582.6 657.7h2.4M582.6 654.4h2.4M582.6 651.2h2.4M582.6 647.9h2.4M582.6 644.7h2.4M515.8 640.9v2.4M519 640.9v2.4M522.3 640.9v2.4M525.6 640.9v2.4M528.8 640.9v2.4M515.8 659.1v2.4M519 659.1v2.4M522.3 659.1v2.4M525.6 659.1v2.4M528.8 659.1v2.4M515.8 644.7h13v13h-13zM512 657.7h2.4M512 654.4h2.4M512 651.2h2.4M512 647.9h2.4M512 644.7h2.4M530.2 657.7h2.4M530.2 654.4h2.4M530.2 651.2h2.4M530.2 647.9h2.4M530.2 644.7h2.4M546.3 625.2v2.5M549.5 625.2v2.5M552.8 625.2v2.5M556 625.2v2.5M559.3 625.2v2.5M546.3 643.4v2.4M549.5 643.4v2.4M552.8 643.4v2.4M556 643.4v2.4M559.3 643.4v2.4M546.3 629h13v13h-13zM542.5 642h2.4M542.5 638.8h2.4M542.5 635.5h2.4M542.5 632.3h2.4M542.5 629h2.4M560.7 642h2.4M560.7 638.8h2.4M560.7 635.5h2.4M560.7 632.3h2.4M560.7 629h2.4M493.8 625.2v2.5M497.1 625.2v2.5M500.4 625.2v2.5M503.6 625.2v2.5M506.9 625.2v2.5M493.8 643.4v2.4M497.1 643.4v2.4M500.4 643.4v2.4M503.6 643.4v2.4M506.9 643.4v2.4M493.8 629h13v13h-13zM490.1 642h2.4M490.1 638.8h2.4M490.1 635.5h2.4M490.1 632.3h2.4M490.1 629h2.4M508.2 642h2.5M508.2 638.8h2.5M508.2 635.5h2.5M508.2 632.3h2.5M508.2 629h2.5M474.9 824.1v2.5M478.1 824.1v2.5M481.4 824.1v2.5M484.6 824.1v2.5M487.9 824.1v2.5M474.9 842.3v2.5M478.1 842.3v2.5M481.4 842.3v2.5M484.6 842.3v2.5M487.9 842.3v2.5M474.9 827.9h13v13h-13zM471.1 841h2.4M471.1 837.7h2.4M471.1 834.5h2.4M471.1 831.2h2.4M471.1 827.9h2.4M489.3 841h2.4M489.3 837.7h2.4M489.3 834.5h2.4M489.3 831.2h2.4M489.3 827.9h2.4M527.3 824.1v2.5M530.5 824.1v2.5M533.8 824.1v2.5M537.1 824.1v2.5M540.3 824.1v2.5M527.3 842.3v2.5M530.5 842.3v2.5M533.8 842.3v2.5M537.1 842.3v2.5M540.3 842.3v2.5M527.3 827.9h13v13h-13zM523.5 841h2.4M523.5 837.7h2.4M523.5 834.5h2.4M523.5 831.2h2.4M523.5 827.9h2.4M541.7 841h2.4M541.7 837.7h2.4M541.7 834.5h2.4M541.7 831.2h2.4M541.7 827.9h2.4M568.2 861.4v2.5M571.5 861.4v2.5M574.7 861.4v2.5M578 861.4v2.5M581.2 861.4v2.5M568.2 879.6v2.5M571.5 879.6v2.5M574.7 879.6v2.5M578 879.6v2.5M581.2 879.6v2.5M568.2 865.2h13v13h-13zM564.4 878.3h2.5M564.4 875h2.5M564.4 871.7h2.5M564.4 868.5h2.5M564.4 865.2h2.5M582.6 878.3h2.4M582.6 875h2.4M582.6 871.7h2.4M582.6 868.5h2.4M582.6 865.2h2.4M515.8 861.4v2.5M519 861.4v2.5M522.3 861.4v2.5M525.6 861.4v2.5M528.8 861.4v2.5M515.8 879.6v2.5M519 879.6v2.5M522.3 879.6v2.5M525.6 879.6v2.5M528.8 879.6v2.5M515.8 865.2h13v13h-13zM512 878.3h2.4M512 875h2.4M512 871.7h2.4M512 868.5h2.4M512 865.2h2.4M530.2 878.3h2.4M530.2 875h2.4M530.2 871.7h2.4M530.2 868.5h2.4M530.2 865.2h2.4M546.3 845.8v2.4M549.5 845.8v2.4M552.8 845.8v2.4M556 845.8v2.4M559.3 845.8v2.4M546.3 864v2.4M549.5 864v2.4M552.8 864v2.4M556 864v2.4M559.3 864v2.4M546.3 849.6h13v13h-13zM542.5 862.6h2.4M542.5 859.3h2.4M542.5 856.1h2.4M542.5 852.8h2.4M542.5 849.6h2.4M560.7 862.6h2.4M560.7 859.3h2.4M560.7 856.1h2.4M560.7 852.8h2.4M560.7 849.6h2.4M493.8 845.8v2.4M497.1 845.8v2.4M500.4 845.8v2.4M503.6 845.8v2.4M506.9 845.8v2.4M493.8 864v2.4M497.1 864v2.4M500.4 864v2.4M503.6 864v2.4M506.9 864v2.4M493.8 849.6h13v13h-13zM490.1 862.6h2.4M490.1 859.3h2.4M490.1 856.1h2.4M490.1 852.8h2.4M490.1 849.6h2.4M508.2 862.6h2.5M508.2 859.3h2.5M508.2 856.1h2.5M508.2 852.8h2.5M508.2 849.6h2.5"></path><path class="figure2-st22" d="M234.5 715.7c-7.7 0-13.9-6.3-13.9-13.9s6.3-13.9 13.9-13.9c7.7 0 13.9 6.3 13.9 13.9s-6.3 13.9-13.9 13.9z"></path><path class="figure2-st20" d="M234.5 689.1c7 0 12.7 5.7 12.7 12.7s-5.7 12.7-12.7 12.7-12.7-5.7-12.7-12.7 5.6-12.7 12.7-12.7m0-2.4c-8.3 0-15.1 6.8-15.1 15.1s6.8 15.1 15.1 15.1 15.1-6.8 15.1-15.1-6.8-15.1-15.1-15.1z"></path><path class="figure2-st20" d="M238.6 707.7h-8v-1.6l3.7-4c.5-.5.9-1 1.1-1.4.2-.4.4-.8.4-1.2 0-.5-.1-.9-.4-1.2-.2-.3-.6-.4-1.1-.4s-.9.2-1.2.5-.4.8-.4 1.4h-2.3c0-.7.2-1.3.5-1.9.4-.6.8-1 1.4-1.4.7-.4 1.3-.5 2.1-.5 1.2 0 2.1.3 2.8.8.7.6 1 1.4 1 2.4 0 .6-.1 1.1-.4 1.7-.3.6-.8 1.3-1.5 2l-2.7 2.8h5v2z"></path><path class="figure2-st22" d="M220.9 485.1c-7.7 0-13.9-6.3-13.9-13.9s6.3-13.9 13.9-13.9 13.9 6.3 13.9 13.9-6.1 13.9-13.9 13.9z"></path><path class="figure2-st20" d="M220.9 458.5c7 0 12.7 5.7 12.7 12.7s-5.7 12.7-12.7 12.7-12.7-5.7-12.7-12.7 5.7-12.7 12.7-12.7m0-2.5c-8.3 0-15.1 6.8-15.1 15.1s6.8 15.1 15.1 15.1 15.1-6.8 15.1-15.1-6.7-15.1-15.1-15.1z"></path><path class="figure2-st20" d="M222.9 477h-2.3v-8.9l-2.8.8V467l4.8-1.7h.2V477h.1z"></path><path class="figure2-st24" d="M740.5 498.7c-7.7 0-13.9-6.3-13.9-13.9 0-7.7 6.3-13.9 13.9-13.9 7.7 0 13.9 6.3 13.9 13.9 0 7.6-6.2 13.9-13.9 13.9z"></path><path class="figure2-st20" d="M740.5 472.1c7 0 12.7 5.7 12.7 12.7s-5.7 12.7-12.7 12.7-12.7-5.7-12.7-12.7 5.6-12.7 12.7-12.7m0-2.4c-8.3 0-15.1 6.8-15.1 15.1s6.8 15.1 15.1 15.1 15.1-6.8 15.1-15.1-6.8-15.1-15.1-15.1z"></path><path class="figure2-st20" d="m736.9 484.8.7-5.9h6.5v1.9h-4.6l-.3 2.5c.5-.3 1.1-.4 1.7-.4 1.1 0 2 .4 2.6 1 .6.7 1 1.6 1 2.9 0 .7-.2 1.4-.5 2s-.8 1-1.4 1.4c-.6.3-1.3.5-2.1.5-.7 0-1.3-.1-1.9-.4-.6-.3-1.1-.7-1.4-1.2-.4-.5-.5-1.1-.5-1.7h2.3c.1.5.2.8.5 1.1.3.2.7.4 1.1.4.5 0 .9-.2 1.2-.5s.4-.9.4-1.6-.2-1.1-.5-1.5-.8-.5-1.4-.5c-.5 0-1 .1-1.3.4l-.2.2-1.9-.6z"></path><path class="figure2-st24" d="M905 633.2c-7.7 0-13.9-6.3-13.9-13.9 0-7.6 6.3-13.9 13.9-13.9s13.9 6.3 13.9 13.9c0 7.6-6.2 13.9-13.9 13.9z"></path><path class="figure2-st20" d="M905 606.6c7 0 12.7 5.7 12.7 12.7S912 632 905 632s-12.7-5.7-12.7-12.7 5.7-12.7 12.7-12.7m0-2.4c-8.3 0-15.1 6.8-15.1 15.1s6.8 15.1 15.1 15.1 15.1-6.8 15.1-15.1-6.8-15.1-15.1-15.1z"></path><path class="figure2-st20" d="M907.3 620.7h1.3v1.9h-1.3v2.5H905v-2.5h-4.8l-.1-1.4 4.8-7.7h2.4v7.2zm-4.8 0h2.6v-4.1l-.2.2-2.4 3.9z"></path><path class="figure2-st24" d="M437.3 756.8c-7.7 0-13.9-6.3-13.9-13.9 0-7.7 6.3-13.9 13.9-13.9s13.9 6.3 13.9 13.9c0 7.6-6.2 13.9-13.9 13.9z"></path><path class="figure2-st20" d="M437.3 730.1c7 0 12.7 5.7 12.7 12.7 0 7.1-5.7 12.7-12.7 12.7s-12.7-5.7-12.7-12.7c0-7 5.7-12.7 12.7-12.7m0-2.4c-8.3 0-15.1 6.8-15.1 15.1s6.8 15.1 15.1 15.1 15.1-6.8 15.1-15.1-6.8-15.1-15.1-15.1z"></path><path class="figure2-st20" d="M435.9 741.8h1.2c.6 0 1-.1 1.3-.4.3-.3.4-.7.4-1.1s-.1-.8-.4-1.1c-.3-.2-.7-.4-1.1-.4s-.8.1-1.1.4c-.3.2-.4.5-.4 1h-2.3c0-.6.2-1.1.5-1.6s.8-.8 1.4-1.1c.6-.2 1.2-.4 1.9-.4 1.2 0 2.2.3 2.9.9.7.6 1 1.4 1 2.4 0 .5-.2 1-.5 1.4s-.7.8-1.3 1c.7.2 1.1.6 1.4 1 .3.5.5 1 .5 1.6 0 1-.4 1.9-1.1 2.5s-1.7.9-3 .9c-1.1 0-2.1-.3-2.8-.9-.7-.6-1.1-1.4-1.1-2.4h2.3c0 .4.2.8.5 1.1s.7.4 1.2.4 1-.1 1.3-.4c.3-.3.5-.7.5-1.1 0-1.1-.7-1.7-1.9-1.7H436l-.1-2z"></path></svg>