<?xml version="1.0" encoding="utf-8"?>
<!-- Generator: Adobe Illustrator 28.3.0, SVG Export Plug-In . SVG Version: 6.00 Build 0)  -->
<svg version="1.1" id="Layer_1" xmlns="http://www.w3.org/2000/svg" xmlns:xlink="http://www.w3.org/1999/xlink" x="0px" y="0px"
	 viewBox="0 0 613.2 382.7" style="enable-background:new 0 0 613.2 382.7;" xml:space="preserve">
<style type="text/css">
	.st0{fill:#DAEAD4;}
	.st1{fill:#CFE3F2;}
	.st2{fill:#FFFFFF;}
	.st3{enable-background:new    ;}
	.st4{fill:#808285;}
	.st5{fill:none;stroke:#6E6F72;stroke-width:3;stroke-miterlimit:10;}
	.st6{fill:#6E6F72;}
</style>
<rect x="223" class="st0" width="390.2" height="382.7"/>
<rect x="42.3" class="st1" width="192.1" height="382.7"/>
<path class="st2" d="M101.1,207.2c0,22.4,18.2,40.5,40.5,40.5s40.5-18.2,40.5-40.5s-18.2-40.5-40.5-40.5S101.1,184.9,101.1,207.2
	L101.1,207.2z M176.6,204.6h-10.3c-0.1-3.8-0.6-7.3-1.3-10.7h9.2C175.6,197.2,176.3,200.8,176.6,204.6L176.6,204.6L176.6,204.6z
	 M106.7,209.9h10.2c0.2,3.9,0.6,7.3,1.4,10.7h-9.2C107.7,217.3,107,213.8,106.7,209.9z M122.1,209.9h16.8v10.7h-15.4
	C122.9,217.3,122.4,213.8,122.1,209.9z M138.9,226v16.1c-5.8-1.5-10.7-7.5-13.9-16.1H138.9z M144.2,241.9v-16.1h13.9
	C155,234.4,150,240.5,144.2,241.9z M144.2,220.6v-10.7H161c-0.2,3.9-0.6,7.4-1.4,10.7H144.2L144.2,220.6z M166.3,209.9h10.2
	c-0.4,3.8-1.1,7.3-2.5,10.7h-9C165.7,217.2,166.2,213.8,166.3,209.9z M161.1,204.6h-16.8v-10.7h15.4
	C160.4,197.2,160.9,200.8,161.1,204.6L161.1,204.6z M144.2,188.6v-16.1c5.8,1.5,10.7,7.4,13.9,16.1H144.2z M138.9,172.5v16.1H125
	C128.3,180.1,133.2,174.1,138.9,172.5z M138.9,193.9v10.7h-16.8c0.2-3.9,0.6-7.4,1.4-10.7H138.9z M117,204.6h-10.3
	c0.4-3.8,1.1-7.3,2.5-10.7h9.2C117.5,197.3,117.1,200.8,117,204.6C117,204.6,117,204.6,117,204.6z M111.8,226h7.7
	c1.6,5,3.9,9.3,6.5,12.8C120.3,235.8,115.3,231.5,111.8,226z M157.1,238.8c2.7-3.5,4.9-7.7,6.5-12.8h7.7
	C167.8,231.5,163,235.8,157.1,238.8L157.1,238.8z M171.3,188.6h-7.9c-1.6-5-3.8-9.4-6.3-12.9C163,178.8,167.8,183.1,171.3,188.6z
	 M126.1,175.7c-2.7,3.5-4.8,7.9-6.3,12.9h-7.9C115.3,183.1,120.3,178.8,126.1,175.7z"/>
<path class="st2" d="M326.9,246.3H297c-0.7,0-1.3-0.1-1.7-0.2c-0.5-0.1-1.2-0.4-1.9-0.8c-0.6-0.3-0.9-0.7-1.3-1
	c-0.1-0.1-0.3-0.3-0.4-0.5L273,220.5c-0.1-0.1-0.2-0.3-0.3-0.5c-0.2-0.3-0.5-0.7-0.6-1.3c-0.1-0.3-0.2-0.6-0.2-0.9
	c-0.2-0.9-0.2-1.9,0-2.8l6.7-28.9c0.5-2,1.8-3.6,3.6-4.5l26.9-12.9c1.8-0.9,3.9-0.9,5.8,0l26.9,12.8c1.9,0.9,3.2,2.6,3.6,4.5
	l6.7,28.9c0.2,0.9,0.2,1.9,0,2.9c0,0.3-0.1,0.5-0.2,0.7v0.1c-0.3,0.7-0.6,1.4-1.1,1.9l-18.6,23.1c-0.4,0.5-0.9,1-1.6,1.4l0,0
	c-0.2,0.1-0.5,0.3-0.8,0.4l0,0c-0.1,0-0.3,0.1-0.5,0.2h-0.1c-0.1,0-0.2,0.1-0.4,0.1c-0.3,0.1-0.6,0.1-0.9,0.2
	C327.4,246.3,327.1,246.3,326.9,246.3L326.9,246.3L326.9,246.3z M275.4,218.7l18.6,23.2c0,0,0,0.1,0.1,0.1l0.1,0.1
	c0.3,0.3,0.5,0.5,0.7,0.6l0,0c0.3,0.2,0.6,0.3,1.1,0.5c0.3,0.1,0.7,0.1,0.9,0.1h30.2c0.2,0,0.4,0,0.6-0.1h0.2c0.1,0,0.2-0.1,0.3-0.1
	l0,0c0.1,0,0.1-0.1,0.2-0.1s0.2-0.1,0.3-0.2c0.4-0.2,0.7-0.5,0.8-0.7l0,0l18.6-23.1c0.2-0.3,0.4-0.6,0.6-1v-0.1
	c0-0.1,0.1-0.2,0.1-0.3c0.1-0.7,0.1-1.2,0-1.8l-6.7-28.8c-0.2-1.1-1-2-2-2.5l-26.9-12.9c-1-0.5-2.2-0.5-3.2,0l-26.9,12.8
	c-1,0.5-1.7,1.3-2,2.5l-6.7,28.9c-0.1,0.5-0.1,1.1,0,1.6l0,0c0,0,0,0.1,0.1,0.3v0.1c0.1,0.2,0.2,0.5,0.3,0.7v0.1l0,0
	C275.4,218.6,275.4,218.7,275.4,218.7L275.4,218.7L275.4,218.7z"/>
<path class="st2" d="M337.4,213l-7.9-1.7c0.1-0.7,0.1-1.4,0.1-2.1c0-3.5-1.1-6.8-2.8-9.6l6.4-5c0.7-0.5,0.8-1.4,0.3-2.1
	s-1.4-0.8-2.1-0.3l-6.4,5c-2.9-3.2-6.9-5.2-11.4-5.6v-8.1c0-0.8-0.7-1.5-1.5-1.5s-1.5,0.7-1.5,1.5v8.2c-4.4,0.4-8.4,2.4-11.3,5.4
	L293,192c-0.7-0.5-1.6-0.4-2.1,0.2c-0.5,0.7-0.4,1.6,0.2,2.1l6.3,5.1c-1.9,2.8-3,6.2-3,9.8c0,0.9,0,1.7,0.2,2.6l-8,1.9
	c-0.8,0.2-1.3,1-1.2,1.8c0.1,0.7,0.8,1.2,1.4,1.2c0.1,0,0.2,0,0.3-0.1l8-1.9c1.3,4,4,7.4,7.5,9.6l-3.5,7.3c-0.4,0.7-0.1,1.7,0.7,2
	c0.2,0.1,0.5,0.1,0.7,0.1c0.5,0,1.1-0.3,1.3-0.8l3.7-7.3c2,0.8,4.3,1.3,6.7,1.3c2.2,0,4.3-0.4,6.3-1.2l3.6,7.4
	c0.3,0.5,0.8,0.9,1.3,0.9c0.2,0,0.5-0.1,0.7-0.1c0.7-0.3,1.1-1.3,0.7-2l-3.5-7.4c3.8-2.2,6.6-5.8,7.9-10l7.9,1.7h0.3
	c0.7,0,1.3-0.5,1.4-1.2C338.7,214,338.1,213.2,337.4,213L337.4,213L337.4,213z M326.5,209.3c0,0.5,0,1-0.1,1.5l-6.5-1.4v-0.1
	c0-1.3-0.3-2.6-0.9-3.7l5.3-4.1C325.7,203.7,326.5,206.4,326.5,209.3z M322.4,199.1l-5.2,4.1c-1.1-0.9-2.3-1.6-3.8-1.9v-6.7
	C316.9,195,320,196.6,322.4,199.1L322.4,199.1z M315.5,206.3l0.9,4l-2.5,3.2h-4.1l-2.6-3.1l1-4l3.7-1.7L315.5,206.3z M310.3,194.6
	v6.7c-1.4,0.3-2.7,0.9-3.7,1.8l-5.2-4.2C303.8,196.6,306.8,195,310.3,194.6L310.3,194.6z M297.2,209.3c0-2.9,0.8-5.6,2.3-7.9
	l5.2,4.1c-0.6,1.2-0.9,2.4-0.9,3.8v0.3l-6.5,1.5C297.3,210.5,297.2,209.9,297.2,209.3L297.2,209.3L297.2,209.3z M298,214l6.4-1.5
	c0.5,1.3,1.4,2.3,2.5,3.1l-3,6C301.2,219.8,299.1,217.1,298,214L298,214z M311.9,223.9c-1.9,0-3.7-0.4-5.3-1l3-6
	c0.7,0.2,1.4,0.3,2.2,0.3s1.4-0.1,2.1-0.3l2.9,6C315.3,223.6,313.6,223.9,311.9,223.9L311.9,223.9L311.9,223.9z M319.6,221.7l-2.9-6
	c1.2-0.9,2-2,2.6-3.3l6.6,1.4C324.7,217.1,322.5,219.9,319.6,221.7L319.6,221.7z"/>
<g class="st3">
	<path class="st2" d="M87.5,361.7h-5.7l-1.1,3.2h-3.4l5.8-15.6h3l5.9,15.6h-3.4L87.5,361.7z M82.7,359.1h3.9l-2-5.9L82.7,359.1z"/>
	<path class="st2" d="M97.5,360.2l-1.1,1.1v3.5h-3.1v-16.5h3.1v9.1l0.6-0.8l3-3.5h3.7l-4.2,4.8l4.6,6.8h-3.6L97.5,360.2z"/>
	<path class="st2" d="M111.7,364.9c-0.1-0.3-0.2-0.6-0.3-1c-0.8,0.8-1.7,1.3-2.9,1.3c-1.1,0-2.1-0.3-2.8-1c-0.7-0.7-1.1-1.5-1.1-2.5
		c0-1.2,0.5-2.2,1.4-2.8s2.2-1,4-1h1.4v-0.7c0-0.5-0.1-1-0.4-1.3c-0.3-0.3-0.7-0.5-1.3-0.5c-0.5,0-0.9,0.1-1.2,0.4
		c-0.3,0.3-0.4,0.6-0.4,1h-3.1c0-0.7,0.2-1.3,0.6-1.9c0.4-0.6,1-1,1.8-1.3c0.8-0.3,1.6-0.5,2.6-0.5c1.4,0,2.6,0.4,3.4,1.1
		c0.8,0.7,1.3,1.7,1.3,3v5c0,1.1,0.2,1.9,0.5,2.5v0.2H111.7z M109.2,362.8c0.5,0,0.9-0.1,1.3-0.3c0.4-0.2,0.7-0.5,0.9-0.8v-2h-1.2
		c-1.6,0-2.4,0.5-2.5,1.6l0,0.2c0,0.4,0.1,0.7,0.4,1C108.3,362.6,108.7,362.8,109.2,362.8z"/>
	<path class="st2" d="M119.7,353.3l0.1,1.3c0.8-1,1.9-1.5,3.3-1.5c1.5,0,2.5,0.6,3.1,1.8c0.8-1.2,2-1.8,3.5-1.8
		c1.3,0,2.2,0.4,2.8,1.1c0.6,0.7,0.9,1.8,0.9,3.3v7.4h-3.1v-7.4c0-0.7-0.1-1.1-0.4-1.4c-0.3-0.3-0.7-0.5-1.4-0.5
		c-0.9,0-1.6,0.4-1.9,1.3l0,8h-3.1v-7.4c0-0.7-0.1-1.2-0.4-1.5c-0.3-0.3-0.7-0.5-1.4-0.5c-0.9,0-1.5,0.4-1.9,1.1v8.2h-3.1v-11.6
		H119.7z"/>
	<path class="st2" d="M142.6,364.9c-0.1-0.3-0.2-0.6-0.3-1c-0.8,0.8-1.7,1.3-2.9,1.3c-1.1,0-2.1-0.3-2.8-1c-0.7-0.7-1.1-1.5-1.1-2.5
		c0-1.2,0.5-2.2,1.4-2.8s2.2-1,4-1h1.4v-0.7c0-0.5-0.1-1-0.4-1.3c-0.3-0.3-0.7-0.5-1.3-0.5c-0.5,0-0.9,0.1-1.2,0.4
		c-0.3,0.3-0.4,0.6-0.4,1h-3.1c0-0.7,0.2-1.3,0.6-1.9c0.4-0.6,1-1,1.8-1.3c0.8-0.3,1.6-0.5,2.6-0.5c1.4,0,2.6,0.4,3.4,1.1
		c0.8,0.7,1.3,1.7,1.3,3v5c0,1.1,0.2,1.9,0.5,2.5v0.2H142.6z M140,362.8c0.5,0,0.9-0.1,1.3-0.3c0.4-0.2,0.7-0.5,0.9-0.8v-2H141
		c-1.6,0-2.4,0.5-2.5,1.6l0,0.2c0,0.4,0.1,0.7,0.4,1C139.2,362.6,139.5,362.8,140,362.8z"/>
	<path class="st2" d="M147.6,350.3c0-0.5,0.2-0.8,0.5-1.1s0.7-0.5,1.3-0.5c0.5,0,1,0.2,1.3,0.5c0.3,0.3,0.5,0.7,0.5,1.1
		c0,0.5-0.2,0.9-0.5,1.2c-0.3,0.3-0.7,0.5-1.3,0.5c-0.5,0-0.9-0.2-1.3-0.5C147.8,351.1,147.6,350.8,147.6,350.3z M150.9,364.9h-3.1
		v-11.6h3.1V364.9z"/>
</g>
<g class="st3">
	<path class="st2" d="M168.6,358.1h-6.2v4.2h7.3v2.6h-10.5v-15.6h10.5v2.6h-7.2v3.7h6.2V358.1z"/>
</g>
<g class="st3">
	<path class="st2" d="M170.6,359c0-1.8,0.4-3.3,1.2-4.3c0.8-1.1,1.9-1.6,3.3-1.6c1.1,0,2.1,0.4,2.8,1.3v-5.9h3.1v16.5h-2.8l-0.2-1.2
		c-0.8,1-1.8,1.5-3,1.5c-1.4,0-2.5-0.5-3.3-1.6C171,362.4,170.6,360.9,170.6,359z M173.7,359.2c0,1.1,0.2,1.9,0.6,2.5
		c0.4,0.6,0.9,0.9,1.7,0.9c1,0,1.6-0.4,2-1.2v-4.6c-0.4-0.8-1.1-1.2-2-1.2C174.5,355.6,173.7,356.8,173.7,359.2z"/>
	<path class="st2" d="M183.1,359c0-1.8,0.4-3.2,1.3-4.3s2-1.6,3.4-1.6c1.3,0,2.3,0.4,3,1.3l0.1-1.1h2.8v11.2c0,1-0.2,1.9-0.7,2.7
		s-1.1,1.3-1.9,1.7s-1.8,0.6-2.9,0.6c-0.9,0-1.7-0.2-2.5-0.5c-0.8-0.3-1.4-0.8-1.8-1.3l1.4-1.9c0.8,0.9,1.7,1.3,2.8,1.3
		c0.8,0,1.5-0.2,1.9-0.7c0.5-0.4,0.7-1.1,0.7-1.9v-0.6c-0.7,0.8-1.7,1.2-2.8,1.2c-1.4,0-2.5-0.5-3.4-1.6c-0.9-1.1-1.3-2.5-1.3-4.3
		V359z M186.2,359.2c0,1.1,0.2,1.9,0.6,2.5c0.4,0.6,1,0.9,1.7,0.9c0.9,0,1.6-0.4,2-1.1v-4.9c-0.4-0.7-1.1-1.1-2-1.1
		c-0.7,0-1.3,0.3-1.8,0.9C186.4,357.1,186.2,358,186.2,359.2z"/>
	<path class="st2" d="M201.4,365.1c-1.7,0-3.1-0.5-4.2-1.6c-1.1-1-1.6-2.4-1.6-4.2v-0.3c0-1.2,0.2-2.2,0.7-3.1
		c0.5-0.9,1.1-1.6,1.9-2.1c0.8-0.5,1.8-0.7,2.8-0.7c1.6,0,2.8,0.5,3.8,1.5s1.4,2.4,1.4,4.3v1.3h-7.4c0.1,0.8,0.4,1.4,0.9,1.8
		s1.1,0.7,1.9,0.7c1.2,0,2.1-0.4,2.8-1.3l1.5,1.7c-0.5,0.7-1.1,1.2-1.9,1.5C203.3,364.9,202.4,365.1,201.4,365.1z M201.1,355.6
		c-0.6,0-1.1,0.2-1.5,0.6c-0.4,0.4-0.6,1-0.7,1.8h4.3v-0.2c0-0.7-0.2-1.2-0.6-1.6C202.2,355.8,201.7,355.6,201.1,355.6z"/>
</g>
<g class="st3">
	<path class="st4" d="M89.2,149.6v-12.8h3.9c1.1,0,2.1,0.3,3,0.8c0.9,0.5,1.6,1.2,2.1,2.2c0.5,0.9,0.7,2,0.7,3.2v0.6
		c0,1.2-0.2,2.2-0.7,3.2s-1.2,1.6-2.1,2.2s-1.9,0.8-3,0.8H89.2z M91.9,139v8.5h1.3c1,0,1.8-0.3,2.4-1s0.8-1.6,0.8-2.9v-0.7
		c0-1.3-0.3-2.3-0.8-3s-1.3-1-2.4-1H91.9z"/>
	<path class="st4" d="M106.3,149.6c-0.1-0.2-0.2-0.5-0.3-0.9c-0.6,0.7-1.4,1-2.4,1c-0.9,0-1.7-0.3-2.3-0.8s-0.9-1.2-0.9-2
		c0-1,0.4-1.8,1.1-2.3s1.8-0.8,3.2-0.8h1.2v-0.5c0-0.4-0.1-0.8-0.3-1.1s-0.6-0.4-1.1-0.4c-0.4,0-0.8,0.1-1,0.3s-0.4,0.5-0.4,0.8
		h-2.5c0-0.6,0.2-1.1,0.5-1.5s0.8-0.8,1.4-1.1s1.3-0.4,2.1-0.4c1.2,0,2.1,0.3,2.8,0.9c0.7,0.6,1,1.4,1,2.5v4.1c0,0.9,0.1,1.6,0.4,2
		v0.1H106.3z M104.2,147.9c0.4,0,0.7-0.1,1-0.3c0.3-0.2,0.6-0.4,0.7-0.7v-1.6H105c-1.3,0-1.9,0.4-2,1.3l0,0.1c0,0.3,0.1,0.6,0.3,0.8
		S103.8,147.9,104.2,147.9z"/>
	<path class="st4" d="M113.4,137.8v2.3h1.6v1.9h-1.6v4.7c0,0.4,0.1,0.6,0.2,0.8s0.4,0.2,0.8,0.2c0.3,0,0.5,0,0.7-0.1v1.9
		c-0.5,0.2-1,0.2-1.5,0.2c-1.8,0-2.7-0.9-2.7-2.7V142h-1.4v-1.9h1.4v-2.3H113.4z"/>
	<path class="st4" d="M122,149.6c-0.1-0.2-0.2-0.5-0.3-0.9c-0.6,0.7-1.4,1-2.4,1c-0.9,0-1.7-0.3-2.3-0.8s-0.9-1.2-0.9-2
		c0-1,0.4-1.8,1.1-2.3s1.8-0.8,3.2-0.8h1.2v-0.5c0-0.4-0.1-0.8-0.3-1.1s-0.6-0.4-1.1-0.4c-0.4,0-0.8,0.1-1,0.3s-0.4,0.5-0.4,0.8
		h-2.5c0-0.6,0.2-1.1,0.5-1.5s0.8-0.8,1.4-1.1s1.3-0.4,2.1-0.4c1.2,0,2.1,0.3,2.8,0.9c0.7,0.6,1,1.4,1,2.5v4.1c0,0.9,0.1,1.6,0.4,2
		v0.1H122z M119.9,147.9c0.4,0,0.7-0.1,1-0.3c0.3-0.2,0.6-0.4,0.7-0.7v-1.6h-0.9c-1.3,0-1.9,0.4-2,1.3l0,0.1c0,0.3,0.1,0.6,0.3,0.8
		S119.5,147.9,119.9,147.9z"/>
	<path class="st4" d="M131.3,147c0-0.3-0.2-0.6-0.5-0.7s-0.8-0.3-1.5-0.5c-2.3-0.5-3.4-1.4-3.4-2.9c0-0.8,0.4-1.5,1.1-2.1
		c0.7-0.6,1.6-0.8,2.7-0.8c1.2,0,2.2,0.3,2.9,0.9s1.1,1.3,1.1,2.2h-2.5c0-0.4-0.1-0.7-0.4-0.9c-0.2-0.2-0.6-0.4-1.1-0.4
		c-0.4,0-0.8,0.1-1,0.3s-0.4,0.4-0.4,0.7c0,0.3,0.1,0.5,0.4,0.7c0.3,0.2,0.7,0.3,1.3,0.4s1.2,0.3,1.6,0.4c1.3,0.5,2,1.3,2,2.6
		c0,0.9-0.4,1.6-1.1,2.1c-0.7,0.5-1.7,0.8-2.9,0.8c-0.8,0-1.5-0.1-2.1-0.4c-0.6-0.3-1.1-0.7-1.5-1.2c-0.4-0.5-0.5-1-0.5-1.6h2.4
		c0,0.5,0.2,0.8,0.5,1s0.7,0.4,1.2,0.4c0.5,0,0.9-0.1,1.1-0.3C131.2,147.5,131.3,147.3,131.3,147z"/>
	<path class="st4" d="M138.4,137.8v2.3h1.6v1.9h-1.6v4.7c0,0.4,0.1,0.6,0.2,0.8s0.4,0.2,0.8,0.2c0.3,0,0.5,0,0.7-0.1v1.9
		c-0.5,0.2-1,0.2-1.5,0.2c-1.8,0-2.7-0.9-2.7-2.7V142h-1.4v-1.9h1.4v-2.3H138.4z"/>
</g>
<g class="st3">
	<path class="st4" d="M146.8,142.5c-0.3,0-0.7-0.1-0.9-0.1c-1,0-1.6,0.3-1.9,1v6.2h-2.5v-9.5h2.4l0.1,1.1c0.5-0.9,1.2-1.3,2.1-1.3
		c0.3,0,0.5,0,0.8,0.1L146.8,142.5z"/>
</g>
<g class="st3">
	<path class="st4" d="M152.3,149.8c-1.4,0-2.5-0.4-3.4-1.3s-1.3-2-1.3-3.4v-0.2c0-1,0.2-1.8,0.6-2.6s0.9-1.3,1.6-1.7
		s1.4-0.6,2.3-0.6c1.3,0,2.3,0.4,3.1,1.2s1.1,2,1.1,3.5v1h-6.1c0.1,0.6,0.3,1.1,0.7,1.5s0.9,0.6,1.6,0.6c1,0,1.7-0.4,2.3-1.1
		l1.2,1.4c-0.4,0.5-0.9,1-1.5,1.3C153.8,149.7,153,149.8,152.3,149.8z M152,142c-0.5,0-0.9,0.2-1.2,0.5c-0.3,0.3-0.5,0.8-0.6,1.5
		h3.5v-0.2c0-0.6-0.2-1-0.5-1.3C152.9,142.1,152.5,142,152,142z"/>
	<path class="st4" d="M163.1,149.6c-0.1-0.2-0.2-0.5-0.3-0.9c-0.6,0.7-1.4,1-2.4,1c-0.9,0-1.7-0.3-2.3-0.8s-0.9-1.2-0.9-2
		c0-1,0.4-1.8,1.1-2.3s1.8-0.8,3.2-0.8h1.2v-0.5c0-0.4-0.1-0.8-0.3-1.1s-0.6-0.4-1.1-0.4c-0.4,0-0.8,0.1-1,0.3s-0.4,0.5-0.4,0.8
		h-2.5c0-0.6,0.2-1.1,0.5-1.5s0.8-0.8,1.4-1.1s1.3-0.4,2.1-0.4c1.2,0,2.1,0.3,2.8,0.9c0.7,0.6,1,1.4,1,2.5v4.1c0,0.9,0.1,1.6,0.4,2
		v0.1H163.1z M161,147.9c0.4,0,0.7-0.1,1-0.3c0.3-0.2,0.6-0.4,0.7-0.7v-1.6h-0.9c-1.3,0-1.9,0.4-2,1.3l0,0.1c0,0.3,0.1,0.6,0.3,0.8
		S160.6,147.9,161,147.9z"/>
	<path class="st4" d="M169.6,140.1l0.1,1.1c0.7-0.8,1.6-1.2,2.7-1.2c1.2,0,2.1,0.5,2.5,1.5c0.7-1,1.6-1.5,2.9-1.5
		c1,0,1.8,0.3,2.3,0.9c0.5,0.6,0.8,1.5,0.8,2.7v6.1h-2.5v-6.1c0-0.5-0.1-0.9-0.3-1.2s-0.6-0.4-1.1-0.4c-0.8,0-1.3,0.4-1.6,1.1l0,6.5
		h-2.5v-6.1c0-0.6-0.1-0.9-0.3-1.2s-0.6-0.4-1.1-0.4c-0.7,0-1.2,0.3-1.6,0.9v6.7h-2.5v-9.5H169.6z"/>
	<path class="st4" d="M196,149.6h-8.8v-1.7l4.1-4.4c0.6-0.6,1-1.2,1.3-1.6s0.4-0.9,0.4-1.3c0-0.6-0.1-1-0.4-1.3
		c-0.3-0.3-0.7-0.5-1.2-0.5c-0.6,0-1,0.2-1.4,0.6c-0.3,0.4-0.5,0.9-0.5,1.6H187c0-0.8,0.2-1.5,0.6-2.1s0.9-1.1,1.6-1.5
		c0.7-0.4,1.5-0.5,2.3-0.5c1.3,0,2.3,0.3,3.1,0.9s1.1,1.5,1.1,2.7c0,0.6-0.2,1.3-0.5,1.9s-0.9,1.4-1.7,2.3l-2.9,3.1h5.5V149.6z"/>
</g>
<g class="st3">
	<g class="st3">
		<path class="st4" d="M445.7,47.8c0,1.3-0.2,2.4-0.7,3.3s-1.1,1.7-1.9,2.2s-1.8,0.8-2.9,0.8c-1.1,0-2-0.3-2.8-0.8s-1.5-1.2-1.9-2.2
			c-0.5-0.9-0.7-2-0.7-3.3v-0.6c0-1.3,0.2-2.4,0.7-3.3c0.5-1,1.1-1.7,1.9-2.2s1.8-0.8,2.8-0.8s2,0.3,2.8,0.8s1.5,1.2,1.9,2.2
			c0.5,1,0.7,2.1,0.7,3.3V47.8z M443,47.2c0-1.3-0.2-2.4-0.7-3.1s-1.2-1-2.1-1c-0.9,0-1.6,0.3-2,1s-0.7,1.7-0.7,3v0.6
			c0,1.3,0.2,2.3,0.7,3s1.2,1.1,2.1,1.1c0.9,0,1.6-0.3,2-1c0.5-0.7,0.7-1.7,0.7-3V47.2z"/>
		<path class="st4" d="M456,49.2c0,1.5-0.3,2.7-1,3.6c-0.7,0.9-1.6,1.3-2.7,1.3c-1,0-1.9-0.4-2.5-1.2l-0.1,1h-2.3V40.4h2.5v4.8
			c0.6-0.7,1.4-1,2.3-1c1.2,0,2.1,0.4,2.7,1.3c0.7,0.9,1,2.1,1,3.6V49.2z M453.4,49c0-1-0.2-1.7-0.5-2.1c-0.3-0.4-0.8-0.7-1.4-0.7
			c-0.8,0-1.4,0.3-1.7,1V51c0.3,0.7,0.9,1,1.7,1c0.8,0,1.4-0.4,1.6-1.2C453.4,50.4,453.4,49.8,453.4,49z"/>
		<path class="st4" d="M460.2,44.4v10c0,1-0.3,1.9-0.8,2.4c-0.6,0.6-1.4,0.9-2.4,0.9c-0.4,0-0.9,0-1.3-0.1v-2
			c0.3,0.1,0.6,0.1,0.8,0.1c0.8,0,1.2-0.4,1.2-1.2v-10H460.2z M457.5,41.9c0-0.4,0.1-0.7,0.4-0.9s0.6-0.4,1-0.4s0.8,0.1,1,0.4
			s0.4,0.6,0.4,0.9c0,0.4-0.1,0.7-0.4,0.9s-0.6,0.4-1,0.4s-0.8-0.1-1-0.4S457.5,42.3,457.5,41.9z"/>
		<path class="st4" d="M466.6,54c-1.4,0-2.5-0.4-3.4-1.3s-1.3-2-1.3-3.4v-0.2c0-1,0.2-1.8,0.6-2.6s0.9-1.3,1.6-1.7s1.4-0.6,2.3-0.6
			c1.3,0,2.3,0.4,3.1,1.2s1.1,2,1.1,3.5v1h-6.1c0.1,0.6,0.3,1.1,0.7,1.5s0.9,0.6,1.6,0.6c1,0,1.7-0.4,2.3-1.1l1.2,1.4
			c-0.4,0.5-0.9,1-1.5,1.3C468.1,53.9,467.4,54,466.6,54z M466.3,46.2c-0.5,0-0.9,0.2-1.2,0.5c-0.3,0.3-0.5,0.8-0.6,1.5h3.5V48
			c0-0.6-0.2-1-0.5-1.3C467.3,46.4,466.8,46.2,466.3,46.2z"/>
		<path class="st4" d="M475.9,52c0.5,0,0.8-0.1,1.1-0.4s0.4-0.6,0.5-1h2.4c0,0.6-0.2,1.2-0.5,1.8c-0.3,0.5-0.8,1-1.4,1.2
			c-0.6,0.3-1.3,0.4-2,0.4c-1.4,0-2.4-0.4-3.2-1.3c-0.8-0.9-1.2-2.1-1.2-3.6V49c0-1.5,0.4-2.6,1.2-3.5s1.8-1.3,3.2-1.3
			c1.2,0,2.1,0.3,2.9,1c0.7,0.7,1.1,1.6,1.1,2.7h-2.4c0-0.5-0.2-0.9-0.5-1.2s-0.7-0.5-1.2-0.5c-0.6,0-1,0.2-1.3,0.6
			c-0.3,0.4-0.5,1.1-0.5,2.1v0.3c0,1,0.1,1.7,0.4,2.1S475.3,52,475.9,52z"/>
		<path class="st4" d="M484.4,42v2.3h1.6v1.9h-1.6V51c0,0.4,0.1,0.6,0.2,0.8s0.4,0.2,0.8,0.2c0.3,0,0.5,0,0.7-0.1v1.9
			c-0.5,0.2-1,0.2-1.5,0.2c-1.8,0-2.7-0.9-2.7-2.7v-5.1h-1.4v-1.9h1.4V42H484.4z"/>
		<path class="st4" d="M498.7,50.5c0-0.5-0.2-0.9-0.5-1.1s-1-0.5-1.9-0.8s-1.6-0.6-2.2-0.9c-1.5-0.8-2.2-1.8-2.2-3.2
			c0-0.7,0.2-1.3,0.6-1.9c0.4-0.5,0.9-1,1.7-1.3s1.5-0.5,2.5-0.5c0.9,0,1.7,0.2,2.4,0.5c0.7,0.3,1.3,0.8,1.7,1.4s0.6,1.3,0.6,2.1
			h-2.6c0-0.6-0.2-1-0.6-1.4c-0.4-0.3-0.9-0.5-1.6-0.5c-0.6,0-1.1,0.1-1.5,0.4c-0.4,0.3-0.5,0.6-0.5,1.1c0,0.4,0.2,0.8,0.6,1
			s1,0.5,1.8,0.8c1.5,0.5,2.6,1,3.3,1.7s1,1.5,1,2.5c0,1.1-0.4,2-1.3,2.6c-0.8,0.6-2,0.9-3.4,0.9c-1,0-1.9-0.2-2.7-0.5
			c-0.8-0.4-1.4-0.9-1.8-1.5s-0.6-1.4-0.6-2.2h2.6c0,1.4,0.8,2.1,2.5,2.1c0.6,0,1.1-0.1,1.5-0.4C498.5,51.3,498.7,51,498.7,50.5z"/>
	</g>
	<g class="st3">
		<path class="st4" d="M506,42v2.3h1.6v1.9H506V51c0,0.4,0.1,0.6,0.2,0.8s0.4,0.2,0.8,0.2c0.3,0,0.5,0,0.7-0.1v1.9
			c-0.5,0.2-1,0.2-1.5,0.2c-1.8,0-2.7-0.9-2.7-2.7v-5.1h-1.4v-1.9h1.4V42H506z"/>
	</g>
	<g class="st3">
		<path class="st4" d="M508.4,49c0-0.9,0.2-1.8,0.5-2.5s0.9-1.3,1.6-1.7s1.5-0.6,2.4-0.6c1.3,0,2.3,0.4,3.1,1.2s1.3,1.9,1.4,3.2
			l0,0.7c0,1.5-0.4,2.6-1.2,3.5s-1.9,1.3-3.3,1.3s-2.5-0.4-3.3-1.3s-1.2-2.1-1.2-3.6V49z M510.9,49.2c0,0.9,0.2,1.6,0.5,2.1
			c0.3,0.5,0.8,0.7,1.5,0.7c0.6,0,1.1-0.2,1.4-0.7c0.3-0.5,0.5-1.2,0.5-2.3c0-0.9-0.2-1.6-0.5-2.1s-0.8-0.7-1.5-0.7
			c-0.6,0-1.1,0.2-1.4,0.7C511.1,47.4,510.9,48.2,510.9,49.2z"/>
	</g>
	<g class="st3">
		<path class="st4" d="M524.3,46.7c-0.3,0-0.7-0.1-0.9-0.1c-1,0-1.6,0.3-1.9,1v6.2H519v-9.5h2.4l0.1,1.1c0.5-0.9,1.2-1.3,2.1-1.3
			c0.3,0,0.5,0,0.8,0.1L524.3,46.7z"/>
	</g>
	<g class="st3">
		<path class="st4" d="M530.8,53.9c-0.1-0.2-0.2-0.5-0.3-0.9c-0.6,0.7-1.4,1-2.4,1c-0.9,0-1.7-0.3-2.3-0.8c-0.6-0.5-0.9-1.2-0.9-2
			c0-1,0.4-1.8,1.1-2.3c0.7-0.5,1.8-0.8,3.2-0.8h1.2v-0.5c0-0.4-0.1-0.8-0.3-1.1c-0.2-0.3-0.6-0.4-1.1-0.4c-0.4,0-0.8,0.1-1,0.3
			c-0.2,0.2-0.4,0.5-0.4,0.8h-2.5c0-0.6,0.2-1.1,0.5-1.5s0.8-0.8,1.4-1.1s1.3-0.4,2.1-0.4c1.2,0,2.1,0.3,2.8,0.9
			c0.7,0.6,1,1.4,1,2.5v4.1c0,0.9,0.1,1.6,0.4,2v0.1H530.8z M528.7,52.1c0.4,0,0.7-0.1,1-0.3c0.3-0.2,0.6-0.4,0.7-0.7v-1.6h-0.9
			c-1.3,0-1.9,0.4-2,1.3l0,0.1c0,0.3,0.1,0.6,0.3,0.8S528.3,52.1,528.7,52.1z"/>
		<path class="st4" d="M534.5,49c0-1.5,0.3-2.6,1-3.5c0.7-0.9,1.6-1.3,2.8-1.3c1,0,1.9,0.4,2.4,1.1l0.1-0.9h2.3v9.2
			c0,0.8-0.2,1.6-0.6,2.2c-0.4,0.6-0.9,1.1-1.6,1.4s-1.5,0.5-2.4,0.5c-0.7,0-1.4-0.1-2-0.4s-1.2-0.6-1.5-1.1l1.1-1.5
			c0.6,0.7,1.4,1.1,2.3,1.1c0.7,0,1.2-0.2,1.6-0.5c0.4-0.4,0.6-0.9,0.6-1.5v-0.5c-0.6,0.7-1.4,1-2.3,1c-1.1,0-2.1-0.4-2.8-1.3
			c-0.7-0.9-1.1-2.1-1.1-3.6V49z M537.1,49.2c0,0.9,0.2,1.5,0.5,2c0.3,0.5,0.8,0.7,1.4,0.7c0.8,0,1.3-0.3,1.7-0.9v-4
			c-0.3-0.6-0.9-0.9-1.6-0.9c-0.6,0-1.1,0.2-1.4,0.7C537.3,47.5,537.1,48.2,537.1,49.2z"/>
		<path class="st4" d="M549.6,54c-1.4,0-2.5-0.4-3.4-1.3c-0.9-0.9-1.3-2-1.3-3.4v-0.2c0-1,0.2-1.8,0.6-2.6s0.9-1.3,1.6-1.7
			c0.7-0.4,1.4-0.6,2.3-0.6c1.3,0,2.3,0.4,3.1,1.2c0.7,0.8,1.1,2,1.1,3.5v1h-6.1c0.1,0.6,0.3,1.1,0.7,1.5c0.4,0.4,0.9,0.6,1.6,0.6
			c1,0,1.7-0.4,2.3-1.1l1.2,1.4c-0.4,0.5-0.9,1-1.5,1.3C551.1,53.9,550.4,54,549.6,54z M549.3,46.2c-0.5,0-0.9,0.2-1.2,0.5
			c-0.3,0.3-0.5,0.8-0.6,1.5h3.5V48c0-0.6-0.2-1-0.5-1.3C550.2,46.4,549.8,46.2,549.3,46.2z"/>
	</g>
	<g class="st3">
		<path class="st4" d="M462.7,69.9h-5.1v3.4h5.9v2.1H455V62.7h8.6v2.1h-5.9v3h5.1V69.9z"/>
		<path class="st4" d="M467.2,66l0.1,1.1c0.7-0.8,1.6-1.3,2.7-1.3c1,0,1.8,0.3,2.2,0.9s0.7,1.5,0.8,2.7v6.1h-2.5v-6.1
			c0-0.5-0.1-0.9-0.4-1.2c-0.2-0.2-0.6-0.4-1.2-0.4c-0.7,0-1.3,0.3-1.6,0.9v6.7h-2.5V66H467.2z"/>
		<path class="st4" d="M474.6,70.6c0-1.5,0.3-2.7,1-3.5s1.6-1.3,2.7-1.3c0.9,0,1.7,0.3,2.3,1V62h2.5v13.5h-2.3l-0.1-1
			c-0.6,0.8-1.4,1.2-2.4,1.2c-1.1,0-2-0.4-2.7-1.3S474.6,72.2,474.6,70.6z M477.1,70.8c0,0.9,0.2,1.6,0.5,2.1s0.8,0.7,1.4,0.7
			c0.8,0,1.3-0.3,1.7-1v-3.8c-0.3-0.7-0.9-1-1.6-1C477.7,67.8,477.1,68.8,477.1,70.8z"/>
		<path class="st4" d="M493.7,70.8c0,1.5-0.3,2.6-1,3.5s-1.6,1.3-2.7,1.3c-1,0-1.7-0.3-2.3-1v4.5h-2.5V66h2.4l0.1,0.9
			c0.6-0.7,1.4-1.1,2.4-1.1c1.2,0,2.1,0.4,2.7,1.3s1,2.1,1,3.6V70.8z M491.2,70.6c0-0.9-0.2-1.6-0.5-2s-0.8-0.7-1.4-0.7
			c-0.8,0-1.3,0.3-1.6,0.9v3.9c0.3,0.6,0.9,0.9,1.7,0.9C490.5,73.6,491.2,72.6,491.2,70.6z"/>
		<path class="st4" d="M494.9,70.6c0-0.9,0.2-1.8,0.5-2.5s0.9-1.3,1.6-1.7s1.5-0.6,2.4-0.6c1.3,0,2.3,0.4,3.1,1.2s1.3,1.9,1.4,3.2
			l0,0.7c0,1.5-0.4,2.6-1.2,3.5s-1.9,1.3-3.3,1.3s-2.5-0.4-3.3-1.3s-1.2-2.1-1.2-3.6V70.6z M497.4,70.8c0,0.9,0.2,1.6,0.5,2.1
			c0.3,0.5,0.8,0.7,1.5,0.7c0.6,0,1.1-0.2,1.4-0.7c0.3-0.5,0.5-1.2,0.5-2.3c0-0.9-0.2-1.6-0.5-2.1s-0.8-0.7-1.5-0.7
			c-0.6,0-1.1,0.2-1.4,0.7C497.6,69,497.4,69.8,497.4,70.8z"/>
		<path class="st4" d="M505.4,63.5c0-0.4,0.1-0.7,0.4-0.9s0.6-0.4,1-0.4c0.4,0,0.8,0.1,1,0.4s0.4,0.6,0.4,0.9c0,0.4-0.1,0.7-0.4,0.9
			s-0.6,0.4-1,0.4s-0.8-0.1-1-0.4S505.4,63.9,505.4,63.5z M508.1,75.5h-2.5V66h2.5V75.5z"/>
		<path class="st4" d="M512.6,66l0.1,1.1c0.7-0.8,1.6-1.3,2.7-1.3c1,0,1.8,0.3,2.2,0.9s0.7,1.5,0.8,2.7v6.1h-2.5v-6.1
			c0-0.5-0.1-0.9-0.4-1.2c-0.2-0.2-0.6-0.4-1.2-0.4c-0.7,0-1.3,0.3-1.6,0.9v6.7h-2.5V66H512.6z"/>
		<path class="st4" d="M523.3,63.6V66h1.6v1.9h-1.6v4.7c0,0.4,0.1,0.6,0.2,0.8s0.4,0.2,0.8,0.2c0.3,0,0.5,0,0.7-0.1v1.9
			c-0.5,0.2-1,0.2-1.5,0.2c-1.8,0-2.7-0.9-2.7-2.7v-5.1h-1.4V66h1.4v-2.3H523.3z"/>
		<path class="st4" d="M531.5,72.8c0-0.3-0.2-0.6-0.5-0.7s-0.8-0.3-1.5-0.5c-2.3-0.5-3.4-1.4-3.4-2.9c0-0.8,0.4-1.5,1.1-2.1
			c0.7-0.6,1.6-0.8,2.7-0.8c1.2,0,2.2,0.3,2.9,0.9s1.1,1.3,1.1,2.2h-2.5c0-0.4-0.1-0.7-0.4-0.9c-0.2-0.2-0.6-0.4-1.1-0.4
			c-0.4,0-0.8,0.1-1,0.3s-0.4,0.4-0.4,0.7c0,0.3,0.1,0.5,0.4,0.7c0.3,0.2,0.7,0.3,1.3,0.4s1.2,0.3,1.6,0.4c1.3,0.5,2,1.3,2,2.6
			c0,0.9-0.4,1.6-1.1,2.1c-0.7,0.5-1.7,0.8-2.9,0.8c-0.8,0-1.5-0.1-2.1-0.4c-0.6-0.3-1.1-0.7-1.5-1.2c-0.4-0.5-0.5-1-0.5-1.6h2.4
			c0,0.5,0.2,0.8,0.5,1s0.7,0.4,1.2,0.4c0.5,0,0.9-0.1,1.1-0.3C531.4,73.4,531.5,73.1,531.5,72.8z"/>
	</g>
</g>
<g class="st3">
	<g class="st3">
		<path class="st4" d="M268.5,126.5h5.6v2.1h-8.2v-12.8h2.6V126.5z"/>
		<path class="st4" d="M279.6,123.5l-1.4,1.5v3.7h-2.6v-12.8h2.6v5.8l1.2-1.6l3.3-4.2h3.2l-4.5,5.7l4.7,7.1h-3.1L279.6,123.5z"/>
		<path class="st4" d="M294.7,123.1h-5.1v3.4h5.9v2.1H287v-12.8h8.6v2.1h-5.9v3h5.1V123.1z"/>
		<path class="st4" d="M311.7,124.3c-0.1,1.4-0.6,2.5-1.5,3.3s-2.1,1.2-3.6,1.2c-1.6,0-2.9-0.6-3.9-1.7s-1.4-2.6-1.4-4.5v-0.8
			c0-1.2,0.2-2.3,0.7-3.3s1.1-1.7,1.9-2.2c0.8-0.5,1.7-0.8,2.8-0.8c1.5,0,2.7,0.4,3.6,1.2s1.4,1.9,1.6,3.3H309
			c-0.1-0.8-0.3-1.4-0.7-1.8s-1-0.6-1.8-0.6c-0.9,0-1.5,0.3-2,0.9s-0.7,1.6-0.7,2.9v1c0,1.4,0.2,2.4,0.6,3s1.1,1,2,1
			c0.8,0,1.4-0.2,1.8-0.6s0.6-0.9,0.7-1.7H311.7z"/>
		<path class="st4" d="M315.9,128.6h-2.5v-13.5h2.5V128.6z"/>
		<path class="st4" d="M323.7,127.6c-0.6,0.8-1.5,1.1-2.6,1.1c-1,0-1.8-0.3-2.3-0.9s-0.8-1.4-0.8-2.6v-6.2h2.5v6.2
			c0,1,0.5,1.5,1.4,1.5c0.9,0,1.5-0.3,1.8-0.9v-6.7h2.5v9.5h-2.4L323.7,127.6z"/>
		<path class="st4" d="M333.2,126c0-0.3-0.2-0.6-0.5-0.7s-0.8-0.3-1.5-0.5c-2.3-0.5-3.4-1.4-3.4-2.9c0-0.8,0.3-1.5,1-2.1
			c0.7-0.6,1.6-0.8,2.7-0.8c1.2,0,2.2,0.3,2.9,0.9s1.1,1.3,1.1,2.2h-2.5c0-0.4-0.1-0.7-0.4-0.9c-0.2-0.2-0.6-0.4-1.1-0.4
			c-0.4,0-0.8,0.1-1,0.3s-0.4,0.4-0.4,0.7c0,0.3,0.1,0.5,0.4,0.7c0.3,0.2,0.7,0.3,1.3,0.4s1.2,0.3,1.6,0.4c1.3,0.5,2,1.3,2,2.6
			c0,0.9-0.4,1.6-1.1,2.1c-0.7,0.5-1.7,0.8-2.9,0.8c-0.8,0-1.5-0.1-2.1-0.4c-0.6-0.3-1.1-0.7-1.5-1.2c-0.4-0.5-0.5-1-0.5-1.6h2.4
			c0,0.5,0.2,0.8,0.5,1s0.7,0.4,1.2,0.4c0.5,0,0.9-0.1,1.1-0.3C333.1,126.5,333.2,126.3,333.2,126z"/>
		<path class="st4" d="M340.4,116.8v2.3h1.6v1.9h-1.6v4.7c0,0.4,0.1,0.6,0.2,0.8s0.4,0.2,0.8,0.2c0.3,0,0.5,0,0.7-0.1v1.9
			c-0.5,0.2-1,0.2-1.5,0.2c-1.8,0-2.7-0.9-2.7-2.7V121h-1.4v-1.9h1.4v-2.3H340.4z"/>
		<path class="st4" d="M347.8,128.8c-1.4,0-2.5-0.4-3.4-1.3s-1.3-2-1.3-3.4v-0.2c0-1,0.2-1.8,0.6-2.6s0.9-1.3,1.6-1.7
			s1.4-0.6,2.3-0.6c1.3,0,2.3,0.4,3.1,1.2s1.1,2,1.1,3.5v1h-6.1c0.1,0.6,0.3,1.1,0.7,1.5s0.9,0.6,1.6,0.6c1,0,1.7-0.4,2.3-1.1
			l1.2,1.4c-0.4,0.5-0.9,1-1.5,1.3C349.3,128.6,348.6,128.8,347.8,128.8z M347.5,121c-0.5,0-0.9,0.2-1.2,0.5
			c-0.3,0.3-0.5,0.8-0.6,1.5h3.5v-0.2c0-0.6-0.2-1-0.5-1.3C348.4,121.1,348,121,347.5,121z"/>
		<path class="st4" d="M358.5,121.5c-0.3,0-0.7-0.1-0.9-0.1c-1,0-1.6,0.3-1.9,1v6.2h-2.5v-9.5h2.4l0.1,1.1c0.5-0.9,1.2-1.3,2.1-1.3
			c0.3,0,0.5,0,0.8,0.1L358.5,121.5z"/>
		<path class="st4" d="M264.7,130.4v-0.9h94v0.9H264.7z"/>
	</g>
	<g class="st3">
		<path class="st4" d="M268.6,144.7h-5.1v3.4h5.9v2.1h-8.6v-12.8h8.6v2.1h-5.9v3h5.1V144.7z"/>
		<path class="st4" d="M273.7,148.1h5.6v2.1h-8.2v-12.8h2.6V148.1z"/>
		<path class="st4" d="M284.8,145.1l-1.4,1.5v3.7h-2.6v-12.8h2.6v5.8l1.2-1.6l3.3-4.2h3.2l-4.5,5.7l4.7,7.1h-3.1L284.8,145.1z"/>
		<path class="st4" d="M301.7,143h3.2v2.3h-3.2v3.6h-2.4v-3.6h-3.2V143h3.2v-3.4h2.4V143z"/>
	</g>
	<g class="st3">
		<path class="st4" d="M315.8,147l2.9-9.6h2.9l-4.5,12.8h-2.8l-4.4-12.8h2.9L315.8,147z"/>
	</g>
	<g class="st3">
		<path class="st4" d="M326.6,150.4c-1.4,0-2.5-0.4-3.4-1.3s-1.3-2-1.3-3.4v-0.2c0-1,0.2-1.8,0.6-2.6s0.9-1.3,1.6-1.7
			s1.4-0.6,2.3-0.6c1.3,0,2.3,0.4,3.1,1.2s1.1,2,1.1,3.5v1h-6.1c0.1,0.6,0.3,1.1,0.7,1.5s0.9,0.6,1.6,0.6c1,0,1.7-0.4,2.3-1.1
			l1.2,1.4c-0.4,0.5-0.9,1-1.5,1.3C328.1,150.2,327.4,150.4,326.6,150.4z M326.3,142.6c-0.5,0-0.9,0.2-1.2,0.5
			c-0.3,0.3-0.5,0.8-0.6,1.5h3.5v-0.2c0-0.6-0.2-1-0.5-1.3C327.3,142.7,326.9,142.6,326.3,142.6z"/>
		<path class="st4" d="M335.9,148.3c0.5,0,0.8-0.1,1.1-0.4s0.4-0.6,0.5-1h2.4c0,0.6-0.2,1.2-0.5,1.8c-0.3,0.5-0.8,1-1.4,1.2
			c-0.6,0.3-1.3,0.4-2,0.4c-1.4,0-2.4-0.4-3.2-1.3c-0.8-0.9-1.2-2.1-1.2-3.6v-0.2c0-1.5,0.4-2.6,1.2-3.5s1.8-1.3,3.2-1.3
			c1.2,0,2.1,0.3,2.9,1c0.7,0.7,1.1,1.6,1.1,2.7h-2.4c0-0.5-0.2-0.9-0.5-1.2s-0.7-0.5-1.2-0.5c-0.6,0-1,0.2-1.3,0.6
			c-0.3,0.4-0.5,1.1-0.5,2.1v0.3c0,1,0.1,1.7,0.4,2.1S335.3,148.3,335.9,148.3z"/>
	</g>
	<g class="st3">
		<path class="st4" d="M344.4,138.4v2.3h1.6v1.9h-1.6v4.7c0,0.4,0.1,0.6,0.2,0.8s0.4,0.2,0.8,0.2c0.3,0,0.5,0,0.7-0.1v1.9
			c-0.5,0.2-1,0.2-1.5,0.2c-1.8,0-2.7-0.9-2.7-2.7v-5.1h-1.4v-1.9h1.4v-2.3H344.4z"/>
	</g>
	<g class="st3">
		<path class="st4" d="M346.8,145.4c0-0.9,0.2-1.8,0.5-2.5s0.9-1.3,1.6-1.7s1.5-0.6,2.4-0.6c1.3,0,2.3,0.4,3.1,1.2s1.3,1.9,1.4,3.2
			l0,0.7c0,1.5-0.4,2.6-1.2,3.5s-1.9,1.3-3.3,1.3s-2.5-0.4-3.3-1.3s-1.2-2.1-1.2-3.6V145.4z M349.3,145.5c0,0.9,0.2,1.6,0.5,2.1
			c0.3,0.5,0.8,0.7,1.5,0.7c0.6,0,1.1-0.2,1.4-0.7c0.3-0.5,0.5-1.2,0.5-2.3c0-0.9-0.2-1.6-0.5-2.1s-0.8-0.7-1.5-0.7
			c-0.6,0-1.1,0.2-1.4,0.7C349.5,143.8,349.3,144.5,349.3,145.5z"/>
		<path class="st4" d="M362.7,143.1c-0.3,0-0.7-0.1-0.9-0.1c-1,0-1.6,0.3-1.9,1v6.2h-2.5v-9.5h2.4l0.1,1.1c0.5-0.9,1.2-1.3,2.1-1.3
			c0.3,0,0.5,0,0.8,0.1L362.7,143.1z"/>
	</g>
</g>
<g class="st3">
	<path class="st2" d="M267.2,361.7h-5.7l-1.1,3.2H257l5.8-15.6h3l5.9,15.6h-3.4L267.2,361.7z M262.4,359.1h3.9l-2-5.9L262.4,359.1z"
		/>
	<path class="st2" d="M277.2,360.2l-1.1,1.1v3.5H273v-16.5h3.1v9.1l0.6-0.8l3-3.5h3.7l-4.2,4.8l4.6,6.8h-3.6L277.2,360.2z"/>
	<path class="st2" d="M291.5,364.9c-0.1-0.3-0.2-0.6-0.3-1c-0.8,0.8-1.7,1.3-2.9,1.3c-1.1,0-2.1-0.3-2.8-1c-0.7-0.7-1.1-1.5-1.1-2.5
		c0-1.2,0.5-2.2,1.4-2.8s2.2-1,4-1h1.4v-0.7c0-0.5-0.1-1-0.4-1.3c-0.3-0.3-0.7-0.5-1.3-0.5c-0.5,0-0.9,0.1-1.2,0.4
		c-0.3,0.3-0.4,0.6-0.4,1h-3.1c0-0.7,0.2-1.3,0.6-1.9c0.4-0.6,1-1,1.8-1.3c0.8-0.3,1.6-0.5,2.6-0.5c1.4,0,2.6,0.4,3.4,1.1
		c0.8,0.7,1.3,1.7,1.3,3v5c0,1.1,0.2,1.9,0.5,2.5v0.2H291.5z M288.9,362.8c0.5,0,0.9-0.1,1.3-0.3c0.4-0.2,0.7-0.5,0.9-0.8v-2h-1.2
		c-1.6,0-2.4,0.5-2.5,1.6l0,0.2c0,0.4,0.1,0.7,0.4,1C288,362.6,288.4,362.8,288.9,362.8z"/>
	<path class="st2" d="M299.4,353.3l0.1,1.3c0.8-1,1.9-1.5,3.3-1.5c1.5,0,2.5,0.6,3.1,1.8c0.8-1.2,2-1.8,3.5-1.8
		c1.3,0,2.2,0.4,2.8,1.1c0.6,0.7,0.9,1.8,0.9,3.3v7.4h-3.1v-7.4c0-0.7-0.1-1.1-0.4-1.4c-0.3-0.3-0.7-0.5-1.4-0.5
		c-0.9,0-1.6,0.4-1.9,1.3l0,8h-3.1v-7.4c0-0.7-0.1-1.2-0.4-1.5c-0.3-0.3-0.7-0.5-1.4-0.5c-0.9,0-1.5,0.4-1.9,1.1v8.2h-3.1v-11.6
		H299.4z"/>
	<path class="st2" d="M322.3,364.9c-0.1-0.3-0.2-0.6-0.3-1c-0.8,0.8-1.7,1.3-2.9,1.3c-1.1,0-2.1-0.3-2.8-1c-0.7-0.7-1.1-1.5-1.1-2.5
		c0-1.2,0.5-2.2,1.4-2.8s2.2-1,4-1h1.4v-0.7c0-0.5-0.1-1-0.4-1.3c-0.3-0.3-0.7-0.5-1.3-0.5c-0.5,0-0.9,0.1-1.2,0.4
		c-0.3,0.3-0.4,0.6-0.4,1h-3.1c0-0.7,0.2-1.3,0.6-1.9s1-1,1.8-1.3c0.8-0.3,1.6-0.5,2.6-0.5c1.4,0,2.6,0.4,3.4,1.1
		c0.8,0.7,1.3,1.7,1.3,3v5c0,1.1,0.2,1.9,0.5,2.5v0.2H322.3z M319.7,362.8c0.5,0,0.9-0.1,1.3-0.3c0.4-0.2,0.7-0.5,0.9-0.8v-2h-1.2
		c-1.6,0-2.4,0.5-2.5,1.6l0,0.2c0,0.4,0.1,0.7,0.4,1S319.3,362.8,319.7,362.8z"/>
	<path class="st2" d="M327.3,350.3c0-0.5,0.2-0.8,0.5-1.1s0.7-0.5,1.3-0.5c0.5,0,1,0.2,1.3,0.5s0.5,0.7,0.5,1.1
		c0,0.5-0.2,0.9-0.5,1.2c-0.3,0.3-0.7,0.5-1.3,0.5s-0.9-0.2-1.3-0.5C327.5,351.1,327.3,350.8,327.3,350.3z M330.6,364.9h-3.1v-11.6
		h3.1V364.9z"/>
	<path class="st2" d="M351.1,359.7c-0.1,1.7-0.7,3-1.9,4c-1.1,1-2.6,1.5-4.4,1.5c-2,0-3.6-0.7-4.7-2c-1.1-1.3-1.7-3.2-1.7-5.6v-1
		c0-1.5,0.3-2.8,0.8-4s1.3-2,2.3-2.6c1-0.6,2.1-0.9,3.4-0.9c1.8,0,3.3,0.5,4.4,1.5s1.7,2.3,1.9,4.1h-3.2c-0.1-1-0.4-1.7-0.8-2.2
		c-0.5-0.5-1.2-0.7-2.2-0.7c-1.1,0-1.9,0.4-2.4,1.2c-0.5,0.8-0.8,2-0.8,3.6v1.2c0,1.7,0.3,2.9,0.8,3.7c0.5,0.8,1.3,1.2,2.4,1.2
		c1,0,1.7-0.2,2.2-0.7c0.5-0.5,0.8-1.2,0.8-2.1H351.1z"/>
	<path class="st2" d="M356.3,364.9h-3.1v-16.5h3.1V364.9z"/>
	<path class="st2" d="M358.4,359c0-1.2,0.2-2.2,0.7-3.1s1.1-1.6,1.9-2.1c0.8-0.5,1.8-0.7,2.9-0.7c1.6,0,2.8,0.5,3.8,1.4
		c1,1,1.5,2.3,1.7,3.9l0,0.8c0,1.8-0.5,3.2-1.5,4.3c-1,1.1-2.3,1.6-4,1.6s-3-0.5-4-1.6s-1.5-2.5-1.5-4.4V359z M361.5,359.2
		c0,1.1,0.2,1.9,0.6,2.5c0.4,0.6,1,0.9,1.8,0.9c0.8,0,1.3-0.3,1.8-0.9s0.6-1.5,0.6-2.8c0-1.1-0.2-1.9-0.6-2.5
		c-0.4-0.6-1-0.9-1.8-0.9c-0.8,0-1.3,0.3-1.8,0.9S361.5,358,361.5,359.2z"/>
	<path class="st2" d="M378.3,363.7c-0.8,0.9-1.8,1.4-3.2,1.4c-1.2,0-2.2-0.4-2.9-1.1s-1-1.8-1-3.1v-7.6h3.1v7.5
		c0,1.2,0.6,1.8,1.7,1.8c1.1,0,1.8-0.4,2.2-1.1v-8.2h3.1v11.6h-2.9L378.3,363.7z"/>
	<path class="st2" d="M383.2,359c0-1.8,0.4-3.3,1.2-4.3c0.8-1.1,1.9-1.6,3.3-1.6c1.1,0,2.1,0.4,2.8,1.3v-5.9h3.1v16.5h-2.8l-0.2-1.2
		c-0.8,1-1.8,1.5-3,1.5c-1.4,0-2.5-0.5-3.3-1.6C383.6,362.4,383.2,360.9,383.2,359z M386.3,359.2c0,1.1,0.2,1.9,0.6,2.5
		s0.9,0.9,1.7,0.9c1,0,1.6-0.4,2-1.2v-4.6c-0.4-0.8-1.1-1.2-2-1.2C387,355.6,386.3,356.8,386.3,359.2z"/>
</g>
<line class="st5" x1="2.3" y1="207.1" x2="82.4" y2="207.1"/>
<polygon class="st6" points="80.8,212.5 90.2,207.1 80.8,201.8 "/>
<line class="st5" x1="195.3" y1="207.1" x2="250.8" y2="207.1"/>
<polygon class="st6" points="249.2,212.5 258.6,207.1 249.2,201.8 "/>
<path class="st2" d="M467.2,89.3h54v5.2h-54L467.2,89.3L467.2,89.3z"/>
<path class="st2" d="M507.7,143.7h-27c-2.6,0-4.9-2.1-5.2-4.9l-5-40.8h47.2l-5,40.8C512.6,141.6,510.4,143.7,507.7,143.7
	L507.7,143.7L507.7,143.7z M473.4,100.5l4.6,38c0.2,1.5,1.4,2.7,2.8,2.7h27c1.4,0,2.5-1.2,2.8-2.7l4.6-38H473.4L473.4,100.5z"/>
<path class="st2" d="M502.1,135.9C502,135.9,502,135.9,502.1,135.9c-2.1,0-3.7-1.7-3.7-3.7s1.7-3.6,3.7-3.6s3.6,1.7,3.6,3.7
	C505.8,134.3,504.1,135.9,502.1,135.9z"/>
<path class="st2" d="M467.2,180h54v5.2h-54L467.2,180L467.2,180z"/>
<path class="st2" d="M507.7,234.4h-27c-2.6,0-4.9-2.1-5.2-4.9l-5-40.8h47.2l-5,40.8C512.6,232.3,510.4,234.4,507.7,234.4
	L507.7,234.4L507.7,234.4z M473.4,191.2l4.6,38c0.2,1.5,1.4,2.7,2.8,2.7h27c1.4,0,2.5-1.2,2.8-2.7l4.6-38H473.4L473.4,191.2z"/>
<path class="st2" d="M502.1,226.6C502,226.6,502,226.6,502.1,226.6c-2.1,0-3.7-1.7-3.7-3.7s1.7-3.6,3.7-3.6s3.6,1.7,3.6,3.7
	C505.8,225,504.1,226.6,502.1,226.6z"/>
<path class="st2" d="M467.2,270.7h54v5.2h-54L467.2,270.7L467.2,270.7z"/>
<path class="st2" d="M507.7,325h-27c-2.6,0-4.9-2.1-5.2-4.9l-5-40.8h47.2l-5,40.8C512.6,322.9,510.4,325,507.7,325L507.7,325
	L507.7,325z M473.4,281.8l4.6,38c0.2,1.5,1.4,2.7,2.8,2.7h27c1.4,0,2.5-1.2,2.8-2.7l4.6-38H473.4L473.4,281.8z"/>
<path class="st2" d="M502.1,317.2C502,317.2,502,317.2,502.1,317.2c-2.1,0-3.7-1.7-3.7-3.7s1.7-3.6,3.7-3.6s3.6,1.7,3.6,3.7
	C505.8,315.7,504.1,317.2,502.1,317.2z"/>
<line class="st5" x1="361.4" y1="207.1" x2="450.7" y2="207.1"/>
<polygon class="st6" points="450,212.5 459.4,207.1 450,201.8 "/>
<line class="st5" x1="359.5" y1="207.9" x2="454.4" y2="113"/>
<polygon class="st6" points="457,117.9 459.9,107.5 449.5,110.4 "/>
<line class="st5" x1="454.4" y1="301.4" x2="359.5" y2="206.5"/>
<polygon class="st6" points="449.5,304 459.9,306.9 457,296.4 "/>
<g class="st3">
	<path class="st4" d="M7.9,192.2c-0.1,1-0.5,1.7-1.1,2.3c-0.6,0.5-1.4,0.8-2.4,0.8c-1.1,0-2-0.4-2.6-1.2c-0.7-0.8-1-1.8-1-3.1v-0.9
		c0-0.9,0.2-1.6,0.5-2.3c0.3-0.7,0.7-1.2,1.3-1.5c0.6-0.3,1.2-0.5,2-0.5c1,0,1.8,0.3,2.4,0.8s0.9,1.3,1,2.3H6.6
		c-0.1-0.7-0.3-1.3-0.7-1.6c-0.4-0.3-0.8-0.5-1.5-0.5c-0.8,0-1.4,0.3-1.8,0.9c-0.4,0.6-0.7,1.4-0.7,2.5v0.9c0,1,0.2,1.8,0.6,2.4
		s1,0.9,1.8,0.9c0.7,0,1.2-0.2,1.6-0.5c0.4-0.3,0.6-0.8,0.7-1.6H7.9z"/>
	<path class="st4" d="M10.6,195.2H9.5v-9.8h1.2V195.2z"/>
	<path class="st4" d="M12.5,186.5c0-0.2,0.1-0.4,0.2-0.5c0.1-0.1,0.3-0.2,0.5-0.2s0.4,0.1,0.5,0.2c0.1,0.1,0.2,0.3,0.2,0.5
		c0,0.2-0.1,0.3-0.2,0.5s-0.3,0.2-0.5,0.2s-0.4-0.1-0.5-0.2C12.6,186.8,12.5,186.7,12.5,186.5z M13.8,195.2h-1.2v-6.9h1.2V195.2z"/>
	<path class="st4" d="M18.5,195.3c-0.9,0-1.7-0.3-2.3-0.9s-0.9-1.4-0.9-2.5v-0.2c0-0.7,0.1-1.3,0.4-1.8c0.3-0.5,0.6-1,1.1-1.3
		c0.5-0.3,1-0.5,1.5-0.5c0.9,0,1.6,0.3,2.1,0.9c0.5,0.6,0.7,1.4,0.7,2.5v0.5h-4.7c0,0.7,0.2,1.2,0.6,1.6c0.4,0.4,0.9,0.6,1.4,0.6
		c0.4,0,0.8-0.1,1.1-0.3c0.3-0.2,0.5-0.4,0.8-0.7l0.7,0.6C20.5,194.9,19.7,195.3,18.5,195.3z M18.4,189.1c-0.5,0-0.9,0.2-1.2,0.5
		s-0.5,0.8-0.6,1.5H20V191c0-0.6-0.2-1.1-0.5-1.4S18.9,189.1,18.4,189.1z"/>
	<path class="st4" d="M23.7,188.3l0,0.9c0.5-0.7,1.2-1,2.1-1c1.5,0,2.2,0.8,2.2,2.5v4.5h-1.2v-4.5c0-0.5-0.1-0.9-0.3-1.1
		c-0.2-0.2-0.6-0.4-1-0.4c-0.4,0-0.7,0.1-1,0.3s-0.5,0.5-0.7,0.8v4.9h-1.2v-6.9H23.7z"/>
	<path class="st4" d="M31.3,186.6v1.7h1.3v0.9h-1.3v4.3c0,0.3,0.1,0.5,0.2,0.6s0.3,0.2,0.6,0.2c0.1,0,0.3,0,0.6-0.1v0.9
		c-0.3,0.1-0.6,0.1-0.9,0.1c-0.5,0-0.9-0.2-1.2-0.5c-0.3-0.3-0.4-0.8-0.4-1.4v-4.3h-1.3v-0.9h1.3v-1.7H31.3z"/>
</g>
<g class="st3">
	<path class="st4" d="M40.5,189.4c-0.2,0-0.4,0-0.6,0c-0.8,0-1.3,0.3-1.6,1v4.9h-1.2v-6.9h1.1l0,0.8c0.4-0.6,0.9-0.9,1.6-0.9
		c0.2,0,0.4,0,0.5,0.1V189.4z"/>
</g>
<g class="st3">
	<path class="st4" d="M44.3,195.3c-0.9,0-1.7-0.3-2.3-0.9s-0.9-1.4-0.9-2.5v-0.2c0-0.7,0.1-1.3,0.4-1.8c0.3-0.5,0.6-1,1.1-1.3
		c0.5-0.3,1-0.5,1.5-0.5c0.9,0,1.6,0.3,2.1,0.9c0.5,0.6,0.7,1.4,0.7,2.5v0.5h-4.7c0,0.7,0.2,1.2,0.6,1.6c0.4,0.4,0.9,0.6,1.4,0.6
		c0.4,0,0.8-0.1,1.1-0.3c0.3-0.2,0.5-0.4,0.8-0.7l0.7,0.6C46.3,194.9,45.5,195.3,44.3,195.3z M44.2,189.1c-0.5,0-0.9,0.2-1.2,0.5
		s-0.5,0.8-0.6,1.5h3.4V191c0-0.6-0.2-1.1-0.5-1.4S44.7,189.1,44.2,189.1z"/>
	<path class="st4" d="M48.1,191.7c0-1.1,0.2-1.9,0.7-2.6c0.5-0.6,1.2-0.9,2-0.9c0.8,0,1.5,0.3,1.9,0.8l0.1-0.7h1.1v9.5h-1.2v-3.3
		c-0.5,0.5-1.1,0.8-1.9,0.8c-0.8,0-1.5-0.3-2-1C48.3,193.7,48.1,192.8,48.1,191.7L48.1,191.7z M49.2,191.8c0,0.8,0.2,1.4,0.5,1.9
		c0.3,0.4,0.8,0.7,1.3,0.7c0.7,0,1.2-0.3,1.6-0.9V190c-0.4-0.6-0.9-0.9-1.6-0.9c-0.6,0-1,0.2-1.4,0.7
		C49.4,190.3,49.2,190.9,49.2,191.8z"/>
	<path class="st4" d="M60,194.5c-0.5,0.5-1.1,0.8-2,0.8c-0.7,0-1.3-0.2-1.7-0.6c-0.4-0.4-0.6-1.1-0.6-1.9v-4.5h1.2v4.4
		c0,1,0.4,1.6,1.3,1.6c0.9,0,1.5-0.3,1.8-1v-5h1.2v6.9H60L60,194.5z"/>
	<path class="st4" d="M65.8,195.3c-0.9,0-1.7-0.3-2.3-0.9s-0.9-1.4-0.9-2.5v-0.2c0-0.7,0.1-1.3,0.4-1.8c0.3-0.5,0.6-1,1.1-1.3
		c0.5-0.3,1-0.5,1.5-0.5c0.9,0,1.6,0.3,2.1,0.9c0.5,0.6,0.7,1.4,0.7,2.5v0.5h-4.7c0,0.7,0.2,1.2,0.6,1.6c0.4,0.4,0.9,0.6,1.4,0.6
		c0.4,0,0.8-0.1,1.1-0.3c0.3-0.2,0.5-0.4,0.8-0.7l0.7,0.6C67.8,194.9,66.9,195.3,65.8,195.3z M65.6,189.1c-0.5,0-0.9,0.2-1.2,0.5
		s-0.5,0.8-0.6,1.5h3.4V191c0-0.6-0.2-1.1-0.5-1.4S66.1,189.1,65.6,189.1z"/>
	<path class="st4" d="M73.8,193.3c0-0.3-0.1-0.6-0.4-0.7c-0.2-0.2-0.7-0.3-1.3-0.5c-0.6-0.1-1.1-0.3-1.4-0.5
		c-0.3-0.2-0.6-0.4-0.8-0.6c-0.2-0.2-0.3-0.5-0.3-0.9c0-0.6,0.2-1,0.7-1.4c0.5-0.4,1.1-0.6,1.8-0.6c0.8,0,1.4,0.2,1.9,0.6
		c0.5,0.4,0.7,0.9,0.7,1.5h-1.2c0-0.3-0.1-0.6-0.4-0.8c-0.3-0.2-0.6-0.3-1-0.3c-0.4,0-0.8,0.1-1,0.3s-0.4,0.4-0.4,0.7
		c0,0.3,0.1,0.5,0.3,0.6s0.6,0.3,1.2,0.4c0.6,0.1,1.1,0.3,1.4,0.5c0.4,0.2,0.6,0.4,0.8,0.7c0.2,0.3,0.3,0.6,0.3,0.9
		c0,0.6-0.2,1.1-0.7,1.5s-1.1,0.6-1.9,0.6c-0.6,0-1-0.1-1.5-0.3s-0.8-0.5-1-0.8c-0.2-0.3-0.4-0.7-0.4-1.1h1.2c0,0.4,0.2,0.7,0.5,0.9
		c0.3,0.2,0.7,0.3,1.2,0.3c0.4,0,0.8-0.1,1.1-0.3C73.7,193.9,73.8,193.6,73.8,193.3z"/>
	<path class="st4" d="M78.1,186.6v1.7h1.3v0.9h-1.3v4.3c0,0.3,0.1,0.5,0.2,0.6s0.3,0.2,0.6,0.2c0.1,0,0.3,0,0.6-0.1v0.9
		c-0.3,0.1-0.6,0.1-0.9,0.1c-0.5,0-0.9-0.2-1.2-0.5c-0.3-0.3-0.4-0.8-0.4-1.4v-4.3h-1.3v-0.9h1.3v-1.7H78.1z"/>
	<path class="st4" d="M84.7,193.3c0-0.3-0.1-0.6-0.4-0.7c-0.2-0.2-0.7-0.3-1.3-0.5c-0.6-0.1-1.1-0.3-1.4-0.5
		c-0.3-0.2-0.6-0.4-0.8-0.6c-0.2-0.2-0.3-0.5-0.3-0.9c0-0.6,0.2-1,0.7-1.4c0.5-0.4,1.1-0.6,1.8-0.6c0.8,0,1.4,0.2,1.9,0.6
		c0.5,0.4,0.7,0.9,0.7,1.5h-1.2c0-0.3-0.1-0.6-0.4-0.8c-0.3-0.2-0.6-0.3-1-0.3c-0.4,0-0.8,0.1-1,0.3s-0.4,0.4-0.4,0.7
		c0,0.3,0.1,0.5,0.3,0.6s0.6,0.3,1.2,0.4c0.6,0.1,1.1,0.3,1.4,0.5c0.4,0.2,0.6,0.4,0.8,0.7c0.2,0.3,0.3,0.6,0.3,0.9
		c0,0.6-0.2,1.1-0.7,1.5s-1.1,0.6-1.9,0.6c-0.6,0-1-0.1-1.5-0.3s-0.8-0.5-1-0.8c-0.2-0.3-0.4-0.7-0.4-1.1h1.2c0,0.4,0.2,0.7,0.5,0.9
		c0.3,0.2,0.7,0.3,1.2,0.3c0.4,0,0.8-0.1,1.1-0.3C84.6,193.9,84.7,193.6,84.7,193.3z"/>
</g>
<g class="st3">
	<path class="st4" d="M197.3,194.2h4.4v1h-5.6v-9.2h1.2V194.2z"/>
	<path class="st4" d="M202.6,191.7c0-0.7,0.1-1.3,0.4-1.8c0.3-0.5,0.6-1,1.1-1.2c0.5-0.3,1-0.4,1.6-0.4c0.9,0,1.7,0.3,2.3,1
		c0.6,0.6,0.9,1.5,0.9,2.6v0.1c0,0.7-0.1,1.3-0.4,1.8c-0.3,0.5-0.6,0.9-1.1,1.2c-0.5,0.3-1,0.4-1.6,0.4c-0.9,0-1.7-0.3-2.3-1
		C202.9,193.7,202.6,192.8,202.6,191.7L202.6,191.7z M203.7,191.8c0,0.8,0.2,1.4,0.5,1.8s0.8,0.7,1.4,0.7c0.6,0,1.1-0.2,1.4-0.7
		c0.4-0.5,0.5-1.1,0.5-2c0-0.8-0.2-1.4-0.5-1.8s-0.8-0.7-1.4-0.7c-0.6,0-1,0.2-1.4,0.7C203.9,190.3,203.7,191,203.7,191.8z"/>
	<path class="st4" d="M210,191.7c0-1.1,0.2-1.9,0.7-2.6s1.2-0.9,2-0.9c0.8,0,1.5,0.3,2,0.9l0.1-0.8h1.1v6.7c0,0.9-0.3,1.6-0.8,2.1
		c-0.5,0.5-1.2,0.8-2.1,0.8c-0.5,0-1-0.1-1.5-0.3c-0.5-0.2-0.8-0.5-1.1-0.9l0.6-0.7c0.5,0.6,1.1,0.9,1.8,0.9c0.6,0,1-0.2,1.3-0.5
		c0.3-0.3,0.5-0.8,0.5-1.4v-0.6c-0.5,0.5-1.1,0.8-1.9,0.8c-0.8,0-1.5-0.3-2-1C210.3,193.7,210,192.8,210,191.7z M211.2,191.8
		c0,0.8,0.2,1.4,0.5,1.8s0.8,0.7,1.3,0.7c0.7,0,1.3-0.3,1.6-1v-3.1c-0.4-0.7-0.9-1-1.6-1c-0.6,0-1,0.2-1.3,0.7
		C211.3,190.3,211.2,190.9,211.2,191.8z"/>
	<path class="st4" d="M220.8,186.5c0-0.2,0.1-0.4,0.2-0.5c0.1-0.1,0.3-0.2,0.5-0.2s0.4,0.1,0.5,0.2c0.1,0.1,0.2,0.3,0.2,0.5
		c0,0.2-0.1,0.3-0.2,0.5c-0.1,0.1-0.3,0.2-0.5,0.2s-0.4-0.1-0.5-0.2S220.8,186.7,220.8,186.5z M222.1,195.2h-1.2v-6.9h1.2V195.2z"/>
	<path class="st4" d="M225.1,188.3l0,0.9c0.5-0.7,1.2-1,2.1-1c1.5,0,2.2,0.8,2.2,2.5v4.5h-1.2v-4.5c0-0.5-0.1-0.9-0.3-1.1
		c-0.2-0.2-0.6-0.4-1-0.4c-0.4,0-0.7,0.1-1,0.3c-0.3,0.2-0.5,0.5-0.7,0.8v4.9H224v-6.9H225.1z"/>
	<path class="st4" d="M230.8,191.7c0-1.1,0.2-1.9,0.7-2.6s1.2-0.9,2-0.9c0.8,0,1.5,0.3,2,0.9l0.1-0.8h1.1v6.7c0,0.9-0.3,1.6-0.8,2.1
		c-0.5,0.5-1.2,0.8-2.1,0.8c-0.5,0-1-0.1-1.5-0.3c-0.5-0.2-0.8-0.5-1.1-0.9l0.6-0.7c0.5,0.6,1.1,0.9,1.8,0.9c0.6,0,1-0.2,1.3-0.5
		c0.3-0.3,0.5-0.8,0.5-1.4v-0.6c-0.5,0.5-1.1,0.8-1.9,0.8c-0.8,0-1.5-0.3-2-1C231.1,193.7,230.8,192.8,230.8,191.7z M232,191.8
		c0,0.8,0.2,1.4,0.5,1.8s0.8,0.7,1.3,0.7c0.7,0,1.3-0.3,1.6-1v-3.1c-0.4-0.7-0.9-1-1.6-1c-0.6,0-1,0.2-1.3,0.7
		C232.2,190.3,232,190.9,232,191.8z"/>
	<path class="st4" d="M241.3,195.3c-0.9,0-1.7-0.3-2.3-0.9s-0.9-1.4-0.9-2.5v-0.2c0-0.7,0.1-1.3,0.4-1.8c0.3-0.5,0.6-1,1.1-1.3
		s1-0.5,1.5-0.5c0.9,0,1.6,0.3,2.1,0.9c0.5,0.6,0.7,1.4,0.7,2.5v0.5h-4.7c0,0.7,0.2,1.2,0.6,1.6c0.4,0.4,0.9,0.6,1.4,0.6
		c0.4,0,0.8-0.1,1.1-0.3c0.3-0.2,0.5-0.4,0.8-0.7l0.7,0.6C243.3,194.9,242.4,195.3,241.3,195.3z M241.1,189.1
		c-0.5,0-0.9,0.2-1.2,0.5c-0.3,0.3-0.5,0.8-0.6,1.5h3.4V191c0-0.6-0.2-1.1-0.5-1.4C242,189.3,241.6,189.1,241.1,189.1z"/>
	<path class="st4" d="M249.3,193.3c0-0.3-0.1-0.6-0.4-0.7s-0.7-0.3-1.3-0.5c-0.6-0.1-1.1-0.3-1.4-0.5c-0.3-0.2-0.6-0.4-0.8-0.6
		c-0.2-0.2-0.3-0.5-0.3-0.9c0-0.6,0.2-1,0.7-1.4c0.5-0.4,1.1-0.6,1.8-0.6c0.8,0,1.4,0.2,1.9,0.6c0.5,0.4,0.7,0.9,0.7,1.5h-1.2
		c0-0.3-0.1-0.6-0.4-0.8c-0.3-0.2-0.6-0.3-1-0.3c-0.4,0-0.8,0.1-1,0.3s-0.4,0.4-0.4,0.7c0,0.3,0.1,0.5,0.3,0.6
		c0.2,0.1,0.6,0.3,1.2,0.4c0.6,0.1,1.1,0.3,1.4,0.5c0.4,0.2,0.6,0.4,0.8,0.7s0.3,0.6,0.3,0.9c0,0.6-0.2,1.1-0.7,1.5
		c-0.5,0.4-1.1,0.6-1.9,0.6c-0.5,0-1-0.1-1.5-0.3c-0.4-0.2-0.8-0.5-1-0.8c-0.2-0.3-0.4-0.7-0.4-1.1h1.2c0,0.4,0.2,0.7,0.5,0.9
		c0.3,0.2,0.7,0.3,1.2,0.3c0.4,0,0.8-0.1,1.1-0.3C249.2,193.9,249.3,193.6,249.3,193.3z"/>
	<path class="st4" d="M253.6,186.6v1.7h1.3v0.9h-1.3v4.3c0,0.3,0.1,0.5,0.2,0.6s0.3,0.2,0.6,0.2c0.1,0,0.3,0,0.6-0.1v0.9
		c-0.3,0.1-0.6,0.1-0.9,0.1c-0.5,0-0.9-0.2-1.2-0.5c-0.3-0.3-0.4-0.8-0.4-1.4v-4.3h-1.2v-0.9h1.2v-1.7H253.6z"/>
</g>
<g class="st3">
	<path class="st4" d="M388.6,191.6v3.6h-1.2v-9.2h3.4c1,0,1.8,0.3,2.4,0.8c0.6,0.5,0.9,1.2,0.9,2c0,0.9-0.3,1.6-0.8,2.1
		s-1.4,0.7-2.4,0.7H388.6z M388.6,190.6h2.2c0.7,0,1.2-0.2,1.5-0.5c0.3-0.3,0.5-0.8,0.5-1.3c0-0.6-0.2-1-0.5-1.3
		c-0.3-0.3-0.8-0.5-1.4-0.5h-2.3V190.6z"/>
</g>
<g class="st3">
	<path class="st4" d="M399.6,195.2c-0.1-0.1-0.1-0.4-0.2-0.7c-0.5,0.6-1.2,0.9-2,0.9c-0.7,0-1.2-0.2-1.7-0.6s-0.7-0.9-0.7-1.5
		c0-0.7,0.3-1.3,0.8-1.7s1.3-0.6,2.3-0.6h1.1v-0.5c0-0.4-0.1-0.7-0.4-1c-0.2-0.2-0.6-0.4-1.1-0.4c-0.4,0-0.8,0.1-1.1,0.3
		c-0.3,0.2-0.4,0.5-0.4,0.8h-1.2c0-0.3,0.1-0.7,0.4-1c0.2-0.3,0.6-0.6,1-0.8c0.4-0.2,0.9-0.3,1.4-0.3c0.8,0,1.4,0.2,1.9,0.6
		c0.4,0.4,0.7,0.9,0.7,1.6v3.2c0,0.6,0.1,1.1,0.2,1.5v0.1H399.6z M397.7,194.3c0.4,0,0.7-0.1,1-0.3s0.6-0.4,0.7-0.7v-1.4h-0.9
		c-1.4,0-2.2,0.4-2.2,1.3c0,0.4,0.1,0.7,0.4,0.9C397,194.2,397.3,194.3,397.7,194.3z"/>
	<path class="st4" d="M405.8,189.4c-0.2,0-0.4,0-0.6,0c-0.8,0-1.3,0.3-1.6,1v4.9h-1.2v-6.9h1.1l0,0.8c0.4-0.6,0.9-0.9,1.6-0.9
		c0.2,0,0.4,0,0.5,0.1V189.4z"/>
	<path class="st4" d="M410.8,193.3c0-0.3-0.1-0.6-0.4-0.7c-0.2-0.2-0.7-0.3-1.3-0.5s-1.1-0.3-1.4-0.5c-0.3-0.2-0.6-0.4-0.8-0.6
		c-0.2-0.2-0.3-0.5-0.3-0.9c0-0.6,0.2-1,0.7-1.4c0.5-0.4,1.1-0.6,1.8-0.6c0.8,0,1.4,0.2,1.9,0.6c0.5,0.4,0.7,0.9,0.7,1.5h-1.2
		c0-0.3-0.1-0.6-0.4-0.8c-0.3-0.2-0.6-0.3-1-0.3c-0.4,0-0.8,0.1-1,0.3s-0.4,0.4-0.4,0.7c0,0.3,0.1,0.5,0.3,0.6
		c0.2,0.1,0.6,0.3,1.2,0.4c0.6,0.1,1.1,0.3,1.4,0.5c0.4,0.2,0.6,0.4,0.8,0.7c0.2,0.3,0.3,0.6,0.3,0.9c0,0.6-0.2,1.1-0.7,1.5
		c-0.5,0.4-1.1,0.6-1.9,0.6c-0.6,0-1-0.1-1.5-0.3c-0.4-0.2-0.8-0.5-1-0.8c-0.2-0.3-0.4-0.7-0.4-1.1h1.2c0,0.4,0.2,0.7,0.5,0.9
		s0.7,0.3,1.2,0.3c0.4,0,0.8-0.1,1.1-0.3S410.8,193.6,410.8,193.3z"/>
	<path class="st4" d="M416.4,195.3c-0.9,0-1.7-0.3-2.3-0.9s-0.9-1.4-0.9-2.5v-0.2c0-0.7,0.1-1.3,0.4-1.8c0.3-0.5,0.6-1,1.1-1.3
		s1-0.5,1.5-0.5c0.9,0,1.6,0.3,2.1,0.9c0.5,0.6,0.7,1.4,0.7,2.5v0.5h-4.7c0,0.7,0.2,1.2,0.6,1.6c0.4,0.4,0.9,0.6,1.4,0.6
		c0.4,0,0.8-0.1,1.1-0.3c0.3-0.2,0.5-0.4,0.8-0.7l0.7,0.6C418.4,194.9,417.5,195.3,416.4,195.3z M416.2,189.1
		c-0.5,0-0.9,0.2-1.2,0.5c-0.3,0.3-0.5,0.8-0.6,1.5h3.4V191c0-0.6-0.2-1.1-0.5-1.4C417.1,189.3,416.7,189.1,416.2,189.1z"/>
	<path class="st4" d="M420.1,191.7c0-1.1,0.2-1.9,0.7-2.5c0.5-0.6,1.2-1,2-1c0.8,0,1.4,0.3,1.9,0.8v-3.6h1.2v9.8h-1.1l-0.1-0.7
		c-0.5,0.6-1.1,0.9-2,0.9c-0.8,0-1.4-0.3-1.9-1C420.4,193.7,420.1,192.8,420.1,191.7L420.1,191.7z M421.3,191.8
		c0,0.8,0.2,1.4,0.5,1.8c0.3,0.4,0.8,0.7,1.3,0.7c0.7,0,1.3-0.3,1.6-1v-3.2c-0.4-0.6-0.9-1-1.6-1c-0.6,0-1,0.2-1.3,0.7
		C421.5,190.3,421.3,190.9,421.3,191.8z"/>
	<path class="st4" d="M432.2,195.2h-1.2v-9.8h1.2V195.2z"/>
	<path class="st4" d="M433.8,191.7c0-0.7,0.1-1.3,0.4-1.8c0.3-0.5,0.6-1,1.1-1.2c0.5-0.3,1-0.4,1.6-0.4c0.9,0,1.7,0.3,2.3,1
		c0.6,0.6,0.9,1.5,0.9,2.6v0.1c0,0.7-0.1,1.3-0.4,1.8c-0.3,0.5-0.6,0.9-1.1,1.2c-0.5,0.3-1,0.4-1.6,0.4c-0.9,0-1.7-0.3-2.3-1
		C434.1,193.7,433.8,192.8,433.8,191.7L433.8,191.7z M435,191.8c0,0.8,0.2,1.4,0.5,1.8s0.8,0.7,1.4,0.7c0.6,0,1.1-0.2,1.4-0.7
		c0.4-0.5,0.5-1.1,0.5-2c0-0.8-0.2-1.4-0.5-1.8s-0.8-0.7-1.4-0.7c-0.6,0-1,0.2-1.4,0.7C435.2,190.3,435,191,435,191.8z"/>
	<path class="st4" d="M441.3,191.7c0-1.1,0.2-1.9,0.7-2.6s1.2-0.9,2-0.9c0.8,0,1.5,0.3,2,0.9l0.1-0.8h1.1v6.7c0,0.9-0.3,1.6-0.8,2.1
		c-0.5,0.5-1.2,0.8-2.1,0.8c-0.5,0-1-0.1-1.5-0.3c-0.5-0.2-0.8-0.5-1.1-0.9l0.6-0.7c0.5,0.6,1.1,0.9,1.8,0.9c0.6,0,1-0.2,1.3-0.5
		c0.3-0.3,0.5-0.8,0.5-1.4v-0.6c-0.5,0.5-1.1,0.8-1.9,0.8c-0.8,0-1.5-0.3-2-1C441.5,193.7,441.3,192.8,441.3,191.7z M442.4,191.8
		c0,0.8,0.2,1.4,0.5,1.8s0.8,0.7,1.3,0.7c0.7,0,1.3-0.3,1.6-1v-3.1c-0.4-0.7-0.9-1-1.6-1c-0.6,0-1,0.2-1.3,0.7
		C442.6,190.3,442.4,190.9,442.4,191.8z"/>
	<path class="st4" d="M452.8,193.3c0-0.3-0.1-0.6-0.4-0.7s-0.7-0.3-1.3-0.5c-0.6-0.1-1.1-0.3-1.4-0.5c-0.3-0.2-0.6-0.4-0.8-0.6
		c-0.2-0.2-0.3-0.5-0.3-0.9c0-0.6,0.2-1,0.7-1.4c0.5-0.4,1.1-0.6,1.8-0.6c0.8,0,1.4,0.2,1.9,0.6c0.5,0.4,0.7,0.9,0.7,1.5h-1.2
		c0-0.3-0.1-0.6-0.4-0.8c-0.3-0.2-0.6-0.3-1-0.3c-0.4,0-0.8,0.1-1,0.3s-0.4,0.4-0.4,0.7c0,0.3,0.1,0.5,0.3,0.6
		c0.2,0.1,0.6,0.3,1.2,0.4c0.6,0.1,1.1,0.3,1.4,0.5c0.4,0.2,0.6,0.4,0.8,0.7s0.3,0.6,0.3,0.9c0,0.6-0.2,1.1-0.7,1.5
		c-0.5,0.4-1.1,0.6-1.9,0.6c-0.5,0-1-0.1-1.5-0.3c-0.4-0.2-0.8-0.5-1-0.8c-0.2-0.3-0.4-0.7-0.4-1.1h1.2c0,0.4,0.2,0.7,0.5,0.9
		c0.3,0.2,0.7,0.3,1.2,0.3c0.4,0,0.8-0.1,1.1-0.3C452.7,193.9,452.8,193.6,452.8,193.3z"/>
</g>
<g class="st3">
	<g class="st3">
		<path class="st4" d="M539.2,112h4.4v1H538v-9.2h1.2V112z"/>
		<path class="st4" d="M544.5,109.5c0-0.7,0.1-1.3,0.4-1.8c0.3-0.5,0.6-1,1.1-1.2c0.5-0.3,1-0.4,1.6-0.4c0.9,0,1.7,0.3,2.3,1
			c0.6,0.6,0.9,1.5,0.9,2.6v0.1c0,0.7-0.1,1.3-0.4,1.8s-0.6,0.9-1.1,1.2c-0.5,0.3-1,0.4-1.6,0.4c-0.9,0-1.7-0.3-2.3-1
			C544.8,111.5,544.5,110.6,544.5,109.5L544.5,109.5z M545.7,109.6c0,0.8,0.2,1.4,0.5,1.8c0.4,0.5,0.8,0.7,1.4,0.7
			c0.6,0,1.1-0.2,1.4-0.7c0.4-0.5,0.5-1.1,0.5-2c0-0.8-0.2-1.4-0.5-1.8c-0.4-0.5-0.8-0.7-1.4-0.7c-0.6,0-1,0.2-1.4,0.7
			C545.9,108.1,545.7,108.8,545.7,109.6z"/>
		<path class="st4" d="M551.9,109.5c0-1.1,0.2-1.9,0.7-2.6s1.2-0.9,2-0.9c0.8,0,1.5,0.3,2,0.9l0.1-0.8h1.1v6.7
			c0,0.9-0.3,1.6-0.8,2.1c-0.5,0.5-1.2,0.8-2.1,0.8c-0.5,0-1-0.1-1.5-0.3c-0.5-0.2-0.8-0.5-1.1-0.9l0.6-0.7c0.5,0.6,1.1,0.9,1.8,0.9
			c0.6,0,1-0.2,1.3-0.5c0.3-0.3,0.5-0.8,0.5-1.4v-0.6c-0.5,0.5-1.1,0.8-1.9,0.8c-0.8,0-1.5-0.3-2-1
			C552.2,111.5,551.9,110.6,551.9,109.5z M553.1,109.6c0,0.8,0.2,1.4,0.5,1.8s0.8,0.7,1.3,0.7c0.7,0,1.3-0.3,1.6-1V108
			c-0.4-0.7-0.9-1-1.6-1c-0.6,0-1,0.2-1.3,0.7C553.3,108.1,553.1,108.7,553.1,109.6z"/>
	</g>
	<g class="st3">
		<path class="st4" d="M530.6,126.7c0-0.3-0.1-0.6-0.4-0.7s-0.7-0.3-1.3-0.5c-0.6-0.1-1.1-0.3-1.4-0.5c-0.3-0.2-0.6-0.4-0.8-0.6
			c-0.2-0.2-0.3-0.5-0.3-0.9c0-0.6,0.2-1,0.7-1.4c0.5-0.4,1.1-0.6,1.8-0.6c0.8,0,1.4,0.2,1.9,0.6c0.5,0.4,0.7,0.9,0.7,1.5h-1.2
			c0-0.3-0.1-0.6-0.4-0.8c-0.3-0.2-0.6-0.3-1-0.3c-0.4,0-0.8,0.1-1,0.3s-0.4,0.4-0.4,0.7c0,0.3,0.1,0.5,0.3,0.6
			c0.2,0.1,0.6,0.3,1.2,0.4c0.6,0.1,1.1,0.3,1.4,0.5c0.4,0.2,0.6,0.4,0.8,0.7s0.3,0.6,0.3,0.9c0,0.6-0.2,1.1-0.7,1.5
			c-0.5,0.4-1.1,0.6-1.9,0.6c-0.5,0-1-0.1-1.5-0.3c-0.4-0.2-0.8-0.5-1-0.8c-0.2-0.3-0.4-0.7-0.4-1.1h1.2c0,0.4,0.2,0.7,0.5,0.9
			c0.3,0.2,0.7,0.3,1.2,0.3c0.4,0,0.8-0.1,1.1-0.3C530.5,127.3,530.6,127,530.6,126.7z"/>
	</g>
	<g class="st3">
		<path class="st4" d="M534.9,120v1.7h1.3v0.9h-1.3v4.3c0,0.3,0.1,0.5,0.2,0.6s0.3,0.2,0.6,0.2c0.1,0,0.3,0,0.6-0.1v0.9
			c-0.3,0.1-0.6,0.1-0.9,0.1c-0.5,0-0.9-0.2-1.2-0.5c-0.3-0.3-0.4-0.8-0.4-1.4v-4.3h-1.2v-0.9h1.2V120H534.9z"/>
	</g>
	<g class="st3">
		<path class="st4" d="M537.1,125.1c0-0.7,0.1-1.3,0.4-1.8c0.3-0.5,0.6-1,1.1-1.2c0.5-0.3,1-0.4,1.6-0.4c0.9,0,1.7,0.3,2.3,1
			c0.6,0.6,0.9,1.5,0.9,2.6v0.1c0,0.7-0.1,1.3-0.4,1.8c-0.3,0.5-0.6,0.9-1.1,1.2c-0.5,0.3-1,0.4-1.6,0.4c-0.9,0-1.7-0.3-2.3-1
			C537.4,127.1,537.1,126.2,537.1,125.1L537.1,125.1z M538.3,125.2c0,0.8,0.2,1.4,0.5,1.8s0.8,0.7,1.4,0.7c0.6,0,1.1-0.2,1.4-0.7
			c0.4-0.5,0.5-1.1,0.5-2c0-0.8-0.2-1.4-0.5-1.8s-0.8-0.7-1.4-0.7c-0.6,0-1,0.2-1.4,0.7C538.5,123.7,538.3,124.4,538.3,125.2z"/>
	</g>
	<g class="st3">
		<path class="st4" d="M548.2,122.8c-0.2,0-0.4,0-0.6,0c-0.8,0-1.3,0.3-1.6,1v4.9h-1.2v-6.9h1.1l0,0.8c0.4-0.6,0.9-0.9,1.6-0.9
			c0.2,0,0.4,0,0.5,0.1V122.8z"/>
	</g>
	<g class="st3">
		<path class="st4" d="M553.2,128.6c-0.1-0.1-0.1-0.4-0.2-0.7c-0.5,0.6-1.2,0.9-2,0.9c-0.7,0-1.2-0.2-1.7-0.6s-0.7-0.9-0.7-1.5
			c0-0.7,0.3-1.3,0.8-1.7s1.3-0.6,2.3-0.6h1.1v-0.5c0-0.4-0.1-0.7-0.4-1c-0.2-0.2-0.6-0.4-1.1-0.4c-0.4,0-0.8,0.1-1.1,0.3
			c-0.3,0.2-0.4,0.5-0.4,0.8h-1.2c0-0.3,0.1-0.7,0.4-1c0.2-0.3,0.6-0.6,1-0.8c0.4-0.2,0.9-0.3,1.4-0.3c0.8,0,1.4,0.2,1.9,0.6
			c0.4,0.4,0.7,0.9,0.7,1.6v3.2c0,0.6,0.1,1.1,0.2,1.5v0.1H553.2z M551.3,127.7c0.4,0,0.7-0.1,1-0.3s0.6-0.4,0.7-0.7v-1.4h-0.9
			c-1.4,0-2.2,0.4-2.2,1.3c0,0.4,0.1,0.7,0.4,0.9C550.6,127.6,550.9,127.7,551.3,127.7z"/>
		<path class="st4" d="M555.8,125.1c0-1.1,0.2-1.9,0.7-2.6s1.2-0.9,2-0.9c0.8,0,1.5,0.3,2,0.9l0.1-0.8h1.1v6.7
			c0,0.9-0.3,1.6-0.8,2.1c-0.5,0.5-1.2,0.8-2.1,0.8c-0.5,0-1-0.1-1.5-0.3c-0.5-0.2-0.8-0.5-1.1-0.9l0.6-0.7c0.5,0.6,1.1,0.9,1.8,0.9
			c0.6,0,1-0.2,1.3-0.5c0.3-0.3,0.5-0.8,0.5-1.4v-0.6c-0.5,0.5-1.1,0.8-1.9,0.8c-0.8,0-1.5-0.3-2-1
			C556,127.1,555.8,126.2,555.8,125.1z M557,125.2c0,0.8,0.2,1.4,0.5,1.8s0.8,0.7,1.3,0.7c0.7,0,1.3-0.3,1.6-1v-3.1
			c-0.4-0.7-0.9-1-1.6-1c-0.6,0-1,0.2-1.3,0.7C557.1,123.7,557,124.3,557,125.2z"/>
		<path class="st4" d="M566.2,128.7c-0.9,0-1.7-0.3-2.3-0.9s-0.9-1.4-0.9-2.5v-0.2c0-0.7,0.1-1.3,0.4-1.8c0.3-0.5,0.6-1,1.1-1.3
			s1-0.5,1.5-0.5c0.9,0,1.6,0.3,2.1,0.9c0.5,0.6,0.7,1.4,0.7,2.5v0.5h-4.7c0,0.7,0.2,1.2,0.6,1.6c0.4,0.4,0.9,0.6,1.4,0.6
			c0.4,0,0.8-0.1,1.1-0.3c0.3-0.2,0.5-0.4,0.8-0.7l0.7,0.6C568.2,128.3,567.4,128.7,566.2,128.7z M566.1,122.5
			c-0.5,0-0.9,0.2-1.2,0.5c-0.3,0.3-0.5,0.8-0.6,1.5h3.4v-0.1c0-0.6-0.2-1.1-0.5-1.4C566.9,122.7,566.5,122.5,566.1,122.5z"/>
	</g>
</g>
<g class="st3">
	<g class="st3">
		<path class="st4" d="M539.2,203.6h4.4v1H538v-9.2h1.2V203.6z"/>
		<path class="st4" d="M544.5,201.1c0-0.7,0.1-1.3,0.4-1.8c0.3-0.5,0.6-1,1.1-1.2c0.5-0.3,1-0.4,1.6-0.4c0.9,0,1.7,0.3,2.3,1
			c0.6,0.6,0.9,1.5,0.9,2.6v0.1c0,0.7-0.1,1.3-0.4,1.8s-0.6,0.9-1.1,1.2c-0.5,0.3-1,0.4-1.6,0.4c-0.9,0-1.7-0.3-2.3-1
			C544.8,203.1,544.5,202.3,544.5,201.1L544.5,201.1z M545.7,201.2c0,0.8,0.2,1.4,0.5,1.8c0.4,0.5,0.8,0.7,1.4,0.7
			c0.6,0,1.1-0.2,1.4-0.7c0.4-0.5,0.5-1.1,0.5-2c0-0.8-0.2-1.4-0.5-1.8c-0.4-0.5-0.8-0.7-1.4-0.7c-0.6,0-1,0.2-1.4,0.7
			C545.9,199.7,545.7,200.4,545.7,201.2z"/>
		<path class="st4" d="M551.9,201.1c0-1.1,0.2-1.9,0.7-2.6s1.2-0.9,2-0.9c0.8,0,1.5,0.3,2,0.9l0.1-0.8h1.1v6.7
			c0,0.9-0.3,1.6-0.8,2.1c-0.5,0.5-1.2,0.8-2.1,0.8c-0.5,0-1-0.1-1.5-0.3c-0.5-0.2-0.8-0.5-1.1-0.9l0.6-0.7c0.5,0.6,1.1,0.9,1.8,0.9
			c0.6,0,1-0.2,1.3-0.5c0.3-0.3,0.5-0.8,0.5-1.4v-0.6c-0.5,0.5-1.1,0.8-1.9,0.8c-0.8,0-1.5-0.3-2-1
			C552.2,203.1,551.9,202.2,551.9,201.1z M553.1,201.2c0,0.8,0.2,1.4,0.5,1.8s0.8,0.7,1.3,0.7c0.7,0,1.3-0.3,1.6-1v-3.1
			c-0.4-0.7-0.9-1-1.6-1c-0.6,0-1,0.2-1.3,0.7C553.3,199.7,553.1,200.4,553.1,201.2z"/>
	</g>
	<g class="st3">
		<path class="st4" d="M530.6,218.4c0-0.3-0.1-0.6-0.4-0.7s-0.7-0.3-1.3-0.5c-0.6-0.1-1.1-0.3-1.4-0.5c-0.3-0.2-0.6-0.4-0.8-0.6
			c-0.2-0.2-0.3-0.5-0.3-0.9c0-0.6,0.2-1,0.7-1.4c0.5-0.4,1.1-0.6,1.8-0.6c0.8,0,1.4,0.2,1.9,0.6c0.5,0.4,0.7,0.9,0.7,1.5h-1.2
			c0-0.3-0.1-0.6-0.4-0.8c-0.3-0.2-0.6-0.3-1-0.3c-0.4,0-0.8,0.1-1,0.3s-0.4,0.4-0.4,0.7c0,0.3,0.1,0.5,0.3,0.6
			c0.2,0.1,0.6,0.3,1.2,0.4c0.6,0.1,1.1,0.3,1.4,0.5c0.4,0.2,0.6,0.4,0.8,0.7s0.3,0.6,0.3,0.9c0,0.6-0.2,1.1-0.7,1.5
			c-0.5,0.4-1.1,0.6-1.9,0.6c-0.5,0-1-0.1-1.5-0.3c-0.4-0.2-0.8-0.5-1-0.8c-0.2-0.3-0.4-0.7-0.4-1.1h1.2c0,0.4,0.2,0.7,0.5,0.9
			c0.3,0.2,0.7,0.3,1.2,0.3c0.4,0,0.8-0.1,1.1-0.3C530.5,218.9,530.6,218.7,530.6,218.4z"/>
	</g>
	<g class="st3">
		<path class="st4" d="M534.9,211.7v1.7h1.3v0.9h-1.3v4.3c0,0.3,0.1,0.5,0.2,0.6s0.3,0.2,0.6,0.2c0.1,0,0.3,0,0.6-0.1v0.9
			c-0.3,0.1-0.6,0.1-0.9,0.1c-0.5,0-0.9-0.2-1.2-0.5c-0.3-0.3-0.4-0.8-0.4-1.4v-4.3h-1.2v-0.9h1.2v-1.7H534.9z"/>
	</g>
	<g class="st3">
		<path class="st4" d="M537.1,216.7c0-0.7,0.1-1.3,0.4-1.8c0.3-0.5,0.6-1,1.1-1.2c0.5-0.3,1-0.4,1.6-0.4c0.9,0,1.7,0.3,2.3,1
			c0.6,0.6,0.9,1.5,0.9,2.6v0.1c0,0.7-0.1,1.3-0.4,1.8c-0.3,0.5-0.6,0.9-1.1,1.2c-0.5,0.3-1,0.4-1.6,0.4c-0.9,0-1.7-0.3-2.3-1
			C537.4,218.7,537.1,217.9,537.1,216.7L537.1,216.7z M538.3,216.8c0,0.8,0.2,1.4,0.5,1.8s0.8,0.7,1.4,0.7c0.6,0,1.1-0.2,1.4-0.7
			c0.4-0.5,0.5-1.1,0.5-2c0-0.8-0.2-1.4-0.5-1.8s-0.8-0.7-1.4-0.7c-0.6,0-1,0.2-1.4,0.7C538.5,215.3,538.3,216,538.3,216.8z"/>
	</g>
	<g class="st3">
		<path class="st4" d="M548.2,214.4c-0.2,0-0.4,0-0.6,0c-0.8,0-1.3,0.3-1.6,1v4.9h-1.2v-6.9h1.1l0,0.8c0.4-0.6,0.9-0.9,1.6-0.9
			c0.2,0,0.4,0,0.5,0.1V214.4z"/>
	</g>
	<g class="st3">
		<path class="st4" d="M553.2,220.2c-0.1-0.1-0.1-0.4-0.2-0.7c-0.5,0.6-1.2,0.9-2,0.9c-0.7,0-1.2-0.2-1.7-0.6s-0.7-0.9-0.7-1.5
			c0-0.7,0.3-1.3,0.8-1.7s1.3-0.6,2.3-0.6h1.1v-0.5c0-0.4-0.1-0.7-0.4-1c-0.2-0.2-0.6-0.4-1.1-0.4c-0.4,0-0.8,0.1-1.1,0.3
			c-0.3,0.2-0.4,0.5-0.4,0.8h-1.2c0-0.3,0.1-0.7,0.4-1c0.2-0.3,0.6-0.6,1-0.8c0.4-0.2,0.9-0.3,1.4-0.3c0.8,0,1.4,0.2,1.9,0.6
			c0.4,0.4,0.7,0.9,0.7,1.6v3.2c0,0.6,0.1,1.1,0.2,1.5v0.1H553.2z M551.3,219.3c0.4,0,0.7-0.1,1-0.3s0.6-0.4,0.7-0.7v-1.4h-0.9
			c-1.4,0-2.2,0.4-2.2,1.3c0,0.4,0.1,0.7,0.4,0.9C550.6,219.2,550.9,219.3,551.3,219.3z"/>
		<path class="st4" d="M555.8,216.7c0-1.1,0.2-1.9,0.7-2.6s1.2-0.9,2-0.9c0.8,0,1.5,0.3,2,0.9l0.1-0.8h1.1v6.7
			c0,0.9-0.3,1.6-0.8,2.1c-0.5,0.5-1.2,0.8-2.1,0.8c-0.5,0-1-0.1-1.5-0.3c-0.5-0.2-0.8-0.5-1.1-0.9l0.6-0.7c0.5,0.6,1.1,0.9,1.8,0.9
			c0.6,0,1-0.2,1.3-0.5c0.3-0.3,0.5-0.8,0.5-1.4v-0.6c-0.5,0.5-1.1,0.8-1.9,0.8c-0.8,0-1.5-0.3-2-1
			C556,218.7,555.8,217.8,555.8,216.7z M557,216.8c0,0.8,0.2,1.4,0.5,1.8s0.8,0.7,1.3,0.7c0.7,0,1.3-0.3,1.6-1v-3.1
			c-0.4-0.7-0.9-1-1.6-1c-0.6,0-1,0.2-1.3,0.7C557.1,215.3,557,216,557,216.8z"/>
		<path class="st4" d="M566.2,220.3c-0.9,0-1.7-0.3-2.3-0.9s-0.9-1.4-0.9-2.5v-0.2c0-0.7,0.1-1.3,0.4-1.8c0.3-0.5,0.6-1,1.1-1.3
			s1-0.5,1.5-0.5c0.9,0,1.6,0.3,2.1,0.9c0.5,0.6,0.7,1.4,0.7,2.5v0.5h-4.7c0,0.7,0.2,1.2,0.6,1.6c0.4,0.4,0.9,0.6,1.4,0.6
			c0.4,0,0.8-0.1,1.1-0.3c0.3-0.2,0.5-0.4,0.8-0.7l0.7,0.6C568.2,219.9,567.4,220.3,566.2,220.3z M566.1,214.2
			c-0.5,0-0.9,0.2-1.2,0.5c-0.3,0.3-0.5,0.8-0.6,1.5h3.4V216c0-0.6-0.2-1.1-0.5-1.4C566.9,214.3,566.5,214.2,566.1,214.2z"/>
	</g>
</g>
<g class="st3">
	<g class="st3">
		<path class="st4" d="M539.2,291.8h4.4v1H538v-9.2h1.2V291.8z"/>
		<path class="st4" d="M544.5,289.3c0-0.7,0.1-1.3,0.4-1.8c0.3-0.5,0.6-1,1.1-1.2c0.5-0.3,1-0.4,1.6-0.4c0.9,0,1.7,0.3,2.3,1
			c0.6,0.6,0.9,1.5,0.9,2.6v0.1c0,0.7-0.1,1.3-0.4,1.8s-0.6,0.9-1.1,1.2c-0.5,0.3-1,0.4-1.6,0.4c-0.9,0-1.7-0.3-2.3-1
			C544.8,291.3,544.5,290.4,544.5,289.3L544.5,289.3z M545.7,289.4c0,0.8,0.2,1.4,0.5,1.8c0.4,0.5,0.8,0.7,1.4,0.7
			c0.6,0,1.1-0.2,1.4-0.7c0.4-0.5,0.5-1.1,0.5-2c0-0.8-0.2-1.4-0.5-1.8c-0.4-0.5-0.8-0.7-1.4-0.7c-0.6,0-1,0.2-1.4,0.7
			C545.9,287.9,545.7,288.5,545.7,289.4z"/>
		<path class="st4" d="M551.9,289.3c0-1.1,0.2-1.9,0.7-2.6s1.2-0.9,2-0.9c0.8,0,1.5,0.3,2,0.9l0.1-0.8h1.1v6.7
			c0,0.9-0.3,1.6-0.8,2.1c-0.5,0.5-1.2,0.8-2.1,0.8c-0.5,0-1-0.1-1.5-0.3c-0.5-0.2-0.8-0.5-1.1-0.9l0.6-0.7c0.5,0.6,1.1,0.9,1.8,0.9
			c0.6,0,1-0.2,1.3-0.5c0.3-0.3,0.5-0.8,0.5-1.4v-0.6c-0.5,0.5-1.1,0.8-1.9,0.8c-0.8,0-1.5-0.3-2-1
			C552.2,291.3,551.9,290.4,551.9,289.3z M553.1,289.4c0,0.8,0.2,1.4,0.5,1.8s0.8,0.7,1.3,0.7c0.7,0,1.3-0.3,1.6-1v-3.1
			c-0.4-0.7-0.9-1-1.6-1c-0.6,0-1,0.2-1.3,0.7C553.3,287.9,553.1,288.5,553.1,289.4z"/>
	</g>
	<g class="st3">
		<path class="st4" d="M530.6,306.5c0-0.3-0.1-0.6-0.4-0.7s-0.7-0.3-1.3-0.5c-0.6-0.1-1.1-0.3-1.4-0.5c-0.3-0.2-0.6-0.4-0.8-0.6
			c-0.2-0.2-0.3-0.5-0.3-0.9c0-0.6,0.2-1,0.7-1.4c0.5-0.4,1.1-0.6,1.8-0.6c0.8,0,1.4,0.2,1.9,0.6c0.5,0.4,0.7,0.9,0.7,1.5h-1.2
			c0-0.3-0.1-0.6-0.4-0.8c-0.3-0.2-0.6-0.3-1-0.3c-0.4,0-0.8,0.1-1,0.3s-0.4,0.4-0.4,0.7c0,0.3,0.1,0.5,0.3,0.6
			c0.2,0.1,0.6,0.3,1.2,0.4c0.6,0.1,1.1,0.3,1.4,0.5c0.4,0.2,0.6,0.4,0.8,0.7s0.3,0.6,0.3,0.9c0,0.6-0.2,1.1-0.7,1.5
			c-0.5,0.4-1.1,0.6-1.9,0.6c-0.5,0-1-0.1-1.5-0.3c-0.4-0.2-0.8-0.5-1-0.8c-0.2-0.3-0.4-0.7-0.4-1.1h1.2c0,0.4,0.2,0.7,0.5,0.9
			c0.3,0.2,0.7,0.3,1.2,0.3c0.4,0,0.8-0.1,1.1-0.3C530.5,307.1,530.6,306.8,530.6,306.5z"/>
	</g>
	<g class="st3">
		<path class="st4" d="M534.9,299.8v1.7h1.3v0.9h-1.3v4.3c0,0.3,0.1,0.5,0.2,0.6s0.3,0.2,0.6,0.2c0.1,0,0.3,0,0.6-0.1v0.9
			c-0.3,0.1-0.6,0.1-0.9,0.1c-0.5,0-0.9-0.2-1.2-0.5c-0.3-0.3-0.4-0.8-0.4-1.4v-4.3h-1.2v-0.9h1.2v-1.7H534.9z"/>
	</g>
	<g class="st3">
		<path class="st4" d="M537.1,304.9c0-0.7,0.1-1.3,0.4-1.8c0.3-0.5,0.6-1,1.1-1.2c0.5-0.3,1-0.4,1.6-0.4c0.9,0,1.7,0.3,2.3,1
			c0.6,0.6,0.9,1.5,0.9,2.6v0.1c0,0.7-0.1,1.3-0.4,1.8c-0.3,0.5-0.6,0.9-1.1,1.2c-0.5,0.3-1,0.4-1.6,0.4c-0.9,0-1.7-0.3-2.3-1
			C537.4,306.9,537.1,306,537.1,304.9L537.1,304.9z M538.3,305c0,0.8,0.2,1.4,0.5,1.8s0.8,0.7,1.4,0.7c0.6,0,1.1-0.2,1.4-0.7
			c0.4-0.5,0.5-1.1,0.5-2c0-0.8-0.2-1.4-0.5-1.8s-0.8-0.7-1.4-0.7c-0.6,0-1,0.2-1.4,0.7C538.5,303.5,538.3,304.1,538.3,305z"/>
	</g>
	<g class="st3">
		<path class="st4" d="M548.2,302.5c-0.2,0-0.4,0-0.6,0c-0.8,0-1.3,0.3-1.6,1v4.9h-1.2v-6.9h1.1l0,0.8c0.4-0.6,0.9-0.9,1.6-0.9
			c0.2,0,0.4,0,0.5,0.1V302.5z"/>
	</g>
	<g class="st3">
		<path class="st4" d="M553.2,308.3c-0.1-0.1-0.1-0.4-0.2-0.7c-0.5,0.6-1.2,0.9-2,0.9c-0.7,0-1.2-0.2-1.7-0.6s-0.7-0.9-0.7-1.5
			c0-0.7,0.3-1.3,0.8-1.7s1.3-0.6,2.3-0.6h1.1v-0.5c0-0.4-0.1-0.7-0.4-1c-0.2-0.2-0.6-0.4-1.1-0.4c-0.4,0-0.8,0.1-1.1,0.3
			c-0.3,0.2-0.4,0.5-0.4,0.8h-1.2c0-0.3,0.1-0.7,0.4-1c0.2-0.3,0.6-0.6,1-0.8c0.4-0.2,0.9-0.3,1.4-0.3c0.8,0,1.4,0.2,1.9,0.6
			c0.4,0.4,0.7,0.9,0.7,1.6v3.2c0,0.6,0.1,1.1,0.2,1.5v0.1H553.2z M551.3,307.5c0.4,0,0.7-0.1,1-0.3s0.6-0.4,0.7-0.7V305h-0.9
			c-1.4,0-2.2,0.4-2.2,1.3c0,0.4,0.1,0.7,0.4,0.9C550.6,307.4,550.9,307.5,551.3,307.5z"/>
		<path class="st4" d="M555.8,304.9c0-1.1,0.2-1.9,0.7-2.6s1.2-0.9,2-0.9c0.8,0,1.5,0.3,2,0.9l0.1-0.8h1.1v6.7
			c0,0.9-0.3,1.6-0.8,2.1c-0.5,0.5-1.2,0.8-2.1,0.8c-0.5,0-1-0.1-1.5-0.3c-0.5-0.2-0.8-0.5-1.1-0.9l0.6-0.7c0.5,0.6,1.1,0.9,1.8,0.9
			c0.6,0,1-0.2,1.3-0.5c0.3-0.3,0.5-0.8,0.5-1.4v-0.6c-0.5,0.5-1.1,0.8-1.9,0.8c-0.8,0-1.5-0.3-2-1C556,306.9,555.8,306,555.8,304.9
			z M557,305c0,0.8,0.2,1.4,0.5,1.8s0.8,0.7,1.3,0.7c0.7,0,1.3-0.3,1.6-1v-3.1c-0.4-0.7-0.9-1-1.6-1c-0.6,0-1,0.2-1.3,0.7
			C557.1,303.5,557,304.1,557,305z"/>
		<path class="st4" d="M566.2,308.5c-0.9,0-1.7-0.3-2.3-0.9s-0.9-1.4-0.9-2.5v-0.2c0-0.7,0.1-1.3,0.4-1.8c0.3-0.5,0.6-1,1.1-1.3
			s1-0.5,1.5-0.5c0.9,0,1.6,0.3,2.1,0.9c0.5,0.6,0.7,1.4,0.7,2.5v0.5h-4.7c0,0.7,0.2,1.2,0.6,1.6c0.4,0.4,0.9,0.6,1.4,0.6
			c0.4,0,0.8-0.1,1.1-0.3c0.3-0.2,0.5-0.4,0.8-0.7l0.7,0.6C568.2,308,567.4,308.5,566.2,308.5z M566.1,302.3c-0.5,0-0.9,0.2-1.2,0.5
			c-0.3,0.3-0.5,0.8-0.6,1.5h3.4v-0.1c0-0.6-0.2-1.1-0.5-1.4C566.9,302.5,566.5,302.3,566.1,302.3z"/>
	</g>
</g>
</svg>
