<?xml version="1.0" encoding="utf-8"?>
<!-- Generator: Adobe Illustrator 28.3.0, SVG Export Plug-In . SVG Version: 6.00 Build 0)  -->
<svg version="1.1" id="Layer_1" xmlns="http://www.w3.org/2000/svg" xmlns:xlink="http://www.w3.org/1999/xlink" x="0px" y="0px"
	 viewBox="0 0 1080 1080" style="enable-background:new 0 0 1080 1080;" xml:space="preserve">
<style type="text/css">
	.st0{fill:#010101;}
	.st1{fill:none;stroke:#1A9AD7;stroke-width:2;stroke-miterlimit:10;}
	.st2{fill:none;stroke:#BCBEC0;stroke-width:2;stroke-miterlimit:10;}
	.st3{fill:#BCBEC0;}
	.st4{font-family:'Roboto-Bold';}
	.st5{font-size:11.4545px;}
	.st6{font-family:'Roboto-Regular';}
	.st7{font-size:8px;}
	.st8{fill:#1A9AD7;}
	.st9{fill:#FFFFFF;}
	.st10{fill:#E6E7E8;}
	.st11{font-size:12px;}
	.st12{fill:none;stroke:#000000;stroke-width:2;stroke-miterlimit:10;}
	.st13{font-size:18px;}
	.st14{fill:#1999D6;}
	.st15{fill:#E6E7E8;stroke:#000000;stroke-miterlimit:10;}
	.st16{fill:#595959;}
	.st17{fill:none;stroke:#000000;stroke-width:1.0564;stroke-miterlimit:10;}
	.st18{enable-background:new    ;}
</style>
<g>
	<g>
		<path class="st0" d="M123.4,419.2v-23H89.5v23h11.6v2h-2.5v4.6h15.9v-4.6h-2.7v-2H123.4L123.4,419.2z M112.9,424.2h-12.7v-1.5
			h12.7V424.2z M110.2,420v1h-7.5v-1H110.2z M91.1,397.8h30.7v19.8H91.1V397.8z"/>
	</g>
	<g>
		<path class="st0" d="M123.4,586.1v-23H89.5v23h11.6v2h-2.5v4.6h15.9v-4.6h-2.7v-2H123.4L123.4,586.1z M112.9,591.2h-12.7v-1.5
			h12.7V591.2z M110.2,587v1h-7.5v-1H110.2z M91.1,564.7h30.7v19.8H91.1V564.7z"/>
	</g>
	<g>
		<path class="st0" d="M103.4,509.3H101V507h-1.2v2.4h-2.5v1.2h2.5v2.5h1.2v-2.5h2.4V509.3z"/>
		<path class="st0" d="M102.9,504.1h9.1c2.4,0,4,1.2,4.7,3.4c0.7,2.2,1.3,4.5,2,7.6c0.3,1.5-0.3,3-1.7,3.9c-0.5,0.2-1,0.3-1.5,0.3
			c-1,0-2-0.5-2.5-1.2c-0.7-0.8-1.5-1.9-2.9-2.7c-1.3-0.7-2.5-1-3.7-1c-1.5,0-2.9,0.5-4,1.5c-0.8,0.5-1.5,1.3-2.2,2
			c-0.7,0.8-1.7,1.2-2.7,1.2c-0.3,0-0.8,0-1.2-0.2c-1.3-0.5-2.2-1.7-2-3.2c0-0.8,0.3-2.2,0.5-3.2c0.5-1.9,1-3.7,1.7-5.7
			c0.5-1.7,2.4-2.7,4-2.7L102.9,504.1L102.9,504.1z M102.9,502.8c-0.8,0-1.5,0-2.4,0c-2.4,0-4.5,1.7-5.2,3.9c-0.7,2-1.2,3.9-1.7,5.9
			c-0.3,1-0.5,2.2-0.7,3.2c-0.2,2,1,3.7,3,4.5c0.5,0.2,1,0.3,1.5,0.3c1.3,0,2.7-0.7,3.5-1.7c0.7-0.8,1.3-1.5,2-2.2
			c1-0.7,2.2-1.2,3.4-1.2c1,0,1.9,0.3,2.9,0.8c1,0.7,1.7,1.5,2.5,2.4c0.8,1,2.2,1.7,3.5,1.7c0.7,0,1.3-0.2,2-0.5
			c1.9-1,3-3.2,2.4-5.2c-0.7-2.5-1.3-5.1-2-7.6c-0.8-2.9-3-4.4-5.9-4.4c-1.9,0-3.5,0-5.4,0C105.3,502.8,104.1,502.8,102.9,502.8
			L102.9,502.8z"/>
		<path class="st0" d="M111.8,508.7c0.6,0,1-0.5,1-1c0-0.6-0.5-1-1-1s-1,0.5-1,1C110.8,508.2,111.3,508.7,111.8,508.7z"/>
		<path class="st0" d="M114.9,510.2c0.6,0,1-0.5,1-1c0-0.6-0.5-1-1-1s-1,0.5-1,1C113.8,509.7,114.3,510.2,114.9,510.2z"/>
		<path class="st0" d="M109.8,511.7c0.6,0,1-0.5,1-1c0-0.6-0.5-1-1-1s-1,0.5-1,1C108.8,511.2,109.2,511.7,109.8,511.7z"/>
		<path class="st0" d="M112.8,513.2c0.6,0,1-0.5,1-1c0-0.6-0.5-1-1-1c-0.6,0-1,0.5-1,1S112.3,513.2,112.8,513.2z"/>
	</g>
	<g>
		<path class="st0" d="M103.4,679.7H101v-2.4h-1.2v2.4h-2.5v1.2h2.5v2.5h1.2v-2.5h2.4V679.7z"/>
		<path class="st0" d="M102.9,674.4h9.1c2.4,0,4,1.2,4.7,3.4c0.7,2.2,1.3,4.5,2,7.6c0.3,1.5-0.3,3-1.7,3.9c-0.5,0.2-1,0.3-1.5,0.3
			c-1,0-2-0.5-2.5-1.2c-0.7-0.8-1.5-1.9-2.9-2.7c-1.3-0.7-2.5-1-3.7-1c-1.5,0-2.9,0.5-4,1.5c-0.8,0.5-1.5,1.3-2.2,2
			c-0.7,0.8-1.7,1.2-2.7,1.2c-0.3,0-0.8,0-1.2-0.2c-1.3-0.5-2.2-1.7-2-3.2c0-0.8,0.3-2.2,0.5-3.2c0.5-1.9,1-3.7,1.7-5.7
			c0.5-1.7,2.4-2.7,4-2.7H102.9L102.9,674.4z M102.9,673.1c-0.8,0-1.5,0-2.4,0c-2.4,0-4.5,1.7-5.2,3.9c-0.7,2-1.2,3.9-1.7,5.9
			c-0.3,1-0.5,2.2-0.7,3.2c-0.2,2,1,3.7,3,4.5c0.5,0.2,1,0.3,1.5,0.3c1.3,0,2.7-0.7,3.5-1.7c0.7-0.8,1.3-1.5,2-2.2
			c1-0.7,2.2-1.2,3.4-1.2c1,0,1.9,0.3,2.9,0.8c1,0.7,1.7,1.5,2.5,2.4c0.8,1,2.2,1.7,3.5,1.7c0.7,0,1.3-0.2,2-0.5
			c1.9-1,3-3.2,2.4-5.2c-0.7-2.5-1.3-5.1-2-7.6c-0.8-2.9-3-4.4-5.9-4.4c-1.9,0-3.5,0-5.4,0C105.3,673.1,104.1,673.1,102.9,673.1
			L102.9,673.1z"/>
		<path class="st0" d="M111.8,679c0.6,0,1-0.5,1-1c0-0.6-0.5-1-1-1s-1,0.5-1,1C110.8,678.5,111.3,679,111.8,679z"/>
		<path class="st0" d="M114.9,680.5c0.6,0,1-0.5,1-1c0-0.6-0.5-1-1-1s-1,0.5-1,1C113.8,680,114.3,680.5,114.9,680.5z"/>
		<path class="st0" d="M109.8,682c0.6,0,1-0.5,1-1s-0.5-1-1-1s-1,0.5-1,1S109.2,682,109.8,682z"/>
		<path class="st0" d="M112.8,683.5c0.6,0,1-0.5,1-1c0-0.6-0.5-1-1-1c-0.6,0-1,0.5-1,1S112.3,683.5,112.8,683.5z"/>
	</g>
	<g>
		<path class="st0" d="M113.4,448.7v27.2H99.5v-27.2H113.4z M114.8,447.3H98.1v30h16.7V447.3z"/>
		<path class="st0" d="M106.4,474.5c0.7,0,1.3-0.6,1.3-1.3c0-0.7-0.6-1.3-1.3-1.3c-0.7,0-1.3,0.6-1.3,1.3
			C105.2,473.9,105.7,474.5,106.4,474.5z"/>
	</g>
	<g>
		<path class="st0" d="M113.4,617.8V645H99.5v-27.2H113.4z M114.8,616.4H98.1v30h16.7V616.4z"/>
		<path class="st0" d="M106.4,643.6c0.7,0,1.3-0.6,1.3-1.3s-0.6-1.3-1.3-1.3c-0.7,0-1.3,0.6-1.3,1.3S105.7,643.6,106.4,643.6z"/>
	</g>
	<polyline class="st1" points="585.4,362.7 772.5,362.7 772.5,494.2 589.5,494.2 	"/>
	<g>
		<g>
			<polyline class="st2" points="130.8,408.7 151.4,408.7 151.4,681 130.8,681 			"/>
			<g>
				<polygon class="st3" points="132.1,413.2 124.3,408.7 132.1,404.2 				"/>
			</g>
			<g>
				<polygon class="st3" points="132.1,676.5 124.3,681 132.1,685.5 				"/>
			</g>
		</g>
	</g>
	<g>
		<g>
			<polyline class="st2" points="339.9,703 303.3,703 303.3,372.5 339.9,372.5 			"/>
			<g>
				<polygon class="st3" points="338.6,698.5 346.4,703 338.6,707.4 				"/>
			</g>
			<g>
				<polygon class="st3" points="338.6,377 346.4,372.5 338.6,368 				"/>
			</g>
		</g>
	</g>
	<g>
		<g>
			<line class="st2" x1="151.3" y1="463.4" x2="130.8" y2="463.4"/>
			<g>
				<polygon class="st3" points="132.1,458.9 124.3,463.4 132.1,467.9 				"/>
			</g>
		</g>
	</g>
	<g>
		<g>
			<line class="st2" x1="151.3" y1="506.7" x2="130.8" y2="506.7"/>
			<g>
				<polygon class="st3" points="132.1,502.2 124.3,506.7 132.1,511.1 				"/>
			</g>
		</g>
	</g>
	<g>
		<g>
			<line class="st2" x1="151.3" y1="572.3" x2="130.8" y2="572.3"/>
			<g>
				<polygon class="st3" points="132.1,567.8 124.3,572.3 132.1,576.8 				"/>
			</g>
		</g>
	</g>
	<g>
		<g>
			<line class="st2" x1="151.3" y1="626.4" x2="130.8" y2="626.4"/>
			<g>
				<polygon class="st3" points="132.1,621.9 124.3,626.4 132.1,630.9 				"/>
			</g>
		</g>
	</g>
	<text transform="matrix(1 0 0 1 88.4692 364.5002)" class="st0 st4 st5">Clients</text>
	<text transform="matrix(1 0 0 1 91.8102 391.6146)" class="st0 st6 st7">Browser</text>
	<text transform="matrix(1 0 0 1 91.8094 558.6414)" class="st0 st6 st7">Browser</text>
	<text transform="matrix(1 0 0 1 86.7048 442.7221)" class="st0 st6 st7">Mobile app</text>
	<text transform="matrix(1 0 0 1 86.7048 611.8439)" class="st0 st6 st7">Mobile app</text>
	<text transform="matrix(1 0 0 1 91.9115 498.1915)" class="st0 st6 st7">Console</text>
	<text transform="matrix(1 0 0 1 91.9119 668.5035)" class="st0 st6 st7">Console</text>
	<g>
		<g>
			<rect x="139.9" y="717.1" class="st3" width="3" height="3"/>
		</g>
		<g>
			<path class="st3" d="M131.4,720.1h-3.2v-3h3.2V720.1z M119.7,720.1h-3.2v-3h3.2V720.1z M108,720.1h-3.2v-3h3.2V720.1z
				 M96.3,720.1h-3.2v-3h3.2V720.1z M84.6,720.1h-3.2v-3h3.2V720.1z"/>
		</g>
		<g>
			<rect x="69.9" y="717.1" class="st3" width="3" height="3"/>
		</g>
		<g>
			<path class="st3" d="M72.9,709.2h-3v-3h3V709.2z M72.9,698.4h-3v-3h3V698.4z M72.9,687.5h-3v-3h3V687.5z M72.9,676.7h-3v-3h3
				V676.7z M72.9,665.8h-3v-3h3V665.8z M72.9,655h-3v-3h3V655z M72.9,644.2h-3v-3h3V644.2z M72.9,633.3h-3v-3h3V633.3z M72.9,622.5
				h-3v-3h3V622.5z M72.9,611.7h-3v-3h3V611.7z M72.9,600.8h-3v-3h3V600.8z M72.9,590h-3v-3h3V590z M72.9,579.1h-3v-3h3V579.1z
				 M72.9,568.3h-3v-3h3V568.3z M72.9,557.5h-3v-3h3V557.5z M72.9,546.6h-3v-3h3V546.6z M72.9,535.8h-3v-3h3V535.8z M72.9,524.9h-3
				v-3h3V524.9z M72.9,514.1h-3v-3h3V514.1z M72.9,503.3h-3v-3h3V503.3z M72.9,492.4h-3v-3h3V492.4z M72.9,481.6h-3v-3h3V481.6z
				 M72.9,470.8h-3v-3h3V470.8z M72.9,459.9h-3v-3h3V459.9z M72.9,449.1h-3v-3h3V449.1z M72.9,438.2h-3v-3h3V438.2z M72.9,427.4h-3
				v-3h3V427.4z M72.9,416.6h-3v-3h3V416.6z M72.9,405.7h-3v-3h3V405.7z M72.9,394.9h-3v-3h3V394.9z M72.9,384h-3v-3h3V384z
				 M72.9,373.2h-3v-3h3V373.2z"/>
		</g>
		<g>
			<rect x="69.9" y="359.4" class="st3" width="3" height="3"/>
		</g>
		<g>
			<path class="st3" d="M131.4,362.4h-3.2v-3h3.2V362.4z M84.6,362.4h-3.2v-3h3.2V362.4z"/>
		</g>
		<g>
			<rect x="139.9" y="359.4" class="st3" width="3" height="3"/>
		</g>
		<g>
			<path class="st3" d="M142.9,709.2h-3v-3h3V709.2z M142.9,698.4h-3v-3h3V698.4z M142.9,687.5h-3v-3h3V687.5z M142.9,676.7h-3v-3h3
				V676.7z M142.9,665.8h-3v-3h3V665.8z M142.9,655h-3v-3h3V655z M142.9,644.2h-3v-3h3V644.2z M142.9,633.3h-3v-3h3V633.3z
				 M142.9,622.5h-3v-3h3V622.5z M142.9,611.7h-3v-3h3V611.7z M142.9,600.8h-3v-3h3V600.8z M142.9,590h-3v-3h3V590z M142.9,579.1h-3
				v-3h3V579.1z M142.9,568.3h-3v-3h3V568.3z M142.9,557.5h-3v-3h3V557.5z M142.9,546.6h-3v-3h3V546.6z M142.9,535.8h-3v-3h3V535.8z
				 M142.9,524.9h-3v-3h3V524.9z M142.9,514.1h-3v-3h3V514.1z M142.9,503.3h-3v-3h3V503.3z M142.9,492.4h-3v-3h3V492.4z
				 M142.9,481.6h-3v-3h3V481.6z M142.9,470.8h-3v-3h3V470.8z M142.9,459.9h-3v-3h3V459.9z M142.9,449.1h-3v-3h3V449.1z
				 M142.9,438.2h-3v-3h3V438.2z M142.9,427.4h-3v-3h3V427.4z M142.9,416.6h-3v-3h3V416.6z M142.9,405.7h-3v-3h3V405.7z
				 M142.9,394.9h-3v-3h3V394.9z M142.9,384h-3v-3h3V384z M142.9,373.2h-3v-3h3V373.2z"/>
		</g>
	</g>
	<g>
		<g>
			<line class="st2" x1="151.4" y1="540.1" x2="174.6" y2="540.1"/>
			<g>
				<polygon class="st3" points="173.3,544.6 181.1,540.1 173.3,535.6 				"/>
			</g>
		</g>
	</g>
	<g>
		<g>
			<line class="st2" x1="303.3" y1="539.1" x2="264.9" y2="539.1"/>
			<g>
				<polygon class="st3" points="266.2,534.6 258.4,539.1 266.2,543.6 				"/>
			</g>
		</g>
	</g>
	<g>
		<g>
			<path class="st8" d="M149.1,553.2c-7.7,0-13.9-6.3-13.9-13.9s6.3-13.9,13.9-13.9c7.7,0,13.9,6.3,13.9,13.9
				S156.7,553.2,149.1,553.2z"/>
			<path class="st9" d="M149.1,526.6c7,0,12.7,5.7,12.7,12.7s-5.7,12.7-12.7,12.7s-12.7-5.7-12.7-12.7S142,526.6,149.1,526.6
				 M149.1,524.2c-8.3,0-15.1,6.8-15.1,15.1s6.8,15.1,15.1,15.1c8.3,0,15.1-6.8,15.1-15.1S157.4,524.2,149.1,524.2L149.1,524.2z"/>
		</g>
		<g>
			<path class="st9" d="M153.2,545.2h-8v-1.6l3.7-4c0.5-0.5,0.9-1,1.1-1.4c0.2-0.4,0.4-0.8,0.4-1.2c0-0.5-0.1-0.9-0.4-1.2
				c-0.2-0.3-0.6-0.4-1.1-0.4c-0.5,0-0.9,0.2-1.2,0.5s-0.4,0.8-0.4,1.4h-2.3c0-0.7,0.2-1.3,0.5-1.9c0.4-0.6,0.8-1,1.4-1.4
				c0.7-0.4,1.3-0.5,2.1-0.5c1.2,0,2.1,0.3,2.8,0.8c0.7,0.6,1,1.4,1,2.4c0,0.6-0.1,1.1-0.4,1.7c-0.3,0.6-0.8,1.3-1.5,2l-2.7,2.8h5
				v1.9H153.2z"/>
		</g>
	</g>
	<g>
		<g>
			<path class="st8" d="M106.4,353.7c-7.7,0-13.9-6.3-13.9-13.9s6.3-13.9,13.9-13.9s13.9,6.3,13.9,13.9S114.2,353.7,106.4,353.7z"/>
			<path class="st9" d="M106.4,327.1c7,0,12.7,5.7,12.7,12.7s-5.7,12.7-12.7,12.7c-7,0-12.7-5.7-12.7-12.7S99.4,327.1,106.4,327.1
				 M106.4,324.6c-8.3,0-15.1,6.8-15.1,15.1c0,8.3,6.8,15.1,15.1,15.1s15.1-6.8,15.1-15.1S114.8,324.6,106.4,324.6L106.4,324.6z"/>
		</g>
		<g>
			<path class="st9" d="M108.4,345.6h-2.3v-8.9l-2.8,0.8v-1.9l4.8-1.7h0.2V345.6z"/>
		</g>
	</g>
	<g>
		<rect x="181.1" y="477.8" class="st10" width="77.4" height="128.5"/>
		<g>
			<path class="st8" d="M222.1,546.3c-10.1-3.1-17.4-12.4-17.4-23.4c0-11.1,7.5-20.5,17.7-23.5c1.1-0.3,0.8-1-0.5-1
				c-13.6,0-24.7,11-24.7,24.5c0,13.5,11,24.4,24.7,24.4C223.1,547.4,223.2,546.7,222.1,546.3z"/>
			<path class="st8" d="M209.3,528.7c-0.1-0.6-0.1-1.3-0.1-2c0-10.7,8.7-19.4,19.4-19.4c10.1,0,13.2,4.5,13.6,4.2
				c0.4-0.3-3.7-9.3-15.6-9.3c-10.7,0-19.4,8.7-19.4,19.4c0,2.5,0.5,4.9,1.3,7C208.9,529.6,209.4,529.6,209.3,528.7z"/>
			<path class="st8" d="M217.5,514.7c5-2.2,11.4-2.3,17.6-0.1c4.2,1.5,6.6,3.5,6.8,3.5c0.3-0.1-2.4-4.5-7.4-6.4
				c-6.1-2.3-12.5-1.1-17.3,2.6C216.7,514.7,216.9,515,217.5,514.7z"/>
		</g>
		<text transform="matrix(1 0 0 1 187.5847 581.5662)"><tspan x="0" y="0" class="st8 st6 st11">Edge CDN &amp;</tspan><tspan x="10.7" y="13" class="st8 st6 st11">Security</tspan></text>
	</g>
	<g>
		<rect x="788.5" y="372.8" class="st12" width="221.6" height="74.5"/>
		<g>
			<g>
				<g>
					<line class="st2" x1="880.7" y1="393.9" x2="811.2" y2="393.9"/>
					<g>
						<polygon class="st3" points="879.4,389.4 887.1,393.9 879.4,398.4 						"/>
					</g>
					<g>
						<polygon class="st3" points="812.5,389.4 804.8,393.9 812.5,398.4 						"/>
					</g>
				</g>
			</g>
			<g>
				<g>
					<line class="st1" x1="880.7" y1="426.1" x2="811.2" y2="426.1"/>
					<g>
						<polygon class="st8" points="879.4,421.6 887.1,426.1 879.4,430.6 						"/>
					</g>
					<g>
						<polygon class="st8" points="812.5,421.6 804.8,426.1 812.5,430.6 						"/>
					</g>
				</g>
			</g>
			<text transform="matrix(1 0 0 1 904.7842 399.1864)" class="st0 st4 st13">HTTP Flow</text>
			<text transform="matrix(1 0 0 1 904.7842 431.3343)" class="st0 st4 st13">Log Flow</text>
		</g>
	</g>
	<g>
		<g>
			<line class="st2" x1="302.4" y1="501.8" x2="339.9" y2="501.8"/>
			<g>
				<polygon class="st3" points="338.6,506.3 346.4,501.8 338.6,497.3 				"/>
			</g>
		</g>
	</g>
	<polyline class="st1" points="585.4,693.3 772.3,693.3 772.3,661.9 	"/>
	<g>
		<g>
			<path class="st14" d="M618.3,376.6c-7.7,0-13.9-6.3-13.9-13.9c0-7.7,6.3-13.9,13.9-13.9c7.7,0,13.9,6.3,13.9,13.9
				C632.2,370.3,626,376.6,618.3,376.6z"/>
			<path class="st9" d="M618.3,350c7,0,12.7,5.7,12.7,12.7s-5.7,12.7-12.7,12.7c-7,0-12.7-5.7-12.7-12.7S611.2,350,618.3,350
				 M618.3,347.6c-8.3,0-15.1,6.8-15.1,15.1c0,8.3,6.8,15.1,15.1,15.1c8.3,0,15.1-6.8,15.1-15.1S626.6,347.6,618.3,347.6
				L618.3,347.6z"/>
		</g>
		<g>
			<path class="st9" d="M614.7,362.7l0.7-5.9h6.5v1.9h-4.6l-0.3,2.5c0.5-0.3,1.1-0.4,1.7-0.4c1.1,0,2,0.4,2.6,1c0.6,0.7,1,1.6,1,2.9
				c0,0.7-0.2,1.4-0.5,2c-0.3,0.6-0.8,1-1.4,1.4c-0.6,0.3-1.3,0.5-2.1,0.5c-0.7,0-1.3-0.1-1.9-0.4c-0.6-0.3-1.1-0.7-1.4-1.2
				c-0.4-0.5-0.5-1.1-0.5-1.7h2.3c0.1,0.5,0.2,0.8,0.5,1.1c0.3,0.2,0.7,0.4,1.1,0.4c0.5,0,0.9-0.2,1.2-0.5s0.4-0.9,0.4-1.6
				c0-0.7-0.2-1.1-0.5-1.5c-0.3-0.4-0.8-0.5-1.4-0.5c-0.5,0-1,0.1-1.3,0.4l-0.2,0.2L614.7,362.7z"/>
		</g>
	</g>
	<g>
		<rect x="346.4" y="313.3" class="st10" width="243.2" height="122"/>
		<g>
			<rect x="528.3" y="347.3" class="st15" width="29.4" height="30"/>
			<g>
				<path d="M548.7,353.9c-1.5-0.4-3.5-0.6-5.7-0.6s-4.1,0.2-5.7,0.6c-1.9,0.5-2.9,1.3-2.9,2.3v12.2c0,1,1,1.8,2.9,2.3
					c1.5,0.4,3.5,0.6,5.7,0.6c2.1,0,4.1-0.2,5.7-0.7c1.9-0.5,2.9-1.3,2.9-2.3v-12.2C551.6,355.2,550.6,354.4,548.7,353.9z
					 M550.7,368.4c0,1.2-3.4,2.1-7.7,2.1c-4.3,0-7.7-0.9-7.7-2.1v-4.9c0.4,0.2,0.8,0.3,1.3,0.5c1.7,0.5,4,0.7,6.4,0.7
					c2.4,0,4.6-0.3,6.3-0.7c0.5-0.2,0.9-0.3,1.3-0.5V368.4z M550.7,361.9c-0.8,0.5-3.3,1.4-7.7,1.4c-4.4,0-6.9-0.8-7.7-1.4v-5.7
					c0-1.2,3.4-2.1,7.7-2.1c4.3,0,7.7,0.9,7.7,2.1V361.9z"/>
				<path class="st16" d="M543,354.7c-4.7,0-7.2,1.1-7.2,1.6s2.5,1.7,7.2,1.7c4.6,0,7.2-1.1,7.2-1.6S547.7,354.7,543,354.7z"/>
				<circle class="st16" cx="548" cy="367.3" r="1"/>
				<circle class="st16" cx="548" cy="360.2" r="1"/>
			</g>
		</g>
		<g>
			<g>
				<g>
					<rect x="425.9" y="328.8" class="st15" width="29.4" height="30"/>
					<g>
						<rect x="435.7" y="338.7" class="st17" width="9.8" height="9.8"/>
						<path class="st17" d="M447,351.1h-12.9c-0.6,0-1.1-0.5-1.1-1.1v-12.9c0-0.6,0.5-1.1,1.1-1.1H447c0.6,0,1.1,0.5,1.1,1.1V350
							C448.1,350.6,447.6,351.1,447,351.1z"/>
						<g>
							<line class="st17" x1="434.9" y1="333.1" x2="434.9" y2="336.3"/>
							<line class="st17" x1="437.2" y1="333.1" x2="437.2" y2="336.3"/>
							<line class="st17" x1="439.5" y1="333.1" x2="439.5" y2="336.3"/>
							<line class="st17" x1="441.7" y1="333.1" x2="441.7" y2="336.3"/>
							<line class="st17" x1="444" y1="333.1" x2="444" y2="336.3"/>
							<line class="st17" x1="446.3" y1="333.1" x2="446.3" y2="336.3"/>
						</g>
						<g>
							<line class="st17" x1="434.9" y1="351.3" x2="434.9" y2="354.4"/>
							<line class="st17" x1="437.2" y1="351.3" x2="437.2" y2="354.4"/>
							<line class="st17" x1="439.5" y1="351.3" x2="439.5" y2="354.4"/>
							<line class="st17" x1="441.7" y1="351.3" x2="441.7" y2="354.4"/>
							<line class="st17" x1="444" y1="351.3" x2="444" y2="354.4"/>
							<line class="st17" x1="446.3" y1="351.3" x2="446.3" y2="354.4"/>
						</g>
						<g>
							<line class="st17" x1="429.9" y1="349.3" x2="433.1" y2="349.3"/>
							<line class="st17" x1="429.9" y1="347" x2="433.1" y2="347"/>
							<line class="st17" x1="429.9" y1="344.7" x2="433.1" y2="344.7"/>
							<line class="st17" x1="429.9" y1="342.4" x2="433.1" y2="342.4"/>
							<line class="st17" x1="429.9" y1="340.2" x2="433.1" y2="340.2"/>
							<line class="st17" x1="429.9" y1="337.9" x2="433.1" y2="337.9"/>
						</g>
						<g>
							<line class="st17" x1="448.1" y1="349.3" x2="451.2" y2="349.3"/>
							<line class="st17" x1="448.1" y1="347" x2="451.2" y2="347"/>
							<line class="st17" x1="448.1" y1="344.7" x2="451.2" y2="344.7"/>
							<line class="st17" x1="448.1" y1="342.4" x2="451.2" y2="342.4"/>
							<line class="st17" x1="448.1" y1="340.2" x2="451.2" y2="340.2"/>
							<line class="st17" x1="448.1" y1="337.9" x2="451.2" y2="337.9"/>
						</g>
					</g>
				</g>
				<g>
					<rect x="442.9" y="345.1" class="st15" width="29.4" height="30"/>
					<g>
						<rect x="452.7" y="355.1" class="st17" width="9.8" height="9.8"/>
						<path class="st17" d="M464,367.4h-12.9c-0.6,0-1.1-0.5-1.1-1.1v-12.9c0-0.6,0.5-1.1,1.1-1.1H464c0.6,0,1.1,0.5,1.1,1.1v12.9
							C465.1,367,464.6,367.4,464,367.4z"/>
						<g>
							<line class="st17" x1="451.9" y1="349.5" x2="451.9" y2="352.6"/>
							<line class="st17" x1="454.2" y1="349.5" x2="454.2" y2="352.6"/>
							<line class="st17" x1="456.4" y1="349.5" x2="456.4" y2="352.6"/>
							<line class="st17" x1="458.7" y1="349.5" x2="458.7" y2="352.6"/>
							<line class="st17" x1="461" y1="349.5" x2="461" y2="352.6"/>
							<line class="st17" x1="463.3" y1="349.5" x2="463.3" y2="352.6"/>
						</g>
						<g>
							<line class="st17" x1="451.9" y1="367.6" x2="451.9" y2="370.8"/>
							<line class="st17" x1="454.2" y1="367.6" x2="454.2" y2="370.8"/>
							<line class="st17" x1="456.4" y1="367.6" x2="456.4" y2="370.8"/>
							<line class="st17" x1="458.7" y1="367.6" x2="458.7" y2="370.8"/>
							<line class="st17" x1="461" y1="367.6" x2="461" y2="370.8"/>
							<line class="st17" x1="463.3" y1="367.6" x2="463.3" y2="370.8"/>
						</g>
						<g>
							<line class="st17" x1="446.9" y1="365.6" x2="450.1" y2="365.6"/>
							<line class="st17" x1="446.9" y1="363.4" x2="450.1" y2="363.4"/>
							<line class="st17" x1="446.9" y1="361.1" x2="450.1" y2="361.1"/>
							<line class="st17" x1="446.9" y1="358.8" x2="450.1" y2="358.8"/>
							<line class="st17" x1="446.9" y1="356.5" x2="450.1" y2="356.5"/>
							<line class="st17" x1="446.9" y1="354.2" x2="450.1" y2="354.2"/>
						</g>
						<g>
							<line class="st17" x1="465.1" y1="365.6" x2="468.2" y2="365.6"/>
							<line class="st17" x1="465.1" y1="363.4" x2="468.2" y2="363.4"/>
							<line class="st17" x1="465.1" y1="361.1" x2="468.2" y2="361.1"/>
							<line class="st17" x1="465.1" y1="358.8" x2="468.2" y2="358.8"/>
							<line class="st17" x1="465.1" y1="356.5" x2="468.2" y2="356.5"/>
							<line class="st17" x1="465.1" y1="354.2" x2="468.2" y2="354.2"/>
						</g>
					</g>
				</g>
				<g>
					<rect x="459.8" y="362.9" class="st15" width="29.4" height="30"/>
					<g>
						<rect x="469.7" y="372.8" class="st17" width="9.8" height="9.8"/>
						<path class="st17" d="M481,385.2h-12.9c-0.6,0-1.1-0.5-1.1-1.1v-12.9c0-0.6,0.5-1.1,1.1-1.1H481c0.6,0,1.1,0.5,1.1,1.1v12.9
							C482.1,384.8,481.6,385.2,481,385.2z"/>
						<g>
							<line class="st17" x1="468.9" y1="367.3" x2="468.9" y2="370.4"/>
							<line class="st17" x1="471.1" y1="367.3" x2="471.1" y2="370.4"/>
							<line class="st17" x1="473.4" y1="367.3" x2="473.4" y2="370.4"/>
							<line class="st17" x1="475.7" y1="367.3" x2="475.7" y2="370.4"/>
							<line class="st17" x1="478" y1="367.3" x2="478" y2="370.4"/>
							<line class="st17" x1="480.3" y1="367.3" x2="480.3" y2="370.4"/>
						</g>
						<g>
							<line class="st17" x1="468.9" y1="385.4" x2="468.9" y2="388.6"/>
							<line class="st17" x1="471.1" y1="385.4" x2="471.1" y2="388.6"/>
							<line class="st17" x1="473.4" y1="385.4" x2="473.4" y2="388.6"/>
							<line class="st17" x1="475.7" y1="385.4" x2="475.7" y2="388.6"/>
							<line class="st17" x1="478" y1="385.4" x2="478" y2="388.6"/>
							<line class="st17" x1="480.3" y1="385.4" x2="480.3" y2="388.6"/>
						</g>
						<g>
							<line class="st17" x1="463.9" y1="383.4" x2="467.1" y2="383.4"/>
							<line class="st17" x1="463.9" y1="381.2" x2="467.1" y2="381.2"/>
							<line class="st17" x1="463.9" y1="378.9" x2="467.1" y2="378.9"/>
							<line class="st17" x1="463.9" y1="376.6" x2="467.1" y2="376.6"/>
							<line class="st17" x1="463.9" y1="374.3" x2="467.1" y2="374.3"/>
							<line class="st17" x1="463.9" y1="372" x2="467.1" y2="372"/>
						</g>
						<g>
							<line class="st17" x1="482.1" y1="383.4" x2="485.2" y2="383.4"/>
							<line class="st17" x1="482.1" y1="381.2" x2="485.2" y2="381.2"/>
							<line class="st17" x1="482.1" y1="378.9" x2="485.2" y2="378.9"/>
							<line class="st17" x1="482.1" y1="376.6" x2="485.2" y2="376.6"/>
							<line class="st17" x1="482.1" y1="374.3" x2="485.2" y2="374.3"/>
							<line class="st17" x1="482.1" y1="372" x2="485.2" y2="372"/>
						</g>
					</g>
				</g>
			</g>
			<g>
				<g>
					<rect x="373.8" y="328.8" class="st15" width="29.4" height="30"/>
					<g>
						<rect x="383.6" y="338.7" class="st17" width="9.8" height="9.8"/>
						<path class="st17" d="M394.9,351.1h-12.9c-0.6,0-1.1-0.5-1.1-1.1v-12.9c0-0.6,0.5-1.1,1.1-1.1h12.9c0.6,0,1.1,0.5,1.1,1.1V350
							C396,350.6,395.5,351.1,394.9,351.1z"/>
						<g>
							<line class="st17" x1="382.8" y1="333.1" x2="382.8" y2="336.3"/>
							<line class="st17" x1="385.1" y1="333.1" x2="385.1" y2="336.3"/>
							<line class="st17" x1="387.4" y1="333.1" x2="387.4" y2="336.3"/>
							<line class="st17" x1="389.6" y1="333.1" x2="389.6" y2="336.3"/>
							<line class="st17" x1="391.9" y1="333.1" x2="391.9" y2="336.3"/>
							<line class="st17" x1="394.2" y1="333.1" x2="394.2" y2="336.3"/>
						</g>
						<g>
							<line class="st17" x1="382.8" y1="351.3" x2="382.8" y2="354.4"/>
							<line class="st17" x1="385.1" y1="351.3" x2="385.1" y2="354.4"/>
							<line class="st17" x1="387.4" y1="351.3" x2="387.4" y2="354.4"/>
							<line class="st17" x1="389.6" y1="351.3" x2="389.6" y2="354.4"/>
							<line class="st17" x1="391.9" y1="351.3" x2="391.9" y2="354.4"/>
							<line class="st17" x1="394.2" y1="351.3" x2="394.2" y2="354.4"/>
						</g>
						<g>
							<line class="st17" x1="377.8" y1="349.3" x2="381" y2="349.3"/>
							<line class="st17" x1="377.8" y1="347" x2="381" y2="347"/>
							<line class="st17" x1="377.8" y1="344.7" x2="381" y2="344.7"/>
							<line class="st17" x1="377.8" y1="342.4" x2="381" y2="342.4"/>
							<line class="st17" x1="377.8" y1="340.2" x2="381" y2="340.2"/>
							<line class="st17" x1="377.8" y1="337.9" x2="381" y2="337.9"/>
						</g>
						<g>
							<line class="st17" x1="396" y1="349.3" x2="399.1" y2="349.3"/>
							<line class="st17" x1="396" y1="347" x2="399.1" y2="347"/>
							<line class="st17" x1="396" y1="344.7" x2="399.1" y2="344.7"/>
							<line class="st17" x1="396" y1="342.4" x2="399.1" y2="342.4"/>
							<line class="st17" x1="396" y1="340.2" x2="399.1" y2="340.2"/>
							<line class="st17" x1="396" y1="337.9" x2="399.1" y2="337.9"/>
						</g>
					</g>
				</g>
				<g>
					<rect x="390.8" y="345.1" class="st15" width="29.4" height="30"/>
					<g>
						<rect x="400.6" y="355.1" class="st17" width="9.8" height="9.8"/>
						<path class="st17" d="M411.9,367.4H399c-0.6,0-1.1-0.5-1.1-1.1v-12.9c0-0.6,0.5-1.1,1.1-1.1h12.9c0.6,0,1.1,0.5,1.1,1.1v12.9
							C413,367,412.5,367.4,411.9,367.4z"/>
						<g>
							<line class="st17" x1="399.8" y1="349.5" x2="399.8" y2="352.6"/>
							<line class="st17" x1="402.1" y1="349.5" x2="402.1" y2="352.6"/>
							<line class="st17" x1="404.3" y1="349.5" x2="404.3" y2="352.6"/>
							<line class="st17" x1="406.6" y1="349.5" x2="406.6" y2="352.6"/>
							<line class="st17" x1="408.9" y1="349.5" x2="408.9" y2="352.6"/>
							<line class="st17" x1="411.2" y1="349.5" x2="411.2" y2="352.6"/>
						</g>
						<g>
							<line class="st17" x1="399.8" y1="367.6" x2="399.8" y2="370.8"/>
							<line class="st17" x1="402.1" y1="367.6" x2="402.1" y2="370.8"/>
							<line class="st17" x1="404.3" y1="367.6" x2="404.3" y2="370.8"/>
							<line class="st17" x1="406.6" y1="367.6" x2="406.6" y2="370.8"/>
							<line class="st17" x1="408.9" y1="367.6" x2="408.9" y2="370.8"/>
							<line class="st17" x1="411.2" y1="367.6" x2="411.2" y2="370.8"/>
						</g>
						<g>
							<line class="st17" x1="394.8" y1="365.6" x2="398" y2="365.6"/>
							<line class="st17" x1="394.8" y1="363.4" x2="398" y2="363.4"/>
							<line class="st17" x1="394.8" y1="361.1" x2="398" y2="361.1"/>
							<line class="st17" x1="394.8" y1="358.8" x2="398" y2="358.8"/>
							<line class="st17" x1="394.8" y1="356.5" x2="398" y2="356.5"/>
							<line class="st17" x1="394.8" y1="354.2" x2="398" y2="354.2"/>
						</g>
						<g>
							<line class="st17" x1="413" y1="365.6" x2="416.1" y2="365.6"/>
							<line class="st17" x1="413" y1="363.4" x2="416.1" y2="363.4"/>
							<line class="st17" x1="413" y1="361.1" x2="416.1" y2="361.1"/>
							<line class="st17" x1="413" y1="358.8" x2="416.1" y2="358.8"/>
							<line class="st17" x1="413" y1="356.5" x2="416.1" y2="356.5"/>
							<line class="st17" x1="413" y1="354.2" x2="416.1" y2="354.2"/>
						</g>
					</g>
				</g>
				<g>
					<rect x="407.7" y="362.9" class="st15" width="29.4" height="30"/>
					<g>
						<rect x="417.6" y="372.8" class="st17" width="9.8" height="9.8"/>
						<path class="st17" d="M428.9,385.2H416c-0.6,0-1.1-0.5-1.1-1.1v-12.9c0-0.6,0.5-1.1,1.1-1.1h12.9c0.6,0,1.1,0.5,1.1,1.1v12.9
							C430,384.8,429.5,385.2,428.9,385.2z"/>
						<g>
							<line class="st17" x1="416.8" y1="367.3" x2="416.8" y2="370.4"/>
							<line class="st17" x1="419" y1="367.3" x2="419" y2="370.4"/>
							<line class="st17" x1="421.3" y1="367.3" x2="421.3" y2="370.4"/>
							<line class="st17" x1="423.6" y1="367.3" x2="423.6" y2="370.4"/>
							<line class="st17" x1="425.9" y1="367.3" x2="425.9" y2="370.4"/>
							<line class="st17" x1="428.2" y1="367.3" x2="428.2" y2="370.4"/>
						</g>
						<g>
							<line class="st17" x1="416.8" y1="385.4" x2="416.8" y2="388.6"/>
							<line class="st17" x1="419" y1="385.4" x2="419" y2="388.6"/>
							<line class="st17" x1="421.3" y1="385.4" x2="421.3" y2="388.6"/>
							<line class="st17" x1="423.6" y1="385.4" x2="423.6" y2="388.6"/>
							<line class="st17" x1="425.9" y1="385.4" x2="425.9" y2="388.6"/>
							<line class="st17" x1="428.2" y1="385.4" x2="428.2" y2="388.6"/>
						</g>
						<g>
							<line class="st17" x1="411.8" y1="383.4" x2="415" y2="383.4"/>
							<line class="st17" x1="411.8" y1="381.2" x2="415" y2="381.2"/>
							<line class="st17" x1="411.8" y1="378.9" x2="415" y2="378.9"/>
							<line class="st17" x1="411.8" y1="376.6" x2="415" y2="376.6"/>
							<line class="st17" x1="411.8" y1="374.3" x2="415" y2="374.3"/>
							<line class="st17" x1="411.8" y1="372" x2="415" y2="372"/>
						</g>
						<g>
							<line class="st17" x1="430" y1="383.4" x2="433.1" y2="383.4"/>
							<line class="st17" x1="430" y1="381.2" x2="433.1" y2="381.2"/>
							<line class="st17" x1="430" y1="378.9" x2="433.1" y2="378.9"/>
							<line class="st17" x1="430" y1="376.6" x2="433.1" y2="376.6"/>
							<line class="st17" x1="430" y1="374.3" x2="433.1" y2="374.3"/>
							<line class="st17" x1="430" y1="372" x2="433.1" y2="372"/>
						</g>
					</g>
				</g>
			</g>
		</g>
		<text transform="matrix(1 0 0 1 445.5563 426.4038)" class="st14 st4 st5">Region 1</text>
		<text transform="matrix(1 0 0 1 399.8271 408.0289)" class="st0 st6 st5">SaaS Cluster</text>
		<text transform="matrix(1 0 0 1 518.196 390.5685)" class="st18"><tspan x="0" y="0" class="st0 st6 st5">Local Log</tspan><tspan x="-3.7" y="13" class="st0 st6 st5">Processing</tspan></text>
		<g>
			<g>
				<rect x="501.8" y="403.3" class="st3" width="3" height="3"/>
			</g>
			<g>
				<path class="st3" d="M493.8,406.3h-3v-3h3V406.3z M482.8,406.3h-3v-3h3V406.3z M471.7,406.3h-3v-3h3V406.3z M394.4,406.3h-3v-3
					h3V406.3z M383.3,406.3h-3v-3h3V406.3z M372.3,406.3h-3v-3h3V406.3z"/>
			</g>
			<g>
				<rect x="358.2" y="403.3" class="st3" width="3" height="3"/>
			</g>
			<g>
				<path class="st3" d="M361.2,395.7h-3v-2.8h3V395.7z M361.2,385.3h-3v-2.8h3V385.3z M361.2,374.9h-3v-2.8h3V374.9z M361.2,364.6
					h-3v-2.8h3V364.6z M361.2,354.2h-3v-2.8h3V354.2z M361.2,343.8h-3v-2.8h3V343.8z M361.2,333.4h-3v-2.8h3V333.4z"/>
			</g>
			<g>
				<rect x="358.2" y="320" class="st3" width="3" height="3"/>
			</g>
			<g>
				<path class="st3" d="M493.8,323h-3v-3h3V323z M482.8,323h-3v-3h3V323z M471.7,323h-3v-3h3V323z M460.7,323h-3v-3h3V323z
					 M449.6,323h-3v-3h3V323z M438.6,323h-3v-3h3V323z M427.5,323h-3v-3h3V323z M416.5,323h-3v-3h3V323z M405.4,323h-3v-3h3V323z
					 M394.4,323h-3v-3h3V323z M383.3,323h-3v-3h3V323z M372.3,323h-3v-3h3V323z"/>
			</g>
			<g>
				<rect x="501.8" y="320" class="st3" width="3" height="3"/>
			</g>
			<g>
				<path class="st3" d="M504.8,395.7h-3v-2.8h3V395.7z M504.8,385.3h-3v-2.8h3V385.3z M504.8,374.9h-3v-2.8h3V374.9z M504.8,364.6
					h-3v-2.8h3V364.6z M504.8,354.2h-3v-2.8h3V354.2z M504.8,343.8h-3v-2.8h3V343.8z M504.8,333.4h-3v-2.8h3V333.4z"/>
			</g>
		</g>
	</g>
	<g>
		<rect x="346.4" y="644.7" class="st10" width="243.2" height="122"/>
		<g>
			<rect x="528.3" y="678.7" class="st15" width="29.4" height="30"/>
			<g>
				<path d="M548.7,685.3c-1.5-0.4-3.5-0.6-5.7-0.6s-4.1,0.2-5.7,0.6c-1.9,0.5-2.9,1.3-2.9,2.3v12.2c0,1,1,1.8,2.9,2.3
					c1.5,0.4,3.5,0.6,5.7,0.6c2.1,0,4.1-0.2,5.7-0.7c1.9-0.5,2.9-1.3,2.9-2.3v-12.2C551.6,686.6,550.6,685.8,548.7,685.3z
					 M550.7,699.8c0,1.2-3.4,2.1-7.7,2.1c-4.3,0-7.7-0.9-7.7-2.1v-4.9c0.4,0.2,0.8,0.3,1.3,0.5c1.7,0.5,4,0.7,6.4,0.7
					c2.4,0,4.6-0.3,6.3-0.7c0.5-0.2,0.9-0.3,1.3-0.5V699.8z M550.7,693.3c-0.8,0.5-3.3,1.4-7.7,1.4c-4.4,0-6.9-0.8-7.7-1.4v-5.7
					c0-1.2,3.4-2.1,7.7-2.1c4.3,0,7.7,0.9,7.7,2.1V693.3z"/>
				<path class="st16" d="M543,686.1c-4.7,0-7.2,1.1-7.2,1.6c0,0.6,2.5,1.7,7.2,1.7c4.6,0,7.2-1.1,7.2-1.6
					C550.2,687.2,547.7,686.1,543,686.1z"/>
				<circle class="st16" cx="548" cy="698.7" r="1"/>
				<circle class="st16" cx="548" cy="691.6" r="1"/>
			</g>
		</g>
		<g>
			<g>
				<g>
					<rect x="425.9" y="660.2" class="st15" width="29.4" height="30"/>
					<g>
						<rect x="435.7" y="670.1" class="st17" width="9.8" height="9.8"/>
						<path class="st17" d="M447,682.5h-12.9c-0.6,0-1.1-0.5-1.1-1.1v-12.9c0-0.6,0.5-1.1,1.1-1.1H447c0.6,0,1.1,0.5,1.1,1.1v12.9
							C448.1,682,447.6,682.5,447,682.5z"/>
						<g>
							<line class="st17" x1="434.9" y1="664.5" x2="434.9" y2="667.7"/>
							<line class="st17" x1="437.2" y1="664.5" x2="437.2" y2="667.7"/>
							<line class="st17" x1="439.5" y1="664.5" x2="439.5" y2="667.7"/>
							<line class="st17" x1="441.7" y1="664.5" x2="441.7" y2="667.7"/>
							<line class="st17" x1="444" y1="664.5" x2="444" y2="667.7"/>
							<line class="st17" x1="446.3" y1="664.5" x2="446.3" y2="667.7"/>
						</g>
						<g>
							<line class="st17" x1="434.9" y1="682.7" x2="434.9" y2="685.8"/>
							<line class="st17" x1="437.2" y1="682.7" x2="437.2" y2="685.8"/>
							<line class="st17" x1="439.5" y1="682.7" x2="439.5" y2="685.8"/>
							<line class="st17" x1="441.7" y1="682.7" x2="441.7" y2="685.8"/>
							<line class="st17" x1="444" y1="682.7" x2="444" y2="685.8"/>
							<line class="st17" x1="446.3" y1="682.7" x2="446.3" y2="685.8"/>
						</g>
						<g>
							<line class="st17" x1="429.9" y1="680.7" x2="433.1" y2="680.7"/>
							<line class="st17" x1="429.9" y1="678.4" x2="433.1" y2="678.4"/>
							<line class="st17" x1="429.9" y1="676.1" x2="433.1" y2="676.1"/>
							<line class="st17" x1="429.9" y1="673.8" x2="433.1" y2="673.8"/>
							<line class="st17" x1="429.9" y1="671.6" x2="433.1" y2="671.6"/>
							<line class="st17" x1="429.9" y1="669.3" x2="433.1" y2="669.3"/>
						</g>
						<g>
							<line class="st17" x1="448.1" y1="680.7" x2="451.2" y2="680.7"/>
							<line class="st17" x1="448.1" y1="678.4" x2="451.2" y2="678.4"/>
							<line class="st17" x1="448.1" y1="676.1" x2="451.2" y2="676.1"/>
							<line class="st17" x1="448.1" y1="673.8" x2="451.2" y2="673.8"/>
							<line class="st17" x1="448.1" y1="671.6" x2="451.2" y2="671.6"/>
							<line class="st17" x1="448.1" y1="669.3" x2="451.2" y2="669.3"/>
						</g>
					</g>
				</g>
				<g>
					<rect x="442.9" y="676.5" class="st15" width="29.4" height="30"/>
					<g>
						<rect x="452.7" y="686.4" class="st17" width="9.8" height="9.8"/>
						<path class="st17" d="M464,698.8h-12.9c-0.6,0-1.1-0.5-1.1-1.1v-12.9c0-0.6,0.5-1.1,1.1-1.1H464c0.6,0,1.1,0.5,1.1,1.1v12.9
							C465.1,698.4,464.6,698.8,464,698.8z"/>
						<g>
							<line class="st17" x1="451.9" y1="680.9" x2="451.9" y2="684"/>
							<line class="st17" x1="454.2" y1="680.9" x2="454.2" y2="684"/>
							<line class="st17" x1="456.4" y1="680.9" x2="456.4" y2="684"/>
							<line class="st17" x1="458.7" y1="680.9" x2="458.7" y2="684"/>
							<line class="st17" x1="461" y1="680.9" x2="461" y2="684"/>
							<line class="st17" x1="463.3" y1="680.9" x2="463.3" y2="684"/>
						</g>
						<g>
							<line class="st17" x1="451.9" y1="699" x2="451.9" y2="702.2"/>
							<line class="st17" x1="454.2" y1="699" x2="454.2" y2="702.2"/>
							<line class="st17" x1="456.4" y1="699" x2="456.4" y2="702.2"/>
							<line class="st17" x1="458.7" y1="699" x2="458.7" y2="702.2"/>
							<line class="st17" x1="461" y1="699" x2="461" y2="702.2"/>
							<line class="st17" x1="463.3" y1="699" x2="463.3" y2="702.2"/>
						</g>
						<g>
							<line class="st17" x1="446.9" y1="697" x2="450.1" y2="697"/>
							<line class="st17" x1="446.9" y1="694.8" x2="450.1" y2="694.8"/>
							<line class="st17" x1="446.9" y1="692.5" x2="450.1" y2="692.5"/>
							<line class="st17" x1="446.9" y1="690.2" x2="450.1" y2="690.2"/>
							<line class="st17" x1="446.9" y1="687.9" x2="450.1" y2="687.9"/>
							<line class="st17" x1="446.9" y1="685.6" x2="450.1" y2="685.6"/>
						</g>
						<g>
							<line class="st17" x1="465.1" y1="697" x2="468.2" y2="697"/>
							<line class="st17" x1="465.1" y1="694.8" x2="468.2" y2="694.8"/>
							<line class="st17" x1="465.1" y1="692.5" x2="468.2" y2="692.5"/>
							<line class="st17" x1="465.1" y1="690.2" x2="468.2" y2="690.2"/>
							<line class="st17" x1="465.1" y1="687.9" x2="468.2" y2="687.9"/>
							<line class="st17" x1="465.1" y1="685.6" x2="468.2" y2="685.6"/>
						</g>
					</g>
				</g>
				<g>
					<rect x="459.8" y="694.3" class="st15" width="29.4" height="30"/>
					<g>
						<rect x="469.7" y="704.2" class="st17" width="9.8" height="9.8"/>
						<path class="st17" d="M481,716.6h-12.9c-0.6,0-1.1-0.5-1.1-1.1v-12.9c0-0.6,0.5-1.1,1.1-1.1H481c0.6,0,1.1,0.5,1.1,1.1v12.9
							C482.1,716.1,481.6,716.6,481,716.6z"/>
						<g>
							<line class="st17" x1="468.9" y1="698.7" x2="468.9" y2="701.8"/>
							<line class="st17" x1="471.1" y1="698.7" x2="471.1" y2="701.8"/>
							<line class="st17" x1="473.4" y1="698.7" x2="473.4" y2="701.8"/>
							<line class="st17" x1="475.7" y1="698.7" x2="475.7" y2="701.8"/>
							<line class="st17" x1="478" y1="698.7" x2="478" y2="701.8"/>
							<line class="st17" x1="480.3" y1="698.7" x2="480.3" y2="701.8"/>
						</g>
						<g>
							<line class="st17" x1="468.9" y1="716.8" x2="468.9" y2="720"/>
							<line class="st17" x1="471.1" y1="716.8" x2="471.1" y2="720"/>
							<line class="st17" x1="473.4" y1="716.8" x2="473.4" y2="720"/>
							<line class="st17" x1="475.7" y1="716.8" x2="475.7" y2="720"/>
							<line class="st17" x1="478" y1="716.8" x2="478" y2="720"/>
							<line class="st17" x1="480.3" y1="716.8" x2="480.3" y2="720"/>
						</g>
						<g>
							<line class="st17" x1="463.9" y1="714.8" x2="467.1" y2="714.8"/>
							<line class="st17" x1="463.9" y1="712.5" x2="467.1" y2="712.5"/>
							<line class="st17" x1="463.9" y1="710.3" x2="467.1" y2="710.3"/>
							<line class="st17" x1="463.9" y1="708" x2="467.1" y2="708"/>
							<line class="st17" x1="463.9" y1="705.7" x2="467.1" y2="705.7"/>
							<line class="st17" x1="463.9" y1="703.4" x2="467.1" y2="703.4"/>
						</g>
						<g>
							<line class="st17" x1="482.1" y1="714.8" x2="485.2" y2="714.8"/>
							<line class="st17" x1="482.1" y1="712.5" x2="485.2" y2="712.5"/>
							<line class="st17" x1="482.1" y1="710.3" x2="485.2" y2="710.3"/>
							<line class="st17" x1="482.1" y1="708" x2="485.2" y2="708"/>
							<line class="st17" x1="482.1" y1="705.7" x2="485.2" y2="705.7"/>
							<line class="st17" x1="482.1" y1="703.4" x2="485.2" y2="703.4"/>
						</g>
					</g>
				</g>
			</g>
			<g>
				<g>
					<rect x="373.8" y="660.2" class="st15" width="29.4" height="30"/>
					<g>
						<rect x="383.6" y="670.1" class="st17" width="9.8" height="9.8"/>
						<path class="st17" d="M394.9,682.5h-12.9c-0.6,0-1.1-0.5-1.1-1.1v-12.9c0-0.6,0.5-1.1,1.1-1.1h12.9c0.6,0,1.1,0.5,1.1,1.1
							v12.9C396,682,395.5,682.5,394.9,682.5z"/>
						<g>
							<line class="st17" x1="382.8" y1="664.5" x2="382.8" y2="667.7"/>
							<line class="st17" x1="385.1" y1="664.5" x2="385.1" y2="667.7"/>
							<line class="st17" x1="387.4" y1="664.5" x2="387.4" y2="667.7"/>
							<line class="st17" x1="389.6" y1="664.5" x2="389.6" y2="667.7"/>
							<line class="st17" x1="391.9" y1="664.5" x2="391.9" y2="667.7"/>
							<line class="st17" x1="394.2" y1="664.5" x2="394.2" y2="667.7"/>
						</g>
						<g>
							<line class="st17" x1="382.8" y1="682.7" x2="382.8" y2="685.8"/>
							<line class="st17" x1="385.1" y1="682.7" x2="385.1" y2="685.8"/>
							<line class="st17" x1="387.4" y1="682.7" x2="387.4" y2="685.8"/>
							<line class="st17" x1="389.6" y1="682.7" x2="389.6" y2="685.8"/>
							<line class="st17" x1="391.9" y1="682.7" x2="391.9" y2="685.8"/>
							<line class="st17" x1="394.2" y1="682.7" x2="394.2" y2="685.8"/>
						</g>
						<g>
							<line class="st17" x1="377.8" y1="680.7" x2="381" y2="680.7"/>
							<line class="st17" x1="377.8" y1="678.4" x2="381" y2="678.4"/>
							<line class="st17" x1="377.8" y1="676.1" x2="381" y2="676.1"/>
							<line class="st17" x1="377.8" y1="673.8" x2="381" y2="673.8"/>
							<line class="st17" x1="377.8" y1="671.6" x2="381" y2="671.6"/>
							<line class="st17" x1="377.8" y1="669.3" x2="381" y2="669.3"/>
						</g>
						<g>
							<line class="st17" x1="396" y1="680.7" x2="399.1" y2="680.7"/>
							<line class="st17" x1="396" y1="678.4" x2="399.1" y2="678.4"/>
							<line class="st17" x1="396" y1="676.1" x2="399.1" y2="676.1"/>
							<line class="st17" x1="396" y1="673.8" x2="399.1" y2="673.8"/>
							<line class="st17" x1="396" y1="671.6" x2="399.1" y2="671.6"/>
							<line class="st17" x1="396" y1="669.3" x2="399.1" y2="669.3"/>
						</g>
					</g>
				</g>
				<g>
					<rect x="390.8" y="676.5" class="st15" width="29.4" height="30"/>
					<g>
						<rect x="400.6" y="686.4" class="st17" width="9.8" height="9.8"/>
						<path class="st17" d="M411.9,698.8H399c-0.6,0-1.1-0.5-1.1-1.1v-12.9c0-0.6,0.5-1.1,1.1-1.1h12.9c0.6,0,1.1,0.5,1.1,1.1v12.9
							C413,698.4,412.5,698.8,411.9,698.8z"/>
						<g>
							<line class="st17" x1="399.8" y1="680.9" x2="399.8" y2="684"/>
							<line class="st17" x1="402.1" y1="680.9" x2="402.1" y2="684"/>
							<line class="st17" x1="404.3" y1="680.9" x2="404.3" y2="684"/>
							<line class="st17" x1="406.6" y1="680.9" x2="406.6" y2="684"/>
							<line class="st17" x1="408.9" y1="680.9" x2="408.9" y2="684"/>
							<line class="st17" x1="411.2" y1="680.9" x2="411.2" y2="684"/>
						</g>
						<g>
							<line class="st17" x1="399.8" y1="699" x2="399.8" y2="702.2"/>
							<line class="st17" x1="402.1" y1="699" x2="402.1" y2="702.2"/>
							<line class="st17" x1="404.3" y1="699" x2="404.3" y2="702.2"/>
							<line class="st17" x1="406.6" y1="699" x2="406.6" y2="702.2"/>
							<line class="st17" x1="408.9" y1="699" x2="408.9" y2="702.2"/>
							<line class="st17" x1="411.2" y1="699" x2="411.2" y2="702.2"/>
						</g>
						<g>
							<line class="st17" x1="394.8" y1="697" x2="398" y2="697"/>
							<line class="st17" x1="394.8" y1="694.8" x2="398" y2="694.8"/>
							<line class="st17" x1="394.8" y1="692.5" x2="398" y2="692.5"/>
							<line class="st17" x1="394.8" y1="690.2" x2="398" y2="690.2"/>
							<line class="st17" x1="394.8" y1="687.9" x2="398" y2="687.9"/>
							<line class="st17" x1="394.8" y1="685.6" x2="398" y2="685.6"/>
						</g>
						<g>
							<line class="st17" x1="413" y1="697" x2="416.1" y2="697"/>
							<line class="st17" x1="413" y1="694.8" x2="416.1" y2="694.8"/>
							<line class="st17" x1="413" y1="692.5" x2="416.1" y2="692.5"/>
							<line class="st17" x1="413" y1="690.2" x2="416.1" y2="690.2"/>
							<line class="st17" x1="413" y1="687.9" x2="416.1" y2="687.9"/>
							<line class="st17" x1="413" y1="685.6" x2="416.1" y2="685.6"/>
						</g>
					</g>
				</g>
				<g>
					<rect x="407.7" y="694.3" class="st15" width="29.4" height="30"/>
					<g>
						<rect x="417.6" y="704.2" class="st17" width="9.8" height="9.8"/>
						<path class="st17" d="M428.9,716.6H416c-0.6,0-1.1-0.5-1.1-1.1v-12.9c0-0.6,0.5-1.1,1.1-1.1h12.9c0.6,0,1.1,0.5,1.1,1.1v12.9
							C430,716.1,429.5,716.6,428.9,716.6z"/>
						<g>
							<line class="st17" x1="416.8" y1="698.7" x2="416.8" y2="701.8"/>
							<line class="st17" x1="419" y1="698.7" x2="419" y2="701.8"/>
							<line class="st17" x1="421.3" y1="698.7" x2="421.3" y2="701.8"/>
							<line class="st17" x1="423.6" y1="698.7" x2="423.6" y2="701.8"/>
							<line class="st17" x1="425.9" y1="698.7" x2="425.9" y2="701.8"/>
							<line class="st17" x1="428.2" y1="698.7" x2="428.2" y2="701.8"/>
						</g>
						<g>
							<line class="st17" x1="416.8" y1="716.8" x2="416.8" y2="720"/>
							<line class="st17" x1="419" y1="716.8" x2="419" y2="720"/>
							<line class="st17" x1="421.3" y1="716.8" x2="421.3" y2="720"/>
							<line class="st17" x1="423.6" y1="716.8" x2="423.6" y2="720"/>
							<line class="st17" x1="425.9" y1="716.8" x2="425.9" y2="720"/>
							<line class="st17" x1="428.2" y1="716.8" x2="428.2" y2="720"/>
						</g>
						<g>
							<line class="st17" x1="411.8" y1="714.8" x2="415" y2="714.8"/>
							<line class="st17" x1="411.8" y1="712.5" x2="415" y2="712.5"/>
							<line class="st17" x1="411.8" y1="710.3" x2="415" y2="710.3"/>
							<line class="st17" x1="411.8" y1="708" x2="415" y2="708"/>
							<line class="st17" x1="411.8" y1="705.7" x2="415" y2="705.7"/>
							<line class="st17" x1="411.8" y1="703.4" x2="415" y2="703.4"/>
						</g>
						<g>
							<line class="st17" x1="430" y1="714.8" x2="433.1" y2="714.8"/>
							<line class="st17" x1="430" y1="712.5" x2="433.1" y2="712.5"/>
							<line class="st17" x1="430" y1="710.3" x2="433.1" y2="710.3"/>
							<line class="st17" x1="430" y1="708" x2="433.1" y2="708"/>
							<line class="st17" x1="430" y1="705.7" x2="433.1" y2="705.7"/>
							<line class="st17" x1="430" y1="703.4" x2="433.1" y2="703.4"/>
						</g>
					</g>
				</g>
			</g>
		</g>
		<text transform="matrix(1 0 0 1 445.5563 757.7994)" class="st14 st4 st5">Region X</text>
		<text transform="matrix(1 0 0 1 399.8271 739.4244)" class="st0 st6 st5">SaaS Cluster</text>
		<text transform="matrix(1 0 0 1 518.196 721.964)" class="st18"><tspan x="0" y="0" class="st0 st6 st5">Local Log</tspan><tspan x="-3.7" y="13" class="st0 st6 st5">Processing</tspan></text>
		<g>
			<g>
				<rect x="501.8" y="734.7" class="st3" width="3" height="3"/>
			</g>
			<g>
				<path class="st3" d="M493.8,737.7h-3v-3h3V737.7z M482.8,737.7h-3v-3h3V737.7z M471.7,737.7h-3v-3h3V737.7z M394.4,737.7h-3v-3
					h3V737.7z M383.3,737.7h-3v-3h3V737.7z M372.3,737.7h-3v-3h3V737.7z"/>
			</g>
			<g>
				<rect x="358.2" y="734.7" class="st3" width="3" height="3"/>
			</g>
			<g>
				<path class="st3" d="M361.2,727.1h-3v-2.8h3V727.1z M361.2,716.7h-3v-2.8h3V716.7z M361.2,706.3h-3v-2.8h3V706.3z M361.2,696h-3
					v-2.8h3V696z M361.2,685.6h-3v-2.8h3V685.6z M361.2,675.2h-3v-2.8h3V675.2z M361.2,664.8h-3v-2.8h3V664.8z"/>
			</g>
			<g>
				<rect x="358.2" y="651.4" class="st3" width="3" height="3"/>
			</g>
			<g>
				<path class="st3" d="M493.8,654.4h-3v-3h3V654.4z M482.8,654.4h-3v-3h3V654.4z M471.7,654.4h-3v-3h3V654.4z M460.7,654.4h-3v-3
					h3V654.4z M449.6,654.4h-3v-3h3V654.4z M438.6,654.4h-3v-3h3V654.4z M427.5,654.4h-3v-3h3V654.4z M416.5,654.4h-3v-3h3V654.4z
					 M405.4,654.4h-3v-3h3V654.4z M394.4,654.4h-3v-3h3V654.4z M383.3,654.4h-3v-3h3V654.4z M372.3,654.4h-3v-3h3V654.4z"/>
			</g>
			<g>
				<rect x="501.8" y="651.4" class="st3" width="3" height="3"/>
			</g>
			<g>
				<path class="st3" d="M504.8,727.1h-3v-2.8h3V727.1z M504.8,716.7h-3v-2.8h3V716.7z M504.8,706.3h-3v-2.8h3V706.3z M504.8,696h-3
					v-2.8h3V696z M504.8,685.6h-3v-2.8h3V685.6z M504.8,675.2h-3v-2.8h3V675.2z M504.8,664.8h-3v-2.8h3V664.8z"/>
			</g>
		</g>
	</g>
	<g>
		<g>
			<path class="st14" d="M772.1,508.7c-7.7,0-13.9-6.3-13.9-13.9s6.3-13.9,13.9-13.9s13.9,6.3,13.9,13.9S779.8,508.7,772.1,508.7z"
				/>
			<path class="st9" d="M772.1,482.1c7,0,12.7,5.7,12.7,12.7s-5.7,12.7-12.7,12.7s-12.7-5.7-12.7-12.7S765.1,482.1,772.1,482.1
				 M772.1,479.7c-8.3,0-15.1,6.8-15.1,15.1c0,8.3,6.8,15.1,15.1,15.1s15.1-6.8,15.1-15.1C787.2,486.5,780.4,479.7,772.1,479.7
				L772.1,479.7z"/>
		</g>
		<g>
			<path class="st9" d="M774.4,496.2h1.3v1.9h-1.3v2.5h-2.3v-2.5h-4.8l-0.1-1.4l4.8-7.7h2.4V496.2z M769.6,496.2h2.6v-4.1l-0.2,0.2
				L769.6,496.2z"/>
		</g>
	</g>
	<g>
		<rect x="703.7" y="513.5" class="st10" width="138.9" height="138.9"/>
		<g>
			<g>
				<g>
					<rect x="741.4" y="537.2" class="st15" width="29.4" height="30"/>
					<g>
						<rect x="751.3" y="547.1" class="st17" width="9.8" height="9.8"/>
						<path class="st17" d="M762.6,559.5h-12.9c-0.6,0-1.1-0.5-1.1-1.1v-12.9c0-0.6,0.5-1.1,1.1-1.1h12.9c0.6,0,1.1,0.5,1.1,1.1
							v12.9C763.6,559.1,763.2,559.5,762.6,559.5z"/>
						<g>
							<line class="st17" x1="750.4" y1="541.6" x2="750.4" y2="544.7"/>
							<line class="st17" x1="752.7" y1="541.6" x2="752.7" y2="544.7"/>
							<line class="st17" x1="755" y1="541.6" x2="755" y2="544.7"/>
							<line class="st17" x1="757.3" y1="541.6" x2="757.3" y2="544.7"/>
							<line class="st17" x1="759.6" y1="541.6" x2="759.6" y2="544.7"/>
							<line class="st17" x1="761.8" y1="541.6" x2="761.8" y2="544.7"/>
						</g>
						<g>
							<line class="st17" x1="750.4" y1="559.7" x2="750.4" y2="562.9"/>
							<line class="st17" x1="752.7" y1="559.7" x2="752.7" y2="562.9"/>
							<line class="st17" x1="755" y1="559.7" x2="755" y2="562.9"/>
							<line class="st17" x1="757.3" y1="559.7" x2="757.3" y2="562.9"/>
							<line class="st17" x1="759.6" y1="559.7" x2="759.6" y2="562.9"/>
							<line class="st17" x1="761.8" y1="559.7" x2="761.8" y2="562.9"/>
						</g>
						<g>
							<line class="st17" x1="745.5" y1="557.7" x2="748.6" y2="557.7"/>
							<line class="st17" x1="745.5" y1="555.5" x2="748.6" y2="555.5"/>
							<line class="st17" x1="745.5" y1="553.2" x2="748.6" y2="553.2"/>
							<line class="st17" x1="745.5" y1="550.9" x2="748.6" y2="550.9"/>
							<line class="st17" x1="745.5" y1="548.6" x2="748.6" y2="548.6"/>
							<line class="st17" x1="745.5" y1="546.3" x2="748.6" y2="546.3"/>
						</g>
						<g>
							<line class="st17" x1="763.6" y1="557.7" x2="766.8" y2="557.7"/>
							<line class="st17" x1="763.6" y1="555.5" x2="766.8" y2="555.5"/>
							<line class="st17" x1="763.6" y1="553.2" x2="766.8" y2="553.2"/>
							<line class="st17" x1="763.6" y1="550.9" x2="766.8" y2="550.9"/>
							<line class="st17" x1="763.6" y1="548.6" x2="766.8" y2="548.6"/>
							<line class="st17" x1="763.6" y1="546.3" x2="766.8" y2="546.3"/>
						</g>
					</g>
				</g>
				<g>
					<rect x="758.4" y="553.6" class="st15" width="29.4" height="30"/>
					<g>
						<rect x="768.2" y="563.5" class="st17" width="9.8" height="9.8"/>
						<path class="st17" d="M779.6,575.9h-12.9c-0.6,0-1.1-0.5-1.1-1.1v-12.9c0-0.6,0.5-1.1,1.1-1.1h12.9c0.6,0,1.1,0.5,1.1,1.1
							v12.9C780.6,575.4,780.1,575.9,779.6,575.9z"/>
						<g>
							<line class="st17" x1="767.4" y1="557.9" x2="767.4" y2="561.1"/>
							<line class="st17" x1="769.7" y1="557.9" x2="769.7" y2="561.1"/>
							<line class="st17" x1="772" y1="557.9" x2="772" y2="561.1"/>
							<line class="st17" x1="774.3" y1="557.9" x2="774.3" y2="561.1"/>
							<line class="st17" x1="776.5" y1="557.9" x2="776.5" y2="561.1"/>
							<line class="st17" x1="778.8" y1="557.9" x2="778.8" y2="561.1"/>
						</g>
						<g>
							<line class="st17" x1="767.4" y1="576.1" x2="767.4" y2="579.2"/>
							<line class="st17" x1="769.7" y1="576.1" x2="769.7" y2="579.2"/>
							<line class="st17" x1="772" y1="576.1" x2="772" y2="579.2"/>
							<line class="st17" x1="774.3" y1="576.1" x2="774.3" y2="579.2"/>
							<line class="st17" x1="776.5" y1="576.1" x2="776.5" y2="579.2"/>
							<line class="st17" x1="778.8" y1="576.1" x2="778.8" y2="579.2"/>
						</g>
						<g>
							<line class="st17" x1="762.5" y1="574.1" x2="765.6" y2="574.1"/>
							<line class="st17" x1="762.5" y1="571.8" x2="765.6" y2="571.8"/>
							<line class="st17" x1="762.5" y1="569.5" x2="765.6" y2="569.5"/>
							<line class="st17" x1="762.5" y1="567.2" x2="765.6" y2="567.2"/>
							<line class="st17" x1="762.5" y1="565" x2="765.6" y2="565"/>
							<line class="st17" x1="762.5" y1="562.7" x2="765.6" y2="562.7"/>
						</g>
						<g>
							<line class="st17" x1="780.6" y1="574.1" x2="783.8" y2="574.1"/>
							<line class="st17" x1="780.6" y1="571.8" x2="783.8" y2="571.8"/>
							<line class="st17" x1="780.6" y1="569.5" x2="783.8" y2="569.5"/>
							<line class="st17" x1="780.6" y1="567.2" x2="783.8" y2="567.2"/>
							<line class="st17" x1="780.6" y1="565" x2="783.8" y2="565"/>
							<line class="st17" x1="780.6" y1="562.7" x2="783.8" y2="562.7"/>
						</g>
					</g>
				</g>
				<g>
					<rect x="775.4" y="571.4" class="st15" width="29.4" height="30"/>
					<g>
						<rect x="785.2" y="581.3" class="st17" width="9.8" height="9.8"/>
						<path class="st17" d="M796.6,593.7h-12.9c-0.6,0-1.1-0.5-1.1-1.1v-12.9c0-0.6,0.5-1.1,1.1-1.1h12.9c0.6,0,1.1,0.5,1.1,1.1
							v12.9C797.6,593.2,797.1,593.7,796.6,593.7z"/>
						<g>
							<line class="st17" x1="784.4" y1="575.7" x2="784.4" y2="578.9"/>
							<line class="st17" x1="786.7" y1="575.7" x2="786.7" y2="578.9"/>
							<line class="st17" x1="789" y1="575.7" x2="789" y2="578.9"/>
							<line class="st17" x1="791.3" y1="575.7" x2="791.3" y2="578.9"/>
							<line class="st17" x1="793.5" y1="575.7" x2="793.5" y2="578.9"/>
							<line class="st17" x1="795.8" y1="575.7" x2="795.8" y2="578.9"/>
						</g>
						<g>
							<line class="st17" x1="784.4" y1="593.9" x2="784.4" y2="597"/>
							<line class="st17" x1="786.7" y1="593.9" x2="786.7" y2="597"/>
							<line class="st17" x1="789" y1="593.9" x2="789" y2="597"/>
							<line class="st17" x1="791.3" y1="593.9" x2="791.3" y2="597"/>
							<line class="st17" x1="793.5" y1="593.9" x2="793.5" y2="597"/>
							<line class="st17" x1="795.8" y1="593.9" x2="795.8" y2="597"/>
						</g>
						<g>
							<line class="st17" x1="779.5" y1="591.9" x2="782.6" y2="591.9"/>
							<line class="st17" x1="779.5" y1="589.6" x2="782.6" y2="589.6"/>
							<line class="st17" x1="779.5" y1="587.3" x2="782.6" y2="587.3"/>
							<line class="st17" x1="779.5" y1="585" x2="782.6" y2="585"/>
							<line class="st17" x1="779.5" y1="582.8" x2="782.6" y2="582.8"/>
							<line class="st17" x1="779.5" y1="580.5" x2="782.6" y2="580.5"/>
						</g>
						<g>
							<line class="st17" x1="797.6" y1="591.9" x2="800.7" y2="591.9"/>
							<line class="st17" x1="797.6" y1="589.6" x2="800.7" y2="589.6"/>
							<line class="st17" x1="797.6" y1="587.3" x2="800.7" y2="587.3"/>
							<line class="st17" x1="797.6" y1="585" x2="800.7" y2="585"/>
							<line class="st17" x1="797.6" y1="582.8" x2="800.7" y2="582.8"/>
							<line class="st17" x1="797.6" y1="580.5" x2="800.7" y2="580.5"/>
						</g>
					</g>
				</g>
			</g>
		</g>
		<text transform="matrix(1 0 0 1 734.1769 642.8709)" class="st14 st4 st5">Akamai Region</text>
		<text transform="matrix(1 0 0 1 763.1907 616.7328)" class="st18"><tspan x="0" y="0" class="st0 st6 st5">LKE</tspan><tspan x="-22.8" y="11" class="st0 st6 st5">ELK + Vector</tspan></text>
		<g>
			<g>
				<rect x="825.8" y="620.8" class="st3" width="3" height="3"/>
			</g>
			<g>
				<path class="st3" d="M817.9,623.8h-3v-3h3V623.8z M731.3,623.8h-3v-3h3V623.8z"/>
			</g>
			<g>
				<rect x="717.4" y="620.8" class="st3" width="3" height="3"/>
			</g>
			<g>
				<path class="st3" d="M720.4,613.2h-3v-2.8h3V613.2z M720.4,602.8h-3V600h3V602.8z M720.4,592.4h-3v-2.8h3V592.4z M720.4,582h-3
					v-2.8h3V582z M720.4,571.6h-3v-2.8h3V571.6z M720.4,561.1h-3v-2.8h3V561.1z M720.4,550.7h-3v-2.8h3V550.7z M720.4,540.3h-3v-2.8
					h3V540.3z"/>
			</g>
			<g>
				<rect x="717.4" y="526.9" class="st3" width="3" height="3"/>
			</g>
			<g>
				<path class="st3" d="M817.9,529.9h-3v-3h3V529.9z M807.1,529.9h-3v-3h3V529.9z M796.3,529.9h-3v-3h3V529.9z M785.4,529.9h-3v-3
					h3V529.9z M774.6,529.9h-3v-3h3V529.9z M763.8,529.9h-3v-3h3V529.9z M752.9,529.9h-3v-3h3V529.9z M742.1,529.9h-3v-3h3V529.9z
					 M731.3,529.9h-3v-3h3V529.9z"/>
			</g>
			<g>
				<rect x="825.8" y="526.9" class="st3" width="3" height="3"/>
			</g>
			<g>
				<path class="st3" d="M828.8,613.2h-3v-2.8h3V613.2z M828.8,602.8h-3V600h3V602.8z M828.8,592.4h-3v-2.8h3V592.4z M828.8,582h-3
					v-2.8h3V582z M828.8,571.6h-3v-2.8h3V571.6z M828.8,561.1h-3v-2.8h3V561.1z M828.8,550.7h-3v-2.8h3V550.7z M828.8,540.3h-3v-2.8
					h3V540.3z"/>
			</g>
		</g>
	</g>
	<g>
		<g>
			<line class="st1" x1="267.9" y1="578.9" x2="697.2" y2="578.9"/>
			<g>
				<polygon class="st8" points="695.9,583.4 703.7,578.9 695.9,574.4 				"/>
			</g>
		</g>
	</g>
	<g>
		<g>
			<path class="st14" d="M327.8,593.1c-7.7,0-13.9-6.3-13.9-13.9c0-7.7,6.3-13.9,13.9-13.9s13.9,6.3,13.9,13.9
				C341.7,586.8,335.5,593.1,327.8,593.1z"/>
			<path class="st9" d="M327.8,566.4c7,0,12.7,5.7,12.7,12.7c0,7.1-5.7,12.7-12.7,12.7s-12.7-5.7-12.7-12.7
				C315.1,572.1,320.8,566.4,327.8,566.4 M327.8,564c-8.3,0-15.1,6.8-15.1,15.1c0,8.3,6.8,15.1,15.1,15.1s15.1-6.8,15.1-15.1
				C342.9,570.8,336.1,564,327.8,564L327.8,564z"/>
		</g>
		<g>
			<path class="st9" d="M326.4,578.1h1.2c0.6,0,1-0.1,1.3-0.4c0.3-0.3,0.4-0.7,0.4-1.1s-0.1-0.8-0.4-1.1c-0.3-0.2-0.7-0.4-1.1-0.4
				c-0.4,0-0.8,0.1-1.1,0.4c-0.3,0.2-0.4,0.5-0.4,1H324c0-0.6,0.2-1.1,0.5-1.6c0.3-0.5,0.8-0.8,1.4-1.1c0.6-0.2,1.2-0.4,1.9-0.4
				c1.2,0,2.2,0.3,2.9,0.9c0.7,0.6,1,1.4,1,2.4c0,0.5-0.2,1-0.5,1.4c-0.3,0.4-0.7,0.8-1.3,1c0.7,0.2,1.1,0.6,1.4,1
				c0.3,0.5,0.5,1,0.5,1.6c0,1-0.4,1.9-1.1,2.5c-0.7,0.6-1.7,0.9-3,0.9c-1.1,0-2.1-0.3-2.8-0.9c-0.7-0.6-1.1-1.4-1.1-2.4h2.3
				c0,0.4,0.2,0.8,0.5,1.1s0.7,0.4,1.2,0.4c0.5,0,1-0.1,1.3-0.4c0.3-0.3,0.5-0.7,0.5-1.1c0-1.1-0.7-1.7-1.9-1.7h-1.2L326.4,578.1
				L326.4,578.1z"/>
		</g>
	</g>
	<g>
		<rect x="346.4" y="443.3" class="st10" width="243.2" height="122"/>
		<g>
			<rect x="528.3" y="477.2" class="st15" width="29.4" height="30"/>
			<g>
				<path d="M548.7,483.8c-1.5-0.4-3.5-0.6-5.7-0.6s-4.1,0.2-5.7,0.6c-1.9,0.5-2.9,1.3-2.9,2.3v12.2c0,1,1,1.8,2.9,2.3
					c1.5,0.4,3.5,0.6,5.7,0.6c2.1,0,4.1-0.2,5.7-0.7c1.9-0.5,2.9-1.3,2.9-2.3v-12.2C551.6,485.1,550.6,484.3,548.7,483.8z
					 M550.7,498.3c0,1.2-3.4,2.1-7.7,2.1c-4.3,0-7.7-0.9-7.7-2.1v-4.9c0.4,0.2,0.8,0.3,1.3,0.5c1.7,0.5,4,0.7,6.4,0.7
					c2.4,0,4.6-0.3,6.3-0.7c0.5-0.2,0.9-0.3,1.3-0.5V498.3z M550.7,491.8c-0.8,0.5-3.3,1.4-7.7,1.4c-4.4,0-6.9-0.8-7.7-1.4v-5.7
					c0-1.2,3.4-2.1,7.7-2.1c4.3,0,7.7,0.9,7.7,2.1V491.8z"/>
				<path class="st16" d="M543,484.6c-4.7,0-7.2,1.1-7.2,1.6s2.5,1.7,7.2,1.7c4.6,0,7.2-1.1,7.2-1.6S547.7,484.6,543,484.6z"/>
				<circle class="st16" cx="548" cy="497.2" r="1"/>
				<circle class="st16" cx="548" cy="490.1" r="1"/>
			</g>
		</g>
		<g>
			<g>
				<g>
					<rect x="425.9" y="458.7" class="st15" width="29.4" height="30"/>
					<g>
						<rect x="435.7" y="468.6" class="st17" width="9.8" height="9.8"/>
						<path class="st17" d="M447,481h-12.9c-0.6,0-1.1-0.5-1.1-1.1v-12.9c0-0.6,0.5-1.1,1.1-1.1H447c0.6,0,1.1,0.5,1.1,1.1V480
							C448.1,480.5,447.6,481,447,481z"/>
						<g>
							<line class="st17" x1="434.9" y1="463.1" x2="434.9" y2="466.2"/>
							<line class="st17" x1="437.2" y1="463.1" x2="437.2" y2="466.2"/>
							<line class="st17" x1="439.5" y1="463.1" x2="439.5" y2="466.2"/>
							<line class="st17" x1="441.7" y1="463.1" x2="441.7" y2="466.2"/>
							<line class="st17" x1="444" y1="463.1" x2="444" y2="466.2"/>
							<line class="st17" x1="446.3" y1="463.1" x2="446.3" y2="466.2"/>
						</g>
						<g>
							<line class="st17" x1="434.9" y1="481.2" x2="434.9" y2="484.4"/>
							<line class="st17" x1="437.2" y1="481.2" x2="437.2" y2="484.4"/>
							<line class="st17" x1="439.5" y1="481.2" x2="439.5" y2="484.4"/>
							<line class="st17" x1="441.7" y1="481.2" x2="441.7" y2="484.4"/>
							<line class="st17" x1="444" y1="481.2" x2="444" y2="484.4"/>
							<line class="st17" x1="446.3" y1="481.2" x2="446.3" y2="484.4"/>
						</g>
						<g>
							<line class="st17" x1="429.9" y1="479.2" x2="433.1" y2="479.2"/>
							<line class="st17" x1="429.9" y1="476.9" x2="433.1" y2="476.9"/>
							<line class="st17" x1="429.9" y1="474.7" x2="433.1" y2="474.7"/>
							<line class="st17" x1="429.9" y1="472.4" x2="433.1" y2="472.4"/>
							<line class="st17" x1="429.9" y1="470.1" x2="433.1" y2="470.1"/>
							<line class="st17" x1="429.9" y1="467.8" x2="433.1" y2="467.8"/>
						</g>
						<g>
							<line class="st17" x1="448.1" y1="479.2" x2="451.2" y2="479.2"/>
							<line class="st17" x1="448.1" y1="476.9" x2="451.2" y2="476.9"/>
							<line class="st17" x1="448.1" y1="474.7" x2="451.2" y2="474.7"/>
							<line class="st17" x1="448.1" y1="472.4" x2="451.2" y2="472.4"/>
							<line class="st17" x1="448.1" y1="470.1" x2="451.2" y2="470.1"/>
							<line class="st17" x1="448.1" y1="467.8" x2="451.2" y2="467.8"/>
						</g>
					</g>
				</g>
				<g>
					<rect x="442.9" y="475" class="st15" width="29.4" height="30"/>
					<g>
						<rect x="452.7" y="485" class="st17" width="9.8" height="9.8"/>
						<path class="st17" d="M464,497.4h-12.9c-0.6,0-1.1-0.5-1.1-1.1v-12.9c0-0.6,0.5-1.1,1.1-1.1H464c0.6,0,1.1,0.5,1.1,1.1v12.9
							C465.1,496.9,464.6,497.4,464,497.4z"/>
						<g>
							<line class="st17" x1="451.9" y1="479.4" x2="451.9" y2="482.6"/>
							<line class="st17" x1="454.2" y1="479.4" x2="454.2" y2="482.6"/>
							<line class="st17" x1="456.4" y1="479.4" x2="456.4" y2="482.6"/>
							<line class="st17" x1="458.7" y1="479.4" x2="458.7" y2="482.6"/>
							<line class="st17" x1="461" y1="479.4" x2="461" y2="482.6"/>
							<line class="st17" x1="463.3" y1="479.4" x2="463.3" y2="482.6"/>
						</g>
						<g>
							<line class="st17" x1="451.9" y1="497.6" x2="451.9" y2="500.7"/>
							<line class="st17" x1="454.2" y1="497.6" x2="454.2" y2="500.7"/>
							<line class="st17" x1="456.4" y1="497.6" x2="456.4" y2="500.7"/>
							<line class="st17" x1="458.7" y1="497.6" x2="458.7" y2="500.7"/>
							<line class="st17" x1="461" y1="497.6" x2="461" y2="500.7"/>
							<line class="st17" x1="463.3" y1="497.6" x2="463.3" y2="500.7"/>
						</g>
						<g>
							<line class="st17" x1="446.9" y1="495.6" x2="450.1" y2="495.6"/>
							<line class="st17" x1="446.9" y1="493.3" x2="450.1" y2="493.3"/>
							<line class="st17" x1="446.9" y1="491" x2="450.1" y2="491"/>
							<line class="st17" x1="446.9" y1="488.7" x2="450.1" y2="488.7"/>
							<line class="st17" x1="446.9" y1="486.4" x2="450.1" y2="486.4"/>
							<line class="st17" x1="446.9" y1="484.2" x2="450.1" y2="484.2"/>
						</g>
						<g>
							<line class="st17" x1="465.1" y1="495.6" x2="468.2" y2="495.6"/>
							<line class="st17" x1="465.1" y1="493.3" x2="468.2" y2="493.3"/>
							<line class="st17" x1="465.1" y1="491" x2="468.2" y2="491"/>
							<line class="st17" x1="465.1" y1="488.7" x2="468.2" y2="488.7"/>
							<line class="st17" x1="465.1" y1="486.4" x2="468.2" y2="486.4"/>
							<line class="st17" x1="465.1" y1="484.2" x2="468.2" y2="484.2"/>
						</g>
					</g>
				</g>
				<g>
					<rect x="459.8" y="492.8" class="st15" width="29.4" height="30"/>
					<g>
						<rect x="469.7" y="502.8" class="st17" width="9.8" height="9.8"/>
						<path class="st17" d="M481,515.2h-12.9c-0.6,0-1.1-0.5-1.1-1.1v-12.9c0-0.6,0.5-1.1,1.1-1.1H481c0.6,0,1.1,0.5,1.1,1.1v12.9
							C482.1,514.7,481.6,515.2,481,515.2z"/>
						<g>
							<line class="st17" x1="468.9" y1="497.2" x2="468.9" y2="500.4"/>
							<line class="st17" x1="471.1" y1="497.2" x2="471.1" y2="500.4"/>
							<line class="st17" x1="473.4" y1="497.2" x2="473.4" y2="500.4"/>
							<line class="st17" x1="475.7" y1="497.2" x2="475.7" y2="500.4"/>
							<line class="st17" x1="478" y1="497.2" x2="478" y2="500.4"/>
							<line class="st17" x1="480.3" y1="497.2" x2="480.3" y2="500.4"/>
						</g>
						<g>
							<line class="st17" x1="468.9" y1="515.3" x2="468.9" y2="518.5"/>
							<line class="st17" x1="471.1" y1="515.3" x2="471.1" y2="518.5"/>
							<line class="st17" x1="473.4" y1="515.3" x2="473.4" y2="518.5"/>
							<line class="st17" x1="475.7" y1="515.3" x2="475.7" y2="518.5"/>
							<line class="st17" x1="478" y1="515.3" x2="478" y2="518.5"/>
							<line class="st17" x1="480.3" y1="515.3" x2="480.3" y2="518.5"/>
						</g>
						<g>
							<line class="st17" x1="463.9" y1="513.4" x2="467.1" y2="513.4"/>
							<line class="st17" x1="463.9" y1="511.1" x2="467.1" y2="511.1"/>
							<line class="st17" x1="463.9" y1="508.8" x2="467.1" y2="508.8"/>
							<line class="st17" x1="463.9" y1="506.5" x2="467.1" y2="506.5"/>
							<line class="st17" x1="463.9" y1="504.2" x2="467.1" y2="504.2"/>
							<line class="st17" x1="463.9" y1="502" x2="467.1" y2="502"/>
						</g>
						<g>
							<line class="st17" x1="482.1" y1="513.4" x2="485.2" y2="513.4"/>
							<line class="st17" x1="482.1" y1="511.1" x2="485.2" y2="511.1"/>
							<line class="st17" x1="482.1" y1="508.8" x2="485.2" y2="508.8"/>
							<line class="st17" x1="482.1" y1="506.5" x2="485.2" y2="506.5"/>
							<line class="st17" x1="482.1" y1="504.2" x2="485.2" y2="504.2"/>
							<line class="st17" x1="482.1" y1="502" x2="485.2" y2="502"/>
						</g>
					</g>
				</g>
			</g>
			<g>
				<g>
					<rect x="373.8" y="458.7" class="st15" width="29.4" height="30"/>
					<g>
						<rect x="383.6" y="468.6" class="st17" width="9.8" height="9.8"/>
						<path class="st17" d="M394.9,481h-12.9c-0.6,0-1.1-0.5-1.1-1.1v-12.9c0-0.6,0.5-1.1,1.1-1.1h12.9c0.6,0,1.1,0.5,1.1,1.1V480
							C396,480.5,395.5,481,394.9,481z"/>
						<g>
							<line class="st17" x1="382.8" y1="463.1" x2="382.8" y2="466.2"/>
							<line class="st17" x1="385.1" y1="463.1" x2="385.1" y2="466.2"/>
							<line class="st17" x1="387.4" y1="463.1" x2="387.4" y2="466.2"/>
							<line class="st17" x1="389.6" y1="463.1" x2="389.6" y2="466.2"/>
							<line class="st17" x1="391.9" y1="463.1" x2="391.9" y2="466.2"/>
							<line class="st17" x1="394.2" y1="463.1" x2="394.2" y2="466.2"/>
						</g>
						<g>
							<line class="st17" x1="382.8" y1="481.2" x2="382.8" y2="484.4"/>
							<line class="st17" x1="385.1" y1="481.2" x2="385.1" y2="484.4"/>
							<line class="st17" x1="387.4" y1="481.2" x2="387.4" y2="484.4"/>
							<line class="st17" x1="389.6" y1="481.2" x2="389.6" y2="484.4"/>
							<line class="st17" x1="391.9" y1="481.2" x2="391.9" y2="484.4"/>
							<line class="st17" x1="394.2" y1="481.2" x2="394.2" y2="484.4"/>
						</g>
						<g>
							<line class="st17" x1="377.8" y1="479.2" x2="381" y2="479.2"/>
							<line class="st17" x1="377.8" y1="476.9" x2="381" y2="476.9"/>
							<line class="st17" x1="377.8" y1="474.7" x2="381" y2="474.7"/>
							<line class="st17" x1="377.8" y1="472.4" x2="381" y2="472.4"/>
							<line class="st17" x1="377.8" y1="470.1" x2="381" y2="470.1"/>
							<line class="st17" x1="377.8" y1="467.8" x2="381" y2="467.8"/>
						</g>
						<g>
							<line class="st17" x1="396" y1="479.2" x2="399.1" y2="479.2"/>
							<line class="st17" x1="396" y1="476.9" x2="399.1" y2="476.9"/>
							<line class="st17" x1="396" y1="474.7" x2="399.1" y2="474.7"/>
							<line class="st17" x1="396" y1="472.4" x2="399.1" y2="472.4"/>
							<line class="st17" x1="396" y1="470.1" x2="399.1" y2="470.1"/>
							<line class="st17" x1="396" y1="467.8" x2="399.1" y2="467.8"/>
						</g>
					</g>
				</g>
				<g>
					<rect x="390.8" y="475" class="st15" width="29.4" height="30"/>
					<g>
						<rect x="400.6" y="485" class="st17" width="9.8" height="9.8"/>
						<path class="st17" d="M411.9,497.4H399c-0.6,0-1.1-0.5-1.1-1.1v-12.9c0-0.6,0.5-1.1,1.1-1.1h12.9c0.6,0,1.1,0.5,1.1,1.1v12.9
							C413,496.9,412.5,497.4,411.9,497.4z"/>
						<g>
							<line class="st17" x1="399.8" y1="479.4" x2="399.8" y2="482.6"/>
							<line class="st17" x1="402.1" y1="479.4" x2="402.1" y2="482.6"/>
							<line class="st17" x1="404.3" y1="479.4" x2="404.3" y2="482.6"/>
							<line class="st17" x1="406.6" y1="479.4" x2="406.6" y2="482.6"/>
							<line class="st17" x1="408.9" y1="479.4" x2="408.9" y2="482.6"/>
							<line class="st17" x1="411.2" y1="479.4" x2="411.2" y2="482.6"/>
						</g>
						<g>
							<line class="st17" x1="399.8" y1="497.6" x2="399.8" y2="500.7"/>
							<line class="st17" x1="402.1" y1="497.6" x2="402.1" y2="500.7"/>
							<line class="st17" x1="404.3" y1="497.6" x2="404.3" y2="500.7"/>
							<line class="st17" x1="406.6" y1="497.6" x2="406.6" y2="500.7"/>
							<line class="st17" x1="408.9" y1="497.6" x2="408.9" y2="500.7"/>
							<line class="st17" x1="411.2" y1="497.6" x2="411.2" y2="500.7"/>
						</g>
						<g>
							<line class="st17" x1="394.8" y1="495.6" x2="398" y2="495.6"/>
							<line class="st17" x1="394.8" y1="493.3" x2="398" y2="493.3"/>
							<line class="st17" x1="394.8" y1="491" x2="398" y2="491"/>
							<line class="st17" x1="394.8" y1="488.7" x2="398" y2="488.7"/>
							<line class="st17" x1="394.8" y1="486.4" x2="398" y2="486.4"/>
							<line class="st17" x1="394.8" y1="484.2" x2="398" y2="484.2"/>
						</g>
						<g>
							<line class="st17" x1="413" y1="495.6" x2="416.1" y2="495.6"/>
							<line class="st17" x1="413" y1="493.3" x2="416.1" y2="493.3"/>
							<line class="st17" x1="413" y1="491" x2="416.1" y2="491"/>
							<line class="st17" x1="413" y1="488.7" x2="416.1" y2="488.7"/>
							<line class="st17" x1="413" y1="486.4" x2="416.1" y2="486.4"/>
							<line class="st17" x1="413" y1="484.2" x2="416.1" y2="484.2"/>
						</g>
					</g>
				</g>
				<g>
					<rect x="407.7" y="492.8" class="st15" width="29.4" height="30"/>
					<g>
						<rect x="417.6" y="502.8" class="st17" width="9.8" height="9.8"/>
						<path class="st17" d="M428.9,515.2H416c-0.6,0-1.1-0.5-1.1-1.1v-12.9c0-0.6,0.5-1.1,1.1-1.1h12.9c0.6,0,1.1,0.5,1.1,1.1v12.9
							C430,514.7,429.5,515.2,428.9,515.2z"/>
						<g>
							<line class="st17" x1="416.8" y1="497.2" x2="416.8" y2="500.4"/>
							<line class="st17" x1="419" y1="497.2" x2="419" y2="500.4"/>
							<line class="st17" x1="421.3" y1="497.2" x2="421.3" y2="500.4"/>
							<line class="st17" x1="423.6" y1="497.2" x2="423.6" y2="500.4"/>
							<line class="st17" x1="425.9" y1="497.2" x2="425.9" y2="500.4"/>
							<line class="st17" x1="428.2" y1="497.2" x2="428.2" y2="500.4"/>
						</g>
						<g>
							<line class="st17" x1="416.8" y1="515.3" x2="416.8" y2="518.5"/>
							<line class="st17" x1="419" y1="515.3" x2="419" y2="518.5"/>
							<line class="st17" x1="421.3" y1="515.3" x2="421.3" y2="518.5"/>
							<line class="st17" x1="423.6" y1="515.3" x2="423.6" y2="518.5"/>
							<line class="st17" x1="425.9" y1="515.3" x2="425.9" y2="518.5"/>
							<line class="st17" x1="428.2" y1="515.3" x2="428.2" y2="518.5"/>
						</g>
						<g>
							<line class="st17" x1="411.8" y1="513.4" x2="415" y2="513.4"/>
							<line class="st17" x1="411.8" y1="511.1" x2="415" y2="511.1"/>
							<line class="st17" x1="411.8" y1="508.8" x2="415" y2="508.8"/>
							<line class="st17" x1="411.8" y1="506.5" x2="415" y2="506.5"/>
							<line class="st17" x1="411.8" y1="504.2" x2="415" y2="504.2"/>
							<line class="st17" x1="411.8" y1="502" x2="415" y2="502"/>
						</g>
						<g>
							<line class="st17" x1="430" y1="513.4" x2="433.1" y2="513.4"/>
							<line class="st17" x1="430" y1="511.1" x2="433.1" y2="511.1"/>
							<line class="st17" x1="430" y1="508.8" x2="433.1" y2="508.8"/>
							<line class="st17" x1="430" y1="506.5" x2="433.1" y2="506.5"/>
							<line class="st17" x1="430" y1="504.2" x2="433.1" y2="504.2"/>
							<line class="st17" x1="430" y1="502" x2="433.1" y2="502"/>
						</g>
					</g>
				</g>
			</g>
		</g>
		<text transform="matrix(1 0 0 1 445.5563 556.3336)" class="st14 st4 st5">Region 2</text>
		<text transform="matrix(1 0 0 1 399.8271 537.9587)" class="st0 st6 st5">SaaS Cluster</text>
		<text transform="matrix(1 0 0 1 518.196 520.4983)" class="st18"><tspan x="0" y="0" class="st0 st6 st5">Local Log</tspan><tspan x="-3.7" y="13" class="st0 st6 st5">Processing</tspan></text>
		<g>
			<g>
				<rect x="501.8" y="533.2" class="st3" width="3" height="3"/>
			</g>
			<g>
				<path class="st3" d="M493.8,536.2h-3v-3h3V536.2z M482.8,536.2h-3v-3h3V536.2z M471.7,536.2h-3v-3h3V536.2z M394.4,536.2h-3v-3
					h3V536.2z M383.3,536.2h-3v-3h3V536.2z M372.3,536.2h-3v-3h3V536.2z"/>
			</g>
			<g>
				<rect x="358.2" y="533.2" class="st3" width="3" height="3"/>
			</g>
			<g>
				<path class="st3" d="M361.2,525.7h-3v-2.8h3V525.7z M361.2,515.3h-3v-2.8h3V515.3z M361.2,504.9h-3V502h3V504.9z M361.2,494.5
					h-3v-2.8h3V494.5z M361.2,484.1h-3v-2.8h3V484.1z M361.2,473.7h-3v-2.8h3V473.7z M361.2,463.3h-3v-2.8h3V463.3z"/>
			</g>
			<g>
				<rect x="358.2" y="449.9" class="st3" width="3" height="3"/>
			</g>
			<g>
				<path class="st3" d="M493.8,452.9h-3v-3h3V452.9z M482.8,452.9h-3v-3h3V452.9z M471.7,452.9h-3v-3h3V452.9z M460.7,452.9h-3v-3
					h3V452.9z M449.6,452.9h-3v-3h3V452.9z M438.6,452.9h-3v-3h3V452.9z M427.5,452.9h-3v-3h3V452.9z M416.5,452.9h-3v-3h3V452.9z
					 M405.4,452.9h-3v-3h3V452.9z M394.4,452.9h-3v-3h3V452.9z M383.3,452.9h-3v-3h3V452.9z M372.3,452.9h-3v-3h3V452.9z"/>
			</g>
			<g>
				<rect x="501.8" y="449.9" class="st3" width="3" height="3"/>
			</g>
			<g>
				<path class="st3" d="M504.8,525.7h-3v-2.8h3V525.7z M504.8,515.3h-3v-2.8h3V515.3z M504.8,504.9h-3V502h3V504.9z M504.8,494.5
					h-3v-2.8h3V494.5z M504.8,484.1h-3v-2.8h3V484.1z M504.8,473.7h-3v-2.8h3V473.7z M504.8,463.3h-3v-2.8h3V463.3z"/>
			</g>
		</g>
	</g>
	<g>
		<rect x="430.1" y="592.6" width="6.9" height="6.9"/>
		<rect x="430.1" y="609.6" width="6.9" height="6.9"/>
		<rect x="430.1" y="626.5" width="6.9" height="6.9"/>
	</g>
</g>
</svg>
