<svg viewBox="0 0 200 200" xmlns="http://www.w3.org/2000/svg"><path d="m29.05 103.67a49 49 0 0 1 0-39 48.13 48.13 0 0 1 10.67-15.84 52.22 52.22 0 0 1 15.83-10.68 51.18 51.18 0 0 1 39 .37 48.13 48.13 0 0 1 15.82 10.67 52.22 52.22 0 0 1 10.7 15.81 49 49 0 0 1 0 39 48 48 0 0 1 -10.68 15.83 52.2 52.2 0 0 1 -15.82 10.67 58.72 58.72 0 0 1 -19.51 3.31 51.36 51.36 0 0 1 -19.51-4 47.87 47.87 0 0 1 -15.83-10.67 46.56 46.56 0 0 1 -10.67-15.47zm2.21-37.91a45.59 45.59 0 0 0 -3.68 18.4 45.63 45.63 0 0 0 3.68 18.41 44 44 0 0 0 10.3 15.09 47.93 47.93 0 0 0 15.09 10.34 45.63 45.63 0 0 0 18.41 3.68 45.59 45.59 0 0 0 18.4-3.68 44 44 0 0 0 15.09-10.3 47.84 47.84 0 0 0 10.31-15.09 45.63 45.63 0 0 0 3.68-18.41 45.59 45.59 0 0 0 -3.68-18.4 44 44 0 0 0 -10.31-15.09 44 44 0 0 0 -15.09-10.35 45.59 45.59 0 0 0 -18.4-3.68 45.63 45.63 0 0 0 -18.41 3.68 44.1 44.1 0 0 0 -15.09 10.31 44 44 0 0 0 -10.3 15.09zm1.1 18.4a40.73 40.73 0 0 1 3.64-17.3l20.25 56a45 45 0 0 1 -17.67-15.46 46.59 46.59 0 0 1 -6.22-23.24zm7-23.55a42.13 42.13 0 0 1 15.09-14 40.83 40.83 0 0 1 20.61-5.16 41.63 41.63 0 0 1 28.71 11.42h-.37a6.67 6.67 0 0 0 -5.15 2.2 7.31 7.31 0 0 0 -2.25 5.17v1.47a1.33 1.33 0 0 0 .37 1.1c0 .37.37.74.37 1.11a1.36 1.36 0 0 1 .36 1.1c0 .37.37.74.74 1.11a4.63 4.63 0 0 0 .74 1.1c0 .37.36.74.73 1.47a4.58 4.58 0 0 0 .74 1.11c2.21 4 3.68 7.73 3.68 11.78v2.2a9.27 9.27 0 0 1 -.74 2.58c-.37 1.1-.37 1.84-.73 2.58a15.28 15.28 0 0 1 -1.11 3.31 11.06 11.06 0 0 1 -1.1 3.31l-4.42 14.36-15.46-46c1.84 0 3.31-.37 4.79-.37.73 0 1.1-.37 1.47-1.1a1.66 1.66 0 0 0 0-1.84c.37-.37-.37-.37-.74-.37l-11.37.75c-2.94 0-6.62-.36-11.41-.73a1.34 1.34 0 0 0 -1.1.37l-.74.73v1.11a1.29 1.29 0 0 0 .37.73 1.35 1.35 0 0 0 1.1.37l4.42.37 6.63 18.4-9.21 28-15.45-46c1.84 0 3.31-.37 4.78-.37.74 0 1.1-.37 1.47-1.11a1.66 1.66 0 0 0 0-1.84c-.37-.73-1.1-.73-1.84-.73l-11.41.37h-2.57zm23.55 64.39 12.88-37.16 13.26 36.07c0 .37 0 .37.36.74a49.24 49.24 0 0 1 -14.35 2.58 47.17 47.17 0 0 1 -12.15-2.23zm33.5-4 13.25-37.54q3.34-9.46 3.34-15.46a17.81 17.81 0 0 0 -.37-4.42 40.86 40.86 0 0 1 5.16 20.61 39.72 39.72 0 0 1 -5.89 21.35 39 39 0 0 1 -15.49 15.46z" fill="#32363b"/><path d="m101.43 165.53v-8.71a30.06 30.06 0 0 1 -12.8-6.42l-2.63-2.4 10.28-16.12 3.66 2.71c4.35 3.22 6.82 3.63 8.48 3.63a9.28 9.28 0 0 0 1.05-.05 36.18 36.18 0 0 0 -4.71-2.64c-6.2-3.11-15.58-7.81-15.58-18.75 0-8.85 4.53-15.54 12.29-18.44v-9.41h17.42v9a25.86 25.86 0 0 1 10.89 7.12l2.63 2.8-11.33 13c5.2 3.09 10.25 7.76 10.25 16.1 0 9-4.59 15.81-12.44 18.88v9.61z" fill="#fff"/><path d="m127.05 137c0-14.52-20.58-14.84-20.58-20.9 0-3.19 1.67-4.15 5.1-4.15 3 0 5.43 1.28 8.3 3.83l6.78-7.82a21 21 0 0 0 -12.05-6.71v-8.08h-8.93v8.34c-7.71 1.65-12.28 7.19-12.28 15.27 0 14 20.58 14.83 20.58 21.22 0 3.11-1.6 4.46-5.59 4.46-3.35 0-6.7-1.27-11-4.46l-5.9 9.25c4 3.55 9.64 5.48 14.2 6v8h8.93v-8.45c8.39-1.97 12.44-8.06 12.44-15.8z" fill="currentColor" stroke="#32363b" stroke-linecap="round" stroke-linejoin="round" stroke-width="3.71"/><path d="m128.55 149.55h46.45v15.98h-46.45z" fill="#fff"/><path d="m132.79 153.79h38v7.5h-38z" fill="currentColor" stroke="#32363b" stroke-linecap="round" stroke-linejoin="round" stroke-width="3.71"/></svg>