<svg xmlns="http://www.w3.org/2000/svg" xmlns:xlink="http://www.w3.org/1999/xlink" id="Layer_1" x="0" y="0" version="1.1" viewBox="0 0 100 100" xml:space="preserve">
  <title>Managed</title>
  <g>
    <defs>
      <path id="SVGID_1_7e1b39ef493d8bcd89d3a083a658128c" d="M89.8 63.7c-1.8-.6-3.2 0-4.6 1.2-4.9 4.1-10.5 7.3-16.5 9.3-2.9 1-6 1.8-9 1.6-4.8-.3-9.6-1.5-14.4-2.5-1.1-.3-2.1-.8-3-1.5-1.1-.9-.9-2.1.4-2.6.7-.2 1.5-.3 2.2-.3h9c3.3 0 6.6.1 9.8 0 2.3.1 4.2-1.7 4.2-4 0-.5-.1-1-.2-1.5-.6-1.8-2.2-2.9-4.6-2.9H30.2c-.8 0-1.5.1-2.3.3-8.7 2.3-14.8 8-19.7 15.2-.3.6-.6 1.3-.7 2-1.5 5.6 3 10.5 8.7 9.3 1.2-.2 2.3-.6 3.4-1 2.7-1.1 5.7-1.4 8.6-.8 6.1 1.2 12.1 2.7 18.3 3.6 4.5.7 9 1 13.5.7 5.2-.4 9.7-3 14-5.7C80.3 80.5 86 76 91.1 71c2.5-2.7 1.9-6.3-1.3-7.3z"/>
    </defs>
    <clipPath id="SVGID_2_7e1b39ef493d8bcd89d3a083a658128c">
      <use overflow="visible" xlink:href="#SVGID_1_7e1b39ef493d8bcd89d3a083a658128c"/>
    </clipPath>
    <g clip-path="url(#SVGID_2_7e1b39ef493d8bcd89d3a083a658128c)">
      <path d="M1.3 85.5c.4-.5 3.5-2.8 7.1-5.4 8-5.8 18.5-7 27.7-3.3 8.3 3.4 17.8 2.7 25.5-1.8l31.1-18.3 21.2 5.2-6.2 31.6s-52.2 24.6-54.9 22.9c-2.7-1.7-47.1-7-47.1-7L1.3 85.5z" fill="currentColor"/>
      <path d="M45.6 64.8h26.2l-5.3 7.3H41.9c-1.1 0-2-.9-2-2v-.3c.4-2.8 2.8-5 5.7-5z" fill="currentColor"/>
    </g>
    <path fill="none" stroke="#010101" stroke-linejoin="round" stroke-width="3.5854" d="M89.8 63.7c-1.8-.6-3.2 0-4.6 1.2-4.9 4.1-10.5 7.3-16.5 9.3-2.9 1-6 1.8-9 1.6-4.8-.3-9.6-1.5-14.4-2.5-1.1-.3-2.1-.8-3-1.5-1.1-.9-.9-2.1.4-2.6.7-.2 1.5-.3 2.2-.3h9c3.3 0 6.6.1 9.8 0 2.3.1 4.2-1.7 4.2-4 0-.5-.1-1-.2-1.5-.6-1.8-2.2-2.9-4.6-2.9H30.2c-.8 0-1.5.1-2.3.3-8.7 2.3-14.8 8-19.7 15.2-.3.6-.6 1.3-.7 2-1.5 5.6 3 10.5 8.7 9.3 1.2-.2 2.3-.6 3.4-1 2.7-1.1 5.7-1.4 8.6-.8 6.1 1.2 12.1 2.7 18.3 3.6 4.5.7 9 1 13.5.7 5.2-.4 9.7-3 14-5.7C80.3 80.5 86 76 91.1 71c2.5-2.7 1.9-6.3-1.3-7.3z"/>
    <path d="M34.1 35.7c2.7-.2 3.4 1.5 4.3 3.3.9 1.8-.8 2.3-1.4 3.2-.4.5-1.1.9-1.2 1.4-.2.9-.6 2.1-.1 2.7 2 3 3.7 3.7 6.1.9.4-.3.7-.7 1-1 1.3-1.9 2.9-1 4.4-.6 1.6.5 1.3 1.7 1.4 2.9v1.7c.1 2.5.7 3.2 3.3 3.2 3 0 3.6-.5 3.6-3.5.1-.7.1-1.4 0-2.1-.4-2.2 1.1-2.9 2.7-3.7s2.2.6 3.1 1.3c.6.5 1.2 1.2 1.8 1.7 1.2 1.1 2.4 1 3.6 0 2.4-2.1 2.5-3.4.2-5.7-.5-.5-1-1-1.5-1.4-1.6-1.2-1.4-2.5-.8-4.2.6-1.7 1.9-1.2 3.1-1.3.9-.1 1.8 0 2.7 0 2-.2 2.7-.9 2.7-3.2 0-2.6-.5-3.3-2.6-3.4-1.3-.1-2.7-.1-4 0-1.9.1-2.2-1.2-2.9-2.5-.6-1.3.1-1.9.9-2.7s1.3-1.2 1.9-1.9c.6-.7 1-1.4 1.8-2.6-1.3-1.2-2.2-2.6-3.5-3.2-.7-.4-2.1.5-3.1.9-.6.4-1.2 1-1.6 1.6-1.1 1.3-2.1 1.9-4 1.1-1.9-.8-2-1.9-1.9-3.5.1-.9.1-1.8-.1-2.7-.1-.7-.5-1.4-1.1-1.8-2.9-1.6-5.6.1-5.7 3.4v1.3c.4 2.1-.8 2.9-2.5 3.6-1.8.9-2.5-.3-3.5-1.2-.5-.6-1.2-1.2-1.9-1.7-.6-.3-1.6-.6-2.1-.3-3.1 2.2-4.2 3.8-1.2 6.3.2.3.5.5.7.7 2.3 1.4.8 3.1.4 4.8-.5 1.7-1.7 1.3-2.9 1.4h-1.7c-1.8.1-2.8 1.1-2.9 2.9-.2 3.2.7 4.2 4.5 3.9zm16.4-10.2c3.4-.2 6.2 2.5 6.4 5.9v.4c-.1 3.4-2.9 6.2-6.4 6.1-3.3-.1-6-2.7-6.1-6-.1-3.4 2.6-6.3 6.1-6.4z" fill="currentColor"/>
  </g>
</svg>