<svg viewBox="0 0 200 200" xmlns="http://www.w3.org/2000/svg" xmlns:xlink="http://www.w3.org/1999/xlink"><clipPath id="a"><rect height="84.71" rx="4.98" width="84.71" x="57.64" y="57.64"/></clipPath><path d="m139.51 43.43h-79a17 17 0 0 0 -17.08 16.94v79.14a17 17 0 0 0 17 17h79.06a17 17 0 0 0 17-17v-79a17 17 0 0 0 -16.94-17.06zm11.29 95.47a11.84 11.84 0 0 1 -11.8 11.84h-78a11.84 11.84 0 0 1 -11.8-11.84v-77.9a11.84 11.84 0 0 1 11.8-11.8h78a11.84 11.84 0 0 1 11.8 11.8z" fill="#32363b"/><g clip-path="url(#a)"><path d="m41.11 43.49h123.19v109.57h-123.19z" fill="currentColor"/></g><g fill="#333232" stroke="#010101" stroke-linecap="round" stroke-miterlimit="10" stroke-width="2.37"><path d="m25 61.65h11.79"/><path d="m25 71.24h11.79"/><path d="m25 80.83h11.79"/><path d="m25 90.41h11.79"/><path d="m25 100h11.79"/><path d="m25 109.59h11.79"/><path d="m25 119.17h11.79"/><path d="m25 128.74h11.79"/><path d="m25 138.33h11.79"/><path d="m175 61.65h-11.79"/><path d="m175 71.24h-11.79"/><path d="m175 80.83h-11.79"/><path d="m175 90.41h-11.79"/><path d="m175 100h-11.79"/><path d="m175 109.59h-11.79"/><path d="m175 119.17h-11.79"/><path d="m175 128.74h-11.79"/><path d="m175 138.33h-11.79"/><path d="m138.33 25v11.79"/><path d="m128.74 25v11.79"/><path d="m119.17 25v11.79"/><path d="m109.59 25v11.79"/><path d="m100 25v11.79"/><path d="m90.41 25v11.79"/><path d="m80.83 25v11.79"/><path d="m71.24 25v11.79"/><path d="m61.65 25v11.79"/><path d="m138.33 175v-11.79"/><path d="m128.74 175v-11.79"/><path d="m119.17 175v-11.79"/><path d="m109.59 175v-11.79"/><path d="m100 175v-11.79"/><path d="m90.41 175v-11.79"/><path d="m80.83 175v-11.79"/><path d="m71.24 175v-11.79"/><path d="m61.65 175v-11.79"/></g></svg>