<svg viewBox="0 0 200 200" xmlns="http://www.w3.org/2000/svg"><path d="m83.71 35.52a40.58 40.58 0 0 0 -20.71 75.53 7 7 0 0 1 3.41 6v9.95a3.34 3.34 0 0 1 1.27-.25h31.91a3.34 3.34 0 0 1 1.27.25v-9.88a7.08 7.08 0 0 1 3.48-6.06 40.58 40.58 0 0 0 -20.63-75.54z" fill="currentColor" stroke="#32363b" stroke-linecap="round" stroke-linejoin="round" stroke-width="3.76"/><path d="m88.74 128.64a1.94 1.94 0 0 1 -1.95-1.94v-17.42a8 8 0 0 1 1.66-4.86l2.79-3.6a4.13 4.13 0 0 0 .84-2.49v-18.17a1.95 1.95 0 1 1 3.89 0v18.17a8.08 8.08 0 0 1 -1.65 4.87l-2.79 3.6a4.07 4.07 0 0 0 -.85 2.48v17.42a1.94 1.94 0 0 1 -1.94 1.94z" fill="#fff"/><path d="m78.57 128.64a1.94 1.94 0 0 1 -1.94-1.94v-17.42a4.07 4.07 0 0 0 -.85-2.48l-2.78-3.6a8 8 0 0 1 -1.66-4.87v-18.17a1.95 1.95 0 1 1 3.89 0v18.17a4.07 4.07 0 0 0 .85 2.49l2.78 3.6a8 8 0 0 1 1.66 4.86v17.42a1.94 1.94 0 0 1 -1.95 1.94z" fill="#fff"/><path d="m112 68.16a28.2 28.2 0 0 0 -14.84-18 1.94 1.94 0 1 1 1.71-3.49 32.11 32.11 0 0 1 16.89 20.49 1.95 1.95 0 0 1 -3.76 1z" fill="#ededf4"/><path d="m75.8 155.19v1.43a7.86 7.86 0 1 0 15.71 0v-1.43z" fill="#c8c8cc" stroke="#32363b" stroke-linecap="round" stroke-linejoin="round" stroke-width="3.76"/><path d="m96 84.26h-24.66a1.95 1.95 0 1 1 0-3.89h24.66a1.95 1.95 0 1 1 0 3.89z" fill="#c8c8cc"/><path d="m33.64 77h-6.64a1.95 1.95 0 1 1 0-3.89h6.69a1.95 1.95 0 1 1 0 3.89z" fill="#c8c8cc"/><path d="m35.55 64.66-6.26-2.38a1.94 1.94 0 1 1 1.38-3.63l6.26 2.35a1.95 1.95 0 1 1 -1.38 3.64z" fill="#c8c8cc"/><path d="m28.16 90.35a2 2 0 0 1 1.13-2.51l6.26-2.38a1.95 1.95 0 0 1 1.38 3.64l-6.26 2.38a2 2 0 0 1 -2.51-1.13z" fill="#c8c8cc"/><path d="m97 145.63h-26.69a3.37 3.37 0 0 0 -3.37 3.37v2.87a3.38 3.38 0 0 0 3.37 3.38h26.69a3.38 3.38 0 0 0 3.37-3.38v-2.87a3.37 3.37 0 0 0 -3.37-3.37z" fill="#fff" stroke="#32363b" stroke-linecap="round" stroke-linejoin="round" stroke-width="3.76"/><path d="m99.59 136.13h-31.87a3.38 3.38 0 0 0 -3.37 3.38v2.87a3.38 3.38 0 0 0 3.37 3.38h31.87a3.39 3.39 0 0 0 3.38-3.38v-2.87a3.39 3.39 0 0 0 -3.38-3.38z" fill="#c8c8cc" stroke="#32363b" stroke-linecap="round" stroke-linejoin="round" stroke-width="3.76"/><path d="m99.59 126.63h-31.87a3.38 3.38 0 0 0 -3.37 3.37v2.87a3.37 3.37 0 0 0 3.37 3.38h31.87a3.38 3.38 0 0 0 3.38-3.38v-2.87a3.39 3.39 0 0 0 -3.38-3.37z" fill="#fff" stroke="#32363b" stroke-linecap="round" stroke-linejoin="round" stroke-width="3.76"/><path d="m165.5 36.14c-2 1.19-5.38 4.57-9.39 9.47l3.68 7a91.08 91.08 0 0 1 7.87-9.87l.31-.33-.31.33a82.44 82.44 0 0 0 -7.39 10 139.34 139.34 0 0 0 14.33-1.77c1.41-7.9-1.38-11.51-1.38-11.51s-3.55-5.78-7.72-3.32z" fill="#32363b"/><path d="m159.26 75.82h.08l-.53.06h-.09z" fill="#32363b"/><path d="m155.5 88.28c-.31.07-.61.12-.92.17.31-.05.62-.1.92-.17z" fill="#32363b"/><path d="m129.93 116.23.12-.31c.81-2.14 1.62-4.22 2.41-6.25.89-2.27 1.78-4.48 2.65-6.62s1.82-4.42 2.71-6.52 1.86-4.33 2.77-6.37c.74-1.67 1.46-3.28 2.18-4.84l.72-1.54c.47-1 .93-2 1.39-3l1.26-2.62.42-.85a.61.61 0 0 1 .07-.14h-.46l-.36-.71-.1.2q-1 1.94-1.92 3.9c-.37.75-.74 1.51-1.1 2.27q-1.51 3.18-3 6.4c-1 2.17-1.95 4.35-2.9 6.53s-1.84 4.29-2.73 6.44-1.76 4.27-2.61 6.38-1.75 4.41-2.59 6.57l-.57 1.46q-1 2.63-2 5.18l.56 1.12.51-.06.06-.15q1.3-3.28 2.51-6.47z" fill="#fff"/><g fill="#32363b"><path d="m153.12 94.56-1.45.25.74-.12z"/><path d="m153.12 94.56-1.45.25.74-.12z" opacity=".35"/><path d="m154.35 88.48h.24c.31 0 .62-.1.92-.17l-1.15.2z"/><path d="m154.35 88.48h.24c.31 0 .62-.1.92-.17l-1.15.2z" opacity=".35"/><path d="m148.93 70.54c1.12-2.09 2.25-4.14 3.4-6.13s2.39-4.08 3.61-6l.21-.35c1.2-1.9 2.42-3.73 3.64-5.48l-3.68-7c-.28.33-.56.68-.84 1-1.07 1.42-2.17 2.82-3.27 4.33q-1.92 2.56-3.92 5.43c-1.23 1.76-2.48 3.61-3.73 5.52-1.06 1.63-2.13 3.3-3.18 5l-.12.19 4.79 9.48c1-2.02 2.03-4.02 3.09-5.99z"/><path d="m127.08 123.92q-.94 2.61-1.91 5.33v.08c-.1.25-.18.51-.28.77-.43 1.22-.8 2.32-1.66 4.83 1.41.65 2.54 2.34 3.62 4.27a7.75 7.75 0 0 0 -2.51-5.32c7 .31 13-1.45 16.07-6.54a15.06 15.06 0 0 0 .76-1.44c-1.41 1.79-3.15 2.55-6.45 2.36 4.85-2.17 7.28-4.25 9.43-7.7.51-.82 1-1.71 1.51-2.7a15.18 15.18 0 0 1 -14.32 4.65l-3.88.42z"/><path d="m128.89 115.23q1.26-3.26 2.59-6.57 1.28-3.16 2.61-6.38c.89-2.15 1.81-4.29 2.74-6.44s1.91-4.36 2.89-6.53 2-4.28 3-6.4c.37-.76.73-1.52 1.1-2.27q1-2 1.92-3.9l.11-.2-4.85-9.48c-.07.13-.15.26-.23.39-1.12 1.82-2.23 3.69-3.32 5.59s-2.19 3.89-3.25 5.88q-1.33 2.52-2.61 5.08c-.17.35-.34.69-.5 1-1.05 2.15-2 4.23-2.85 6.22q-1.45 3.4-2.56 6.48-.74 2-1.35 3.9c-.34 1.07-.65 2.14-1 3.21-.71 2.51-1.33 5-1.84 7.51l4.82 9.51c.63-1.7 1.29-3.43 2-5.18.2-.44.39-.93.58-1.42z"/><path d="m121.48 112.69a75.71 75.71 0 0 0 -1.25 9.09v.32c-1.51-2.41-5.54-4.77-5.53-4.74 2.89 4.17 5.07 8.32 5.4 12.4-1.54.31-3.66-.14-6.1-1a12.19 12.19 0 0 0 5.2 3.16c-2.34.14-4.77 1.75-7.23 3.61 3.59-1.47 6.49-2.05 8.57-1.58-3.29 9.34-6.6 19.63-9.9 30.57a2.89 2.89 0 0 0 1.95-1.91c.59-2 4.5-15 10.62-32l.53-1.47c0-.13.1-.27.15-.41q1-2.69 2-5.48c.15-.43.31-.85.47-1.28l-4.81-9.52c-.02.02-.05.13-.07.24z"/><path d="m146.56 77.34-.42.85-1.26 2.62c-.46 1-.92 2-1.39 3l-.72 1.54c-.72 1.56-1.44 3.17-2.18 4.84q-1.36 3.06-2.77 6.37c-.89 2.1-1.8 4.28-2.71 6.52s-1.76 4.34-2.65 6.62q-1.2 3-2.41 6.25l-.12.31q-1.22 3.19-2.44 6.55s0 .1 0 .15l3.88-.42h-.24c4.64-.58 10.81-4 14.79-8.32a36.77 36.77 0 0 0 5-7 60.8 60.8 0 0 0 3.24-6.75c.9-2.18 1.76-4.53 2.59-7.08a13.74 13.74 0 0 1 -3.63 1.26l-.72.14-.74.12c4.32-1.66 7.05-4.87 9-8.81a15.19 15.19 0 0 1 -5.2 2.28c-.31.07-.61.12-.92.17h-.24a17.67 17.67 0 0 0 3.86-2.16c.24-.18.47-.36.69-.55s.65-.6 1-.92.38-.41.56-.63a16.23 16.23 0 0 0 1.21-1.67c.12-.18.23-.37.34-.56s.28-.55.42-.82q.9-1.82 1.47-3.24c.2-.48.36-.92.51-1.33.05-.16.11-.32.16-.47.15-.46.27-.86.38-1.22.14-.53.23-1 .28-1.27a4 4 0 0 1 -.5.35 18.28 18.28 0 0 1 -5.36 1.82l3.57-.39-3.57.39h-.07c-.18 0-.37 0-.55.09h.09l-12.18 1.34a.4.4 0 0 0 -.05.03z"/><path d="m160.27 52.71c-1.08 1.66-2.26 3.55-3.54 5.69-.06.11-.13.22-.2.33q-1.65 2.77-3.49 6.11c-1.06 1.93-2.17 4-3.32 6.21-1 1.93-2 4-3.09 6.14l12.18-1.33a14.78 14.78 0 0 0 6.68-5.25c.41-.59.82-1.2 1.23-1.84 1.25-2 2.48-4.11 3.57-6.24a62.74 62.74 0 0 0 2.71-6 29 29 0 0 0 1.08-3.22c.22-.85.39-1.65.53-2.42a137.32 137.32 0 0 1 -14.34 1.82z"/><path d="m152.4 94.7-.74.11z"/><path d="m152.4 94.7-.74.11z" opacity=".35"/><path d="m152.4 94.7-.74.11z"/><path d="m154.34 88.48h.24z"/><path d="m154.34 88.48h.24z" opacity=".35"/><path d="m154.34 88.48h.24z"/></g></svg>