<svg viewBox="0 0 200 200" xmlns="http://www.w3.org/2000/svg"><g fill="#32363b"><path d="m54.18 131.75v-44l-13 3.58v46.77a14.18 14.18 0 0 1 -.57 5 1.79 1.79 0 0 1 -1.65 1.28 2.22 2.22 0 0 1 -1.16-.38 7 7 0 0 1 -1.54-1.6 14.82 14.82 0 0 0 -2-2.19 4.66 4.66 0 0 0 -3.26-1.13 6.53 6.53 0 0 0 -4.35 1.37 4.23 4.23 0 0 0 -1.65 3.36q0 2.38 2.9 4.09c1.94 1.14 4.72 1.71 8.36 1.71a37.49 37.49 0 0 0 7.34-.61 12.54 12.54 0 0 0 5.66-2.58 12.18 12.18 0 0 0 3.64-5.44 27.07 27.07 0 0 0 1.28-9.18z"/><path d="m72.28 89h-13v30.1a12.12 12.12 0 0 0 1.16 5.23 13.41 13.41 0 0 0 3.22 4.27 15.49 15.49 0 0 0 4.78 2.87 16.32 16.32 0 0 0 5.91 1 13.52 13.52 0 0 0 5.65-1.24 23.25 23.25 0 0 0 5.47-3.47v4h13v-42.76h-13v30.84a15.2 15.2 0 0 1 -3.47 3.8 5.26 5.26 0 0 1 -5.92 1 6.73 6.73 0 0 1 -2-1.28 5.6 5.6 0 0 1 -1.34-1.9 5.89 5.89 0 0 1 -.48-2.36z"/><path d="m116.47 131.75v-63.49l-12.92 3.58v59.91z"/><path d="m121.63 91.35v40.4h13v-44z"/><path d="m162 109.67v12.33a42.8 42.8 0 0 1 -3.61 2.44 6.18 6.18 0 0 1 -3.21 1 2.51 2.51 0 0 1 -1.48-.48 5.26 5.26 0 0 1 -1.25-1.28 6.13 6.13 0 0 1 -.89-1.91 8.8 8.8 0 0 1 -.31-2.3 5.15 5.15 0 0 1 1-3 12.15 12.15 0 0 1 2.53-2.67 23.78 23.78 0 0 1 3.47-2.31 41 41 0 0 1 3.78-1.85zm13 22.08v-32a11.22 11.22 0 0 0 -1-4.84 9.67 9.67 0 0 0 -3.19-3.7 16.16 16.16 0 0 0 -5.49-2.36 33.36 33.36 0 0 0 -7.94-.82 30.8 30.8 0 0 0 -7.11.79 25 25 0 0 0 -5.93 2.18 12.64 12.64 0 0 0 -4.07 3.27 6.48 6.48 0 0 0 -1.51 4.12 5.14 5.14 0 0 0 1.71 4 6.33 6.33 0 0 0 4.44 1.56 7.36 7.36 0 0 0 2.93-.51 4.35 4.35 0 0 0 1.79-1.37 5.22 5.22 0 0 0 .88-2 10.6 10.6 0 0 0 .26-2.33 5.48 5.48 0 0 1 1.23-3.65c.8-1 2.22-1.48 4.27-1.48a5.42 5.42 0 0 1 4.18 1.7q1.55 1.69 1.55 5.81v4.21l-1.42.34c-1.74.53-3.51 1.09-5.29 1.67s-3.5 1.24-5.15 1.94a42.48 42.48 0 0 0 -4.63 2.3 18.89 18.89 0 0 0 -3.79 2.85 12.44 12.44 0 0 0 -2.56 3.58 10.39 10.39 0 0 0 -.94 4.44 10.89 10.89 0 0 0 .89 4.41 10 10 0 0 0 2.53 3.5 12.13 12.13 0 0 0 4 2.33 15.51 15.51 0 0 0 5.32.85 19.56 19.56 0 0 0 3.75-.31 13.43 13.43 0 0 0 2.87-.88 11.75 11.75 0 0 0 2.31-1.34q1-.76 2.1-1.68v3.42z"/></g><path d="m47.52 82.35a5.85 5.85 0 1 1 5.85-5.84 5.85 5.85 0 0 1 -5.85 5.84z" fill="currentColor"/><path d="m47.52 72.85a3.66 3.66 0 1 1 -3.66 3.66 3.66 3.66 0 0 1 3.66-3.66m0-4.38a8 8 0 1 0 8 8 8 8 0 0 0 -8-8z" fill="#32363b"/><path d="m129 82.35a5.85 5.85 0 1 1 5.85-5.84 5.85 5.85 0 0 1 -5.85 5.84z" fill="currentColor"/><path d="m129 72.85a3.66 3.66 0 1 1 -3.66 3.66 3.66 3.66 0 0 1 3.66-3.66m0-4.38a8 8 0 1 0 8 8 8 8 0 0 0 -8-8z" fill="#32363b"/><path d="m139.56 64.27a5.85 5.85 0 1 1 5.85-5.84 5.85 5.85 0 0 1 -5.85 5.84z" fill="currentColor"/><path d="m139.56 54.77a3.66 3.66 0 1 1 -3.66 3.66 3.66 3.66 0 0 1 3.66-3.66m0-4.38a8 8 0 1 0 8 8 8 8 0 0 0 -8-8z" fill="#32363b"/><path d="m150.11 82.35a5.85 5.85 0 1 1 5.89-5.84 5.85 5.85 0 0 1 -5.89 5.84z" fill="currentColor"/><path d="m150.11 72.85a3.66 3.66 0 1 1 -3.66 3.66 3.66 3.66 0 0 1 3.66-3.66m0-4.38a8 8 0 1 0 8 8 8 8 0 0 0 -8-8z" fill="#32363b"/></svg>