<?xml version="1.0" encoding="utf-8"?>
<!-- Generator: Adobe Illustrator 24.2.1, SVG Export Plug-In . SVG Version: 6.00 Build 0)  -->
<svg version="1.1" id="Layer_1" xmlns="http://www.w3.org/2000/svg" xmlns:xlink="http://www.w3.org/1999/xlink" x="0px" y="0px"
	 viewBox="0 0 69.6 92.5" style="enable-background:new 0 0 69.6 92.5;" xml:space="preserve">
<style type="text/css">
	.st0{fill:#CCCCCC;}
	.st1{fill:none;}
	.st2{fill:#32363B;}
</style>
<g id="Layer_2_1_">
	<g id="Layer_1-2">
		
			<rect x="-1.2" y="18.2" transform="matrix(0.9101 -0.4144 0.4144 0.9101 -5.8424 12.7616)" class="st0" width="55.4" height="3.3"/>
		<path class="st1" d="M45.2,27.2c-0.5-0.5-2.8-0.9-6.2,0.5c-3.6,1.5-4.8,3.7-4.6,4.2l14.5,33.8l0.7-0.3L45.2,27.2z"/>
		<path class="st1" d="M31,33.4c-0.2-0.5-2.7-1.1-6.2,0.4c-3.3,1.4-4.6,3.4-4.6,4.1L45,67.5l0.7-0.3L31,33.4z"/>
		<path class="st1" d="M59.2,21.1c-0.7-0.4-3-0.7-6,0.6c-3.6,1.5-4.8,3.7-4.6,4.2l0,0V26v0.1v0.1v0.1l0,0l0,0L53,64.1l0.4-0.2
			L59.2,21.1z"/>
		<path class="st1" d="M21.3,6C8.2,11.6,1.1,25.9,4.5,39.7c1.4-1.3,2.9-2.4,4.7-3.1c2.5-1.2,5.3-1.6,8-1c1.4-2.3,3.6-4.1,6.2-5.1
			c2.5-1.2,5.3-1.6,8-1c1.4-2.3,3.6-4.1,6.2-5.1c2.5-1.2,5.3-1.6,8-1c1.4-2.3,3.6-4.1,6.2-5.1c1.7-0.8,3.6-1.2,5.5-1.3
			C49.6,5,34.4,0.4,21.3,6z"/>
		<path class="st1" d="M17.1,40L17.1,40L17.1,40C17,39.9,17,39.9,17,39.8v-0.1v-0.1l-0.1-0.1l0,0c-0.2-0.5-2.7-1.1-6.2,0.4
			c-3,1.3-4.4,3.1-4.6,3.9l35,25.3l0.4-0.2L17.1,40z"/>
		<path class="st2" d="M19.9,2.6C3.3,9.7-4.4,28.9,2.6,45.6l0,0v0.1v0.1v0.1V46v0.1L2.7,46l0.1,0.1l0.1,0.1l0,0H3l0,0l33.9,24.5
			l4.1-1.6L6,43.8c0.2-0.8,1.6-2.6,4.6-3.9c3.6-1.5,6-0.9,6.2-0.4l0,0l0.1,0.1v0.1v0.1c0,0,0,0.1,0.1,0.1l0,0l0,0L41.4,69l3.5-1.5
			L20.1,37.9c0-0.7,1.4-2.7,4.6-4.1c3.6-1.5,6-0.9,6.2-0.4l14.5,33.8l3.3-1.4L34.4,32c-0.2-0.5,1.1-2.7,4.6-4.2
			c3.3-1.4,5.7-1,6.2-0.5l4.3,38.3l3.5-1.5l0,0l-4.3-37.6l0,0l0,0v-0.1v-0.1v-0.1v-0.1l0,0c-0.2-0.5,1.1-2.7,4.6-4.2
			c3.1-1.3,5.3-1,6-0.6L53.5,64l3.9-1.7L63,20.9l0,0v-0.1v-0.2l0,0v-0.2v-0.1v-0.1c0,0,0,0,0-0.1V20c0,0,0,0,0-0.1v-0.1l0,0
			C56,3.2,36.8-4.5,20.1,2.5C20,2.6,19.9,2.6,19.9,2.6z M51.8,18.4c-2.6,1-4.8,2.8-6.2,5.1c-2.7-0.6-5.5-0.2-8,1
			c-2.6,1-4.8,2.8-6.2,5.1c-2.7-0.6-5.5-0.2-8,1c-2.6,1-4.8,2.8-6.2,5.1c-2.7-0.6-5.5-0.2-8,1c-1.8,0.7-3.3,1.8-4.7,3.1
			C0.6,24.2,10.1,8.4,25.7,4.6c12.1-3,24.8,2.1,31.5,12.6C55.4,17.3,53.5,17.7,51.8,18.4z"/>
		<g>
			<path class="st0" d="M33.1,74.6L38.4,87c0.6,1.4,1.9,2.4,3.5,2.6l13.5,1.6c1.5,0.2,3.1-0.5,4-1.7l8.1-10.8
				c0.9-1.3,1.1-2.9,0.5-4.3l-5.3-12.5c-0.6-1.4-1.9-2.4-3.5-2.6l-13.5-1.6c-1.5-0.2-3.1,0.5-4,1.7l-8.1,10.9
				C32.7,71.5,32.5,73.1,33.1,74.6"/>
			<g>
				<polygon class="st2" points="69.8,73.6 69.8,73.6 69.8,73.6 				"/>
				<path class="st2" d="M69.8,73.6l-5.3-12.5l0,0c-0.9-2-2.8-3.5-5.1-3.8l0,0l-13.5-1.6l0,0c-0.3,0-0.5,0-0.8,0c-1,0-2,0.2-2.8,0.7
					c-0.9,0.4-1.6,1.1-2.2,1.9l0,0L32,69.1l0,0c-0.8,1.1-1.2,2.4-1.2,3.8c0,0.8,0.2,1.7,0.5,2.5c0,0,0,0,0,0c0,0,0,0,0,0l5.3,12.4
					l0,0c0.9,2,2.8,3.5,5.1,3.8l0,0l13.5,1.6l0,0c0.3,0,0.5,0,0.8,0c1,0,2-0.2,2.8-0.7c0.9-0.4,1.6-1.1,2.2-1.9l0,0l8.1-10.8l0,0
					c0.8-1.1,1.2-2.4,1.2-3.8C70.3,75.2,70.2,74.4,69.8,73.6z M57.8,88.3c-0.2,0.3-0.5,0.5-0.8,0.7c-0.3,0.2-0.7,0.3-1.1,0.3l-0.3,0
					l0,0l-13.5-1.6c-0.9-0.1-1.6-0.7-1.9-1.4l0,0L35,73.9c-0.1-0.3-0.2-0.7-0.2-1c0-0.5,0.2-1,0.4-1.4l0,0l8.1-10.9
					c0.2-0.3,0.5-0.5,0.8-0.7c0.3-0.2,0.7-0.3,1.1-0.3l0.3,0l0,0L59,61.3c0.9,0.1,1.6,0.7,1.9,1.4l5.3,12.5l0,0
					c0.1,0.3,0.2,0.6,0.2,0.9c0,0.5-0.2,1-0.5,1.5L57.8,88.3z"/>
			</g>
		</g>
	</g>
</g>
</svg>
