<?xml version="1.0" encoding="utf-8"?>
<!-- Generator: Adobe Illustrator 24.2.1, SVG Export Plug-In . SVG Version: 6.00 Build 0)  -->
<svg version="1.1" id="Layer_1" xmlns="http://www.w3.org/2000/svg" xmlns:xlink="http://www.w3.org/1999/xlink" x="0px" y="0px"
	 viewBox="0 0 247.6 246.8" style="enable-background:new 0 0 247.6 246.8;" xml:space="preserve">
<style type="text/css">
	.st0{fill:#CCCCCC;}
	.st1{fill:#32363B;}
</style>
<g>
	<g>
		<path class="st0" d="M169.9,151.3c3.1,1.9,8.1,7.1,10.7,9.9L161.8,180c-2.9-2.5-8-7.6-9.9-10.7l-15.2,6.3
			c0.8,3.6,0.8,10.8,0.5,14.6h-26.6c-0.2-3.8-0.3-11,0.5-14.6l-15.2-6.3c-1.9,3.1-7.1,8.1-9.9,10.7l-18.8-18.8
			c2.5-2.9,7.6-8,10.7-9.9l-6.3-15.2c-3.6,0.8-10.8,0.8-14.6,0.5V110c3.8-0.2,11-0.3,14.6,0.5l6.3-15.2c-3.1-1.9-8.1-7.1-10.7-9.9
			L86,66.6c2.9,2.5,8,7.6,9.9,10.7l15.2-6.3c-0.8-3.6-0.8-10.8-0.5-14.6h26.6c0.2,3.8,0.3,11-0.5,14.6l15.2,6.3
			c1.9-3.1,7.1-8.1,9.9-10.7l18.8,18.8c-2.5,2.9-7.6,8-10.7,9.9l6.3,15.2c3.6-0.8,10.8-0.8,14.6-0.5v26.6c-3.8,0.2-11,0.3-14.6-0.5
			L169.9,151.3z M147.4,99.7c-13.1-13-34.2-13-47.3,0s-13,34.2,0,47.3c13.1,13,34.2,13,47.3,0S160.5,112.8,147.4,99.7z"/>
		<circle class="st0" cx="123.8" cy="123.4" r="18.9"/>
	</g>
	<path class="st1" d="M100.7,1.9l20.4,19c1.2,1.1,1.2,3,0,4.1l-20.5,19c-1.1,1.1-2.9,1-4-0.1l0,0c-1-1.1-1-2.9,0.1-3.9l12.3-11.4
		H48.4c-11,0-20,9-20,20v56.1c0,1.5-1.3,2.8-2.8,2.8h-5.4c-1.5,0-2.8-1.3-2.8-2.8v-59c0-15.5,12.6-28.2,28.2-28.2h63.6L96.9,6
		c-1.1-1-1.2-2.8-0.1-3.9l0,0C97.8,0.9,99.6,0.9,100.7,1.9z M219.2,48.4v60.8l-11.4-12.3c-1-1.1-2.8-1.2-3.9-0.2l0,0
		c-1.1,1-1.2,2.8-0.1,3.9l19,20.4c1.1,1.2,3,1.2,4.1,0l19-20.4c1-1.1,1-2.9-0.1-3.9l0,0c-1.1-1-2.9-1-3.9,0.1l-11.4,12.3V45.6
		c0-15.5-12.6-28.2-28.2-28.2h-58.9c-1.5,0-2.8,1.3-2.8,2.8v5.4c0,1.5,1.3,2.8,2.8,2.8h56.1C210.2,28.4,219.2,37.4,219.2,48.4z
		 M219.2,198.4c0,11-9,20-20,20h-60.8l12.3-11.4c1.1-1,1.2-2.8,0.1-3.9l0,0c-1-1.1-2.8-1.2-3.9-0.1l-20.4,19c-1.2,1.1-1.2,3,0,4.1
		l20.4,19c1.1,1,2.9,1,3.9-0.1l0,0c1-1.1,1-2.9-0.1-3.9l-12.3-11.4H202c15.5,0,28.2-12.6,28.2-28.2v-58.9c0-1.5-1.3-2.8-2.8-2.8H222
		c-1.5,0-2.8,1.3-2.8,2.8V198.4z M28.4,201.2v-63.6l11.4,12.3c1,1.1,2.8,1.2,3.9,0.1l0,0c1.1-1,1.2-2.8,0.1-3.9l-19-20.4
		c-1.1-1.2-3-1.2-4.1,0l-19,20.4c-1,1.1-1,2.9,0.1,3.9l0,0c1.1,1,2.9,1,3.9-0.1l11.4-12.3v63.6c0,15.5,12.6,28.2,28.2,28.2h58.9
		c1.5,0,2.8-1.3,2.8-2.8v-5.4c0-1.5-1.3-2.8-2.8-2.8H45.6C36.2,218.4,28.4,210.7,28.4,201.2z"/>
</g>
</svg>
