<svg viewBox="0 0 200 200" xmlns="http://www.w3.org/2000/svg"><path d="m125 75a10 10 0 0 1 -10 10 9.76 9.76 0 0 1 -5-1.41l-16.39 16.41a9.83 9.83 0 0 1 1.39 5 10 10 0 0 1 -20 0 9.83 9.83 0 0 1 1.42-5l-11.34-11.41a9.79 9.79 0 0 1 -5.08 1.41 10 10 0 0 1 -9.64-7.49h-10.06a47.49 47.49 0 1 0 88.76-18l-5.45 5.49a9.87 9.87 0 0 1 1.39 5z" fill="currentColor"/><g fill="#32363b"><path d="m150 50a10 10 0 0 0 9.64-7.5h15.36v-5h-15.33a10 10 0 0 0 -19.67 2.5 9.82 9.82 0 0 0 1.41 5l-4.39 4.4a62.49 62.49 0 1 0 -15.57 90.6l31.2 31.2a13.11 13.11 0 1 0 18.54-18.53l-20.13-20.17-3.53-3.5-7.53-7.58a62.29 62.29 0 0 0 0-67.83l5-5a9.87 9.87 0 0 0 5 1.41zm0-15a5 5 0 1 1 -5 5 5 5 0 0 1 5-5zm-6 97.49-11.47 11.51-6.92-6.92c.35-.27.68-.57 1-.85l1.12-.92c.55-.46 1.09-.92 1.62-1.4l.8-.75c1-1 2-1.95 3-3l.75-.8q.72-.79 1.41-1.62c.31-.37.62-.74.92-1.12s.57-.67.84-1zm-4-45a52.5 52.5 0 1 1 -52.47-52.49 52.5 52.5 0 0 1 52.47 52.51z"/><path d="m90 105a5 5 0 1 0 -5 5 5 5 0 0 0 5-5z"/><path d="m120 75a5 5 0 1 0 -5 5 5 5 0 0 0 5-5z"/></g><path d="m87.53 40a47.56 47.56 0 0 0 -46.42 37.5h9.28a10 10 0 0 1 19.61 2.5 9.83 9.83 0 0 1 -1.42 5l11.42 11.42a9.7 9.7 0 0 1 10.1 0l16.37-16.37a9.83 9.83 0 0 1 -1.47-5.05 10 10 0 0 1 10-10 9.83 9.83 0 0 1 5 1.42l6.25-6.25a47.46 47.46 0 0 0 -38.72-20.17z" fill="currentColor"/><path d="m65 80a5 5 0 1 0 -5 5 5 5 0 0 0 5-5z" fill="#32363b"/><path d="m150 35a5 5 0 1 1 -5 5 5 5 0 0 1 5-5z" fill="currentColor"/></svg>