<svg viewBox="0 0 200 200" xmlns="http://www.w3.org/2000/svg"><path d="m103.83 80.38v3.31c20.35 0 36.91 7.27 37.7 16.55.42 4.82-3.53 10.12-10.82 14.53-8.1 4.9-19.23 8.17-31.34 9.21-2.64.23-5.29.34-7.88.34-20.35 0-36.91-7.27-37.71-16.55-.41-4.77 3.53-10.12 10.82-14.53 8.11-4.9 19.24-8.17 31.34-9.21 2.64-.23 5.29-.34 7.89-.34zm0 0c-2.66 0-5.39.11-8.17.35-26.05 2.27-46.28 14.47-45.18 27.32 1 11.49 18.67 19.58 41 19.58 2.66 0 5.39-.11 8.17-.35 26.05-2.24 46.28-14.47 45.17-27.32-1-11.49-18.66-19.58-41-19.58z" fill="#32363b"/><path d="m95.57 82.23c-5.5-.33-15 2.54-22.89 5.4a23.38 23.38 0 0 0 -1.87 9.2c0 13.36 12.11 24.19 24.92 24.19s24-10.85 24.92-24.19a20.89 20.89 0 0 0 -3.26-12 217.93 217.93 0 0 0 -21.82-2.6z" fill="#fff"/><g fill="currentColor"><path d="m81.22 96.26a19.83 19.83 0 0 1 2.52-4.13 2.76 2.76 0 0 1 -.18-.95 2.72 2.72 0 0 1 2.72-2.73 2.6 2.6 0 0 1 1 .2 19.83 19.83 0 0 1 16.38-3.6c.55.12 1.08.27 1.61.44a21.79 21.79 0 0 0 -16.49 4.63 2.64 2.64 0 0 1 .22 1.06 2.72 2.72 0 0 1 -2.72 2.72 2.83 2.83 0 0 1 -1-.18 18.25 18.25 0 0 0 -2.46 4.51 20.24 20.24 0 0 0 7.71 5.24c0-.14 0-.28 0-.43a8.2 8.2 0 0 1 16.28-1.37 21.21 21.21 0 0 0 5.32-4.86 2.42 2.42 0 0 1 -.57-1.55 2.48 2.48 0 0 1 2.44-2.47 2.52 2.52 0 0 1 .56.07 21.8 21.8 0 0 0 1.74-4.86c-7.09-5.24-20.79-4.53-20.79-4.53s-10.91-.57-18.29 3a21.76 21.76 0 0 0 4 9.79z"/><path d="m115.69 93.44a2.43 2.43 0 0 1 .82 1.82 2.47 2.47 0 0 1 -2.51 2.47 2.58 2.58 0 0 1 -.4 0 19.91 19.91 0 0 1 -6 6 20.1 20.1 0 0 1 9.6 4.32 24.69 24.69 0 0 0 3.15-12.12 9.38 9.38 0 0 0 -3.71-7.6 20.11 20.11 0 0 1 -.95 5.11z"/><path d="m85.94 116.57a19.87 19.87 0 0 1 6.18-8.7 8.39 8.39 0 0 1 -1-1.86 19.91 19.91 0 0 1 -8.91-5.64v.23a17.78 17.78 0 0 0 -.31 6 3.57 3.57 0 0 1 1.76 6.13 21.52 21.52 0 0 0 2.28 3.84z"/><path d="m85.34 118.55a20.13 20.13 0 0 1 -3.63-4.93 3.29 3.29 0 0 1 -.54 0 3.58 3.58 0 0 1 -1.56-6.8 19.85 19.85 0 0 1 .33-6.76c.15-.65.33-1.29.53-1.92a19.73 19.73 0 0 1 -3.47-11.14c0-.16 0-.31 0-.46-3.69 1.85-6.45 4.76-6.45 9.34a24.92 24.92 0 0 0 14.74 22.75.19.19 0 0 1 .05-.08z"/><path d="m106.47 105.76a8.18 8.18 0 0 1 -12.79 3.73 20.4 20.4 0 0 0 -6.37 8.7 21.63 21.63 0 0 0 1.9 1.81 24.92 24.92 0 0 0 27.2-10.54 21 21 0 0 0 -9.94-3.7z"/></g><path d="m106.76 103.65 7.58-1.81-7.61-.39 6.19-4.73-7 2.52 4.77-6.62-6.61 4.38 2.31-7.75-4.53 6.38-.11-8.06-3 7.18-2.49-7.27.14 8.57-4.3-7.68 2.33 8.15-7-5.06 5.57 6.86-8.7-3.18 6.83 5-8.75.27 8.94 2.31-8.95 1.93 8.84.64-7.46 4.78 7.68-2.79-5.33 6.75 6.73-5.43-2.42 9 5.19-7.36-.73 8.76 2.95-7.88 2.51 8.29.61-8.32 3.73 7.1-2.2-8.11 6.82 5.28-4.41-6.74 7.49 2.92-5.72-5.63 7.67.61z" fill="#fff"/><path d="m27.05 116.36c23.5-23.5 42.27-30.75 59.31-34.07 2.25-.43 2.68-5.36 2.68-5.36s.31 3.63 1.89 4.1 3.63-5.68 3.63-5.68-1.89 5.53 0 5.84 5.36-5.36 5.36-5.36-1.42 4.89-.47 5.2 5.68-7.1 5.68-7.1-2.84 4.89-.16 5.37 6.59-3.3 6.59-3.3-3.07 3.49-1.7 4c5.83 2 10.55-5.54 10.55-5.54a25.47 25.47 0 0 1 -3.93 7c6.15 1.58 10.72-7.69 10.72-7.69l-4.57 9.27c2.37 1.26 11.83-9.63 11.83-9.63s-4.89 8.52-7.72 10.26c1.57 1.26 7.25-3.79 7.25-3.79s-4.57 5.68-2.84 6c2.53 1.94 11.85-10.68 11.85-10.68a64.21 64.21 0 0 1 -9 13.25c4.48 2.24 15.62-12.15 15.62-12.15s-.32 4.58-8.36 11.83c5.98-.79 13.74-12.13 13.74-12.13a37.7 37.7 0 0 1 -9.62 14.52c5.88-.62 15.3-15.15 15.3-15.15s-3.63 10.1-11 15.93c8.2 1.82 20-10.4 20-10.4s-4.68 8.65-10.77 12.2c6.78 2.6 16.09-8.1 16.09-8.1s-9.31 14.35-24.13 13.72c-4.87-.21-19.58-14.76-51.11-13.57-41.64 1.56-50.47 19.23-72.71 31.21zm-2.05 2.94c12.42 6.23 23.78-1 38.09 3.09 10.88 3.06 24.13 6.84 42.11 4.24s33.36-10.41 40.7-24.37c2.28-6.23 11.59 1.42 11.59 1.42s-6.78-2.84-6.62-1.49 10.17 6 10.17 6-9.07-2.84-8.52-.71 11.36 10.65 11.36 10.65-12.23-9.31-13.25-8.05 5.2 6.39 5.2 6.39-10.33-6.39-14-4.51c-2.61 1.36 10.72 10.11 10.72 10.11s-8.67-6.63-10.72-4.89 9.78 15.93 9.78 15.93-13.41-14.51-14.75-13.8 3.7 7.65 3.7 7.65-6.62-7.26-8.43-6 9.46 20.11 9.46 20.11-12.18-19.33-17.22-16.07c7.92 17.39 5 19.87 5 19.87s-1-17.74-10.89-17.27c-5 .24 2.37 13.25 2.37 13.25s-6.75-11.89-11.25-11.65c8.29 15.68 5.33 22.06 5.33 22.06s1.37-13.4-9.86-20.85c4.26 3.79-2.67 20.85-2.67 20.85s6.09-25.14-4.5-20.35c-1.67.76-.12 12.54-.12 12.54s-2.16-13.45-5.35-12.8c-1.86.42-11.83 18.69-11.83 18.69s8.16-19.75 5.68-18.92c-1.81.6-5.21 8.75-5.21 8.75s1.66-8 0-8.52-10.88 8.52-10.88 8.52 6.86-8 5.68-9.7c-1.8-2.51-3.9-2.63-6.39-1.65-3.63 1.41-8.52 8-8.52 8s4.87-6.71 4-9.23c-1.36-4-15.37 7.81-15.37 7.81s8.3-7.77 6.41-9.4-12.17-1.15-15.38-1.16c-9.47-.05-12.75-2.27-15.62-4.54z" fill="#32363b"/></svg>