<svg viewBox="0 0 200 200" xmlns="http://www.w3.org/2000/svg"><g fill="currentColor"><path d="m129.89 117.5-13.75 9.82z"/><path d="m101.65 137.88-22.83 16.2z"/><path d="m163.52 93.44-20.87-11.53-17.43 10.8-.24 10.8-8.6-5.65-11.53 7.14c.73 18.17.73 17.43.73 17.43l-28.48 19.13-4.41-30.68 31.67-18.17-11.79-7.61-22.09 11.29-6.14-42 37.81-14.48-26.76-12.75-36.83 11.54 8.1 39.52 12.28 9.58-9.33 4.42 6.14 29.7 8.59 8.1-6.14 3.69 4.91 23.07 19.4 20.38c-3.44-23.81-3.44-23.08-3.44-23.08l22.83-16.2c4.91-3.68 4.42-3.19 4.42-3.19l.24 7.12 9.82 8.35-.24-22.59 13.75-9.82 7.85-5.4-.74 10.55 7.36 5.16 2-21.85z"/><path d="m146.34 105.72-1.97 22.09z"/><path d="m79.07 154.08s-.25-.73 3.44 23.08z"/><path d="m116.14 127.32.24 22.84z"/></g></svg>