<svg xmlns="http://www.w3.org/2000/svg" xmlns:xlink="http://www.w3.org/1999/xlink" viewBox="0 0 100.94 100.94"><defs><style>.cls-1-37b100197264e8a6c96428f93347d043,.cls-5-37b100197264e8a6c96428f93347d043{fill:none;}.cls-2-37b100197264e8a6c96428f93347d043{fill:#010101;}.cls-3-37b100197264e8a6c96428f93347d043{clip-path:url(#clip-path);}.cls-4-37b100197264e8a6c96428f93347d043{fill:currentColor;}.cls-5-37b100197264e8a6c96428f93347d043{stroke:#010101;stroke-linecap:round;stroke-miterlimit:10;stroke-width:1.57px;}</style><clipPath id="clip-path"><rect class="cls-1-37b100197264e8a6c96428f93347d043" x="22.41" y="22.41" width="56.11" height="56.11" rx="3.3"/></clipPath></defs><title>dedicatedCPU</title><g id="Layer_2" data-name="Layer 2"><g id="Layer_1-2" data-name="Layer 1"><path class="cls-2-37b100197264e8a6c96428f93347d043" d="M76.64,13H24.3A11.26,11.26,0,0,0,13,24.3V76.64A11.26,11.26,0,0,0,24.3,87.89H76.64A11.25,11.25,0,0,0,87.89,76.64V24.3A11.26,11.26,0,0,0,76.64,13Zm7.48,63.24a7.84,7.84,0,0,1-7.84,7.84H24.66a7.84,7.84,0,0,1-7.84-7.84V24.66a7.84,7.84,0,0,1,7.84-7.84H76.28a7.84,7.84,0,0,1,7.84,7.84Z"/><g class="cls-3-37b100197264e8a6c96428f93347d043"><rect class="cls-4-37b100197264e8a6c96428f93347d043" x="11.46" y="13.04" width="81.6" height="72.58"/></g><line class="cls-5-37b100197264e8a6c96428f93347d043-37b100197264e8a6c96428f93347d043" x1="0.79" y1="25.07" x2="8.6" y2="25.07"/><line class="cls-5-37b100197264e8a6c96428f93347d043-37b100197264e8a6c96428f93347d043" x1="0.79" y1="31.42" x2="8.6" y2="31.42"/><line class="cls-5-37b100197264e8a6c96428f93347d043-37b100197264e8a6c96428f93347d043" x1="0.79" y1="37.77" x2="8.6" y2="37.77"/><line class="cls-5-37b100197264e8a6c96428f93347d043-37b100197264e8a6c96428f93347d043" x1="0.79" y1="44.12" x2="8.6" y2="44.12"/><line class="cls-5-37b100197264e8a6c96428f93347d043-37b100197264e8a6c96428f93347d043" x1="0.79" y1="50.47" x2="8.6" y2="50.47"/><line class="cls-5-37b100197264e8a6c96428f93347d043-37b100197264e8a6c96428f93347d043" x1="0.79" y1="56.82" x2="8.6" y2="56.82"/><line class="cls-5-37b100197264e8a6c96428f93347d043-37b100197264e8a6c96428f93347d043" x1="0.79" y1="63.17" x2="8.6" y2="63.17"/><line class="cls-5-37b100197264e8a6c96428f93347d043-37b100197264e8a6c96428f93347d043" x1="0.79" y1="69.51" x2="8.6" y2="69.51"/><line class="cls-5-37b100197264e8a6c96428f93347d043-37b100197264e8a6c96428f93347d043" x1="0.79" y1="75.86" x2="8.6" y2="75.86"/><line class="cls-5-37b100197264e8a6c96428f93347d043-37b100197264e8a6c96428f93347d043" x1="100.15" y1="25.07" x2="92.34" y2="25.07"/><line class="cls-5-37b100197264e8a6c96428f93347d043-37b100197264e8a6c96428f93347d043" x1="100.15" y1="31.42" x2="92.34" y2="31.42"/><line class="cls-5-37b100197264e8a6c96428f93347d043-37b100197264e8a6c96428f93347d043" x1="100.15" y1="37.77" x2="92.34" y2="37.77"/><line class="cls-5-37b100197264e8a6c96428f93347d043-37b100197264e8a6c96428f93347d043" x1="100.15" y1="44.12" x2="92.34" y2="44.12"/><line class="cls-5-37b100197264e8a6c96428f93347d043-37b100197264e8a6c96428f93347d043" x1="100.15" y1="50.47" x2="92.34" y2="50.47"/><line class="cls-5-37b100197264e8a6c96428f93347d043-37b100197264e8a6c96428f93347d043" x1="100.15" y1="56.82" x2="92.34" y2="56.82"/><line class="cls-5-37b100197264e8a6c96428f93347d043-37b100197264e8a6c96428f93347d043" x1="100.15" y1="63.17" x2="92.34" y2="63.17"/><line class="cls-5-37b100197264e8a6c96428f93347d043-37b100197264e8a6c96428f93347d043" x1="100.15" y1="69.51" x2="92.34" y2="69.51"/><line class="cls-5-37b100197264e8a6c96428f93347d043-37b100197264e8a6c96428f93347d043" x1="100.15" y1="75.86" x2="92.34" y2="75.86"/><line class="cls-5-37b100197264e8a6c96428f93347d043-37b100197264e8a6c96428f93347d043" x1="75.86" y1="0.79" x2="75.86" y2="8.6"/><line class="cls-5-37b100197264e8a6c96428f93347d043-37b100197264e8a6c96428f93347d043" x1="69.51" y1="0.79" x2="69.51" y2="8.6"/><line class="cls-5-37b100197264e8a6c96428f93347d043-37b100197264e8a6c96428f93347d043" x1="63.17" y1="0.79" x2="63.17" y2="8.6"/><line class="cls-5-37b100197264e8a6c96428f93347d043-37b100197264e8a6c96428f93347d043" x1="56.82" y1="0.79" x2="56.82" y2="8.6"/><line class="cls-5-37b100197264e8a6c96428f93347d043-37b100197264e8a6c96428f93347d043" x1="50.47" y1="0.79" x2="50.47" y2="8.6"/><line class="cls-5-37b100197264e8a6c96428f93347d043-37b100197264e8a6c96428f93347d043" x1="44.12" y1="0.79" x2="44.12" y2="8.6"/><line class="cls-5-37b100197264e8a6c96428f93347d043-37b100197264e8a6c96428f93347d043" x1="37.77" y1="0.79" x2="37.77" y2="8.6"/><line class="cls-5-37b100197264e8a6c96428f93347d043-37b100197264e8a6c96428f93347d043" x1="31.42" y1="0.79" x2="31.42" y2="8.6"/><line class="cls-5-37b100197264e8a6c96428f93347d043-37b100197264e8a6c96428f93347d043" x1="25.07" y1="0.79" x2="25.07" y2="8.6"/><line class="cls-5-37b100197264e8a6c96428f93347d043-37b100197264e8a6c96428f93347d043" x1="75.86" y1="100.15" x2="75.86" y2="92.34"/><line class="cls-5-37b100197264e8a6c96428f93347d043-37b100197264e8a6c96428f93347d043" x1="69.51" y1="100.15" x2="69.51" y2="92.34"/><line class="cls-5-37b100197264e8a6c96428f93347d043-37b100197264e8a6c96428f93347d043" x1="63.17" y1="100.15" x2="63.17" y2="92.34"/><line class="cls-5-37b100197264e8a6c96428f93347d043-37b100197264e8a6c96428f93347d043" x1="56.82" y1="100.15" x2="56.82" y2="92.34"/><line class="cls-5-37b100197264e8a6c96428f93347d043-37b100197264e8a6c96428f93347d043" x1="50.47" y1="100.15" x2="50.47" y2="92.34"/><line class="cls-5-37b100197264e8a6c96428f93347d043-37b100197264e8a6c96428f93347d043" x1="44.12" y1="100.15" x2="44.12" y2="92.34"/><line class="cls-5-37b100197264e8a6c96428f93347d043-37b100197264e8a6c96428f93347d043" x1="37.77" y1="100.15" x2="37.77" y2="92.34"/><line class="cls-5-37b100197264e8a6c96428f93347d043-37b100197264e8a6c96428f93347d043" x1="31.42" y1="100.15" x2="31.42" y2="92.34"/><line class="cls-5-37b100197264e8a6c96428f93347d043-37b100197264e8a6c96428f93347d043" x1="25.07" y1="100.15" x2="25.07" y2="92.34"/></g></g></svg>