<svg xmlns="http://www.w3.org/2000/svg" viewBox="0 0 210.6 204.6">
	<title>Kubernetes</title>
  <path fill="currentColor" d="M206.4 123.6L188.9 48c-.9-4-3.6-7.3-7.3-9.1L111.1 5.2c-3.7-1.8-8-1.8-11.7 0L28.9 38.9c-3.7 1.8-6.3 5.1-7.3 9.1L4.2 123.7c-.4 1.9-.4 3.9 0 5.8.1.6.3 1.2.5 1.7.3 1 .8 1.9 1.3 2.7.2.4.5.7.8 1.1l48.8 60.7c.2.3.4.5.7.8.8.8 1.6 1.5 2.6 2.1 1.2.8 2.5 1.3 3.9 1.7 1.1.3 2.3.5 3.4.5h78.3c.5 0 .9 0 1.4-.1.7-.1 1.3-.2 2-.4.5-.1.9-.3 1.4-.4.4-.1.7-.3 1-.4.5-.2 1-.5 1.5-.8 1.2-.8 2.3-1.7 3.2-2.9l1.5-1.8 47.3-58.8c.9-1.1 1.6-2.4 2.1-3.8.2-.6.4-1.1.5-1.7.4-2.2.4-4.1 0-6.1z"/>
  <path fill="#32363b" d="M105.2 152c-25.5 0-46.3-20.8-46.3-46.3s20.8-46.3 46.3-46.3 46.3 20.8 46.3 46.3-20.8 46.3-46.3 46.3zm0-84.6c-21.2 0-38.4 17.2-38.4 38.4s17.2 38.4 38.4 38.4 38.4-17.2 38.4-38.4-17.3-38.4-38.4-38.4z"/>
  <path fill="#fff" d="M171.9 115.7l-45.6-9.6v-.3c0-3.5-.9-6.8-2.4-9.6l36.9-28.7c1.7-1.4 2.1-3.8.7-5.6-1.4-1.7-3.8-2.1-5.6-.7L119 89.9c-2.8-2.4-6.1-4.2-9.9-4.9V38.2c0-2.1-1.7-4-4-4-2.1 0-4 1.7-4 4v46.9c-3.7.7-7 2.3-9.6 4.7L55.3 60.7c-1.7-1.4-4.2-1-5.6.5-1.4 1.7-1 4.2.5 5.6l36.2 29.1c-1.6 3-2.4 6.3-2.4 9.9v.9l-45.5 10.6c-2.1.5-3.5 2.6-3 4.7.3 1.7 2.1 3 3.8 3 .3 0 .5 0 .9-.2l45.5-10.6c1.4 3.3 3.7 6.1 6.4 8.2l-20.9 41.8c-1 1.9-.2 4.4 1.7 5.2.5.3 1.2.3 1.7.3 1.4 0 2.8-.9 3.5-2.1L99.2 126c1.9.5 3.8.9 5.7.9s3.8-.3 5.6-.7l20.6 42c.7 1.4 2.1 2.3 3.5 2.3.5 0 1.2-.2 1.7-.3 1.9-.9 2.8-3.3 1.7-5.2l-20.2-42.3c3-2.3 5.4-5.2 6.8-8.7l45.6 9.6h.9c1.7 0 3.5-1.2 3.8-3.1.5-2.2-.9-4.3-3-4.8zM95.6 98.1l9.6-4.5 9.6 4.5 2.4 10.3-6.6 8.4H99.9l-6.8-8.2 2.5-10.5z"/>
</svg>