<svg viewBox="0 0 200 200" xmlns="http://www.w3.org/2000/svg"><path d="m29.5 29.5h140.66v140.66h-140.66z" fill="#fff"/><path d="m172.23 175h-144.63a2.66 2.66 0 0 1 -2.6-2.6v-144.8a2.66 2.66 0 0 1 2.6-2.6h144.8a2.66 2.66 0 0 1 2.6 2.6v144.8a2.7 2.7 0 0 1 -2.77 2.6zm-138.23-6.75h131.66a2.37 2.37 0 0 0 2.42-2.42v-131.83a2.37 2.37 0 0 0 -2.42-2.43h-131.66a2.37 2.37 0 0 0 -2.43 2.43v131.66a2.41 2.41 0 0 0 2.43 2.59z" fill="#32363b"/><g fill="currentColor"><path d="m42.65 77.42 19-21.61v-24.24h-27.65a2.48 2.48 0 0 0 -2.43 2.43v131.83a2.37 2.37 0 0 0 2.43 2.42h27.68v-69.38z"/><path d="m122.06 41.09h34.08v13.15h-34.08z"/><path d="m141.61 106.83a18.56 18.56 0 0 0 -34.78-12.45 8.84 8.84 0 0 0 -12.63.69 8.53 8.53 0 0 0 -2.2 6.05v.18a14.36 14.36 0 0 0 -14 14.36 14 14 0 0 0 13.26 13.84h50.52a11.42 11.42 0 0 0 10.22-12.5 11.15 11.15 0 0 0 -10.39-10.17z"/></g></svg>