<svg xmlns="http://www.w3.org/2000/svg" id="Layer_1" x="0" y="0" version="1.1" viewBox="0 0 100 100" xml:space="preserve">
  <title>Linode API</title>
  <path fill="#010101" d="M71.1 53.6H66c-.4 1.8-1.1 3.5-2.1 5.1l3.6 3.6-5.2 5.1-3.6-3.6c-1.6 1-3.3 1.7-5.1 2.1V71h-7.3v-5c-1.8-.4-3.5-1.1-5.1-2.1l-3.6 3.6-5.1-5.1 3.6-3.6c-1-1.6-1.7-3.3-2.1-5.1h-5.1v-7.3H34c.4-1.6 1-3.1 1.8-4.6.1-.2.2-.4.3-.5l-3.6-3.6 5.1-5.1 3.6 3.6c1.6-1 3.3-1.7 5.1-2.1V29h7.3v5c1.8.4 3.5 1.1 5.1 2.1l3.6-3.6 5.1 5.1-3.6 3.6c.1.2.2.4.3.5.8 1.4 1.4 3 1.8 4.6H71l.1 7.3z"/>
  <g>
    <path d="M90 56.9V43.1h-9.6c-.7-3.1-1.8-6-3.4-8.7-.2-.3-.4-.7-.6-1l6.8-6.8-9.8-9.7-6.8 6.8c-3-1.9-6.3-3.2-9.7-4V10H43.1v9.6c-3.4.8-6.7 2.1-9.7 4l-6.8-6.8-9.7 9.8 6.8 6.8c-.2.3-.4.7-.6 1-1.6 2.7-2.7 5.6-3.4 8.7H10v13.8h9.6c.8 3.4 2.1 6.7 4 9.7l-6.8 6.8 9.7 9.8 6.8-6.8c3 1.9 6.3 3.2 9.7 4V90h13.8v-9.6c3.4-.8 6.7-2.1 9.7-4l6.8 6.8 9.8-9.8-6.8-6.8c1.9-3 3.2-6.3 4-9.7H90zm-18.9-3.3H66c-.4 1.8-1.1 3.5-2.1 5.1l3.6 3.6-5.2 5.1-3.6-3.6c-1.6 1-3.3 1.7-5.1 2.1V71h-7.3v-5c-1.8-.4-3.5-1.1-5.1-2.1l-3.6 3.6-5.1-5.1 3.6-3.6c-1-1.6-1.7-3.3-2.1-5.1h-5.1v-7.3H34c.4-1.6 1-3.1 1.8-4.6.1-.2.2-.4.3-.5l-3.6-3.6 5.1-5.1 3.6 3.6c1.6-1 3.3-1.7 5.1-2.1V29h7.3v5c1.8.4 3.5 1.1 5.1 2.1l3.6-3.6 5.1 5.1-3.6 3.6c.1.2.2.4.3.5.8 1.4 1.4 3 1.8 4.6H71l.1 7.3z" fill="currentColor"/>
    <path d="M59.8 45.3c-.1-.3-.3-.5-.4-.8-1.1-1.9-2.8-3.4-4.7-4.3-.3-.2-.7-.3-1-.4-2.4-.8-4.9-.8-7.3 0-.4.1-.7.3-1 .4-2 .9-3.6 2.5-4.7 4.3-.1.3-.3.5-.4.8-.2.3-.3.7-.4 1-.8 2.4-.8 4.9 0 7.3.1.4.3.7.4 1 1.1 2.3 2.9 4.1 5.1 5.1.3.2.7.3 1 .4 1.2.4 2.4.6 3.6.6 1.2 0 2.5-.2 3.6-.6.3-.1.7-.3 1-.4 2.3-1.1 4.1-2.9 5.1-5.1.2-.3.3-.7.4-1 .8-2.4.8-4.9 0-7.3 0-.3-.1-.6-.3-1zM50 55.6c-3.1 0-5.5-2.5-5.5-5.5 0-1 .3-1.9.7-2.8 1.5-2.7 4.9-3.6 7.6-2 2.7 1.5 3.6 4.9 2 7.6-1 1.6-2.8 2.7-4.8 2.7z" fill="currentColor"/>
  </g>
  <path fill="#fff" d="M50 55.6c-3.1 0-5.5-2.5-5.5-5.5 0-1 .3-1.9.7-2.8 1.5-2.7 4.9-3.6 7.6-2 2.7 1.5 3.6 4.9 2 7.6-1 1.6-2.8 2.7-4.8 2.7z"/>
</svg>