<svg viewBox="0 0 200 200" xmlns="http://www.w3.org/2000/svg"><path d="m175 94.94c-.09-.57-9.69-56.1-67.94-60.27v-2.67a7 7 0 0 0 -7-7 7.07 7.07 0 0 0 -7 7v2.64c-58.34 4.2-67.94 59.73-68.06 60.3v.37 4.69a2.35 2.35 0 0 0 4.69 0v-2.34h30.47v2.34a2.34 2.34 0 0 0 4.68 0v-2.34h32.82v42.18h-2.35a2.35 2.35 0 0 0 -2.31 2.35v15.23a17.58 17.58 0 1 0 35.15 0v-1.17c0-1.9-1.22-7-7-7a7 7 0 0 0 -7 7v1.17a3.52 3.52 0 1 1 -7 0v-15.23a2.35 2.35 0 0 0 -2.34-2.35h-2.35v-42.18h32.82v2.34a2.34 2.34 0 0 0 4.68 0v-2.34h30.47v2.34a2.35 2.35 0 0 0 4.69 0v-4.69c-.12-.07-.12-.31-.12-.37zm-64.42 70.69a8.19 8.19 0 0 0 8.2-8.21v-1.17a2.34 2.34 0 0 1 2.34-2.34 2.44 2.44 0 0 1 2.35 2.34v1.17a12.89 12.89 0 1 1 -25.78 0v-12.89h4.68v12.89a8.22 8.22 0 0 0 8.18 8.21zm-12.2-135.27a2.23 2.23 0 0 1 1.62-.67 2.34 2.34 0 0 1 2.34 2.31v2.41c-.75 0-3.93 0-4.68 0v-2.41a2.3 2.3 0 0 1 .72-1.64zm-9.1 9.34c-23.28 15.43-28.03 44.72-28.93 53.3h-30.13c2.49-10.63 14.45-48 59.06-53.3zm-24.19 53.3c1.08-9 6.64-40.06 32.57-52.65v52.65zm37.25-52.65c26 12.62 31.53 43.87 32.58 52.65h-32.58zm37.31 52.65c-.86-8.35-5.54-37.78-28.93-53.26 44.61 5.26 56.57 42.63 59.06 53.26z" fill="#32363b"/><g fill="currentColor"><path d="m89.28 39.7c-23.28 15.43-28.03 44.72-28.93 53.3h-30.13c2.49-10.63 14.45-48 59.06-53.3z"/><path d="m65.09 93c1.08-9 6.64-40.06 32.57-52.65v52.65z"/><path d="m102.34 40.32c26 12.62 31.53 43.87 32.58 52.65h-32.58z"/><path d="m139.65 93c-.86-8.35-5.54-37.78-28.93-53.26 44.61 5.26 56.57 42.63 59.06 53.26z"/></g></svg>