<svg viewBox="0 0 200 200" xmlns="http://www.w3.org/2000/svg" class="w-full h-full"><path d="m81.6 110.49s0 0 0 .05l-.08.08h-.12s0 0 0 0h-.11a.09.09 0 0 1 0-.05l-.08-.08v-.11s0 0 0 0v-.11s0 0 0-.06l.08-.08s0 0 0 0h.12.11l.08.09s0 0 0 0v.1s0 .05 0 .05zm-.16-.25a.14.14 0 0 0 -.22 0 .15.15 0 0 0 0 .23.16.16 0 0 0 .22 0 .15.15 0 0 0 0-.23z" fill="#1793d1" fill-rule="evenodd"/><path d="m107.35 65.63c0-7.77-5.62-10.8-12.11-10.8-7.34 0-12.09 3.89-17.72 9.08l-20.31-18.59c10.59-12.1 25.5-20.32 42.79-20.32 23.76 0 42.78 10.81 42.78 38 0 25.94-31.55 32.86-29.39 56.63h-32.39c-4.34-28.06 26.35-40.16 26.35-54zm-32 86.89c0-12.52 9.08-22.52 21.65-22.52s21.61 10 21.61 22.48-9.1 22.52-21.61 22.52-21.65-9.94-21.65-22.48z" fill="currentColor" stroke="#32363b" stroke-linecap="round" stroke-linejoin="round" stroke-width="4.37"/></svg>