<svg enable-background="new 0 0 72 72" viewBox="0 0 72 72" xmlns="http://www.w3.org/2000/svg"><path d="m50.8 27.2c0-.6 0-2.6 0-2.6h-.8c-5.4-.2-9.7-1.8-13.4-5.1l-.7-.5-.6.5c-3.7 3.2-7.9 4.8-13.4 5.1h-.8v2.6c-.1 5.2-.2 10.6 1.6 15.5 2 5.7 6.3 9.6 13 12.1l.3.1.3-.1c6.7-2.4 10.9-6.4 13-12.1 1.7-4.9 1.6-10.3 1.5-15.5zm-10.7 15.5c0 .5-.1 1-.5 1.4-.3.4-.8.6-1.3.6h-4.7c-.5 0-1-.2-1.3-.6s-.5-.9-.5-1.4l.5-5.4c-1.1-1.1-1.7-2.6-1.5-4.2.3-2.4 2.3-4.3 4.8-4.5h.4.4c2.4.1 4.5 2.1 4.8 4.5.2 1.6-.4 3.1-1.5 4.2zm-28.5 14.7c-1.9 0-3.5-1.5-3.5-3.5 0-1.9 1.5-3.5 3.5-3.5s3.4 1.6 3.4 3.5c0 2-1.5 3.5-3.4 3.5zm20.9-50.6c0-1.9 1.5-3.5 3.5-3.5 1.9 0 3.5 1.5 3.5 3.5 0 1.9-1.5 3.5-3.5 3.5-1.9 0-3.5-1.6-3.5-3.5zm28 50.6c-1.9 0-3.5-1.5-3.5-3.5 0-1.9 1.5-3.5 3.5-3.5s3.5 1.5 3.5 3.5c-.1 2-1.6 3.5-3.5 3.5z" fill="#00c053" class="u-fill-current-color"/><path d="m53.1 61.3-16.4 9.4c-.2.1-.5.2-.8.2s-.5-.1-.8-.2l-16.3-9.4c.7-.7 1.4-1.6 1.9-2.5l15.2 8.8 15.3-8.8c.5.9 1.1 1.8 1.9 2.5zm9.4-39.6v22.1c1.1.2 2.2.6 3.1 1.2v-24.2c0-.6-.3-1.1-.8-1.4l-18.6-10.7c-.2 1.1-.5 2.1-1 3zm-53.1 0 17.2-10c-.5-.9-.8-2-1-3l-18.5 10.7c-.5.3-.8.8-.8 1.4v24.2c1-.6 2-1 3.1-1.2zm28.9 22.9h-4.7c-.5 0-1-.2-1.3-.6s-.5-.9-.5-1.4l.5-5.4c-1.1-1.1-1.7-2.6-1.5-4.2.3-2.4 2.3-4.3 4.8-4.5h.4.4c2.4.1 4.5 2.1 4.8 4.5.2 1.6-.4 3.1-1.5 4.2l.5 5.4c0 .5-.1 1-.5 1.4s-.8.6-1.4.6zm-4.2-2.2h3.8l-.6-6.2.5-.4c.8-.6 1.2-1.6 1.1-2.6-.2-1.4-1.3-2.4-2.7-2.5-.1 0-.2 0-.2 0-.1 0-.2 0-.2 0-1.4.1-2.5 1.2-2.7 2.5-.1 1 .3 2 1.1 2.6l.5.4zm26.3 5.6c-1.5 0-2.8.5-3.8 1.4l-6.3-4.5c2.6-5.8 2.4-12.3 2.3-17.7 0-1.2 0-2.3 0-3.4 0-.6-.5-1-1-1-6 .1-10.5-1.5-14.3-5.1v-4.9c2.6-.6 4.6-3 4.6-5.8 0-3.3-2.7-6-6-6s-6 2.7-6 6c0 2.8 2 5.2 4.6 5.8v4.9c-3.8 3.5-8.3 5.1-14.3 5.1-.6 0-1 .5-1 1v3.4c-.1 5.5-.2 12 2.4 17.8l-6.2 4.4c-1-.9-2.4-1.4-3.8-1.4-3.3 0-6 2.7-6 6s2.7 6 6 6 6-2.7 6-6c0-.9-.2-1.7-.5-2.4l5.8-4.2c2.4 3.9 6.3 7.2 12.6 9.4.1.1.3.1.5.1s.3 0 .5-.1c6.4-2.2 10.3-5.6 12.7-9.5l5.9 4.2c-.3.7-.5 1.6-.5 2.4 0 3.3 2.7 6 6 6s6-2.7 6-6c-.2-3.2-2.9-5.9-6.2-5.9zm-48.8 9.4c-1.9 0-3.5-1.5-3.5-3.5 0-1.9 1.5-3.5 3.5-3.5s3.4 1.6 3.4 3.5c0 2-1.5 3.5-3.4 3.5zm20.9-50.6c0-1.9 1.5-3.5 3.5-3.5 1.9 0 3.5 1.5 3.5 3.5 0 1.9-1.5 3.5-3.5 3.5-1.9 0-3.5-1.6-3.5-3.5zm3.4 47.1c-14.3-5.2-14.1-16.6-13.9-26.7 0-.6 0-1.2 0-1.8 5.6-.2 10.1-1.9 13.9-5.3 3.8 3.3 8.3 5 13.9 5.3v1.8c.3 10.1.5 21.5-13.9 26.7zm24.6 3.5c-1.9 0-3.5-1.5-3.5-3.5 0-1.9 1.5-3.5 3.5-3.5s3.5 1.5 3.5 3.5c-.1 2-1.6 3.5-3.5 3.5z"/></svg>