<svg viewBox="0 0 200 200" xmlns="http://www.w3.org/2000/svg"><path d="m145 90q-.62 0-1.23 0l-12.85-17.1a27.44 27.44 0 0 0 9.08-18.9l15.67 7.57a10 10 0 1 0 2.91-4.15l-18.87-9.11a27.5 27.5 0 0 0 -54.71 3.02l-14.78 12.67a27.29 27.29 0 0 0 -15.22-6.38v-12.95a10 10 0 1 0 -5 0v12.95a27.49 27.49 0 0 0 -1.17 54.63h.21c.47.06 1 .11 1.43.15h.36c.55 0 1.11.06 1.67.06s1.12 0 1.67-.06h.36c.48 0 1-.09 1.43-.15h.22a27.55 27.55 0 0 0 23.39-22.46l11.25 8.76a9.83 9.83 0 0 0 -.82 4 10 10 0 1 0 3.89-7.9l-13.89-10.9a27.45 27.45 0 0 0 -6.22-16.19l11.72-10a27.56 27.56 0 0 0 23.36 22.22h.21c.47.06.95.11 1.43.15h.36c.55 0 1.11.06 1.67.06s1.12 0 1.67-.06h.36c.48 0 1-.09 1.43-.15h.22a27.45 27.45 0 0 0 10.74-3.85l11.23 15a27.5 27.5 0 0 0 -19.18 35.46l-10.07 7.55a27.49 27.49 0 0 0 -51.31 11.06h-12.95a10 10 0 1 0 0 5h12.95a27.55 27.55 0 0 0 23.71 24.75h.21c.47.06.95.11 1.43.15h.36c.55 0 1.11.06 1.67.06s1.12 0 1.67-.06h.36c.48 0 1-.09 1.43-.15h.21a27.56 27.56 0 0 0 23.13-21.11l16.33 7.89a10 10 0 1 0 2.91-4.15l-18.56-9c0-.31 0-.61 0-.92a27.54 27.54 0 0 0 -1.48-8.89l10.07-7.55a27.57 27.57 0 0 0 20.24 13.69h.19c.49.06 1 .11 1.46.15h.34q.84.06 1.68.06t1.68-.06h.34c.49 0 1-.09 1.46-.15h.19a27.5 27.5 0 0 0 -3.65-54.71zm-22.5-17.36a22.67 22.67 0 0 1 -20 0v-5.1a2.65 2.65 0 0 1 2.75-2.54h14.5a2.65 2.65 0 0 1 2.75 2.54zm47.5-7.64a5 5 0 1 1 -5-5 5 5 0 0 1 5 5zm-122.5-30a5 5 0 1 1 5 5 5 5 0 0 1 -5-5zm15 70.14a22.67 22.67 0 0 1 -20 0v-5.14a2.65 2.65 0 0 1 2.75-2.54h14.5a2.65 2.65 0 0 1 2.75 2.54v5.1zm42.5-2.64a5 5 0 1 1 -5-5 5 5 0 0 1 5 5zm-37.5-.75v-1.75a7.66 7.66 0 0 0 -7.75-7.54h-14.5a7.66 7.66 0 0 0 -7.75 7.54v1.71a22.5 22.5 0 1 1 30 0zm22.5-49.25a22.5 22.5 0 1 1 37.5 16.75v-1.71a7.66 7.66 0 0 0 -7.75-7.54h-14.5a7.66 7.66 0 0 0 -7.75 7.54v1.71a22.43 22.43 0 0 1 -7.5-16.75zm52.5 112.5a5 5 0 1 1 -5-5 5 5 0 0 1 5 5zm-107.5-12.5a5 5 0 1 1 5-5 5 5 0 0 1 -5 5zm60 15.14a22.67 22.67 0 0 1 -20 0v-5.1a2.65 2.65 0 0 1 2.75-2.54h14.5a2.65 2.65 0 0 1 2.75 2.54zm5-3.39v-1.71a7.66 7.66 0 0 0 -7.75-7.54h-14.5a7.66 7.66 0 0 0 -7.75 7.54v1.71a22.5 22.5 0 1 1 30 0zm55-26.61a22.67 22.67 0 0 1 -20 0v-5.1a2.65 2.65 0 0 1 2.75-2.54h14.5a2.65 2.65 0 0 1 2.75 2.54zm5-3.39v-1.71a7.66 7.66 0 0 0 -7.75-7.54h-14.5a7.66 7.66 0 0 0 -7.75 7.54v1.71a22.5 22.5 0 1 1 30 0z" fill="#32363b"/><path d="m145 100a10 10 0 1 0 10 10 10 10 0 0 0 -10-10zm0 15a5 5 0 1 1 5-5 5 5 0 0 1 -5 5z" fill="#32363b"/><path d="m85 130a10 10 0 1 0 10 10 10 10 0 0 0 -10-10zm0 15a5 5 0 1 1 5-5 5 5 0 0 1 -5 5z" fill="#32363b"/><path d="m52.5 67.5a10 10 0 1 0 10 10 10 10 0 0 0 -10-10zm0 15a5 5 0 1 1 5-5 5 5 0 0 1 -5 5z" fill="#32363b"/><path d="m112.5 55a10 10 0 1 0 -10-10 10 10 0 0 0 10 10zm0-15a5 5 0 1 1 -5 5 5 5 0 0 1 5-5z" fill="#32363b"/><g fill="currentColor"><path d="m122.5 72.64a22.67 22.67 0 0 1 -20 0v-5.1a2.65 2.65 0 0 1 2.75-2.54h14.5a2.65 2.65 0 0 1 2.75 2.54z"/><path d="m62.5 105.14a22.67 22.67 0 0 1 -20 0v-5.14a2.65 2.65 0 0 1 2.75-2.54h14.5a2.65 2.65 0 0 1 2.75 2.54v5.1z"/><path d="m95 167.64a22.67 22.67 0 0 1 -20 0v-5.1a2.65 2.65 0 0 1 2.75-2.54h14.5a2.65 2.65 0 0 1 2.75 2.54z"/><path d="m155 137.64a22.67 22.67 0 0 1 -20 0v-5.1a2.65 2.65 0 0 1 2.75-2.54h14.5a2.65 2.65 0 0 1 2.75 2.54z"/><path d="m145 115a5 5 0 1 1 5-5 5 5 0 0 1 -5 5z"/><circle cx="85" cy="140" r="5"/><circle cx="52.5" cy="77.5" r="5"/><path d="m112.5 40a5 5 0 1 1 -5 5 5 5 0 0 1 5-5z"/></g></svg>