<svg enable-background="new 0 0 147 147" viewBox="0 0 147 147" xmlns="http://www.w3.org/2000/svg"><path d="m100.7 34.4v19h42.6v-19h-20.7v-5.1h-48.8v-3.6h14.5c3.5-.3 6.1-3.5 5.7-7-.3-3.1-2.7-5.5-5.8-5.7 1.4-5.7-2-11.3-7.6-12.7-4.8-1.2-9.8 1.2-11.9 5.7-2.1-1.9-5.3-1.8-7.1.3-.8.9-1.3 2.1-1.3 3.4v.1c-4.4.1-7.9 3.7-7.8 8 .1 4.2 3.3 7.6 7.5 7.8h12.7v3.6h-48.8v5.6h-20.3v18h20.3v10.7h-20.3v18h41.6v-18h-20.2v-4.9h46.7v4.9h-19.4v18h20.3v10.3h-9.4v8.6h19.9v-8.6h-9.4v-10.3h20.3v-18h-21.2v-4.9h48.5v4.9h-20.1v18h20.3v10.7h-20.3v18h20.3v18.5h1.1v-18.5h20.3v-18h-20.3v-10.7h20.3v-18h-20.4v-6h-49.7-.6-47.2v-4.6h20.3v-18h-20.3v-4.5h47.7v4h-20.9v19h42.6v-19h-20.6v-4h47.7v4zm-7.2 18h-40.7v-17h40.6zm48.9 0h-40.7v-17h40.6v17zm-138.8 39.8h41.6v18h-41.6zm48.7 9.3h19.9v8.6h-19.9zm21.9 0h19.9v8.6h-19.9zm-21.9 34.2h19.9v8.6h-19.9zm10.9-9.7h19.9v8.6h-19.9zm11 9.7h19.9v8.6h-19.9zm38.9-4c0 3.3-2.6 5.9-5.9 5.9s-5.9-2.6-5.9-5.9 2.6-5.9 5.9-5.9c3.2 0 5.9 2.7 5.9 5.9zm29.8 0c0 3.3-2.6 5.9-5.9 5.9s-5.9-2.6-5.9-5.9 2.6-5.9 5.9-5.9c3.2 0 5.9 2.7 5.9 5.9zm-15.1 9.4c0 3.3-2.6 5.9-5.9 5.9s-5.9-2.6-5.9-5.9 2.6-5.9 5.9-5.9c3.2 0 5.9 2.6 5.9 5.9zm-54.1-27.6v9.9h-1.1v-9.9z" fill="#393e44"/></svg>