<svg viewBox="0 0 200 200" xmlns="http://www.w3.org/2000/svg"><path d="m126.87 59.78a26.87 26.87 0 1 1 -26.87-26.87 26.9 26.9 0 0 1 26.87 26.87z" fill="currentColor"/><path d="m156.08 166.9a3.22 3.22 0 0 1 -3.22 3.22h-105.72a3.22 3.22 0 0 1 -3.22-3.22v-17.9a3.23 3.23 0 0 1 3.22-3.22h105.72a3.23 3.23 0 0 1 3.22 3.22z" fill="currentColor"/><g fill="#32363b"><path d="m166.34 57.27c-12.22-14.89-38.1-32.27-66.34-32.27s-54.22 17.5-66.34 32.27a4 4 0 0 0 0 5c12.51 15.26 38.45 32.28 66.34 32.28 28.88 0 54.65-18 66.34-32.27a4 4 0 0 0 0-5.01zm-39.47 2.51a26.87 26.87 0 1 1 -26.87-26.87 26.9 26.9 0 0 1 26.87 26.87zm-84.81 0a95.55 95.55 0 0 1 30.25-21 34.7 34.7 0 0 0 0 42 93.91 93.91 0 0 1 -30.25-21zm85.63 21a34.7 34.7 0 0 0 0-42 93.91 93.91 0 0 1 30.25 21 95.39 95.39 0 0 1 -30.25 21.01z"/><path d="m86.55 59.78a13.45 13.45 0 1 0 13.45-13.45 13.46 13.46 0 0 0 -13.45 13.45z"/><path d="m100 109.87a4 4 0 0 0 -4 4v9.23a4 4 0 0 0 7.92 0v-9.23a4 4 0 0 0 -3.92-4z"/><path d="m76.4 104.58a4 4 0 0 0 -5.4 1.48l-5.27 9.23a4 4 0 0 0 6.87 3.92l5.28-9.21a4 4 0 0 0 -1.48-5.42z"/><path d="m129 106.06a4 4 0 1 0 -6.87 3.92l5.27 9.23a4 4 0 0 0 6.87-3.92z"/></g><path d="m141.45 155.49h-82.9a2.44 2.44 0 0 0 0 4.88h82.9a2.44 2.44 0 0 0 0-4.88z" fill="#fff"/><path d="m152.86 140.86h-105.72a8.12 8.12 0 0 0 -8.14 8.14v17.9a8.12 8.12 0 0 0 8.1 8.1h105.76a8.12 8.12 0 0 0 8.1-8.1v-17.9a8.12 8.12 0 0 0 -8.1-8.14zm3.22 26a3.22 3.22 0 0 1 -3.22 3.22h-105.72a3.22 3.22 0 0 1 -3.22-3.22v-17.86a3.23 3.23 0 0 1 3.22-3.22h105.72a3.23 3.23 0 0 1 3.22 3.22z" fill="#32363b"/></svg>