<svg viewBox="0 0 200 200" xmlns="http://www.w3.org/2000/svg" xmlns:xlink="http://www.w3.org/1999/xlink"><clipPath id="a"><rect height="50.77" rx="9.96" width="50.77" x="67.51" y="103.12"/></clipPath><path d="m60.36 82.92h-13.07v2.73l91.66 89.35 13.76-20.48-.88-84.33-7.2 7.06-5.68 5.67z" fill="currentColor"/><g stroke-width="4.6"><path d="m65.77 82.94c-2-14.72 2.53-29.68 11.44-38s20.49-8.28 29.4 0 13.42 23.24 11.44 38" fill="none" stroke="#32363b" stroke-linecap="round" stroke-miterlimit="10"/><path d="m86.39 69.17c-2-14.72 2.53-29.68 11.44-38s20.5-8.28 29.41 0 13.41 23.24 11.43 38" fill="none" stroke="#32363b" stroke-linecap="round" stroke-miterlimit="10"/><path d="m47.29 82.92h91.66v92.08h-91.66z" fill="currentColor" stroke="#32363b" stroke-linecap="round" stroke-linejoin="round"/><path d="m139 175 13.76-20.48v-80a5.33 5.33 0 0 0 -5.33-5.33h-86.38l-13.76 13.73" fill="none" stroke="#32363b" stroke-linecap="round" stroke-miterlimit="10"/><path d="m150.31 71.57-11.36 11.35" fill="none" stroke="#32363b" stroke-linecap="round" stroke-miterlimit="10"/></g><rect fill="#fff" height="50.77" rx="9.96" width="50.77" x="67.51" y="103.12"/><g clip-path="url(#a)"><path d="m64.24 99.21h59.15v29.29h-59.15z" fill="currentColor"/></g><rect fill="none" height="50.77" rx="9.96" stroke="#fff" stroke-miterlimit="10" stroke-width="4.6" width="50.77" x="67.51" y="103.12"/></svg>