<svg viewBox="0 0 200 200" xmlns="http://www.w3.org/2000/svg"><path d="m30.52 151.16a5.43 5.43 0 0 1 -2.52-.62l-.79-.68c-2.09-2.8.37-6.11 3.56-10.27a19.66 19.66 0 0 1 -3-2.29 15.13 15.13 0 0 0 -3-2.15l-.75-.34-1.02-3.29a11.17 11.17 0 0 1 3.7-3.56 11.81 11.81 0 0 1 6.05-1.35 53.07 53.07 0 0 1 8.82 1 49.11 49.11 0 0 0 7.22.88 4.15 4.15 0 0 0 2.16-.32 40.71 40.71 0 0 0 5.47-6.61 39.44 39.44 0 0 1 7.42-7.83c1-.83 2.4-1.83 3.63-2.67a32.41 32.41 0 0 1 9.26-4.35l1.43-.48c.79-.27 1.65-.56 2.61-.92 3.51-1.31 7.23-2.47 11.23-3.72 4.3-1.35 8.75-2.75 12.85-4.32s9.48-3.82 13.62-6.91a24.13 24.13 0 0 0 2.55-2.17c4-3.88 7-9 9.88-14 5.56-9.59 11.82-20.38 25.82-21.82 2.23-.23 3.94-.35 5.91-.41a11.24 11.24 0 0 0 4.43-1.15l.62-.31a12.36 12.36 0 0 1 5.14-1.63 4.6 4.6 0 0 1 3 1c1.73 1.49 1.76 4 1.27 7.43v.23c-.9 6.2-5 9.54-8.73 12.17l-1.14.8c-2.6 1.79-5.28 3.64-6.92 6.19-1 1.52-2.1 6.62-3.17 11.54-1 4.72-2.18 10.07-3.79 15.52-3.94 13.41-9.26 22.08-16.25 26.51l-.14.08-2.69 1.44-2-1.36c-.1.21-.2.41-.31.62-5.09 9.75-12.08 15.83-21.38 18.64a25.26 25.26 0 0 1 -7.32 1l-1.72-4 2.89-3.1a57 57 0 0 0 5.51-9l-.16.07-.35.13-.54.12a42.5 42.5 0 0 1 -4.52.25h-.14c-1.13 0-2.3 0-3.58-.11-3.29-.2-6.65-.63-9.62-1h-.17a98.52 98.52 0 0 0 -12.08-1h-.54a29.52 29.52 0 0 0 -8.6 1.28c-3.61 1.16-7.61 3.74-11.14 6a64 64 0 0 1 -8.56 4.93c-.92.4-1.77.79-2.58 1.17l-1.48.68c-4.4 2.13-8.25 4-15.24 4z" fill="currentColor"/><path d="m172.92 51.19a2.21 2.21 0 0 1 1.39.5c.53.46 1 1.47.43 5.39v.12c-.77 5.29-4.27 8.13-7.76 10.59l-1.14.79c-2.78 1.92-5.66 3.91-7.55 6.85-1.22 1.87-2.27 6.71-3.49 12.31-1 4.69-2.17 10-3.75 15.35-3.77 12.85-8.76 21.09-15.25 25.19l-2.68 1.44s.37-3.26.5-4.78c0-.22 0-.44 0-.66s.07-.68.07-1c0-.57-.15-.74-.36-.74a.5.5 0 0 0 -.41.24 73 73 0 0 1 -3.15 7.2c-4.78 9.14-11.34 14.87-20 17.47a23.33 23.33 0 0 1 -6.56.92l3-3.21c4.48-6.23 8.89-13.19 9.42-24.19v-.08a.18.18 0 0 0 -.15-.07.19.19 0 0 0 -.1 0l-.17.13a16.75 16.75 0 0 0 -2 4.49c-1 2.82-2 5.73-4.24 7.08l-.35.12a38.05 38.05 0 0 1 -4.27.23h-.14c-1.09 0-2.23 0-3.45-.1-3.14-.19-6.35-.6-9.45-1a100.91 100.91 0 0 0 -12.55-1.08h-.56a31.85 31.85 0 0 0 -9.3 1.39c-3.87 1.24-7.86 3.8-11.72 6.29a62.83 62.83 0 0 1 -8.18 4.78c-1.49.65-2.81 1.29-4.09 1.86-4.38 2.12-7.83 3.8-14.27 3.8h-.07a3.07 3.07 0 0 1 -1.42-.35c-1-1.33.73-3.78 3.68-7.64.54-.7 1-1.37 1.4-1.87a3.22 3.22 0 0 0 -1.13-.76 17.92 17.92 0 0 1 -3.68-2.61 17.74 17.74 0 0 0 -3.59-2.58l-.83-.37a8.89 8.89 0 0 1 2.84-2.63 9.63 9.63 0 0 1 4.86-1 52.33 52.33 0 0 1 8.42 1 48.81 48.81 0 0 0 7.62.93c1.86 0 3.11-.31 3.81-1a42.53 42.53 0 0 0 5.78-7 36.57 36.57 0 0 1 6.93-7.29c.9-.72 2.2-1.68 3.49-2.57a30.26 30.26 0 0 1 8.74-4.07c1.16-.41 2.49-.82 4.05-1.41 3.46-1.28 7.21-2.46 11.2-3.72 4.35-1.37 8.85-2.78 13-4.36 4.3-1.65 9.8-4 14.18-7.22a27.49 27.49 0 0 0 2.79-2.37c4.24-4.13 7.32-9.45 10.32-14.61 5.49-9.48 11.18-19.28 24-20.59 2.15-.22 3.81-.34 5.74-.4a13.82 13.82 0 0 0 5.39-1.38l.41-.21a11.34 11.34 0 0 1 4.32-1.5h.07m0-4.7h-.14a14.26 14.26 0 0 0 -6.13 1.88l-.22.11-.4.2a9 9 0 0 1 -3.49.9c-2 .06-3.77.19-6 .42-15.19 1.56-21.77 12.9-27.57 22.91v.07c-2.82 4.85-5.74 9.87-9.49 13.53a21.35 21.35 0 0 1 -2.3 1.95c-3.92 2.93-9 5.07-13.08 6.61s-8.54 2.89-12.81 4.23c-3.84 1.21-7.82 2.46-11.42 3.8-.92.34-1.75.62-2.55.89l-1.4.49a34.45 34.45 0 0 0 -9.85 4.64c-1.28.87-2.69 1.91-3.76 2.76a41.27 41.27 0 0 0 -7.82 8.24l-.1.14a39.18 39.18 0 0 1 -4.76 5.84 8.56 8.56 0 0 1 -.91 0 46.5 46.5 0 0 1 -6.81-.85 55 55 0 0 0 -9.23-1.07 14.09 14.09 0 0 0 -7.23 1.67 13.25 13.25 0 0 0 -4.58 4.44l2.15 6.67.67.3a12.83 12.83 0 0 1 2.45 1.7c.4.38.82.74 1.25 1.08-2.73 3.75-4.78 7.57-2.11 11.16l1.59 1.36a7.83 7.83 0 0 0 3.61.88h.07c7.49 0 11.76-2 16.27-4.23l1.41-.66c.82-.37 1.66-.76 2.55-1.15a63.73 63.73 0 0 0 8.85-5.08c3.4-2.2 7.25-4.68 10.59-5.76a27 27 0 0 1 7.89-1.17h.53a95.06 95.06 0 0 1 11.79 1h.17c3 .38 6.4.82 9.76 1 1.34.08 2.55.12 3.73.12h.14 1.31c-1 1.58-2 3.09-3.08 4.58l-2.78 3 3.44 7.91a27.14 27.14 0 0 0 8.07-1.16c9.72-2.95 17.05-9.23 22.4-19.18l1.66 1.12 2.69-1.44.29-.17c7.49-4.74 13.14-13.84 17.25-27.83 1.62-5.52 2.79-10.92 3.83-15.68.87-4 2.06-9.51 2.83-10.74 1.4-2.18 3.77-3.82 6.28-5.55l1.16-.8c3-2.12 8.6-6.05 9.72-13.78v-.22c.49-3.37.75-7.13-2-9.52l-.06-.06a6.89 6.89 0 0 0 -4.39-1.58z" fill="#32363b"/></svg>