<svg viewBox="0 0 200 200" xmlns="http://www.w3.org/2000/svg" xmlns:xlink="http://www.w3.org/1999/xlink"><mask id="a" height="85.55" maskUnits="userSpaceOnUse" width="152.57" x="23.89" y="97.93"><path d="m23.89 147.81 76.28-49.88 76.28 49.88-76.28 35.67z"/><path d="m100.17 177.36-64.65-30.24 64.65-42.28 64.65 42.28z"/></mask><g stroke-linecap="round"><g fill="none" mask="url(#a)" stroke-miterlimit="10"><g stroke="#939598"><path d="m90.52 118.45h19.84" stroke-width="1.71"/><path d="m80.57 128.72h39.54" stroke-width="2.67"/><path d="m70.65 139h59.25" stroke-width="3.63"/><path d="m60.7 149.24h79" stroke-width="4.58"/><path d="m50.78 159.5h98.65" stroke-width="5.54"/><path d="m40.82 169.77h118.36" stroke-width="6.5"/></g><path d="m34 175 66-66 66 66" stroke="#949699" stroke-width="6.5"/></g><path d="m89.64 32.7h20.36v46.86h-20.36z" fill="currentColor" stroke="#32363b" stroke-linejoin="round" stroke-width="4.37"/><path d="m62.75 70v28h74.16v-28a55.11 55.11 0 0 0 -74.16 0z" fill="currentColor" stroke="#32363b" stroke-linejoin="round" stroke-width="4.37"/><path d="m99.62 174.83v-67.22" fill="#fff" stroke="#949699" stroke-miterlimit="10" stroke-width="4.61"/><path d="m148.44 139.49h-97.22v-31.26a19.42 19.42 0 0 1 19.43-19.43h58.35a19.42 19.42 0 0 1 19.43 19.43v31.26z" fill="currentColor" stroke="#32363b" stroke-linejoin="round" stroke-width="4.37"/><path d="m99.83 107.61-59.93 39.17 59.93 28.05 59.93-28.05z" fill="#fff" stroke="#32363b" stroke-miterlimit="10" stroke-width="4.61"/><path d="m67 159.47 32.63-51.86" fill="#fff" stroke="#32363b" stroke-miterlimit="10" stroke-width="4.61"/><path d="m132.67 159.47-32.67-51.86" fill="#fff" stroke="#32363b" stroke-miterlimit="10" stroke-width="4.61"/><path d="m99.62 107.61v67.22" fill="#fff" stroke="#32363b" stroke-miterlimit="10" stroke-width="4.61"/><circle cx="99.83" cy="108.95" fill="currentColor" r="34.38" stroke="#32363b" stroke-linejoin="round" stroke-width="4.37"/></g><circle cx="99.83" cy="108.95" fill="#fff" r="19.4"/><path d="m82.73 25h34.2v7.7h-34.2z" fill="#32363b" stroke="#32363b" stroke-miterlimit="10"/><path d="m106.33 109h-7a1.95 1.95 0 1 0 0 3.89h4.75l-1 1.78h-6.5l-3.25-5.67 3.25-5.64h6.5l1.71 3h4.48l-4-6.87h-10.91l-5.48 9.51 5.48 9.5h10.94l5.48-9.5z" fill="currentColor"/><path d="m89.64 44.6h20.36" fill="#fff" stroke="#32363b" stroke-linecap="round" stroke-miterlimit="10" stroke-width="4.61"/></svg>