<?xml version="1.0" encoding="utf-8"?>
<!-- Generator: Adobe Illustrator 23.0.4, SVG Export Plug-In . SVG Version: 6.00 Build 0)  -->
<svg version="1.1" id="Layer_1" xmlns="http://www.w3.org/2000/svg" xmlns:xlink="http://www.w3.org/1999/xlink" x="0px" y="0px"
	 viewBox="0 0 100 100" style="enable-background:new 0 0 100 100;" xml:space="preserve">
<style type="text/css">
	.st0-233d1539bb953b5306cfd06e7d39b0de{fill:#010101;}
	.st1-233d1539bb953b5306cfd06e7d39b0de{fill:currentColor;}
</style>
<title>nodeBalancer</title>
<g>
	<g id="Layer_1-2">
		<path class="st0-233d1539bb953b5306cfd06e7d39b0de" d="M52.5,23.7c-1.5-0.9-3.5-0.9-5,0L47.1,24V12.1l-7.2,4.2c-1.2,1.2-3.1,1.1-4.2-0.1c-1.2-1.2-1.1-3.1,0.1-4.2
			c0.2-0.2,0.5-0.4,0.8-0.6c0.1-0.1,0.3-0.2,0.4-0.2l11.5-6.8c0.9-0.5,2.1-0.5,3,0l11.6,6.8c1.4,0.9,1.8,2.8,0.9,4.1
			c-0.5,0.8-1.4,1.3-2.4,1.4l0,0c-0.5,0-1-0.2-1.5-0.4L53,12.1V24L52.5,23.7z M28.7,34.6l-10.8-5.9l7-4.1c0.4-0.2,0.7-0.5,1-0.8
			c0.9-1.4,0.6-3.2-0.8-4.2C24.3,19,23,18.9,22,19.5l-11,6.4c-0.4,0.2-0.7,0.4-1,0.7c-0.6,0.6-1,1.4-1,2.2l0.1,13.4c0,1.7,1.3,3,3,3
			l0,0c1.7,0,3-1.3,3-3l-0.1-8.5L26,39.8V39c0-1.8,1-3.4,2.5-4.3L28.7,34.6z M26,59.9l-11.1,6.3l0.1-8.5c-0.3-1.6-1.8-2.7-3.4-2.5
			c-1.3,0.2-2.3,1.2-2.5,2.5L8.9,71.2c0,1.1,0.6,2.1,1.5,2.6l11.6,6.7c0.4,0.3,1,0.4,1.5,0.4v-0.1c1.7-0.1,2.9-1.5,2.9-3.1
			c0-1-0.6-1.9-1.4-2.4l-7-4l10.5-6l0,0C27,64.4,26,62.8,26,61V59.9z M74,39.8l11.1-6.1L85,42.2c0,1.7,1.3,3,3,3l0,0
			c1.7,0,3-1.3,3-3l0.1-13.4c0-1.1-0.6-2.1-1.5-2.6l-11.7-6.6c-0.2-0.1-0.4-0.2-0.7-0.3c-1.6-0.4-3.2,0.6-3.6,2.2
			c-0.3,1.3,0.2,2.6,1.3,3.3l7,4.1l-10.6,5.9l0.2,0.1C73,35.6,74,37.2,74,39V39.8z M47.1,76v11.9l-7.3-4.2c-0.1-0.1-0.3-0.2-0.4-0.2
			c-1.6-0.4-3.2,0.5-3.7,2.1c-0.3,1.2,0.1,2.5,1.2,3.2l11.7,6.8c0.4,0.3,1,0.4,1.5,0.4c0.5,0,1-0.1,1.5-0.4l11.6-6.7
			c0.1-0.1,0.3-0.1,0.4-0.2c1.5-0.7,2.1-2.5,1.4-4c-0.7-1.5-2.5-2.1-4-1.4c-0.3,0.1-0.6,0.3-0.8,0.6L53,87.9V76l-0.5,0.3
			c-1.5,0.9-3.5,0.9-5,0L47.1,76z M90.9,57.8c-0.3-1.6-1.8-2.8-3.4-2.5c-1.3,0.2-2.3,1.2-2.5,2.5l0.1,8.5L74,60v1
			c0,1.8-1,3.4-2.5,4.3l0,0l10.5,6l-7.1,4.1c-1.4,0.9-1.8,2.7-0.9,4.1c0.5,0.8,1.4,1.3,2.4,1.4l0,0c0.5,0,1-0.1,1.5-0.4l11.6-6.7
			c0.9-0.5,1.5-1.5,1.5-2.6L90.9,57.8z"/>
		<polygon class="st1-233d1539bb953b5306cfd06e7d39b0de" points="74,60 74,39.8 56.1,49.7 		"/>
		<polygon class="st1-233d1539bb953b5306cfd06e7d39b0de" points="28.5,65.3 47.1,76 47.1,54.6 		"/>
		<polygon class="st1-233d1539bb953b5306cfd06e7d39b0de" points="71.3,34.6 53,24 53,44.7 		"/>
		<polygon class="st1-233d1539bb953b5306cfd06e7d39b0de" points="26,39.8 26,59.9 43.9,49.7 		"/>
		<polygon class="st1-233d1539bb953b5306cfd06e7d39b0de" points="53,76 71.5,65.3 53,54.7 		"/>
		<polygon class="st1-233d1539bb953b5306cfd06e7d39b0de" points="47.1,24 28.7,34.6 47.1,44.7 		"/>
	</g>
</g>
</svg>
