<svg viewBox="0 0 200 200" xmlns="http://www.w3.org/2000/svg"><path d="m46 139.12c-2.38 0-23.25-1.1-23.25-39.31 0-15 3.58-25.75 10.64-32.12a22.61 22.61 0 0 1 14.92-5.84h1.16 48.42v-.64h-34.09a2.24 2.24 0 0 1 -2.25-2.21v-17a12.61 12.61 0 0 1 3.35-9c5.67-6.54 17.31-9.85 34.6-9.85 17.11 0 28.85 3.58 34.91 10.65a15.9 15.9 0 0 1 4.06 11.64v32.76c0 11.16-5.91 16.5-10.87 19a27.38 27.38 0 0 1 -11.6 2.8h-36.11c-5.79 0-10.32 1.65-13.49 4.9-5.36 5.51-5.19 14-5.19 14v17.9a2.25 2.25 0 0 1 -2.21 2.32zm33.42-100a4.29 4.29 0 1 0 4.29 4.28 4.28 4.28 0 0 0 -4.29-4.25z" fill="#fff"/><path d="m99.46 25.39c39.79 0 36.72 19.91 36.72 19.91v32.9c0 19.26-19 19.57-20.19 19.57h-36.1c-21.61 0-20.89 21.23-20.89 21.23v17.83h-13c-2.46 0-21-1.19-21-37.06 0-33.55 18.62-35.67 23.31-35.67a9.24 9.24 0 0 1 1.06.05h50.77v-5.15h-36.34v-17.11s-2.38-16.51 35.7-16.51m-20.08 24.62a6.54 6.54 0 1 0 -6.54-6.54 6.53 6.53 0 0 0 6.54 6.54m20-29.08c-18 0-30.19 3.58-36.3 10.63a14.81 14.81 0 0 0 -3.9 10.58l.08 16.87a4.34 4.34 0 0 0 .05.63h-9.79c-.27 0-.7 0-1.25 0a24.92 24.92 0 0 0 -16.43 6.37c-7.55 6.83-11.38 18.2-11.38 33.81 0 40.4 22.89 41.56 25.5 41.56h13a4.5 4.5 0 0 0 4.5-4.5v-18s-.12-7.62 4.58-12.42c2.72-2.79 6.71-4.2 11.85-4.2h36.07a29.75 29.75 0 0 0 12.58-3c5.53-2.8 12.11-8.72 12.11-21v-32.7a18.07 18.07 0 0 0 -4.6-13.23c-6.51-7.58-18.83-11.43-36.62-11.43zm-20 24.58a2 2 0 1 1 2-2 2 2 0 0 1 -2 2z" fill="#32363b"/><path d="m100.54 176.86c-17.11 0-28.85-3.58-34.91-10.65a15.9 15.9 0 0 1 -4.06-11.64v-32.77c0-11.16 5.91-16.5 10.87-19a27.47 27.47 0 0 1 11.56-2.8h36.1c5.8 0 10.35-1.66 13.51-4.93 5.38-5.55 5.17-13.93 5.17-14v-17.94a2.25 2.25 0 0 1 2.22-2.25h13c2.38 0 23.25 1.1 23.25 39.31 0 15-3.58 25.75-10.64 32.12a22.61 22.61 0 0 1 -14.92 5.84c-.56 0-1 0-1.16-.05h-48.42v.64h34.09a2.24 2.24 0 0 1 2.25 2.24v17a12.61 12.61 0 0 1 -3.35 9c-5.63 6.57-17.27 9.88-34.56 9.88zm20-24.58a4.29 4.29 0 1 0 4.29 4.29 4.29 4.29 0 0 0 -4.25-4.29z" fill="currentColor"/><path d="m154 63.13c2.46 0 21 1.19 21 37.06 0 33.59-18.62 35.71-23.31 35.71a9.24 9.24 0 0 1 -1.06-.05h-50.77v5.15h36.34v17.11s2.38 16.51-35.7 16.51c-39.79 0-36.72-19.91-36.72-19.91v-32.91c0-19.26 19-19.57 20.19-19.57h36.1c21.65 0 20.93-21.23 20.93-21.23v-17.87zm-33.42 100a6.54 6.54 0 1 0 -6.54-6.54 6.54 6.54 0 0 0 6.54 6.54m33.42-104.5h-13a4.5 4.5 0 0 0 -4.5 4.5v18s.12 7.62-4.58 12.42c-2.72 2.79-6.71 4.2-11.85 4.2h-36.07a29.75 29.75 0 0 0 -12.58 3c-5.53 2.8-12.11 8.72-12.11 21v32.65a18.07 18.07 0 0 0 4.6 13.23c6.51 7.58 18.83 11.43 36.62 11.43 18 0 30.19-3.58 36.3-10.63a14.81 14.81 0 0 0 3.9-10.58v-16.92a4.34 4.34 0 0 0 0-.63h9.79c.27 0 .7.05 1.25.05 4.65 0 27.81-1.94 27.81-40.21 0-40.4-22.89-41.56-25.5-41.56zm-33.42 100a2 2 0 1 1 2-2 2 2 0 0 1 -2 2z" fill="#32363b"/></svg>