<svg viewBox="0 0 200 200" xmlns="http://www.w3.org/2000/svg"><path d="m39.62 132.25c-8.6 0-13.95-6.59-13.95-17.21 0-16.44 11.14-30.33 24.33-30.33a12.84 12.84 0 0 1 8.86 3.55l.39-1.07a2.25 2.25 0 0 1 2.11-1.47h7.19a2.25 2.25 0 0 1 2.21 2.69l-8.19 41a2.26 2.26 0 0 1 -2.21 1.81h-7.36a2.23 2.23 0 0 1 -1.65-.72 2.26 2.26 0 0 1 -.6-1.7v-.51a20 20 0 0 1 -11.13 3.96zm10.87-35.68c-5.21 0-11 7.36-11 17.22 0 6.61 2.9 6.61 3.85 6.61 3.05 0 6.12-2 8.67-5.59l3.04-15.11c-1.24-2.03-2.84-3.13-4.56-3.13z" fill="currentColor"/><path d="m50 87a10.66 10.66 0 0 1 9.44 5.77h.17l1.74-4.77h7.19l-8.19 41h-7.35l.41-5.68h-.25c-3.84 4-8.85 6.68-13.54 6.68-7.18 0-11.7-5.35-11.7-15 0-15.67 10.7-28 22.08-28m-6.7 35.65c3.51 0 7.44-2 10.78-6.94l3.35-16.38c-1.84-3.51-4.43-5-6.94-5-6.94 0-13.29 8.94-13.29 19.47 0 6 2.34 8.86 6.1 8.86m6.7-40.2c-14.4 0-26.57 14.92-26.57 32.58 0 11.82 6.36 19.46 16.2 19.46a20.67 20.67 0 0 0 9.86-2.7 2.75 2.75 0 0 0 .22.26 4.5 4.5 0 0 0 3.29 1.44h7.35a4.5 4.5 0 0 0 4.41-3.62l8.19-41a4.49 4.49 0 0 0 -4.41-5.38h-7.19a4.49 4.49 0 0 0 -3.23 1.37 15 15 0 0 0 -8.12-2.41zm-6.7 35.69c-.59 0-.69-.14-.81-.31s-.79-1.31-.79-4c0-8.29 4.81-15 8.79-15a3 3 0 0 1 2.17 1.37l-2.8 13.69c-2 2.76-4.36 4.27-6.56 4.27z" fill="#32363b"/><path d="m103.47 131.25a2.26 2.26 0 0 1 -2.25-2.16l-.75-19.73v-.92c-.23.57-.45 1.13-.69 1.7l-8.45 19.74a2.25 2.25 0 0 1 -2.07 1.37h-10.44a2.25 2.25 0 0 1 -2.25-2.12l-2.42-41a2.23 2.23 0 0 1 2.24-2.38h8.86a2.25 2.25 0 0 1 2.25 2.15l.67 22v.72c.23-.53.47-1.06.71-1.59l9.52-21.96a2.23 2.23 0 0 1 2.06-1.35h8.19a2.25 2.25 0 0 1 2.25 2.13l1.08 22v.87l.68-1.64 9.1-22a2.25 2.25 0 0 1 2.08-1.38h8.36a2.25 2.25 0 0 1 2.06 3.15l-18 41a2.26 2.26 0 0 1 -2.06 1.34z" fill="currentColor"/><path d="m132.22 88-18 41h-10.7l-.75-19.72c0-3.85-.09-7.94-.09-12.12h-.33c-1.59 4.18-3 8.27-4.6 12.12l-8.49 19.72h-10.44l-2.43-41h8.86l.67 22c.08 3.93-.08 7.78-.08 11.79h.33c1.59-4 3-7.94 4.76-11.79l9.53-22h8.19l1.09 22c.08 3.93.08 7.78.16 11.79h.34c1.5-4 2.84-7.86 4.51-11.79l9.11-22zm0-4.5h-8.36a4.5 4.5 0 0 0 -4.16 2.77l-5.92 14.3-.63-12.8a4.5 4.5 0 0 0 -4.5-4.27h-8.19a4.5 4.5 0 0 0 -4.13 2.71l-6.2 14.3-.38-12.65a4.51 4.51 0 0 0 -4.5-4.36h-8.86a4.5 4.5 0 0 0 -4.49 4.76l2.42 41a4.5 4.5 0 0 0 4.5 4.24h10.44a4.5 4.5 0 0 0 4.14-2.73l5.17-12.09.4 10.49a4.5 4.5 0 0 0 4.5 4.33h10.7a4.5 4.5 0 0 0 4.12-2.69l18-41a4.5 4.5 0 0 0 -4.12-6.31z" fill="#32363b"/><path d="m159.21 131.25a2.24 2.24 0 0 1 -2.1-1.44l-5.77-15-5.1 5.15-1.87 9.45a2.26 2.26 0 0 1 -2.21 1.81h-9a2.26 2.26 0 0 1 -1.74-.82 2.29 2.29 0 0 1 -.46-1.87l11.87-59a2.24 2.24 0 0 1 2.2-1.8h8.94a2.23 2.23 0 0 1 1.74.82 2.26 2.26 0 0 1 .47 1.87l-6 29.89 13.18-13.91a2.26 2.26 0 0 1 1.63-.7h10a2.25 2.25 0 0 1 1.64 3.79l-15.54 16.51 9.22 22.13a2.25 2.25 0 0 1 -2.08 3.12z" fill="currentColor"/><path d="m153.94 70-7.43 37.1h.33l18.16-19.1h10l-16.54 17.55 9.77 23.45h-9l-7-18.22-8 8.11-2 10.11h-9l11.77-59zm0-4.5h-8.94a4.5 4.5 0 0 0 -4.41 3.61l-11.87 59a4.5 4.5 0 0 0 4.41 5.39h9a4.49 4.49 0 0 0 4.41-3.62l1.75-8.79 2.17-2.2 4.54 11.73a4.51 4.51 0 0 0 4.2 2.88h9a4.5 4.5 0 0 0 4.16-6.23l-8.66-20.79 14.55-15.43a4.49 4.49 0 0 0 -3.25-7.58h-10a4.48 4.48 0 0 0 -3.26 1.4l-7.81 8.24 4.46-22.23a4.51 4.51 0 0 0 -4.42-5.38z" fill="#32363b"/></svg>