<svg viewBox="0 0 63.19 63.19" xmlns="http://www.w3.org/2000/svg"><path d="m57.76 63.19h-52.33a5.36 5.36 0 0 1 -5.43-5.42v-52.34a5.52 5.52 0 0 1 5.43-5.43h52.33a5.37 5.37 0 0 1 5.43 5.43v52.34a5.36 5.36 0 0 1 -5.43 5.42zm-52.33-60.19a2.5 2.5 0 0 0 -2.43 2.49v52.28a2.4 2.4 0 0 0 2.43 2.42h52.33a2.39 2.39 0 0 0 2.43-2.42v-52.34a2.4 2.4 0 0 0 -2.43-2.43z" fill="#020202"/><path d="m48.45 54.2h-.09a4.52 4.52 0 1 1 4.56-4.47 4.42 4.42 0 0 1 -4.47 4.47z" fill="#020202"/><path d="m8.5 54.69v-46.19h46.19v31.5a11.34 11.34 0 0 0 -6.24-1.87 11.5 11.5 0 0 0 -10.45 16.56z" fill="currentColor"/></svg>
