<svg viewBox="0 0 200 200" xmlns="http://www.w3.org/2000/svg"><g fill="#32363b"><path d="m58.19 174.51c7.71 0 15.44.37 23.1-.2 2.73-.2 6.87-2.07 7.66-4.19a227.5 227.5 0 0 0 8.22-27.34c1.75-7.34.43-14-7.72-17.25-8.58-3.39-14.25.73-18.32 7.66-3.89 6.64-6.63 14-11 20.3-2.1 3-7.42 6.61-10 5.82-3.87-1.17-8.22-5.56-9.33-9.45-.75-2.62 3-7.73 6-10 4.95-3.65 11-5.74 16.5-8.69 8.23-4.44 15.5-10 11.06-20.75-4.56-11.08-13.92-8.7-22.62-6.42-6.36 1.68-12.44 4.69-18.88 5.77-6.09 1-7.94 3.88-7.86 9.54.19 14 .18 27.92.11 41.87-.06 9.8 4.66 14 14.37 13.39 6.22-.37 12.52-.06 18.71-.06zm1-149.2c-7 0-14 .22-20.91-.06-8.74-.35-13.04 3.75-13.1 12.36-.1 14.68-.3 29.38.11 44.05.07 2.57 2.38 6.57 4.55 7.33 9.3 3.24 18.9 5.65 28.46 8.1 7.41 1.9 13.34-.58 16.09-7.81 2.62-6.88 1.15-13.16-5.76-17s-14.63-7.11-21.14-11.7c-3.34-2.34-7.32-7.51-6.78-10.68.64-3.74 5.45-8.67 9.18-9.42 3.14-.62 8.49 3.19 10.8 6.49 4.79 6.86 7.15 15.63 12.6 21.74 3.28 3.68 11.17 6.17 15.75 4.86 3.75-1.07 8.5-9 7.88-13.11-1.75-11.43-4-23.93-10.29-33-2.95-4.25-15.77-1.65-24.12-2.14-1.1-.1-2.2-.04-3.3-.01zm81.44 149.21v-.06h23.08c7.1 0 11.08-3.47 11.13-10.66.12-15.41.21-30.82-.14-46.22-.05-2.33-2.05-6-4-6.67-9.32-3.17-18.89-5.65-28.44-8.12-7.21-1.87-13 0-16.38 7.23-3.72 7.88-.68 13.73 5.91 17.8 6.83 4.23 14.5 7.16 21.14 11.63 3.16 2.14 7.37 7.47 6.56 9.73a19.07 19.07 0 0 1 -10 10.24c-2.16.85-7.62-3.24-9.73-6.36-4.69-6.94-8-14.81-12.27-22.05-4-6.68-10.77-9.31-16.8-5-4.15 3-8.41 10.09-7.75 14.65 1.59 11 3.55 23.76 10.24 31.66 4 4.75 17.22 1.71 26.3 2.17.43.05.8.03 1.17.03zm-.06-149.19c-7.33 0-14.69-.37-22 .2-2.67.2-6.72 2.06-7.46 4.13-3.33 9.26-5.84 18.84-8.35 28.38-2 7.43.68 13.13 7.86 16 7 2.83 13.11 1.21 17-5.56 4-7 7.07-14.57 11.62-21.15 2.34-3.39 7.82-7.82 10.46-7 4.15 1.24 8.85 6 9.93 10.21.7 2.71-3.93 8-7.37 10.34-6.29 4.33-13.68 7-20.2 11s-9.92 9.66-6.24 17.68c3.34 7.26 9 9.29 16.26 7.44 9.55-2.44 19.14-4.86 28.41-8.14 2.1-.74 4.13-4.93 4.2-7.59.4-14.66.21-29.34.16-44 0-8.16-4.23-12-12.34-12-7.27.12-14.6.06-21.92.06zm-25.57 74.67c0-8.6-5.65-14.56-14.24-14.88s-15.89 6.48-15.92 14.76c0 7.84 6.66 14.68 14.65 15 8.89.32 15.44-5.94 15.51-14.88z"/><path d="m58.19 174.51c-6.24 0-12.49-.31-18.71.08-9.71.59-14.43-3.59-14.37-13.39.07-13.95.08-27.91-.11-41.87-.08-5.66 1.77-8.52 7.86-9.54 6.44-1.08 12.52-4.09 18.88-5.77 8.7-2.3 18.06-4.68 22.63 6.39 4.44 10.77-2.83 16.31-11.06 20.75-5.48 3-11.55 5-16.5 8.69-3 2.23-6.79 7.34-6 10 1.11 3.89 5.46 8.28 9.33 9.45 2.63.79 7.95-2.79 10-5.82 4.35-6.29 7.09-13.66 11-20.3 4.07-6.93 9.74-11 18.32-7.66 8.15 3.23 9.47 9.91 7.72 17.25a227.5 227.5 0 0 1 -8.18 27.3c-.79 2.12-4.93 4-7.66 4.19-7.66.57-15.39.2-23.1.2z"/><path d="m59.21 25.29c1.1 0 2.2-.07 3.3 0 8.35.49 21.17-2.11 24.12 2.14 6.32 9.1 8.54 21.6 10.29 33 .62 4.13-4.13 12-7.88 13.11-4.58 1.31-12.47-1.18-15.75-4.86-5.45-6.08-7.81-14.85-12.6-21.68-2.31-3.3-7.66-7.11-10.8-6.49-3.73.75-8.54 5.68-9.18 9.42-.54 3.17 3.44 8.34 6.78 10.68 6.51 4.56 14.11 7.68 21.14 11.63s8.38 10.16 5.76 17c-2.75 7.27-8.68 9.76-16.09 7.85-9.56-2.45-19.16-4.86-28.46-8.1-2.17-.76-4.48-4.76-4.55-7.33-.41-14.67-.21-29.37-.11-44 .06-8.66 4.36-12.76 13.12-12.41 6.96.28 13.94.06 20.91.04z"/><path d="m140.65 174.52c-.37 0-.74 0-1.1 0-9.08-.46-22.27 2.58-26.3-2.17-6.69-7.9-8.65-20.63-10.24-31.66-.66-4.56 3.6-11.66 7.75-14.65 6-4.34 12.85-1.71 16.8 5 4.28 7.24 7.58 15.11 12.27 22.05 2.11 3.12 7.57 7.21 9.73 6.36a19.07 19.07 0 0 0 10-10.24c.81-2.26-3.4-7.59-6.56-9.73-6.64-4.47-14.31-7.4-21.14-11.63-6.59-4.07-9.63-9.92-5.91-17.8 3.4-7.22 9.17-9.1 16.38-7.23 9.55 2.47 19.12 4.95 28.44 8.12 1.91.65 3.91 4.34 4 6.67.35 15.4.26 30.81.14 46.22-.05 7.19-4 10.66-11.13 10.66h-23.13z"/><path d="m140.59 25.33c7.32 0 14.65.06 22 0 8.11-.08 12.32 3.81 12.34 12 .05 14.67.24 29.35-.16 44-.07 2.66-2.1 6.85-4.2 7.59-9.27 3.28-18.86 5.7-28.41 8.14-7.25 1.85-12.92-.18-16.26-7.44-3.68-8-.27-13.66 6.24-17.68s13.91-6.71 20.2-11c3.44-2.37 8.07-7.63 7.37-10.34-1.08-4.17-5.78-9-9.93-10.21-2.64-.78-8.12 3.65-10.46 7-4.55 6.58-7.6 14.17-11.62 21.15-3.9 6.77-10 8.39-17 5.56-7.18-2.9-9.82-8.6-7.86-16 2.51-9.54 5-19.12 8.35-28.38.74-2.07 4.79-3.93 7.46-4.13 7.25-.59 14.61-.26 21.94-.26z"/></g><path d="m115 100c0 8.9-6.6 15.16-15.49 14.83-8-.31-14.67-7.15-14.65-15 0-8.28 7.33-15 15.9-14.72s14.24 6.33 14.24 14.89z" fill="currentColor"/></svg>