<svg viewBox="0 0 200 200" xmlns="http://www.w3.org/2000/svg"><path d="m50.75 116.77q2.56 3.15 5.69 6.38a25.68 25.68 0 0 0 -12.55 8.22c-3.93 4.74-6 11-5.53 16.39h-10.46c2.1-4.55 10.47-17.71 22.85-30.99z" fill="currentColor"/><path d="m172 150.62h-12.75c-29.19-15.24-54.82-26-82-28.33a52.74 52.74 0 0 1 2-12.85l-2.51-.68a55.81 55.81 0 0 0 -2.11 13.34c-2.84-.19-5.69-.28-8.57-.28a35.47 35.47 0 0 0 -6.7.61 90.25 90.25 0 0 1 -6.81-7.56c12.55-13.07 33.23-24.87 51.23-29.35 5.07 16.84 15.94 28.39 29.15 36.15q1.45-.83 2.85-1.74l23 24.8 1-.09a12.88 12.88 0 0 1 10.82 3.93 7.47 7.47 0 0 1 1.4 2.05z" fill="currentColor"/><path d="m160.74 67.67c.47 22.88-11.21 41.1-27.55 50.44-27.75-13.82-33-48.84-28.24-67.63 1.31 7.19 3.7 11.69 8.87 13.9 11.27-3.22 26.77-3.48 38.19-.33 4.76-3.46 6.6-8.75 7.61-13.36 1.26 5.37 1.12 16.98 1.12 16.98z" fill="#fff"/><g fill="#32363b"><path d="m90.95 89.34 4.24 12.54-12.86-8.62z"/><path d="m78.57 94.83 4.54 7.83-9.56-4.86z"/><path d="m68.22 100.94 2.19 7.84-6.58-4.55z"/><path d="m138.3 121.95-4.07 6.27 7.21-3.29z"/><path d="m144.73 129.16-6.58 5.02 9.09-2.35z"/><path d="m128.74 61.11 4.86 10.67 3.14-10.82z"/><path d="m104.12 76.64 7.69 4.07-6.9.47z"/><path d="m106 84.95 4.71 1.88-3.92 1.1z"/><path d="m160.88 79.62-6.27 2.66 5.17.78z"/><path d="m158.37 87.3-4.86 1.41 3.92 1.41z"/><path d="m101.6 99.07h15.13v1.87h-15.13z"/><path d="m101.6 94.58h15.13v1.87h-15.13z"/><path d="m147.81 99.07h15.13v1.87h-15.13z"/><path d="m147.81 94.58h15.13v1.87h-15.13z"/><path d="m142.47 83.51h-24.66v-1.68h7.68c.94-4 1.13-7.92 0-9.88a2.27 2.27 0 0 0 -2.12-1.22c-4.39 0-6.2 4.64-6.27 4.84l-1.59-.57c.09-.24 2.29-5.92 7.85-5.92a3.94 3.94 0 0 1 3.57 2.06c1.39 2.38 1.23 6.51.29 10.72h13.46c1.79-5.26 5.53-7.74 11.77-7.74v1.68c-6.77 0-8.66 2.87-10 6.06h7.35v1.67z"/><path d="m143.58 91.81c-2-2.94-2.63-5.45-1.79-8.31h-1.72a9.45 9.45 0 0 0 1.12 7.23h-17.1a40.76 40.76 0 0 0 2.71-7.23h-1.74a35.43 35.43 0 0 1 -3.1 7.65l-.4.7 9.6 6-5.4 3.56.92 1.4 6-4 6.53 4.25.89-1.42-6-3.74 9.49-6.16zm-10.88 5.08-7.1-4.47h13.88z"/><path d="m163.56 65.64c0-2.92-.92-15.28-2.59-18.68-4.54 1.73-12.79 7.31-14.66 13a90.92 90.92 0 0 0 -27.9.35c-1.48-6.15-8.89-10.85-14.49-13.5-2.36 4-3.4 13.21-3.14 19.76 1 27.5 14.53 44.63 32.18 55 18.15-10.38 31.11-30.59 30.61-56zm-15.1-5.3h.2zm-1.13-.19.48.08zm13.41 7.48c.47 22.88-11.21 41.09-27.55 50.44-27.75-13.83-33-48.85-28.24-67.63 1.31 7.18 3.7 11.69 8.87 13.89 11.26-3.22 26.77-3.47 38.19-.32 4.76-3.46 6.6-8.75 7.61-13.37 1.26 5.36 1.12 16.98 1.12 16.99z"/><path d="m172.57 146.8c-2.85-3.19-8.43-4.7-13.09-4.59-3.31-3.93-22.49-24.13-22.49-24.13l-1.33 1.67 23.16 24.93 1-.08a12.88 12.88 0 0 1 10.82 3.93 7.3 7.3 0 0 1 1.34 2h-12.73c-29.19-15.23-54.82-26-82-28.32a52.6 52.6 0 0 1 2-12.85l-2.51-.68a55.81 55.81 0 0 0 -2.11 13.33c-2.84-.18-5.69-.28-8.57-.28a35.44 35.44 0 0 0 -6.7.62 91.85 91.85 0 0 1 -6.81-7.56c12.64-13.17 33.52-25.08 51.62-29.46l-.59-2.53c-19.48 4.7-40.81 17.49-52.69 29.84-5.52-7.44-7.7-13.55-8.35-18.18a19.74 19.74 0 0 1 4-15.51c5.42-6.73 13.12-7.2 21-5.87a4.88 4.88 0 0 0 .51 3.18c2.1 3.1 13.35 4.18 20.06 1.19-5-6.95-15-10.34-17.77-9a4.82 4.82 0 0 0 -2.1 2.24 45 45 0 0 0 -7.43-.84c-7 0-12.32 2.49-16.32 7.46a22.23 22.23 0 0 0 -4.49 17.55c.87 6.23 3.95 12.85 9.12 19.72-.86.92-1.69 1.83-2.49 2.72-12.63 14.1-21.84 29.21-21.84 31.7v1.3h16.62l-.29-1.54c-.94-5 .93-11.16 4.77-15.79a23.28 23.28 0 0 1 12.67-7.76 172 172 0 0 0 20.57 16.79h12.34v-1.3a4.22 4.22 0 0 0 -2-3.61c-2-1.27-5-1.45-7.73-.51-2.63-2.93-4.11-6.86-4.43-11.73 26.79 2.38 52.42 13.2 81.34 28.3h15.92l.2-1c.23-1.51-.55-3.5-2.2-5.35zm-128.68-15.47c-3.93 4.74-6 11-5.53 16.38h-10.47c2.1-4.55 10.48-17.7 22.86-31q2.55 3.16 5.69 6.38a25.69 25.69 0 0 0 -12.55 8.24z"/></g></svg>