<?xml version="1.0" encoding="UTF-8"?><svg id="uuid-1ffce5f0-96b5-494c-a65d-9fc7957a34f4" xmlns="http://www.w3.org/2000/svg" viewBox="0 0 623.5327 382.7"><path d="M233.3327,0h379.9502c5.6608,0,10.2498,4.589,10.2498,10.2498v362.2005c0,5.6608-4.589,10.2498-10.2498,10.2498H233.3327V0Z" style="fill:rgba(103,183,99,.2); stroke:#67b763; stroke-miterlimit:10; stroke-width:2px;"/><path d="M63.8825,0h168.9502v382.7H63.8825c-5.6608,0-10.2498-4.589-10.2498-10.2498V10.2498c0-5.6608,4.589-10.2498,10.2498-10.2498Z" style="fill:rgba(222,235,253,.2); stroke:#009cde; stroke-miterlimit:10; stroke-width:2px;"/><path d="M111.4327,207.2c0,22.4,18.2,40.5,40.5,40.5s40.5-18.2,40.5-40.5-18.2-40.5-40.5-40.5-40.5,18.2-40.5,40.5h0ZM186.9327,204.6h-10.3c-.1-3.8-.6-7.3-1.3-10.7h9.2c1.4,3.3,2.1,6.9,2.4,10.7h0ZM117.0327,209.9h10.2c.2,3.9.6,7.3,1.4,10.7h-9.2c-1.4-3.3-2.1-6.8-2.4-10.7ZM132.4327,209.9h16.8v10.7h-15.4c-.6-3.3-1.1-6.8-1.4-10.7ZM149.2327,226v16.1c-5.8-1.5-10.7-7.5-13.9-16.1h13.9ZM154.5327,241.9v-16.1h13.9c-3.1,8.6-8.1,14.7-13.9,16.1ZM154.5327,220.6v-10.7h16.8c-.2,3.9-.6,7.4-1.4,10.7h-15.4ZM176.6327,209.9h10.2c-.4,3.8-1.1,7.3-2.5,10.7h-9c.7-3.4,1.2-6.8,1.3-10.7ZM171.4327,204.6h-16.8v-10.7h15.4c.7,3.3,1.2,6.9,1.4,10.7h0ZM154.5327,188.6v-16.1c5.8,1.5,10.7,7.4,13.9,16.1h-13.9ZM149.2327,172.5v16.1h-13.9c3.3-8.5,8.2-14.5,13.9-16.1ZM149.2327,193.9v10.7h-16.8c.2-3.9.6-7.4,1.4-10.7h15.4ZM127.3327,204.6h-10.3c.4-3.8,1.1-7.3,2.5-10.7h9.2c-.9,3.4-1.3,6.9-1.4,10.7h0ZM122.1327,226h7.7c1.6,5,3.9,9.3,6.5,12.8-5.7-3-10.7-7.3-14.2-12.8ZM167.4327,238.8c2.7-3.5,4.9-7.7,6.5-12.8h7.7c-3.5,5.5-8.3,9.8-14.2,12.8h0ZM181.6327,188.6h-7.9c-1.6-5-3.8-9.4-6.3-12.9,5.9,3.1,10.7,7.4,14.2,12.9ZM136.4327,175.7c-2.7,3.5-4.8,7.9-6.3,12.9h-7.9c3.4-5.5,8.4-9.8,14.2-12.9Z" style="fill:#3a3a3a; stroke-width:0px;"/><path d="M337.2327,246.3h-29.9c-.7,0-1.3-.1-1.7-.2-.5-.1-1.2-.4-1.9-.8-.6-.3-.9-.7-1.3-1-.1-.1-.3-.3-.4-.5l-18.7-23.3c-.1-.1-.2-.3-.3-.5-.2-.3-.5-.7-.6-1.3-.1-.3-.2-.6-.2-.9-.2-.9-.2-1.9,0-2.8l6.7-28.9c.5-2,1.8-3.6,3.6-4.5l26.9-12.9c1.8-.9,3.9-.9,5.8,0l26.9,12.8c1.9.9,3.2,2.6,3.6,4.5l6.7,28.9c.2.9.2,1.9,0,2.9,0,.3-.1.5-.2.7v.1c-.3.7-.6,1.4-1.1,1.9l-18.6,23.1c-.4.5-.9,1-1.6,1.4h0c-.2.1-.5.3-.8.4h0c-.1,0-.3.1-.5.2h-.1c-.1,0-.2.1-.4.1-.3.1-.6.1-.9.2-.5.4-.8.4-1,.4h0ZM285.7327,218.7l18.6,23.2s0,.1.1.1l.1.1c.3.3.5.5.7.6h0c.3.2.6.3,1.1.5.3.1.7.1.9.1h30.2c.2,0,.4,0,.6-.1h.2c.1,0,.2-.1.3-.1h0c.1,0,.1-.1.2-.1s.2-.1.3-.2c.4-.2.7-.5.8-.7h0l18.6-23.1c.2-.3.4-.6.6-1v-.1c0-.1.1-.2.1-.3.1-.7.1-1.2,0-1.8l-6.7-28.8c-.2-1.1-1-2-2-2.5l-26.9-12.9c-1-.5-2.2-.5-3.2,0l-26.9,12.8c-1,.5-1.7,1.3-2,2.5l-6.7,28.9c-.1.5-.1,1.1,0,1.6h0s0,.1.1.3v.1c.1.2.2.5.3.7v.1h0c.6,0,.6.1.6.1h0Z" style="fill:#3a3a3a; stroke-width:0px;"/><path d="M347.7327,213l-7.9-1.7c.1-.7.1-1.4.1-2.1,0-3.5-1.1-6.8-2.8-9.6l6.4-5c.7-.5.8-1.4.3-2.1s-1.4-.8-2.1-.3l-6.4,5c-2.9-3.2-6.9-5.2-11.4-5.6v-8.1c0-.8-.7-1.5-1.5-1.5s-1.5.7-1.5,1.5v8.2c-4.4.4-8.4,2.4-11.3,5.4l-6.3-5.1c-.7-.5-1.6-.4-2.1.2-.5.7-.4,1.6.2,2.1l6.3,5.1c-1.9,2.8-3,6.2-3,9.8,0,.9,0,1.7.2,2.6l-8,1.9c-.8.2-1.3,1-1.2,1.8.1.7.8,1.2,1.4,1.2.1,0,.2,0,.3-.1l8-1.9c1.3,4,4,7.4,7.5,9.6l-3.5,7.3c-.4.7-.1,1.7.7,2,.2.1.5.1.7.1.5,0,1.1-.3,1.3-.8l3.7-7.3c2,.8,4.3,1.3,6.7,1.3,2.2,0,4.3-.4,6.3-1.2l3.6,7.4c.3.5.8.9,1.3.9.2,0,.5-.1.7-.1.7-.3,1.1-1.3.7-2l-3.5-7.4c3.8-2.2,6.6-5.8,7.9-10l7.9,1.7h.3c.7,0,1.3-.5,1.4-1.2-.1-1-.7-1.8-1.4-2h0ZM336.8327,209.3c0,.5,0,1-.1,1.5l-6.5-1.4v-.1c0-1.3-.3-2.6-.9-3.7l5.3-4.1c1.4,2.2,2.2,4.9,2.2,7.8ZM332.7327,199.1l-5.2,4.1c-1.1-.9-2.3-1.6-3.8-1.9v-6.7c3.5.4,6.6,2,9,4.5h0ZM325.8327,206.3l.9,4-2.5,3.2h-4.1l-2.6-3.1,1-4,3.7-1.7,3.6,1.6ZM320.6327,194.6v6.7c-1.4.3-2.7.9-3.7,1.8l-5.2-4.2c2.4-2.3,5.4-3.9,8.9-4.3h0ZM307.5327,209.3c0-2.9.8-5.6,2.3-7.9l5.2,4.1c-.6,1.2-.9,2.4-.9,3.8v.3l-6.5,1.5c0-.6-.1-1.2-.1-1.8h0ZM308.3327,214l6.4-1.5c.5,1.3,1.4,2.3,2.5,3.1l-3,6c-2.7-1.8-4.8-4.5-5.9-7.6h0ZM322.2327,223.9c-1.9,0-3.7-.4-5.3-1l3-6c.7.2,1.4.3,2.2.3s1.4-.1,2.1-.3l2.9,6c-1.5.7-3.2,1-4.9,1h0ZM329.9327,221.7l-2.9-6c1.2-.9,2-2,2.6-3.3l6.6,1.4c-1.2,3.3-3.4,6.1-6.3,7.9h0Z" style="fill:#3a3a3a; stroke-width:0px;"/><g style="isolation:isolate;"><path d="M97.8327,361.7h-5.7l-1.1,3.2h-3.4l5.8-15.6h3l5.9,15.6h-3.4l-1.1-3.2ZM93.0327,359.1h3.9l-2-5.9-1.9,5.9Z" style="fill:#3a3a3a; stroke-width:0px;"/><path d="M107.8327,360.2l-1.1,1.1v3.5h-3.1v-16.5h3.1v9.1l.6-.8,3-3.5h3.7l-4.2,4.8,4.6,6.8h-3.6l-3-4.5Z" style="fill:#3a3a3a; stroke-width:0px;"/><path d="M122.0327,364.9c-.1-.3-.2-.6-.3-1-.8.8-1.7,1.3-2.9,1.3-1.1,0-2.1-.3-2.8-1-.7-.7-1.1-1.5-1.1-2.5,0-1.2.5-2.2,1.4-2.8s2.2-1,4-1h1.4v-.7c0-.5-.1-1-.4-1.3s-.7-.5-1.3-.5c-.5,0-.9.1-1.2.4-.3.3-.4.6-.4,1h-3.1c0-.7.2-1.3.6-1.9s1-1,1.8-1.3,1.6-.5,2.6-.5c1.4,0,2.6.4,3.4,1.1s1.3,1.7,1.3,3v5c0,1.1.2,1.9.5,2.5v.2h-3.5ZM119.5327,362.8c.5,0,.9-.1,1.3-.3.4-.2.7-.5.9-.8v-2h-1.2c-1.6,0-2.4.5-2.5,1.6v.2c0,.4.1.7.4,1,.2.1.6.3,1.1.3Z" style="fill:#3a3a3a; stroke-width:0px;"/><path d="M130.0327,353.3l.1,1.3c.8-1,1.9-1.5,3.3-1.5,1.5,0,2.5.6,3.1,1.8.8-1.2,2-1.8,3.5-1.8,1.3,0,2.2.4,2.8,1.1s.9,1.8.9,3.3v7.4h-3.1v-7.4c0-.7-.1-1.1-.4-1.4-.3-.3-.7-.5-1.4-.5-.9,0-1.6.4-1.9,1.3v8h-3.1v-7.4c0-.7-.1-1.2-.4-1.5s-.7-.5-1.4-.5c-.9,0-1.5.4-1.9,1.1v8.2h-3.1v-11.6h3v.1Z" style="fill:#3a3a3a; stroke-width:0px;"/><path d="M152.9327,364.9c-.1-.3-.2-.6-.3-1-.8.8-1.7,1.3-2.9,1.3-1.1,0-2.1-.3-2.8-1s-1.1-1.5-1.1-2.5c0-1.2.5-2.2,1.4-2.8s2.2-1,4-1h1.4v-.7c0-.5-.1-1-.4-1.3-.3-.3-.7-.5-1.3-.5-.5,0-.9.1-1.2.4s-.4.6-.4,1h-3.1c0-.7.2-1.3.6-1.9.4-.6,1-1,1.8-1.3s1.6-.5,2.6-.5c1.4,0,2.6.4,3.4,1.1.8.7,1.3,1.7,1.3,3v5c0,1.1.2,1.9.5,2.5v.2h-3.5ZM150.3327,362.8c.5,0,.9-.1,1.3-.3.4-.2.7-.5.9-.8v-2h-1.2c-1.6,0-2.4.5-2.5,1.6v.2c0,.4.1.7.4,1,.3.1.6.3,1.1.3Z" style="fill:#3a3a3a; stroke-width:0px;"/><path d="M157.9327,350.3c0-.5.2-.8.5-1.1s.7-.5,1.3-.5c.5,0,1,.2,1.3.5s.5.7.5,1.1c0,.5-.2.9-.5,1.2-.3.3-.7.5-1.3.5-.5,0-.9-.2-1.3-.5-.3-.4-.5-.7-.5-1.2ZM161.2327,364.9h-3.1v-11.6h3.1v11.6Z" style="fill:#3a3a3a; stroke-width:0px;"/></g><g style="isolation:isolate;"><path d="M178.9327,358.1h-6.2v4.2h7.3v2.6h-10.5v-15.6h10.5v2.6h-7.2v3.7h6.2v2.5h-.1Z" style="fill:#3a3a3a; stroke-width:0px;"/></g><g style="isolation:isolate;"><path d="M180.9327,359c0-1.8.4-3.3,1.2-4.3.8-1.1,1.9-1.6,3.3-1.6,1.1,0,2.1.4,2.8,1.3v-5.9h3.1v16.5h-2.8l-.2-1.2c-.8,1-1.8,1.5-3,1.5-1.4,0-2.5-.5-3.3-1.6-.7-1.3-1.1-2.8-1.1-4.7ZM184.0327,359.2c0,1.1.2,1.9.6,2.5.4.6.9.9,1.7.9,1,0,1.6-.4,2-1.2v-4.6c-.4-.8-1.1-1.2-2-1.2-1.5,0-2.3,1.2-2.3,3.6Z" style="fill:#3a3a3a; stroke-width:0px;"/><path d="M193.4327,359c0-1.8.4-3.2,1.3-4.3s2-1.6,3.4-1.6c1.3,0,2.3.4,3,1.3l.1-1.1h2.8v11.2c0,1-.2,1.9-.7,2.7s-1.1,1.3-1.9,1.7-1.8.6-2.9.6c-.9,0-1.7-.2-2.5-.5s-1.4-.8-1.8-1.3l1.4-1.9c.8.9,1.7,1.3,2.8,1.3.8,0,1.5-.2,1.9-.7.5-.4.7-1.1.7-1.9v-.6c-.7.8-1.7,1.2-2.8,1.2-1.4,0-2.5-.5-3.4-1.6s-1.3-2.5-1.3-4.3v-.2h-.1ZM196.5327,359.2c0,1.1.2,1.9.6,2.5.4.6,1,.9,1.7.9.9,0,1.6-.4,2-1.1v-4.9c-.4-.7-1.1-1.1-2-1.1-.7,0-1.3.3-1.8.9-.3.7-.5,1.6-.5,2.8Z" style="fill:#3a3a3a; stroke-width:0px;"/><path d="M211.7327,365.1c-1.7,0-3.1-.5-4.2-1.6-1.1-1-1.6-2.4-1.6-4.2v-.3c0-1.2.2-2.2.7-3.1s1.1-1.6,1.9-2.1c.8-.5,1.8-.7,2.8-.7,1.6,0,2.8.5,3.8,1.5s1.4,2.4,1.4,4.3v1.3h-7.4c.1.8.4,1.4.9,1.8s1.1.7,1.9.7c1.2,0,2.1-.4,2.8-1.3l1.5,1.7c-.5.7-1.1,1.2-1.9,1.5-.7.3-1.6.5-2.6.5ZM211.4327,355.6c-.6,0-1.1.2-1.5.6s-.6,1-.7,1.8h4.3v-.2c0-.7-.2-1.2-.6-1.6s-.9-.6-1.5-.6Z" style="fill:#3a3a3a; stroke-width:0px;"/></g><g style="isolation:isolate;"><path d="M99.5327,149.6v-12.8h3.9c1.1,0,2.1.3,3,.8s1.6,1.2,2.1,2.2c.5.9.7,2,.7,3.2v.6c0,1.2-.2,2.2-.7,3.2s-1.2,1.6-2.1,2.2-1.9.8-3,.8h-3.9v-.2ZM102.2327,139v8.5h1.3c1,0,1.8-.3,2.4-1s.8-1.6.8-2.9v-.7c0-1.3-.3-2.3-.8-3s-1.3-1-2.4-1h-1.3v.1Z" style="fill:#3a3a3a; stroke-width:0px;"/><path d="M116.6327,149.6c-.1-.2-.2-.5-.3-.9-.6.7-1.4,1-2.4,1-.9,0-1.7-.3-2.3-.8s-.9-1.2-.9-2c0-1,.4-1.8,1.1-2.3s1.8-.8,3.2-.8h1.2v-.5c0-.4-.1-.8-.3-1.1s-.6-.4-1.1-.4c-.4,0-.8.1-1,.3s-.4.5-.4.8h-2.5c0-.6.2-1.1.5-1.5s.8-.8,1.4-1.1,1.3-.4,2.1-.4c1.2,0,2.1.3,2.8.9.7.6,1,1.4,1,2.5v4.1c0,.9.1,1.6.4,2v.1h-2.5v.1ZM114.5327,147.9c.4,0,.7-.1,1-.3s.6-.4.7-.7v-1.6h-.9c-1.3,0-1.9.4-2,1.3v.1c0,.3.1.6.3.8s.5.4.9.4Z" style="fill:#3a3a3a; stroke-width:0px;"/><path d="M123.7327,137.8v2.3h1.6v1.9h-1.6v4.7c0,.4.1.6.2.8s.4.2.8.2c.3,0,.5,0,.7-.1v1.9c-.5.2-1,.2-1.5.2-1.8,0-2.7-.9-2.7-2.7v-5h-1.4v-1.9h1.4v-2.3h2.5Z" style="fill:#3a3a3a; stroke-width:0px;"/><path d="M132.3327,149.6c-.1-.2-.2-.5-.3-.9-.6.7-1.4,1-2.4,1-.9,0-1.7-.3-2.3-.8s-.9-1.2-.9-2c0-1,.4-1.8,1.1-2.3s1.8-.8,3.2-.8h1.2v-.5c0-.4-.1-.8-.3-1.1s-.6-.4-1.1-.4c-.4,0-.8.1-1,.3s-.4.5-.4.8h-2.5c0-.6.2-1.1.5-1.5s.8-.8,1.4-1.1,1.3-.4,2.1-.4c1.2,0,2.1.3,2.8.9.7.6,1,1.4,1,2.5v4.1c0,.9.1,1.6.4,2v.1h-2.5v.1ZM130.2327,147.9c.4,0,.7-.1,1-.3s.6-.4.7-.7v-1.6h-.9c-1.3,0-1.9.4-2,1.3v.1c0,.3.1.6.3.8s.5.4.9.4Z" style="fill:#3a3a3a; stroke-width:0px;"/><path d="M141.6327,147c0-.3-.2-.6-.5-.7s-.8-.3-1.5-.5c-2.3-.5-3.4-1.4-3.4-2.9,0-.8.4-1.5,1.1-2.1s1.6-.8,2.7-.8c1.2,0,2.2.3,2.9.9s1.1,1.3,1.1,2.2h-2.5c0-.4-.1-.7-.4-.9-.2-.2-.6-.4-1.1-.4-.4,0-.8.1-1,.3s-.4.4-.4.7.1.5.4.7c.3.2.7.3,1.3.4s1.2.3,1.6.4c1.3.5,2,1.3,2,2.6,0,.9-.4,1.6-1.1,2.1-.7.5-1.7.8-2.9.8-.8,0-1.5-.1-2.1-.4-.6-.3-1.1-.7-1.5-1.2s-.5-1-.5-1.6h2.4c0,.5.2.8.5,1s.7.4,1.2.4.9-.1,1.1-.3c.5-.2.6-.4.6-.7Z" style="fill:#3a3a3a; stroke-width:0px;"/><path d="M148.7327,137.8v2.3h1.6v1.9h-1.6v4.7c0,.4.1.6.2.8s.4.2.8.2c.3,0,.5,0,.7-.1v1.9c-.5.2-1,.2-1.5.2-1.8,0-2.7-.9-2.7-2.7v-5h-1.4v-1.9h1.4v-2.3h2.5Z" style="fill:#3a3a3a; stroke-width:0px;"/></g><g style="isolation:isolate;"><path d="M157.1327,142.5c-.3,0-.7-.1-.9-.1-1,0-1.6.3-1.9,1v6.2h-2.5v-9.5h2.4l.1,1.1c.5-.9,1.2-1.3,2.1-1.3.3,0,.5,0,.8.1l-.1,2.5Z" style="fill:#3a3a3a; stroke-width:0px;"/></g><g style="isolation:isolate;"><path d="M162.6327,149.8c-1.4,0-2.5-.4-3.4-1.3s-1.3-2-1.3-3.4v-.2c0-1,.2-1.8.6-2.6s.9-1.3,1.6-1.7,1.4-.6,2.3-.6c1.3,0,2.3.4,3.1,1.2s1.1,2,1.1,3.5v1h-6.1c.1.6.3,1.1.7,1.5s.9.6,1.6.6c1,0,1.7-.4,2.3-1.1l1.2,1.4c-.4.5-.9,1-1.5,1.3-.7.3-1.5.4-2.2.4ZM162.3327,142c-.5,0-.9.2-1.2.5s-.5.8-.6,1.5h3.5v-.2c0-.6-.2-1-.5-1.3-.3-.4-.7-.5-1.2-.5Z" style="fill:#3a3a3a; stroke-width:0px;"/><path d="M173.4327,149.6c-.1-.2-.2-.5-.3-.9-.6.7-1.4,1-2.4,1-.9,0-1.7-.3-2.3-.8s-.9-1.2-.9-2c0-1,.4-1.8,1.1-2.3s1.8-.8,3.2-.8h1.2v-.5c0-.4-.1-.8-.3-1.1s-.6-.4-1.1-.4c-.4,0-.8.1-1,.3s-.4.5-.4.8h-2.5c0-.6.2-1.1.5-1.5s.8-.8,1.4-1.1,1.3-.4,2.1-.4c1.2,0,2.1.3,2.8.9.7.6,1,1.4,1,2.5v4.1c0,.9.1,1.6.4,2v.1h-2.5v.1ZM171.3327,147.9c.4,0,.7-.1,1-.3s.6-.4.7-.7v-1.6h-.9c-1.3,0-1.9.4-2,1.3v.1c0,.3.1.6.3.8s.5.4.9.4Z" style="fill:#3a3a3a; stroke-width:0px;"/><path d="M179.9327,140.1l.1,1.1c.7-.8,1.6-1.2,2.7-1.2,1.2,0,2.1.5,2.5,1.5.7-1,1.6-1.5,2.9-1.5,1,0,1.8.3,2.3.9.5.6.8,1.5.8,2.7v6.1h-2.5v-6.1c0-.5-.1-.9-.3-1.2s-.6-.4-1.1-.4c-.8,0-1.3.4-1.6,1.1v6.5h-2.5v-6.1c0-.6-.1-.9-.3-1.2s-.6-.4-1.1-.4c-.7,0-1.2.3-1.6.9v6.7h-2.5v-9.5h2.2v.1Z" style="fill:#3a3a3a; stroke-width:0px;"/><path d="M206.3327,149.6h-8.8v-1.7l4.1-4.4c.6-.6,1-1.2,1.3-1.6s.4-.9.4-1.3c0-.6-.1-1-.4-1.3-.3-.3-.7-.5-1.2-.5-.6,0-1,.2-1.4.6-.3.4-.5.9-.5,1.6h-2.5c0-.8.2-1.5.6-2.1s.9-1.1,1.6-1.5c.7-.4,1.5-.5,2.3-.5,1.3,0,2.3.3,3.1.9s1.1,1.5,1.1,2.7c0,.6-.2,1.3-.5,1.9s-.9,1.4-1.7,2.3l-2.9,3.1h5.5v1.8h-.1Z" style="fill:#3a3a3a; stroke-width:0px;"/></g><g style="isolation:isolate;"><g style="isolation:isolate;"><path d="M456.0327,47.8c0,1.3-.2,2.4-.7,3.3s-1.1,1.7-1.9,2.2-1.8.8-2.9.8-2-.3-2.8-.8-1.5-1.2-1.9-2.2c-.5-.9-.7-2-.7-3.3v-.6c0-1.3.2-2.4.7-3.3.5-1,1.1-1.7,1.9-2.2s1.8-.8,2.8-.8,2,.3,2.8.8,1.5,1.2,1.9,2.2c.5,1,.7,2.1.7,3.3v.6h.1ZM453.3327,47.2c0-1.3-.2-2.4-.7-3.1s-1.2-1-2.1-1-1.6.3-2,1-.7,1.7-.7,3v.6c0,1.3.2,2.3.7,3s1.2,1.1,2.1,1.1,1.6-.3,2-1c.5-.7.7-1.7.7-3v-.6Z" style="fill:#3a3a3a; stroke-width:0px;"/><path d="M466.3327,49.2c0,1.5-.3,2.7-1,3.6-.7.9-1.6,1.3-2.7,1.3-1,0-1.9-.4-2.5-1.2l-.1,1h-2.3v-13.5h2.5v4.8c.6-.7,1.4-1,2.3-1,1.2,0,2.1.4,2.7,1.3.7.9,1,2.1,1,3.6v.1h.1ZM463.7327,49c0-1-.2-1.7-.5-2.1-.3-.4-.8-.7-1.4-.7-.8,0-1.4.3-1.7,1v3.8c.3.7.9,1,1.7,1s1.4-.4,1.6-1.2c.3-.4.3-1,.3-1.8Z" style="fill:#3a3a3a; stroke-width:0px;"/><path d="M470.5327,44.4v10c0,1-.3,1.9-.8,2.4-.6.6-1.4.9-2.4.9-.4,0-.9,0-1.3-.1v-2c.3.1.6.1.8.1.8,0,1.2-.4,1.2-1.2v-10h2.5v-.1ZM467.8327,41.9c0-.4.1-.7.4-.9s.6-.4,1-.4.8.1,1,.4.4.6.4.9c0,.4-.1.7-.4.9s-.6.4-1,.4-.8-.1-1-.4-.4-.5-.4-.9Z" style="fill:#3a3a3a; stroke-width:0px;"/><path d="M476.9327,54c-1.4,0-2.5-.4-3.4-1.3s-1.3-2-1.3-3.4v-.2c0-1,.2-1.8.6-2.6s.9-1.3,1.6-1.7,1.4-.6,2.3-.6c1.3,0,2.3.4,3.1,1.2s1.1,2,1.1,3.5v1h-6.1c.1.6.3,1.1.7,1.5s.9.6,1.6.6c1,0,1.7-.4,2.3-1.1l1.2,1.4c-.4.5-.9,1-1.5,1.3-.7.3-1.4001.4-2.2.4ZM476.6327,46.2c-.5,0-.9.2-1.2.5-.3.3-.5.8-.6,1.5h3.5v-.2c0-.6-.2-1-.5-1.3-.2-.3-.7-.5-1.2-.5Z" style="fill:#3a3a3a; stroke-width:0px;"/><path d="M486.2327,52c.5,0,.8-.1,1.1-.4s.4-.6.5-1h2.4c0,.6-.2,1.2-.5,1.8-.3.5-.8,1-1.4,1.2-.6.3-1.3.4-2,.4-1.4,0-2.4-.4-3.2-1.3-.8-.9-1.2-2.1-1.2-3.6v-.1c0-1.5.4-2.6,1.2-3.5s1.8-1.3,3.2-1.3c1.2,0,2.1.3,2.9,1,.7.7,1.1,1.6,1.1,2.7h-2.4c0-.5-.2-.9-.5-1.2s-.7-.5-1.2-.5c-.6,0-1,.2-1.3.6-.3.4-.5,1.1-.5,2.1v.3c0,1,.1,1.7.4,2.1s.8.7,1.4.7Z" style="fill:#3a3a3a; stroke-width:0px;"/><path d="M494.7327,42v2.3h1.6v1.9h-1.6v4.8c0,.4.1.6.2.8s.4.2.8.2c.3,0,.5,0,.7-.1v1.9c-.5.2-1,.2-1.5.2-1.8,0-2.7-.9-2.7-2.7v-5.1h-1.4v-1.9h1.4v-2.3h2.5Z" style="fill:#3a3a3a; stroke-width:0px;"/><path d="M509.0327,50.5c0-.5-.2-.9-.5-1.1s-1-.5-1.9-.8-1.6-.6-2.2-.9c-1.5-.8-2.2-1.8-2.2-3.2,0-.7.2-1.3.6-1.9.4-.5.9-1,1.7-1.3s1.5-.5,2.5-.5c.9,0,1.7.2,2.4.5.7.3,1.3.8,1.7,1.4s.6,1.3.6,2.1h-2.6c0-.6-.2-1-.6-1.4-.4-.3-.9-.5-1.6-.5-.6,0-1.1.1-1.5.4-.4.3-.5.6-.5,1.1,0,.4.2.8.6,1s1,.5,1.8.8c1.5.5,2.6,1,3.3,1.7s1,1.5,1,2.5c0,1.1-.4,2-1.3,2.6-.8.6-2,.9-3.4.9-1,0-1.9-.2-2.7-.5-.8-.4-1.4-.9-1.8-1.5s-.6-1.4-.6-2.2h2.6c0,1.4.8,2.1,2.5,2.1.6,0,1.1-.1,1.5-.4.4-.1.6-.4.6-.9Z" style="fill:#3a3a3a; stroke-width:0px;"/></g><g style="isolation:isolate;"><path d="M516.3327,42v2.3h1.6v1.9h-1.6v4.8c0,.4.1.6.2.8s.4.2.8.2c.3,0,.5,0,.7-.1v1.9c-.5.2-1,.2-1.5.2-1.8,0-2.7-.9-2.7-2.7v-5.1h-1.4v-1.9h1.4v-2.3h2.5Z" style="fill:#3a3a3a; stroke-width:0px;"/></g><g style="isolation:isolate;"><path d="M518.7327,49c0-.9.2-1.8.5-2.5s.9-1.3,1.6-1.7,1.5-.6,2.4-.6c1.3,0,2.3.4,3.1,1.2s1.3,1.9,1.4,3.2v.7c0,1.5-.4,2.6-1.2,3.5s-1.9,1.3-3.3,1.3-2.5-.4-3.3-1.3-1.2-2.1-1.2-3.6v-.2h0ZM521.2327,49.2c0,.9.2,1.6.5,2.1s.8.7,1.5.7c.6,0,1.1-.2,1.4-.7.3-.5.5-1.2.5-2.3,0-.9-.2-1.6-.5-2.1s-.8-.7-1.5-.7c-.6,0-1.1.2-1.4.7-.3.5-.5001,1.3-.5001,2.3Z" style="fill:#3a3a3a; stroke-width:0px;"/></g><g style="isolation:isolate;"><path d="M534.6327,46.7c-.3,0-.7-.1-.9-.1-1,0-1.6.3-1.9,1v6.2h-2.4999v-9.5h2.4l.1,1.1c.5-.9,1.2-1.3,2.1-1.3.3,0,.5,0,.8.1l-.1,2.5Z" style="fill:#3a3a3a; stroke-width:0px;"/></g><g style="isolation:isolate;"><path d="M541.1327,53.9c-.1-.2-.2-.5-.3-.9-.6.7-1.4,1-2.4,1-.9,0-1.7-.3-2.3-.8s-.9-1.2-.9-2c0-1,.4-1.8,1.1-2.3.7-.5,1.8-.8,3.2-.8h1.2v-.5c0-.4-.1-.8-.3-1.1s-.6-.4-1.1-.4c-.4,0-.8.1-1,.3s-.4.5-.4.8h-2.5c0-.6.2-1.1.5-1.5s.8-.8,1.4-1.1,1.3-.4,2.1-.4c1.2,0,2.1.3,2.8.9.7.6,1,1.4,1,2.5v4.1c0,.9.1,1.6.4,2v.1h-2.5v.1ZM539.0327,52.1c.4,0,.7-.1,1-.3s.6-.4.7-.7v-1.6h-.9c-1.3,0-1.9.4-2,1.3v.1c0,.3.1.6.3.8s.5.4.9.4Z" style="fill:#3a3a3a; stroke-width:0px;"/><path d="M544.8327,49c0-1.5.3-2.6,1-3.5s1.6-1.3,2.8-1.3c1,0,1.9.4,2.4,1.1l.1-.9h2.3v9.2c0,.8-.2,1.6-.6,2.2-.4.6-.9,1.1-1.6,1.4s-1.5.5-2.4.5c-.7,0-1.4-.1-2-.4s-1.2-.6-1.5-1.1l1.1-1.5c.6.7,1.4,1.1,2.3,1.1.7,0,1.2-.2,1.6-.5.4-.4.6-.9.6-1.5v-.5c-.6.7-1.4,1-2.3,1-1.1,0-2.1-.4-2.8-1.3-.7-.9-1.1-2.1-1.1-3.6v-.4h.1ZM547.4327,49.2c0,.9.2,1.5.5,2s.8.7,1.4.7c.8,0,1.3-.3,1.7-.9v-4c-.3-.6-.9-.9-1.6-.9-.6,0-1.1.2-1.4.7-.4.7-.6,1.4-.6,2.4Z" style="fill:#3a3a3a; stroke-width:0px;"/><path d="M559.9327,54c-1.4,0-2.5-.4-3.4-1.3-.9-.9-1.3-2-1.3-3.4v-.2c0-1,.2-1.8.6-2.6s.9-1.3,1.6-1.7c.7-.4,1.4-.6,2.3-.6,1.3,0,2.3.4,3.1,1.2.7.8,1.1,2,1.1,3.5v1h-6.1c.1.6.3,1.1.7,1.5s.9.6,1.6.6c1,0,1.7-.4,2.3-1.1l1.2,1.4c-.4.5-.9,1-1.5,1.3-.6999.3-1.3998.4-2.1999.4ZM559.6327,46.2c-.5,0-.9.2-1.2.5s-.5.8-.6,1.5h3.5v-.2c0-.6-.2-1-.5-1.3s-.7-.5-1.2-.5Z" style="fill:#3a3a3a; stroke-width:0px;"/></g><g style="isolation:isolate;"><path d="M473.0327,69.9h-5.1v3.4h5.9v2.1h-8.5v-12.7h8.6v2.1h-5.9v3h5.1v2.1h-.1Z" style="fill:#3a3a3a; stroke-width:0px;"/><path d="M477.5327,66l.1,1.1c.7-.8,1.6-1.3,2.7-1.3,1,0,1.8.3,2.2.9s.7,1.5.8,2.7v6.1h-2.5v-6.1c0-.5-.1-.9-.4-1.2-.2-.2-.6-.4-1.2-.4-.7,0-1.3.3-1.6.9v6.7h-2.5v-9.4h2.4Z" style="fill:#3a3a3a; stroke-width:0px;"/><path d="M484.9327,70.6c0-1.5.3-2.7,1-3.5s1.6-1.3,2.7-1.3c.9,0,1.7.3,2.3,1v-4.8h2.5v13.5h-2.3l-.1-1c-.6.8-1.4,1.2-2.4,1.2-1.1,0-2-.4-2.7-1.3s-1-2.2-1-3.8ZM487.4327,70.8c0,.9.2,1.6.5,2.1s.8.7,1.4.7c.8,0,1.3-.3,1.7-1v-3.8c-.3-.7-.9-1-1.6-1-1.4,0-2,1-2,3Z" style="fill:#3a3a3a; stroke-width:0px;"/><path d="M504.0327,70.8c0,1.5-.3,2.6-1,3.5s-1.6,1.3-2.7,1.3c-1,0-1.7-.3-2.3-1v4.5h-2.5v-13.1h2.4l.1.9c.6-.7,1.4-1.1,2.4-1.1,1.2,0,2.1.4,2.7,1.3s1,2.1,1,3.6v.1h-.1ZM501.5327,70.6c0-.9-.2-1.6-.5-2s-.8-.7-1.4-.7c-.8,0-1.3.3-1.6.9v3.9c.3.6.9.9,1.7.9,1.1,0,1.8-1,1.8-3Z" style="fill:#3a3a3a; stroke-width:0px;"/><path d="M505.2327,70.6c0-.9.2-1.8.5-2.5s.9-1.3,1.6-1.7,1.5-.6,2.4-.6c1.3,0,2.3.4,3.1,1.2s1.3,1.9,1.4,3.2v.7c0,1.5-.4,2.6-1.2,3.5s-1.9,1.3-3.3,1.3-2.5-.4-3.3-1.3-1.2-2.1-1.2-3.6v-.2ZM507.7327,70.8c0,.9.2,1.6.5,2.1s.8.7,1.5.7c.6,0,1.1-.2,1.4-.7s.5-1.2.5-2.3c0-.9-.2-1.6-.5-2.1s-.8-.7-1.5-.7c-.6,0-1.1.2-1.4.7s-.5,1.3-.5,2.3Z" style="fill:#3a3a3a; stroke-width:0px;"/><path d="M515.7327,63.5c0-.4.1-.7.4-.9s.6-.4,1-.4.8.1,1,.4.4.6.4.9c0,.4-.1.7-.4.9s-.6.4-1,.4-.8-.1-1-.4-.4-.5-.4-.9ZM518.4327,75.5h-2.5v-9.5h2.5v9.5Z" style="fill:#3a3a3a; stroke-width:0px;"/><path d="M522.9327,66l.1,1.1c.7-.8,1.6-1.3,2.7-1.3,1,0,1.8.3,2.2.9s.7,1.5.8,2.7v6.1h-2.5v-6.1c0-.5-.1-.9-.4-1.2-.2-.2-.6-.4-1.2-.4-.7,0-1.3.3-1.6.9v6.7h-2.5v-9.4h2.4Z" style="fill:#3a3a3a; stroke-width:0px;"/><path d="M533.6327,63.6v2.4h1.6v1.9h-1.6v4.7c0,.4.1.6.2.8s.4.2.8.2c.3,0,.5,0,.7-.1v1.9c-.5.2-1,.2-1.5.2-1.8,0-2.7-.9-2.7-2.7v-5.1h-1.4v-1.8h1.4v-2.3h2.5v-.1Z" style="fill:#3a3a3a; stroke-width:0px;"/><path d="M541.8327,72.8c0-.3-.2-.6-.5-.7s-.8-.3-1.5-.5c-2.3-.5-3.4-1.4-3.4-2.9,0-.8.4-1.5,1.1-2.1.7-.6,1.6-.8,2.7-.8,1.2,0,2.2.3,2.9.9s1.1,1.3,1.1,2.2h-2.5c0-.4-.1-.7-.4-.9-.2-.2-.6-.4-1.1-.4-.4,0-.8.1-1,.3s-.4.4-.4.7.1.5.4.7c.3.2.7.3,1.3.4s1.2.3,1.6.4c1.3.5,2,1.3,2,2.6,0,.9-.4,1.6-1.1,2.1-.7.5-1.7.8-2.9.8-.8,0-1.5-.1-2.1-.4s-1.1-.7-1.5-1.2-.5-1-.5-1.6h2.4c0,.5.2.8.5,1s.7.4,1.2.4.9-.1,1.1-.3c.5001-.1.6-.4.6-.7Z" style="fill:#3a3a3a; stroke-width:0px;"/></g></g><g style="isolation:isolate;"><g style="isolation:isolate;"><path d="M278.8327,126.5h5.6v2.1h-8.2v-12.8h2.6v10.7Z" style="fill:#3a3a3a; stroke-width:0px;"/><path d="M289.9327,123.5l-1.4,1.5v3.7h-2.6v-12.8h2.6v5.8l1.2-1.6,3.3-4.2h3.2l-4.5,5.7,4.7,7.1h-3.1l-3.4-5.2Z" style="fill:#3a3a3a; stroke-width:0px;"/><path d="M305.0327,123.1h-5.1v3.4h5.9v2.1h-8.5v-12.8h8.6v2.1h-5.9v3h5.1v2.2h-.1Z" style="fill:#3a3a3a; stroke-width:0px;"/><path d="M322.0327,124.3c-.1,1.4-.6,2.5-1.5,3.3s-2.1,1.2-3.6,1.2c-1.6,0-2.9-.6-3.9-1.7s-1.4-2.6-1.4-4.5v-.8c0-1.2.2-2.3.7-3.3s1.1-1.7,1.9-2.2,1.7-.8,2.8-.8c1.5,0,2.7.4,3.6,1.2s1.4,1.9,1.6,3.3h-2.9c-.1-.8-.3-1.4-.7-1.8s-1-.6-1.8-.6c-.9,0-1.5.3-2,.9s-.7,1.6-.7,2.9v1c0,1.4.2,2.4.6,3s1.1,1,2,1c.8,0,1.4-.2,1.8-.6s.6-.9.7-1.7h2.8v.2Z" style="fill:#3a3a3a; stroke-width:0px;"/><path d="M326.2327,128.6h-2.5v-13.5h2.5v13.5Z" style="fill:#3a3a3a; stroke-width:0px;"/><path d="M334.0327,127.6c-.6.8-1.5,1.1-2.6,1.1-1,0-1.8-.3-2.3-.9s-.8-1.4-.8-2.6v-6.2h2.5v6.2c0,1,.5,1.5,1.4,1.5s1.5-.3,1.8-.9v-6.7h2.5v9.5h-2.4l-.1-1Z" style="fill:#3a3a3a; stroke-width:0px;"/><path d="M343.5327,126c0-.3-.2-.6-.5-.7s-.8-.3-1.5-.5c-2.3-.5-3.4-1.4-3.4-2.9,0-.8.3-1.5,1-2.1s1.6-.8,2.7-.8c1.2,0,2.2.3,2.9.9s1.1,1.3,1.1,2.2h-2.5c0-.4-.1-.7-.4-.9-.2-.2-.6-.4-1.1-.4-.4,0-.8.1-1,.3s-.4.4-.4.7.1.5.4.7.7.3,1.3.4,1.2.3,1.6.4c1.3.5,2,1.3,2,2.6,0,.9-.4,1.6-1.1,2.1-.7.5-1.7.8-2.9.8-.8,0-1.5-.1-2.1-.4-.6-.3-1.1-.7-1.5-1.2s-.5-1-.5-1.6h2.4c0,.5.2.8.5,1s.7.4,1.2.4.9-.1,1.1-.3c.6-.2.7-.4.7-.7Z" style="fill:#3a3a3a; stroke-width:0px;"/><path d="M350.7327,116.8v2.3h1.6v1.9h-1.6v4.7c0,.4.1.6.2.8s.4.2.8.2c.3,0,.5,0,.7-.1v1.9c-.5.2-1,.2-1.5.2-1.8,0-2.7-.9-2.7-2.7v-5h-1.4v-1.9h1.4v-2.3s2.5,0,2.5,0Z" style="fill:#3a3a3a; stroke-width:0px;"/><path d="M358.1327,128.8c-1.4,0-2.5-.4-3.4-1.3s-1.3-2-1.3-3.4v-.2c0-1,.2-1.8.6-2.6s.9-1.3,1.6-1.7,1.4-.6,2.3-.6c1.3,0,2.3.4,3.1,1.2s1.1,2,1.1,3.5v1h-6.1c.1.6.3,1.1.7,1.5s.9.6,1.6.6c1,0,1.7-.4,2.3-1.1l1.2,1.4c-.4.5-.9,1-1.5,1.3-.7.2-1.4.4-2.2.4ZM357.8327,121c-.5,0-.9.2-1.2.5-.3.3-.5.8-.6,1.5h3.5v-.2c0-.6-.2-1-.5-1.3-.3-.4-.7-.5-1.2-.5Z" style="fill:#3a3a3a; stroke-width:0px;"/><path d="M368.8327,121.5c-.3,0-.7-.1-.9-.1-1,0-1.6.3-1.9,1v6.2h-2.5v-9.5h2.4l.1,1.1c.5-.9,1.2-1.3,2.1-1.3.3,0,.5,0,.8.1l-.1,2.5Z" style="fill:#3a3a3a; stroke-width:0px;"/><path d="M275.0327,130.4v-.9h94v.9h-94Z" style="fill:#3a3a3a; stroke-width:0px;"/></g><g style="isolation:isolate;"><path d="M278.9327,144.7h-5.1v3.4h5.9v2.1h-8.6v-12.8h8.6v2.1h-5.9v3h5.1v2.2Z" style="fill:#3a3a3a; stroke-width:0px;"/><path d="M284.0327,148.1h5.6v2.1h-8.2v-12.8h2.6v10.7Z" style="fill:#3a3a3a; stroke-width:0px;"/><path d="M295.1327,145.1l-1.4,1.5v3.7h-2.6v-12.8h2.6v5.8l1.2-1.6,3.3-4.2h3.2l-4.5,5.7,4.7,7.1h-3.1l-3.4-5.2Z" style="fill:#3a3a3a; stroke-width:0px;"/><path d="M312.0327,143h3.2v2.3h-3.2v3.6h-2.4v-3.6h-3.2v-2.3h3.2v-3.4h2.4v3.4Z" style="fill:#3a3a3a; stroke-width:0px;"/></g><g style="isolation:isolate;"><path d="M326.1327,147l2.9-9.6h2.9l-4.5,12.8h-2.8l-4.4-12.8h2.9l3,9.6Z" style="fill:#3a3a3a; stroke-width:0px;"/></g><g style="isolation:isolate;"><path d="M336.9327,150.4c-1.4,0-2.5-.4-3.4-1.3s-1.3-2-1.3-3.4v-.2c0-1,.2-1.8.6-2.6s.9-1.3,1.6-1.7,1.4-.6,2.3-.6c1.3,0,2.3.4,3.1,1.2s1.1,2,1.1,3.5v1h-6.1c.1.6.3,1.1.7,1.5s.9.6,1.6.6c1,0,1.7-.4,2.3-1.1l1.2,1.4c-.4.5-.9,1-1.5,1.3-.7.2-1.4001.4-2.2.4ZM336.6327,142.6c-.5,0-.9.2-1.2.5-.3.3-.5.8-.6,1.5h3.5v-.2c0-.6-.2-1-.5-1.3-.2-.4-.6-.5-1.2-.5Z" style="fill:#3a3a3a; stroke-width:0px;"/><path d="M346.2327,148.3c.5,0,.8-.1,1.1-.4s.4-.6.5-1h2.4c0,.6-.2,1.2-.5,1.8-.3.5-.8,1-1.4,1.2-.6.3-1.3.4-2,.4-1.4,0-2.4-.4-3.2-1.3-.8-.9-1.2-2.1-1.2-3.6v-.2c0-1.5.4-2.6,1.2-3.5s1.8-1.3,3.2-1.3c1.2,0,2.1.3,2.9,1,.7.7,1.1,1.6,1.1,2.7h-2.4c0-.5-.2-.9-.5-1.2s-.7-.5-1.2-.5c-.6,0-1,.2-1.3.6-.3.4-.5,1.1-.5,2.1v.3c0,1,.1,1.7.4,2.1s.8.8,1.4.8Z" style="fill:#3a3a3a; stroke-width:0px;"/></g><g style="isolation:isolate;"><path d="M354.7327,138.4v2.3h1.6v1.9h-1.6v4.7c0,.4.1.6.2.8s.4.2.8.2c.3,0,.5,0,.7-.1v1.9c-.5.2-1,.2-1.5.2-1.8,0-2.7-.9-2.7-2.7v-5.1h-1.4v-1.9h1.4v-2.3h2.5v.1Z" style="fill:#3a3a3a; stroke-width:0px;"/></g><g style="isolation:isolate;"><path d="M357.1327,145.4c0-.9.2-1.8.5-2.5s.9-1.3,1.6-1.7,1.5-.6,2.4-.6c1.3,0,2.3.4,3.1,1.2s1.3,1.9,1.4,3.2v.7c0,1.5-.4,2.6-1.2,3.5s-1.9,1.3-3.3,1.3-2.5-.4-3.3-1.3-1.2-2.1-1.2-3.6v-.2ZM359.6327,145.5c0,.9.2,1.6.5,2.1s.8.7,1.5.7c.6,0,1.1-.2,1.4-.7s.5-1.2.5-2.3c0-.9-.2-1.6-.5-2.1s-.8-.7-1.5-.7c-.6,0-1.1.2-1.4.7-.3.6-.5,1.3-.5,2.3Z" style="fill:#3a3a3a; stroke-width:0px;"/><path d="M373.0327,143.1c-.3,0-.7-.1-.9-.1-1,0-1.6.3-1.9,1v6.2h-2.5v-9.5h2.4l.1,1.1c.5-.9,1.2-1.3,2.1-1.3.3,0,.5,0,.8.1l-.1,2.5Z" style="fill:#3a3a3a; stroke-width:0px;"/></g></g><path d="M277.5327,361.7h-5.7l-1.1,3.2h-3.4l5.8-15.6h3l5.9,15.6h-3.4l-1.1-3.2ZM272.7327,359.1h3.9l-2-5.9-1.9,5.9Z" style="fill:#3a3a3a; stroke-width:0px;"/><path d="M287.5327,360.2l-1.1,1.1v3.5h-3.1v-16.5h3.1v9.1l.6-.8,3-3.5h3.7l-4.2,4.8,4.6,6.8h-3.6l-3-4.5Z" style="fill:#3a3a3a; stroke-width:0px;"/><path d="M301.8327,364.9c-.1-.3-.2-.6-.3-1-.8.8-1.7,1.3-2.9,1.3-1.1,0-2.1-.3-2.8-1-.7-.7-1.1-1.5-1.1-2.5,0-1.2.5-2.2,1.4-2.8s2.2-1,4-1h1.4v-.7c0-.5-.1-1-.4-1.3s-.7-.5-1.3-.5c-.5,0-.9.1-1.2.4-.3.3-.4.6-.4,1h-3.1c0-.7.2-1.3.6-1.9s1-1,1.8-1.3,1.6-.5,2.6-.5c1.4,0,2.6.4,3.4,1.1s1.3,1.7,1.3,3v5c0,1.1.2,1.9.5,2.5v.2h-3.5ZM299.2327,362.8c.5,0,.9-.1,1.3-.3.4-.2.7-.5.9-.8v-2h-1.2c-1.6,0-2.4.5-2.5,1.6v.2c0,.4.1.7.4,1,.2.1.6.3,1.1.3Z" style="fill:#3a3a3a; stroke-width:0px;"/><path d="M309.7327,353.3l.1,1.3c.8-1,1.9-1.5,3.3-1.5,1.5,0,2.5.6,3.1,1.8.8-1.2,2-1.8,3.5-1.8,1.3,0,2.2.4,2.8,1.1.6.7.9,1.8.9,3.3v7.4h-3.1v-7.4c0-.7-.1-1.1-.4-1.4s-.7-.5-1.4-.5c-.9,0-1.6.4-1.9,1.3v8h-3.1v-7.4c0-.7-.1-1.2-.4-1.5s-.7-.5-1.4-.5c-.9,0-1.5.4-1.9,1.1v8.2h-3.1v-11.6h3v.1Z" style="fill:#3a3a3a; stroke-width:0px;"/><path d="M332.6327,364.9c-.1-.3-.2-.6-.3-1-.8.8-1.7,1.3-2.9,1.3-1.1,0-2.1-.3-2.8-1-.7-.7-1.1-1.5-1.1-2.5,0-1.2.5-2.2,1.4-2.8s2.2-1,4-1h1.4v-.7c0-.5-.1-1-.4-1.3s-.7-.5-1.3-.5c-.5,0-.9.1-1.2.4-.3.3-.4.6-.4,1h-3.1c0-.7.2-1.3.6-1.9s1-1,1.8-1.3,1.6-.5,2.6-.5c1.4,0,2.6.4,3.4,1.1s1.3,1.7,1.3,3v5c0,1.1.2,1.9.5,2.5v.2h-3.5ZM330.0327,362.8c.5,0,.9-.1,1.3-.3.4-.2.7-.5.9-.8v-2h-1.2c-1.6,0-2.4.5-2.5,1.6v.2c0,.4.1.7.4,1s.7.3,1.1.3Z" style="fill:#3a3a3a; stroke-width:0px;"/><path d="M337.6327,350.3c0-.5.2-.8.5-1.1s.7-.5,1.3-.5c.5,0,1,.2,1.3.5s.5.7.5,1.1c0,.5-.2.9-.5,1.2-.3.3-.7.5-1.3.5s-.9-.2-1.3-.5c-.3-.4-.5-.7-.5-1.2ZM340.9327,364.9h-3.1v-11.6h3.1v11.6Z" style="fill:#3a3a3a; stroke-width:0px;"/><path d="M361.4327,359.7c-.1,1.7-.7,3-1.9,4-1.1,1-2.6,1.5-4.4,1.5-2,0-3.6-.7-4.7-2s-1.7-3.2-1.7-5.6v-1c0-1.5.3-2.8.8-4s1.3-2,2.3-2.6,2.1-.9,3.4-.9c1.8,0,3.3.5,4.4,1.5s1.7,2.3,1.9,4.1h-3.2c-.1-1-.4-1.7-.8-2.2-.5-.5-1.2-.7-2.2-.7-1.1,0-1.9.4-2.4,1.2-.5.8-.8,2-.8,3.6v1.2c0,1.7.3,2.9.8,3.7.5.8,1.3,1.2,2.4,1.2,1,0,1.7-.2,2.2-.7s.8-1.2.8-2.1h3.1001v-.2Z" style="fill:#3a3a3a; stroke-width:0px;"/><path d="M366.6327,364.9h-3.1v-16.5h3.1v16.5Z" style="fill:#3a3a3a; stroke-width:0px;"/><path d="M368.7327,359c0-1.2.2-2.2.7-3.1s1.1-1.6,1.9-2.1,1.8-.7,2.9-.7c1.6,0,2.8.5,3.8,1.4,1,1,1.5,2.3,1.7,3.9v.8c0,1.8-.5,3.2-1.5,4.3-1,1.1-2.3,1.6-4,1.6s-3-.5-4-1.6-1.5-2.5-1.5-4.4v-.0999ZM371.8327,359.2c0,1.1.2,1.9.6,2.5s1,.9,1.8.9,1.3-.3,1.8-.9.6-1.5.6-2.8c0-1.1-.2-1.9-.6-2.5s-1-.9-1.8-.9-1.3.3-1.8.9-.6,1.6-.6,2.8Z" style="fill:#3a3a3a; stroke-width:0px;"/><path d="M388.6327,363.7c-.8.9-1.8,1.4-3.2,1.4-1.2,0-2.2-.4-2.9-1.1s-1-1.8-1-3.1v-7.6h3.1v7.5c0,1.2.6,1.8,1.7,1.8s1.8-.4,2.2-1.1v-8.2h3.1v11.6h-2.9l-.1-1.2Z" style="fill:#3a3a3a; stroke-width:0px;"/><path d="M393.5327,359c0-1.8.4-3.3,1.2-4.3.8-1.1,1.9-1.6,3.3-1.6,1.1,0,2.1.4,2.8,1.3v-5.9h3.1v16.5h-2.8l-.2-1.2c-.8,1-1.8,1.5-3,1.5-1.4,0-2.5-.5-3.3-1.6-.7-1.3-1.1-2.8-1.1-4.7ZM396.6327,359.2c0,1.1.2,1.9.6,2.5s.9.9,1.7.9c1,0,1.6-.4,2-1.2v-4.6c-.4-.8-1.1-1.2-2-1.2-1.6,0-2.3,1.2-2.3,3.6Z" style="fill:#3a3a3a; stroke-width:0px;"/><line x1="12.6327" y1="207.1" x2="92.7327" y2="207.1" style="fill:none; stroke:#3a3a3a; stroke-miterlimit:10; stroke-width:2px;"/><polygon points="91.1327 212.5 100.5327 207.1 91.1327 201.8 91.1327 212.5" style="fill:#3a3a3a; stroke-width:0px;"/><line x1="205.6327" y1="207.1" x2="261.1327" y2="207.1" style="fill:none; stroke:#3a3a3a; stroke-miterlimit:10; stroke-width:2px;"/><polygon points="259.5327 212.5 268.9327 207.1 259.5327 201.8 259.5327 212.5" style="fill:#3a3a3a; stroke-width:0px;"/><path d="M477.5327,89.3h54v5.2h-54v-5.2h0Z" style="fill:#19a553; stroke-width:0px;"/><path d="M518.0327,143.7h-27c-2.6,0-4.9-2.1-5.2-4.9l-5-40.8h47.2l-5,40.8c-.1,2.8-2.3,4.9-5,4.9h0ZM483.7327,100.5l4.6,38c.2,1.5,1.4,2.7,2.8,2.7h27c1.4,0,2.5-1.2,2.8-2.7l4.6-38h-41.8Z" style="fill:#000; stroke-width:0px;"/><path d="M512.4327,135.9q-.1,0,0,0c-2.1,0-3.7-1.7-3.7-3.7s1.7-3.6,3.7-3.6,3.6,1.7,3.6,3.7c.1,2-1.6,3.6-3.6,3.6Z" style="fill:#19a553; stroke-width:0px;"/><path d="M477.5327,180h54v5.2h-54v-5.2h0Z" style="fill:#19a553; stroke-width:0px;"/><path d="M518.0327,234.4h-27c-2.6,0-4.9-2.1-5.2-4.9l-5-40.8h47.2l-5,40.8c-.1,2.8-2.3,4.9-5,4.9h0ZM483.7327,191.2l4.6,38c.2,1.5,1.4,2.7,2.8,2.7h27c1.4,0,2.5-1.2,2.8-2.7l4.6-38h-41.8Z" style="fill:#000; stroke-width:0px;"/><path d="M512.4327,226.6q-.1,0,0,0c-2.1,0-3.7-1.7-3.7-3.7s1.7-3.6,3.7-3.6,3.6,1.7,3.6,3.7c.1,2-1.6,3.6-3.6,3.6Z" style="fill:#19a553; stroke-width:0px;"/><path d="M477.5327,270.7h54v5.2h-54v-5.2h0Z" style="fill:#19a553; stroke-width:0px;"/><path d="M518.0327,325h-27c-2.6,0-4.9-2.1-5.2-4.9l-5-40.8h47.2l-5,40.8c-.1,2.8-2.3,4.9-5,4.9h0ZM483.7327,281.8l4.6,38c.2,1.5,1.4,2.7,2.8,2.7h27c1.4,0,2.5-1.2,2.8-2.7l4.6-38h-41.8Z" style="fill:#000; stroke-width:0px;"/><path d="M512.4327,317.2q-.1,0,0,0c-2.1,0-3.7-1.7-3.7-3.7s1.7-3.6,3.7-3.6,3.6,1.7,3.6,3.7c.1,2.1-1.6,3.6-3.6,3.6Z" style="fill:#19a553; stroke-width:0px;"/><line x1="371.7327" y1="207.1" x2="461.0327" y2="207.1" style="fill:none; stroke:#3a3a3a; stroke-miterlimit:10; stroke-width:2px;"/><polygon points="460.3327 212.5 469.7327 207.1 460.3327 201.8 460.3327 212.5" style="fill:#636467; stroke-width:0px;"/><line x1="369.8327" y1="207.9" x2="464.7327" y2="113" style="fill:none; stroke:#3a3a3a; stroke-miterlimit:10; stroke-width:2px;"/><polygon points="467.3327 117.9 470.2327 107.5 459.8327 110.4 467.3327 117.9" style="fill:#636467; stroke-width:0px;"/><line x1="464.7327" y1="301.4" x2="369.8327" y2="206.5" style="fill:none; stroke:#3a3a3a; stroke-miterlimit:10; stroke-width:2px;"/><polygon points="459.8327 304 470.2327 306.9 467.3327 296.4 459.8327 304" style="fill:#636467; stroke-width:0px;"/><g style="isolation:isolate;"><path d="M18.2327,192.2c-.1,1-.5,1.7-1.1,2.3-.6.5-1.4.8-2.4.8-1.1,0-2-.4-2.6-1.2-.7-.8-1-1.8-1-3.1v-.9c0-.9.2-1.6.5-2.3s.7-1.2,1.3-1.5c.6-.3,1.2-.5,2-.5,1,0,1.8.3,2.4.8s.9,1.3,1,2.3h-1.4c-.1-.7-.3-1.3-.7-1.6-.4-.3-.8-.5-1.5-.5-.8,0-1.4.3-1.8.9-.4.6-.7,1.4-.7,2.5v.9c0,1,.2,1.8.6,2.4s1,.9,1.8.9c.7,0,1.2-.2,1.6-.5s.6-.8.7-1.6h1.3v-.1Z" style="fill:#3a3a3a; stroke-width:0px;"/><path d="M20.9327,195.2h-1.1v-9.8h1.2v9.8h-.1Z" style="fill:#3a3a3a; stroke-width:0px;"/><path d="M22.8327,186.5c0-.2.1-.4.2-.5.1-.1.3-.2.5-.2s.4.1.5.2c.1.1.2.3.2.5s-.1.3-.2.5-.3.2-.5.2-.4-.1-.5-.2c-.1-.2-.2-.3-.2-.5ZM24.1327,195.2h-1.2v-6.9h1.2v6.9Z" style="fill:#3a3a3a; stroke-width:0px;"/><path d="M28.8327,195.3c-.9,0-1.7-.3-2.3-.9s-.9-1.4-.9-2.5v-.2c0-.7.1-1.3.4-1.8s.6-1,1.1-1.3,1-.5,1.5-.5c.9,0,1.6.3,2.1.9.5.6.7,1.4.7,2.5v.5h-4.7c0,.7.2,1.2.6,1.6.4.4.9.6,1.4.6.4,0,.8-.1,1.1-.3.3-.2.5-.4.8-.7l.7.6c-.5,1.1-1.3,1.5-2.5,1.5ZM28.7327,189.1c-.5,0-.9.2-1.2.5s-.5.8-.6,1.5h3.4v-.1c0-.6-.2-1.1-.5-1.4s-.6-.5-1.1-.5Z" style="fill:#3a3a3a; stroke-width:0px;"/><path d="M34.0327,188.3v.9c.5-.7,1.2-1,2.1-1,1.5,0,2.2.8,2.2,2.5v4.5h-1.2v-4.5c0-.5-.1-.9-.3-1.1-.2-.2-.6-.4-1-.4s-.7.1-1,.3-.5.5-.7.8v4.9h-1.2v-6.9h1.1Z" style="fill:#3a3a3a; stroke-width:0px;"/><path d="M41.6327,186.6v1.7h1.3v.9h-1.3v4.3c0,.3.1.5.2.6s.3.2.6.2c.1,0,.3,0,.6-.1v.9c-.3.1-.6.1-.9.1-.5,0-.9-.2-1.2-.5-.3-.3-.4-.8-.4-1.4v-4.3h-1.3v-.9h1.3v-1.7h1.1v.2Z" style="fill:#3a3a3a; stroke-width:0px;"/></g><g style="isolation:isolate;"><path d="M50.8327,189.4h-.6c-.8,0-1.3.3-1.6,1v4.9h-1.2v-6.9h1.1v.8c.4-.6.9-.9,1.6-.9.2,0,.4,0,.5.1v1h.2Z" style="fill:#3a3a3a; stroke-width:0px;"/></g><g style="isolation:isolate;"><path d="M54.6327,195.3c-.9,0-1.7-.3-2.3-.9s-.9-1.4-.9-2.5v-.2c0-.7.1-1.3.4-1.8.3-.5.6-1,1.1-1.3s1-.5,1.5-.5c.9,0,1.6.3,2.1.9.5.6.7,1.4.7,2.5v.5h-4.7c0,.7.2,1.2.6,1.6.4.4.9.6,1.4.6.4,0,.8-.1,1.1-.3s.5-.4.8-.7l.7.6c-.5,1.1-1.3,1.5-2.5,1.5ZM54.5327,189.1c-.5,0-.9.2-1.2.5s-.5.8-.6,1.5h3.4v-.1c0-.6-.2-1.1-.5-1.4s-.6-.5-1.1-.5Z" style="fill:#3a3a3a; stroke-width:0px;"/><path d="M58.4327,191.7c0-1.1.2-1.9.7-2.6.5-.6,1.2-.9,2-.9s1.5.3,1.9.8l.1-.7h1.1v9.5h-1.2v-3.3c-.5.5-1.1.8-1.9.8s-1.5-.3-2-1c-.5-.6-.7-1.5-.7-2.6h0ZM59.5327,191.8c0,.8.2,1.4.5,1.9.3.4.8.7,1.3.7.7,0,1.2-.3,1.6-.9v-3.5c-.4-.6-.9-.9-1.6-.9-.6,0-1,.2-1.4.7-.2.5-.4,1.1-.4,2Z" style="fill:#3a3a3a; stroke-width:0px;"/><path d="M70.3327,194.5c-.5.5-1.1.8-2,.8-.7,0-1.3-.2-1.7-.6-.4-.4-.6-1.1-.6-1.9v-4.5h1.2v4.4c0,1,.4,1.6,1.3,1.6s1.5-.3,1.8-1v-5h1.2v6.9h-1.2v-.7Z" style="fill:#3a3a3a; stroke-width:0px;"/><path d="M76.1327,195.3c-.9,0-1.7-.3-2.3-.9s-.9-1.4-.9-2.5v-.2c0-.7.1-1.3.4-1.8.3-.5.6-1,1.1-1.3.5-.3,1-.5,1.5-.5.9,0,1.6.3,2.1.9.5.6.7,1.4.7,2.5v.5h-4.7c0,.7.2,1.2.6,1.6.4.4.9.6,1.4.6.4,0,.8-.1,1.1-.3.3-.2.5-.4.8-.7l.7.6c-.5,1.1-1.4,1.5-2.5,1.5ZM75.9327,189.1c-.5,0-.9.2-1.2.5s-.5.8-.6,1.5h3.4v-.1c0-.6-.2-1.1-.5-1.4s-.6-.5-1.1-.5Z" style="fill:#3a3a3a; stroke-width:0px;"/><path d="M84.1327,193.3c0-.3-.1-.6-.4-.7-.2-.2-.7-.3-1.3-.5-.6-.1-1.1-.3-1.4-.5s-.6-.4-.8-.6c-.2-.2-.3-.5-.3-.9,0-.6.2-1,.7-1.4s1.1-.6,1.8-.6c.8,0,1.4.2,1.9.6.5.4.7.9.7,1.5h-1.2c0-.3-.1-.6-.4-.8s-.6-.3-1-.3-.8.1-1,.3-.4.4-.4.7.1.5.3.6.6.3,1.2.4c.6.1,1.1.3,1.4.5.4.2.6.4.8.7.2.3.3.6.3.9,0,.6-.2,1.1-.7,1.5s-1.1.6-1.9.6c-.6,0-1-.1-1.5-.3s-.8-.5-1-.8-.4-.7-.4-1.1h1.2c0,.4.2.7.5.9s.7.3,1.2.3c.4,0,.8-.1,1.1-.3.5-.1.6-.4.6-.7Z" style="fill:#3a3a3a; stroke-width:0px;"/><path d="M88.4327,186.6v1.7h1.3v.9h-1.3v4.3c0,.3.1.5.2.6s.3.2.6.2c.1,0,.3,0,.6-.1v.9c-.3.1-.6.1-.9.1-.5,0-.9-.2-1.2-.5-.3-.3-.4-.8-.4-1.4v-4.3h-1.3v-.9h1.3v-1.7h1.1v.2Z" style="fill:#3a3a3a; stroke-width:0px;"/><path d="M95.0327,193.3c0-.3-.1-.6-.4-.7-.2-.2-.7-.3-1.3-.5-.6-.1-1.1-.3-1.4-.5s-.6-.4-.8-.6c-.2-.2-.3-.5-.3-.9,0-.6.2-1,.7-1.4s1.1-.6,1.8-.6c.8,0,1.4.2,1.9.6.5.4.7.9.7,1.5h-1.2c0-.3-.1-.6-.4-.8s-.6-.3-1-.3-.8.1-1,.3-.4.4-.4.7.1.5.3.6.6.3,1.2.4c.6.1,1.1.3,1.4.5.4.2.6.4.8.7.2.3.3.6.3.9,0,.6-.2,1.1-.7,1.5s-1.1.6-1.9.6c-.6,0-1-.1-1.5-.3s-.8-.5-1-.8-.4-.7-.4-1.1h1.2c0,.4.2.7.5.9s.7.3,1.2.3c.4,0,.8-.1,1.1-.3.5-.1.6-.4.6-.7Z" style="fill:#3a3a3a; stroke-width:0px;"/></g><g style="isolation:isolate;"><path d="M207.6327,194.2h4.4v1h-5.6v-9.2h1.2v8.2h0Z" style="fill:#3a3a3a; stroke-width:0px;"/><path d="M212.9327,191.7c0-.7.1-1.3.4-1.8.3-.5.6-1,1.1-1.2.5-.3,1-.4,1.6-.4.9,0,1.7.3,2.3,1,.6.6.9,1.5.9,2.6v.1c0,.7-.1,1.3-.4,1.8-.3.5-.6.9-1.1,1.2s-1,.4-1.6.4c-.9,0-1.7-.3-2.3-1-.6-.7-.9-1.6-.9-2.7h0ZM214.0327,191.8c0,.8.2,1.4.5,1.8s.8.7,1.4.7,1.1-.2,1.4-.7c.4-.5.5-1.1.5-2,0-.8-.2-1.4-.5-1.8s-.8-.7-1.4-.7-1,.2-1.4.7c-.3.5-.5,1.2-.5,2Z" style="fill:#3a3a3a; stroke-width:0px;"/><path d="M220.3327,191.7c0-1.1.2-1.9.7-2.6s1.2-.9,2-.9,1.5.3,2,.9l.1-.8h1.1v6.7c0,.9-.3,1.6-.8,2.1s-1.2.8-2.1.8c-.5,0-1-.1-1.5-.3s-.8-.5-1.1-.9l.6-.7c.5.6,1.1.9,1.8.9.6,0,1-.2,1.3-.5s.5-.8.5-1.4v-.6c-.5.5-1.1.8-1.9.8s-1.5-.3-2-1c-.4-.5-.7-1.4-.7-2.5ZM221.5327,191.8c0,.8.2,1.4.5,1.8s.8.7,1.3.7c.7,0,1.3-.3,1.6-1v-3.1c-.4-.7-.9-1-1.6-1-.6,0-1,.2-1.3.7-.4.4-.5,1-.5,1.9Z" style="fill:#3a3a3a; stroke-width:0px;"/><path d="M231.1327,186.5c0-.2.1-.4.2-.5.1-.1.3-.2.5-.2s.4.1.5.2c.1.1.2.3.2.5s-.1.3-.2.5c-.1.1-.3.2-.5.2s-.4-.1-.5-.2-.2-.3-.2-.5ZM232.4327,195.2h-1.2v-6.9h1.2v6.9Z" style="fill:#3a3a3a; stroke-width:0px;"/><path d="M235.4327,188.3v.9c.5-.7,1.2-1,2.1-1,1.5,0,2.2.8,2.2,2.5v4.5h-1.2v-4.5c0-.5-.1-.9-.3-1.1-.2-.2-.6-.4-1-.4s-.7.1-1,.3-.5.5-.7.8v4.9h-1.2v-6.9h1.1Z" style="fill:#3a3a3a; stroke-width:0px;"/><path d="M241.1327,191.7c0-1.1.2-1.9.7-2.6s1.2-.9,2-.9,1.5.3,2,.9l.1-.8h1.1v6.7c0,.9-.3,1.6-.8,2.1s-1.2.8-2.1.8c-.5,0-1-.1-1.5-.3s-.8-.5-1.1-.9l.6-.7c.5.6,1.1.9,1.8.9.6,0,1-.2,1.3-.5s.5-.8.5-1.4v-.6c-.5.5-1.1.8-1.9.8s-1.5-.3-2-1c-.4-.5-.7-1.4-.7-2.5ZM242.3327,191.8c0,.8.2,1.4.5,1.8s.8.7,1.3.7c.7,0,1.3-.3,1.6-1v-3.1c-.4-.7-.9-1-1.6-1-.6,0-1,.2-1.3.7-.3.4-.5,1-.5,1.9Z" style="fill:#3a3a3a; stroke-width:0px;"/><path d="M251.6327,195.3c-.9,0-1.7-.3-2.3-.9s-.9-1.4-.9-2.5v-.2c0-.7.1-1.3.4-1.8.3-.5.6-1,1.1-1.3s1-.5,1.5-.5c.9,0,1.6.3,2.1.9.5.6.7,1.4.7,2.5v.5h-4.7c0,.7.2,1.2.6,1.6s.9.6,1.4.6c.4,0,.8-.1,1.1-.3s.5-.4.8-.7l.7.6c-.5,1.1-1.4,1.5-2.5,1.5ZM251.4327,189.1c-.5,0-.9.2-1.2.5s-.5.8-.6,1.5h3.4v-.1c0-.6-.2-1.1-.5-1.4-.2-.3-.6-.5-1.1-.5Z" style="fill:#3a3a3a; stroke-width:0px;"/><path d="M259.6327,193.3c0-.3-.1-.6-.4-.7s-.7-.3-1.3-.5c-.6-.1-1.1-.3-1.4-.5-.3-.2-.6-.4-.8-.6-.2-.2-.3-.5-.3-.9,0-.6.2-1,.7-1.4s1.1-.6,1.8-.6c.8,0,1.4.2,1.9.6.5.4.7.9.7,1.5h-1.2c0-.3-.1-.6-.4-.8-.3-.2-.6-.3-1-.3s-.8.1-1,.3-.4.4-.4.7.1.5.3.6.6.3,1.2.4c.6.1,1.1.3,1.4.5.4.2.6.4.8.7s.3.6.3.9c0,.6-.2,1.1-.7,1.5s-1.1.6-1.9.6c-.5,0-1-.1-1.5-.3-.4-.2-.8-.5-1-.8s-.4-.7-.4-1.1h1.2c0,.4.2.7.5.9s.7.3,1.2.3c.4,0,.8-.1,1.1-.3.5-.1.6-.4.6-.7Z" style="fill:#3a3a3a; stroke-width:0px;"/><path d="M263.9327,186.6v1.7h1.3v.9h-1.3v4.3c0,.3.1.5.2.6s.3.2.6.2c.1,0,.3,0,.6-.1v.9c-.3.1-.6.1-.9.1-.5,0-.9-.2-1.2-.5s-.4-.8-.4-1.4v-4.3h-1.2v-.9h1.2v-1.7h1.1v.2Z" style="fill:#3a3a3a; stroke-width:0px;"/></g><g style="isolation:isolate;"><path d="M398.9327,191.6v3.6h-1.2v-9.2h3.4c1,0,1.8.3,2.4.8s.9,1.2.9,2c0,.9-.3,1.6-.8,2.1s-1.4.7-2.4.7h-2.3ZM398.9327,190.6h2.2c.7,0,1.2-.2,1.5-.5s.5-.8.5-1.3c0-.6-.2-1-.5-1.3s-.8-.5-1.4-.5h-2.3v3.6h0Z" style="fill:#3a3a3a; stroke-width:0px;"/></g><g style="isolation:isolate;"><path d="M409.9327,195.2c-.1-.1-.1-.4-.2-.7-.5.6-1.2.9-2,.9-.7,0-1.2-.2-1.7-.6s-.7-.9-.7-1.5c0-.7.3-1.3.8-1.7s1.3-.6,2.3-.6h1.1v-.5c0-.4-.1-.7-.4-1-.2-.2-.6-.4-1.1-.4-.4,0-.8.1-1.1.3-.3.2-.4.5-.4.8h-1.2c0-.3.1-.7.4-1,.2-.3.6-.6,1-.8s.9-.3,1.4-.3c.8,0,1.4.2,1.9.6.4.4.7.9.7,1.6v3.2c0,.6.1,1.1.2,1.5v.1h-.9999v.1ZM408.0327,194.3c.4,0,.7-.1,1-.3s.6-.4.7-.7v-1.4h-.9c-1.4,0-2.2.4-2.2,1.3,0,.4.1.7.4.9.3.1.6.2,1,.2Z" style="fill:#3a3a3a; stroke-width:0px;"/><path d="M416.1327,189.4h-.6c-.8,0-1.3.3-1.6,1v4.9h-1.2v-6.9h1.1v.8c.4-.6.9-.9,1.6-.9.2,0,.4,0,.5.1v1h.2Z" style="fill:#3a3a3a; stroke-width:0px;"/><path d="M421.1327,193.3c0-.3-.1-.6-.4-.7-.2-.2-.7-.3-1.3-.5s-1.1-.3-1.4-.5-.6-.4-.8-.6c-.2-.2-.3-.5-.3-.9,0-.6.2-1,.7-1.4s1.1-.6,1.8-.6c.8,0,1.4.2,1.9.6.5.4.7.9.7,1.5h-1.2c0-.3-.1-.6-.4-.8s-.6-.3-1-.3-.8.1-1,.3-.4.4-.4.7.1.5.3.6c.2.1.6.3,1.2.4.6.1,1.1.3,1.4.5.4.2.6.4.8.7.2.3.3.6.3.9,0,.6-.2,1.1-.7,1.5s-1.1.6-1.9.6c-.6,0-1-.1-1.5-.3-.4-.2-.8-.5-1-.8s-.4-.7-.4-1.1h1.2c0,.4.2.7.5.9s.7.3,1.2.3c.4,0,.8-.1,1.1-.3s.5999-.4.5999-.7Z" style="fill:#3a3a3a; stroke-width:0px;"/><path d="M426.7327,195.3c-.9,0-1.7-.3-2.3-.9s-.9-1.4-.9-2.5v-.2c0-.7.1-1.3.4-1.8s.6-1,1.1-1.3,1-.5,1.5-.5c.9,0,1.6.3,2.1.9.5.6.7,1.4.7,2.5v.5h-4.7c0,.7.2,1.2.6,1.6.4.4.9.6,1.4.6.4,0,.8-.1,1.1-.3.3-.2.5-.4.8-.7l.7.6c-.5,1.1-1.4,1.5-2.5,1.5ZM426.5327,189.1c-.5,0-.9.2-1.2.5-.3.3-.5.8-.6,1.5h3.4v-.1c0-.6-.2-1.1-.5-1.4-.2-.3-.6-.5-1.1-.5Z" style="fill:#3a3a3a; stroke-width:0px;"/><path d="M430.4327,191.7c0-1.1.2-1.9.7-2.5s1.2-1,2-1,1.4.3,1.9.8v-3.6h1.2v9.8h-1.1l-.1-.7c-.5.6-1.1.9-2,.9-.8,0-1.4-.3-1.9-1-.4-.7-.7-1.6-.7-2.7h0ZM431.6327,191.8c0,.8.2,1.4.5,1.8.3.4.8.7,1.3.7.7,0,1.3-.3,1.6-1v-3.2c-.4-.6-.9-1-1.6-1-.6,0-1,.2-1.3.7s-.5,1.1-.5,2Z" style="fill:#3a3a3a; stroke-width:0px;"/><path d="M442.5327,195.2h-1.2v-9.8h1.2v9.8Z" style="fill:#3a3a3a; stroke-width:0px;"/><path d="M444.1327,191.7c0-.7.1-1.3.4-1.8s.6-1,1.1-1.2c.5-.3,1-.4,1.6-.4.9,0,1.7.3,2.3,1,.6.6.9,1.5.9,2.6v.1c0,.7-.1,1.3-.4,1.8s-.6.9-1.1,1.2-1,.4-1.6.4c-.9,0-1.7-.3-2.3-1-.6-.7-.9-1.6-.9-2.7h0ZM445.3327,191.8c0,.8.2,1.4.5,1.8s.8.7,1.4.7,1.1-.2,1.4-.7c.4-.5.5-1.1.5-2,0-.8-.2-1.4-.5-1.8s-.8-.7-1.4-.7-1,.2-1.4.7c-.3.5-.5,1.2-.5,2Z" style="fill:#3a3a3a; stroke-width:0px;"/><path d="M451.6327,191.7c0-1.1.2-1.9.7-2.6s1.2-.9,2-.9,1.5.3,2,.9l.1-.8h1.1v6.7c0,.9-.3,1.6-.8,2.1s-1.2.8-2.1.8c-.5,0-1-.1-1.5-.3s-.8-.5-1.1-.9l.6-.7c.5.6,1.1.9,1.8.9.6,0,1-.2,1.3-.5s.5-.8.5-1.4v-.6c-.5.5-1.1.8-1.9.8s-1.5-.3-2-1c-.5-.5-.7-1.4-.7-2.5ZM452.7327,191.8c0,.8.2,1.4.5,1.8s.8.7,1.3.7c.7,0,1.3-.3,1.6-1v-3.1c-.4-.7-.9-1-1.6-1-.6,0-1,.2-1.3.7-.3.4-.5,1-.5,1.9Z" style="fill:#3a3a3a; stroke-width:0px;"/><path d="M463.1327,193.3c0-.3-.1-.6-.4-.7s-.7-.3-1.3-.5c-.6-.1-1.1-.3-1.4-.5s-.6-.4-.8-.6c-.2-.2-.3-.5-.3-.9,0-.6.2-1,.7-1.4s1.1-.6,1.8-.6c.8,0,1.4.2,1.9.6.5.4.7.9.7,1.5h-1.2c0-.3-.1-.6-.4-.8s-.6-.3-1-.3-.8.1-1,.3-.4.4-.4.7.1.5.3.6c.2.1.6.3,1.2.4.6.1,1.1.3,1.4.5.4.2.6.4.8.7s.3.6.3.9c0,.6-.2,1.1-.7,1.5s-1.1.6-1.9.6c-.5,0-1-.1-1.5-.3-.4-.2-.8-.5-1-.8s-.4-.7-.4-1.1h1.2c0,.4.2.7.5.9s.7.3,1.2.3c.4,0,.8-.1,1.1-.3.5-.1.5999-.4.5999-.7Z" style="fill:#3a3a3a; stroke-width:0px;"/></g><g style="isolation:isolate;"><g style="isolation:isolate;"><path d="M549.5327,112h4.4v1h-5.6v-9.2h1.2v8.2Z" style="fill:#3a3a3a; stroke-width:0px;"/><path d="M554.8327,109.5c0-.7.1-1.3.4-1.8.3-.5.6-1,1.1-1.2.5-.3,1-.4,1.6-.4.9,0,1.7.3,2.3,1,.6.6.9,1.5.9,2.6v.1c0,.7-.1,1.3-.4,1.8s-.6.9-1.1,1.2c-.5.3-1,.4-1.6.4-.9,0-1.7-.3-2.3-1-.6-.7-.9-1.6-.9-2.7h0ZM556.0327,109.6c0,.8.2,1.4.5,1.8.4.5.8.7,1.4.7s1.1-.2,1.4-.7c.4-.5.5-1.1.5-2,0-.8-.2-1.4-.5-1.8-.4-.5-.8-.7-1.4-.7s-1,.2-1.4.7c-.3.5-.5,1.2-.5,2Z" style="fill:#3a3a3a; stroke-width:0px;"/><path d="M562.2327,109.5c0-1.1.2-1.9.7-2.6s1.2-.9,2-.9,1.5.3,2,.9l.1-.8h1.1v6.7c0,.9-.3,1.6-.8,2.1s-1.2.8-2.1.8c-.5,0-1-.1-1.5-.3-.5-.2-.8-.5-1.1-.9l.6-.7c.5.6,1.1.9,1.8.9.6,0,1-.2,1.3-.5s.5-.8.5-1.4v-.6c-.5.5-1.1.8-1.9.8s-1.5-.3-2-1c-.4-.5-.7-1.4-.7-2.5ZM563.4327,109.6c0,.8.2,1.4.5,1.8s.8.7,1.3.7c.7,0,1.3-.3,1.6-1v-3.1c-.4-.7-.9-1-1.6-1-.6,0-1,.2-1.3.7-.3.4-.5,1-.5,1.9Z" style="fill:#3a3a3a; stroke-width:0px;"/></g><g style="isolation:isolate;"><path d="M540.9327,126.7c0-.3-.1-.6-.4-.7s-.7-.3-1.3-.5c-.6-.1-1.1-.3-1.4-.5-.3-.2-.6-.4-.8-.6s-.3-.5-.3-.9c0-.6.2-1,.7-1.4s1.1-.6,1.8-.6c.8,0,1.4.2,1.9.6s.7.9.7,1.5h-1.2c0-.3-.1-.6-.4-.8-.3-.2-.6-.3-1-.3s-.8.1-1,.3-.4.4-.4.7.1.5.3.6.6.3,1.2.4c.6.1,1.1.3,1.4.5.4.2.6.4.8.7s.3.6.3.9c0,.6-.2,1.1-.7,1.5-.5.4-1.1.6-1.9.6-.5,0-1-.1-1.5-.3-.4-.2-.8-.5-1-.8s-.4-.7-.4-1.1h1.2c0,.4.2.7.5.9.3.2.7.3,1.2.3.4,0,.8-.1,1.1-.3.5001-.1.6001-.4.6001-.7Z" style="fill:#3a3a3a; stroke-width:0px;"/></g><g style="isolation:isolate;"><path d="M545.2327,120v1.7h1.3v.9h-1.3v4.3c0,.3.1.5.2.6s.3.2.6.2c.1,0,.3,0,.6-.1v.9c-.3.1-.6.1-.9.1-.5,0-.9-.2-1.2-.5s-.4-.8-.4-1.4v-4.3h-1.2v-.9h1.2v-1.5h1.1001Z" style="fill:#3a3a3a; stroke-width:0px;"/></g><g style="isolation:isolate;"><path d="M547.4327,125.1c0-.7.1-1.3.4-1.8.3-.5.6-1,1.1-1.2.5-.3,1-.4,1.6-.4.9,0,1.7.3,2.3,1,.6.6.9,1.5.9,2.6v.1c0,.7-.1,1.3-.4,1.8-.3.5-.6.9-1.1,1.2s-1,.4-1.6.4c-.9,0-1.7-.3-2.3-1-.6-.7-.9-1.6-.9-2.7h0ZM548.6327,125.2c0,.8.2,1.4.5,1.8s.8.7,1.4.7,1.1-.2,1.4-.7c.4-.5.5-1.1.5-2,0-.8-.2-1.4-.5-1.8s-.8-.7-1.4-.7-1,.2-1.4.7c-.3.5-.5,1.2-.5,2Z" style="fill:#3a3a3a; stroke-width:0px;"/></g><g style="isolation:isolate;"><path d="M558.5327,122.8h-.6c-.8,0-1.3.3-1.6,1v4.9h-1.2v-6.9h1.1v.8c.4-.6.9-.9,1.6-.9.2,0,.4,0,.5.1v1h.2Z" style="fill:#3a3a3a; stroke-width:0px;"/></g><g style="isolation:isolate;"><path d="M563.5327,128.6c-.1-.1-.1-.4-.2-.7-.5.6-1.2.9-2,.9-.7,0-1.2-.2-1.7-.6s-.7-.9-.7-1.5c0-.7.3-1.3.8-1.7s1.3-.6,2.3-.6h1.1v-.5c0-.4-.1-.7-.4-1-.2-.2-.6-.4-1.1-.4-.4,0-.8.1-1.1.3-.3.2-.4.5-.4.8h-1.2c0-.3.1-.7.4-1,.2-.3.6-.6,1-.8.4-.2.9-.3,1.4-.3.8,0,1.4.2,1.9.6.4.4.7.9.7,1.6v3.2c0,.6.1,1.1.2,1.5v.1h-1v.1ZM561.6327,127.7c.4,0,.7-.1,1-.3s.6-.4.7-.7v-1.4h-.9c-1.4,0-2.2.4-2.2,1.3,0,.4.1.7.4.9.3.1.6.2,1,.2Z" style="fill:#3a3a3a; stroke-width:0px;"/><path d="M566.1327,125.1c0-1.1.2-1.9.7-2.6s1.2-.9,2-.9,1.5.3,2,.9l.1-.8h1.1v6.7c0,.9-.3,1.6-.8,2.1s-1.2.8-2.1.8c-.5,0-1-.1-1.5-.3s-.8-.5-1.1-.9l.6-.7c.5.6,1.1.9,1.8.9.6,0,1-.2,1.3-.5s.5-.8.5-1.4v-.6c-.5.5-1.1.8-1.9.8s-1.5-.3-2-1c-.4999-.5-.7-1.4-.7-2.5ZM567.3327,125.2c0,.8.2,1.4.5,1.8s.8.7,1.3.7c.7,0,1.3-.3,1.6-1v-3.1c-.4-.7-.9-1-1.6-1-.6,0-1,.2-1.3.7-.4.4-.5,1-.5,1.9Z" style="fill:#3a3a3a; stroke-width:0px;"/><path d="M576.5327,128.7c-.9,0-1.7-.3-2.3-.9s-.9-1.4-.9-2.5v-.2c0-.7.1-1.3.4-1.8.3-.5.6-1,1.1-1.3s1-.5,1.5-.5c.9,0,1.6.3,2.1.9s.7,1.4.7,2.5v.5h-4.7c0,.7.2,1.2.6,1.6.4.4.9.6,1.4.6.4,0,.8-.1,1.1-.3.3-.2.5-.4.8-.7l.7.6c-.4999,1.1-1.2999,1.5-2.4999,1.5ZM576.4327,122.5c-.5,0-.9.2-1.2.5s-.5.8-.6,1.5h3.4v-.1c0-.6-.2-1.1-.5-1.4s-.7-.5-1.1-.5Z" style="fill:#3a3a3a; stroke-width:0px;"/></g></g><g style="isolation:isolate;"><g style="isolation:isolate;"><path d="M549.5327,203.6h4.4v1h-5.6v-9.2h1.2v8.2Z" style="fill:#3a3a3a; stroke-width:0px;"/><path d="M554.8327,201.1c0-.7.1-1.3.4-1.8.3-.5.6-1,1.1-1.2.5-.3,1-.4,1.6-.4.9,0,1.7.3,2.3,1,.6.6.9,1.5.9,2.6v.1c0,.7-.1,1.3-.4,1.8s-.6.9-1.1,1.2-1,.4-1.6.4c-.9,0-1.7-.3-2.3-1-.6-.7-.9-1.5-.9-2.7h0ZM556.0327,201.2c0,.8.2,1.4.5,1.8.4.5.8.7,1.4.7s1.1-.2,1.4-.7c.4-.5.5-1.1.5-2,0-.8-.2-1.4-.5-1.8-.4-.5-.8-.7-1.4-.7s-1,.2-1.4.7c-.3.5-.5,1.2-.5,2Z" style="fill:#3a3a3a; stroke-width:0px;"/><path d="M562.2327,201.1c0-1.1.2-1.9.7-2.6s1.2-.9,2-.9,1.5.3,2,.9l.1-.8h1.1v6.7c0,.9-.3,1.6-.8,2.1s-1.2.8-2.1.8c-.5,0-1-.1-1.5-.3s-.8-.5-1.1-.9l.6-.7c.5.6,1.1.9,1.8.9.6,0,1-.2,1.3-.5s.5-.8.5-1.4v-.6c-.5.5-1.1.8-1.9.8s-1.5-.3-2-1c-.4-.5-.7-1.4-.7-2.5ZM563.4327,201.2c0,.8.2,1.4.5,1.8s.8.7,1.3.7c.7,0,1.3-.3,1.6-1v-3.1c-.4-.7-.9-1-1.6-1-.6,0-1,.2-1.3.7-.3.4-.5,1.1-.5,1.9Z" style="fill:#3a3a3a; stroke-width:0px;"/></g><g style="isolation:isolate;"><path d="M540.9327,218.4c0-.3-.1-.6-.4-.7s-.7-.3-1.3-.5c-.6-.1-1.1-.3-1.4-.5-.3-.2-.6-.4-.8-.6-.2-.2-.3-.5-.3-.9,0-.6.2-1,.7-1.4s1.1-.6,1.8-.6c.8,0,1.4.2,1.9.6.5.4.7.9.7,1.5h-1.2c0-.3-.1-.6-.4-.8-.3-.2-.6-.3-1-.3s-.8.1-1,.3-.4.4-.4.7.1.5.3.6.6.3,1.2.4c.6.1,1.1.3,1.4.5.4.2.6.4.8.7s.3.6.3.9c0,.6-.2,1.1-.7,1.5s-1.1.6-1.9.6c-.5,0-1-.1-1.5-.3-.4-.2-.8-.5-1-.8s-.4-.7-.4-1.1h1.2c0,.4.2.7.5.9s.7.3,1.2.3c.4,0,.8-.1,1.1-.3.5001-.2.6001-.4.6001-.7Z" style="fill:#3a3a3a; stroke-width:0px;"/></g><g style="isolation:isolate;"><path d="M545.2327,211.7v1.7h1.3v.9h-1.3v4.3c0,.3.1.5.2.6s.3.2.6.2c.1,0,.3,0,.6-.1v.9c-.3.1-.6.1-.9.1-.5,0-.9-.2-1.2-.5s-.4-.8-.4-1.4v-4.3h-1.2v-.9h1.2v-1.7h1.1001v.2Z" style="fill:#3a3a3a; stroke-width:0px;"/></g><g style="isolation:isolate;"><path d="M547.4327,216.7c0-.7.1-1.3.4-1.8.3-.5.6-1,1.1-1.2.5-.3,1-.4,1.6-.4.9,0,1.7.3,2.3,1,.6.6.9,1.5.9,2.6v.1c0,.7-.1,1.3-.4,1.8-.3.5-.6.9-1.1,1.2s-1,.4-1.6.4c-.9,0-1.7-.3-2.3-1-.6-.7-.9-1.5-.9-2.7h0ZM548.6327,216.8c0,.8.2,1.4.5,1.8s.8.7,1.4.7,1.1-.2,1.4-.7c.4-.5.5-1.1.5-2,0-.8-.2-1.4-.5-1.8s-.8-.7-1.4-.7-1,.2-1.4.7c-.3.5-.5,1.2-.5,2Z" style="fill:#3a3a3a; stroke-width:0px;"/></g><g style="isolation:isolate;"><path d="M558.5327,214.4h-.6c-.8,0-1.3.3-1.6,1v4.9h-1.2v-6.9h1.1v.8c.4-.6.9-.9,1.6-.9.2,0,.4,0,.5.1v1h.2Z" style="fill:#3a3a3a; stroke-width:0px;"/></g><g style="isolation:isolate;"><path d="M563.5327,220.2c-.1-.1-.1-.4-.2-.7-.5.6-1.2.9-2,.9-.7,0-1.2-.2-1.7-.6s-.7-.9-.7-1.5c0-.7.3-1.3.8-1.7s1.3-.6,2.3-.6h1.1v-.5c0-.4-.1-.7-.4-1-.2-.2-.6-.4-1.1-.4-.4,0-.8.1-1.1.3s-.4.5-.4.8h-1.2c0-.3.1-.7.4-1,.2-.3.6-.6,1-.8s.9-.3,1.4-.3c.8,0,1.4.2,1.9.6.4.4.7.9.7,1.6v3.2c0,.6.1,1.1.2,1.5v.1h-1v.1ZM561.6327,219.3c.4,0,.7-.1,1-.3s.6-.4.7-.7v-1.4h-.9c-1.4,0-2.2.4-2.2,1.3,0,.4.1.7.4.9.3.1.6.2,1,.2Z" style="fill:#3a3a3a; stroke-width:0px;"/><path d="M566.1327,216.7c0-1.1.2-1.9.7-2.6s1.2-.9,2-.9,1.5.3,2,.9l.1-.8h1.1v6.7c0,.9-.3,1.6-.8,2.1s-1.2.8-2.1.8c-.5,0-1-.1-1.5-.3s-.8-.5-1.1-.9l.6-.7c.5.6,1.1.9,1.8.9.6,0,1-.2,1.3-.5s.5-.8.5-1.4v-.6c-.5.5-1.1.8-1.9.8s-1.5-.3-2-1c-.4999-.5-.7-1.4-.7-2.5ZM567.3327,216.8c0,.8.2,1.4.5,1.8s.8.7,1.3.7c.7,0,1.3-.3,1.6-1v-3.1c-.4-.7-.9-1-1.6-1-.6,0-1,.2-1.3.7-.4.4-.5,1.1-.5,1.9Z" style="fill:#3a3a3a; stroke-width:0px;"/><path d="M576.5327,220.3c-.9,0-1.7-.3-2.3-.9s-.9-1.4-.9-2.5v-.2c0-.7.1-1.3.4-1.8.3-.5.6-1,1.1-1.3s1-.5,1.5-.5c.9,0,1.6.3,2.1.9.5.6.7,1.4.7,2.5v.5h-4.7c0,.7.2,1.2.6,1.6.4.4.9.6,1.4.6.4,0,.8-.1,1.1-.3s.5-.4.8-.7l.7.6c-.4999,1.1-1.2999,1.5-2.4999,1.5ZM576.4327,214.2c-.5,0-.9.2-1.2.5s-.5.8-.6,1.5h3.4v-.2c0-.6-.2-1.1-.5-1.4-.3-.3-.7-.4-1.1-.4Z" style="fill:#3a3a3a; stroke-width:0px;"/></g></g><g style="isolation:isolate;"><g style="isolation:isolate;"><path d="M549.5327,291.8h4.4v1h-5.6v-9.2h1.2v8.2Z" style="fill:#3a3a3a; stroke-width:0px;"/><path d="M554.8327,289.3c0-.7.1-1.3.4-1.8.3-.5.6-1,1.1-1.2.5-.3,1-.4,1.6-.4.9,0,1.7.3,2.3,1,.6.6.9,1.5.9,2.6v.1c0,.7-.1,1.3-.4,1.8s-.6.9-1.1,1.2c-.5.3-1,.4-1.6.4-.9,0-1.7-.3-2.3-1-.6-.7-.9-1.6-.9-2.7h0ZM556.0327,289.4c0,.8.2,1.4.5,1.8.4.5.8.7,1.4.7s1.1-.2,1.4-.7c.4-.5.5-1.1.5-2,0-.8-.2-1.4-.5-1.8-.4-.5-.8-.7-1.4-.7s-1,.2-1.4.7c-.3.5-.5,1.1-.5,2Z" style="fill:#3a3a3a; stroke-width:0px;"/><path d="M562.2327,289.3c0-1.1.2-1.9.7-2.6s1.2-.9,2-.9,1.5.3,2,.9l.1-.8h1.1v6.7c0,.9-.3,1.6-.8,2.1s-1.2.8-2.1.8c-.5,0-1-.1-1.5-.3-.5-.2-.8-.5-1.1-.9l.6-.7c.5.6,1.1.9,1.8.9.6,0,1-.2,1.3-.5s.5-.8.5-1.4v-.6c-.5.5-1.1.8-1.9.8s-1.5-.3-2-1c-.4-.5-.7-1.4-.7-2.5ZM563.4327,289.4c0,.8.2,1.4.5,1.8s.8.7,1.3.7c.7,0,1.3-.3,1.6-1v-3.1c-.4-.7-.9-1-1.6-1-.6,0-1,.2-1.3.7-.3.4-.5,1-.5,1.9Z" style="fill:#3a3a3a; stroke-width:0px;"/></g><g style="isolation:isolate;"><path d="M540.9327,306.5c0-.3-.1-.6-.4-.7s-.7-.3-1.3-.5c-.6-.1-1.1-.3-1.4-.5-.3-.2-.6-.4-.8-.6s-.3-.5-.3-.9c0-.6.2-1,.7-1.4s1.1-.6,1.8-.6c.8,0,1.4.2,1.9.6s.7.9.7,1.5h-1.2c0-.3-.1-.6-.4-.8-.3-.2-.6-.3-1-.3s-.8.1-1,.3-.4.4-.4.7.1.5.3.6.6.3,1.2.4c.6.1,1.1.3,1.4.5.4.2.6.4.8.7s.3.6.3.9c0,.6-.2,1.1-.7,1.5s-1.1.6-1.9.6c-.5,0-1-.1-1.5-.3-.4-.2-.8-.5-1-.8s-.4-.7-.4-1.1h1.2c0,.4.2.7.5.9.3.2.7.3,1.2.3.4,0,.8-.1,1.1-.3.5001-.1.6001-.4001.6001-.7Z" style="fill:#3a3a3a; stroke-width:0px;"/></g><g style="isolation:isolate;"><path d="M545.2327,299.8v1.7h1.3v.9h-1.3v4.3c0,.3.1.5.2.6s.3.2.6.2c.1,0,.3,0,.6-.1v.9c-.3.1-.6.1-.9.1-.5,0-.9-.2-1.2-.5s-.4-.8-.4-1.4v-4.3h-1.2v-.9h1.2v-1.7h1.1001v.2Z" style="fill:#3a3a3a; stroke-width:0px;"/></g><g style="isolation:isolate;"><path d="M547.4327,304.9c0-.7.1-1.3.4-1.8.3-.5.6-1,1.1-1.2.5-.3,1-.4,1.6-.4.9,0,1.7.3,2.3,1,.6.6.9,1.5.9,2.6v.1c0,.7-.1,1.3-.4,1.8-.3.5-.6.9-1.1,1.2-.5.3-1,.4-1.6.4-.9,0-1.7-.3-2.3-1s-.9-1.6-.9-2.7h0ZM548.6327,305c0,.8.2,1.4.5,1.8s.8.7,1.4.7,1.1-.2,1.4-.7c.4-.5.5-1.1.5-2,0-.8-.2-1.4-.5-1.8s-.8-.7-1.4-.7-1,.2-1.4.7c-.3.5-.5,1.1-.5,2Z" style="fill:#3a3a3a; stroke-width:0px;"/></g><g style="isolation:isolate;"><path d="M558.5327,302.5h-.6c-.8,0-1.3.3-1.6,1v4.9h-1.2v-6.9h1.1v.8c.4-.6.9-.9,1.6-.9.2,0,.4,0,.5.1v1h.2Z" style="fill:#3a3a3a; stroke-width:0px;"/></g><g style="isolation:isolate;"><path d="M563.5327,308.3c-.1-.1-.1-.4-.2-.7-.5.6-1.2.9-2,.9-.7,0-1.2-.2-1.7-.6s-.7-.9-.7-1.5c0-.7.3-1.3.8-1.7s1.3-.6,2.3-.6h1.1v-.5c0-.4-.1-.7-.4-1-.2-.2-.6-.4-1.1-.4-.4,0-.8.1-1.1.3-.3.2-.4.5-.4.8h-1.2c0-.3.1-.7.4-1,.2-.3.6-.6,1-.8.4-.2.9-.3,1.4-.3.8,0,1.4.2,1.9.6.4.4.7.9.7,1.6v3.2c0,.6.1,1.1.2,1.5v.1h-1v.1ZM561.6327,307.5c.4,0,.7-.1,1-.3s.6-.4.7-.7v-1.5h-.9c-1.4,0-2.2.4-2.2,1.3,0,.4.1.7.4.9.3.2.6.3,1,.3Z" style="fill:#3a3a3a; stroke-width:0px;"/><path d="M566.1327,304.9c0-1.1.2-1.9.7-2.6s1.2-.9,2-.9,1.5.3,2,.9l.1-.8h1.1v6.7c0,.9-.3,1.6-.8,2.1s-1.2.8-2.1.8c-.5,0-1-.1-1.5-.3-.5-.2-.8-.5-1.1-.9l.6-.7c.5.6,1.1.9,1.8.9.6,0,1-.2,1.3-.5s.5-.8.5-1.4v-.6c-.5.5-1.1.8-1.9.8s-1.5-.3-2-1c-.4999-.5-.7-1.4-.7-2.5ZM567.3327,305c0,.8.2,1.4.5,1.8s.8.7,1.3.7c.7,0,1.3-.3,1.6-1v-3.1c-.4-.7-.9-1-1.6-1-.6,0-1,.2-1.3.7-.4.4-.5,1-.5,1.9Z" style="fill:#3a3a3a; stroke-width:0px;"/><path d="M576.5327,308.5c-.9,0-1.7-.3-2.3-.9s-.9-1.4-.9-2.5v-.2c0-.7.1-1.3.4-1.8.3-.5.6-1,1.1-1.3s1-.5,1.5-.5c.9,0,1.6.3,2.1.9s.7,1.4.7,2.5v.5h-4.7c0,.7.2,1.2.6,1.6.4.4.9.6,1.4.6.4,0,.8-.1,1.1-.3.3-.2.5-.4.8-.7l.7.6c-.4999,1-1.2999,1.5-2.4999,1.5ZM576.4327,302.3c-.5,0-.9.2-1.2.5s-.5.8-.6,1.5h3.4v-.1c0-.6-.2-1.1-.5-1.4s-.7-.5-1.1-.5Z" style="fill:#3a3a3a; stroke-width:0px;"/></g></g></svg>