<?xml version="1.0" encoding="UTF-8"?>
<svg id="Layer_2" xmlns="http://www.w3.org/2000/svg" xmlns:xlink="http://www.w3.org/1999/xlink" version="1.1" viewBox="0 0 792 612">
  <!-- Generator: Adobe Illustrator 29.3.1, SVG Export Plug-In . SVG Version: 2.1.0 Build 151)  -->
  <defs>
    <style>
      .st0 {
        stroke: #f8993a;
      }

      .st0, .st1, .st2, .st3, .st4, .st5, .st6 {
        stroke-miterlimit: 10;
      }

      .st0, .st1, .st4, .st5, .st6 {
        fill: none;
      }

      .st0, .st6 {
        stroke-width: 2.1px;
      }

      .st7, .st2 {
        fill: #179bd7;
      }

      .st1, .st3, .st4 {
        stroke: #fff;
      }

      .st8 {
        fill: url(#radial-gradient);
      }

      .st2 {
        fill-opacity: .3;
      }

      .st2, .st5 {
        stroke-width: 2px;
      }

      .st2, .st6 {
        stroke: #179bd7;
      }

      .st9 {
        fill: url(#linear-gradient);
      }

      .st3 {
        stroke-width: .8px;
      }

      .st3, .st10 {
        fill: #fff;
      }

      .st11 {
        fill: #f8993a;
      }

      .st4 {
        stroke-width: 1px;
      }

      .st5 {
        stroke: #51ad53;
      }

      .st12 {
        fill: #51ad53;
      }
    </style>
    <radialGradient id="radial-gradient" cx="392.8" cy="299.5" fx="510.3" fy="5.2" r="316.8" gradientTransform="translate(435.2 -340.5) rotate(45) scale(1 1.6) skewX(5.1)" gradientUnits="userSpaceOnUse">
      <stop offset="0" stop-color="#214f82"/>
      <stop offset="1" stop-color="#192847"/>
    </radialGradient>
    <linearGradient id="linear-gradient" x1="690" y1="235.1" x2="756.9" y2="302" gradientUnits="userSpaceOnUse">
      <stop offset="0" stop-color="#214f82"/>
      <stop offset=".2" stop-color="#1f4674"/>
      <stop offset=".7" stop-color="#1a3053"/>
      <stop offset="1" stop-color="#192847"/>
    </linearGradient>
  </defs>
  <rect class="st8" x="18" y="56.7" width="756" height="494.1" rx="15" ry="15"/>
  <g>
    <g>
      <path class="st3" d="M681.5,219.3c11.7-3.9,20.2-14.9,20.2-27.9,0-16.3-13.1-29.5-29.5-29.5s-29.5,13.2-29.5,29.5,8.5,23.9,20.2,27.9c-19.2,4.1-33.6,20.8-33.6,40.8h85.9c0-20-14.4-36.7-33.7-40.8h0ZM647.3,191.4c0-13.7,11.2-24.9,24.9-24.9s24.9,11.2,24.9,24.9-11.2,24.9-24.9,24.9-24.9-11.2-24.9-24.9h0ZM672.2,222.8c19.5,0,35.7,14.2,38,32.6h-76.1c2.3-18.3,18.5-32.6,38-32.6Z"/>
      <g>
        <path class="st9" d="M701.9,269.9c-12.6,0-22.9-10.3-22.9-22.9s10.3-22.9,22.9-22.9,22.9,10.3,22.9,22.9-10.3,22.9-22.9,22.9Z"/>
        <path class="st10" d="M701.9,225.6c11.8,0,21.4,9.6,21.4,21.4s-9.6,21.4-21.4,21.4-21.4-9.6-21.4-21.4,9.6-21.4,21.4-21.4M701.9,222.6c-13.5,0-24.4,11-24.4,24.4s11,24.4,24.4,24.4,24.4-11,24.4-24.4-11-24.4-24.4-24.4h0Z"/>
      </g>
      <g>
        <path class="st10" d="M703.4,262.2c-6.6-2-11.4-8.1-11.4-15.2s4.9-13.4,11.6-15.3c.7-.2.5-.6-.3-.6-8.9,0-16.1,7.2-16.1,16s7.2,16,16.1,16,.9-.5.1-.7Z"/>
        <path class="st10" d="M695.1,250.7c0-.4,0-.9,0-1.3,0-7,5.7-12.7,12.7-12.7s8.6,3,8.9,2.8c.3-.2-2.4-6.1-10.2-6.1s-12.7,5.7-12.7,12.7.3,3.2.9,4.6c.2.6.6.6.5,0Z"/>
        <path class="st10" d="M700.4,241.6c3.3-1.4,7.4-1.5,11.5,0,2.7,1,4.3,2.3,4.4,2.3.2,0-1.6-3-4.8-4.2-3.9-1.5-8.2-.7-11.3,1.7-.3.3-.2.4.2.3Z"/>
      </g>
    </g>
    <rect class="st2" x="54.6" y="80.3" width="518.5" height="347.2" rx="8.2" ry="8.2"/>
    <rect class="st5" x="71.6" y="153.9" width="251.7" height="246.3" rx="10.9" ry="10.9"/>
    <rect class="st12" x="117.3" y="183.5" width="160.5" height="80.5" rx="5" ry="5"/>
    <rect class="st12" x="117.3" y="290.2" width="160.5" height="80.5" rx="5" ry="5"/>
    <g>
      <path class="st10" d="M348.8,202.1c0,.9-.1,1.6-.4,2.3-.3.6-.7,1.2-1.2,1.5l1.6,1.2-1,.9-2-1.6c-.3,0-.5,0-.8,0-.7,0-1.4-.2-2-.5s-1-.9-1.4-1.6c-.3-.7-.5-1.5-.5-2.3v-.5c0-.9.2-1.7.5-2.4s.8-1.2,1.4-1.6,1.2-.5,2-.5,1.4.2,2,.5c.6.4,1,.9,1.3,1.6.3.7.5,1.5.5,2.4v.5ZM347.2,201.6c0-1-.2-1.8-.6-2.4-.4-.5-.9-.8-1.7-.8s-1.2.3-1.6.8-.6,1.3-.6,2.3v.5c0,1,.2,1.8.6,2.3.4.6.9.8,1.6.8s1.3-.3,1.6-.8.6-1.3.6-2.4v-.5Z"/>
      <path class="st10" d="M354.5,205.8c-.5.5-1.1.8-1.9.8s-1.3-.2-1.7-.7c-.4-.4-.6-1.1-.6-1.9v-4.5h1.5v4.4c0,.9.4,1.3,1.1,1.3s1.3-.3,1.5-.8v-4.9h1.5v6.9h-1.5v-.7Z"/>
      <path class="st10" d="M360.5,206.6c-1,0-1.8-.3-2.4-.9-.6-.6-.9-1.4-.9-2.5v-.2c0-.7.1-1.3.4-1.8.3-.5.6-1,1.1-1.3.5-.3,1-.5,1.6-.5.9,0,1.7.3,2.2.9.5.6.8,1.4.8,2.5v.6h-4.5c0,.6.2,1,.6,1.3s.8.5,1.3.5,1.3-.3,1.7-.9l.8.8c-.3.4-.6.7-1.1,1s-1,.3-1.5.3ZM360.4,200.7c-.4,0-.8.1-1,.4-.3.3-.4.7-.5,1.2h2.9c0-.6-.2-1-.4-1.3s-.6-.4-1-.4Z"/>
      <path class="st10" d="M368.1,201c-.2,0-.4,0-.6,0-.7,0-1.2.3-1.4.8v4.7h-1.5v-6.9h1.5v.8c.4-.6.9-.9,1.6-.9s.4,0,.5,0v1.4Z"/>
      <path class="st10" d="M371.6,204.2l1.4-4.7h1.6l-2.7,7.9c-.4,1.2-1.1,1.7-2.1,1.7s-.5,0-.7-.1v-1.2h.3c.4,0,.7,0,.9-.2.2-.1.4-.4.5-.7l.2-.6-2.4-6.8h1.7l1.5,4.7Z"/>
    </g>
    <g>
      <path class="st10" d="M469.5,262.6h4.2v1.3h-5.8v-9.2h1.6v8Z"/>
      <path class="st10" d="M474.5,260.3c0-.7.1-1.3.4-1.8.3-.5.6-1,1.1-1.2s1-.4,1.7-.4c.9,0,1.7.3,2.3.9.6.6.9,1.4.9,2.4v.4c0,.7-.1,1.3-.4,1.8s-.6.9-1.1,1.2c-.5.3-1,.4-1.7.4-1,0-1.7-.3-2.3-1s-.9-1.5-.9-2.6h0ZM476,260.5c0,.7.1,1.3.4,1.7.3.4.7.6,1.2.6s.9-.2,1.2-.6c.3-.4.4-1,.4-1.8s-.2-1.2-.4-1.7c-.3-.4-.7-.6-1.2-.6s-.9.2-1.2.6c-.3.4-.4,1-.4,1.8Z"/>
      <path class="st10" d="M486.3,263.8c0-.1-.1-.3-.2-.6-.5.5-1.1.8-1.8.8s-1.3-.2-1.7-.6c-.4-.4-.7-.9-.7-1.5s.3-1.3.8-1.7c.5-.4,1.3-.6,2.3-.6h.9v-.5c0-.4,0-.6-.3-.9s-.5-.3-.9-.3-.6,0-.9.3c-.2.2-.3.4-.3.7h-1.5c0-.4.1-.7.4-1.1s.6-.6,1-.8.9-.3,1.4-.3c.8,0,1.4.2,1.9.6s.7,1,.7,1.7v3.1c0,.6,0,1.1.3,1.5h0c0,.1-1.6.1-1.6.1ZM484.6,262.7c.3,0,.6,0,.9-.2.3-.1.5-.3.6-.6v-1.3h-.8c-.6,0-1,0-1.3.3-.3.2-.4.5-.4.8s0,.5.3.7c.2.2.5.3.8.3Z"/>
      <path class="st10" d="M488.9,260.4c0-1.1.2-1.9.7-2.5.5-.6,1.1-1,2-1s1.3.3,1.8.8v-3.5h1.5v9.8h-1.4v-.7c-.5.6-1.2.8-1.9.8s-1.5-.3-2-1c-.5-.6-.7-1.5-.7-2.6ZM490.5,260.5c0,.7.1,1.2.4,1.6.3.4.7.6,1.1.6s1.1-.3,1.4-.8v-2.9c-.3-.6-.7-.8-1.4-.8s-.9.2-1.2.6c-.3.4-.4,1-.4,1.8Z"/>
      <path class="st10" d="M502.6,262.7c.4,0,.7-.1,1-.3.3-.2.4-.5.4-.8h1.5c0,.4-.2.8-.4,1.2s-.6.7-1,.9c-.4.2-.9.3-1.4.3-1,0-1.7-.3-2.3-.9-.6-.6-.8-1.5-.8-2.6v-.2c0-1,.3-1.9.8-2.5.6-.6,1.3-.9,2.3-.9s1.5.2,2,.7c.5.5.8,1.1.8,1.9h-1.5c0-.4-.2-.7-.4-1s-.6-.4-1-.4-.9.2-1.2.5c-.3.4-.4.9-.4,1.6v.2c0,.7.1,1.3.4,1.7.3.4.7.5,1.2.5Z"/>
      <path class="st10" d="M506.3,260.3c0-.7.1-1.3.4-1.8.3-.5.6-1,1.1-1.2s1-.4,1.7-.4c.9,0,1.7.3,2.3.9.6.6.9,1.4.9,2.4v.4c0,.7-.1,1.3-.4,1.8s-.6.9-1.1,1.2c-.5.3-1,.4-1.7.4-1,0-1.7-.3-2.3-1s-.9-1.5-.9-2.6h0ZM507.9,260.5c0,.7.1,1.3.4,1.7.3.4.7.6,1.2.6s.9-.2,1.2-.6c.3-.4.4-1,.4-1.8s-.2-1.2-.4-1.7c-.3-.4-.7-.6-1.2-.6s-.9.2-1.2.6c-.3.4-.4,1-.4,1.8Z"/>
      <path class="st10" d="M515.4,257v.8c.6-.6,1.2-.9,2-.9,1.4,0,2.2.8,2.2,2.5v4.5h-1.5v-4.4c0-.4,0-.8-.3-1-.2-.2-.5-.3-.9-.3-.6,0-1.1.3-1.4.8v4.9h-1.5v-6.9h1.5Z"/>
      <path class="st10" d="M523.2,255.3v1.7h1.2v1.1h-1.2v3.8c0,.3,0,.5.2.6s.3.2.6.2.4,0,.5,0v1.2c-.4,0-.7.1-1,.1-1.2,0-1.8-.7-1.8-2v-3.9h-1.1v-1.1h1.1v-1.7h1.5Z"/>
      <path class="st10" d="M528.6,264c-1,0-1.8-.3-2.4-.9-.6-.6-.9-1.4-.9-2.5v-.2c0-.7.1-1.3.4-1.8.3-.5.6-1,1.1-1.3.5-.3,1-.5,1.6-.5.9,0,1.7.3,2.2.9.5.6.8,1.4.8,2.5v.6h-4.5c0,.6.2,1,.6,1.3s.8.5,1.3.5,1.3-.3,1.7-.9l.8.8c-.3.4-.6.7-1.1,1s-1,.3-1.5.3ZM528.4,258.1c-.4,0-.8.1-1,.4-.3.3-.4.7-.5,1.2h2.9c0-.6-.2-1-.4-1.3-.2-.3-.6-.4-1-.4Z"/>
      <path class="st10" d="M535,259.2l1.3-2.3h1.7l-2.1,3.4,2.2,3.5h-1.7l-1.4-2.3-1.4,2.3h-1.7l2.2-3.5-2.1-3.4h1.7l1.3,2.3Z"/>
      <path class="st10" d="M541,255.3v1.7h1.2v1.1h-1.2v3.8c0,.3,0,.5.2.6s.3.2.6.2.4,0,.5,0v1.2c-.4,0-.7.1-1,.1-1.2,0-1.8-.7-1.8-2v-3.9h-1.1v-1.1h1.1v-1.7h1.5Z"/>
    </g>
    <g>
      <path class="st10" d="M428.4,162.7c0,.9-.2,1.7-.5,2.4s-.8,1.2-1.3,1.6-1.3.5-2,.5-1.4-.2-2-.5-1-.9-1.4-1.6c-.3-.7-.5-1.5-.5-2.3v-.5c0-.9.2-1.7.5-2.4s.8-1.2,1.4-1.6,1.2-.5,2-.5,1.4.2,2,.5c.6.4,1,.9,1.3,1.6.3.7.5,1.5.5,2.4v.5ZM426.8,162.2c0-1-.2-1.8-.6-2.4-.4-.5-.9-.8-1.6-.8s-1.2.3-1.6.8-.6,1.3-.6,2.3v.5c0,1,.2,1.8.6,2.4.4.6.9.8,1.6.8s1.3-.3,1.6-.8.6-1.3.6-2.4v-.5Z"/>
      <path class="st10" d="M435.9,163.7c0,1.1-.2,1.9-.7,2.5s-1.1.9-1.9.9-1.4-.2-1.8-.7v3.3h-1.5v-9.5h1.4v.7c.5-.5,1.1-.8,1.9-.8s1.5.3,2,.9c.5.6.7,1.5.7,2.6h0ZM434.3,163.5c0-.7-.1-1.2-.4-1.6-.3-.4-.7-.6-1.2-.6s-1.1.3-1.4.8v3c.3.5.7.8,1.4.8s.9-.2,1.2-.6.4-1,.4-1.8Z"/>
      <path class="st10" d="M440.2,167.2c-1,0-1.8-.3-2.4-.9-.6-.6-.9-1.4-.9-2.5v-.2c0-.7.1-1.3.4-1.8.3-.5.6-1,1.1-1.3.5-.3,1-.5,1.6-.5.9,0,1.7.3,2.2.9.5.6.8,1.4.8,2.5v.6h-4.5c0,.6.2,1,.6,1.3s.8.5,1.3.5,1.3-.3,1.7-.9l.8.8c-.3.4-.6.7-1.1,1s-1,.3-1.5.3ZM440,161.3c-.4,0-.8.1-1,.4-.3.3-.4.7-.5,1.2h2.9c0-.6-.2-1-.4-1.3s-.6-.4-1-.4Z"/>
      <path class="st10" d="M445.6,160.2v.8c.6-.6,1.2-.9,2-.9,1.4,0,2.2.8,2.2,2.5v4.5h-1.5v-4.4c0-.4,0-.8-.3-1-.2-.2-.5-.3-.9-.3-.6,0-1.1.3-1.4.8v4.9h-1.5v-6.9h1.5Z"/>
      <path class="st10" d="M454.4,163.7h-3.3v-1.2h3.3v1.2Z"/>
      <path class="st10" d="M463,164.8l1.4-7h1.6l-2.1,9.2h-1.5l-1.8-6.7-1.8,6.7h-1.5l-2.1-9.2h1.6l1.4,6.9,1.8-6.9h1.3l1.7,7Z"/>
      <path class="st10" d="M469.9,167.2c-1,0-1.8-.3-2.4-.9-.6-.6-.9-1.4-.9-2.5v-.2c0-.7.1-1.3.4-1.8.3-.5.6-1,1.1-1.3.5-.3,1-.5,1.6-.5.9,0,1.7.3,2.2.9.5.6.8,1.4.8,2.5v.6h-4.5c0,.6.2,1,.6,1.3s.8.5,1.3.5,1.3-.3,1.7-.9l.8.8c-.3.4-.6.7-1.1,1s-1,.3-1.5.3ZM469.7,161.3c-.4,0-.8.1-1,.4-.3.3-.4.7-.5,1.2h2.9c0-.6-.2-1-.4-1.3s-.6-.4-1-.4Z"/>
      <path class="st10" d="M479.9,163.7c0,1.1-.2,1.9-.7,2.5-.5.6-1.1.9-2,.9s-1.4-.3-1.9-.9v.7h-1.5v-9.8h1.5v3.5c.4-.5,1-.8,1.8-.8s1.5.3,2,.9c.5.6.7,1.5.7,2.6h0ZM478.3,163.5c0-.7-.1-1.3-.4-1.7-.3-.4-.6-.6-1.1-.6s-1.1.3-1.4.9v2.8c.3.6.7.9,1.4.9s.9-.2,1.1-.5c.3-.4.4-.9.4-1.6v-.2Z"/>
      <path class="st10" d="M488.1,157.8v6.2c0,1-.3,1.8-.9,2.3-.6.6-1.5.9-2.5.9s-1.9-.3-2.5-.8c-.6-.6-.9-1.3-.9-2.4v-6.2h1.6v6.2c0,.6.2,1.1.5,1.4.3.3.8.5,1.4.5,1.2,0,1.9-.7,1.9-2v-6.1h1.6Z"/>
      <path class="st10" d="M491.5,167h-1.6v-9.2h1.6v9.2Z"/>
      <path class="st10" d="M401.7,178.9c0-1,.1-1.9.4-2.8s.6-1.7,1.2-2.4c.5-.7,1-1.2,1.6-1.5l.3.9c-.6.5-1.1,1.1-1.5,2.1s-.6,2-.6,3.2v.5c0,1.3.2,2.4.5,3.4.4,1,.9,1.8,1.5,2.3l-.3.9c-.6-.3-1.1-.8-1.6-1.5s-.9-1.5-1.2-2.4c-.3-.9-.4-1.8-.4-2.9Z"/>
      <path class="st10" d="M413.4,179.6c0,1-.5,1.8-1.1,2.3-.6.6-1.5.8-2.5.8s-1.4-.2-1.9-.5c-.6-.3-1-.8-1.3-1.5-.3-.6-.5-1.4-.5-2.2v-.9c0-.9.2-1.6.5-2.3.3-.7.8-1.2,1.3-1.5.6-.4,1.2-.5,2-.5s1.8.3,2.5.8c.6.6,1,1.3,1.1,2.3h-1.6c0-.7-.3-1.1-.6-1.4-.3-.3-.8-.4-1.4-.4s-1.2.3-1.6.8c-.4.5-.6,1.3-.6,2.2v.8c0,1,.2,1.8.5,2.3s.9.8,1.6.8,1.1-.1,1.4-.4c.3-.3.5-.8.6-1.4h1.6Z"/>
      <path class="st10" d="M416.2,176.5c.5-.6,1.1-.9,1.9-.9,1.5,0,2.2.8,2.2,2.5v4.5h-1.5v-4.4c0-.5-.1-.8-.3-1-.2-.2-.5-.3-.9-.3-.6,0-1.1.3-1.4.8v4.9h-1.5v-9.8h1.5v3.6Z"/>
      <path class="st10" d="M426,182.6c0-.1-.1-.3-.2-.6-.5.5-1.1.8-1.8.8s-1.3-.2-1.7-.6c-.4-.4-.7-.9-.7-1.5s.3-1.3.8-1.7,1.3-.6,2.3-.6h.9v-.5c0-.4,0-.6-.3-.9s-.5-.3-.9-.3-.6,0-.9.3c-.2.2-.3.4-.3.7h-1.5c0-.4.1-.7.4-1.1s.6-.6,1-.8.9-.3,1.4-.3c.8,0,1.4.2,1.9.6s.7,1,.7,1.7v3.1c0,.6,0,1.1.3,1.5h0c0,.1-1.6.1-1.6.1ZM424.3,181.5c.3,0,.6,0,.9-.2s.5-.3.6-.6v-1.3h-.8c-.6,0-1,0-1.3.3-.3.2-.4.5-.4.8s0,.5.3.7c.2.2.5.3.8.3Z"/>
      <path class="st10" d="M430.9,174.1v1.7h1.2v1.1h-1.2v3.8c0,.3,0,.5.2.6s.3.2.6.2.4,0,.5,0v1.2c-.4,0-.7.1-1,.1-1.2,0-1.8-.7-1.8-2v-3.9h-1.1v-1.1h1.1v-1.7h1.5Z"/>
      <path class="st10" d="M439.3,179.3c0,1.1-.2,1.9-.7,2.5-.5.6-1.1.9-2,.9s-1.4-.3-1.9-.9v.7h-1.5v-9.8h1.5v3.5c.4-.5,1-.8,1.8-.8s1.5.3,2,.9c.5.6.7,1.5.7,2.6h0ZM437.8,179.1c0-.7-.1-1.3-.4-1.7-.3-.4-.6-.6-1.1-.6s-1.1.3-1.4.9v2.8c.3.6.7.9,1.4.9s.9-.2,1.1-.5c.3-.4.4-.9.4-1.6v-.2Z"/>
      <path class="st10" d="M440.3,179.1c0-.7.1-1.3.4-1.8.3-.5.6-1,1.1-1.2s1-.4,1.7-.4c.9,0,1.7.3,2.3.9.6.6.9,1.4.9,2.4v.4c0,.7-.1,1.3-.4,1.8-.3.5-.6.9-1.1,1.2-.5.3-1,.4-1.7.4-1,0-1.7-.3-2.3-1s-.9-1.5-.9-2.6h0ZM441.9,179.3c0,.7.1,1.3.4,1.7.3.4.7.6,1.2.6s.9-.2,1.2-.6.4-1,.4-1.8-.1-1.2-.4-1.7c-.3-.4-.7-.6-1.2-.6s-.9.2-1.2.6c-.3.4-.4,1-.4,1.8Z"/>
      <path class="st10" d="M449.9,174.1v1.7h1.2v1.1h-1.2v3.8c0,.3,0,.5.2.6s.3.2.6.2.4,0,.5,0v1.2c-.4,0-.7.1-1,.1-1.2,0-1.8-.7-1.8-2v-3.9h-1.1v-1.1h1.1v-1.7h1.5Z"/>
      <path class="st10" d="M457.4,182.6h-1.6v-9.2h1.6v9.2Z"/>
      <path class="st10" d="M460.7,175.8v.8c.6-.6,1.2-.9,2-.9,1.4,0,2.2.8,2.2,2.5v4.5h-1.5v-4.4c0-.4,0-.8-.3-1-.2-.2-.5-.3-.9-.3-.6,0-1.1.3-1.4.8v4.9h-1.5v-6.9h1.5Z"/>
      <path class="st10" d="M468.4,174.1v1.7h1.2v1.1h-1.2v3.8c0,.3,0,.5.2.6s.3.2.6.2.4,0,.5,0v1.2c-.4,0-.7.1-1,.1-1.2,0-1.8-.7-1.8-2v-3.9h-1.1v-1.1h1.1v-1.7h1.5Z"/>
      <path class="st10" d="M473.8,182.8c-1,0-1.8-.3-2.4-.9-.6-.6-.9-1.4-.9-2.5v-.2c0-.7.1-1.3.4-1.8.3-.5.6-1,1.1-1.3.5-.3,1-.5,1.6-.5.9,0,1.7.3,2.2.9.5.6.8,1.4.8,2.5v.6h-4.5c0,.6.2,1,.6,1.3s.8.5,1.3.5,1.3-.3,1.7-.9l.8.8c-.3.4-.6.7-1.1,1s-1,.3-1.5.3ZM473.6,176.9c-.4,0-.8.1-1,.4-.3.3-.4.7-.5,1.2h2.9c0-.6-.2-1-.4-1.3s-.6-.4-1-.4Z"/>
      <path class="st10" d="M481.4,177.2c-.2,0-.4,0-.6,0-.7,0-1.2.3-1.4.8v4.7h-1.5v-6.9h1.5v.8c.4-.6.9-.9,1.6-.9s.4,0,.5,0v1.4Z"/>
      <path class="st10" d="M483,182.6v-5.7h-1v-1.1h1v-.6c0-.8.2-1.4.6-1.8.4-.4,1-.6,1.8-.6s.6,0,.9.1v1.2c-.2,0-.4,0-.6,0-.7,0-1.1.4-1.1,1.1v.6h1.4v1.1h-1.4v5.7h-1.5Z"/>
      <path class="st10" d="M491.2,182.6c0-.1-.1-.3-.2-.6-.5.5-1.1.8-1.8.8s-1.3-.2-1.7-.6c-.4-.4-.7-.9-.7-1.5s.3-1.3.8-1.7,1.3-.6,2.3-.6h.9v-.5c0-.4,0-.6-.3-.9s-.5-.3-.9-.3-.6,0-.9.3c-.2.2-.3.4-.3.7h-1.5c0-.4.1-.7.4-1.1s.6-.6,1-.8.9-.3,1.4-.3c.8,0,1.4.2,1.9.6s.7,1,.7,1.7v3.1c0,.6,0,1.1.3,1.5h0c0,.1-1.6.1-1.6.1ZM489.5,181.5c.3,0,.6,0,.9-.2s.5-.3.6-.6v-1.3h-.8c-.6,0-1,0-1.3.3-.3.2-.4.5-.4.8s0,.5.3.7c.2.2.5.3.8.3Z"/>
      <path class="st10" d="M496.9,181.5c.4,0,.7-.1,1-.3.3-.2.4-.5.4-.8h1.5c0,.4-.1.8-.4,1.2s-.6.7-1,.9c-.4.2-.9.3-1.4.3-1,0-1.7-.3-2.3-.9-.6-.6-.8-1.5-.8-2.6v-.2c0-1,.3-1.9.8-2.5.6-.6,1.3-.9,2.3-.9s1.5.2,2,.7c.5.5.8,1.1.8,1.9h-1.5c0-.4-.2-.7-.4-1s-.6-.4-1-.4-.9.2-1.2.5c-.3.4-.4.9-.4,1.6v.2c0,.7.1,1.3.4,1.7s.7.5,1.2.5Z"/>
      <path class="st10" d="M503.9,182.8c-1,0-1.8-.3-2.4-.9-.6-.6-.9-1.4-.9-2.5v-.2c0-.7.1-1.3.4-1.8.3-.5.6-1,1.1-1.3.5-.3,1-.5,1.6-.5.9,0,1.7.3,2.2.9.5.6.8,1.4.8,2.5v.6h-4.5c0,.6.2,1,.6,1.3s.8.5,1.3.5,1.3-.3,1.7-.9l.8.8c-.3.4-.6.7-1.1,1s-1,.3-1.5.3ZM503.8,176.9c-.4,0-.8.1-1,.4-.3.3-.4.7-.5,1.2h2.9c0-.6-.2-1-.4-1.3s-.6-.4-1-.4Z"/>
      <path class="st10" d="M510.9,179c0,.9-.1,1.8-.4,2.7s-.6,1.7-1.2,2.4c-.5.7-1.1,1.2-1.6,1.5l-.3-.9c.6-.5,1.1-1.2,1.5-2.2.4-1,.6-2.2.6-3.5h0c0-1.3-.2-2.4-.5-3.4-.3-1-.8-1.7-1.4-2.3l-.2-.2.3-.9c.5.3,1.1.7,1.6,1.4.5.7.9,1.4,1.2,2.2s.4,1.7.5,2.6v.5Z"/>
    </g>
    <g>
      <path class="st10" d="M440.9,372.9l2.7,7.1,2.7-7.1h2.1v9.2h-1.6v-3l.2-4.1-2.7,7.1h-1.1l-2.7-7.1.2,4.1v3h-1.6v-9.2h2.1Z"/>
      <path class="st10" d="M450,373.4c0-.2,0-.4.2-.6s.4-.2.6-.2.5,0,.6.2.2.4.2.6,0,.4-.2.6-.4.2-.6.2-.5,0-.6-.2-.2-.3-.2-.6ZM451.7,382.1h-1.5v-6.9h1.5v6.9Z"/>
      <path class="st10" d="M455,382.1h-1.5v-9.8h1.5v9.8Z"/>
      <path class="st10" d="M459.1,380.1l1.5-4.9h1.6l-2.4,6.9h-1.3l-2.4-6.9h1.6l1.5,4.9Z"/>
      <path class="st10" d="M467.2,381.4c-.5.5-1.1.8-1.9.8s-1.3-.2-1.7-.7c-.4-.4-.6-1.1-.6-1.9v-4.5h1.5v4.4c0,.9.4,1.3,1.1,1.3s1.3-.3,1.5-.8v-4.9h1.5v6.9h-1.5v-.7Z"/>
      <path class="st10" d="M474.2,380.2c0-.3-.1-.5-.3-.6-.2-.1-.6-.3-1.1-.4-.5-.1-1-.2-1.3-.4-.8-.4-1.2-.9-1.2-1.6s.2-1.1.7-1.5c.5-.4,1.1-.6,1.9-.6s1.5.2,2,.6.8.9.8,1.6h-1.5c0-.3-.1-.5-.3-.7-.2-.2-.5-.3-.9-.3s-.6,0-.8.2c-.2.2-.3.4-.3.6s0,.4.3.6c.2.1.6.3,1.2.4.6.1,1.1.3,1.4.5.3.2.6.4.8.7.2.3.3.6.3.9,0,.6-.3,1.1-.8,1.5-.5.4-1.2.6-2,.6s-1.1-.1-1.5-.3c-.4-.2-.8-.5-1-.8-.2-.4-.4-.7-.4-1.1h1.5c0,.4.2.6.4.8.3.2.6.3,1,.3s.7,0,.9-.2c.2-.2.3-.4.3-.6Z"/>
      <path class="st10" d="M405.1,393.9c0-1,.1-1.9.4-2.8s.6-1.7,1.2-2.4c.5-.7,1-1.2,1.6-1.5l.3.9c-.6.5-1.1,1.1-1.5,2.1s-.6,2-.6,3.2v.5c0,1.3.2,2.4.5,3.4.4,1,.9,1.8,1.5,2.3l-.3.9c-.6-.3-1.1-.8-1.6-1.5s-.9-1.5-1.2-2.4c-.3-.9-.4-1.8-.4-2.9Z"/>
      <path class="st10" d="M413.2,395.7l2.3-7.2h1.8l-3.3,9.2h-1.6l-3.3-9.2h1.8l2.3,7.2Z"/>
      <path class="st10" d="M420.9,397.8c-1,0-1.8-.3-2.4-.9-.6-.6-.9-1.4-.9-2.5v-.2c0-.7.1-1.3.4-1.8.3-.5.6-1,1.1-1.3.5-.3,1-.5,1.6-.5.9,0,1.7.3,2.2.9.5.6.8,1.4.8,2.5v.6h-4.5c0,.6.2,1,.6,1.3s.8.5,1.3.5,1.3-.3,1.7-.9l.8.8c-.3.4-.6.7-1.1,1s-1,.3-1.5.3ZM420.8,391.9c-.4,0-.8.1-1,.4-.3.3-.4.7-.5,1.2h2.9c0-.6-.2-1-.4-1.3s-.6-.4-1-.4Z"/>
      <path class="st10" d="M427.7,396.6c.4,0,.7-.1,1-.3.3-.2.4-.5.4-.8h1.5c0,.4-.1.8-.4,1.2s-.6.7-1,.9c-.4.2-.9.3-1.4.3-1,0-1.7-.3-2.3-.9-.6-.6-.8-1.5-.8-2.6v-.2c0-1,.3-1.9.8-2.5.6-.6,1.3-.9,2.3-.9s1.5.2,2,.7c.5.5.8,1.1.8,1.9h-1.5c0-.4-.2-.7-.4-1s-.6-.4-1-.4-.9.2-1.2.5c-.3.4-.4.9-.4,1.6v.2c0,.7.1,1.3.4,1.7s.7.5,1.2.5Z"/>
      <path class="st10" d="M433.6,389.2v1.7h1.2v1.1h-1.2v3.8c0,.3,0,.5.2.6s.3.2.6.2.4,0,.5,0v1.2c-.4,0-.7.1-1,.1-1.2,0-1.8-.7-1.8-2v-3.9h-1.1v-1.1h1.1v-1.7h1.5Z"/>
      <path class="st10" d="M435.5,394.2c0-.7.1-1.3.4-1.8.3-.5.6-1,1.1-1.2s1-.4,1.7-.4c.9,0,1.7.3,2.3.9.6.6.9,1.4.9,2.4v.4c0,.7-.1,1.3-.4,1.8-.3.5-.6.9-1.1,1.2-.5.3-1,.4-1.7.4-1,0-1.7-.3-2.3-1s-.9-1.5-.9-2.6h0ZM437.1,394.3c0,.7.1,1.3.4,1.7.3.4.7.6,1.2.6s.9-.2,1.2-.6.4-1,.4-1.8-.1-1.2-.4-1.7c-.3-.4-.7-.6-1.2-.6s-.9.2-1.2.6c-.3.4-.4,1-.4,1.8Z"/>
      <path class="st10" d="M446.8,392.2c-.2,0-.4,0-.6,0-.7,0-1.2.3-1.4.8v4.7h-1.5v-6.9h1.5v.8c.4-.6.9-.9,1.6-.9s.4,0,.5,0v1.4Z"/>
      <path class="st10" d="M451.2,397.7v-9.2h2.7c.8,0,1.5.2,2.2.5s1.1.9,1.5,1.5.5,1.4.5,2.3v.5c0,.9-.2,1.6-.5,2.3-.3.7-.8,1.2-1.5,1.5-.6.4-1.4.5-2.2.5h-2.7ZM452.8,389.7v6.7h1c.8,0,1.5-.3,1.9-.8.5-.5.7-1.3.7-2.3v-.5c0-1-.2-1.8-.7-2.3-.4-.5-1.1-.8-1.9-.8h-1.1Z"/>
      <path class="st10" d="M463.6,397.7c0-.1-.1-.3-.2-.6-.5.5-1.1.8-1.8.8s-1.3-.2-1.7-.6c-.4-.4-.7-.9-.7-1.5s.3-1.3.8-1.7,1.3-.6,2.3-.6h.9v-.5c0-.4,0-.6-.3-.9s-.5-.3-.9-.3-.6,0-.9.3c-.2.2-.3.4-.3.7h-1.5c0-.4.1-.7.4-1.1s.6-.6,1-.8.9-.3,1.4-.3c.8,0,1.4.2,1.9.6s.7,1,.7,1.7v3.1c0,.6,0,1.1.3,1.5h0c0,.1-1.6.1-1.6.1ZM461.9,396.6c.3,0,.6,0,.9-.2s.5-.3.6-.6v-1.3h-.8c-.6,0-1,0-1.3.3-.3.2-.4.5-.4.8s0,.5.3.7c.2.2.5.3.8.3Z"/>
      <path class="st10" d="M468.5,389.2v1.7h1.2v1.1h-1.2v3.8c0,.3,0,.5.2.6s.3.2.6.2.4,0,.5,0v1.2c-.4,0-.7.1-1,.1-1.2,0-1.8-.7-1.8-2v-3.9h-1.1v-1.1h1.1v-1.7h1.5Z"/>
      <path class="st10" d="M475,397.7c0-.1-.1-.3-.2-.6-.5.5-1.1.8-1.8.8s-1.3-.2-1.7-.6c-.4-.4-.7-.9-.7-1.5s.3-1.3.8-1.7,1.3-.6,2.3-.6h.9v-.5c0-.4,0-.6-.3-.9s-.5-.3-.9-.3-.6,0-.9.3c-.2.2-.3.4-.3.7h-1.5c0-.4.1-.7.4-1.1s.6-.6,1-.8.9-.3,1.4-.3c.8,0,1.4.2,1.9.6s.7,1,.7,1.7v3.1c0,.6,0,1.1.3,1.5h0c0,.1-1.6.1-1.6.1ZM473.3,396.6c.3,0,.6,0,.9-.2s.5-.3.6-.6v-1.3h-.8c-.6,0-1,0-1.3.3-.3.2-.4.5-.4.8s0,.5.3.7c.2.2.5.3.8.3Z"/>
      <path class="st10" d="M483.9,394.3c0,1.1-.2,1.9-.7,2.5-.5.6-1.1.9-2,.9s-1.4-.3-1.9-.9v.7h-1.5v-9.8h1.5v3.5c.4-.5,1-.8,1.8-.8s1.5.3,2,.9c.5.6.7,1.5.7,2.6h0ZM482.4,394.2c0-.7-.1-1.3-.4-1.7-.3-.4-.6-.6-1.1-.6s-1.1.3-1.4.9v2.8c.3.6.7.9,1.4.9s.9-.2,1.1-.5c.3-.4.4-.9.4-1.6v-.2Z"/>
      <path class="st10" d="M489.3,397.7c0-.1-.1-.3-.2-.6-.5.5-1.1.8-1.8.8s-1.3-.2-1.7-.6c-.4-.4-.7-.9-.7-1.5s.3-1.3.8-1.7,1.3-.6,2.3-.6h.9v-.5c0-.4,0-.6-.3-.9s-.5-.3-.9-.3-.6,0-.9.3c-.2.2-.3.4-.3.7h-1.5c0-.4.1-.7.4-1.1s.6-.6,1-.8.9-.3,1.4-.3c.8,0,1.4.2,1.9.6s.7,1,.7,1.7v3.1c0,.6,0,1.1.3,1.5h0c0,.1-1.6.1-1.6.1ZM487.6,396.6c.3,0,.6,0,.9-.2s.5-.3.6-.6v-1.3h-.8c-.6,0-1,0-1.3.3-.3.2-.4.5-.4.8s0,.5.3.7c.2.2.5.3.8.3Z"/>
      <path class="st10" d="M496.1,395.8c0-.3-.1-.5-.3-.6-.2-.1-.6-.3-1.1-.4-.5-.1-1-.2-1.3-.4-.8-.4-1.2-.9-1.2-1.6s.2-1.1.7-1.5c.5-.4,1.1-.6,1.9-.6s1.5.2,2,.6.8.9.8,1.6h-1.5c0-.3-.1-.5-.3-.7-.2-.2-.5-.3-.9-.3s-.6,0-.8.2c-.2.2-.3.4-.3.6s0,.4.3.6c.2.1.6.3,1.2.4.6.1,1.1.3,1.4.5.3.2.6.4.8.7.2.3.3.6.3.9,0,.6-.3,1.1-.8,1.5-.5.4-1.2.6-2,.6s-1.1-.1-1.5-.3c-.4-.2-.8-.5-1-.8-.2-.4-.4-.7-.4-1.1h1.5c0,.4.2.6.4.8.3.2.6.3,1,.3s.7,0,.9-.2c.2-.2.3-.4.3-.6Z"/>
      <path class="st10" d="M502,397.8c-1,0-1.8-.3-2.4-.9-.6-.6-.9-1.4-.9-2.5v-.2c0-.7.1-1.3.4-1.8.3-.5.6-1,1.1-1.3.5-.3,1-.5,1.6-.5.9,0,1.7.3,2.2.9.5.6.8,1.4.8,2.5v.6h-4.5c0,.6.2,1,.6,1.3s.8.5,1.3.5,1.3-.3,1.7-.9l.8.8c-.3.4-.6.7-1.1,1s-1,.3-1.5.3ZM501.8,391.9c-.4,0-.8.1-1,.4-.3.3-.4.7-.5,1.2h2.9c0-.6-.2-1-.4-1.3s-.6-.4-1-.4Z"/>
      <path class="st10" d="M508.9,394c0,.9-.1,1.8-.4,2.7s-.6,1.7-1.2,2.4c-.5.7-1.1,1.2-1.6,1.5l-.3-.9c.6-.5,1.1-1.2,1.5-2.2.4-1,.6-2.2.6-3.5h0c0-1.3-.2-2.4-.5-3.4-.3-1-.8-1.7-1.4-2.3l-.2-.2.3-.9c.5.3,1.1.7,1.6,1.4.5.7.9,1.4,1.2,2.2s.4,1.7.5,2.6v.5Z"/>
    </g>
    <g>
      <path class="st10" d="M157,386c0,1-.5,1.8-1.1,2.3-.6.6-1.5.8-2.5.8s-1.4-.2-1.9-.5c-.6-.3-1-.8-1.3-1.5-.3-.6-.5-1.4-.5-2.2v-.9c0-.9.2-1.6.5-2.3.3-.7.8-1.2,1.3-1.5.6-.4,1.2-.5,2-.5s1.8.3,2.5.8c.6.6,1,1.3,1.1,2.3h-1.6c0-.7-.3-1.1-.6-1.4-.3-.3-.8-.4-1.4-.4s-1.2.3-1.6.8c-.4.5-.6,1.3-.6,2.2v.8c0,1,.2,1.8.5,2.3s.9.8,1.6.8,1.1-.1,1.4-.4c.3-.3.5-.8.6-1.4h1.6Z"/>
      <path class="st10" d="M158,385.6c0-.7.1-1.3.4-1.8.3-.5.6-1,1.1-1.2s1-.4,1.7-.4c.9,0,1.7.3,2.3.9.6.6.9,1.4.9,2.4v.4c0,.7-.1,1.3-.4,1.8-.3.5-.6.9-1.1,1.2-.5.3-1,.4-1.7.4-1,0-1.7-.3-2.3-1s-.9-1.5-.9-2.6h0ZM159.5,385.7c0,.7.1,1.3.4,1.7.3.4.7.6,1.2.6s.9-.2,1.2-.6.4-1,.4-1.8-.1-1.2-.4-1.7c-.3-.4-.7-.6-1.2-.6s-.9.2-1.2.6c-.3.4-.4,1-.4,1.8Z"/>
      <path class="st10" d="M167.3,389.1h-1.5v-9.8h1.5v9.8Z"/>
      <path class="st10" d="M170.6,389.1h-1.5v-9.8h1.5v9.8Z"/>
      <path class="st10" d="M175.4,389.2c-1,0-1.8-.3-2.4-.9-.6-.6-.9-1.4-.9-2.5v-.2c0-.7.1-1.3.4-1.8.3-.5.6-1,1.1-1.3.5-.3,1-.5,1.6-.5.9,0,1.7.3,2.2.9.5.6.8,1.4.8,2.5v.6h-4.5c0,.6.2,1,.6,1.3s.8.5,1.3.5,1.3-.3,1.7-.9l.8.8c-.3.4-.6.7-1.1,1s-1,.3-1.5.3ZM175.2,383.3c-.4,0-.8.1-1,.4-.3.3-.4.7-.5,1.2h2.9c0-.6-.2-1-.4-1.3s-.6-.4-1-.4Z"/>
      <path class="st10" d="M182.1,388c.4,0,.7-.1,1-.3.3-.2.4-.5.4-.8h1.5c0,.4-.1.8-.4,1.2s-.6.7-1,.9c-.4.2-.9.3-1.4.3-1,0-1.7-.3-2.3-.9-.6-.6-.8-1.5-.8-2.6v-.2c0-1,.3-1.9.8-2.5.6-.6,1.3-.9,2.3-.9s1.5.2,2,.7c.5.5.8,1.1.8,1.9h-1.5c0-.4-.2-.7-.4-1s-.6-.4-1-.4-.9.2-1.2.5c-.3.4-.4.9-.4,1.6v.2c0,.7.1,1.3.4,1.7s.7.5,1.2.5Z"/>
      <path class="st10" d="M188,380.5v1.7h1.2v1.1h-1.2v3.8c0,.3,0,.5.2.6s.3.2.6.2.4,0,.5,0v1.2c-.4,0-.7.1-1,.1-1.2,0-1.8-.7-1.8-2v-3.9h-1.1v-1.1h1.1v-1.7h1.5Z"/>
    </g>
    <g>
      <path class="st10" d="M180.6,200.9l-1,1.1v2.9h-1.6v-9.2h1.6v4.3l.9-1.1,2.7-3.2h1.9l-3.4,4.1,3.6,5.1h-1.9l-2.8-4Z"/>
      <path class="st10" d="M190.9,202.5c0-.4-.1-.7-.4-.9-.3-.2-.8-.4-1.5-.7s-1.3-.5-1.8-.7c-.8-.5-1.3-1.2-1.3-2.1s.3-1.4.9-1.8,1.4-.7,2.4-.7,1.2.1,1.7.4.9.6,1.2,1c.3.4.4.9.4,1.5h-1.6c0-.5-.2-.9-.5-1.1-.3-.3-.7-.4-1.3-.4s-.9.1-1.2.3c-.3.2-.4.5-.4.9s.2.6.5.8.8.4,1.5.7,1.3.5,1.7.7c.4.3.8.6,1,.9s.3.8.3,1.2c0,.8-.3,1.4-.9,1.8-.6.5-1.4.7-2.4.7s-1.3-.1-1.8-.4c-.6-.2-1-.6-1.3-1-.3-.4-.5-.9-.5-1.5h1.6c0,.5.2.9.5,1.2.3.3.8.4,1.5.4s1-.1,1.3-.3.4-.5.4-.9Z"/>
      <path class="st10" d="M196.8,205c-1,0-1.8-.3-2.4-.9-.6-.6-.9-1.4-.9-2.5v-.2c0-.7.1-1.3.4-1.8.3-.5.6-1,1.1-1.3.5-.3,1-.5,1.6-.5.9,0,1.7.3,2.2.9.5.6.8,1.4.8,2.5v.6h-4.5c0,.6.2,1,.6,1.3s.8.5,1.3.5,1.3-.3,1.7-.9l.8.8c-.3.4-.6.7-1.1,1s-1,.3-1.5.3ZM196.6,199.1c-.4,0-.8.1-1,.4-.3.3-.4.7-.5,1.2h2.9c0-.6-.2-1-.4-1.3s-.6-.4-1-.4Z"/>
      <path class="st10" d="M204.4,199.4c-.2,0-.4,0-.6,0-.7,0-1.2.3-1.4.8v4.7h-1.5v-6.9h1.5v.8c.4-.6.9-.9,1.6-.9s.4,0,.5,0v1.4Z"/>
      <path class="st10" d="M207.9,202.9l1.5-4.9h1.6l-2.4,6.9h-1.3l-2.4-6.9h1.6l1.5,4.9Z"/>
      <path class="st10" d="M214.8,205c-1,0-1.8-.3-2.4-.9-.6-.6-.9-1.4-.9-2.5v-.2c0-.7.1-1.3.4-1.8.3-.5.6-1,1.1-1.3.5-.3,1-.5,1.6-.5.9,0,1.7.3,2.2.9.5.6.8,1.4.8,2.5v.6h-4.5c0,.6.2,1,.6,1.3s.8.5,1.3.5,1.3-.3,1.7-.9l.8.8c-.3.4-.6.7-1.1,1s-1,.3-1.5.3ZM214.7,199.1c-.4,0-.8.1-1,.4-.3.3-.4.7-.5,1.2h2.9c0-.6-.2-1-.4-1.3s-.6-.4-1-.4Z"/>
    </g>
    <g>
      <path class="st10" d="M145.4,307.6l-1,1.1v2.9h-1.6v-9.2h1.6v4.3l.9-1.1,2.7-3.2h1.9l-3.4,4.1,3.6,5.1h-1.9l-2.8-4Z"/>
      <path class="st10" d="M154.9,310.9c-.5.5-1.1.8-1.9.8s-1.3-.2-1.7-.7c-.4-.4-.6-1.1-.6-1.9v-4.4h1.5v4.4c0,.9.4,1.3,1.1,1.3s1.3-.3,1.5-.8v-4.9h1.5v6.9h-1.5v-.7Z"/>
      <path class="st10" d="M163.9,308.2c0,1.1-.2,1.9-.7,2.5-.5.6-1.1.9-2,.9s-1.4-.3-1.9-.9v.7h-1.5v-9.7h1.5v3.5c.4-.5,1-.8,1.8-.8s1.5.3,2,.9c.5.6.7,1.5.7,2.6h0ZM162.4,308.1c0-.7-.1-1.3-.4-1.7-.3-.4-.6-.6-1.1-.6s-1.1.3-1.4.9v2.8c.3.6.7.9,1.4.9s.9-.2,1.1-.5c.3-.4.4-.9.4-1.6v-.2Z"/>
      <path class="st10" d="M168.3,311.7c-1,0-1.8-.3-2.4-.9-.6-.6-.9-1.4-.9-2.5v-.2c0-.7.1-1.3.4-1.8.3-.5.6-1,1.1-1.3.5-.3,1-.5,1.6-.5.9,0,1.7.3,2.2.9.5.6.8,1.4.8,2.5v.6h-4.5c0,.6.2,1,.6,1.3s.8.5,1.3.5,1.3-.3,1.7-.9l.8.8c-.3.4-.6.7-1.1,1s-1,.3-1.5.3ZM168.1,305.9c-.4,0-.8.1-1,.4-.3.3-.4.7-.5,1.2h2.9c0-.6-.2-1-.4-1.3s-.6-.4-1-.4Z"/>
      <path class="st10" d="M172.8,311.6v-5.7h-1v-1.1h1v-.6c0-.8.2-1.4.6-1.8.4-.4,1-.6,1.8-.6s.6,0,.9.1v1.2c-.2,0-.4,0-.6,0-.7,0-1.1.4-1.1,1.1v.6h1.4v1.1h-1.4v5.7h-1.5Z"/>
      <path class="st10" d="M178.5,311.6h-1.5v-9.7h1.5v9.7Z"/>
      <path class="st10" d="M179.9,308.1c0-.7.1-1.3.4-1.8.3-.5.6-1,1.1-1.2s1-.4,1.7-.4c.9,0,1.7.3,2.3.9.6.6.9,1.4.9,2.4v.4c0,.7-.1,1.3-.4,1.8-.3.5-.6.9-1.1,1.2-.5.3-1,.4-1.7.4-1,0-1.7-.3-2.3-1s-.9-1.5-.9-2.6h0ZM181.4,308.2c0,.7.1,1.3.4,1.7.3.4.7.6,1.2.6s.9-.2,1.2-.6.4-1,.4-1.8-.1-1.2-.4-1.6c-.3-.4-.7-.6-1.2-.6s-.9.2-1.2.6c-.3.4-.4,1-.4,1.8Z"/>
      <path class="st10" d="M193.6,309.5l1.1-4.7h1.5l-1.9,6.9h-1.3l-1.5-4.7-1.4,4.7h-1.3l-1.9-6.9h1.5l1.1,4.7,1.4-4.7h1.2l1.4,4.7Z"/>
      <path class="st10" d="M202.2,308.2v3.4h-1.6v-9.2h3.5c1,0,1.9.3,2.5.8.6.5.9,1.2.9,2.1s-.3,1.6-.9,2.1c-.6.5-1.4.8-2.5.8h-1.9ZM202.2,306.9h1.9c.6,0,1-.1,1.3-.4.3-.3.5-.7.5-1.2s-.2-.9-.5-1.2c-.3-.3-.7-.5-1.3-.5h-2v3.2Z"/>
      <path class="st10" d="M208.8,303c0-.2,0-.4.2-.6s.4-.2.6-.2.5,0,.6.2.2.4.2.6,0,.4-.2.6-.4.2-.6.2-.5,0-.6-.2-.2-.3-.2-.6ZM210.4,311.6h-1.5v-6.9h1.5v6.9Z"/>
      <path class="st10" d="M218.1,308.2c0,1.1-.2,1.9-.7,2.5s-1.1.9-1.9.9-1.4-.2-1.8-.7v3.3h-1.5v-9.5h1.4v.7c.5-.5,1.1-.8,1.9-.8s1.5.3,2,.9c.5.6.7,1.5.7,2.6h0ZM216.5,308.1c0-.7-.1-1.2-.4-1.6-.3-.4-.7-.6-1.2-.6s-1.1.3-1.4.8v3c.3.5.7.8,1.4.8s.9-.2,1.2-.6.4-1,.4-1.8Z"/>
      <path class="st10" d="M222.4,311.7c-1,0-1.8-.3-2.4-.9-.6-.6-.9-1.4-.9-2.5v-.2c0-.7.1-1.3.4-1.8.3-.5.6-1,1.1-1.3.5-.3,1-.5,1.6-.5.9,0,1.7.3,2.2.9.5.6.8,1.4.8,2.5v.6h-4.5c0,.6.2,1,.6,1.3s.8.5,1.3.5,1.3-.3,1.7-.9l.8.8c-.3.4-.6.7-1.1,1s-1,.3-1.5.3ZM222.2,305.9c-.4,0-.8.1-1,.4-.3.3-.4.7-.5,1.2h2.9c0-.6-.2-1-.4-1.3s-.6-.4-1-.4Z"/>
      <path class="st10" d="M228,311.6h-1.5v-9.7h1.5v9.7Z"/>
      <path class="st10" d="M229.7,303c0-.2,0-.4.2-.6s.4-.2.6-.2.5,0,.6.2.2.4.2.6,0,.4-.2.6-.4.2-.6.2-.5,0-.6-.2-.2-.3-.2-.6ZM231.3,311.6h-1.5v-6.9h1.5v6.9Z"/>
      <path class="st10" d="M234.4,304.7v.8c.6-.6,1.2-.9,2-.9,1.4,0,2.2.8,2.2,2.5v4.5h-1.5v-4.4c0-.4,0-.8-.3-1-.2-.2-.5-.3-.9-.3-.6,0-1.1.3-1.4.8v4.9h-1.5v-6.9h1.5Z"/>
      <path class="st10" d="M243.3,311.7c-1,0-1.8-.3-2.4-.9-.6-.6-.9-1.4-.9-2.5v-.2c0-.7.1-1.3.4-1.8.3-.5.6-1,1.1-1.3.5-.3,1-.5,1.6-.5.9,0,1.7.3,2.2.9.5.6.8,1.4.8,2.5v.6h-4.5c0,.6.2,1,.6,1.3s.8.5,1.3.5,1.3-.3,1.7-.9l.8.8c-.3.4-.6.7-1.1,1s-1,.3-1.5.3ZM243.1,305.9c-.4,0-.8.1-1,.4-.3.3-.4.7-.5,1.2h2.9c0-.6-.2-1-.4-1.3s-.6-.4-1-.4Z"/>
      <path class="st10" d="M251.1,309.7c0-.3-.1-.5-.3-.6-.2-.1-.6-.3-1.1-.4-.5-.1-1-.2-1.3-.4-.8-.4-1.2-.9-1.2-1.6s.2-1.1.7-1.5c.5-.4,1.1-.6,1.9-.6s1.5.2,2,.6.8.9.8,1.6h-1.5c0-.3-.1-.5-.3-.7-.2-.2-.5-.3-.9-.3s-.6,0-.8.2c-.2.2-.3.4-.3.6s0,.4.3.6c.2.1.6.3,1.2.4.6.1,1.1.3,1.4.5.3.2.6.4.8.7.2.3.3.6.3.9,0,.6-.3,1.1-.8,1.5-.5.4-1.2.6-2,.6s-1.1-.1-1.5-.3c-.4-.2-.8-.5-1-.8-.2-.4-.4-.7-.4-1.1h1.5c0,.4.2.6.4.8.3.2.6.3,1,.3s.7,0,.9-.2c.2-.2.3-.4.3-.6Z"/>
    </g>
    <g>
      <path class="st10" d="M253.2,481c0,1-.5,1.8-1.1,2.3-.6.6-1.5.8-2.5.8s-1.4-.2-1.9-.5c-.6-.3-1-.8-1.3-1.5-.3-.6-.5-1.4-.5-2.2v-.9c0-.9.2-1.6.5-2.3.3-.7.8-1.2,1.3-1.5.6-.4,1.2-.5,2-.5s1.8.3,2.5.8c.6.6,1,1.3,1.1,2.3h-1.6c0-.7-.3-1.1-.6-1.4-.3-.3-.8-.4-1.4-.4s-1.2.3-1.6.8c-.4.5-.6,1.3-.6,2.2v.8c0,1,.2,1.8.5,2.3s.9.8,1.6.8,1.1-.1,1.4-.4c.3-.3.5-.8.6-1.4h1.6Z"/>
      <path class="st10" d="M258.6,483.3c-.5.5-1.1.8-1.9.8s-1.3-.2-1.7-.7c-.4-.4-.6-1.1-.6-1.9v-4.5h1.5v4.4c0,.9.4,1.3,1.1,1.3s1.3-.3,1.5-.8v-4.9h1.5v6.9h-1.5v-.7Z"/>
      <path class="st10" d="M265.5,482.1c0-.3-.1-.5-.3-.6-.2-.1-.6-.3-1.1-.4-.5-.1-1-.2-1.3-.4-.8-.4-1.2-.9-1.2-1.6s.2-1.1.7-1.5c.5-.4,1.1-.6,1.9-.6s1.5.2,2,.6.8.9.8,1.6h-1.5c0-.3-.1-.5-.3-.7-.2-.2-.5-.3-.9-.3s-.6,0-.8.2c-.2.2-.3.4-.3.6s0,.4.3.6c.2.1.6.3,1.2.4.6.1,1.1.3,1.4.5.3.2.6.4.8.7.2.3.3.6.3.9,0,.6-.3,1.1-.8,1.5-.5.4-1.2.6-2,.6s-1.1-.1-1.5-.3c-.4-.2-.8-.5-1-.8-.2-.4-.4-.7-.4-1.1h1.5c0,.4.2.6.4.8.3.2.6.3,1,.3s.7,0,.9-.2c.2-.2.3-.4.3-.6Z"/>
      <path class="st10" d="M270.3,475.5v1.7h1.2v1.1h-1.2v3.8c0,.3,0,.5.2.6s.3.2.6.2.4,0,.5,0v1.2c-.4,0-.7.1-1,.1-1.2,0-1.8-.7-1.8-2v-3.9h-1.1v-1.1h1.1v-1.7h1.5Z"/>
      <path class="st10" d="M272.2,480.5c0-.7.1-1.3.4-1.8.3-.5.6-1,1.1-1.2s1-.4,1.7-.4c.9,0,1.7.3,2.3.9.6.6.9,1.4.9,2.4v.4c0,.7-.1,1.3-.4,1.8-.3.5-.6.9-1.1,1.2-.5.3-1,.4-1.7.4-1,0-1.7-.3-2.3-1s-.9-1.5-.9-2.6h0ZM273.8,480.7c0,.7.1,1.3.4,1.7.3.4.7.6,1.2.6s.9-.2,1.2-.6.4-1,.4-1.8-.1-1.2-.4-1.7c-.3-.4-.7-.6-1.2-.6s-.9.2-1.2.6c-.3.4-.4,1-.4,1.8Z"/>
      <path class="st10" d="M281.4,477.1v.7c.5-.6,1.2-.8,2-.8s1.5.4,1.9,1.1c.5-.7,1.2-1.1,2.1-1.1s1.3.2,1.7.6c.4.4.6,1,.6,1.9v4.5h-1.5v-4.5c0-.4,0-.8-.3-1-.2-.2-.5-.3-.9-.3s-.6,0-.9.3c-.2.2-.4.4-.5.7v4.7s-1.5,0-1.5,0v-4.5c0-.8-.4-1.2-1.2-1.2s-1.1.3-1.3.8v5h-1.5v-6.9h1.5Z"/>
      <path class="st10" d="M294.2,480.5c0-1.1.2-1.9.7-2.5.5-.6,1.1-1,2-1s1.3.3,1.8.8v-3.5h1.5v9.8h-1.4v-.7c-.5.6-1.2.8-1.9.8s-1.5-.3-2-1c-.5-.6-.7-1.5-.7-2.6ZM295.7,480.7c0,.7.1,1.2.4,1.6s.7.6,1.1.6,1.1-.3,1.4-.8v-2.9c-.3-.6-.7-.8-1.4-.8s-.9.2-1.2.6-.4,1-.4,1.8Z"/>
      <path class="st10" d="M305.9,484c0-.1-.1-.3-.2-.6-.5.5-1.1.8-1.8.8s-1.3-.2-1.7-.6c-.4-.4-.7-.9-.7-1.5s.3-1.3.8-1.7,1.3-.6,2.3-.6h.9v-.5c0-.4,0-.6-.3-.9s-.5-.3-.9-.3-.6,0-.9.3c-.2.2-.3.4-.3.7h-1.5c0-.4.1-.7.4-1.1s.6-.6,1-.8.9-.3,1.4-.3c.8,0,1.4.2,1.9.6s.7,1,.7,1.7v3.1c0,.6,0,1.1.3,1.5h0c0,.1-1.6.1-1.6.1ZM304.2,482.9c.3,0,.6,0,.9-.2s.5-.3.6-.6v-1.3h-.8c-.6,0-1,0-1.3.3-.3.2-.4.5-.4.8s0,.5.3.7c.2.2.5.3.8.3Z"/>
      <path class="st10" d="M310.8,475.5v1.7h1.2v1.1h-1.2v3.8c0,.3,0,.5.2.6s.3.2.6.2.4,0,.5,0v1.2c-.4,0-.7.1-1,.1-1.2,0-1.8-.7-1.8-2v-3.9h-1.1v-1.1h1.1v-1.7h1.5Z"/>
      <path class="st10" d="M317.3,484c0-.1-.1-.3-.2-.6-.5.5-1.1.8-1.8.8s-1.3-.2-1.7-.6c-.4-.4-.7-.9-.7-1.5s.3-1.3.8-1.7,1.3-.6,2.3-.6h.9v-.5c0-.4,0-.6-.3-.9s-.5-.3-.9-.3-.6,0-.9.3c-.2.2-.3.4-.3.7h-1.5c0-.4.1-.7.4-1.1s.6-.6,1-.8.9-.3,1.4-.3c.8,0,1.4.2,1.9.6s.7,1,.7,1.7v3.1c0,.6,0,1.1.3,1.5h0c0,.1-1.6.1-1.6.1ZM315.6,482.9c.3,0,.6,0,.9-.2s.5-.3.6-.6v-1.3h-.8c-.6,0-1,0-1.3.3-.3.2-.4.5-.4.8s0,.5.3.7c.2.2.5.3.8.3Z"/>
      <path class="st10" d="M324.1,482.1c0-.3-.1-.5-.3-.6-.2-.1-.6-.3-1.1-.4-.5-.1-1-.2-1.3-.4-.8-.4-1.2-.9-1.2-1.6s.2-1.1.7-1.5c.5-.4,1.1-.6,1.9-.6s1.5.2,2,.6.8.9.8,1.6h-1.5c0-.3-.1-.5-.3-.7-.2-.2-.5-.3-.9-.3s-.6,0-.8.2c-.2.2-.3.4-.3.6s0,.4.3.6c.2.1.6.3,1.2.4.6.1,1.1.3,1.4.5.3.2.6.4.8.7.2.3.3.6.3.9,0,.6-.3,1.1-.8,1.5-.5.4-1.2.6-2,.6s-1.1-.1-1.5-.3c-.4-.2-.8-.5-1-.8-.2-.4-.4-.7-.4-1.1h1.5c0,.4.2.6.4.8.3.2.6.3,1,.3s.7,0,.9-.2c.2-.2.3-.4.3-.6Z"/>
      <path class="st10" d="M329.9,484.1c-1,0-1.8-.3-2.4-.9-.6-.6-.9-1.4-.9-2.5v-.2c0-.7.1-1.3.4-1.8.3-.5.6-1,1.1-1.3.5-.3,1-.5,1.6-.5.9,0,1.7.3,2.2.9.5.6.8,1.4.8,2.5v.6h-4.5c0,.6.2,1,.6,1.3s.8.5,1.3.5,1.3-.3,1.7-.9l.8.8c-.3.4-.6.7-1.1,1s-1,.3-1.5.3ZM329.8,478.3c-.4,0-.8.1-1,.4-.3.3-.4.7-.5,1.2h2.9c0-.6-.2-1-.4-1.3s-.6-.4-1-.4Z"/>
      <path class="st10" d="M335.8,475.5v1.7h1.2v1.1h-1.2v3.8c0,.3,0,.5.2.6s.3.2.6.2.4,0,.5,0v1.2c-.4,0-.7.1-1,.1-1.2,0-1.8-.7-1.8-2v-3.9h-1.1v-1.1h1.1v-1.7h1.5Z"/>
      <path class="st10" d="M233.3,491c0-.2,0-.4.2-.6s.4-.2.6-.2.5,0,.6.2.2.4.2.6,0,.4-.2.6-.4.2-.6.2-.5,0-.6-.2-.2-.3-.2-.6ZM235,499.6h-1.5v-6.9h1.5v6.9Z"/>
      <path class="st10" d="M238.1,492.7v.8c.6-.6,1.2-.9,2-.9,1.4,0,2.2.8,2.2,2.5v4.5h-1.5v-4.4c0-.4,0-.8-.3-1-.2-.2-.5-.3-.9-.3-.6,0-1.1.3-1.4.8v4.9h-1.5v-6.9h1.5Z"/>
      <path class="st10" d="M249.4,490.4l2.7,7.1,2.7-7.1h2.1v9.2h-1.6v-3l.2-4.1-2.7,7.1h-1.1l-2.7-7.1.2,4.1v3h-1.6v-9.2h2.1Z"/>
      <path class="st10" d="M262.6,499.6c0-.1-.1-.3-.2-.6-.5.5-1.1.8-1.8.8s-1.3-.2-1.7-.6c-.4-.4-.7-.9-.7-1.5s.3-1.3.8-1.7,1.3-.6,2.3-.6h.9v-.5c0-.4,0-.6-.3-.9s-.5-.3-.9-.3-.6,0-.9.3c-.2.2-.3.4-.3.7h-1.5c0-.4.1-.7.4-1.1s.6-.6,1-.8.9-.3,1.4-.3c.8,0,1.4.2,1.9.6s.7,1,.7,1.7v3.1c0,.6,0,1.1.3,1.5h0c0,.1-1.6.1-1.6.1ZM260.9,498.5c.3,0,.6,0,.9-.2s.5-.3.6-.6v-1.3h-.8c-.6,0-1,0-1.3.3-.3.2-.4.5-.4.8s0,.5.3.7c.2.2.5.3.8.3Z"/>
      <path class="st10" d="M269.1,494.2c-.2,0-.4,0-.6,0-.7,0-1.2.3-1.4.8v4.7h-1.5v-6.9h1.5v.8c.4-.6.9-.9,1.6-.9s.4,0,.5,0v1.4Z"/>
      <path class="st10" d="M272.3,496.7l-.7.7v2.2h-1.5v-9.8h1.5v5.6l.5-.6,1.9-2.1h1.9l-2.6,2.9,2.8,4h-1.8l-2-2.9Z"/>
      <path class="st10" d="M276.5,496.1c0-1.1.2-1.9.7-2.5.5-.6,1.1-1,2-1s1.3.3,1.8.8v-3.5h1.5v9.8h-1.4v-.7c-.5.6-1.2.8-1.9.8s-1.5-.3-2-1c-.5-.6-.7-1.5-.7-2.6ZM278,496.3c0,.7.1,1.2.4,1.6s.7.6,1.1.6,1.1-.3,1.4-.8v-2.9c-.3-.6-.7-.8-1.4-.8s-.9.2-1.2.6-.4,1-.4,1.8Z"/>
      <path class="st10" d="M283.8,496.1c0-.7.1-1.3.4-1.8.3-.5.6-1,1.1-1.2s1-.4,1.7-.4c.9,0,1.7.3,2.3.9.6.6.9,1.4.9,2.4v.4c0,.7-.1,1.3-.4,1.8-.3.5-.6.9-1.1,1.2-.5.3-1,.4-1.7.4-1,0-1.7-.3-2.3-1s-.9-1.5-.9-2.6h0ZM285.4,496.2c0,.7.1,1.3.4,1.7.3.4.7.6,1.2.6s.9-.2,1.2-.6.4-1,.4-1.8-.1-1.2-.4-1.7c-.3-.4-.7-.6-1.2-.6s-.9.2-1.2.6c-.3.4-.4,1-.4,1.8Z"/>
      <path class="st10" d="M297.5,497.5l1.1-4.7h1.5l-1.9,6.9h-1.3l-1.5-4.7-1.4,4.7h-1.3l-1.9-6.9h1.5l1.1,4.7,1.4-4.7h1.2l1.4,4.7Z"/>
      <path class="st10" d="M302.6,492.7v.8c.6-.6,1.2-.9,2-.9,1.4,0,2.2.8,2.2,2.5v4.5h-1.5v-4.4c0-.4,0-.8-.3-1-.2-.2-.5-.3-.9-.3-.6,0-1.1.3-1.4.8v4.9h-1.5v-6.9h1.5Z"/>
      <path class="st10" d="M312.2,499.6v-5.7h-1v-1.1h1v-.6c0-.8.2-1.4.6-1.8.4-.4,1-.6,1.8-.6s.6,0,.9.1v1.2c-.2,0-.4,0-.6,0-.7,0-1.1.4-1.1,1.1v.6h1.4v1.1h-1.4v5.7h-1.5Z"/>
      <path class="st10" d="M316,496.1c0-.7.1-1.3.4-1.8.3-.5.6-1,1.1-1.2s1-.4,1.7-.4c.9,0,1.7.3,2.3.9.6.6.9,1.4.9,2.4v.4c0,.7-.1,1.3-.4,1.8-.3.5-.6.9-1.1,1.2-.5.3-1,.4-1.7.4-1,0-1.7-.3-2.3-1s-.9-1.5-.9-2.6h0ZM317.5,496.2c0,.7.1,1.3.4,1.7.3.4.7.6,1.2.6s.9-.2,1.2-.6.4-1,.4-1.8-.1-1.2-.4-1.7c-.3-.4-.7-.6-1.2-.6s-.9.2-1.2.6c-.3.4-.4,1-.4,1.8Z"/>
      <path class="st10" d="M327.2,494.2c-.2,0-.4,0-.6,0-.7,0-1.2.3-1.4.8v4.7h-1.5v-6.9h1.5v.8c.4-.6.9-.9,1.6-.9s.4,0,.5,0v1.4Z"/>
      <path class="st10" d="M329.7,492.7v.7c.5-.6,1.2-.8,2-.8s1.5.4,1.9,1.1c.5-.7,1.2-1.1,2.1-1.1s1.3.2,1.7.6c.4.4.6,1,.6,1.9v4.5h-1.5v-4.5c0-.4,0-.8-.3-1-.2-.2-.5-.3-.9-.3s-.6,0-.9.3c-.2.2-.4.4-.5.7v4.7s-1.5,0-1.5,0v-4.5c0-.8-.4-1.2-1.2-1.2s-1.1.3-1.3.8v5h-1.5v-6.9h1.5Z"/>
      <path class="st10" d="M343.6,499.6c0-.1-.1-.3-.2-.6-.5.5-1.1.8-1.8.8s-1.3-.2-1.7-.6c-.4-.4-.7-.9-.7-1.5s.3-1.3.8-1.7,1.3-.6,2.3-.6h.9v-.5c0-.4,0-.6-.3-.9s-.5-.3-.9-.3-.6,0-.9.3c-.2.2-.3.4-.3.7h-1.5c0-.4.1-.7.4-1.1s.6-.6,1-.8.9-.3,1.4-.3c.8,0,1.4.2,1.9.6s.7,1,.7,1.7v3.1c0,.6,0,1.1.3,1.5h0c0,.1-1.6.1-1.6.1ZM341.9,498.5c.3,0,.6,0,.9-.2s.5-.3.6-.6v-1.3h-.8c-.6,0-1,0-1.3.3-.3.2-.4.5-.4.8s0,.5.3.7c.2.2.5.3.8.3Z"/>
      <path class="st10" d="M348.5,491.1v1.7h1.2v1.1h-1.2v3.8c0,.3,0,.5.2.6s.3.2.6.2.4,0,.5,0v1.2c-.4,0-.7.1-1,.1-1.2,0-1.8-.7-1.8-2v-3.9h-1.1v-1.1h1.1v-1.7h1.5Z"/>
    </g>
    <g>
      <path class="st10" d="M588,206.4h-1.6v-9.2h1.6v9.2Z"/>
      <path class="st10" d="M591.3,199.6v.8c.6-.6,1.2-.9,2-.9,1.4,0,2.2.8,2.2,2.5v4.5h-1.5v-4.4c0-.4,0-.8-.3-1-.2-.2-.5-.3-.9-.3-.6,0-1.1.3-1.4.8v4.9h-1.5v-6.9h1.5Z"/>
      <path class="st10" d="M599,197.9v1.7h1.2v1.1h-1.2v3.8c0,.3,0,.5.2.6s.3.2.6.2.4,0,.5,0v1.2c-.4,0-.7.1-1,.1-1.2,0-1.8-.7-1.8-2v-3.9h-1.1v-1.1h1.1v-1.7h1.5Z"/>
      <path class="st10" d="M604.4,206.6c-1,0-1.8-.3-2.4-.9-.6-.6-.9-1.4-.9-2.5v-.2c0-.7.1-1.3.4-1.8.3-.5.6-1,1.1-1.3.5-.3,1-.5,1.6-.5.9,0,1.7.3,2.2.9.5.6.8,1.4.8,2.5v.6h-4.5c0,.6.2,1,.6,1.3s.8.5,1.3.5,1.3-.3,1.7-.9l.8.8c-.3.4-.6.7-1.1,1s-1,.3-1.5.3ZM604.2,200.7c-.4,0-.8.1-1,.4-.3.3-.4.7-.5,1.2h2.9c0-.6-.2-1-.4-1.3s-.6-.4-1-.4Z"/>
      <path class="st10" d="M612,201c-.2,0-.4,0-.6,0-.7,0-1.2.3-1.4.8v4.7h-1.5v-6.9h1.5v.8c.4-.6.9-.9,1.6-.9s.4,0,.5,0v1.4Z"/>
      <path class="st10" d="M616.9,206.4c0-.1-.1-.3-.2-.6-.5.5-1.1.8-1.8.8s-1.3-.2-1.7-.6c-.4-.4-.7-.9-.7-1.5s.3-1.3.8-1.7,1.3-.6,2.3-.6h.9v-.5c0-.4,0-.6-.3-.9s-.5-.3-.9-.3-.6,0-.9.3c-.2.2-.3.4-.3.7h-1.5c0-.4.1-.7.4-1.1s.6-.6,1-.8.9-.3,1.4-.3c.8,0,1.4.2,1.9.6s.7,1,.7,1.7v3.1c0,.6,0,1.1.3,1.5h0c0,.1-1.6.1-1.6.1ZM615.2,205.3c.3,0,.6,0,.9-.2s.5-.3.6-.6v-1.3h-.8c-.6,0-1,0-1.3.3-.3.2-.4.5-.4.8s0,.5.3.7c.2.2.5.3.8.3Z"/>
      <path class="st10" d="M622.6,205.3c.4,0,.7-.1,1-.3.3-.2.4-.5.4-.8h1.5c0,.4-.1.8-.4,1.2s-.6.7-1,.9c-.4.2-.9.3-1.4.3-1,0-1.7-.3-2.3-.9-.6-.6-.8-1.5-.8-2.6v-.2c0-1,.3-1.9.8-2.5.6-.6,1.3-.9,2.3-.9s1.5.2,2,.7c.5.5.8,1.1.8,1.9h-1.5c0-.4-.2-.7-.4-1s-.6-.4-1-.4-.9.2-1.2.5c-.3.4-.4.9-.4,1.6v.2c0,.7.1,1.3.4,1.7s.7.5,1.2.5Z"/>
      <path class="st10" d="M628.5,197.9v1.7h1.2v1.1h-1.2v3.8c0,.3,0,.5.2.6s.3.2.6.2.4,0,.5,0v1.2c-.4,0-.7.1-1,.1-1.2,0-1.8-.7-1.8-2v-3.9h-1.1v-1.1h1.1v-1.7h1.5Z"/>
    </g>
    <g>
      <line class="st6" x1="641" y1="216.9" x2="490.4" y2="216.9"/>
      <polygon class="st7" points="492.6 209.5 479.8 216.9 492.6 224.3 492.6 209.5"/>
    </g>
    <g>
      <line class="st6" x1="434.3" y1="216.9" x2="288.4" y2="216.9"/>
      <polygon class="st7" points="290.6 209.5 277.7 216.9 290.6 224.3 290.6 209.5"/>
    </g>
    <g>
      <line class="st0" x1="277.7" y1="340.7" x2="423.7" y2="340.7"/>
      <polygon class="st11" points="421.5 348.2 434.3 340.7 421.5 333.3 421.5 348.2"/>
    </g>
    <g>
      <line class="st6" x1="457" y1="235.3" x2="457" y2="307.2"/>
      <polygon class="st7" points="449.6 305 457 317.9 464.5 305 449.6 305"/>
    </g>
    <g>
      <line class="st0" x1="197.5" y1="370.7" x2="197.5" y2="452.6"/>
      <polygon class="st11" points="190.1 450.4 197.5 463.3 204.9 450.4 190.1 450.4"/>
    </g>
    <g>
      <path class="st10" d="M296.7,325.2h-3.8v2.8h4.4v1.3h-6v-9.2h6v1.3h-4.4v2.6h3.8v1.3Z"/>
      <path class="st10" d="M300,322.5v.7c.5-.6,1.2-.8,2-.8s1.5.4,1.9,1.1c.5-.7,1.2-1.1,2.1-1.1s1.3.2,1.7.6c.4.4.6,1,.6,1.9v4.5h-1.5v-4.5c0-.4,0-.8-.3-1-.2-.2-.5-.3-.9-.3s-.6,0-.9.3c-.2.2-.4.4-.5.7v4.7s-1.5,0-1.5,0v-4.5c0-.8-.4-1.2-1.2-1.2s-1.1.3-1.3.8v5h-1.5v-6.9h1.5Z"/>
      <path class="st10" d="M315.9,326c0,1.1-.2,1.9-.7,2.5-.5.6-1.1.9-2,.9s-1.4-.3-1.9-.9v.7h-1.5v-9.8h1.5v3.5c.4-.5,1-.8,1.8-.8s1.5.3,2,.9c.5.6.7,1.5.7,2.6h0ZM314.3,325.8c0-.7-.1-1.3-.4-1.7-.3-.4-.6-.6-1.1-.6s-1.1.3-1.4.9v2.8c.3.6.7.9,1.4.9s.9-.2,1.1-.5c.3-.4.4-.9.4-1.6v-.2Z"/>
      <path class="st10" d="M320.2,329.5c-1,0-1.8-.3-2.4-.9-.6-.6-.9-1.4-.9-2.5v-.2c0-.7.1-1.3.4-1.8.3-.5.6-1,1.1-1.3.5-.3,1-.5,1.6-.5.9,0,1.7.3,2.2.9.5.6.8,1.4.8,2.5v.6h-4.5c0,.6.2,1,.6,1.3s.8.5,1.3.5,1.3-.3,1.7-.9l.8.8c-.3.4-.6.7-1.1,1s-1,.3-1.5.3ZM320,323.6c-.4,0-.8.1-1,.4-.3.3-.4.7-.5,1.2h2.9c0-.6-.2-1-.4-1.3s-.6-.4-1-.4Z"/>
      <path class="st10" d="M323.8,325.9c0-1.1.2-1.9.7-2.5.5-.6,1.1-1,2-1s1.3.3,1.8.8v-3.5h1.5v9.8h-1.4v-.7c-.5.6-1.2.8-1.9.8s-1.5-.3-2-1c-.5-.6-.7-1.5-.7-2.6ZM325.4,326c0,.7.1,1.2.4,1.6s.7.6,1.1.6,1.1-.3,1.4-.8v-2.9c-.3-.6-.7-.8-1.4-.8s-.9.2-1.2.6-.4,1-.4,1.8Z"/>
      <path class="st10" d="M331.2,325.9c0-1.1.2-1.9.7-2.5.5-.6,1.1-1,2-1s1.3.3,1.8.8v-3.5h1.5v9.8h-1.4v-.7c-.5.6-1.2.8-1.9.8s-1.5-.3-2-1c-.5-.6-.7-1.5-.7-2.6ZM332.7,326c0,.7.1,1.2.4,1.6s.7.6,1.1.6,1.1-.3,1.4-.8v-2.9c-.3-.6-.7-.8-1.4-.8s-.9.2-1.2.6-.4,1-.4,1.8Z"/>
      <path class="st10" d="M338.8,320.7c0-.2,0-.4.2-.6s.4-.2.6-.2.5,0,.6.2.2.4.2.6,0,.4-.2.6-.4.2-.6.2-.5,0-.6-.2-.2-.3-.2-.6ZM340.4,329.3h-1.5v-6.9h1.5v6.9Z"/>
      <path class="st10" d="M343.5,322.5v.8c.6-.6,1.2-.9,2-.9,1.4,0,2.2.8,2.2,2.5v4.5h-1.5v-4.4c0-.4,0-.8-.3-1-.2-.2-.5-.3-.9-.3-.6,0-1.1.3-1.4.8v4.9h-1.5v-6.9h1.5Z"/>
      <path class="st10" d="M349.1,325.9c0-1.1.3-1.9.8-2.6.5-.6,1.2-1,2-1s1.4.3,1.8.8v-.7h1.5v6.7c0,.9-.3,1.6-.8,2.1-.6.5-1.3.8-2.3.8s-1-.1-1.5-.3c-.5-.2-.8-.5-1.1-.8l.7-.9c.5.6,1.1.8,1.8.8s.9-.1,1.2-.4c.3-.3.4-.7.4-1.2v-.5c-.4.5-1,.7-1.8.7s-1.5-.3-2-1c-.5-.6-.8-1.5-.8-2.7ZM350.6,326c0,.7.1,1.2.4,1.6s.7.6,1.2.6,1.1-.3,1.4-.8v-3c-.3-.5-.7-.8-1.4-.8s-.9.2-1.2.6-.4,1-.4,1.8Z"/>
      <path class="st10" d="M360.6,327.5c0-.3-.1-.5-.3-.6-.2-.1-.6-.3-1.1-.4-.5-.1-1-.2-1.3-.4-.8-.4-1.2-.9-1.2-1.6s.2-1.1.7-1.5c.5-.4,1.1-.6,1.9-.6s1.5.2,2,.6.8.9.8,1.6h-1.5c0-.3-.1-.5-.3-.7-.2-.2-.5-.3-.9-.3s-.6,0-.8.2c-.2.2-.3.4-.3.6s0,.4.3.6c.2.1.6.3,1.2.4.6.1,1.1.3,1.4.5.3.2.6.4.8.7.2.3.3.6.3.9,0,.6-.3,1.1-.8,1.5-.5.4-1.2.6-2,.6s-1.1-.1-1.5-.3c-.4-.2-.8-.5-1-.8-.2-.4-.4-.7-.4-1.1h1.5c0,.4.2.6.4.8.3.2.6.3,1,.3s.7,0,.9-.2c.2-.2.3-.4.3-.6Z"/>
    </g>
    <g>
      <path class="st10" d="M666.6,271.7v6.2c0,1-.3,1.8-.9,2.3-.6.6-1.5.9-2.5.9s-1.9-.3-2.5-.8c-.6-.6-.9-1.3-.9-2.4v-6.2h1.6v6.2c0,.6.2,1.1.5,1.4.3.3.8.5,1.4.5,1.2,0,1.9-.7,1.9-2v-6.1h1.6Z"/>
      <path class="st10" d="M672,279.1c0-.3-.1-.5-.3-.6-.2-.1-.6-.3-1.1-.4-.5-.1-1-.2-1.3-.4-.8-.4-1.2-.9-1.2-1.6s.2-1.1.7-1.5c.5-.4,1.1-.6,1.9-.6s1.5.2,2,.6.8.9.8,1.6h-1.5c0-.3-.1-.5-.3-.7-.2-.2-.5-.3-.9-.3s-.6,0-.8.2c-.2.2-.3.4-.3.6s0,.4.3.6c.2.1.6.3,1.2.4.6.1,1.1.3,1.4.5.3.2.6.4.8.7.2.3.3.6.3.9,0,.6-.3,1.1-.8,1.5-.5.4-1.2.6-2,.6s-1.1-.1-1.5-.3c-.4-.2-.8-.5-1-.8-.2-.4-.4-.7-.4-1.1h1.5c0,.4.2.6.4.8.3.2.6.3,1,.3s.7,0,.9-.2c.2-.2.3-.4.3-.6Z"/>
      <path class="st10" d="M677.9,281.1c-1,0-1.8-.3-2.4-.9-.6-.6-.9-1.4-.9-2.5v-.2c0-.7.1-1.3.4-1.8.3-.5.6-1,1.1-1.3.5-.3,1-.5,1.6-.5.9,0,1.7.3,2.2.9.5.6.8,1.4.8,2.5v.6h-4.5c0,.6.2,1,.6,1.3s.8.5,1.3.5,1.3-.3,1.7-.9l.8.8c-.3.4-.6.7-1.1,1s-1,.3-1.5.3ZM677.7,275.2c-.4,0-.8.1-1,.4-.3.3-.4.7-.5,1.2h2.9c0-.6-.2-1-.4-1.3s-.6-.4-1-.4Z"/>
      <path class="st10" d="M685.4,275.5c-.2,0-.4,0-.6,0-.7,0-1.2.3-1.4.8v4.7h-1.5v-6.9h1.5v.8c.4-.6.9-.9,1.6-.9s.4,0,.5,0v1.4Z"/>
    </g>
    <path class="st12" d="M479.7,345.7v-11.9h0v-11c0-1.3-2.6-2.5-6.6-3.4-4.1-.9-9.8-1.4-16.1-1.4s-7.5.2-10.6.6c-.1,0-.3,0-.4,0-1.7.2-3.3.5-4.7.7-4.3.9-7,2.1-7,3.5v10.9h0v12h0v13c0,2.6,10.2,4.8,22.7,4.8s22.7-2.2,22.7-4.8v-12.9s0,0,0,0ZM437.2,322.8c.1,0,.3-.1.4-.2.3-.1.5-.2.8-.3.2,0,.4-.1.6-.2.3,0,.7-.2,1-.3.3,0,.5-.1.8-.2.4,0,.9-.2,1.3-.3.3,0,.7-.1,1-.2.5,0,1-.2,1.6-.3.4,0,.8-.1,1.2-.2.6,0,1.2-.1,1.9-.2.5,0,.9,0,1.3-.1.8,0,1.6-.1,2.4-.2.4,0,.9,0,1.3,0,1.3,0,2.6,0,4,0h.2c1.4,0,2.7,0,4,0,.5,0,.9,0,1.3,0,.8,0,1.6,0,2.4.1.5,0,.9,0,1.3.1.7,0,1.3.1,1.9.2.4,0,.8.1,1.2.2.5,0,1.1.2,1.6.3.4,0,.7.1,1,.2.5,0,.9.2,1.3.3.3,0,.6.1.9.2.4,0,.7.2,1,.3.2,0,.4.1.6.2.3.1.6.2.8.3.1,0,.3.1.4.2t0,0c-2.4,1.1-9.2,2.6-20,2.6s-17.6-1.5-19.9-2.7c0,0,0,0,0,0h0ZM457,327.6c9.1,0,17-1.1,20.6-2.8v8.9c-.1,1.1-7.1,3.7-20.6,3.7s-20.4-2.6-20.6-3.7v-8.9c3.6,1.6,11.5,2.8,20.6,2.8h0ZM457,339.6c6,0,16.2-.7,20.6-3.2v9.3c-.1,1.1-7.1,3.7-20.6,3.7s-20.4-2.6-20.6-3.7v-9.3c4.4,2.4,14.6,3.2,20.6,3.2h0ZM457,361.3c-12.1,0-19.2-1.9-20.6-3v-9.9c4.4,2.4,14.6,3.2,20.6,3.2s16.2-.7,20.6-3.2v9.9c-1.4,1.1-8.5,3.1-20.6,3.1h0Z"/>
    <path class="st12" d="M439.1,331.5c2.7.8,6.4,1.4,10.7,1.8h0c.5,0,1-.4,1-1,0-.6-.4-1.1-1-1.1-4.1-.3-7.7-.9-10.2-1.7-.6-.2-1.2.1-1.3.7-.2.6.1,1.2.7,1.3h0Z"/>
    <path class="st12" d="M439.1,343.6c2.7.8,6.4,1.4,10.7,1.8h0c.5,0,1-.4,1-1,0-.6-.4-1.1-1-1.1-4.1-.3-7.7-.9-10.2-1.7-.6-.2-1.2.1-1.3.7-.2.5.1,1.1.7,1.3h0Z"/>
    <path class="st12" d="M450,355.4c-4.1-.3-7.7-.9-10.2-1.7-.6-.2-1.2.1-1.3.7s.1,1.2.7,1.3c2.7.8,6.4,1.4,10.7,1.8h0c.5,0,1-.4,1-1,0-.6-.4-1.1-1-1.1h0Z"/>
    <path class="st12" d="M457.7,228.6v1.5h5v-1.5h7v-1.9h-7v-1.6h-5v1.6h-13.4v1.9h13.4Z"/>
    <path class="st12" d="M462.1,215.2h5v-1.6h2.6v-1.8h-2.6v-1.5h-5v1.5h-17.8v1.8h17.8v1.6Z"/>
    <path class="st12" d="M447.8,222.7h5v-1.6h16.9v-1.8h-16.9v-1.6h-5v1.6h-3.5v1.8h3.5v1.6Z"/>
    <path class="st12" d="M434.4,190.8v45.4h45.4v-45.4h-45.4ZM436.5,192.9h41.1v12h-41.1v-12ZM477.6,234.1h-41.1v-27h41.1v27Z"/>
    <path class="st12" d="M443.1,194.2l-3.3,4.3,3.3,4.3,1.7-1.3-2.3-3,2.3-3-1.7-1.3h0Z"/>
    <path class="st12" d="M449.9,195.6l2.3,3-2.3,3,1.7,1.3,3.3-4.3-3.3-4.3-1.7,1.3Z"/>
    <g>
      <g>
        <line class="st0" x1="667.8" y1="493.7" x2="726.7" y2="493.7"/>
        <polygon class="st11" points="724.5 501.1 737.4 493.7 724.5 486.3 724.5 501.1"/>
      </g>
      <g>
        <path class="st10" d="M553.6,493.9h-1.8v3.6h-1.6v-9.2h3.2c1.1,0,1.9.2,2.5.7.6.5.9,1.2.9,2.1s-.1,1.1-.4,1.6c-.3.4-.7.7-1.2,1l2.1,3.8h0c0,0-1.7,0-1.7,0l-1.9-3.6ZM551.8,492.6h1.7c.5,0,1-.1,1.3-.4.3-.3.5-.6.5-1.1s-.1-.9-.4-1.1-.7-.4-1.3-.4h-1.7v3.1Z"/>
        <path class="st10" d="M563.5,495.3h-3.6l-.8,2.2h-1.7l3.5-9.2h1.4l3.5,9.2h-1.7l-.8-2.2ZM560.3,494h2.7l-1.3-3.8-1.3,3.8Z"/>
        <path class="st10" d="M573.9,496.3c-.3.4-.8.8-1.4,1-.6.2-1.3.3-2,.3s-1.5-.2-2.1-.5c-.6-.4-1.1-.9-1.4-1.5-.3-.7-.5-1.4-.5-2.3v-.7c0-1.4.3-2.5,1-3.3s1.6-1.2,2.8-1.2,1.8.3,2.5.8c.6.5,1,1.2,1.1,2.2h-1.6c-.2-1.1-.8-1.7-1.9-1.7s-1.3.3-1.6.8c-.4.5-.6,1.3-.6,2.3v.7c0,1,.2,1.8.6,2.3s1,.8,1.8.8,1.4-.2,1.8-.6v-1.8h-1.9v-1.2h3.5v3.5Z"/>
        <path class="st10" d="M578.4,494c0-1.1.2-1.9.7-2.5.5-.6,1.1-1,2-1s1.3.3,1.8.8v-3.5h1.5v9.8h-1.4v-.7c-.5.6-1.2.8-1.9.8s-1.5-.3-2-1c-.5-.6-.7-1.5-.7-2.6ZM580,494.1c0,.7.1,1.2.4,1.6s.7.6,1.1.6,1.1-.3,1.4-.8v-2.9c-.3-.6-.7-.8-1.4-.8s-.9.2-1.2.6-.4,1-.4,1.8Z"/>
        <path class="st10" d="M590.2,497.5c0-.1-.1-.3-.2-.6-.5.5-1.1.8-1.8.8s-1.3-.2-1.7-.6c-.4-.4-.7-.9-.7-1.5s.3-1.3.8-1.7,1.3-.6,2.3-.6h.9v-.5c0-.4,0-.6-.3-.9s-.5-.3-.9-.3-.6,0-.9.3c-.2.2-.3.4-.3.7h-1.5c0-.4.1-.7.4-1.1s.6-.6,1-.8.9-.3,1.4-.3c.8,0,1.4.2,1.9.6s.7,1,.7,1.7v3.1c0,.6,0,1.1.3,1.5h0c0,.1-1.6.1-1.6.1ZM588.5,496.4c.3,0,.6,0,.9-.2s.5-.3.6-.6v-1.3h-.8c-.6,0-1,0-1.3.3-.3.2-.4.5-.4.8s0,.5.3.7c.2.2.5.3.8.3Z"/>
        <path class="st10" d="M595,488.9v1.7h1.2v1.1h-1.2v3.8c0,.3,0,.5.2.6s.3.2.6.2.4,0,.5,0v1.2c-.4,0-.7.1-1,.1-1.2,0-1.8-.7-1.8-2v-3.9h-1.1v-1.1h1.1v-1.7h1.5Z"/>
        <path class="st10" d="M601.5,497.5c0-.1-.1-.3-.2-.6-.5.5-1.1.8-1.8.8s-1.3-.2-1.7-.6c-.4-.4-.7-.9-.7-1.5s.3-1.3.8-1.7,1.3-.6,2.3-.6h.9v-.5c0-.4,0-.6-.3-.9s-.5-.3-.9-.3-.6,0-.9.3c-.2.2-.3.4-.3.7h-1.5c0-.4.1-.7.4-1.1s.6-.6,1-.8.9-.3,1.4-.3c.8,0,1.4.2,1.9.6s.7,1,.7,1.7v3.1c0,.6,0,1.1.3,1.5h0c0,.1-1.6.1-1.6.1ZM599.8,496.4c.3,0,.6,0,.9-.2s.5-.3.6-.6v-1.3h-.8c-.6,0-1,0-1.3.3-.3.2-.4.5-.4.8s0,.5.3.7c.2.2.5.3.8.3Z"/>
        <path class="st10" d="M607.7,488.8c0-.2,0-.4.2-.6s.4-.2.6-.2.5,0,.6.2.2.4.2.6,0,.4-.2.6-.4.2-.6.2-.5,0-.6-.2-.2-.3-.2-.6ZM609.3,497.5h-1.5v-6.9h1.5v6.9Z"/>
        <path class="st10" d="M612.4,490.6v.8c.6-.6,1.2-.9,2-.9,1.4,0,2.2.8,2.2,2.5v4.5h-1.5v-4.4c0-.4,0-.8-.3-1-.2-.2-.5-.3-.9-.3-.6,0-1.1.3-1.4.8v4.9h-1.5v-6.9h1.5Z"/>
        <path class="st10" d="M618,494c0-1.1.3-1.9.8-2.6.5-.6,1.2-1,2-1s1.4.3,1.8.8v-.7h1.5v6.7c0,.9-.3,1.6-.8,2.1-.6.5-1.3.8-2.3.8s-1-.1-1.5-.3c-.5-.2-.8-.5-1.1-.8l.7-.9c.5.6,1.1.8,1.8.8s.9-.1,1.2-.4c.3-.3.4-.7.4-1.2v-.5c-.4.5-1,.7-1.8.7s-1.5-.3-2-1c-.5-.6-.8-1.5-.8-2.7ZM619.5,494.1c0,.7.1,1.2.4,1.6s.7.6,1.2.6,1.1-.3,1.4-.8v-3c-.3-.5-.7-.8-1.4-.8s-.9.2-1.2.6-.4,1-.4,1.8Z"/>
        <path class="st10" d="M628.6,497.6c-1,0-1.8-.3-2.4-.9-.6-.6-.9-1.4-.9-2.5v-.2c0-.7.1-1.3.4-1.8.3-.5.6-1,1.1-1.3.5-.3,1-.5,1.6-.5.9,0,1.7.3,2.2.9.5.6.8,1.4.8,2.5v.6h-4.5c0,.6.2,1,.6,1.3s.8.5,1.3.5,1.3-.3,1.7-.9l.8.8c-.3.4-.6.7-1.1,1s-1,.3-1.5.3ZM628.5,491.7c-.4,0-.8.1-1,.4-.3.3-.4.7-.5,1.2h2.9c0-.6-.2-1-.4-1.3s-.6-.4-1-.4Z"/>
        <path class="st10" d="M636.4,495.6c0-.3-.1-.5-.3-.6-.2-.1-.6-.3-1.1-.4-.5-.1-1-.2-1.3-.4-.8-.4-1.2-.9-1.2-1.6s.2-1.1.7-1.5c.5-.4,1.1-.6,1.9-.6s1.5.2,2,.6.8.9.8,1.6h-1.5c0-.3-.1-.5-.3-.7-.2-.2-.5-.3-.9-.3s-.6,0-.8.2c-.2.2-.3.4-.3.6s0,.4.3.6c.2.1.6.3,1.2.4.6.1,1.1.3,1.4.5.3.2.6.4.8.7.2.3.3.6.3.9,0,.6-.3,1.1-.8,1.5-.5.4-1.2.6-2,.6s-1.1-.1-1.5-.3c-.4-.2-.8-.5-1-.8-.2-.4-.4-.7-.4-1.1h1.5c0,.4.2.6.4.8.3.2.6.3,1,.3s.7,0,.9-.2c.2-.2.3-.4.3-.6Z"/>
        <path class="st10" d="M641.2,488.9v1.7h1.2v1.1h-1.2v3.8c0,.3,0,.5.2.6s.3.2.6.2.4,0,.5,0v1.2c-.4,0-.7.1-1,.1-1.2,0-1.8-.7-1.8-2v-3.9h-1.1v-1.1h1.1v-1.7h1.5Z"/>
        <path class="st10" d="M643.6,488.8c0-.2,0-.4.2-.6s.4-.2.6-.2.5,0,.6.2.2.4.2.6,0,.4-.2.6-.4.2-.6.2-.5,0-.6-.2-.2-.3-.2-.6ZM645.3,497.5h-1.5v-6.9h1.5v6.9Z"/>
        <path class="st10" d="M646.7,494c0-.7.1-1.3.4-1.8.3-.5.6-1,1.1-1.2s1-.4,1.7-.4c.9,0,1.7.3,2.3.9.6.6.9,1.4.9,2.4v.4c0,.7-.1,1.3-.4,1.8-.3.5-.6.9-1.1,1.2-.5.3-1,.4-1.7.4-1,0-1.7-.3-2.3-1s-.9-1.5-.9-2.6h0ZM648.2,494.1c0,.7.1,1.3.4,1.7.3.4.7.6,1.2.6s.9-.2,1.2-.6.4-1,.4-1.8-.1-1.2-.4-1.7c-.3-.4-.7-.6-1.2-.6s-.9.2-1.2.6c-.3.4-.4,1-.4,1.8Z"/>
        <path class="st10" d="M655.8,490.6v.8c.6-.6,1.2-.9,2-.9,1.4,0,2.2.8,2.2,2.5v4.5h-1.5v-4.4c0-.4,0-.8-.3-1-.2-.2-.5-.3-.9-.3-.6,0-1.1.3-1.4.8v4.9h-1.5v-6.9h1.5Z"/>
      </g>
      <g>
        <line class="st6" x1="667.8" y1="519.8" x2="726.7" y2="519.8"/>
        <polygon class="st7" points="724.5 527.3 737.4 519.8 724.5 512.4 724.5 527.3"/>
      </g>
      <g>
        <path class="st10" d="M585.9,520.1h-1.8v3.6h-1.6v-9.2h3.2c1.1,0,1.9.2,2.5.7.6.5.9,1.2.9,2.1s-.1,1.1-.4,1.6c-.3.4-.7.7-1.2,1l2.1,3.8h0c0,0-1.7,0-1.7,0l-1.9-3.6ZM584.1,518.8h1.7c.5,0,1-.1,1.3-.4.3-.3.5-.6.5-1.1s-.1-.9-.4-1.1-.7-.4-1.3-.4h-1.7v3.1Z"/>
        <path class="st10" d="M595.8,521.5h-3.6l-.8,2.2h-1.7l3.5-9.2h1.4l3.5,9.2h-1.7l-.8-2.2ZM592.7,520.2h2.7l-1.3-3.8-1.3,3.8Z"/>
        <path class="st10" d="M606.2,522.4c-.3.4-.8.8-1.4,1-.6.2-1.3.3-2,.3s-1.5-.2-2.1-.5c-.6-.4-1.1-.9-1.4-1.5-.3-.7-.5-1.4-.5-2.3v-.7c0-1.4.3-2.5,1-3.3s1.6-1.2,2.8-1.2,1.8.3,2.5.8c.6.5,1,1.2,1.1,2.2h-1.6c-.2-1.1-.8-1.7-1.9-1.7s-1.3.3-1.6.8c-.4.5-.6,1.3-.6,2.3v.7c0,1,.2,1.8.6,2.3s1,.8,1.8.8,1.4-.2,1.8-.6v-1.8h-1.9v-1.2h3.5v3.5Z"/>
        <path class="st10" d="M610.8,520.1c0-1.1.2-1.9.7-2.6.5-.6,1.2-.9,2-.9s1.4.3,1.8.8v-.7h1.5v9.5h-1.5v-3.2c-.4.5-1,.7-1.8.7s-1.5-.3-2-1c-.5-.6-.7-1.5-.7-2.7ZM612.3,520.3c0,.7.1,1.3.4,1.7.3.4.7.6,1.2.6s1.1-.3,1.4-.8v-3.1c-.3-.5-.7-.8-1.3-.8s-.9.2-1.2.6-.4,1-.4,1.8Z"/>
        <path class="st10" d="M622.6,523c-.5.5-1.1.8-1.9.8s-1.3-.2-1.7-.7c-.4-.4-.6-1.1-.6-1.9v-4.5h1.5v4.4c0,.9.4,1.3,1.1,1.3s1.3-.3,1.5-.8v-4.9h1.5v6.9h-1.5v-.7Z"/>
        <path class="st10" d="M628.7,523.8c-1,0-1.8-.3-2.4-.9-.6-.6-.9-1.4-.9-2.5v-.2c0-.7.1-1.3.4-1.8.3-.5.6-1,1.1-1.3.5-.3,1-.5,1.6-.5.9,0,1.7.3,2.2.9.5.6.8,1.4.8,2.5v.6h-4.5c0,.6.2,1,.6,1.3s.8.5,1.3.5,1.3-.3,1.7-.9l.8.8c-.3.4-.6.7-1.1,1s-1,.3-1.5.3ZM628.5,517.9c-.4,0-.8.1-1,.4-.3.3-.4.7-.5,1.2h2.9c0-.6-.2-1-.4-1.3s-.6-.4-1-.4Z"/>
        <path class="st10" d="M636.2,518.2c-.2,0-.4,0-.6,0-.7,0-1.2.3-1.4.8v4.7h-1.5v-6.9h1.5v.8c.4-.6.9-.9,1.6-.9s.4,0,.5,0v1.4Z"/>
        <path class="st10" d="M639.7,521.4l1.4-4.7h1.6l-2.7,7.9c-.4,1.2-1.1,1.7-2.1,1.7s-.5,0-.7-.1v-1.2h.3c.4,0,.7,0,.9-.2.2-.1.4-.4.5-.7l.2-.6-2.4-6.8h1.7l1.5,4.7Z"/>
        <path class="st10" d="M643.7,515c0-.2,0-.4.2-.6s.4-.2.6-.2.5,0,.6.2.2.4.2.6,0,.4-.2.6-.4.2-.6.2-.5,0-.6-.2-.2-.3-.2-.6ZM645.3,523.6h-1.5v-6.9h1.5v6.9Z"/>
        <path class="st10" d="M648.4,516.8v.8c.6-.6,1.2-.9,2-.9,1.4,0,2.2.8,2.2,2.5v4.5h-1.5v-4.4c0-.4,0-.8-.3-1-.2-.2-.5-.3-.9-.3-.6,0-1.1.3-1.4.8v4.9h-1.5v-6.9h1.5Z"/>
        <path class="st10" d="M653.9,520.1c0-1.1.3-1.9.8-2.6.5-.6,1.2-1,2-1s1.4.3,1.8.8v-.7h1.5v6.7c0,.9-.3,1.6-.8,2.1-.6.5-1.3.8-2.3.8s-1-.1-1.5-.3c-.5-.2-.8-.5-1.1-.8l.7-.9c.5.6,1.1.8,1.8.8s.9-.1,1.2-.4c.3-.3.4-.7.4-1.2v-.5c-.4.5-1,.7-1.8.7s-1.5-.3-2-1c-.5-.6-.8-1.5-.8-2.7ZM655.5,520.3c0,.7.1,1.2.4,1.6s.7.6,1.2.6,1.1-.3,1.4-.8v-3c-.3-.5-.7-.8-1.4-.8s-.9.2-1.2.6-.4,1-.4,1.8Z"/>
      </g>
    </g>
    <g>
      <g>
        <path class="st10" d="M190.6,110.3h4.8v1.5h-6.7v-10.7h1.9v9.2Z"/>
        <path class="st10" d="M200,107.2l-1.2,1.3v3.3h-1.9v-10.7h1.9v5l1-1.3,3.1-3.7h2.2l-4,4.7,4.2,5.9h-2.2l-3.2-4.6Z"/>
        <path class="st10" d="M212.6,107.1h-4.4v3.3h5.1v1.5h-7v-10.7h6.9v1.5h-5.1v2.9h4.4v1.5Z"/>
        <path class="st10" d="M226.7,108.3c-.1,1.1-.5,2-1.3,2.7-.7.6-1.7,1-2.9,1s-1.6-.2-2.2-.6c-.6-.4-1.1-1-1.5-1.7-.4-.7-.5-1.6-.5-2.6v-1c0-1,.2-1.9.5-2.7.4-.8.9-1.4,1.5-1.8.7-.4,1.4-.6,2.3-.6s2.1.3,2.8,1c.7.6,1.1,1.5,1.3,2.7h-1.8c0-.8-.3-1.3-.7-1.7-.4-.3-.9-.5-1.6-.5s-1.4.3-1.9.9c-.4.6-.7,1.5-.7,2.6v.9c0,1.2.2,2,.6,2.6.4.6,1,.9,1.8.9s1.3-.2,1.6-.5.6-.9.7-1.6h1.8Z"/>
        <path class="st10" d="M230.1,111.8h-1.8v-11.2h1.8v11.2Z"/>
        <path class="st10" d="M236.8,111c-.5.6-1.3.9-2.2.9s-1.5-.3-2-.8c-.4-.5-.7-1.2-.7-2.2v-5.1h1.8v5.1c0,1,.4,1.5,1.3,1.5s1.4-.3,1.8-.9v-5.7h1.8v7.9h-1.7v-.8Z"/>
        <path class="st10" d="M244.8,109.7c0-.3-.1-.6-.4-.7-.3-.2-.7-.3-1.3-.4-.6-.1-1.1-.3-1.5-.5-.9-.4-1.3-1.1-1.3-1.9s.3-1.3.9-1.7c.6-.5,1.3-.7,2.2-.7s1.7.2,2.3.7c.6.5.9,1.1.9,1.8h-1.8c0-.3-.1-.6-.4-.9-.3-.2-.6-.3-1-.3s-.7,0-1,.3c-.2.2-.4.4-.4.7s.1.5.3.6c.2.2.7.3,1.4.5.7.2,1.2.3,1.6.5.4.2.7.5.9.8.2.3.3.7.3,1.1,0,.7-.3,1.3-.9,1.7-.6.4-1.4.7-2.3.7s-1.2-.1-1.7-.4-.9-.6-1.2-1c-.3-.4-.4-.9-.4-1.3h1.7c0,.4.2.7.5,1,.3.2.7.3,1.2.3s.8,0,1.1-.3c.2-.2.4-.4.4-.7Z"/>
        <path class="st10" d="M250.3,102v1.9h1.4v1.3h-1.4v4.4c0,.3,0,.5.2.7.1.1.3.2.6.2s.4,0,.6,0v1.4c-.4.1-.8.2-1.2.2-1.4,0-2.1-.8-2.1-2.3v-4.5h-1.3v-1.3h1.3v-1.9h1.8Z"/>
        <path class="st10" d="M256.6,112c-1.1,0-2-.4-2.7-1.1-.7-.7-1.1-1.7-1.1-2.8v-.2c0-.8.2-1.5.5-2.1.3-.6.7-1.1,1.3-1.5.6-.3,1.2-.5,1.8-.5,1.1,0,1.9.3,2.5,1,.6.7.9,1.7.9,2.9v.7h-5.2c0,.7.3,1.2.7,1.6.4.4.9.6,1.4.6s1.5-.3,2-1l1,.9c-.3.5-.7.8-1.3,1.1-.5.3-1.1.4-1.8.4ZM256.4,105.2c-.5,0-.9.2-1.2.5-.3.3-.5.8-.6,1.4h3.4c0-.7-.2-1.2-.5-1.5-.3-.3-.7-.5-1.2-.5Z"/>
        <path class="st10" d="M265.3,105.5c-.2,0-.5,0-.7,0-.8,0-1.4.3-1.6.9v5.4h-1.8v-7.9h1.7v.9c.5-.7,1.1-1,1.8-1s.5,0,.6.1v1.7Z"/>
        <path class="st10" d="M274.3,106h2.8v1.6h-2.8v3.2h-1.7v-3.2h-2.8v-1.6h2.8v-3h1.7v3Z"/>
        <path class="st10" d="M288.4,109.3h-4.1l-.9,2.5h-1.9l4-10.7h1.7l4,10.7h-1.9l-.9-2.5ZM284.8,107.8h3.1l-1.5-4.4-1.5,4.4Z"/>
        <path class="st10" d="M294.8,108.4l-.8.8v2.6h-1.8v-11.2h1.8v6.5l.6-.7,2.2-2.5h2.1l-2.9,3.3,3.3,4.6h-2.1l-2.4-3.4Z"/>
        <path class="st10" d="M304.8,111.8c0-.2-.1-.4-.2-.7-.6.6-1.3.9-2.1.9s-1.4-.2-1.9-.7c-.5-.5-.8-1-.8-1.7s.3-1.5.9-1.9c.6-.5,1.5-.7,2.7-.7h1.1v-.5c0-.4-.1-.7-.3-1-.2-.2-.6-.4-1-.4s-.7.1-1,.3c-.3.2-.4.5-.4.8h-1.8c0-.4.1-.8.4-1.2.3-.4.7-.7,1.2-.9.5-.2,1-.3,1.7-.3.9,0,1.7.2,2.2.7.6.5.8,1.1.8,2v3.6c0,.7,0,1.3.3,1.7h0c0,.1-1.8.1-1.8.1ZM302.8,110.5c.4,0,.7,0,1-.3.3-.2.5-.4.7-.7v-1.5h-1c-.7,0-1.2.1-1.5.3-.3.2-.5.6-.5,1s.1.6.3.8c.2.2.5.3.9.3Z"/>
        <path class="st10" d="M309.8,103.9v.8c.6-.6,1.4-1,2.3-1s1.8.4,2.2,1.2c.6-.8,1.4-1.2,2.4-1.2s1.5.2,2,.7c.4.5.6,1.2.7,2.1v5.2h-1.8v-5.2c0-.5-.1-.9-.3-1.1-.2-.2-.6-.4-1.1-.4s-.7.1-1,.3c-.3.2-.4.5-.5.9v5.4s-1.8,0-1.8,0v-5.2c0-.9-.5-1.4-1.4-1.4s-1.2.3-1.5.9v5.7h-1.8v-7.9h1.7Z"/>
        <path class="st10" d="M325.9,111.8c0-.2-.1-.4-.2-.7-.6.6-1.3.9-2.1.9s-1.4-.2-1.9-.7c-.5-.5-.8-1-.8-1.7s.3-1.5.9-1.9c.6-.5,1.5-.7,2.7-.7h1.1v-.5c0-.4-.1-.7-.3-1-.2-.2-.6-.4-1-.4s-.7.1-1,.3c-.3.2-.4.5-.4.8h-1.8c0-.4.1-.8.4-1.2.3-.4.7-.7,1.2-.9.5-.2,1-.3,1.7-.3.9,0,1.7.2,2.2.7.6.5.8,1.1.8,2v3.6c0,.7,0,1.3.3,1.7h0c0,.1-1.8.1-1.8.1ZM324,110.5c.4,0,.7,0,1-.3.3-.2.5-.4.7-.7v-1.5h-1c-.7,0-1.2.1-1.5.3-.3.2-.5.6-.5,1s.1.6.3.8c.2.2.5.3.9.3Z"/>
        <path class="st10" d="M329.3,101.8c0-.3,0-.5.3-.7.2-.2.4-.3.7-.3s.6,0,.7.3.3.4.3.7,0,.5-.3.7c-.2.2-.4.3-.7.3s-.6,0-.7-.3c-.2-.2-.3-.4-.3-.7ZM331.2,111.8h-1.8v-7.9h1.8v7.9Z"/>
        <path class="st10" d="M343,109.3h-4.1l-.9,2.5h-1.9l4-10.7h1.7l4,10.7h-1.9l-.9-2.5ZM339.4,107.8h3.1l-1.5-4.4-1.5,4.4Z"/>
        <path class="st10" d="M353.5,107.9c0,1.2-.3,2.2-.8,2.9-.6.7-1.3,1.1-2.2,1.1s-1.6-.3-2.1-.9v3.8h-1.8v-11h1.6v.8c.6-.6,1.3-1,2.2-1s1.7.4,2.3,1.1c.5.7.8,1.7.8,3h0ZM351.7,107.8c0-.8-.2-1.4-.5-1.9-.3-.5-.8-.7-1.4-.7s-1.3.3-1.6.9v3.5c.3.6.8.9,1.6.9s1-.2,1.3-.7c.3-.5.5-1.1.5-2.1Z"/>
        <path class="st10" d="M361.9,107.9c0,1.2-.3,2.2-.8,2.9-.6.7-1.3,1.1-2.2,1.1s-1.6-.3-2.1-.9v3.8h-1.8v-11h1.6v.8c.6-.6,1.3-1,2.2-1s1.7.4,2.3,1.1c.5.7.8,1.7.8,3h0ZM360.1,107.8c0-.8-.2-1.4-.5-1.9-.3-.5-.8-.7-1.4-.7s-1.3.3-1.6.9v3.5c.3.6.8.9,1.6.9s1-.2,1.3-.7c.3-.5.5-1.1.5-2.1Z"/>
        <path class="st10" d="M369.2,107.9v4h-1.9v-10.7h4.1c1.2,0,2.1.3,2.8.9.7.6,1.1,1.4,1.1,2.5s-.3,1.9-1,2.4c-.7.6-1.6.9-2.9.9h-2.2ZM369.2,106.4h2.2c.7,0,1.2-.2,1.5-.5.3-.3.5-.8.5-1.3s-.2-1-.5-1.4c-.4-.3-.8-.5-1.5-.5h-2.3v3.7Z"/>
        <path class="st10" d="M378.6,111.8h-1.8v-11.2h1.8v11.2Z"/>
        <path class="st10" d="M385.3,111.8c0-.2-.1-.4-.2-.7-.6.6-1.3.9-2.1.9s-1.4-.2-1.9-.7c-.5-.5-.8-1-.8-1.7s.3-1.5.9-1.9c.6-.5,1.5-.7,2.7-.7h1.1v-.5c0-.4-.1-.7-.3-1-.2-.2-.6-.4-1-.4s-.7.1-1,.3c-.3.2-.4.5-.4.8h-1.8c0-.4.1-.8.4-1.2.3-.4.7-.7,1.2-.9.5-.2,1-.3,1.7-.3.9,0,1.7.2,2.2.7.6.5.8,1.1.8,2v3.6c0,.7,0,1.3.3,1.7h0c0,.1-1.8.1-1.8.1ZM383.3,110.5c.4,0,.7,0,1-.3.3-.2.5-.4.7-.7v-1.5h-1c-.7,0-1.2.1-1.5.3-.3.2-.5.6-.5,1s.1.6.3.8c.2.2.5.3.9.3Z"/>
        <path class="st10" d="M390.9,102v1.9h1.4v1.3h-1.4v4.4c0,.3,0,.5.2.7.1.1.3.2.6.2s.4,0,.6,0v1.4c-.4.1-.8.2-1.2.2-1.4,0-2.1-.8-2.1-2.3v-4.5h-1.3v-1.3h1.3v-1.9h1.8Z"/>
        <path class="st10" d="M394.3,111.8v-6.6h-1.2v-1.3h1.2v-.7c0-.9.2-1.6.7-2s1.2-.7,2.1-.7.6,0,1,.1v1.4c-.2,0-.5,0-.7,0-.8,0-1.3.4-1.3,1.3v.7h1.6v1.3h-1.6v6.6h-1.8Z"/>
        <path class="st10" d="M398.7,107.8c0-.8.2-1.5.5-2.1.3-.6.7-1.1,1.3-1.4.6-.3,1.2-.5,1.9-.5,1.1,0,1.9.3,2.6,1,.7.7,1,1.6,1.1,2.7v.4c0,.8-.1,1.5-.4,2.1-.3.6-.7,1.1-1.3,1.4-.6.3-1.2.5-1.9.5-1.1,0-2-.4-2.7-1.1-.7-.7-1-1.7-1-3h0ZM400.4,107.9c0,.8.2,1.5.5,1.9.3.5.8.7,1.4.7s1.1-.2,1.4-.7c.3-.5.5-1.2.5-2.1s-.2-1.4-.5-1.9c-.3-.5-.8-.7-1.4-.7s-1,.2-1.4.7c-.3.5-.5,1.2-.5,2.1Z"/>
        <path class="st10" d="M411.7,105.5c-.2,0-.5,0-.7,0-.8,0-1.4.3-1.6.9v5.4h-1.8v-7.9h1.7v.9c.5-.7,1.1-1,1.8-1s.5,0,.6.1v1.7Z"/>
        <path class="st10" d="M414.5,103.9v.8c.6-.6,1.4-1,2.3-1s1.8.4,2.2,1.2c.6-.8,1.4-1.2,2.4-1.2s1.5.2,2,.7c.4.5.6,1.2.7,2.1v5.2h-1.8v-5.2c0-.5-.1-.9-.3-1.1-.2-.2-.6-.4-1.1-.4s-.7.1-1,.3c-.3.2-.4.5-.5.9v5.4s-1.8,0-1.8,0v-5.2c0-.9-.5-1.4-1.4-1.4s-1.2.3-1.5.9v5.7h-1.8v-7.9h1.7Z"/>
        <path class="st10" d="M194.5,125.3l1.1-4.7h1.5l-1.9,6.9h-1.3l-1.5-4.7-1.4,4.7h-1.3l-1.9-6.9h1.5l1.1,4.7,1.4-4.7h1.2l1.4,4.7Z"/>
        <path class="st10" d="M198.2,118.8c0-.2,0-.4.2-.6s.4-.2.6-.2.5,0,.6.2.2.4.2.6,0,.4-.2.6-.4.2-.6.2-.5,0-.6-.2-.2-.3-.2-.6ZM199.8,127.4h-1.5v-6.9h1.5v6.9Z"/>
        <path class="st10" d="M203.4,118.9v1.7h1.2v1.1h-1.2v3.8c0,.3,0,.5.2.6s.3.2.6.2.4,0,.5,0v1.2c-.4,0-.7.1-1,.1-1.2,0-1.8-.7-1.8-2v-3.9h-1.1v-1.1h1.1v-1.7h1.5Z"/>
        <path class="st10" d="M207.3,121.3c.5-.6,1.1-.9,1.9-.9,1.5,0,2.2.8,2.2,2.5v4.5h-1.5v-4.4c0-.5-.1-.8-.3-1-.2-.2-.5-.3-.9-.3-.6,0-1.1.3-1.4.8v4.9h-1.5v-9.8h1.5v3.6Z"/>
        <path class="st10" d="M222.3,125.3l1.1-4.7h1.5l-1.9,6.9h-1.3l-1.5-4.7-1.4,4.7h-1.3l-1.9-6.9h1.5l1.1,4.7,1.4-4.7h1.2l1.4,4.7Z"/>
        <path class="st10" d="M225.6,123.9c0-.7.1-1.3.4-1.8.3-.5.6-1,1.1-1.2s1-.4,1.7-.4c.9,0,1.7.3,2.3.9.6.6.9,1.4.9,2.4v.4c0,.7-.1,1.3-.4,1.8-.3.5-.6.9-1.1,1.2-.5.3-1,.4-1.7.4-1,0-1.7-.3-2.3-1s-.9-1.5-.9-2.6h0ZM227.2,124.1c0,.7.1,1.3.4,1.7.3.4.7.6,1.2.6s.9-.2,1.2-.6.4-1,.4-1.8-.1-1.2-.4-1.7c-.3-.4-.7-.6-1.2-.6s-.9.2-1.2.6c-.3.4-.4,1-.4,1.8Z"/>
        <path class="st10" d="M236.9,122c-.2,0-.4,0-.6,0-.7,0-1.2.3-1.4.8v4.7h-1.5v-6.9h1.5v.8c.4-.6.9-.9,1.6-.9s.4,0,.5,0v1.4Z"/>
        <path class="st10" d="M240.1,124.5l-.7.7v2.2h-1.5v-9.8h1.5v5.6l.5-.6,1.9-2.1h1.9l-2.6,2.9,2.8,4h-1.8l-2-2.9Z"/>
        <path class="st10" d="M247.6,127.5c-1,0-1.8-.3-2.4-.9-.6-.6-.9-1.4-.9-2.5v-.2c0-.7.1-1.3.4-1.8.3-.5.6-1,1.1-1.3.5-.3,1-.5,1.6-.5.9,0,1.7.3,2.2.9.5.6.8,1.4.8,2.5v.6h-4.5c0,.6.2,1,.6,1.3s.8.5,1.3.5,1.3-.3,1.7-.9l.8.8c-.3.4-.6.7-1.1,1s-1,.3-1.5.3ZM247.4,121.7c-.4,0-.8.1-1,.4-.3.3-.4.7-.5,1.2h2.9c0-.6-.2-1-.4-1.3s-.6-.4-1-.4Z"/>
        <path class="st10" d="M255.1,122c-.2,0-.4,0-.6,0-.7,0-1.2.3-1.4.8v4.7h-1.5v-6.9h1.5v.8c.4-.6.9-.9,1.6-.9s.4,0,.5,0v1.4Z"/>
        <path class="st10" d="M260.8,120.6v.8c.6-.6,1.2-.9,2-.9,1.4,0,2.2.8,2.2,2.5v4.5h-1.5v-4.4c0-.4,0-.8-.3-1-.2-.2-.5-.3-.9-.3-.6,0-1.1.3-1.4.8v4.9h-1.5v-6.9h1.5Z"/>
        <path class="st10" d="M266.3,123.9c0-.7.1-1.3.4-1.8.3-.5.6-1,1.1-1.2s1-.4,1.7-.4c.9,0,1.7.3,2.3.9.6.6.9,1.4.9,2.4v.4c0,.7-.1,1.3-.4,1.8-.3.5-.6.9-1.1,1.2-.5.3-1,.4-1.7.4-1,0-1.7-.3-2.3-1s-.9-1.5-.9-2.6h0ZM267.8,124.1c0,.7.1,1.3.4,1.7.3.4.7.6,1.2.6s.9-.2,1.2-.6.4-1,.4-1.8-.1-1.2-.4-1.7c-.3-.4-.7-.6-1.2-.6s-.9.2-1.2.6c-.3.4-.4,1-.4,1.8Z"/>
        <path class="st10" d="M273.7,123.9c0-1.1.2-1.9.7-2.5.5-.6,1.1-1,2-1s1.3.3,1.8.8v-3.5h1.5v9.8h-1.4v-.7c-.5.6-1.2.8-1.9.8s-1.5-.3-2-1c-.5-.6-.7-1.5-.7-2.6ZM275.2,124.1c0,.7.1,1.2.4,1.6s.7.6,1.1.6,1.1-.3,1.4-.8v-2.9c-.3-.6-.7-.8-1.4-.8s-.9.2-1.2.6-.4,1-.4,1.8Z"/>
        <path class="st10" d="M284.3,127.5c-1,0-1.8-.3-2.4-.9-.6-.6-.9-1.4-.9-2.5v-.2c0-.7.1-1.3.4-1.8.3-.5.6-1,1.1-1.3.5-.3,1-.5,1.6-.5.9,0,1.7.3,2.2.9.5.6.8,1.4.8,2.5v.6h-4.5c0,.6.2,1,.6,1.3s.8.5,1.3.5,1.3-.3,1.7-.9l.8.8c-.3.4-.6.7-1.1,1s-1,.3-1.5.3ZM284.1,121.7c-.4,0-.8.1-1,.4-.3.3-.4.7-.5,1.2h2.9c0-.6-.2-1-.4-1.3s-.6-.4-1-.4Z"/>
        <path class="st10" d="M292.1,125.6c0-.3-.1-.5-.3-.6-.2-.1-.6-.3-1.1-.4-.5-.1-1-.2-1.3-.4-.8-.4-1.2-.9-1.2-1.6s.2-1.1.7-1.5c.5-.4,1.1-.6,1.9-.6s1.5.2,2,.6.8.9.8,1.6h-1.5c0-.3-.1-.5-.3-.7-.2-.2-.5-.3-.9-.3s-.6,0-.8.2c-.2.2-.3.4-.3.6s0,.4.3.6c.2.1.6.3,1.2.4.6.1,1.1.3,1.4.5.3.2.6.4.8.7.2.3.3.6.3.9,0,.6-.3,1.1-.8,1.5-.5.4-1.2.6-2,.6s-1.1-.1-1.5-.3c-.4-.2-.8-.5-1-.8-.2-.4-.4-.7-.4-1.1h1.5c0,.4.2.6.4.8.3.2.6.3,1,.3s.7,0,.9-.2c.2-.2.3-.4.3-.6Z"/>
        <path class="st10" d="M302.4,126.7c-.5.5-1.1.8-1.9.8s-1.3-.2-1.7-.7c-.4-.4-.6-1.1-.6-1.9v-4.5h1.5v4.4c0,.9.4,1.3,1.1,1.3s1.3-.3,1.5-.8v-4.9h1.5v6.9h-1.5v-.7Z"/>
        <path class="st10" d="M309.3,125.6c0-.3-.1-.5-.3-.6-.2-.1-.6-.3-1.1-.4-.5-.1-1-.2-1.3-.4-.8-.4-1.2-.9-1.2-1.6s.2-1.1.7-1.5c.5-.4,1.1-.6,1.9-.6s1.5.2,2,.6.8.9.8,1.6h-1.5c0-.3-.1-.5-.3-.7-.2-.2-.5-.3-.9-.3s-.6,0-.8.2c-.2.2-.3.4-.3.6s0,.4.3.6c.2.1.6.3,1.2.4.6.1,1.1.3,1.4.5.3.2.6.4.8.7.2.3.3.6.3.9,0,.6-.3,1.1-.8,1.5-.5.4-1.2.6-2,.6s-1.1-.1-1.5-.3c-.4-.2-.8-.5-1-.8-.2-.4-.4-.7-.4-1.1h1.5c0,.4.2.6.4.8.3.2.6.3,1,.3s.7,0,.9-.2c.2-.2.3-.4.3-.6Z"/>
        <path class="st10" d="M312.1,118.8c0-.2,0-.4.2-.6s.4-.2.6-.2.5,0,.6.2.2.4.2.6,0,.4-.2.6-.4.2-.6.2-.5,0-.6-.2-.2-.3-.2-.6ZM313.8,127.4h-1.5v-6.9h1.5v6.9Z"/>
        <path class="st10" d="M316.9,120.6v.8c.6-.6,1.2-.9,2-.9,1.4,0,2.2.8,2.2,2.5v4.5h-1.5v-4.4c0-.4,0-.8-.3-1-.2-.2-.5-.3-.9-.3-.6,0-1.1.3-1.4.8v4.9h-1.5v-6.9h1.5Z"/>
        <path class="st10" d="M322.4,123.9c0-1.1.3-1.9.8-2.6.5-.6,1.2-1,2-1s1.4.3,1.8.8v-.7h1.5v6.7c0,.9-.3,1.6-.8,2.1-.6.5-1.3.8-2.3.8s-1-.1-1.5-.3c-.5-.2-.8-.5-1.1-.8l.7-.9c.5.6,1.1.8,1.8.8s.9-.1,1.2-.4c.3-.3.4-.7.4-1.2v-.5c-.4.5-1,.7-1.8.7s-1.5-.3-2-1c-.5-.6-.8-1.5-.8-2.7ZM324,124.1c0,.7.1,1.2.4,1.6s.7.6,1.2.6,1.1-.3,1.4-.8v-3c-.3-.5-.7-.8-1.4-.8s-.9.2-1.2.6-.4,1-.4,1.8Z"/>
        <path class="st10" d="M340.8,127.4h-1.6l-4.1-6.6v6.6h-1.6v-9.2h1.6l4.1,6.6v-6.6h1.6v9.2Z"/>
        <path class="st10" d="M345.9,125.4l2.3-7.2h1.8l-3.3,9.2h-1.6l-3.3-9.2h1.8l2.3,7.2Z"/>
        <path class="st10" d="M352.8,127.4h-1.6v-9.2h1.6v9.2Z"/>
        <path class="st10" d="M354.8,127.4v-9.2h2.7c.8,0,1.5.2,2.2.5s1.1.9,1.5,1.5.5,1.4.5,2.3v.5c0,.9-.2,1.6-.5,2.3-.3.7-.8,1.2-1.5,1.5-.6.4-1.4.5-2.2.5h-2.7ZM356.4,119.5v6.7h1c.8,0,1.5-.3,1.9-.8.5-.5.7-1.3.7-2.3v-.5c0-1-.2-1.8-.7-2.3-.4-.5-1.1-.8-1.9-.8h-1.1Z"/>
        <path class="st10" d="M365,127.4h-1.6v-9.2h1.6v9.2Z"/>
        <path class="st10" d="M372.2,125.3h-3.6l-.8,2.2h-1.7l3.5-9.2h1.4l3.5,9.2h-1.7l-.8-2.2ZM369.1,124h2.7l-1.3-3.8-1.3,3.8Z"/>
        <path class="st10" d="M382.3,123.9h-1.8v3.6h-1.6v-9.2h3.2c1.1,0,1.9.2,2.5.7.6.5.9,1.2.9,2.1s-.1,1.1-.4,1.6c-.3.4-.7.7-1.2,1l2.1,3.8h0c0,0-1.7,0-1.7,0l-1.9-3.6ZM380.5,122.6h1.7c.5,0,1-.1,1.3-.4.3-.3.5-.6.5-1.1s-.1-.9-.4-1.1-.7-.4-1.3-.4h-1.7v3.1Z"/>
        <path class="st10" d="M393.4,119.5h-2.9v7.9h-1.6v-7.9h-2.9v-1.3h7.3v1.3Z"/>
        <path class="st10" d="M397.8,121.5l1.9-3.3h1.9l-2.8,4.6,2.9,4.7h-1.9l-2-3.4-2,3.4h-1.9l2.9-4.7-2.8-4.6h1.9l1.9,3.3Z"/>
        <path class="st10" d="M411,124.1h1.1v1.2h-1.1v2.1h-1.5v-2.1h-4v-.9s3.9-6.2,3.9-6.2h1.6v5.9ZM407.1,124.1h2.4v-3.9.2c-.1,0-2.4,3.7-2.4,3.7Z"/>
        <path class="st10" d="M419.2,123.5c0,1.3-.2,2.3-.7,3s-1.3,1-2.3,1-1.8-.3-2.3-1-.8-1.6-.8-2.9v-1.6c0-1.3.2-2.3.7-3,.5-.7,1.3-1,2.3-1s1.8.3,2.3,1c.5.6.8,1.6.8,2.9v1.6ZM417.7,121.8c0-.9-.1-1.5-.4-1.9-.2-.4-.6-.6-1.1-.6s-.9.2-1.1.6-.4,1-.4,1.8v2.1c0,.9.1,1.5.4,1.9s.6.6,1.1.6.9-.2,1.1-.6.4-1,.4-1.8v-2.1Z"/>
        <path class="st10" d="M426.6,123.5c0,1.3-.2,2.3-.7,3s-1.3,1-2.3,1-1.8-.3-2.3-1-.8-1.6-.8-2.9v-1.6c0-1.3.2-2.3.7-3,.5-.7,1.3-1,2.3-1s1.8.3,2.3,1c.5.6.8,1.6.8,2.9v1.6ZM425.1,121.8c0-.9-.1-1.5-.4-1.9-.2-.4-.6-.6-1.1-.6s-.9.2-1.1.6-.4,1-.4,1.8v2.1c0,.9.1,1.5.4,1.9s.6.6,1.1.6.9-.2,1.1-.6.4-1,.4-1.8v-2.1Z"/>
        <path class="st10" d="M434,123.5c0,1.3-.2,2.3-.7,3s-1.3,1-2.3,1-1.8-.3-2.3-1-.8-1.6-.8-2.9v-1.6c0-1.3.2-2.3.7-3,.5-.7,1.3-1,2.3-1s1.8.3,2.3,1c.5.6.8,1.6.8,2.9v1.6ZM432.5,121.8c0-.9-.1-1.5-.4-1.9-.2-.4-.6-.6-1.1-.6s-.9.2-1.1.6-.4,1-.4,1.8v2.1c0,.9.1,1.5.4,1.9s.6.6,1.1.6.9-.2,1.1-.6.4-1,.4-1.8v-2.1Z"/>
        <path class="st10" d="M444,125.3h-3.6l-.8,2.2h-1.7l3.5-9.2h1.4l3.5,9.2h-1.7l-.8-2.2ZM440.9,124h2.7l-1.3-3.8-1.3,3.8Z"/>
        <path class="st10" d="M447.1,123.9c0-1.1.2-1.9.7-2.5.5-.6,1.1-1,2-1s1.3.3,1.8.8v-3.5h1.5v9.8h-1.4v-.7c-.5.6-1.2.8-1.9.8s-1.5-.3-2-1c-.5-.6-.7-1.5-.7-2.6ZM448.6,124.1c0,.7.1,1.2.4,1.6s.7.6,1.1.6,1.1-.3,1.4-.8v-2.9c-.3-.6-.7-.8-1.4-.8s-.9.2-1.2.6-.4,1-.4,1.8Z"/>
        <path class="st10" d="M458.8,127.4c0-.1-.1-.3-.2-.6-.5.5-1.1.8-1.8.8s-1.3-.2-1.7-.6c-.4-.4-.7-.9-.7-1.5s.3-1.3.8-1.7,1.3-.6,2.3-.6h.9v-.5c0-.4,0-.6-.3-.9s-.5-.3-.9-.3-.6,0-.9.3c-.2.2-.3.4-.3.7h-1.5c0-.4.1-.7.4-1.1s.6-.6,1-.8.9-.3,1.4-.3c.8,0,1.4.2,1.9.6s.7,1,.7,1.7v3.1c0,.6,0,1.1.3,1.5h0c0,.1-1.6.1-1.6.1ZM457.1,126.3c.3,0,.6,0,.9-.2s.5-.3.6-.6v-1.3h-.8c-.6,0-1,0-1.3.3-.3.2-.4.5-.4.8s0,.5.3.7c.2.2.5.3.8.3Z"/>
        <path class="st10" d="M472.2,126.2c-.3.4-.8.8-1.4,1-.6.2-1.3.3-2,.3s-1.5-.2-2.1-.5c-.6-.4-1.1-.9-1.4-1.5-.3-.7-.5-1.4-.5-2.3v-.7c0-1.4.3-2.5,1-3.3s1.6-1.2,2.8-1.2,1.8.3,2.5.8c.6.5,1,1.2,1.1,2.2h-1.6c-.2-1.1-.8-1.7-1.9-1.7s-1.3.3-1.6.8c-.4.5-.6,1.3-.6,2.3v.7c0,1,.2,1.8.6,2.3s1,.8,1.8.8,1.4-.2,1.8-.6v-1.8h-1.9v-1.2h3.5v3.5Z"/>
        <path class="st10" d="M475.6,124v3.4h-1.6v-9.2h3.5c1,0,1.9.3,2.5.8.6.5.9,1.2.9,2.1s-.3,1.6-.9,2.1c-.6.5-1.4.8-2.5.8h-1.9ZM475.6,122.7h1.9c.6,0,1-.1,1.3-.4.3-.3.5-.7.5-1.2s-.2-.9-.5-1.2c-.3-.3-.7-.5-1.3-.5h-2v3.2Z"/>
        <path class="st10" d="M489,118.2v6.2c0,1-.3,1.8-.9,2.3-.6.6-1.5.9-2.5.9s-1.9-.3-2.5-.8c-.6-.6-.9-1.3-.9-2.4v-6.2h1.6v6.2c0,.6.2,1.1.5,1.4.3.3.8.5,1.4.5,1.2,0,1.9-.7,1.9-2v-6.1h1.6Z"/>
        <path class="st10" d="M494.5,125.6c0-.3-.1-.5-.3-.6-.2-.1-.6-.3-1.1-.4-.5-.1-1-.2-1.3-.4-.8-.4-1.2-.9-1.2-1.6s.2-1.1.7-1.5c.5-.4,1.1-.6,1.9-.6s1.5.2,2,.6.8.9.8,1.6h-1.5c0-.3-.1-.5-.3-.7-.2-.2-.5-.3-.9-.3s-.6,0-.8.2c-.2.2-.3.4-.3.6s0,.4.3.6c.2.1.6.3,1.2.4.6.1,1.1.3,1.4.5.3.2.6.4.8.7.2.3.3.6.3.9,0,.6-.3,1.1-.8,1.5-.5.4-1.2.6-2,.6s-1.1-.1-1.5-.3c-.4-.2-.8-.5-1-.8-.2-.4-.4-.7-.4-1.1h1.5c0,.4.2.6.4.8.3.2.6.3,1,.3s.7,0,.9-.2c.2-.2.3-.4.3-.6Z"/>
      </g>
      <g>
        <path class="st10" d="M164.1,138.3h-17.9c-.4,0-.8,0-1-.1-.3,0-.7-.2-1.1-.5-.3-.2-.6-.4-.8-.6,0,0-.2-.2-.3-.3l-11.2-13.9c0,0-.1-.2-.2-.3-.1-.2-.3-.4-.4-.8,0-.2-.1-.4-.1-.5-.1-.6-.1-1.1,0-1.7l4-17.3c.3-1.2,1.1-2.2,2.1-2.7l16.1-7.7c1.1-.5,2.3-.5,3.4,0l16.1,7.7c1.1.5,1.9,1.5,2.1,2.7,0,0,4,17.3,4,17.3.1.6.1,1.1,0,1.7,0,.2,0,.3-.1.4h0c-.2.5-.4.9-.6,1.2l-11.1,13.8c-.3.3-.5.6-.9.9h0c-.1.1-.3.2-.5.3h0c0,0-.2,0-.3.1h0s0,0,0,0c0,0-.1,0-.2,0-.2,0-.4,0-.5.1-.2,0-.3,0-.5,0h0ZM133.4,121.9l11.1,13.8s0,0,0,0c0,0,0,0,0,0,.2.2.3.3.4.3h0c.2.1.4.2.6.3.2,0,.4,0,.5,0h18.1c.1,0,.2,0,.3,0,0,0,0,0,0,0t0,0c0,0,.1,0,.2,0h0c0,0,0,0,.1,0,0,0,.1,0,.2-.1.2-.1.4-.3.5-.4h0s11.1-13.8,11.1-13.8c.1-.2.3-.4.3-.6h0c0-.2,0-.2,0-.3,0-.4,0-.7,0-1.1l-4-17.2c-.1-.6-.6-1.2-1.2-1.5l-16.1-7.7c-.6-.3-1.3-.3-1.9,0l-16.1,7.7c-.6.3-1,.8-1.2,1.5l-4,17.3c0,.3,0,.6,0,.9h0c0,0,0,.1,0,.2,0,0,0,0,0,0,0,.1.1.3.2.4,0,0,0,0,0,0h0c0,0,.1,0,.1.1h0Z"/>
        <path class="st10" d="M170.4,118.5l-4.7-1c0-.4,0-.9,0-1.3,0-2.1-.6-4.1-1.7-5.8l3.8-3c.4-.3.5-.9.2-1.3-.3-.4-.9-.5-1.3-.2l-3.8,3c-1.8-1.9-4.1-3.1-6.8-3.4v-4.8c0-.5-.4-.9-.9-.9s-.9.4-.9.9v4.9c-2.6.2-5,1.4-6.7,3.3l-3.8-3c-.4-.3-.9-.2-1.3.1-.3.4-.2.9.1,1.3l3.8,3c-1.1,1.7-1.8,3.7-1.8,5.9s0,1,.1,1.5l-4.8,1.1c-.5.1-.8.6-.7,1.1,0,.4.5.7.9.7s.1,0,.2,0l4.8-1.1c.8,2.4,2.4,4.4,4.5,5.7l-2.1,4.4c-.2.4,0,1,.4,1.2.1,0,.3,0,.4,0,.3,0,.6-.2.8-.5l2.2-4.3c1.2.5,2.6.8,4,.8s2.6-.3,3.8-.7l2.1,4.4c.2.3.5.5.8.5s.3,0,.4,0c.4-.2.6-.8.4-1.2l-2.1-4.4c2.3-1.3,3.9-3.5,4.7-6l4.7,1h.2c.4,0,.8-.3.9-.7.2-.5-.2-1-.6-1.1h0ZM163.9,116.2c0,.3,0,.6,0,.9l-3.9-.8h0c0-.9-.2-1.6-.6-2.3l3.2-2.4c.9,1.3,1.3,2.9,1.3,4.6ZM161.5,110.1l-3.1,2.4c-.6-.6-1.4-.9-2.3-1.1v-4c2.1.2,4,1.2,5.4,2.6ZM157.3,114.4l.6,2.4-1.5,1.9h-2.4l-1.6-1.9.6-2.4,2.2-1,2.2,1ZM154.2,107.5v4c-.8.2-1.6.5-2.2,1.1l-3.1-2.5c1.4-1.4,3.2-2.4,5.3-2.6ZM146.4,116.2c0-1.8.5-3.4,1.4-4.7l3.1,2.5c-.4.7-.6,1.4-.6,2.3v.2l-3.9.9c0-.4,0-.7,0-1.1h0ZM146.9,119l3.8-.9c.3.8.8,1.4,1.5,1.9l-1.8,3.6c-1.6-1.1-2.9-2.7-3.5-4.5h0ZM155.1,125c-1.1,0-2.2-.2-3.2-.6l1.8-3.6c.4.1.9.2,1.3.2s.9,0,1.3-.2l1.8,3.6c-.9.4-1.9.6-3,.6h0ZM159.8,123.7l-1.7-3.6c.7-.5,1.2-1.2,1.6-2l3.9.8c-.7,2-2,3.7-3.8,4.8Z"/>
      </g>
    </g>
    <g>
      <g>
        <path class="st10" d="M145.5,237.3h4.2v1.3h-5.8v-9.2h1.6v8Z"/>
        <path class="st10" d="M152.4,238.6h-1.5v-9.8h1.5v9.8Z"/>
        <path class="st10" d="M158.2,238.6c0-.1-.1-.3-.2-.6-.5.5-1.1.8-1.8.8s-1.3-.2-1.7-.6c-.4-.4-.7-.9-.7-1.5s.3-1.3.8-1.7,1.3-.6,2.3-.6h.9v-.5c0-.4,0-.6-.3-.9s-.5-.3-.9-.3-.6,0-.9.3c-.2.2-.3.4-.3.7h-1.5c0-.4.1-.7.4-1.1s.6-.6,1-.8.9-.3,1.4-.3c.8,0,1.4.2,1.9.6s.7,1,.7,1.7v3.1c0,.6,0,1.1.3,1.5h0c0,.1-1.6.1-1.6.1ZM156.5,237.5c.3,0,.6,0,.9-.2s.5-.3.6-.6v-1.3h-.8c-.6,0-1,0-1.3.3-.3.2-.4.5-.4.8s0,.5.3.7c.2.2.5.3.8.3Z"/>
        <path class="st10" d="M162.6,231.7v.7c.5-.6,1.2-.8,2-.8s1.5.4,1.9,1.1c.5-.7,1.2-1.1,2.1-1.1s1.3.2,1.7.6c.4.4.6,1,.6,1.9v4.5h-1.5v-4.5c0-.4,0-.8-.3-1-.2-.2-.5-.3-.9-.3s-.6,0-.9.3c-.2.2-.4.4-.5.7v4.7s-1.5,0-1.5,0v-4.5c0-.8-.4-1.2-1.2-1.2s-1.1.3-1.3.8v5h-1.5v-6.9h1.5Z"/>
        <path class="st10" d="M176.5,238.6c0-.1-.1-.3-.2-.6-.5.5-1.1.8-1.8.8s-1.3-.2-1.7-.6c-.4-.4-.7-.9-.7-1.5s.3-1.3.8-1.7,1.3-.6,2.3-.6h.9v-.5c0-.4,0-.6-.3-.9s-.5-.3-.9-.3-.6,0-.9.3c-.2.2-.3.4-.3.7h-1.5c0-.4.1-.7.4-1.1s.6-.6,1-.8.9-.3,1.4-.3c.8,0,1.4.2,1.9.6s.7,1,.7,1.7v3.1c0,.6,0,1.1.3,1.5h0c0,.1-1.6.1-1.6.1ZM174.9,237.5c.3,0,.6,0,.9-.2s.5-.3.6-.6v-1.3h-.8c-.6,0-1,0-1.3.3-.3.2-.4.5-.4.8s0,.5.3.7c.2.2.5.3.8.3Z"/>
        <path class="st10" d="M184.4,233.3h.9c.5,0,.8-.1,1.1-.4.3-.2.4-.6.4-1s-.1-.8-.3-1-.6-.4-1.1-.4-.8.1-1,.4c-.3.2-.4.6-.4.9h-1.5c0-.5.1-.9.4-1.3.3-.4.6-.7,1.1-.9.5-.2,1-.3,1.5-.3.9,0,1.6.2,2.2.7.5.5.8,1.1.8,1.9s-.1.8-.4,1.2-.6.6-1,.8c.5.2.9.4,1.2.8s.4.8.4,1.3c0,.8-.3,1.5-.9,2s-1.3.7-2.2.7-1.6-.2-2.2-.7c-.6-.5-.8-1.1-.8-1.9h1.5c0,.4.1.7.4,1,.3.3.6.4,1.1.4s.9-.1,1.1-.4.4-.6.4-1.1-.1-.9-.4-1.1c-.3-.3-.7-.4-1.3-.4h-.9v-1.2Z"/>
        <path class="st10" d="M195.1,237.3h4.2v1.3h-5.8v-9.2h1.6v8Z"/>
        <path class="st10" d="M202.1,237.3h4.2v1.3h-5.8v-9.2h1.6v8Z"/>
        <path class="st10" d="M209.6,229.4l2.7,7.1,2.7-7.1h2.1v9.2h-1.6v-3l.2-4.1-2.7,7.1h-1.1l-2.7-7.1.2,4.1v3h-1.6v-9.2h2.1Z"/>
      </g>
      <g>
        <g>
          <path class="st10" d="M259.2,228.4v-.9c1.4-.3,2.4-1.8,2-3.4s-.9-1.5-1.7-1.7c-1.9-.6-3.6.8-3.6,2.5s.8,2.2,1.9,2.6v1c0,.7-.5,1.2-1.2,1.2h-7.5v1.4h7.5c1.4,0,2.6-1.2,2.6-2.6Z"/>
          <path class="st10" d="M254.1,222.1v-.9c1.4-.3,2.4-1.8,2-3.4s-.9-1.5-1.7-1.7c-1.9-.6-3.6.8-3.6,2.5s.8,2.2,1.9,2.6v1c0,.7-.5,1.2-1.2,1.2h-2.4v1.4h2.4c1.4,0,2.6-1.2,2.6-2.6Z"/>
          <path class="st10" d="M259.2,245.3v-.9c0-1.4-1.2-2.6-2.6-2.6h-7.5v1.4h7.5c.7,0,1.2.5,1.2,1.2v1c-1.3.4-2.3,1.8-1.8,3.3s.9,1.5,1.7,1.8c1.8.6,3.6-.8,3.6-2.6,0-1.3-.9-2.3-2.1-2.6h0Z"/>
          <path class="st10" d="M252.9,249.8v-.9c0-1.4-1.1-2.6-2.6-2.6h-1.3v1.4h1.3c.7,0,1.2.5,1.2,1.2v1c-1.2.4-2.1,1.5-1.9,2.9s1,2.1,2.1,2.3c1.7.3,3.2-1,3.2-2.6,0-1.3-.9-2.3-2.1-2.6Z"/>
          <path class="st10" d="M258.5,239.1c1.7,0,3.1-1.6,2.6-3.4s-.9-1.6-1.7-1.8c-1.6-.5-3.1.4-3.5,1.9h-6.8v1.4h6.8c.3,1.2,1.3,2,2.6,2Z"/>
          <path class="st10" d="M241.9,214c-3.2,0-5.8,2.6-5.8,5.9s0,.7.1,1c-.6-.2-1.3-.3-2-.3-3.2,0-5.8,2.6-5.8,5.9s0,.7,0,1c0,0,0,0,0,0,1,1,2.3,1.6,3.8,1.6s.7.3.7.7-.3.7-.7.7c-1.5,0-2.9-.5-4.1-1.4-2,.9-3.4,2.9-3.4,5.3s1.9,5,4.4,5.7c-.6.9-.8,1.9-.8,3,0,3.2,2.6,5.8,5.8,5.8s.6,0,.9,0c.7-2,2.3-3.6,4.4-4.2-.8-.8-1.4-1.8-1.8-3-.6.5-1.3.9-2.2,1,0,0,0,0-.1,0-.3,0-.6-.2-.7-.6,0-.4.2-.7.5-.8,1-.2,1.7-.7,2.2-1.5,0-.1,0-.2.2-.3.4-.7.5-1.5.4-2.3,0-.4.2-.7.6-.8s.7.2.8.6c.2,1.2,0,2.3-.5,3.2.2,2.7,2.4,4.8,5.2,4.8s.7.3.7.7-.3.7-.7.7c-1.1,0-2.1-.3-3-.7-2.5,0-4.4,1.8-4.9,4.2.6,3.2,3.8,5.5,7.3,4.6s4.3-3.2,4.3-5.9v-14.6c-.2,0-.3,0-.5,0-.9,0-1.8-.2-2.6-.7-.9-.5-1.7-1.4-2.1-2.3-.8.5-1.7.7-2.6.7s-.2,0-.3,0c-.4,0-.7-.3-.6-.7s.3-.7.7-.6c1,0,2-.3,2.7-1,.8-.7,1.2-1.6,1.3-2.6,0-.4.3-.7.7-.6.4,0,.7.3.6.7,0,1.3-.6,2.4-1.4,3.3.3.9.9,1.6,1.7,2,.7.4,1.6.6,2.4.5v-12.7c0-3.3-2.7-5.9-5.9-5.9h0Z"/>
        </g>
        <path class="st4" d="M233.5,245.4h-88.9c-6,0-10.8-4.8-10.8-10.8h0c0-6,4.8-10.8,10.8-10.8h88.9"/>
      </g>
    </g>
    <g>
      <g>
        <path class="st10" d="M148.8,345.3h-1.5v-9.8h1.5v9.8Z"/>
        <path class="st10" d="M152.1,345.3h-1.5v-9.8h1.5v9.8Z"/>
        <path class="st10" d="M157.9,345.3c0-.1-.1-.3-.2-.6-.5.5-1.1.8-1.8.8s-1.3-.2-1.7-.6c-.4-.4-.7-.9-.7-1.5s.3-1.3.8-1.7,1.3-.6,2.3-.6h.9v-.5c0-.4,0-.6-.3-.9s-.5-.3-.9-.3-.6,0-.9.3c-.2.2-.3.4-.3.7h-1.5c0-.4.1-.7.4-1.1s.6-.6,1-.8.9-.3,1.4-.3c.8,0,1.4.2,1.9.6s.7,1,.7,1.7v3.1c0,.6,0,1.1.3,1.5h0c0,.1-1.6.1-1.6.1ZM156.2,344.2c.3,0,.6,0,.9-.2s.5-.3.6-.6v-1.3h-.8c-.6,0-1,0-1.3.3-.3.2-.4.5-.4.8s0,.5.3.7c.2.2.5.3.8.3Z"/>
        <path class="st10" d="M162.3,338.5v.7c.5-.6,1.2-.8,2-.8s1.5.4,1.9,1.1c.5-.7,1.2-1.1,2.1-1.1s1.3.2,1.7.6c.4.4.6,1,.6,1.9v4.5h-1.5v-4.5c0-.4,0-.8-.3-1-.2-.2-.5-.3-.9-.3s-.6,0-.9.3c-.2.2-.4.4-.5.7v4.7s-1.5,0-1.5,0v-4.5c0-.8-.4-1.2-1.2-1.2s-1.1.3-1.3.8v5h-1.5v-6.9h1.5Z"/>
        <path class="st10" d="M176.3,345.3c0-.1-.1-.3-.2-.6-.5.5-1.1.8-1.8.8s-1.3-.2-1.7-.6c-.4-.4-.7-.9-.7-1.5s.3-1.3.8-1.7,1.3-.6,2.3-.6h.9v-.5c0-.4,0-.6-.3-.9s-.5-.3-.9-.3-.6,0-.9.3c-.2.2-.3.4-.3.7h-1.5c0-.4.1-.7.4-1.1s.6-.6,1-.8.9-.3,1.4-.3c.8,0,1.4.2,1.9.6s.7,1,.7,1.7v3.1c0,.6,0,1.1.3,1.5h0c0,.1-1.6.1-1.6.1ZM174.6,344.2c.3,0,.6,0,.9-.2s.5-.3.6-.6v-1.3h-.8c-.6,0-1,0-1.3.3-.3.2-.4.5-.4.8s0,.5.3.7c.2.2.5.3.8.3Z"/>
        <path class="st10" d="M182.2,342h-3.3v-1.2h3.3v1.2Z"/>
        <path class="st10" d="M183.5,336.7c0-.2,0-.4.2-.6s.4-.2.6-.2.5,0,.6.2.2.4.2.6,0,.4-.2.6-.4.2-.6.2-.5,0-.6-.2-.2-.3-.2-.6ZM185.1,345.3h-1.5v-6.9h1.5v6.9Z"/>
        <path class="st10" d="M188.2,338.5v.8c.6-.6,1.2-.9,2-.9,1.4,0,2.2.8,2.2,2.5v4.5h-1.5v-4.4c0-.4,0-.8-.3-1-.2-.2-.5-.3-.9-.3-.6,0-1.1.3-1.4.8v4.9h-1.5v-6.9h1.5Z"/>
        <path class="st10" d="M193.7,341.9c0-1.1.2-1.9.7-2.5.5-.6,1.1-1,2-1s1.3.3,1.8.8v-3.5h1.5v9.8h-1.4v-.7c-.5.6-1.2.8-1.9.8s-1.5-.3-2-1c-.5-.6-.7-1.5-.7-2.6ZM195.3,342c0,.7.1,1.2.4,1.6s.7.6,1.1.6,1.1-.3,1.4-.8v-2.9c-.3-.6-.7-.8-1.4-.8s-.9.2-1.2.6-.4,1-.4,1.8Z"/>
        <path class="st10" d="M204.4,345.5c-1,0-1.8-.3-2.4-.9-.6-.6-.9-1.4-.9-2.5v-.2c0-.7.1-1.3.4-1.8.3-.5.6-1,1.1-1.3.5-.3,1-.5,1.6-.5.9,0,1.7.3,2.2.9.5.6.8,1.4.8,2.5v.6h-4.5c0,.6.2,1,.6,1.3s.8.5,1.3.5,1.3-.3,1.7-.9l.8.8c-.3.4-.6.7-1.1,1s-1,.3-1.5.3ZM204.2,339.6c-.4,0-.8.1-1,.4-.3.3-.4.7-.5,1.2h2.9c0-.6-.2-1-.4-1.3s-.6-.4-1-.4Z"/>
        <path class="st10" d="M210.8,340.7l1.3-2.3h1.7l-2.1,3.4,2.2,3.5h-1.7l-1.4-2.3-1.4,2.3h-1.7l2.2-3.5-2.1-3.4h1.7l1.3,2.3Z"/>
      </g>
      <path class="st1" d="M236.9,352h-92.4c-6,0-10.8-4.8-10.8-10.8h0c0-6,4.8-10.8,10.8-10.8h92.4"/>
      <g>
        <path class="st10" d="M254,340h1.1c-.2-2.1-1.1-4-2.3-5.6l-.8.8c-.5.5-1.2.5-1.7,0s-.5-1.2,0-1.7l.8-.8c-1.6-1.2-3.5-2.1-5.6-2.3v1.1c0,.7-.5,1.2-1.2,1.2s-1.2-.5-1.2-1.2v-1.1c-2.1.2-4,1.1-5.6,2.3l.8.8c.5.5.5,1.2,0,1.7s-1.2.5-1.7,0l-.8-.8c-1.2,1.6-2.1,3.5-2.3,5.6h1.1c.7,0,1.2.5,1.2,1.2s-.5,1.2-1.2,1.2h-1.1c.2,2.1,1.1,4,2.3,5.6l.8-.8c.5-.5,1.2-.5,1.7,0s.5,1.2,0,1.7l-.8.8c1.6,1.2,3.5,2.1,5.6,2.3v-1.1c0-.7.5-1.2,1.2-1.2s1.2.5,1.2,1.2v1.1c2.1-.2,4-1.1,5.6-2.3l-.8-.8c-.5-.5-.5-1.2,0-1.7.5-.5,1.2-.5,1.7,0l.8.8c1.2-1.6,2.1-3.5,2.3-5.6h-1.1c-.7,0-1.2-.5-1.2-1.2s.5-1.2,1.2-1.2ZM248.4,342.4h-4c-.7,0-1.2-.5-1.2-1.2v-4c0-.7.5-1.2,1.2-1.2s1.2.5,1.2,1.2v2.8h2.8c.7,0,1.2.5,1.2,1.2s-.5,1.2-1.2,1.2Z"/>
        <path class="st10" d="M264.1,336.8l-2.5-1c-.3-1.1-.8-2.1-1.3-3.1l1.1-2.5c.2-.5,0-1-.3-1.3l-4.5-4.5c-.4-.4-.9-.5-1.3-.3l-2.5,1.1c-1-.5-2-1-3.1-1.3l-1-2.5c-.2-.5-.6-.8-1.1-.8h-6.4c-.5,0-.9.3-1.1.8l-1,2.5c-1.1.3-2.1.8-3.1,1.3l-2.5-1.1c-.5-.2-1,0-1.3.3l-4.5,4.5c-.4.4-.5.9-.3,1.3l1.1,2.5c-.5,1-1,2-1.3,3.1l-2.5,1c-.5.2-.8.6-.8,1.1v6.4c0,.5.3.9.8,1.1l2.5,1c.3,1.1.8,2.1,1.3,3.1l-1.1,2.5c-.2.5,0,1,.3,1.3l4.5,4.5c.4.4.9.5,1.3.3l2.5-1.1c1,.5,2,1,3.1,1.3l1,2.5c.2.5.6.8,1.1.8h6.4c.5,0,.9-.3,1.1-.8l1-2.5c1.1-.3,2.1-.8,3.1-1.3l2.5,1.1c.5.2,1,0,1.3-.3l4.5-4.5c.4-.4.5-.9.3-1.3l-1.1-2.5c.5-1,1-2,1.3-3.1l2.5-1c.5-.2.8-.6.8-1.1v-6.4c0-.5-.3-.9-.8-1.1h0ZM244.4,354.4c-7.3,0-13.3-5.9-13.3-13.3s5.9-13.3,13.3-13.3,13.3,5.9,13.3,13.3-5.9,13.3-13.3,13.3Z"/>
      </g>
    </g>
    <g id="_33._markdown_Markdown_Document_">
      <path class="st12" d="M219.2,494.3h-4.5v-17.2h0c0-.3,0-.1,0-.2,0-.2-.1-.3-.2-.4l-12.7-12.7c-.1-.1-.3-.2-.4-.2h-18.4c-1.5,0-2.7,1.2-2.7,2.7v28.1h-4.5c-1.5,0-2.7,1.2-2.7,2.7v12.7c0,1.5,1.2,2.7,2.7,2.7h43.5c1.5,0,2.7-1.2,2.7-2.7v-12.7c0-1.5-1.2-2.7-2.7-2.7ZM211.6,476.2h-9.6v-9.6l9.6,9.6ZM182.1,466.2c0-.5.4-.9.9-.9h17.2v11.8c0,.5.4.9.9.9h11.8v16.3h-30.8v-28.1ZM220.2,509.8c0,.5-.4.9-.9.9h-43.5c-.5,0-.9-.4-.9-.9v-12.7c0-.5.4-.9.9-.9h43.5c.5,0,.9.4.9.9v12.7ZM196.6,469.9c0,.5-.4.9-.9.9h-10.9c-.5,0-.9-.4-.9-.9s.4-.9.9-.9h10.9c.5,0,.9.4.9.9ZM194.8,475.3c0,.5-.4.9-.9.9h-9.1c-.5,0-.9-.4-.9-.9s.4-.9.9-.9h9.1c.5,0,.9.4.9.9ZM193,480.7c0,.5-.4.9-.9.9h-7.3c-.5,0-.9-.4-.9-.9s.4-.9.9-.9h7.3c.5,0,.9.4.9.9ZM188.4,500.7v5.4c0,.5-.4.9-.9.9s-.9-.4-.9-.9v-5.4c0-.5-.4-.9-.9-.9h-.9v6.3c0,.5-.4.9-.9.9s-.9-.4-.9-.9v-6.3h-.9c-.5,0-.9.4-.9.9v5.4c0,.5-.4.9-.9.9s-.9-.4-.9-.9v-5.4c0-1.5,1.2-2.7,2.7-2.7h3.6c1.5,0,2.7,1.2,2.7,2.7ZM193.9,498c-2,0-3.6,1.6-3.6,3.6v4.5c0,.5.4.9.9.9s.9-.4.9-.9v-2.7h3.6v2.7c0,.5.4.9.9.9s.9-.4.9-.9v-4.5c0-2-1.6-3.6-3.6-3.6ZM192.1,501.6c0-1,.8-1.8,1.8-1.8s1.8.8,1.8,1.8h-3.6ZM206.6,500.7c0-1.5-1.2-2.7-2.7-2.7h-1.8c-1.5,0-2.7,1.2-2.7,2.7v5.4c0,.5.4.9.9.9s.9-.4.9-.9v-1.9l4,2.7c.2,0,.3.1.5.1.3,0,.6-.2.8-.4.3-.4.2-1-.3-1.3l-3-2h.6c1.5,0,2.7-1.2,2.7-2.7ZM201.1,500.7c0-.5.4-.9.9-.9h1.8c.5,0,.9.4.9.9s-.4.9-.9.9h-2.7v-.9ZM215.2,499.6l-4.3,2.9,4.3,2.9c.4.3.5.8.3,1.3-.2.2-.5.4-.8.4-.2,0-.4,0-.5-.1l-4-2.7v1.9c0,.5-.4.9-.9.9s-.9-.4-.9-.9v-7.3c0-.5.4-.9.9-.9s.9.4.9.9v1.9l4-2.7c.4-.3,1-.2,1.3.3.3.4.2,1-.3,1.3h0Z"/>
    </g>
  </g>
</svg>