<svg viewBox="0 0 200 200" xmlns="http://www.w3.org/2000/svg"><path d="m100 178.27a4.67 4.67 0 0 1 -1.81-.34l-73.48-29.21a4.72 4.72 0 0 1 -3-4.39v-20.82a4.52 4.52 0 0 1 .57-2.21 3.27 3.27 0 0 1 2.87-1.69h.14a3.3 3.3 0 0 1 2.37 1.16l72.26 28.76 72.31-28.78a3.32 3.32 0 0 1 2.41-1.16h.1a3.29 3.29 0 0 1 2.89 1.71 4.71 4.71 0 0 1 .56 2.24v20.93a4.78 4.78 0 0 1 -3 4.28l-73.4 29.18a4.78 4.78 0 0 1 -1.79.34zm0-34.15a4.67 4.67 0 0 1 -1.81-.34l-73.44-29.17a4.76 4.76 0 0 1 -3-4.43v-20.82a4.72 4.72 0 0 1 .45-2 3.29 3.29 0 0 1 3-1.92 3.25 3.25 0 0 1 2.5 1.16l72.25 28.72 72.31-28.76a3.3 3.3 0 0 1 2.47-1.16 3.29 3.29 0 0 1 2.94 1.82 8.23 8.23 0 0 1 .33.78l.05.15a3.23 3.23 0 0 1 .23 1.19v20.92a4.82 4.82 0 0 1 -3 4.29l-73.48 29.23a4.78 4.78 0 0 1 -1.8.34zm0-33.61a4.64 4.64 0 0 1 -1.81-.34l-73.46-29.17-.14-.06a4.83 4.83 0 0 1 -2.88-4.37v-20.86a4.77 4.77 0 0 1 3-4.43l73.4-29.21a5 5 0 0 1 3.62 0l73.45 29.23a4.73 4.73 0 0 1 3 4.39c0 1.13 0 19.07.07 20.58v.4a4.79 4.79 0 0 1 -3 4.29l-73.45 29.21a4.78 4.78 0 0 1 -1.8.34zm1.54-33.51 3.7-7-16.77 1.7zm34.61-16.1 10.51-4.31-13-5.23-10.56 4.18zm-74.68-7.9a29.16 29.16 0 0 0 -10.15 1.61c-2.11.83-2.8 1.66-2.87 1.89s.76 1.13 3.27 2.16a31.45 31.45 0 0 0 11.37 1.91 28.08 28.08 0 0 0 10.31-1.75 5.54 5.54 0 0 0 2.69-1.82c-.13-.29-.91-1.25-3.37-2.22a31.16 31.16 0 0 0 -11.25-1.78zm30.34-11.48a3.29 3.29 0 0 1 2.19 1.73l1.49 3 3.88-3.29a3.28 3.28 0 0 1 2.13-.79h.24l1.23.09v-.17a3.12 3.12 0 0 1 0-1.22l-4.23.82a3.36 3.36 0 0 1 -.63.06 3.43 3.43 0 0 1 -1.18-.22l-4.93-1.93a3.26 3.26 0 0 1 -.19 1.92z" fill="currentColor"/><path d="m99.93 25a1.34 1.34 0 0 1 .56.09l73.51 29.26a1.46 1.46 0 0 1 .95 1.34c0 .62 0 20.21.07 20.88a1.53 1.53 0 0 1 -.95 1.34l-73.48 29.22a1.56 1.56 0 0 1 -.56.09 1.4 1.4 0 0 1 -.56-.09l-73.47-29.22a1.52 1.52 0 0 1 -1-1.38v-20.82a1.51 1.51 0 0 1 1-1.38l73.38-29.22a1.51 1.51 0 0 1 .55-.09m-5.44 26.21h.07a.29.29 0 0 0 .17-.07l6.77-5.75 16.24 1.19a.32.32 0 0 0 .34-.22.28.28 0 0 0 -.17-.34l-11.73-4.53 6.25-5.26a.32.32 0 0 0 -.26-.56l-14.06 2.73-11.89-4.59a.22.22 0 0 0 -.11 0 .36.36 0 0 0 -.23.09.29.29 0 0 0 0 .34l3 6-14 2.69c-.15 0-.24.17-.22.36s.15.29.29.29l16.18 1.17 3.2 6.36a.3.3 0 0 0 .22.15m41.45 13.13h.13.13l18.4-7.55a.19.19 0 0 0 .13-.27c0-.15 0-.28-.17-.3l-20.84-8.4h-.11-.11l-18.5 7.32a.38.38 0 0 0 -.16.3.33.33 0 0 0 .16.29zm-72.95-.59a31.09 31.09 0 0 0 11.56-2c3-1.26 4.74-3 4.74-4.83s-2-3.89-5.46-5.28a34.51 34.51 0 0 0 -12.46-2.08 32.37 32.37 0 0 0 -11.34 1.84c-3.19 1.24-5 3-5 4.89s1.86 3.85 5.3 5.26a34.9 34.9 0 0 0 12.62 2.16m39.81 17.22h.18a.33.33 0 0 0 .26-.17l7.54-14.37a.24.24 0 0 0 0-.28.33.33 0 0 0 -.29-.13l-34.28 3.51c-.13 0-.26.11-.26.24a.27.27 0 0 0 .17.34zm71.92 7.68a6.29 6.29 0 0 1 .26.65v20.82a1.53 1.53 0 0 1 -.95 1.34l-73.5 29.22a1.56 1.56 0 0 1 -.56.09 1.4 1.4 0 0 1 -.56-.09l-73.43-29.16a1.49 1.49 0 0 1 -.95-1.37v-20.82a1.35 1.35 0 0 1 .15-.62 1.55 1.55 0 0 0 .78.73l73.41 29.18a2.75 2.75 0 0 0 .56.1 1.18 1.18 0 0 0 .55-.1l73.5-29.22a1.45 1.45 0 0 0 .78-.72m0 34.16a1.42 1.42 0 0 1 .17.67v20.82a1.51 1.51 0 0 1 -.95 1.34l-73.43 29.19a1.56 1.56 0 0 1 -.56.09 1.4 1.4 0 0 1 -.56-.09l-73.52-29.22a1.44 1.44 0 0 1 -.93-1.34v-20.82a1.35 1.35 0 0 1 .15-.62 1.47 1.47 0 0 0 .78.73l73.43 29.22a1.37 1.37 0 0 0 .56.09 1.18 1.18 0 0 0 .55-.09l73.53-29.24a1.43 1.43 0 0 0 .78-.73m-74.85-104.43a7.84 7.84 0 0 0 -3 .59l-73.41 29.2a8 8 0 0 0 -5.09 7.48v20.82a8.08 8.08 0 0 0 3.4 6.55 6.59 6.59 0 0 0 -2.65 2.92 8.06 8.06 0 0 0 -.74 3.34v20.82a8 8 0 0 0 3.79 6.84 6.58 6.58 0 0 0 -2.83 2.7 7.85 7.85 0 0 0 -1 3.81v20.82a8 8 0 0 0 5.06 7.44l73.46 29.23a8.18 8.18 0 0 0 6.1 0l73.37-29.16a8.09 8.09 0 0 0 5.09-7.23v-21a7.91 7.91 0 0 0 -1-3.81 6.56 6.56 0 0 0 -2.8-2.72 8.07 8.07 0 0 0 3.86-6.62v-21a6.53 6.53 0 0 0 -.43-2.36v-.09a8.28 8.28 0 0 0 -.48-1.14 6.57 6.57 0 0 0 -2.46-2.68 8 8 0 0 0 3.39-6.31c0-.23 0-.47 0-.7-.07-1.81-.08-18.62-.06-20.24v-.15a8 8 0 0 0 -5.08-7.44l-73.42-29.35a7.91 7.91 0 0 0 -3.06-.59zm32 37.18 1.77-.7 4.25 1.71-1.79.74zm-75.38 1a32.35 32.35 0 0 1 4.93-.37 33.21 33.21 0 0 1 6.59.63 32.5 32.5 0 0 1 -5 .37 33.24 33.24 0 0 1 -6.55-.63z" fill="#32363b"/></svg>