<svg xmlns="http://www.w3.org/2000/svg" viewBox="0 0 99.4 99.4">
  <title>Cloud Manager</title>
  <path fill="#ffffff" d="M9.3 9.8h81.3v81.3H9.3z"/>
  <path fill="#010101" d="M91.8 93.9H8.2c-.8 0-1.5-.7-1.5-1.5V8.7c0-.8.7-1.5 1.5-1.5h83.7c.8 0 1.5.7 1.5 1.5v83.7c0 .8-.7 1.5-1.6 1.5zM11.9 90H88c.8 0 1.4-.6 1.4-1.4V12.4c0-.8-.6-1.4-1.4-1.4H11.9c-.8 0-1.4.6-1.4 1.4v76.1c0 .9.6 1.5 1.4 1.5z"/>
  <path class="st0-242329adbc97b9901df9eb653284400a" d="M10.5 88.6V12.4c0-.7.6-1.4 1.4-1.4h16v79h-16c-.8 0-1.4-.6-1.4-1.4zm63.6-34.1c1.4-5.7-2.1-11.5-7.8-13-5-1.2-10.1 1.2-12.3 5.8-2.1-1.9-5.4-1.8-7.3.4-.9.9-1.3 2.2-1.3 3.5v.1c-4.5.1-8.1 3.8-8.1 8.3.1 4.3 3.4 7.8 7.7 8h29.2c3.6-.4 6.3-3.6 5.9-7.2-.3-3.2-2.8-5.7-6-5.9zM62.8 24.1h19.7v-7.6H62.8v7.6z" fill="currentColor" />
  <path fill="#ffffff" d="M28.7 24.1L16.9 37.5l11.8 13.3z"/>
</svg>
