<svg viewBox="0 0 200 200" xmlns="http://www.w3.org/2000/svg"><path d="m141.54 108.9h-9.54a30.51 30.51 0 0 1 -3.94 9.56l6.75 6.75-9.81 9.56-6.71-6.77a30.28 30.28 0 0 1 -9.56 3.94v9.56h-13.73v-9.37a30.42 30.42 0 0 1 -9.56-3.94l-6.71 6.81-9.57-9.56 6.75-6.75a30.44 30.44 0 0 1 -3.91-9.61h-9.59v-13.68h9.59a37.41 37.41 0 0 1 3.37-8.63 4.74 4.74 0 0 1 .56-.94l-6.75-6.75 9.57-9.56 6.75 6.75a30.42 30.42 0 0 1 9.5-3.94v-9.56h13.69v9.38a30.49 30.49 0 0 1 9.56 3.93l6.75-6.75 9.56 9.57-6.75 6.75a4.35 4.35 0 0 0 .56.93 34.52 34.52 0 0 1 3.38 8.63h9.56z" fill="#32363b"/><path d="m177 115.08v-25.87h-18a56 56 0 0 0 -6.4-16.31c-.37-.57-.75-1.32-1.12-1.88l12.75-12.75-18.38-18.19-12.75 12.75a59.22 59.22 0 0 0 -18.19-7.5v-18.18h-25.91v18a59.08 59.08 0 0 0 -18.19 7.5l-12.71-12.75-18.19 18.37 12.75 12.73c-.37.56-.75 1.31-1.12 1.88a56 56 0 0 0 -6.38 16.31h-18.16v25.87h18a59 59 0 0 0 7.5 18.19l-12.77 12.75 18.18 18.4 12.75-12.75a59.43 59.43 0 0 0 18.19 7.5v18h25.88v-18a59.27 59.27 0 0 0 18.18-7.5l12.75 12.75 18.34-18.4-12.75-12.75a59.22 59.22 0 0 0 7.5-18.19zm-35.44-6.18h-9.56a30.51 30.51 0 0 1 -3.94 9.56l6.75 6.75-9.81 9.56-6.71-6.77a30.28 30.28 0 0 1 -9.56 3.94v9.56h-13.73v-9.37a30.42 30.42 0 0 1 -9.56-3.94l-6.71 6.81-9.57-9.56 6.75-6.75a30.44 30.44 0 0 1 -3.91-9.61h-9.59v-13.68h9.59a37.41 37.41 0 0 1 3.37-8.63 4.74 4.74 0 0 1 .56-.94l-6.75-6.75 9.57-9.56 6.75 6.75a30.42 30.42 0 0 1 9.5-3.94v-9.56h13.69v9.38a30.49 30.49 0 0 1 9.56 3.93l6.75-6.75 9.56 9.57-6.75 6.75a4.35 4.35 0 0 0 .56.93 34.52 34.52 0 0 1 3.38 8.63h9.56z" fill="currentColor"/><path d="m120.35 93.33c-.19-.56-.56-.93-.75-1.5a20.31 20.31 0 0 0 -8.81-8.06 8 8 0 0 0 -1.88-.75 21.36 21.36 0 0 0 -13.68 0 19.33 19.33 0 0 0 -1.88.75 20.41 20.41 0 0 0 -8.81 8.06c-.19.57-.56.94-.75 1.5a7.93 7.93 0 0 0 -.79 1.88 21.39 21.39 0 0 0 0 13.69 19.06 19.06 0 0 0 .75 1.87 19.74 19.74 0 0 0 9.56 9.56 7.24 7.24 0 0 0 1.88.75 21.24 21.24 0 0 0 6.75 1.13 20.44 20.44 0 0 0 6.75-1.13c.56-.18 1.31-.56 1.87-.75a19.7 19.7 0 0 0 9.56-9.56 7.32 7.32 0 0 0 .75-1.87 21.39 21.39 0 0 0 0-13.69 4.15 4.15 0 0 0 -.52-1.88zm-18.35 19.32a10.29 10.29 0 0 1 -10.32-10.32 12.81 12.81 0 0 1 1.32-5.25 10.42 10.42 0 1 1 18 10.5 10.73 10.73 0 0 1 -9 5.07z" fill="currentColor"/><path d="m102 112.65a10.29 10.29 0 0 1 -10.32-10.32 12.81 12.81 0 0 1 1.32-5.25 10.42 10.42 0 1 1 18 10.5 10.73 10.73 0 0 1 -9 5.07z" fill="#fff"/></svg>