<svg viewBox="0 0 200 200" xmlns="http://www.w3.org/2000/svg"><path d="m174.57 112.19a17.51 17.51 0 0 0 -14.82-14.82v-4.54c0-12.54-9.53-22.75-21.25-22.75-11.38 0-20.91 9.9-21.25 22.07h.14-.14v49.27c0 15.77-11.78 28.58-26.25 28.58s-26.25-12.81-26.25-28.54v-4.27c3.62 0 7.5-2.62 7.5-10v-6.28c16-4.11 27.5-17.88 27.5-33.5v-5.24h-5l-.11-32.53a12.49 12.49 0 0 0 -10.28-12.24 7.46 7.46 0 1 0 -.17 5.1 7.5 7.5 0 0 1 5.45 7.15l.11 32.52h-5v5.29a19.88 19.88 0 0 1 -14.39 18.65 22.72 22.72 0 0 1 -13.75 0 19.87 19.87 0 0 1 -14.36-18.65v-5.29h-7.5v-32.49a7.49 7.49 0 0 1 5.55-7.21 7.52 7.52 0 1 0 -.16-5.08 12.5 12.5 0 0 0 -10.39 12.29v32.49h-5v5.2c0 15.64 11.46 29.42 27.5 33.52v6.28c0 7.38 3.87 10 7.5 10v4.27c0 18.5 14 33.54 31.25 33.54s31.25-15.06 31.25-33.54v-49.15c.25-9.48 7.54-17.2 16.25-17.2 9 0 16.25 8 16.25 17.75v4.53a17.5 17.5 0 1 0 19.82 14.82zm-114.82 20c-2.25 0-2.5-3.5-2.5-5v-5.3h.61l.75.07c1.18.11 2.37.18 3.57.18h.13c1.2 0 2.39-.07 3.56-.18l.78-.07h.6v5.3c0 1.5-.25 5-2.5 5zm97.5-5a12.5 12.5 0 1 1 12.5-12.5 12.49 12.49 0 0 1 -12.5 12.48z" fill="#32363b"/><path d="m157.25 107.17a7.5 7.5 0 1 0 7.5 7.5 7.5 7.5 0 0 0 -7.5-7.5z" fill="#32363b"/><g fill="currentColor"><circle cx="77.25" cy="39.68" r="2.5"/><circle cx="47.25" cy="39.68" r="2.5"/><path d="m29.75 87.37v-.2h7.5v.29a24.85 24.85 0 0 0 17.84 23.41 27.84 27.84 0 0 0 16.8 0 24.86 24.86 0 0 0 17.86-23.41v-.29h5v.2c0 13.91-10.72 26.15-25.5 29.11a35.91 35.91 0 0 1 -10.55.52 33.41 33.41 0 0 1 -3.45-.53c-14.78-2.95-25.5-15.19-25.5-29.1z"/><path d="m59.75 132.17c-2.25 0-2.5-3.5-2.5-5v-5.3h.61l.75.07c1.18.11 2.37.18 3.57.18h.13c1.2 0 2.39-.07 3.56-.18l.78-.07h.6v5.3c0 1.5-.25 5-2.5 5z"/><circle cx="157.25" cy="114.67" r="2.5"/></g></svg>