<svg xmlns="http://www.w3.org/2000/svg" viewBox="0 0 94 102.8">
  <path fill="#010101" d="M85.6 72.7c-2.3 0-4.4.9-6 2.5l-9.4-6.8c2.8-4.3 4.6-9.5 4.6-15.1 0-14.8-11.7-26.9-26.3-27.6v-8.8c4.1-.7 7.1-4.1 7.1-8.4 0-4.7-3.9-8.5-8.5-8.5s-8.5 3.9-8.5 8.5c0 4.2 3.2 7.7 7.1 8.4v8.8c-14.7.7-26.4 12.7-26.4 27.6 0 5.6 1.6 10.8 4.6 15.1l-9.4 6.8c-1.5-1.5-3.6-2.5-6-2.5-4.7 0-8.5 3.9-8.5 8.5s3.9 8.5 8.5 8.5 8.5-3.9 8.5-8.5c0-1.4-.4-2.7-.9-3.9l9.4-6.8c5 6.3 12.9 10.3 21.5 10.3s16.5-4.1 21.5-10.3l9.4 6.8c-.6 1.2-.9 2.5-.9 3.9 0 4.7 3.9 8.5 8.5 8.5 4.7 0 8.5-3.9 8.5-8.5s-3.8-8.5-8.4-8.5zm-19.5-7.3c-.4.6-.9 1.4-1.4 2-4.3 5.1-10.6 8.3-17.5 8.3-7 0-13.2-3.3-17.3-8.3-.5-.6-.9-1.3-1.4-2-2.4-3.5-3.6-7.7-3.6-12.1 0-12 9.3-21.6 21.2-22.3.4 0 .8-.1 1.2-.1.4 0 .8 0 1.3.1 11.7.6 21.1 10.4 21.1 22.3 0 4.5-1.4 8.6-3.6 12.1z"/>
  <path fill="currentColor" d="M5.3 66.5v-36l27.8-16.1c.6 1.3 1.4 2.6 2.4 3.7.7.8 1.4 1.5 2.3 2.1-14.5 4-25.1 17.2-25.1 32.9 0 4.6.9 9.1 2.7 13.2l-1.2.9c-1.8-.7-3.7-1.1-5.7-1.1-1.2.1-2.2.2-3.2.4zM56 20.4c5.9 1.6 11.3 4.8 15.6 9.4 6.1 6.4 9.5 14.8 9.5 23.6 0 4.5-.9 9-2.7 13.1l1.3.9c1.8-.7 3.7-1.1 5.7-1.1 1.1 0 2.2.1 3.3.4v-36l-28-16.1c-1.1 2.2-2.7 4.2-4.7 5.8zm14.3 60.9v-1.2l-1.3-.9c-6.1 5.2-14 8.2-22.1 8.2-8.3 0-16.2-2.9-22.3-8.2l-1.2.9v1.2c0 2.5-.6 4.9-1.7 6.9L47 102.8l25.1-14.5c-1.1-2.1-1.8-4.5-1.8-7zM58.7 62.6c.3-.4.6-.9.9-1.3 1.5-2.3 2.4-5 2.4-8 0-7.9-6.2-14.4-14-14.8-.4-.1-.6-.1-.9-.1-.2 0-.5.1-.8.1-7.9.1-14.1 6.8-14.1 14.8 0 2.9.8 5.7 2.4 8 .3.5.6.9.9 1.3 2.6 3.4 6.8 5.5 11.5 5.5 4.6 0 8.8-2.1 11.7-5.5z"/>
</svg>
