<svg viewBox="0 0 200 200" xmlns="http://www.w3.org/2000/svg"><g fill="currentColor"><path d="m36.32 89c-.29 0-.37-.15-.22-.37l1.53-2a1.06 1.06 0 0 1 .81-.36h26.07c.29 0 .37.21.22.43l-1.24 1.9a1.12 1.12 0 0 1 -.73.44z"/><path d="m25.29 95.67c-.29 0-.36-.15-.22-.37l1.54-2a1 1 0 0 1 .8-.37h33.3c.3 0 .44.22.37.44l-.59 1.76a.63.63 0 0 1 -.65.43z"/><path d="m43 102.39c-.3 0-.37-.22-.22-.44l1-1.83a1 1 0 0 1 .73-.44h14.6c.29 0 .43.22.43.52l-.14 1.8a.55.55 0 0 1 -.51.51z"/><g stroke="#32363b" stroke-linejoin="round" stroke-width="4.5"><path d="m118.77 87.63c-4.6 1.17-7.74 2.05-12.27 3.22-1.09.29-1.16.36-2.11-.73a9.81 9.81 0 0 0 -3.39-2.78c-4.6-2.26-9-1.61-13.21 1.1a15.5 15.5 0 0 0 -7.45 13.87 11.44 11.44 0 0 0 9.86 11.47 13.48 13.48 0 0 0 12.36-4.78c.66-.8 1.24-1.68 2-2.7h-14.12c-1.54 0-1.9-1-1.39-2.19 1-2.27 2.7-6.07 3.72-8a2 2 0 0 1 1.83-1.17h26.58c-.14 2-.14 3.94-.43 5.91a31.29 31.29 0 0 1 -6 14.32 30.47 30.47 0 0 1 -20.82 12.41c-7.15 1-13.8-.44-19.64-4.82a22.94 22.94 0 0 1 -9.29-16.21c-1-8 1.39-15.12 6.21-21.4a32.38 32.38 0 0 1 20.47-12.63c6.86-1.25 13.44-.44 19.35 3.57a22.91 22.91 0 0 1 8.47 10.3c.44.66.15 1.02-.73 1.24z"/><path d="m143 128c-6.65-.15-12.71-2-17.82-6.43a22.9 22.9 0 0 1 -7.89-14.09c-1.31-8.25 1-15.56 5.92-22.06 5.33-7 11.75-10.66 20.44-12.19 7.45-1.32 14.47-.59 20.82 3.72a22.74 22.74 0 0 1 10.3 16.29c1.24 9.86-1.61 17.89-8.4 24.76a33.44 33.44 0 0 1 -17.53 9.34c-2.02.39-3.99.46-5.84.66zm17.38-29.5a19.52 19.52 0 0 0 -.22-2.41 12 12 0 0 0 -14.9-9.72c-6.79 1.54-11.17 5.84-12.78 12.71a12 12 0 0 0 6.72 13.8 13.33 13.33 0 0 0 11.9-.44c5.72-2.97 8.9-7.64 9.23-13.92z"/></g></g></svg>