<svg viewBox="0 0 200 200" xmlns="http://www.w3.org/2000/svg"><path d="m30.17 158v-.2h23.28a1.78 1.78 0 0 0 0 2.4h-21.08a2.2 2.2 0 0 1 -2.2-2.2z" fill="currentColor"/><g fill="#32363b"><path d="m45.43 127.25a2.51 2.51 0 0 0 3.57-3.55 3.09 3.09 0 0 0 -.39-.33 2.52 2.52 0 0 0 -3.17 3.88z"/><path d="m77.86 123h-37.4a2.51 2.51 0 1 0 0 5h37.4a2.2 2.2 0 0 1 2.14 2.14v23.24h-47.86v-23.24c0-3.32 5.55-1.84 7.54-2.17a2.51 2.51 0 1 0 0-5c-5.78-.28-12.14-.23-12.57 7.19v28.47a7.2 7.2 0 0 0 7.16 7.17h11.94a8.38 8.38 0 0 0 -.73 4.19h-1.68a2.52 2.52 0 0 0 0 5h24.56a2.52 2.52 0 0 0 0-5h-1.69a8.62 8.62 0 0 0 -.73-4.19h11.92a7.2 7.2 0 0 0 7.19-7.17v-28.49a7.22 7.22 0 0 0 -7.19-7.14zm-45.72 35.61v-.2h22.62a1.72 1.72 0 0 0 0 2.34h-20.49a2.13 2.13 0 0 1 -2.13-2.14zm26.41 7.19a3.58 3.58 0 0 1 3.13 4v.2h-11.19c-.49-5 4.77-4.25 8.06-4.2zm19.31-5h-20.36a1.73 1.73 0 0 0 0-2.33h22.62a2.17 2.17 0 0 1 -2 2.31h-.26z"/><path d="m165.73 123h-43.59a7.21 7.21 0 0 0 -7.06 7.19v28.47a7.19 7.19 0 0 0 7.19 7.17h11.91a8.65 8.65 0 0 0 -.85 4.19h-1.69a2.52 2.52 0 0 0 0 5h24.56a2.52 2.52 0 0 0 0-5h-1.68a8.38 8.38 0 0 0 -.73-4.19h11.94a7.2 7.2 0 0 0 7.16-7.17v-28.52a7.18 7.18 0 0 0 -7.16-7.14zm-43.59 5h43.59a2.17 2.17 0 0 1 2.13 2.17v23.24h-47.75v-23.27a2.18 2.18 0 0 1 2.03-2.14zm-2 30.64v-.2h22.62a1.72 1.72 0 0 0 0 2.34h-20.39a2.17 2.17 0 0 1 -2.26-2.06zm26.41 7.19a3.57 3.57 0 0 1 3 4 .5.5 0 0 1 0 .12h-11.2c-.52-5 4.78-4.22 8.05-4.17zm19.33-5h-20.64a1.71 1.71 0 0 0 0-2.33h22.62a2.15 2.15 0 0 1 -2 2.3h-.13z"/><path d="m107.54 142.8h-15.08a2.52 2.52 0 0 0 0 5h15.08a2.52 2.52 0 0 0 0-5z"/><path d="m98.11 96.71-17.59 19.9a2.51 2.51 0 0 0 3.77 3.32l15.71-17.82 15.71 17.75a2.51 2.51 0 0 0 3.77-3.32l-17.59-19.91a2.65 2.65 0 0 0 -3.74 0z"/></g><circle cx="99.71" cy="58.73" fill="currentColor" r="33.73"/><path d="m77.86 160.77h-20.36a1.73 1.73 0 0 0 0-2.33h22.62a2.17 2.17 0 0 1 -2 2.31h-.26z" fill="currentColor"/><path d="m120.11 158.61v-.2h22.62a1.72 1.72 0 0 0 0 2.34h-20.36a2.17 2.17 0 0 1 -2.26-2.06z" fill="currentColor"/><path d="m165.85 160.77h-20.61a1.71 1.71 0 0 0 0-2.33h22.62a2.15 2.15 0 0 1 -2 2.3h-.13z" fill="currentColor"/></svg>