<svg enable-background="new 0 0 145 145" viewBox="0 0 145 145" xmlns="http://www.w3.org/2000/svg"><path d="m71.5 137.1c.3 3.5-2.2 6.6-5.7 7h-28.4c-4.2-.2-7.5-3.6-7.5-7.8-.1-4.4 3.4-8 7.8-8v-.1c0-1.2.5-2.4 1.3-3.4 1.9-2.1 5.1-2.2 7.1-.3 2.1-4.5 7.1-6.9 11.9-5.7 5.6 1.4 9 7 7.6 12.6 3.1.2 5.6 2.6 5.9 5.7zm-1.2-86.2h9.1v1.1h-9.1v33.2h9.1v1.1h-9.1v10.9h-20.8v16.1h-1.1v-16.1h-20.9v-59.4h20.8v-13.4h1.1v13.4h20.8v13.1zm-1.1 1.1h-7.6v4.9h-25.4v-10.9h25.4v4.9h7.6v-12h-40.6v57.3h40.5v-9.8h-7.6v4.1h-25.3v-11h25.4v5.8h7.6zm1.3-51.1h-42.4v18h42.4zm16.3 43.7v13h30.7v-13zm0 47.7h30.7v-13h-30.7zm-50.6-18.1h25.4v-11h-25.4z" fill="#393e44"/></svg>