<svg xmlns="http://www.w3.org/2000/svg" id="Layer_1" x="0" y="0" version="1.1" viewBox="0 0 100 100" xml:space="preserve">
  <title>NodeBalancers</title>
  <g>
    <path fill="#010101" d="M52.5 23.7c-1.5-.9-3.5-.9-5 0l-.4.3V12.1l-7.2 4.2c-1.2 1.2-3.1 1.1-4.2-.1-1.2-1.2-1.1-3.1.1-4.2.2-.2.5-.4.8-.6.1-.1.3-.2.4-.2l11.5-6.8c.9-.5 2.1-.5 3 0l11.6 6.8c1.4.9 1.8 2.8.9 4.1-.5.8-1.4 1.3-2.4 1.4-.5 0-1-.2-1.5-.4L53 12.1V24l-.5-.3zM28.7 34.6l-10.8-5.9 7-4.1c.4-.2.7-.5 1-.8.9-1.4.6-3.2-.8-4.2-.8-.6-2.1-.7-3.1-.1l-11 6.4c-.4.2-.7.4-1 .7-.6.6-1 1.4-1 2.2l.1 13.4c0 1.7 1.3 3 3 3s3-1.3 3-3l-.1-8.5 11 6.1V39c0-1.8 1-3.4 2.5-4.3l.2-.1zM26 59.9l-11.1 6.3.1-8.5c-.3-1.6-1.8-2.7-3.4-2.5-1.3.2-2.3 1.2-2.5 2.5l-.2 13.5c0 1.1.6 2.1 1.5 2.6L22 80.5c.4.3 1 .4 1.5.4v-.1c1.7-.1 2.9-1.5 2.9-3.1 0-1-.6-1.9-1.4-2.4l-7-4 10.5-6C27 64.4 26 62.8 26 61v-1.1zm48-20.1l11.1-6.1-.1 8.5c0 1.7 1.3 3 3 3s3-1.3 3-3l.1-13.4c0-1.1-.6-2.1-1.5-2.6l-11.7-6.6c-.2-.1-.4-.2-.7-.3-1.6-.4-3.2.6-3.6 2.2-.3 1.3.2 2.6 1.3 3.3l7 4.1-10.6 5.9.2.1c1.5.7 2.5 2.3 2.5 4.1v.8zM47.1 76v11.9l-7.3-4.2c-.1-.1-.3-.2-.4-.2-1.6-.4-3.2.5-3.7 2.1-.3 1.2.1 2.5 1.2 3.2l11.7 6.8c.4.3 1 .4 1.5.4s1-.1 1.5-.4l11.6-6.7c.1-.1.3-.1.4-.2 1.5-.7 2.1-2.5 1.4-4-.7-1.5-2.5-2.1-4-1.4-.3.1-.6.3-.8.6l-7.2 4V76l-.5.3c-1.5.9-3.5.9-5 0l-.4-.3zm43.8-18.2c-.3-1.6-1.8-2.8-3.4-2.5-1.3.2-2.3 1.2-2.5 2.5l.1 8.5L74 60v1c0 1.8-1 3.4-2.5 4.3l10.5 6-7.1 4.1c-1.4.9-1.8 2.7-.9 4.1.5.8 1.4 1.3 2.4 1.4.5 0 1-.1 1.5-.4l11.6-6.7c.9-.5 1.5-1.5 1.5-2.6l-.1-13.4z"/>
    <path d="M74 60V39.8l-17.9 9.9zM28.5 65.3L47.1 76V54.6zM71.3 34.6L53 24v20.7zM26 39.8v20.1l17.9-10.2zM53 76l18.5-10.7L53 54.7zM47.1 24L28.7 34.6l18.4 10.1z" fill="currentColor"/>
  </g>
</svg>