<svg viewBox="0 0 200 200" xmlns="http://www.w3.org/2000/svg"><path d="m62.5 140.32-12.5-3.12v-73.25l12.5-3.12z" fill="currentColor"/><path d="m31.25 68.64 12.5-3.12v70.12l-12.5-3.13z" fill="currentColor"/><path d="m168.75 132.09-100 8.82v-80.67l100 8.82z" fill="currentColor"/><path d="m172.15 63.09-106.15-9.37h-.38-.22a3 3 0 0 0 -.67.12l-37.36 9.33a3.13 3.13 0 0 0 -2.37 3v68.83a3.12 3.12 0 0 0 2.37 3l37.5 9.38h.06.26.09.34.28l106.25-9.38a3.12 3.12 0 0 0 2.85-3v-68.8a3.12 3.12 0 0 0 -2.85-3.11zm-109.65 77.23-12.5-3.12v-73.2l12.5-3.12zm-31.25-71.68 12.5-3.12v70.12l-12.5-3.13zm137.5 63.45-100 8.82v-80.67l100 8.82z" fill="#32363b"/><g fill="#fff"><path d="m84.37 135a3.13 3.13 0 0 0 3.13-3.13v-62.55a3.13 3.13 0 0 0 -6.25 0v62.5a3.13 3.13 0 0 0 3.12 3.18z"/><path d="m109.37 131.82a3.13 3.13 0 0 0 3.13-3.12v-56.25a3.13 3.13 0 1 0 -6.25 0v56.25a3.12 3.12 0 0 0 3.12 3.12z"/><path d="m134.38 128.7a3.13 3.13 0 0 0 3.12-3.13v-50a3.13 3.13 0 0 0 -6.25 0v50a3.13 3.13 0 0 0 3.13 3.13z"/><path d="m159.37 125.57a3.13 3.13 0 0 0 3.13-3.12v-43.75a3.13 3.13 0 1 0 -6.25 0v43.75a3.12 3.12 0 0 0 3.12 3.12z"/></g></svg>