<svg viewBox="0 0 200 200" xmlns="http://www.w3.org/2000/svg"><path d="m68.19 178c-7.73 0-11.7-2.06-11.82-6.13-.1-3.75 4.86-5.39 8.4-6.09.48-2.53 2.45-4.29 3.64-5.34a8 8 0 0 0 .69-.65c.61-.77 1.23-2.42 2.74-9a18.42 18.42 0 0 0 .1-9 11.16 11.16 0 0 1 -.33-2.33 15.5 15.5 0 0 1 .53-3.65c.06-.28.14-.63.19-.88l-.19-.28a7.55 7.55 0 0 1 -1.45-4.25 9.58 9.58 0 0 1 1-4.06c-2-6.34-1-11.9-.34-15.64a22.58 22.58 0 0 0 .47-3.49 5.47 5.47 0 0 0 -.63.44 22.17 22.17 0 0 1 -3.56 2.06l-.91-.65c-.31.41-.6.75-.81 1l-3.92-.66c-.47-1.11-2.79-2.32-4.84-3.38a34.2 34.2 0 0 1 -5.54-3.35c-2.81-2.24-5.48-6.13-7-8.53l-2.16.61a13.22 13.22 0 0 1 -2.55-6.24h-.72c-4.92-9.69-3.47-19.35-2.44-23.56l-1.34-.73a15.65 15.65 0 0 1 3.75-7.05l-.42-1.4a15.18 15.18 0 0 0 3.75-4.87 7.88 7.88 0 0 0 -3.72-.61 6.7 6.7 0 0 1 -4.81-1.59 4.62 4.62 0 0 1 -3-1.92 4.29 4.29 0 0 1 -.7-1.93 3.62 3.62 0 0 1 -.81-2.45 4.79 4.79 0 0 1 2-3.74 6.84 6.84 0 0 1 1.39-2.66c.77-2.06 3.31-2.95 4.36-3.33 1.7-.59 4.82-.7 9.05-.77 1.27 0 2.48-.05 3.17-.1l.44-.06-.25-.59a6.66 6.66 0 0 1 6.34-4.58h.16a5.86 5.86 0 0 1 2.51-1.48l2.12 1.39a8.64 8.64 0 0 1 1.9-.46l.79 1.38c2.57.4 4.47 2.15 6.33 4.08a19.07 19.07 0 0 1 3.25 4.52 5.86 5.86 0 0 1 1 5 11.35 11.35 0 0 1 3 8.08 44.79 44.79 0 0 1 -.76 7c3.12-4.65 6.41-6.35 9.6-8a40 40 0 0 0 4.39-2.54c2.52-1.75 4.87-5 7.14-8.21s4.43-6.2 6.91-7.94c3.63-2.56 13.09-6.11 21.38-6.11a19.52 19.52 0 0 1 9.48 2.1c7.34 4 9.17 11.53 10.15 15.57a18.32 18.32 0 0 0 .53 1.92 18.82 18.82 0 0 1 1.62 4 19.5 19.5 0 0 0 2.25 5.28 34.29 34.29 0 0 1 7 13.69c1.49 6.08 4.94 10.66 8.07 14.48a22.45 22.45 0 0 1 4.53 10l-3.72 2.22a1.2 1.2 0 0 0 .78.25 1.69 1.69 0 0 0 1.59-1.06 3.68 3.68 0 0 0 0 1 11.22 11.22 0 0 0 2.2 5.2l-1.91 2.37a12.75 12.75 0 0 1 .14 5.84l-1 .36a15.18 15.18 0 0 1 -3.22 8.27 4.82 4.82 0 0 0 -1.15 3l-.68 1.67-3.82 3.88-1.8-.32v.56a43.79 43.79 0 0 1 -.67 7.2c1.71 2.81 1.29 8-1.22 13.54-1.15 2.5-1.88 9-1.88 12.33a11.43 11.43 0 0 0 1.24 4.45 8.93 8.93 0 0 1 1 3.5 6 6 0 0 1 -.76 2.85 6.1 6.1 0 0 1 1.59 3.47c0 2.87-3.72 5.79-7.37 5.79a7.37 7.37 0 0 1 -4.12-1.18 4.16 4.16 0 0 1 -2.24.67c-2.28 0-4.95-1.41-4.95-5.37 0-2.47 1.75-4.37 3.08-5.46-.32-3.34 1.48-6.61 2.63-8.7a14.66 14.66 0 0 0 .72-1.42c1.38-5.61.66-11 .18-14.59a29.57 29.57 0 0 1 -.33-3.4 14.38 14.38 0 0 1 .78-4.65c.13-.42.25-.81.35-1.21a8.46 8.46 0 0 1 -.92-3.95c-4.09-7.17-6.09-15.33-7-21.06l-3.25 5.63c-2.71 5.22-2.05 16.5-1.56 20.4l-.72 2c-1.28 1.22-10.2 12.6-12.28 16.35a4.35 4.35 0 0 1 .38.7 7 7 0 0 1 4.5 4.36c1.65 4.12.76 10.67-.7 12.14a4.36 4.36 0 0 1 -2.93 1.21 3 3 0 0 1 -1.47.71h-.2-.32c-2.25 0-4-1.61-5.28-3.6a8.59 8.59 0 0 1 -6.21 2.93c-6.12 0-9.35-.25-10.83-.84a3.58 3.58 0 0 1 -2.31-2.76c-.43-2.51 1.76-4.72 2.72-5.56a10.42 10.42 0 0 1 4.92-2 5.18 5.18 0 0 1 1.73-2.04 6 6 0 0 1 1.19-3.05l-.09-.14a45.6 45.6 0 0 0 -3.81-5.5 35.68 35.68 0 0 0 -5.75-4.95 28.19 28.19 0 0 1 -2.82-2.26 9.93 9.93 0 0 1 -2.94-6.67 6.71 6.71 0 0 1 1.39-3.84c-.12-6.26 2.23-13.37 3.83-17.59-1 0-2 0-2.89-.09-.56 3.31-1.84 9.6-3.85 13.36a9.44 9.44 0 0 0 -1 7l-1 1.31c1.6 6.69-1.17 11.38-2.71 14-.16.27-.32.53-.44.76a10.39 10.39 0 0 0 -.65 5l-.26 1.35a17.74 17.74 0 0 0 -1.81 7.68c.18 4.8-1.09 6.84-2.54 8.3a5.68 5.68 0 0 1 .27 2.16c-.36 5.17-6.37 5.17-8.93 5.17zm36.11-42.4a38.84 38.84 0 0 1 2.79 4.84 12.79 12.79 0 0 0 3.77 3.8l5.14-8.34c1.2-1.9 1.59-4.25.42-11.77a54.6 54.6 0 0 1 -.59-8.07l-.26.47a12.28 12.28 0 0 0 -.92 4.2l-1.78 1.2a28.28 28.28 0 0 1 -5.74 11.53l-1.68-.34a18.19 18.19 0 0 1 -1.15 2.48zm51.76-36.77a39.05 39.05 0 0 0 -.88 9.2c.48-1 1.06-2.14 1.79-3.52 1.51-2.88 1.49-6.39.95-9.5a25.59 25.59 0 0 1 -1.86 3.82z" fill="currentColor"/><path d="m125.67 25.6a17.37 17.37 0 0 1 8.33 1.81c8.45 4.62 8.62 14.8 9.8 16.64s2 7 4 9.55a31.71 31.71 0 0 1 6.53 12.8c1.59 6.45 5.18 11.31 8.53 15.41a20 20 0 0 1 4 8.87 1.19 1.19 0 0 0 -.61-.21c-.45 0-.95.44-.73 2.56a13.48 13.48 0 0 0 2.72 6.44 3.31 3.31 0 0 0 -1.47-.35 3.27 3.27 0 0 0 -1.34.28 11.5 11.5 0 0 1 .59 6.18l-1.34-1c.84 1.44-.5 6.67-2.35 8.6a7.13 7.13 0 0 0 -1.79 4.6l-3.82 3.88a18.9 18.9 0 0 1 -1.18-5.78c.09-2.42-.75-2.35 3.44-10.29s-1.42-19.34-1.42-19.34a26.69 26.69 0 0 1 -3.77 11.63c-2.6 10.84.5 21.6.5 25.62a41.33 41.33 0 0 1 -.84 7.83c1.59 1.25 1.88 6-.84 11.93-1.36 3-2.09 9.8-2.09 13.31s2.26 6.29 2.26 7.95a4.74 4.74 0 0 1 -1.43 3s2.18 2.1 2.18 3.35-2.34 3.43-5 3.43-3.51-1.59-4.1-1.59-1.16 1.09-2.26 1.09-2.6-.5-2.6-3 3.35-4.44 3.35-4.44c-1.43-4 2.61-8.9 3-10.55 2-8.2-.08-15.73-.08-18.58s.92-4 1.25-6.28a6.14 6.14 0 0 1 -1-4.1c-7.2-12.14-8-28-8-28l-6.7 12c-3.68 7.11-1.84 21.85-1.84 21.85-1.5 1.42-14.57 17.91-13.22 18.75a1.63 1.63 0 0 1 .84 2c7.11.17 5.11 12 4.27 12.81a2.21 2.21 0 0 1 -1.57.53 4 4 0 0 1 -.94-.11c-.09.76-.59.84-.59.84h-.15c-3.52 0-5.79-8.46-5.79-8.46a1.73 1.73 0 0 1 -1.65 1.35h-.11a12.6 12.6 0 0 1 .75 3.77c-.17 1.08-2.6 2.67-4.69 2.67s-8.29 0-10-.67-.76-2.75 1.08-4.35 5.36-1.67 5.36-1.67c-.25-2.1 2.18-2.85 2.18-2.85-.67-2.51 1.76-4.1 1.76-4.1a88.34 88.34 0 0 0 -5.11-7.46c-2.6-3.09-7.29-5.94-8.71-7.36a7.63 7.63 0 0 1 -2.26-5 5.1 5.1 0 0 1 1.43-3c-.59-9 5.11-20.91 5.11-20.91a19.32 19.32 0 0 1 -3.37.22c-2.52 0-5.17-.22-5.17-.22s-1.34 9.87-3.94 14.73a11.78 11.78 0 0 0 -1.06 8.86 6.59 6.59 0 0 1 -1.5-.33c2.5 7.26-1.13 12.06-2.5 14.49s-.92 6.36-.92 6.36a19.89 19.89 0 0 0 -2.1 8.87c.18 4.61-1.09 5.87-2.26 6.95s.12 1.42 0 3.26-1.46 2.93-6.56 2.93-9.38-.91-9.46-3.84 8.37-4 8.37-4c-.68-3.35 2.92-5.36 3.84-6.53s1.6-3 3.19-9.9-.1-9.97-.1-11.89.75-3.77.75-4.77-1.75-2.1-1.75-4.29a7.23 7.23 0 0 1 1.17-3.83c-3.35-9 .31-16.34-.13-20-.18-1.53-.87-2-1.66-2a5.3 5.3 0 0 0 -2.79 1.27 23.08 23.08 0 0 1 -3.07 1.76 6.93 6.93 0 0 0 -.38-3c0 1.51-2.07 3.83-2.07 3.83-1.32-3.14-7.22-4.59-11.09-7.66s-7.62-9.92-7.62-9.92a3.83 3.83 0 0 0 -1.13 2.39 11.69 11.69 0 0 1 -2.2-7.16c-.26.12-.82 1.31-.82 1.31-6-11.87-1.7-23.86-1.7-23.86-.7 0-1.83 1.12-1.83 1.12a14.22 14.22 0 0 1 4.32-7.04h-.52a8.52 8.52 0 0 1 -1.24-.08 16.17 16.17 0 0 0 5-7.22c-1.26-1.89-3.45-2.39-6.47-2.39s-3.58-1.44-3.58-1.44c-3.51-.19-2.51-3.06-2.51-3.06a.69.69 0 0 1 -.28.06c-.27 0-.64-.17-.64-1.09 0-1.44 1.67-2.26 1.67-2.26.5-2.32 1.57-2.83 1.57-2.83 0-.88.89-1.64 3-2.39s9.17-.56 11.62-.75 3-1.44 3-1.44a1.62 1.62 0 0 0 -.81-.69 4.28 4.28 0 0 1 4.15-3.08 4.76 4.76 0 0 1 1.37.19c.19-1.25 1.95-1.76 1.95-1.76a2.9 2.9 0 0 0 1.19 2.06c.62-.84 2.45-1.05 2.45-1.05a8.9 8.9 0 0 0 -.75 1.31h.16c2.08 0 3.66 1.29 5.75 3.45a15.46 15.46 0 0 1 3 4.07 3.65 3.65 0 0 1 .19 4.46c2.2 1.5 3.46 4.08 3.46 7.41a52.41 52.41 0 0 1 -1.07 8.41 3.12 3.12 0 0 0 -1.32-.63c1.64 3.26-1 8.66-1 8.66.13-.76-.75-1.51-.75-1.51-.88 1.77-2.13 7.67-1.76 9.43.27 1.22 1.89 1.41 2.83 1.41a5.39 5.39 0 0 0 .69 0c-.21-4.35.71-8.61 5.06-16.07s8.8-7.53 14.24-11.3 9.54-13 14.06-16.16c3.25-2.29 12.15-5.68 20-5.68m-6.88 80.74h-1.5c-.34 4.19-2.67 7-3.77 9.13a14.46 14.46 0 0 0 -1.17 5.19 5.26 5.26 0 0 1 -1.42-1 25.06 25.06 0 0 1 -5.63 12.31c-.51-1.8-1.41-1.87-1.41-1.87a15.65 15.65 0 0 1 -2.55 5.69c.67.5 2 2.51 3.6 5.69s6.61 6 6.61 6l6.41-10.37c1.59-2.52 2-5.36.75-13.4a71.45 71.45 0 0 1 0-17.41m6.92-85.44c-9.17 0-19 3.91-22.74 6.55-2.8 2-5.06 5.14-7.46 8.49-2.16 3-4.39 6.13-6.57 7.65a37.79 37.79 0 0 1 -4.13 2.42 32.7 32.7 0 0 0 -5.41 3.28v-.16a14 14 0 0 0 -2.81-8.79 8.34 8.34 0 0 0 -1.49-5.52 21.35 21.35 0 0 0 -3.62-4.9c-2.13-2.21-4.69-4.55-8.34-4.86l-.75-1.31a10.61 10.61 0 0 0 -2.27.54l-2.08-1.43a8.4 8.4 0 0 0 -2.78 1.41 8.92 8.92 0 0 0 -7.44 5.26h-1.56c-4.58.09-7.74.2-9.78.92-2.87 1-4.75 2.45-5.61 4.29a9 9 0 0 0 -1.46 2.51 7 7 0 0 0 -2.37 5.14 6.32 6.32 0 0 0 1 3.33 6.42 6.42 0 0 0 1 2.36 6.85 6.85 0 0 0 3.87 2.75 9.34 9.34 0 0 0 5.71 1.8 14.52 14.52 0 0 1 -1.43 1.38l.42 1.37a18.18 18.18 0 0 0 -4.51 8.37l1.35.73c-1.1 4.6-2.56 14.84 2.65 25.1h.6a15.35 15.35 0 0 0 2.9 6.63l2.14-.62c1.62 2.57 4.38 6.53 7.39 8.93a36.21 36.21 0 0 0 5.92 3.6c1.36.7 3.41 1.76 3.83 2.34a1.42 1.42 0 0 1 -.07-.14l7.84 1.32.27-.31.72.52h.12a31.4 31.4 0 0 0 .42 14.41 11.76 11.76 0 0 0 -.81 4.21 9.33 9.33 0 0 0 1.49 5 18.07 18.07 0 0 0 -.56 4.08 13.23 13.23 0 0 0 .38 2.81 16.25 16.25 0 0 1 -.09 8c-.41 1.76-1.62 7-2.25 8l-.45.41a13.75 13.75 0 0 0 -3.94 5.1c-4.32 1.06-9 3.32-8.89 8.15 0 1.6.72 5.51 6 7.34a25.21 25.21 0 0 0 8.16 1.08c3.28 0 5.53-.39 7.27-1.27a7.08 7.08 0 0 0 4-6.05 7.92 7.92 0 0 0 -.06-1.65c1.57-2 2.49-4.59 2.33-9a15.26 15.26 0 0 1 1.55-6.52l.51-2.68a8.63 8.63 0 0 1 .36-3.58l.41-.71a21.93 21.93 0 0 0 3.45-9.97 12.42 12.42 0 0 0 2.06 2.72 27.05 27.05 0 0 0 3.07 2.48 34.73 34.73 0 0 1 5.36 4.58 37.59 37.59 0 0 1 2.95 4.15 8.34 8.34 0 0 0 -.62 1.78 8.07 8.07 0 0 0 -1 1.21 11.64 11.64 0 0 0 -4.93 2.37c-2.67 2.31-4 5.12-3.51 7.72a6 6 0 0 0 3.76 4.56c1.52.6 4.09 1 11.7 1a11.13 11.13 0 0 0 5.92-1.86 7.6 7.6 0 0 0 5.57 2.54h.48l.41-.05a5.35 5.35 0 0 0 2-.75 6.59 6.59 0 0 0 3.72-1.83c2.41-2.43 3-10.11 1.21-14.67a9.79 9.79 0 0 0 -3.92-4.81c2.91-4.37 9.43-12.68 10.76-14l1.43-4c-.63-5.12-.83-14.79 1.32-19v-.08a62.63 62.63 0 0 0 5.72 15 11.08 11.08 0 0 0 .76 3.51c0 .11-.06.22-.1.33a16.86 16.86 0 0 0 -.88 5.34 29 29 0 0 0 .35 3.71c.45 3.36 1.12 8.4-.09 13.55-.11.23-.36.68-.55 1-1.15 2.11-2.9 5.28-3 8.81a9.13 9.13 0 0 0 -3 6.48c0 4.55 3 7.72 7.3 7.72a6.19 6.19 0 0 0 2.17-.38 9.92 9.92 0 0 0 4.19.89c5 0 9.72-4 9.72-8.14a7.44 7.44 0 0 0 -1.18-3.78 8 8 0 0 0 .43-2.58 10.89 10.89 0 0 0 -1.21-4.44 9.68 9.68 0 0 1 -1.05-3.51c0-3.47.77-9.39 1.67-11.35 2.65-5.79 3.14-11.3 1.53-14.89a46.79 46.79 0 0 0 .55-5.6l1.1.23 3.83-3.86 1.35-3.38v.11a2.44 2.44 0 0 1 .5-1.38 15.84 15.84 0 0 0 3.32-6.52 17.33 17.33 0 0 0 .52-2.79l1-.34a15.5 15.5 0 0 0 -.43-8.15l1.74-2.16a8.94 8.94 0 0 1 -1.67-3.95 2.93 2.93 0 0 1 0-.48 3.92 3.92 0 0 1 -3.92 3.12 3.6 3.6 0 0 1 -2.17-.69l7.35-4.49a24.55 24.55 0 0 0 -5-11.2c-3-3.62-6.23-8-7.61-13.55a36.07 36.07 0 0 0 -7.34-14.51v-.06a19.33 19.33 0 0 1 -1.88-4.57 22.31 22.31 0 0 0 -1.76-4.3c-.1-.32-.25-1-.37-1.44-1-4.08-3.06-12.58-11.31-17.09a22 22 0 0 0 -10.61-2.39zm-16.67 114.03a32.5 32.5 0 0 0 5.29-9.32c.94 6.47.42 8-.25 9l-3.76 6.06a5.67 5.67 0 0 1 -1.09-1.32c-.82-1.66-1.54-2.94-2.16-3.93.14-.28.27-.57.4-.88l1.59.33z" fill="#32363b"/></svg>