<svg enable-background="new 0 0 200 200" viewBox="0 0 200 200" xmlns="http://www.w3.org/2000/svg"><path d="m101.6 37.1-75 129.9h150z" class="u-fill-current-color" fill="currentColor"/><path clip-rule="evenodd" d="m83.2 112.5-.1.1h-.1-.1s0 0 0-.1l-.1-.1v-.1-.1s0 0 0-.1l.1-.1h.1.1l.1.1v.1.1zm-.2-.2c0-.1-.1-.1-.2 0-.1.1-.1.1 0 .2.1.1.2.1.2 0 .1 0 .1-.1 0-.2z" fill="#1793d1" fill-rule="evenodd"/><g stroke="#32363b" stroke-linecap="round" stroke-linejoin="round"><path clip-rule="evenodd" d="m55.3 75.2v53.7l46.3 26.6 46.3-26.6v-53.7l-46.3-26.6z" fill="#fff" fill-rule="evenodd" stroke-width="4.37"/><path d="m55.3 75.2 46.3 24.9 46.3-24.9" fill="#fff" stroke-width="4.37"/><path d="m101.6 100.2v55.4" fill="#fff" stroke-width="4.37"/><path d="m79.5 61.4 46.3 25.9" fill="none" stroke-width="2.6833"/></g><path clip-rule="evenodd" d="m68.6 134.5v-26.8l6.4 7.8 6.2-1.2v27.3z" class="u-fill-current-color" fill="currentColor" fill-rule="evenodd"/></svg>