<svg viewBox="0 0 200 200" xmlns="http://www.w3.org/2000/svg"><path d="m108.79 33.79h39.55v26.37h-39.55a13.19 13.19 0 0 1 0-26.37z" fill="currentColor"/><path d="m91.21 166.21h-39.84v-26.37h39.84a13.19 13.19 0 0 1 0 26.37z" fill="currentColor"/><path d="m55.76 51.37h31.5a22 22 0 0 0 21.53 17.63h43.94a4.4 4.4 0 0 0 4.4-4.4v-4.44h13.48a4.4 4.4 0 0 0 4.39-4.4v-17.58a4.4 4.4 0 0 0 -4.39-4.39h-13.48v-4.4a4.4 4.4 0 0 0 -4.4-4.39h-43.94a22 22 0 0 0 -21.53 17.58h-31.5a30.76 30.76 0 0 0 0 61.52h88.24a22.27 22.27 0 0 1 0 44.53h-31.26a22 22 0 0 0 -21.53-17.58h-44.21a4.4 4.4 0 0 0 -4.39 4.4v4.39h-13.22a4.4 4.4 0 0 0 -4.39 4.4v17.58a4.4 4.4 0 0 0 4.39 4.39h13.19v4.4a4.4 4.4 0 0 0 4.42 4.39h44.21a22 22 0 0 0 21.53-17.58h31.26a31.06 31.06 0 0 0 0-62.11h-88.24a22 22 0 0 1 0-43.94zm101.37-8.79h9.08v8.79h-9.08zm-48.34-8.79h39.55v26.37h-39.55a13.19 13.19 0 0 1 0-26.37zm-66.21 123.63h-8.79v-8.79h8.79zm48.63 8.79h-39.84v-26.37h39.84a13.19 13.19 0 0 1 0 26.37z" fill="#32363b"/><g fill="#fff"><path d="m91.21 148.63h-26.66a4.4 4.4 0 0 0 0 8.79h26.66a4.4 4.4 0 1 0 0-8.79z"/><path d="m135.16 42.58h-26.37a4.4 4.4 0 1 0 0 8.79h26.37a4.4 4.4 0 0 0 0-8.79z"/></g></svg>