<svg viewBox="0 0 200 200" xmlns="http://www.w3.org/2000/svg"><path d="m33.79 38.18a4.4 4.4 0 0 1 4.39-4.39h83.82v26.37h-88.21z" fill="currentColor"/><path d="m166.21 60.16h-35.45v-26.37h31.06a4.4 4.4 0 0 1 4.39 4.39z" fill="currentColor"/><g fill="#32363b"><path d="m144 86.82h-17.63a4.4 4.4 0 1 0 0 8.79h2.69l-11.48 34.44-11.48-34.44h2.69a4.4 4.4 0 0 0 0-8.79h-17.58a4.4 4.4 0 0 0 0 8.79h2.69l-11.48 34.44-11.48-34.44h2.69a4.4 4.4 0 1 0 0-8.79h-17.58a4.4 4.4 0 0 0 0 8.79h5.63l16.57 49.72a4.39 4.39 0 0 0 8.34 0l13.41-40.22 13.41 40.22a4.39 4.39 0 0 0 8.34 0l16.57-49.72h5.68a4.4 4.4 0 0 0 0-8.79z"/><path d="m161.82 25h-123.64a13.19 13.19 0 0 0 -13.18 13.18v123.64a13.19 13.19 0 0 0 13.18 13.18h123.64a13.19 13.19 0 0 0 13.18-13.18v-123.64a13.19 13.19 0 0 0 -13.18-13.18zm-128 13.18a4.4 4.4 0 0 1 4.39-4.39h83.79v26.37h-88.21zm132.39 123.64a4.4 4.4 0 0 1 -4.39 4.39h-123.64a4.4 4.4 0 0 1 -4.39-4.39v-92.82h132.42zm0-101.66h-35.45v-26.37h31.06a4.4 4.4 0 0 1 4.39 4.39z"/><path d="m56.05 42.58h-9.05a4.4 4.4 0 0 0 0 8.79h9.08a4.4 4.4 0 1 0 0-8.79z"/><path d="m82.42 42.58h-8.79a4.4 4.4 0 0 0 0 8.79h8.79a4.4 4.4 0 1 0 0-8.79z"/><path d="m108.79 42.58h-8.79a4.4 4.4 0 0 0 0 8.79h8.79a4.4 4.4 0 0 0 0-8.79z"/></g></svg>