<svg viewBox="0 0 200 200" xmlns="http://www.w3.org/2000/svg"><path d="m100 142.62c-41.42 0-75-22.48-75-50.23s33.58-50.23 75-50.23 75 22.49 75 50.23-33.58 50.23-75 50.23zm11.48-80.82c-31.48 0-57 15.38-57 34.34s25.53 34.34 57 34.34 54.72-10.48 54.72-34.34-23.2-34.34-54.72-34.34z" fill="currentColor" fill-rule="evenodd"/><path d="m138.6 158.94-13.52-25.39a29 29 0 0 0 -3.88-5.41c-1.28-1-1.37-1-2-1h-4.52v30.72l-2.35 2.35h-25.53l-2.35-2.35v-84.51l2.35-2.35h51.38c.3 0 25.76.75 25.76 25 0 15.2-9.61 21.66-16.8 24.37l.32.16a16.07 16.07 0 0 1 4.29 3.08 12.51 12.51 0 0 1 2 2.9l17.84 30.07-2 3.55h-28.91zm-23.6-55.26h13.14a4.6 4.6 0 0 0 4.83-5c0-4.08-2.91-4.69-4.65-4.69h-13.32z" fill="currentColor" fill-rule="evenodd"/><path d="m138.18 73.35s23.4.43 23.4 22.69-22.36 23.96-22.36 23.96a56.1 56.1 0 0 1 7.18 2.71 13.7 13.7 0 0 1 3.64 2.6 9.74 9.74 0 0 1 1.66 2.39l17.89 30.16h-28.91l-13.52-25.4s-2.77-4.75-4.48-6.13c-1.42-1.15-2-1.56-3.43-1.56h-6.87v33.07h-25.58v-84.49zm-25.59 32.65h15.5s7.18 0 7.18-7.31c0-6.73-5.88-7-7-7h-15.67v14.31m25.59-37.38h-51.39l-4.7 4.7v84.48l4.7 4.7h25.59l4.7-4.7v-28.35h2c.23.17.53.42.65.51a30.46 30.46 0 0 1 3.33 4.78l13.47 25.31 4.16 2.49h28.91l4-7.11-17.79-30a15.15 15.15 0 0 0 -2.39-3.38 15.74 15.74 0 0 0 -1.35-1.25l.63-.35c6.18-3.54 13.55-10.64 13.55-24.4 0-13.92-7.79-20.68-14.33-23.91a35.63 35.63 0 0 0 -13.69-3.48zm-20.89 32.7v-4.94h10.95c2.3 0 2.3 1.3 2.3 2.34 0 2.47-1.69 2.57-2.53 2.6z" fill="#32363b"/></svg>