<svg viewBox="0 0 200 200" xmlns="http://www.w3.org/2000/svg"><path d="m29.62 30.42h145.63v145.63h-145.63z" fill="currentColor"/><g fill="#32363b"><path d="m173.06 32.61v141.25h-141.25v-141.25zm4.37-4.37h-150v150h150z"/><path d="m128.2 145.43c3 4.93 7 8.56 13.9 8.56 5.84 0 9.57-2.92 9.57-7 0-4.83-3.83-6.54-10.26-9.35l-3.52-1.52c-10.18-4.29-16.89-9.72-16.89-21.19 0-10.58 8-18.62 20.64-18.62 9 0 15.41 3.12 20.05 11.28l-11 7c-2.41-4.33-5-6-9.07-6s-6.74 2.62-6.74 6c0 4.23 2.61 5.94 8.66 8.56l3.53 1.51c12 5.13 18.73 10.37 18.73 22.14 0 12.69-10 19.64-23.35 19.64-13.09 0-21.55-6.23-25.69-14.41zm-49.8 1.22c2.22 3.93 4.23 7.25 9.07 7.25 4.64 0 7.56-1.81 7.56-8.86v-47.93h14.09v48.12c0 14.6-8.56 21.24-21.05 21.24-11.28 0-17.82-5.84-21.14-12.88z"/></g></svg>