<svg xmlns="http://www.w3.org/2000/svg" id="f2e31981-bda8-4288-af7f-d26d90da8217" x="0" y="0" version="1.1" viewBox="0 0 153 153" xml:space="preserve">
  <path fill="#060606" d="M152.9 96.3c-1.1-10.4-9.4-18.5-19.8-19.4 4.8-18.9-6.6-38.1-25.5-42.9-12.2-3.1-25 .5-33.9 9.4v18.1h22.9v19.4h22.9v24.4H22.9V85.9H12.4c-4.1 14.3 4.2 29.1 18.5 33.2 2 .6 4.1.9 6.1 1l96.3-.1c12-1.2 20.8-11.8 19.6-23.7z"/>
  <path d="M50.8 66.5h40.8v14.4H50.8zM27.9 47.1h40.8v14.4H27.9zM5 66.5h40.8v14.4H5zM27.9 85.9h40.8v14.4H27.9zM73.7 85.9h40.8v14.4H73.7z" fill="currentColor"/>
</svg>
