<svg viewBox="0 0 200 200" xmlns="http://www.w3.org/2000/svg"><path d="m137 81.36a8.82 8.82 0 0 0 -1 5.93l2.24 12.71-12.08 4.41a8.71 8.71 0 0 0 -3.84 2.76s-.09.12-.14.17a10.26 10.26 0 0 0 -.63.94l-6.41 11.14-12.09-4.42a8.83 8.83 0 0 0 -6 0l-12.05 4.4-6.43-11.13a8.72 8.72 0 0 0 -1.24-1.64.86.86 0 0 0 -.13-.14 8.78 8.78 0 0 0 -3.25-2.09l-12.13-4.4 2.18-12.65a8.85 8.85 0 0 0 -1-5.92l-6.45-11.13 9.84-8.3a8.75 8.75 0 0 0 3-5.21l2.23-12.66h12.85a8.84 8.84 0 0 0 5.65-2.07l9.88-8.26 9.85 8.25a8.79 8.79 0 0 0 5.65 2.06h12.87l2.24 12.66a8.79 8.79 0 0 0 3 5.2l9.86 8.26z" fill="currentColor"/><path d="m149.1 63.48-9.86-8.26-2.24-12.66a8.79 8.79 0 0 0 -8.66-7.26h-12.87l-9.86-8.25a8.76 8.76 0 0 0 -11.3 0l-9.85 8.27h-12.85a8.8 8.8 0 0 0 -8.61 7.31l-2.27 12.66-9.84 8.28a8.77 8.77 0 0 0 -2 11.13l6.43 11.13-2.17 12.67a8.77 8.77 0 0 0 5.67 9.78l10.84 3.94v54a8.79 8.79 0 0 0 13.81 7.23l16.43-11.4 16.38 11.38a8.8 8.8 0 0 0 13.81-7.23v-53.92l11.16-4.07a8.8 8.8 0 0 0 5.65-9.8l-2.25-12.66 6.42-11.14a8.77 8.77 0 0 0 -2-11.13zm-46.7 89.6a4.41 4.41 0 0 0 -5 0l-18.9 13.12v-40.87a8.82 8.82 0 0 0 9.5 2.33l12.08-4.41 12.09 4.39a8.82 8.82 0 0 0 9.16-2v40.56zm34.6-71.72a8.82 8.82 0 0 0 -1 5.93l2.24 12.71-12.08 4.41a8.71 8.71 0 0 0 -3.84 2.76s-.09.12-.14.17a10.26 10.26 0 0 0 -.63.94l-6.41 11.14-12.09-4.42a8.83 8.83 0 0 0 -6 0l-12.05 4.4-6.43-11.13a8.72 8.72 0 0 0 -1.24-1.64.86.86 0 0 0 -.13-.14 8.78 8.78 0 0 0 -3.25-2.09l-12.13-4.4 2.18-12.65a8.85 8.85 0 0 0 -1-5.92l-6.45-11.13 9.84-8.3a8.75 8.75 0 0 0 3-5.21l2.23-12.66h12.85a8.84 8.84 0 0 0 5.65-2.07l9.88-8.26 9.85 8.25a8.79 8.79 0 0 0 5.65 2.06h12.87l2.24 12.66a8.79 8.79 0 0 0 3 5.2l9.86 8.26z" fill="#32363b"/><path d="m100 52.35a25.36 25.36 0 1 0 25.36 25.36 25.39 25.39 0 0 0 -25.36-25.36z" fill="#fff"/></svg>