<svg enable-background="new 0 0 400 400" viewBox="0 0 400 400" xmlns="http://www.w3.org/2000/svg"><path d="m358.6 271.5h-12.5v-141.3l6.3-10.8-6.3-3.6v-7.4h-12.7l-120.7-69.7-1-1.8 5.8-10-14.2-8.2-3.2 5.5-3.2-5.5-14.2 8.2 5.8 10-1 1.7-121 69.8h-12.6v7.3l-6.3 3.6 6.3 10.8v139.8l-1 1.7h-11.6v16.4h6.4l-3.2 5.5 14.2 8.2 5.8-10.1h1.8l139.9 80.8 7.4-12.9 117.6-67.9h4.1l5.8 10.1 14.2-8.2-3.2-5.5h6.3v-16.5zm-288.3-22.6v-123.8l107.2-61.9zm129.7-191.8 123.8 214.4h-247.6zm109 230.9-108 62.4-108.1-62.4zm-86.4-224.6 107 61.8v123.6z" fill="#32363b"/><path d="m367.9 297c-9.5 16.5-30.7 22.2-47.3 12.7s-22.1-30.7-12.6-47.3 30.7-22.2 47.3-12.7c16.6 9.6 22.3 30.8 12.6 47.3m-276-159.4c-9.5 16.5-30.7 22.2-47.3 12.7-16.5-9.6-22.2-30.8-12.6-47.3s30.7-22.2 47.3-12.7c16.5 9.6 22.1 30.7 12.6 47.3m-59.8 159.4c-9.5-16.5-3.9-37.7 12.7-47.3 16.5-9.5 37.7-3.9 47.3 12.7 9.5 16.5 3.9 37.7-12.7 47.3-16.7 9.5-37.8 3.8-47.3-12.7m276-159.4c-9.5-16.5-3.9-37.7 12.7-47.3 16.5-9.5 37.7-3.9 47.3 12.7 9.5 16.5 3.9 37.7-12.7 47.3-16.6 9.5-37.8 3.8-47.3-12.7m-108.1 256.4c-19.1 0-34.6-15.5-34.6-34.6s15.5-34.6 34.6-34.6 34.6 15.5 34.6 34.6c0 19-15.5 34.6-34.6 34.6m0-318.8c-19.1 0-34.6-15.5-34.6-34.6s15.5-34.6 34.6-34.6 34.6 15.5 34.6 34.6-15.5 34.6-34.6 34.6" fill="#2eba6e" class="u-fill-current-color" stroke="#32363b" stroke-linecap="round" stroke-linejoin="round" stroke-width="9.772"/></svg>