<svg viewBox="0 0 200 200" xmlns="http://www.w3.org/2000/svg"><path d="m140.28 166.05c14.82-12.85 27.13-24.86 34.6-41.25-18.73 14.87-39.27 1.65-59 4.44l6.92 12.1c-32.77 5.27-62.68 3.12-90.52-16 1.64 15 5.38 20.07 19 25.61 21.8 8.85 44.51 9.83 67.51 6.45 8.49-1.29 16.95-4.05 21.49 8.65zm34.43-91.56c-.5-17.68-10.62-24.8-23.86-28.86-21-6.43-42.46-6.4-63.89-3.5-8.65 1.17-15.83 1.45-19.8-8.13-14.81 11.34-29.03 22-35.89 39.87 18.86-13 39.1-3 59.46-4.17l-6.64-12.86c32.51-4.84 62.58-3.9 90.62 17.65z" fill="#32363b"/><path d="m140.28 166.05c-4.54-12.7-13-9.94-21.42-8.7-23 3.38-45.71 2.4-67.51-6.45-13.65-5.54-17.39-10.62-19-25.61 27.84 19.17 57.75 21.32 90.52 16l-6.92-12.1c19.69-2.79 38.6-2.55 59-4.44-7.54 16.44-19.85 28.45-34.67 41.3z" fill="#32363b"/><path d="m174.71 74.49c-28.04-21.55-58.11-22.49-90.62-17.65l6.64 12.86c-20.36 1.2-39.23 1.68-59.46 4.17 6.86-17.87 21.08-28.53 35.89-39.87 4 9.63 11.15 9.35 19.8 8.18 21.43-2.9 42.93-2.93 63.89 3.5 13.24 4.01 23.36 11.13 23.86 28.81z" fill="#32363b"/><g fill="currentColor"><path d="m25 85.45h14.44v1.55h-12.6v10h10.58v1.59h-10.58v11.63h13v1.59h-14.84z"/><path d="m77 98.18-7.37-12.73h2l4.37 7.78c.7 1.2 1.26 2.14 2.13 3.6h.16c.77-1.46 1.26-2.4 2-3.6l4.33-7.78h1.89l-7.43 12.83 7.92 13.56h-2l-4.6-8.1c-.72-1.29-1.49-2.58-2.42-4.19h-.16c-.85 1.61-1.55 2.9-2.26 4.19l-4.56 8.1h-1.92z"/><path d="m118.25 85.45h1.84v26.39h-1.84z"/><path d="m154.52 85.45h2.61l5.51 15.48q1.05 2.92 2.08 5.87h.17c.69-2 1.31-3.92 2-5.87l5.49-15.48h2.62v26.39h-1.78v-17.35c0-2.14.13-4.92.24-7.12h-.16l-2.06 5.88-5.69 15.75h-1.55l-5.73-15.71-2.08-5.88h-.19c.1 2.2.23 5 .23 7.12v17.35h-1.7z"/></g></svg>