<svg viewBox="0 0 200 200" xmlns="http://www.w3.org/2000/svg"><path d="m175 121.05c-1.42 2.58-2.52 5.43-4.35 7.68a12.37 12.37 0 0 1 -9.73 4.38c-4.08.06-8.16 0-12.43 0v-14.11h11.21v-59.26h-119.9v59.26h4.11c26.55 0 53.11.25 79.66-.13 11.18-.15 17.58 7.83 16.74 17-.15 1.65 0 3.33 0 5a14.52 14.52 0 0 1 -14.7 14.13c-16.78 0-33.56 0-50.33 0-10.94 0-17.23-7.1-16-18.22h14.1l.61 3.39h51.41v-7.12h-3.87c-26 0-52-.21-78 .11-9.3.11-15.62-3.09-18.54-12.12v-64.04c3.01-9 9.29-12.08 18.57-12 38.4.27 76.81.11 115.21.13a22.9 22.9 0 0 1 4.61.38c6.34 1.32 9.62 5.81 11.62 11.49z" fill="#32363b"/><path d="m58.81 102.95h15v12.07h-15z" fill="currentColor"/></svg>