<svg viewBox="0 0 200 200" xmlns="http://www.w3.org/2000/svg"><path d="m171.67 114.34-49-10.31v-.32a22 22 0 0 0 -2.58-10.32l39.65-30.84a4.28 4.28 0 1 0 -5.26-6.76l-39.65 30.83a22.6 22.6 0 0 0 -10.64-5.26v-50.29a4.3 4.3 0 1 0 -8.6 0v50.4a20.72 20.72 0 0 0 -10.31 5l-38.9-31.22a4.27 4.27 0 0 0 -5.48 6.55l38.9 31.27a22.23 22.23 0 0 0 -2.58 10.64v1l-48.89 11.35a4.18 4.18 0 0 0 .86 8.28 1.75 1.75 0 0 0 1-.22l48.89-11.39a22.21 22.21 0 0 0 6.87 8.81l-22.48 44.92a4.07 4.07 0 0 0 1.82 5.54 3.61 3.61 0 0 0 1.83.33 4.57 4.57 0 0 0 3.76-2.26l22.67-44.7a24.17 24.17 0 0 0 6.13 1 27.85 27.85 0 0 0 6-.75l22.14 45.12a4.35 4.35 0 0 0 3.76 2.48 10.67 10.67 0 0 0 1.83-.33 4 4 0 0 0 1.82-5.58l-21.7-45.45a22.28 22.28 0 0 0 7.3-9.35l49 10.31h1a4.13 4.13 0 0 0 4.08-3.33 4.33 4.33 0 0 0 -3.24-5.15zm-82-18.91 10.33-4.83 10.31 4.83 2.58 11.07-7.09 9h-11.49l-7.31-8.78z" fill="#32363b"/><path d="m100 153.35a49.75 49.75 0 1 1 49.75-49.75 49.85 49.85 0 0 1 -49.75 49.75zm0-90.9a41.26 41.26 0 1 0 41.26 41.26 41.27 41.27 0 0 0 -41.26-41.26z" fill="currentColor"/></svg>