<svg viewBox="0 0 200 200" xmlns="http://www.w3.org/2000/svg"><path d="m102.18 112.76c-19-.17-36.74-2.55-50.19-6.75-12.79-4-20.43-9.39-20.43-14.46v-23.43c0-5.06 7.64-10.46 20.43-14.45 14-4.37 32.57-6.77 52.38-6.77s38.41 2.4 52.38 6.77c12.79 4 20.43 9.39 20.43 14.45v23.43c0 4.15-5.21 8.6-14.31 12.28l-58-14.4a2.46 2.46 0 0 0 -.53-.06 2.22 2.22 0 0 0 -1.35.46 2.2 2.2 0 0 0 -.84 1.73z" fill="currentColor"/><path d="m104.37 49.09c19.59 0 38 2.37 51.72 6.66 13.91 4.36 18.91 9.39 18.91 12.37v23.43c0 2.4-3.26 6.23-12.29 10l-57.29-14.24a4.14 4.14 0 0 0 -1-.13 4.38 4.38 0 0 0 -4.42 4.37v19c-17.94-.33-34.62-2.65-47.35-6.62-13.95-4.36-18.9-9.39-18.9-12.38v-23.43c0-3 5-8 18.89-12.37 13.76-4.29 32.13-6.66 51.73-6.66m0-4.37c-41.43 0-75 10.49-75 23.4v23.43c0 12.92 33.58 23.41 75 23.41v-23.41l58.63 14.57c10.21-4 16.35-9.06 16.35-14.57v-23.43c0-12.91-33.59-23.4-75-23.4z" fill="#32363b"/><path d="m106.55 136.66v-18.9l55.94 13.9a2.39 2.39 0 0 0 .53.06 2.22 2.22 0 0 0 .8-.15c5.89-2.31 10.37-4.93 13.36-7.77v14.57c0 4.14-5.21 8.6-14.32 12.28z" fill="currentColor"/><path d="m108.74 120.56 53.26 13.22a4.27 4.27 0 0 0 1.06.13 4.45 4.45 0 0 0 1.6-.3 53.46 53.46 0 0 0 10.37-5.3v10.06c0 2.39-3.26 6.22-12.29 10l-54-13.4zm70.63-5.6c0 5.51-6.14 10.57-16.35 14.57l-58.66-14.53v23.41l58.64 14.53c10.21-4 16.35-9.06 16.35-14.57v-23.37z" fill="#32363b"/><path d="m102.18 159.56c-19-.17-36.75-2.55-50.2-6.74-12.79-4-20.42-9.39-20.42-14.45v-14.52c3.88 3.7 10.31 7 19.12 9.74 13.86 4.33 32.07 6.79 51.5 7z" fill="currentColor"/><path d="m33.74 128.34a62.32 62.32 0 0 0 16.26 7.34c13.54 4.23 31.14 6.7 50 7v14.64c-18-.32-34.64-2.62-47.36-6.59-14-4.35-18.9-9.38-18.9-12.36v-10m-4.37-13.37v23.41c0 12.92 33.57 23.39 75 23.39v-23.43c-41.42 0-75-10.5-75-23.41z" fill="#32363b"/></svg>