<svg xmlns="http://www.w3.org/2000/svg" viewBox="0 0 100 100">
  <title>CLI</title>
  <path fill="none" stroke="#010101" stroke-linejoin="round" stroke-width="4.3483" d="M90 56.9V43.1h-9.6c-.7-3.1-1.8-6-3.4-8.7-.2-.3-.4-.7-.6-1l6.8-6.8-9.8-9.7-6.8 6.8c-3-1.9-6.3-3.2-9.7-4V10H43.1v9.6c-3.4.8-6.7 2.1-9.7 4l-6.8-6.8-9.7 9.7 6.8 6.8c-.2.3-.4.7-.6 1-1.6 2.7-2.7 5.6-3.4 8.7H10v13.8h9.6c.8 3.4 2.1 6.7 4 9.7l-6.8 6.8 9.7 9.8 6.8-6.8c3 1.9 6.3 3.2 9.7 4V90h13.8v-9.6c3.4-.8 6.7-2.1 9.7-4l6.8 6.8 9.8-9.8-6.8-6.8c1.9-3 3.2-6.3 4-9.7H90z"/>
  <path fill="currentColor" d="M43.3 65.1c-.4.1-.6.5-.6.9v3.4c0 .5-.4.9-.9.9h-3.5c-.5 0-.9-.4-.9-.9v-3.1c0-.4-.3-.8-.7-.9-2.6-.4-5-1.4-7.1-3-.4-.3-.5-.8-.2-1.2l2.6-4c.3-.4.8-.5 1.3-.3 1.7 1.3 3.7 2 5.8 2.1 2.4 0 3.3-.8 3.3-2.7 0-3.8-12.3-4.3-12.3-12.7 0-4.6 2.5-7.8 6.7-9 .4-.1.7-.5.7-.9v-3.3c0-.5.3-.9.8-.9h3.5c.5 0 .9.3.9.8V33.6c0 .4.3.8.7.9 2.2.5 4.2 1.7 5.8 3.3.4.3.4.9.1 1.3l-2.9 3.3c-.3.4-.9.4-1.3.1-1.2-1.1-2.7-1.7-4.3-1.7-2 0-3 .6-3 2.5 0 3.6 12.3 3.8 12.3 12.5 0 4.5-2.3 8-6.8 9.3z"/>
  <path fill="#010101" d="M53.6 54.6h17.7c.7 0 1.2.5 1.2 1.2v2.9c0 .7-.5 1.2-1.2 1.2H53.6c-.7 0-1.2-.5-1.2-1.2v-2.9c0-.7.5-1.2 1.2-1.2z"/>
</svg>