<?xml version="1.0" encoding="utf-8"?>
<!-- Generator: Adobe Illustrator 23.0.4, SVG Export Plug-In . SVG Version: 6.00 Build 0)  -->
<svg version="1.1" id="Layer_1" xmlns="http://www.w3.org/2000/svg" xmlns:xlink="http://www.w3.org/1999/xlink" x="0px" y="0px"
	 viewBox="0 0 100 100" style="enable-background:new 0 0 100 100;" xml:space="preserve">
<style type="text/css">
	.st0{fill:none;stroke:#010101;stroke-width:4.3483;stroke-linejoin:round;}
	.st1{fill:#10B057;}
	.st2{fill:#010101;}
</style>
<title>CLI</title>
<g>
	<g id="Layer_1-2">
		<path class="st0" d="M90,56.9V43.1h-9.6c-0.7-3.1-1.8-6-3.4-8.7c-0.2-0.3-0.4-0.7-0.6-1l6.8-6.8l-9.8-9.7l-6.8,6.8
			c-3-1.9-6.3-3.2-9.7-4V10H43.1v9.6c-3.4,0.8-6.7,2.1-9.7,4l-6.8-6.8l-9.7,9.7l6.8,6.8c-0.2,0.3-0.4,0.7-0.6,1
			c-1.6,2.7-2.7,5.6-3.4,8.7H10v13.8h9.6c0.8,3.4,2.1,6.7,4,9.7l-6.8,6.8l9.7,9.8l6.8-6.8c3,1.9,6.3,3.2,9.7,4V90h13.8v-9.6
			c3.4-0.8,6.7-2.1,9.7-4l6.8,6.8l9.8-9.8l-6.8-6.8c1.9-3,3.2-6.3,4-9.7L90,56.9z"/>
		<path class="st1" d="M43.3,65.1c-0.4,0.1-0.6,0.5-0.6,0.9v3.4c0,0.5-0.4,0.9-0.9,0.9c0,0,0,0,0,0h-3.5c-0.5,0-0.9-0.4-0.9-0.9
			v-3.1c0-0.4-0.3-0.8-0.7-0.9c-2.6-0.4-5-1.4-7.1-3c-0.4-0.3-0.5-0.8-0.2-1.2l2.6-4c0.3-0.4,0.8-0.5,1.3-0.3c0,0,0,0,0,0
			c1.7,1.3,3.7,2,5.8,2.1c2.4,0,3.3-0.8,3.3-2.7c0-3.8-12.3-4.3-12.3-12.7c0-4.6,2.5-7.8,6.7-9c0.4-0.1,0.7-0.5,0.7-0.9v-3.3
			c0-0.5,0.3-0.9,0.8-0.9c0,0,0,0,0,0h3.5c0.5,0,0.9,0.3,0.9,0.8c0,0,0,0.1,0,0.1v3.2c0,0.4,0.3,0.8,0.7,0.9
			c2.2,0.5,4.2,1.7,5.8,3.3c0.4,0.3,0.4,0.9,0.1,1.3l-2.9,3.3c-0.3,0.4-0.9,0.4-1.3,0.1c-1.2-1.1-2.7-1.7-4.3-1.7c-2,0-3,0.6-3,2.5
			c0,3.6,12.3,3.8,12.3,12.5C50.1,60.3,47.8,63.8,43.3,65.1z"/>
		<path class="st2" d="M53.6,54.6h17.7c0.7,0,1.2,0.5,1.2,1.2v2.9c0,0.7-0.5,1.2-1.2,1.2H53.6c-0.7,0-1.2-0.5-1.2-1.2v-2.9
			C52.4,55.1,52.9,54.6,53.6,54.6z"/>
	</g>
</g>
</svg>
