<?xml version="1.0" encoding="utf-8"?>
<!-- Generator: Adobe Illustrator 23.0.4, SVG Export Plug-In . SVG Version: 6.00 Build 0)  -->
<svg version="1.1" id="Layer_1" xmlns="http://www.w3.org/2000/svg" xmlns:xlink="http://www.w3.org/1999/xlink" x="0px" y="0px"
	 viewBox="0 0 120 100" style="enable-background:new 0 0 120 100;" xml:space="preserve">
<style type="text/css">
	.st0-77ee5f03b3bb44d0d912510a971d71dd{fill:#010101;}
	.st1-77ee5f03b3bb44d0d912510a971d71dd{clip-path:url(#SVGID_2_);}
	.st2-77ee5f03b3bb44d0d912510a971d71dd{fill:currentColor;}
	.st3-77ee5f03b3bb44d0d912510a971d71dd{fill:none;stroke:#010101;stroke-width:1.3146;stroke-miterlimit:10;}
	.st4-77ee5f03b3bb44d0d912510a971d71dd{fill:none;stroke:#010101;stroke-width:1.678;stroke-linecap:round;stroke-miterlimit:10;}
</style>
<title>standardLinode</title>
<g>
	<g id="Layer_1-2">
		<path class="st0-77ee5f03b3bb44d0d912510a971d71dd" d="M88,10H32C25.4,10,20,15.3,20,22c0,0,0,0,0,0v56c0,6.6,5.4,12,12,12c0,0,0,0,0,0H88c6.6,0,12-5.4,12-12l0,0
			V22C100,15.4,94.6,10,88,10z M96,77.6c0,4.6-3.7,8.4-8.4,8.4c0,0,0,0,0,0H32.4c-4.6,0-8.4-3.7-8.4-8.4c0,0,0,0,0,0V22.4
			c0-4.6,3.7-8.4,8.4-8.4c0,0,0,0,0,0h55.2c4.6,0,8.4,3.7,8.4,8.4c0,0,0,0,0,0L96,77.6z"/>
		<g>
			<defs>
				<path id="SVGID_1_" d="M33.5,20h52.9c1.9,0,3.5,1.6,3.5,3.5v52.9c0,1.9-1.6,3.5-3.5,3.5H33.5c-1.9,0-3.5-1.6-3.5-3.5V23.5
					C30,21.6,31.6,20,33.5,20z"/>
			</defs>
			<clipPath id="SVGID_2_">
				<use xlink:href="#SVGID_1_"  style="overflow:visible;"/>
			</clipPath>
			<g class="st1-77ee5f03b3bb44d0d912510a971d71dd">
				<rect x="18.3" y="44.9" class="st2-77ee5f03b3bb44d0d912510a971d71dd" width="87.2" height="42.7"/>
				<line class="st3-77ee5f03b3bb44d0d912510a971d71dd" x1="30.9" y1="17.5" x2="30.9" y2="41.6"/>
				<line class="st3-77ee5f03b3bb44d0d912510a971d71dd" x1="36.2" y1="17.5" x2="36.2" y2="41.6"/>
				<line class="st3-77ee5f03b3bb44d0d912510a971d71dd" x1="41.5" y1="17.5" x2="41.5" y2="41.6"/>
				<line class="st3-77ee5f03b3bb44d0d912510a971d71dd" x1="46.8" y1="17.5" x2="46.8" y2="41.6"/>
				<line class="st3-77ee5f03b3bb44d0d912510a971d71dd" x1="52.1" y1="17.5" x2="52.1" y2="41.6"/>
				<line class="st3-77ee5f03b3bb44d0d912510a971d71dd" x1="57.4" y1="17.5" x2="57.4" y2="41.6"/>
				<line class="st3-77ee5f03b3bb44d0d912510a971d71dd" x1="62.7" y1="17.5" x2="62.7" y2="41.6"/>
				<line class="st3-77ee5f03b3bb44d0d912510a971d71dd" x1="67.9" y1="17.5" x2="67.9" y2="41.6"/>
				<line class="st3-77ee5f03b3bb44d0d912510a971d71dd" x1="73.2" y1="17.5" x2="73.2" y2="41.6"/>
				<line class="st3-77ee5f03b3bb44d0d912510a971d71dd" x1="78.5" y1="17.5" x2="78.5" y2="41.6"/>
				<line class="st3-77ee5f03b3bb44d0d912510a971d71dd" x1="83.8" y1="17.5" x2="83.8" y2="41.6"/>
				<line class="st3-77ee5f03b3bb44d0d912510a971d71dd" x1="89.1" y1="17.5" x2="89.1" y2="41.6"/>
			</g>
		</g>
		<line class="st4-77ee5f03b3bb44d0d912510a971d71dd" x1="6.9" y1="22.9" x2="15.2" y2="22.9"/>
		<line class="st4-77ee5f03b3bb44d0d912510a971d71dd" x1="6.9" y1="33.7" x2="15.2" y2="33.7"/>
		<line class="st4-77ee5f03b3bb44d0d912510a971d71dd" x1="6.9" y1="44.6" x2="15.2" y2="44.6"/>
		<line class="st4-77ee5f03b3bb44d0d912510a971d71dd" x1="6.9" y1="55.4" x2="15.2" y2="55.4"/>
		<line class="st4-77ee5f03b3bb44d0d912510a971d71dd" x1="6.9" y1="66.3" x2="15.2" y2="66.3"/>
		<line class="st4-77ee5f03b3bb44d0d912510a971d71dd" x1="6.9" y1="77.1" x2="15.2" y2="77.1"/>
		<line class="st4-77ee5f03b3bb44d0d912510a971d71dd" x1="113.1" y1="22.9" x2="104.8" y2="22.9"/>
		<line class="st4-77ee5f03b3bb44d0d912510a971d71dd" x1="113.1" y1="33.7" x2="104.8" y2="33.7"/>
		<line class="st4-77ee5f03b3bb44d0d912510a971d71dd" x1="113.1" y1="44.6" x2="104.8" y2="44.6"/>
		<line class="st4-77ee5f03b3bb44d0d912510a971d71dd" x1="113.1" y1="55.4" x2="104.8" y2="55.4"/>
		<line class="st4-77ee5f03b3bb44d0d912510a971d71dd" x1="113.1" y1="66.3" x2="104.8" y2="66.3"/>
		<line class="st4-77ee5f03b3bb44d0d912510a971d71dd" x1="113.1" y1="77.1" x2="104.8" y2="77.1"/>
	</g>
</g>
</svg>
