<svg viewBox="0 0 81.26 60.3" xmlns="http://www.w3.org/2000/svg" xmlns:xlink="http://www.w3.org/1999/xlink"><clipPath id="a"><rect height="45.3" rx="2.7" width="45.3" x="18.03" y="7.6"/></clipPath><path d="m61.73 0h-42.2a9 9 0 0 0 -9.1 9v42.2a9.13 9.13 0 0 0 9.1 9.1h42.1a9.13 9.13 0 0 0 9.1-9.1v-42.1a9 9 0 0 0 -9-9.1zm6 50.9a6.27 6.27 0 0 1 -6.3 6.3h-41.6a6.27 6.27 0 0 1 -6.3-6.3v-41.5a6.27 6.27 0 0 1 6.3-6.3h41.6a6.27 6.27 0 0 1 6.3 6.3z" fill="#020202"/><g clip-path="url(#a)"><path d="m9.23.1h65.7v58.4h-65.7z" fill="currentColor"/></g><g fill="none" stroke="#020202" stroke-linecap="round" stroke-miterlimit="10" stroke-width="1.26"><path d="m.63 9.7h6.3"/><path d="m.63 14.9h6.3"/><path d="m.63 20h6.3"/><path d="m.63 25.1h6.3"/><path d="m.63 30.2h6.3"/><path d="m.63 35.3h6.3"/><path d="m.63 40.4h6.3"/><path d="m.63 45.5h6.3"/><path d="m.63 50.6h6.3"/><path d="m80.63 9.7h-6.3"/><path d="m80.63 14.9h-6.3"/><path d="m80.63 20h-6.3"/><path d="m80.63 25.1h-6.3"/><path d="m80.63 30.2h-6.3"/><path d="m80.63 35.3h-6.3"/><path d="m80.63 40.4h-6.3"/><path d="m80.63 45.5h-6.3"/><path d="m80.63 50.6h-6.3"/></g></svg>
