<svg viewBox="0 0 200 200" xmlns="http://www.w3.org/2000/svg"><path d="m159.67 49.3-57.42-23.84a5.85 5.85 0 0 0 -4.5 0l-57.42 23.84a5.84 5.84 0 0 0 -3.61 5.41v29a98.11 98.11 0 0 0 61.07 90.88 5.83 5.83 0 0 0 4.42 0 98.11 98.11 0 0 0 61.07-90.88v-29a5.84 5.84 0 0 0 -3.61-5.41zm-8.11 34.39a86.42 86.42 0 0 1 -51.56 79.09 86.41 86.41 0 0 1 -51.56-79.09v-25.07l51.56-21.41 51.56 21.41z" fill="#32363b"/><path d="m93.52 103.44 25.19-25.18a5.85 5.85 0 0 1 8.29 8.28l-29.33 29.33a5.86 5.86 0 0 1 -8.29 0l-16.38-16.38a5.85 5.85 0 0 1 8.28-8.28z" fill="currentColor"/></svg>