<svg viewBox="0 0 200 200" xmlns="http://www.w3.org/2000/svg"><path d="m55.3 96.61v-71.49h40.7a18.43 18.43 0 0 1 18.33 17.1l1.45 20.84h-23.06v33.55zm39.7-52.18v-2.24h-2.28v2.24z" fill="currentColor"/><path d="m96 27.31a16.19 16.19 0 0 1 16.15 15.06l1.28 18.5h-22.9v33.56h-33v-67.12zm-5.5 19.3h6.61v-6.61h-6.58v6.6m5.47-23.66h-42.89v75.86h41.79v-33.56h23.25l-.32-4.67-1.29-18.5a20.61 20.61 0 0 0 -20.54-19.13z" fill="#32363b"/><path d="m55.3 134.57v-37.8h67.7a18.9 18.9 0 0 1 18.76 17.23l1.67 20.53z" fill="currentColor"/><path d="m123 99a16.61 16.61 0 0 1 16.56 15.26l1.48 18.16h-83.55v-33.42zm0-4.38h-69.89v42.18h92.7l-.39-4.73-1.48-18.17a21.1 21.1 0 0 0 -20.94-19.32z" fill="#32363b"/><path d="m55.3 172.53v-37.8h78.24a18.9 18.9 0 0 1 18.74 17.27l1.72 20.53z" fill="currentColor"/><path d="m133.54 136.91a16.62 16.62 0 0 1 16.56 15.27l1.47 18.16h-94.08v-33.43h76m0-4.37h-80.38v42.18h103.21l-.39-4.73-1.47-18.17a21.1 21.1 0 0 0 -20.92-19.28z" fill="#32363b"/></svg>