<svg viewBox="0 0 200 200" xmlns="http://www.w3.org/2000/svg"><path d="m100 35.05-75 129.9h150z" fill="currentColor"/><path d="m88.69 43.91a30.27 30.27 0 0 1 8.36 16.5s0 .08 0 .12c.25 1.21.5 2.54.76 3.94 1.67 8.93 3.75 20 10.68 27.08l51.72 52.45a11.09 11.09 0 1 1 -15.81 15.6l-51.7-52.47c-6.93-7-18-9.28-26.92-11.08-1.4-.28-2.72-.55-3.93-.82h-.12a30.43 30.43 0 0 1 -23-41.2.84.84 0 0 1 .62-.57 1 1 0 0 1 .94.35l16.97 17.19a2.7 2.7 0 0 0 3.82 0l27.53-27.11z" fill="#fff"/><path d="m152.31 164.75a12.86 12.86 0 0 1 -9.22-3.85l-51.71-52.48c-6.53-6.63-17.31-8.81-26-10.56-1.45-.3-2.76-.56-4-.83a32.27 32.27 0 0 1 -24.38-43.7 2.67 2.67 0 0 1 2-1.7 3.07 3.07 0 0 1 .53-.05 2.93 2.93 0 0 1 2.1.92l16.94 17.2a.86.86 0 0 0 .61.25.87.87 0 0 0 .61-.24l27.57-27.17 1.16-1 1.31.94.14.13a32.08 32.08 0 0 1 8.9 17.54c.24 1.19.48 2.44.73 3.76v.25c1.63 8.69 3.65 19.49 10.18 26.13l51.71 52.47a12.94 12.94 0 0 1 -9.22 22z" fill="#fff"/><g fill="#32363b"><path d="m164.06 140.24-51.7-52.48c-5.78-5.86-7.69-16.08-9.22-24.28-.26-1.41-.51-2.74-.77-4a35.51 35.51 0 0 0 -9.84-19.37 5.34 5.34 0 0 0 -5.53-1.4 34 34 0 0 0 -32.8-4.79 6.12 6.12 0 0 0 -3.82 4.37 6.27 6.27 0 0 0 1.7 5.71l14.15 14.37-7 6.91-15.07-15.28a6.43 6.43 0 0 0 -5.87-1.85 6.24 6.24 0 0 0 -4.56 3.85 35.82 35.82 0 0 0 27 48.49c1.24.28 2.57.55 4 .83 8.18 1.66 18.37 3.72 24.14 9.58l51.71 52.47a16.49 16.49 0 0 0 23.5-23.15zm-109.45-98.73a2.7 2.7 0 0 1 -.77-2.51 2.5 2.5 0 0 1 1.6-1.79 30.45 30.45 0 0 1 28.24 3.49l1.82 1.3-15.44 15.19zm105.49 118.21a11.12 11.12 0 0 1 -15.7-.12l-51.7-52.47c-6.93-7-18-9.28-26.92-11.08-1.4-.28-2.72-.55-3.93-.82h-.12a30.43 30.43 0 0 1 -23-41.2.84.84 0 0 1 .62-.57 1 1 0 0 1 .94.35l16.97 17.19a2.7 2.7 0 0 0 3.82 0l27.53-27.11a30.27 30.27 0 0 1 8.36 16.5s0 .08 0 .12c.25 1.21.5 2.54.76 3.94 1.67 8.93 3.75 20 10.68 27.08l51.8 52.47a11.1 11.1 0 0 1 -.11 15.72z"/><path d="m64.87 74.87a2.65 2.65 0 0 0 -.8 1.9 2.69 2.69 0 0 0 .77 1.92l7.58 7.69a2.71 2.71 0 0 0 3.82 0l10.86-10.67a2.72 2.72 0 0 0 0-3.82l-7.55-7.69a2.69 2.69 0 0 0 -3.82 0z"/><path d="m150.41 149.89a2.7 2.7 0 0 0 3.79 3.85 2.75 2.75 0 0 0 .81-1.91 2.71 2.71 0 0 0 -4.6-1.94z"/><path d="m98.68 101.23 43.18 43.82a2.69 2.69 0 0 0 3.82 0 2.69 2.69 0 0 0 0-3.81l-43.15-43.8a2.7 2.7 0 1 0 -3.85 3.79z"/></g><path d="m71.06 72.59h9.85v5.4h-9.85z" fill="currentColor" transform="matrix(.7122711 -.70190447 .70190447 .7122711 -30.98 74.99)"/><path d="m54.61 41.51a2.7 2.7 0 0 1 -.77-2.51 2.5 2.5 0 0 1 1.6-1.79 30.45 30.45 0 0 1 28.24 3.49l1.82 1.3-15.44 15.19z" fill="currentColor"/></svg>