<svg viewBox="0 0 200 200" xmlns="http://www.w3.org/2000/svg"><path d="m92 40.8-14.4 5.81s-34.71 28.28-20.66 63.29l-1.42 11.21-6.52-11.73s-27.51-47 15.62-64.26l13.3-2.84 13-4c.38.81.74 1.64 1.09 2.47z" fill="#fff" stroke="#32363b" stroke-linecap="round" stroke-linejoin="round" stroke-width="4.37"/><path d="m94.58 51.11a1.81 1.81 0 0 1 -1.79-1.55 28.78 28.78 0 0 0 -1.27-4.93c-.19-.57-.4-1.15-.62-1.72s-.37-.94-.57-1.42c-.34-.8-.69-1.61-1-2.39a105 105 0 0 0 -6.17-11.32 1.81 1.81 0 0 1 3-2 106.85 106.85 0 0 1 6.41 11.75c.38.82.76 1.68 1.11 2.53.21.51.41 1 .6 1.5s.47 1.24.68 1.86a32.27 32.27 0 0 1 1.42 5.58 1.82 1.82 0 0 1 -1.53 2.06h-.27z" fill="#32363b"/><g stroke="#32363b" stroke-linecap="round" stroke-linejoin="round" stroke-width="4.37"><path d="m152.64 144.2c6.55-20 9.66-40.54 4.15-61.65-3.79-14.39-16.31-29.85-31.7-34.07a68 68 0 0 0 -17.3-1.37 75.7 75.7 0 0 0 -18.7 4.1c-19.84 8-31.86 36.06-23.93 64.27 9.54 34 33.43 53.32 55 58.15 15.47 3.47 34.6 0 37.42-6.32 3.49-7.82-10.42-6.28-4.9-23.11z" fill="currentColor"/><path d="m125.08 48.48c10.78 11 5.73 30.87 5.73 30.87l-2 8.59-2.95-6.81c2-19.72-14.89-30.5-21.72-34-1.71-.88-2.79-1.31-2.79-1.31l-8.11-1.82c-.2-.59-.42-1.19-.65-1.78h7.75l8.91-.64c7.34.82 12.4 3.42 15.83 6.9z" fill="#fff"/></g></svg>