<?xml version="1.0" encoding="utf-8"?>
<!-- Generator: Adobe Illustrator 23.0.4, SVG Export Plug-In . SVG Version: 6.00 Build 0)  -->
<svg version="1.1" id="Layer_1" xmlns="http://www.w3.org/2000/svg" xmlns:xlink="http://www.w3.org/1999/xlink" x="0px" y="0px"
	 viewBox="0 0 100 100" style="enable-background:new 0 0 100 100;" xml:space="preserve">
<style type="text/css">
	.st0-7e1b39ef493d8bcd89d3a083a658128c{clip-path:url(#SVGID_2_);}
	.st1-7e1b39ef493d8bcd89d3a083a658128c{fill:currentColor;}
	.st2-7e1b39ef493d8bcd89d3a083a658128c{fill:none;stroke:#010101;stroke-width:3.5854;stroke-linejoin:round;}
</style>
<title>managedServices</title>
<g>
	<g id="Layer_1-2">
		<g>
			<defs>
				<path id="SVGID_1_" d="M89.8,63.7c-1.8-0.6-3.2,0-4.6,1.2c-4.9,4.1-10.5,7.3-16.5,9.3c-2.9,1-6,1.8-9,1.6
					c-4.8-0.3-9.6-1.5-14.4-2.5c-1.1-0.3-2.1-0.8-3-1.5c-1.1-0.9-0.9-2.1,0.4-2.6c0.7-0.2,1.5-0.3,2.2-0.3c3,0,6,0,9,0l0,0
					c3.3,0,6.6,0.1,9.8,0c2.3,0.1,4.2-1.7,4.2-4c0-0.5-0.1-1-0.2-1.5c-0.6-1.8-2.2-2.9-4.6-2.9c-11,0-21.9,0-32.9,0
					c-0.8,0-1.5,0.1-2.3,0.3c-8.7,2.3-14.8,8-19.7,15.2c-0.3,0.6-0.6,1.3-0.7,2c-1.5,5.6,3,10.5,8.7,9.3c1.2-0.2,2.3-0.6,3.4-1
					c2.7-1.1,5.7-1.4,8.6-0.8c6.1,1.2,12.1,2.7,18.3,3.6c4.5,0.7,9,1,13.5,0.7c5.2-0.4,9.7-3,14-5.7C80.3,80.5,86,76,91.1,71
					C93.6,68.3,93,64.7,89.8,63.7z"/>
			</defs>
			<clipPath id="SVGID_2_">
				<use xlink:href="#SVGID_1_"  style="overflow:visible;"/>
			</clipPath>
			<g class="st0-7e1b39ef493d8bcd89d3a083a658128c">
				<path class="st1-7e1b39ef493d8bcd89d3a083a658128c" d="M1.3,85.5c0.4-0.5,3.5-2.8,7.1-5.4c8-5.8,18.5-7,27.7-3.3l0,0c8.3,3.4,17.8,2.7,25.5-1.8l31.1-18.3
					l21.2,5.2l-6.2,31.6c0,0-52.2,24.6-54.9,22.9c-2.7-1.7-47.1-7-47.1-7L1.3,85.5z"/>
				<path class="st1-7e1b39ef493d8bcd89d3a083a658128c" d="M45.6,64.8h26.2l-5.3,7.3H41.9c-1.1,0-2-0.9-2-2c0-0.1,0-0.2,0-0.3l0,0C40.3,67,42.7,64.8,45.6,64.8z"/>
			</g>
		</g>
		<path class="st2-7e1b39ef493d8bcd89d3a083a658128c" d="M89.8,63.7c-1.8-0.6-3.2,0-4.6,1.2c-4.9,4.1-10.5,7.3-16.5,9.3c-2.9,1-6,1.8-9,1.6c-4.8-0.3-9.6-1.5-14.4-2.5
			c-1.1-0.3-2.1-0.8-3-1.5c-1.1-0.9-0.9-2.1,0.4-2.6c0.7-0.2,1.5-0.3,2.2-0.3c3,0,6,0,9,0l0,0c3.3,0,6.6,0.1,9.8,0
			c2.3,0.1,4.2-1.7,4.2-4c0-0.5-0.1-1-0.2-1.5c-0.6-1.8-2.2-2.9-4.6-2.9c-11,0-21.9,0-32.9,0c-0.8,0-1.5,0.1-2.3,0.3
			c-8.7,2.3-14.8,8-19.7,15.2c-0.3,0.6-0.6,1.3-0.7,2c-1.5,5.6,3,10.5,8.7,9.3c1.2-0.2,2.3-0.6,3.4-1c2.7-1.1,5.7-1.4,8.6-0.8
			c6.1,1.2,12.1,2.7,18.3,3.6c4.5,0.7,9,1,13.5,0.7c5.2-0.4,9.7-3,14-5.7C80.3,80.5,86,76,91.1,71C93.6,68.3,93,64.7,89.8,63.7z"/>
		<path class="st1-7e1b39ef493d8bcd89d3a083a658128c" d="M34.1,35.7c2.7-0.2,3.4,1.5,4.3,3.3c0.9,1.8-0.8,2.3-1.4,3.2c-0.4,0.5-1.1,0.9-1.2,1.4
			c-0.2,0.9-0.6,2.1-0.1,2.7c2,3,3.7,3.7,6.1,0.9c0.4-0.3,0.7-0.7,1-1c1.3-1.9,2.9-1,4.4-0.6c1.6,0.5,1.3,1.7,1.4,2.9
			c0,0.6,0,1.1,0,1.7c0.1,2.5,0.7,3.2,3.3,3.2c3,0,3.6-0.5,3.6-3.5c0.1-0.7,0.1-1.4,0-2.1c-0.4-2.2,1.1-2.9,2.7-3.7s2.2,0.6,3.1,1.3
			c0.6,0.5,1.2,1.2,1.8,1.7c1.2,1.1,2.4,1,3.6,0c2.4-2.1,2.5-3.4,0.2-5.7c-0.5-0.5-1-1-1.5-1.4c-1.6-1.2-1.4-2.5-0.8-4.2
			c0.6-1.7,1.9-1.2,3.1-1.3c0.9-0.1,1.8,0,2.7,0c2-0.2,2.7-0.9,2.7-3.2c0-2.6-0.5-3.3-2.6-3.4c-1.3-0.1-2.7-0.1-4,0
			c-1.9,0.1-2.2-1.2-2.9-2.5c-0.6-1.3,0.1-1.9,0.9-2.7s1.3-1.2,1.9-1.9c0.6-0.7,1-1.4,1.8-2.6C66.9,17,66,15.6,64.7,15
			c-0.7-0.4-2.1,0.5-3.1,0.9c-0.6,0.4-1.2,1-1.6,1.6c-1.1,1.3-2.1,1.9-4,1.1c-1.9-0.8-2-1.9-1.9-3.5c0.1-0.9,0.1-1.8-0.1-2.7
			c-0.1-0.7-0.5-1.4-1.1-1.8C50,9,47.3,10.7,47.2,14c0,0.4,0,0.8,0,1.3c0.4,2.1-0.8,2.9-2.5,3.6c-1.8,0.9-2.5-0.3-3.5-1.2
			c-0.5-0.6-1.2-1.2-1.9-1.7c-0.6-0.3-1.6-0.6-2.1-0.3C34.1,17.9,33,19.5,36,22c0.2,0.3,0.5,0.5,0.7,0.7c2.3,1.4,0.8,3.1,0.4,4.8
			c-0.5,1.7-1.7,1.3-2.9,1.4c-0.6,0-1.1,0-1.7,0c-1.8,0.1-2.8,1.1-2.9,2.9C29.4,35,30.3,36,34.1,35.7z M50.5,25.5
			c3.4-0.2,6.2,2.5,6.4,5.9c0,0.1,0,0.3,0,0.4c-0.1,3.4-2.9,6.2-6.4,6.1c-3.3-0.1-6-2.7-6.1-6C44.3,28.5,47,25.6,50.5,25.5
			C50.5,25.5,50.5,25.5,50.5,25.5z"/>
	</g>
</g>
</svg>
