<svg viewBox="0 0 200 200" xmlns="http://www.w3.org/2000/svg" xmlns:xlink="http://www.w3.org/1999/xlink"><clipPath id="a"><path d="m46.07 57.62h122.25a6.68 6.68 0 0 1 6.68 6.68v57.76a8.7 8.7 0 0 1 -8.7 8.7h-126.9a0 0 0 0 1 0 0v-66.46a6.68 6.68 0 0 1 6.68-6.68z"/></clipPath><path d="m46.07 57.62h122.25a6.68 6.68 0 0 1 6.68 6.68v57.76a8.7 8.7 0 0 1 -8.7 8.7h-126.9a0 0 0 0 1 0 0v-66.46a6.68 6.68 0 0 1 6.68-6.68z" fill="#fff"/><g clip-path="url(#a)"><path d="m175 124.37h-56.27l-38.44-38.44h-40.89v44.83h126.9 8.7z" fill="#333232"/><path d="m95.57 54.48v36.86l26.46 26.46h56.11" fill="none" stroke="#ebeaea" stroke-linecap="round" stroke-linejoin="round" stroke-width="5.35"/><circle cx="140.26" cy="87.15" fill="currentColor" r="21.77" stroke="#333232" stroke-linecap="round" stroke-linejoin="round" stroke-width="6.32"/><circle cx="140.26" cy="87.15" fill="#fff" r="10.39"/></g><g stroke="#333232" stroke-linecap="round" stroke-linejoin="round"><path d="m46.07 57.62h122.25a6.68 6.68 0 0 1 6.68 6.68v57.76a8.7 8.7 0 0 1 -8.7 8.7h-126.9a0 0 0 0 1 0 0v-66.46a6.68 6.68 0 0 1 6.68-6.68z" fill="none" stroke-width="6.32"/><path d="m25 66.91h5.67v75.47" fill="none" stroke-width="6.32"/><path d="m73.67 131.37h5.09v8.86h-5.09z" fill="#fff" stroke-width="5.35"/><path d="m138.26 131.37h5.09v8.86h-5.09z" fill="#fff" stroke-width="5.35"/><path d="m86.96 131.37h43.09v8.86h-43.09z" fill="#fff" stroke-width="5.35"/><path d="m153.13 131.75v5.81h4.83" fill="none" stroke-width="5.35"/><path d="m31.62 81.82h7.11" fill="none" stroke-width="5.35"/><path d="m31.62 118.82h7.11" fill="none" stroke-width="5.35"/></g></svg>