<svg viewBox="0 0 200 200" xmlns="http://www.w3.org/2000/svg"><path d="m174.75 116.47-24.61-53.75 6-3-2.24-4.47-5.82 2.9-.79-1.72a2.49 2.49 0 0 0 -3.29-1.2 2.46 2.46 0 0 0 -1.23 1.23l-.77 1.54a32.19 32.19 0 0 0 -13.52-3h-21v-5h5v-5h-4.3l1.8-7.19a10.31 10.31 0 1 0 -20 0l1.82 7.19h-4.3v5h5v5h-21a32.13 32.13 0 0 0 -13.5 3l-.71-1.53a2.49 2.49 0 0 0 -3.29-1.23 2.42 2.42 0 0 0 -1.23 1.23l-.79 1.71-5.82-2.91-2.24 4.48 6 3-24.69 53.71a2.47 2.47 0 0 0 -.23 1 17.52 17.52 0 0 0 17.5 17.54h25a17.52 17.52 0 0 0 17.5-17.5 2.44 2.44 0 0 0 -.25-1l-24.69-53.97a27.15 27.15 0 0 1 11.45-2.53h21v91.47l-8.51 8.53h-9a12.52 12.52 0 0 0 -12.5 12.5 2.5 2.5 0 0 0 2.5 2.5h70a2.5 2.5 0 0 0 2.5-2.5 12.52 12.52 0 0 0 -12.5-12.5h-9l-8.53-8.53v-91.47h21a27.16 27.16 0 0 1 11.53 2.53l-24.73 53.93a2.47 2.47 0 0 0 -.23 1 17.52 17.52 0 0 0 17.46 17.54h25a17.52 17.52 0 0 0 17.5-17.5 2.44 2.44 0 0 0 -.25-1.03zm-96.14-1.47h-47.21l23-50.1a2.52 2.52 0 0 0 1.28 0zm18.89-60v-5h5v5zm5 5v90h-5v-90zm6.5 100h-18l5-5h8zm35.39-95.09a1.74 1.74 0 0 0 1.27-.06l23 50.15h-47.27z" fill="#32363b"/><g fill="currentColor"><path d="m67.5 130h-25a12.52 12.52 0 0 1 -12.25-10h49.5a12.51 12.51 0 0 1 -12.25 10z"/><path d="m95.82 32a5.48 5.48 0 0 1 7.71-.66 5.79 5.79 0 0 1 .65.66 5.3 5.3 0 0 1 1 4.56l-2.1 8.4h-6.08l-2.1-8.4a5.3 5.3 0 0 1 .92-4.56z"/><path d="m125 165a7.51 7.51 0 0 1 7.07 5h-64.14a7.51 7.51 0 0 1 7.07-5z"/><path d="m157.5 130h-25a12.52 12.52 0 0 1 -12.25-10h49.5a12.52 12.52 0 0 1 -12.25 10z"/><path d="m97.5 50h5v5h-5z"/><path d="m97.5 60h5v90h-5z"/><path d="m108.97 160h-17.94l5-5h7.94z"/></g></svg>