<svg viewBox="0 0 200 200" xmlns="http://www.w3.org/2000/svg"><path d="m100.3 26a47.2 47.2 0 0 0 -24 87.86 8.11 8.11 0 0 1 4 7v11.5a3.69 3.69 0 0 1 1.48-.3h37.07a3.71 3.71 0 0 1 1.49.3v-11.5a8.22 8.22 0 0 1 4-7 47.2 47.2 0 0 0 -24.04-87.86z" fill="currentColor" stroke="#32363b" stroke-linecap="round" stroke-linejoin="round" stroke-width="4.37"/><path d="m106.15 134.28a2.26 2.26 0 0 1 -2.26-2.26v-20.26a9.24 9.24 0 0 1 1.93-5.65l3.24-4.2a4.78 4.78 0 0 0 .94-2.91v-21.12a2.27 2.27 0 0 1 4.53 0v21.12a9.33 9.33 0 0 1 -1.93 5.66l-3.24 4.19a4.74 4.74 0 0 0 -1 2.89v20.26a2.26 2.26 0 0 1 -2.21 2.28z" fill="#fff"/><path d="m94.33 134.28a2.27 2.27 0 0 1 -2.27-2.28v-20.24a4.8 4.8 0 0 0 -1-2.89l-3.24-4.19a9.27 9.27 0 0 1 -1.91-5.68v-21.12a2.27 2.27 0 0 1 4.53 0v21.12a4.78 4.78 0 0 0 1 2.89l3.24 4.19a9.29 9.29 0 0 1 1.93 5.66v20.26a2.26 2.26 0 0 1 -2.28 2.28z" fill="#fff"/><path d="m133.17 63.92a32.82 32.82 0 0 0 -17.27-20.92 2.26 2.26 0 1 1 2-4.06 37.32 37.32 0 0 1 19.65 23.83 2.26 2.26 0 1 1 -4.37 1.17z" fill="#ededf4"/><g fill="#c8c8cc"><path d="m91.1 165.16v1.66a9.14 9.14 0 0 0 18.28 0v-1.66z" stroke="#32363b" stroke-linecap="round" stroke-linejoin="round" stroke-width="4.37"/><path d="m114.57 82.66h-28.66a2.27 2.27 0 0 1 0-4.53h28.66a2.27 2.27 0 0 1 0 4.53z"/><path d="m42.06 74.22h-7.79a2.27 2.27 0 0 1 0-4.53h7.79a2.27 2.27 0 0 1 0 4.53z"/><path d="m44.28 59.85-7.28-2.76a2.26 2.26 0 0 1 1.61-4.23l7.28 2.76a2.26 2.26 0 1 1 -1.61 4.23z"/><path d="m35.69 89.74a2.26 2.26 0 0 1 1.31-2.92l7.28-2.77a2.27 2.27 0 0 1 1.61 4.24l-7.28 2.76a2.27 2.27 0 0 1 -2.92-1.31z"/><path d="m166.21 74.22h-7.79a2.27 2.27 0 0 1 0-4.53h7.79a2.27 2.27 0 0 1 0 4.53z"/><path d="m153.28 58.54a2.25 2.25 0 0 1 1.31-2.92l7.28-2.76a2.26 2.26 0 0 1 1.61 4.23l-7.28 2.76a2.25 2.25 0 0 1 -2.92-1.31z"/><path d="m161.87 91.05-7.28-2.76a2.27 2.27 0 0 1 1.61-4.24l7.28 2.77a2.26 2.26 0 0 1 -1.61 4.23z"/></g><path d="m115.76 154h-31a3.94 3.94 0 0 0 -3.97 4v3.34a3.94 3.94 0 0 0 3.93 3.93h31a3.94 3.94 0 0 0 3.93-3.93v-3.34a3.94 3.94 0 0 0 -3.89-4z" fill="#fff" stroke="#32363b" stroke-linecap="round" stroke-linejoin="round" stroke-width="4.37"/><path d="m118.77 143h-37.07a3.93 3.93 0 0 0 -3.92 3.93v3.34a3.93 3.93 0 0 0 3.92 3.93h37.07a3.93 3.93 0 0 0 3.93-3.93v-3.34a3.93 3.93 0 0 0 -3.93-3.93z" fill="#c8c8cc" stroke="#32363b" stroke-linecap="round" stroke-linejoin="round" stroke-width="4.37"/><path d="m118.77 131.94h-37.07a3.93 3.93 0 0 0 -3.92 3.93v3.34a3.93 3.93 0 0 0 3.92 3.93h37.07a3.93 3.93 0 0 0 3.93-3.93v-3.34a3.93 3.93 0 0 0 -3.93-3.93z" fill="#fff" stroke="#32363b" stroke-linecap="round" stroke-linejoin="round" stroke-width="4.37"/></svg>