<svg viewBox="0 0 200 200" xmlns="http://www.w3.org/2000/svg"><path d="m167.3 99.94a56.46 56.46 0 0 1 -29.06 49.34l-35.24 19.54-35.26-19.54a56.46 56.46 0 0 1 -29.06-49.34v-62.94h128.62z" fill="currentColor"/><path d="m171.7 28.24h-137.41a4.39 4.39 0 0 0 -4.4 4.39v67.31a65.24 65.24 0 0 0 33.59 57l37.38 20.72a4.4 4.4 0 0 0 4.26 0l37.38-20.66a65.24 65.24 0 0 0 33.59-57v-67.37a4.39 4.39 0 0 0 -4.39-4.39zm-4.4 71.7a56.46 56.46 0 0 1 -29.06 49.34l-35.24 19.54-35.26-19.54a56.46 56.46 0 0 1 -29.06-49.34v-62.94h128.62z" fill="#32363b"/><path d="m65.8 152.78a60.46 60.46 0 0 1 -31.12-52.84v-66.94h136.62v66.94a60.44 60.44 0 0 1 -31.12 52.84l-37.18 20.61z" fill="currentColor"/><g fill="#fff"><path d="m64.43 105.62a4.4 4.4 0 0 0 8.13 0l11.2-27.21a4.39 4.39 0 1 0 -8.12-3.34l-7.14 17.34-7.15-17.34a4.39 4.39 0 0 0 -8.12 3.34z"/><path d="m91.79 108.34a4.39 4.39 0 0 0 4.39-4.34v-9.26h11.21a11.2 11.2 0 1 0 0-22.39h-15.6a4.39 4.39 0 0 0 -4.4 4.39v27.26a4.39 4.39 0 0 0 4.4 4.34zm4.39-27.2h11.21a2.41 2.41 0 1 1 0 4.81h-11.21z"/><path d="m126.28 108.34a4.39 4.39 0 0 0 4.4-4.39v-14.95l14.62 17.75a4.36 4.36 0 0 0 3.39 1.6 4.53 4.53 0 0 0 1.49-.25 4.41 4.41 0 0 0 2.91-4.14v-27.22a4.4 4.4 0 0 0 -8.79 0v15l-14.63-17.74a4.39 4.39 0 0 0 -7.78 2.79v27.21a4.38 4.38 0 0 0 4.39 4.34z"/></g></svg>