<svg viewBox="0 0 200 200" xmlns="http://www.w3.org/2000/svg"><g fill="#32363b"><path d="m85.88 33.79a9.73 9.73 0 0 1 6.36 2.37 27.44 27.44 0 0 1 15.52 0 9.73 9.73 0 0 1 6.36-2.37 4.4 4.4 0 0 0 0-8.79 18.46 18.46 0 0 0 -14.12 6.56 18.48 18.48 0 0 0 -14.12-6.56 4.4 4.4 0 0 0 0 8.79z"/><path d="m61.43 69-3.79-3.79v-12.28a4.4 4.4 0 1 0 -8.79 0v14.12a4.41 4.41 0 0 0 1.28 3.11l8.56 8.55a27.13 27.13 0 0 1 2.74-9.71z"/><path d="m151.15 52.93a4.4 4.4 0 1 0 -8.79 0v12.3l-3.79 3.77a27.13 27.13 0 0 1 2.74 9.69l8.56-8.55a4.41 4.41 0 0 0 1.28-3.11z"/><path d="m100 43.83a18.52 18.52 0 0 0 -16.52 10.17c.79-.07 1.59-.1 2.4-.1h28.24c.81 0 1.61 0 2.4.1a18.51 18.51 0 0 0 -16.52-10.17z"/><path d="m36 144a4.41 4.41 0 0 0 -1.28 3.11v23.54a4.4 4.4 0 0 0 8.79 0v-21.76l3.61-3.61a54.62 54.62 0 0 1 -2.25-10.18z"/><path d="m35.7 87.48-9.41 9.41a4.39 4.39 0 0 0 6.21 6.22l6.31-6.31 6.37 6.37a27 27 0 0 1 3.73-8.69l-7-7a4.39 4.39 0 0 0 -6.22 0z"/><path d="m155.12 135.1a54.62 54.62 0 0 1 -2.25 10.18l3.61 3.61v21.72a4.4 4.4 0 0 0 8.79 0v-23.54a4.43 4.43 0 0 0 -1.27-3.07z"/><path d="m173.71 96.89-9.41-9.41a4.39 4.39 0 0 0 -6.22 0l-7 7a27 27 0 0 1 3.73 8.69l6.37-6.37 6.31 6.31a4.39 4.39 0 1 0 6.21-6.22z"/><path d="m128.24 82.11a27.7 27.7 0 0 1 4.4.35v-1.29a18.53 18.53 0 0 0 -18.52-18.51h-28.24a18.53 18.53 0 0 0 -18.52 18.51v1.29a27.7 27.7 0 0 1 4.4-.35z"/></g><path d="m128.24 90.9h-56.48a18.5 18.5 0 0 0 -18.52 18.51v18.83a46.76 46.76 0 0 0 93.52 0v-18.83a18.5 18.5 0 0 0 -18.52-18.51z" fill="currentColor"/></svg>