<svg viewBox="0 0 200 200" xmlns="http://www.w3.org/2000/svg"><path d="m100 35.05-75 129.9h150z" fill="currentColor"/><g fill-rule="evenodd"><path d="m81.6 110.49s0 0 0 .05l-.08.08h-.12s0 0 0 0h-.11a.09.09 0 0 1 0-.05l-.08-.08v-.11s0 0 0 0v-.11s0 0 0-.06l.08-.08s0 0 0 0h.12.11l.08.09s0 0 0 0v.1s0 .05 0 .05zm-.16-.25a.14.14 0 0 0 -.22 0 .15.15 0 0 0 0 .23.16.16 0 0 0 .22 0 .15.15 0 0 0 0-.23z" fill="#1793d1"/><path d="m110.58 138.85c.81 3.16-1.35 9.64-2.79 12.76l-12.87.33c-1.6-3-4.1-9.39-3.45-12.59l-11.47-4.35c-1.66 2.81-7.78 5.86-11 7.05l-9.34-8.86c1-3.28 3.74-9.55 6.46-11.35l-5-11.21c-3.16.81-9.64-1.35-12.76-2.79l-.33-12.87c3-1.6 9.39-4.1 12.59-3.45l4.43-11.52c-2.81-1.66-5.86-7.78-7-11l8.86-9.34c3.28 1 9.55 3.74 11.35 6.46l11.21-5c-.81-3.16 1.35-9.64 2.79-12.76l12.87-.33c1.6 3 4.1 9.39 3.45 12.59l11.42 4.43c1.66-2.81 7.78-5.86 11-7l9.34 8.86c-1 3.28-3.74 9.55-6.46 11.35l5 11.21c3.16-.81 9.64 1.35 12.76 2.79l.33 12.87c-3 1.6-9.39 4.1-12.59 3.45l-4.38 11.42c2.81 1.66 5.86 7.78 7.05 11l-8.86 9.34c-3.28-1-9.55-3.74-11.35-6.46zm15.31-39.53a25.9 25.9 0 1 0 -25.21 26.57 25.91 25.91 0 0 0 25.21-26.57z" fill="#fff" stroke="#32363b" stroke-linecap="round" stroke-linejoin="round" stroke-width="4.37"/></g></svg>