<svg viewBox="0 0 200 200" xmlns="http://www.w3.org/2000/svg"><path d="m132.81 90.62a4.69 4.69 0 0 1 -4.69-4.68v-23.44a28.12 28.12 0 0 0 -56.24 0v23.44a4.69 4.69 0 0 1 -9.38 0v-23.44a37.5 37.5 0 0 1 75 0v23.44a4.69 4.69 0 0 1 -4.69 4.68z" fill="currentColor" stroke="#32363b" stroke-linecap="round" stroke-linejoin="round" stroke-width="4.37"/><path d="m142.19 175h-84.38a14.08 14.08 0 0 1 -14.06-14.06v-65.63a14.08 14.08 0 0 1 14.06-14.06h84.38a14.08 14.08 0 0 1 14.06 14.06v65.63a14.08 14.08 0 0 1 -14.06 14.06z" fill="currentColor" stroke="#32363b" stroke-linecap="round" stroke-linejoin="round" stroke-width="4.37"/><g fill="#fff"><path d="m58.74 120.09h7.37v-21.68h-6.11v-3.74a21.93 21.93 0 0 0 7.66-2.67h4.46v28.12h6.49v4.88h-19.87z"/><path d="m88.71 139.82c9.18-8.87 14.94-14.68 14.94-19.71 0-3.48-1.92-5.71-5.44-5.71-2.55 0-4.67 1.71-6.44 3.69l-3.32-3.32c3-3.22 6-5.09 10.53-5.09 6.33 0 10.43 4 10.43 10.12 0 5.86-5.45 11.88-12 18.78 1.71-.16 3.89-.36 5.5-.36h8.09v5.08h-22.29z"/><path d="m122.59 157.3a10.75 10.75 0 0 0 7.83 3.64c3.58 0 6.07-1.87 6.07-5 0-3.43-2.18-5.61-9.7-5.61v-4.33c6.48 0 8.61-2.23 8.61-5.29 0-2.75-1.87-4.41-4.88-4.41-2.59 0-4.61 1.25-6.64 3.12l-3.06-3.69a14.57 14.57 0 0 1 9.91-4.15c6.33 0 10.69 3.11 10.69 8.72 0 3.68-2.18 6.17-5.76 7.57v.21c3.89 1 6.85 3.84 6.85 8.2 0 6-5.24 9.54-11.57 9.54a14.35 14.35 0 0 1 -11.21-4.67z"/></g></svg>