<?xml version="1.0" encoding="UTF-8"?>
<svg xmlns="http://www.w3.org/2000/svg" xmlns:xlink="http://www.w3.org/1999/xlink" version="1.1" viewBox="0 0 960 540">
  <defs>
    <style>
      .cls-1, .cls-2, .cls-3, .cls-4, .cls-5, .cls-6, .cls-7, .cls-8, .cls-9, .cls-10 {
        fill: none;
      }

      .cls-11 {
        fill: #036;
      }

      .cls-12 {
        fill: #004e6f;
        fill-opacity: .4;
      }

      .cls-12, .cls-13, .cls-14 {
        fill-rule: evenodd;
      }

      .cls-15 {
        fill: url(#radial-gradient);
      }

      .cls-13 {
        fill: #009cde;
      }

      .cls-16, .cls-17, .cls-18 {
        isolation: isolate;
      }

      .cls-16, .cls-19 {
        fill: #ff991e;
      }

      .cls-2 {
        stroke: #09c;
      }

      .cls-2, .cls-7, .cls-8 {
        stroke-linejoin: round;
      }

      .cls-20 {
        stroke-width: .5px;
      }

      .cls-20, .cls-3, .cls-4, .cls-5, .cls-6, .cls-8, .cls-10 {
        stroke: #fff;
      }

      .cls-20, .cls-3, .cls-4, .cls-5, .cls-6, .cls-9, .cls-10 {
        stroke-miterlimit: 10;
      }

      .cls-20, .cls-21 {
        fill: #fff;
      }

      .cls-3 {
        stroke-width: 1.1px;
      }

      .cls-4 {
        stroke-width: 1.2px;
      }

      .cls-5 {
        stroke-width: 1.1px;
      }

      .cls-6 {
        stroke-width: .8px;
      }

      .cls-7, .cls-8 {
        stroke-width: 2px;
      }

      .cls-7, .cls-9 {
        stroke: #009cde;
      }

      .cls-22 {
        fill: #36bcb0;
      }

      .cls-9 {
        stroke-width: 2.7px;
      }

      .cls-14 {
        fill-opacity: 0;
      }

      .cls-18 {
        fill: #009ae0;
      }

      .cls-23 {
        clip-path: url(#clippath);
      }

      .cls-10 {
        stroke-width: 2px;
      }
    </style>
    <radialGradient id="radial-gradient" cx="343.8" cy="119" fx="343.8" fy="119" r="487.1" gradientTransform="translate(110.4 -153.7) rotate(32.9) scale(1 .9) skewX(0)" gradientUnits="userSpaceOnUse">
      <stop offset="0" stop-color="#0b5086"/>
      <stop offset=".3" stop-color="#0d4577"/>
      <stop offset=".8" stop-color="#142b50"/>
      <stop offset=".9" stop-color="#16274a"/>
    </radialGradient>
    <clipPath id="clippath">
      <circle class="cls-3" cx="865.2" cy="337.3" r="5.2"/>
    </clipPath>
  </defs>
  <!-- Generator: Adobe Illustrator 28.6.0, SVG Export Plug-In . SVG Version: 1.2.0 Build 709)  -->
  <g>
    <g id="Layer_1">
      <rect class="cls-15" x="0" width="960" height="540"/>
      <path class="cls-21" d="M21.5,521c0,.4-.1.7-.3.9-.2.2-.5.3-1,.3s-.7-.1-1-.4c-.2-.3-.4-.7-.4-1.1v-.4c0-.5.1-.8.4-1.1.2-.3.6-.4,1-.4s.7.1,1,.3c.2.2.3.5.3.9h-.6c0-.3,0-.4-.2-.5-.1-.1-.3-.2-.5-.2s-.4,0-.6.3c-.1.2-.2.4-.2.8v.4c0,.3,0,.6.2.8.1.2.3.3.6.3s.4,0,.5-.2c.1-.1.2-.3.2-.6h.6ZM18,520.5c0,.4.1.9.3,1.2.2.4.5.7.8.9.4.2.7.3,1.2.3s.8-.1,1.2-.3c.4-.2.7-.5.9-.9.2-.4.3-.8.3-1.2s-.1-.9-.3-1.2c-.2-.4-.5-.7-.8-.9-.4-.2-.7-.3-1.2-.3s-.8.1-1.2.3c-.4.2-.6.5-.8.9-.2.4-.3.8-.3,1.2ZM17.5,520.5c0-.5.1-1,.4-1.5.2-.4.6-.8,1-1.1.4-.3.9-.4,1.4-.4s1,.1,1.4.4c.4.3.8.6,1,1.1.2.4.4.9.4,1.5s-.1,1-.4,1.4c-.2.4-.6.8-1,1.1-.4.3-.9.4-1.4.4s-1-.1-1.4-.4c-.4-.3-.8-.6-1-1.1-.2-.4-.3-.9-.3-1.4ZM29.6,523.3h-3.7v-.5l2-2.2c.3-.3.5-.6.6-.8.1-.2.2-.4.2-.6s0-.5-.3-.7c-.2-.2-.4-.3-.7-.3s-.6.1-.8.3c-.2.2-.3.5-.3.8h-.7c0-.5.2-.9.5-1.3.3-.3.8-.5,1.4-.5s.9.1,1.2.4c.3.3.5.6.5,1.1s-.4,1.2-1.1,2l-1.5,1.7h2.9v.6ZM34,520.9c0,.8-.1,1.5-.4,1.9-.3.4-.7.6-1.4.6s-1.1-.2-1.3-.6c-.3-.4-.4-1-.5-1.8v-1c0-.8.1-1.5.4-1.9.3-.4.7-.6,1.4-.6s1.1.2,1.3.6c.3.4.4,1,.5,1.8v.9ZM33.2,519.9c0-.6,0-1-.3-1.3-.2-.3-.4-.4-.8-.4s-.6.1-.8.4c-.2.3-.3.7-.3,1.3v1.2c0,.6,0,1.1.3,1.4.2.3.4.4.8.4s.6-.1.8-.4c.2-.3.3-.7.3-1.3v-1.2ZM38.6,523.3h-3.7v-.5l2-2.2c.3-.3.5-.6.6-.8s.2-.4.2-.6,0-.5-.3-.7c-.2-.2-.4-.3-.7-.3s-.6.1-.8.3c-.2.2-.3.5-.3.8h-.7c0-.5.2-.9.5-1.3.3-.3.8-.5,1.4-.5s.9.1,1.2.4c.3.3.5.6.5,1.1s-.4,1.2-1.1,2l-1.5,1.7h2.9v.6ZM42.4,521.4h.8v.6h-.8v1.3h-.7v-1.3h-2.6v-.4l2.5-3.9h.8v3.8ZM39.9,521.4h1.8v-2.8.2c0,0-1.8,2.6-1.8,2.6ZM49.2,521.9h-2.4l-.5,1.5h-.8l2.2-5.7h.7l2.2,5.7h-.8l-.5-1.5ZM47,521.2h1.9l-1-2.7-1,2.7ZM52.3,521.4l-.5.5v1.5h-.7v-6h.7v3.6l.4-.5,1.3-1.4h.9l-1.6,1.8,1.8,2.5h-.8l-1.5-2ZM57.8,523.3c0,0,0-.2,0-.5-.3.4-.7.5-1.2.5s-.8-.1-1-.3c-.3-.2-.4-.5-.4-.9s.2-.8.5-1c.3-.2.8-.4,1.4-.4h.7v-.3c0-.3,0-.5-.2-.6-.1-.1-.4-.2-.7-.2s-.5,0-.7.2c-.2.1-.3.3-.3.5h-.7c0-.2,0-.4.2-.6.2-.2.4-.4.6-.5.3-.1.5-.2.8-.2.5,0,.9.1,1.1.4.3.2.4.6.4,1v2c0,.4,0,.7.2.9h0c0,0-.8,0-.8,0ZM56.6,522.8c.2,0,.4,0,.6-.2.2-.1.4-.3.5-.5v-.9h-.6c-.9,0-1.3.3-1.3.8s0,.4.2.5c.2.1.3.2.6.2ZM60.2,519.1v.5c.3-.4.7-.5,1.3-.5s1,.2,1.2.7c.1-.2.3-.4.5-.5.2-.1.5-.2.8-.2.9,0,1.4.5,1.4,1.5v2.8h-.7v-2.8c0-.3,0-.5-.2-.7-.1-.1-.4-.2-.7-.2s-.5,0-.7.2-.3.4-.3.6v2.8h-.7v-2.8c0-.6-.3-.9-.9-.9s-.8.2-1,.6v3.1h-.7v-4.2h.7ZM69.2,523.3c0,0,0-.2,0-.5-.3.4-.7.5-1.2.5s-.8-.1-1-.3c-.3-.2-.4-.5-.4-.9s.2-.8.5-1c.3-.2.8-.4,1.4-.4h.7v-.3c0-.3,0-.5-.2-.6-.1-.1-.4-.2-.7-.2s-.5,0-.7.2c-.2.1-.3.3-.3.5h-.7c0-.2,0-.4.2-.6.2-.2.4-.4.6-.5.3-.1.5-.2.8-.2.5,0,.9.1,1.1.4.3.2.4.6.4,1v2c0,.4,0,.7.2.9h0c0,0-.8,0-.8,0ZM68,522.8c.2,0,.4,0,.6-.2.2-.1.4-.3.5-.5v-.9h-.6c-.9,0-1.3.3-1.3.8s0,.4.2.5c.2.1.3.2.6.2ZM71.7,523.3h-.7v-4.2h.7v4.2ZM70.9,518c0-.1,0-.2.1-.3,0,0,.2-.1.3-.1s.3,0,.3.1c0,0,.1.2.1.3s0,.2-.1.3c0,0-.2.1-.3.1s-.2,0-.3-.1c0,0-.1-.2-.1-.3Z"/>
      <path class="cls-14" d="M17.7,501.4h925.3"/>
      <path class="cls-2" d="M17.7,501.4h925.3"/>
      <g>
        <g class="cls-17">
          <path class="cls-19" d="M911.7,523.9h-1.8l1.6-3.2h0l.2,3.2h0ZM911.8,525.4v1.3h2.1l-.7-7.4h-3l-3.8,7.4h2.1l.6-1.3h2.7Z"/>
          <polygon class="cls-19" points="916.8 523.4 917.1 523.4 918.6 521.4 920.4 521.4 918.4 523.9 919.7 526.7 917.7 526.7 916.9 524.5 916.6 524.5 916.1 526.7 914.4 526.7 916 519.2 917.7 519.2 916.8 523.4"/>
          <path class="cls-19" d="M922.6,524.5c.6,0,.9,0,.8.5-.1.6-.4.6-1.1.6s-.7,0-.6-.6c0-.5.4-.6.9-.6h0ZM923.1,526.7h1.7l.7-3.3c.4-1.8-.3-2-2.1-2s-2.4,0-2.8,1.6h1.7c0-.5.4-.6.8-.6.7,0,.7.3.6.8l-.2.8h0c0-.6-.8-.6-1.3-.6-1.2,0-2,.4-2.2,1.6-.3,1.3.4,1.6,1.5,1.6s1.4-.1,1.7-.8h0l-.2.8h0Z"/>
          <path class="cls-19" d="M928.2,521.4l-.2.7h0c.3-.6,1-.8,1.6-.8s1.5.1,1.4,1h0c.3-.7,1-1,1.7-1,1.2,0,1.7.5,1.5,1.7l-.8,3.6h-1.7l.6-3c0-.6.2-.9-.5-.9s-.9.4-1,1l-.6,3h-1.7l.7-3.2c0-.5.1-.8-.5-.8s-.9.4-1,1l-.6,3h-1.7l1.1-5.2h1.6Z"/>
          <path class="cls-19" d="M937,524.5c.6,0,.9,0,.8.5-.1.6-.4.6-1.1.6s-.7,0-.6-.6c0-.5.4-.6.9-.6h0ZM937.5,526.7h1.7l.7-3.3c.4-1.8-.3-2-2.1-2s-2.4,0-2.8,1.6h1.7c0-.5.4-.6.8-.6.7,0,.7.3.6.8l-.2.8h0c0-.6-.8-.6-1.3-.6-1.2,0-2,.4-2.2,1.6-.3,1.3.4,1.6,1.5,1.6s1.4-.1,1.7-.8h0l-.2.8h0Z"/>
          <path class="cls-19" d="M941.6,526.7h-1.7l1.1-5.2h1.7l-1.1,5.2h0Z"/>
        </g>
        <path class="cls-18" d="M907.3,528.5c-3.8-1.2-6.5-4.7-6.5-8.8s2.8-7.7,6.7-8.8c.4-.1.3-.4-.2-.4-5.1,0-9.3,4.1-9.3,9.2s4.1,9.2,9.3,9.2.5-.3,0-.4Z"/>
        <path class="cls-18" d="M902.5,521.8c0-.2,0-.5,0-.7,0-4,3.3-7.3,7.3-7.3s5,1.7,5.1,1.6c.2-.1-1.4-3.5-5.9-3.5s-7.3,3.3-7.3,7.3.2,1.8.5,2.6c.1.4.3.4.3,0Z"/>
        <path class="cls-18" d="M905.6,516.6c1.9-.8,4.3-.8,6.6,0,1.6.6,2.5,1.3,2.6,1.3.1,0-.9-1.7-2.8-2.4-2.3-.9-4.7-.4-6.5,1-.2.2-.1.3.1.2Z"/>
        <path class="cls-16" d="M943.1,520c0,.5-.4,1-1,1s-1-.4-1-1,.4-1,1-1,1,.4,1,1Z"/>
      </g>
      <g>
        <g>
          <g>
            <path class="cls-12" d="M28.7,218.5h0c0-2.3,1.8-4.1,4.1-4.1h124c1.1,0,2.1.4,2.9,1.2.8.8,1.2,1.8,1.2,2.9v38.3c0,2.3-1.8,4.1-4.1,4.1H32.8c-2.3,0-4.1-1.8-4.1-4.1v-38.3Z"/>
            <path class="cls-9" d="M28.7,218.5h0c0-2.3,1.8-4.1,4.1-4.1h124c1.1,0,2.1.4,2.9,1.2.8.8,1.2,1.8,1.2,2.9v38.3c0,2.3-1.8,4.1-4.1,4.1H32.8c-2.3,0-4.1-1.8-4.1-4.1v-38.3Z"/>
            <path class="cls-21" d="M99.3,232.6c0,.9-.4,1.6-1,2.2-.6.5-1.4.8-2.4.8s-2-.4-2.6-1.1c-.6-.7-.9-1.8-.9-3v-.5c0-.8.1-1.5.4-2.2.3-.6.7-1.1,1.2-1.4.5-.3,1.2-.5,1.9-.5s1.8.3,2.4.8c.6.5,1,1.3,1,2.2h-1.8c0-.6-.2-.9-.5-1.2-.3-.2-.7-.4-1.2-.4s-1,.2-1.3.6c-.3.4-.4,1.1-.5,2v.6c0,.9.1,1.6.4,2s.7.6,1.3.6.9-.1,1.2-.4c.3-.2.4-.6.5-1.2h1.8ZM104,235.5c0-.2-.1-.3-.2-.6-.4.5-.9.7-1.6.7s-1.1-.2-1.5-.5-.6-.8-.6-1.4.2-1.2.7-1.5c.5-.4,1.2-.5,2.2-.5h.8v-.4c0-.3,0-.5-.2-.7-.1-.2-.4-.3-.7-.3s-.5,0-.7.2c-.2.1-.2.3-.2.6h-1.7c0-.4.1-.7.3-1,.2-.3.6-.6,1-.7.4-.2.9-.3,1.4-.3.8,0,1.4.2,1.9.6.5.4.7.9.7,1.6v2.8c0,.6,0,1.1.2,1.4h0c0,0-1.7,0-1.7,0ZM102.6,234.3c.2,0,.5,0,.7-.2.2-.1.4-.3.5-.5v-1.1h-.6c-.8,0-1.3.3-1.4.9h0c0,.3,0,.5.2.6.1.1.3.2.6.2ZM108.3,229.1v.7c.5-.6,1.1-.8,1.9-.8s1.4.3,1.7,1c.4-.6,1.1-1,1.9-1s1.2.2,1.5.6c.3.4.5,1,.5,1.8v4h-1.7v-4c0-.4,0-.6-.2-.8-.1-.2-.4-.2-.8-.2s-.8.2-1,.7v4.4h-1.7v-4c0-.4,0-.6-.2-.8-.1-.2-.4-.2-.7-.2s-.8.2-1,.6v4.5h-1.7v-6.3h1.6ZM120.1,235.6c-.9,0-1.7-.3-2.3-.9-.6-.6-.9-1.3-.9-2.3v-.2c0-.6.1-1.2.4-1.7.2-.5.6-.9,1-1.2.5-.3,1-.4,1.5-.4.9,0,1.6.3,2,.8.5.5.8,1.3.8,2.3v.7h-4c0,.4.2.8.5,1,.3.2.6.4,1.1.4.6,0,1.2-.2,1.5-.7l.8.9c-.3.4-.6.7-1,.9-.4.2-.9.3-1.4.3ZM119.9,230.4c-.3,0-.6.1-.8.3-.2.2-.3.6-.4,1h2.4c0-.5-.1-.8-.3-1-.2-.2-.5-.3-.8-.3ZM127.2,230.7c-.2,0-.4,0-.6,0-.6,0-1.1.2-1.3.6v4.2h-1.7v-6.3h1.6v.8c.4-.6.9-.9,1.5-.9s.4,0,.5,0v1.6ZM131.5,235.5c0-.2-.1-.3-.2-.6-.4.5-.9.7-1.6.7s-1.1-.2-1.5-.5-.6-.8-.6-1.4.2-1.2.7-1.5c.5-.4,1.2-.5,2.2-.5h.8v-.4c0-.3,0-.5-.2-.7-.1-.2-.4-.3-.7-.3s-.5,0-.7.2c-.2.1-.2.3-.2.6h-1.7c0-.4.1-.7.3-1,.2-.3.6-.6,1-.7.4-.2.9-.3,1.4-.3.8,0,1.4.2,1.9.6.5.4.7.9.7,1.6v2.8c0,.6,0,1.1.2,1.4h0c0,0-1.7,0-1.7,0ZM130.1,234.3c.2,0,.5,0,.7-.2.2-.1.4-.3.5-.5v-1.1h-.6c-.8,0-1.3.3-1.4.9h0c0,.3,0,.5.2.6.1.1.3.2.6.2Z"/>
            <path class="cls-21" d="M97,247.6c0-.3-.1-.6-.4-.8-.2-.2-.7-.4-1.3-.6-.6-.2-1.1-.4-1.4-.6-1-.5-1.5-1.2-1.5-2.1s.1-.9.4-1.2c.3-.4.6-.6,1.1-.8.5-.2,1-.3,1.6-.3s1.2.1,1.6.3c.5.2.8.5,1.1.9.3.4.4.8.4,1.4h-1.8c0-.4-.1-.7-.4-.9-.2-.2-.6-.3-1-.3s-.8,0-1,.3c-.2.2-.4.4-.4.7s.1.5.4.7.7.4,1.2.5c1,.3,1.7.7,2.2,1.1.5.4.7,1,.7,1.7s-.3,1.3-.8,1.8c-.6.4-1.3.6-2.2.6s-1.3-.1-1.8-.4c-.5-.2-1-.6-1.2-1-.3-.4-.4-.9-.4-1.5h1.8c0,.9.6,1.4,1.7,1.4s.7,0,1-.2c.2-.2.4-.4.4-.7ZM99.6,246.6c0-.6.1-1.2.4-1.7.2-.5.6-.9,1-1.1.5-.3,1-.4,1.6-.4.9,0,1.6.3,2.1.8.5.5.8,1.2.9,2.1v.4c0,1-.3,1.8-.8,2.4-.5.6-1.3.9-2.2.9s-1.6-.3-2.2-.9c-.5-.6-.8-1.4-.8-2.4h0ZM101.3,246.8c0,.6.1,1.1.3,1.4.2.3.6.5,1,.5s.7-.2,1-.5c.2-.3.3-.8.3-1.5s-.1-1-.3-1.4c-.2-.3-.6-.5-1-.5s-.7.2-1,.5c-.2.3-.3.8-.3,1.5ZM110.4,249.2c-.4.5-1,.8-1.7.8s-1.2-.2-1.6-.6c-.4-.4-.5-1-.5-1.7v-4.2h1.7v4.1c0,.7.3,1,.9,1s1-.2,1.2-.6v-4.5h1.7v6.3h-1.6v-.6ZM116.9,245.1c-.2,0-.4,0-.6,0-.6,0-1.1.2-1.3.6v4.2h-1.7v-6.3h1.6v.8c.4-.6.9-.9,1.5-.9s.4,0,.5,0v1.6ZM120.2,248.6c.3,0,.6,0,.8-.2.2-.2.3-.4.3-.7h1.6c0,.4-.1.8-.3,1.2-.2.4-.5.6-1,.8-.4.2-.8.3-1.3.3-.9,0-1.6-.3-2.1-.9-.5-.6-.8-1.4-.8-2.4h0c0-1.1.3-1.9.8-2.4.5-.6,1.2-.9,2.1-.9s1.4.2,1.9.7c.5.4.7,1,.7,1.8h-1.6c0-.3-.1-.6-.3-.8-.2-.2-.5-.3-.8-.3s-.7.1-.9.4c-.2.3-.3.8-.3,1.4v.2c0,.6,0,1.1.3,1.4.2.3.5.4.9.4ZM126.8,250c-.9,0-1.7-.3-2.3-.9-.6-.6-.9-1.3-.9-2.3v-.2c0-.6.1-1.2.4-1.7.2-.5.6-.9,1-1.2.5-.3,1-.4,1.5-.4.9,0,1.6.3,2,.8.5.5.8,1.3.8,2.3v.7h-4c0,.4.2.8.5,1,.3.2.6.4,1.1.4.6,0,1.2-.2,1.5-.7l.8.9c-.3.4-.6.7-1,.9-.4.2-.9.3-1.4.3ZM126.6,244.8c-.3,0-.6.1-.8.3-.2.2-.3.6-.4,1h2.4c0-.5-.1-.8-.3-1-.2-.2-.5-.3-.8-.3ZM133.8,248.1c0-.2-.1-.4-.3-.5-.2-.1-.5-.2-1-.3-1.5-.3-2.3-1-2.3-1.9s.2-1,.7-1.4c.5-.4,1.1-.6,1.8-.6s1.4.2,1.9.6c.5.4.7.9.7,1.5h-1.7c0-.2,0-.5-.2-.6s-.4-.2-.7-.2-.5,0-.7.2c-.2.1-.2.3-.2.5s0,.3.3.5c.2.1.5.2.9.3.4,0,.8.2,1.1.3.9.3,1.3.9,1.3,1.7s-.2,1.1-.8,1.4c-.5.4-1.1.5-1.9.5s-1,0-1.4-.3c-.4-.2-.7-.5-1-.8-.2-.3-.3-.7-.3-1.1h1.6c0,.3.1.5.3.7.2.2.5.2.8.2s.6,0,.7-.2c.2-.1.2-.3.2-.5Z"/>
            <path class="cls-12" d="M207.1,181.8h0c0-2.3,1.8-4.1,4.1-4.1h124c1.1,0,2.1.4,2.9,1.2.8.8,1.2,1.8,1.2,2.9v38.3c0,2.3-1.8,4.1-4.1,4.1h-124c-2.3,0-4.1-1.8-4.1-4.1v-38.3Z"/>
            <path class="cls-9" d="M207.1,181.8h0c0-2.3,1.8-4.1,4.1-4.1h124c1.1,0,2.1.4,2.9,1.2.8.8,1.2,1.8,1.2,2.9v38.3c0,2.3-1.8,4.1-4.1,4.1h-124c-2.3,0-4.1-1.8-4.1-4.1v-38.3Z"/>
            <path class="cls-21" d="M275.8,197h-3.1l-.6,1.8h-1.9l3.2-8.5h1.6l3.2,8.5h-1.9l-.6-1.8ZM273.2,195.6h2.1l-1.1-3.2-1.1,3.2ZM281.2,196.2l-.6.6v1.9h-1.7v-9h1.7v5l.3-.4,1.6-1.9h2l-2.3,2.6,2.5,3.7h-2l-1.6-2.5ZM289,198.8c0-.2-.1-.3-.2-.6-.4.5-.9.7-1.6.7s-1.1-.2-1.5-.5c-.4-.4-.6-.8-.6-1.4s.2-1.2.7-1.5c.5-.4,1.2-.5,2.2-.5h.8v-.4c0-.3,0-.5-.2-.7-.1-.2-.4-.3-.7-.3s-.5,0-.7.2c-.2.1-.2.3-.2.6h-1.7c0-.4.1-.7.3-1,.2-.3.6-.6,1-.7.4-.2.9-.3,1.4-.3.8,0,1.4.2,1.9.6.5.4.7.9.7,1.6v2.8c0,.6,0,1.1.2,1.4h0c0,0-1.7,0-1.7,0ZM287.6,197.6c.2,0,.5,0,.7-.2.2-.1.4-.3.5-.5v-1.1h-.6c-.8,0-1.3.3-1.4.9h0c0,.3,0,.5.2.6.1.1.3.2.6.2ZM293.4,192.4v.7c.5-.6,1.1-.8,1.9-.8s1.4.3,1.7,1c.4-.6,1.1-1,1.9-1s1.2.2,1.5.6c.3.4.5,1,.5,1.8v4h-1.7v-4c0-.4,0-.6-.2-.8-.1-.2-.4-.2-.8-.2s-.8.2-1,.7v4.4h-1.7v-4c0-.4,0-.6-.2-.8-.1-.2-.4-.2-.7-.2s-.8.2-1,.6v4.5h-1.7v-6.3h1.6ZM305.9,198.8c0-.2-.1-.3-.2-.6-.4.5-.9.7-1.6.7s-1.1-.2-1.5-.5c-.4-.4-.6-.8-.6-1.4s.2-1.2.7-1.5c.5-.4,1.2-.5,2.2-.5h.8v-.4c0-.3,0-.5-.2-.7-.1-.2-.4-.3-.7-.3s-.5,0-.7.2c-.2.1-.2.3-.2.6h-1.7c0-.4.1-.7.3-1,.2-.3.6-.6,1-.7.4-.2.9-.3,1.4-.3.8,0,1.4.2,1.9.6.5.4.7.9.7,1.6v2.8c0,.6,0,1.1.2,1.4h0c0,0-1.7,0-1.7,0ZM304.4,197.6c.2,0,.5,0,.7-.2.2-.1.4-.3.5-.5v-1.1h-.6c-.8,0-1.3.3-1.4.9h0c0,.3,0,.5.2.6.1.1.3.2.6.2ZM310.4,198.8h-1.7v-6.3h1.7v6.3ZM308.6,190.8c0-.2,0-.5.2-.6.2-.2.4-.2.7-.2s.5,0,.7.2c.2.2.3.4.3.6s0,.5-.3.6c-.2.2-.4.2-.7.2s-.5,0-.7-.2c-.2-.2-.2-.4-.2-.6Z"/>
            <path class="cls-21" d="M273.3,204.7l2.2,6.2,2.2-6.2h2.3v8.5h-1.8v-2.3l.2-4-2.3,6.4h-1.2l-2.3-6.4.2,4v2.3h-1.8v-8.5h2.3ZM285.9,211c0-.3-.1-.6-.4-.8-.2-.2-.7-.4-1.3-.6-.6-.2-1.1-.4-1.4-.6-1-.5-1.5-1.2-1.5-2.1s.1-.9.4-1.2c.3-.4.6-.6,1.1-.8.5-.2,1-.3,1.6-.3s1.2.1,1.6.3c.5.2.8.5,1.1.9.3.4.4.8.4,1.4h-1.8c0-.4-.1-.7-.4-.9-.2-.2-.6-.3-1-.3s-.8,0-1,.3c-.2.2-.4.4-.4.7s.1.5.4.7.7.4,1.2.5c1,.3,1.7.7,2.2,1.1.5.4.7,1,.7,1.7s-.3,1.3-.8,1.8c-.6.4-1.3.6-2.2.6s-1.3-.1-1.8-.4c-.5-.2-1-.6-1.2-1s-.4-.9-.4-1.5h1.8c0,.9.6,1.4,1.7,1.4s.7,0,1-.2c.2-.2.4-.4.4-.7ZM290.6,211.8h3.7v1.4h-5.5v-8.5h1.8v7.1ZM302.3,213.2h-1.7v-6.5l-2,.6v-1.4l3.5-1.3h.2v8.5Z"/>
            <path class="cls-12" d="M207.1,254.5h0c0-2.3,1.8-4.1,4.1-4.1h124c1.1,0,2.1.4,2.9,1.2.8.8,1.2,1.8,1.2,2.9v38.3c0,2.3-1.8,4.1-4.1,4.1h-124c-2.3,0-4.1-1.8-4.1-4.1v-38.3Z"/>
            <path class="cls-9" d="M207.1,254.4h0c0-2.3,1.8-4.1,4.1-4.1h124c1.1,0,2.1.4,2.9,1.2.8.8,1.2,1.8,1.2,2.9v38.3c0,2.3-1.8,4.1-4.1,4.1h-124c-2.3,0-4.1-1.8-4.1-4.1v-38.3Z"/>
            <path class="cls-21" d="M275.8,269.7h-3.1l-.6,1.8h-1.9l3.2-8.5h1.6l3.2,8.5h-1.9l-.6-1.8ZM273.2,268.2h2.1l-1.1-3.2-1.1,3.2ZM281.2,268.9l-.6.6v1.9h-1.7v-9h1.7v5l.3-.4,1.6-1.9h2l-2.3,2.6,2.5,3.7h-2l-1.6-2.5ZM289,271.4c0-.2-.1-.3-.2-.6-.4.5-.9.7-1.6.7s-1.1-.2-1.5-.5-.6-.8-.6-1.4.2-1.2.7-1.5c.5-.4,1.2-.5,2.2-.5h.8v-.4c0-.3,0-.5-.2-.7-.1-.2-.4-.3-.7-.3s-.5,0-.7.2c-.2.1-.2.3-.2.6h-1.7c0-.4.1-.7.3-1,.2-.3.6-.6,1-.7.4-.2.9-.3,1.4-.3.8,0,1.4.2,1.9.6.5.4.7.9.7,1.6v2.8c0,.6,0,1.1.2,1.4h0c0,0-1.7,0-1.7,0ZM287.6,270.3c.2,0,.5,0,.7-.2.2-.1.4-.3.5-.5v-1.1h-.6c-.8,0-1.3.3-1.4.9h0c0,.3,0,.5.2.6.1.1.3.2.6.2ZM293.4,265.1v.7c.5-.6,1.1-.8,1.9-.8s1.4.3,1.7,1c.4-.6,1.1-1,1.9-1s1.2.2,1.5.6c.3.4.5,1,.5,1.8v4h-1.7v-4c0-.4,0-.6-.2-.8-.1-.2-.4-.2-.8-.2s-.8.2-1,.7v4.4h-1.7v-4c0-.4,0-.6-.2-.8-.1-.2-.4-.2-.7-.2s-.8.2-1,.6v4.5h-1.7v-6.3h1.6ZM305.9,271.4c0-.2-.1-.3-.2-.6-.4.5-.9.7-1.6.7s-1.1-.2-1.5-.5-.6-.8-.6-1.4.2-1.2.7-1.5c.5-.4,1.2-.5,2.2-.5h.8v-.4c0-.3,0-.5-.2-.7-.1-.2-.4-.3-.7-.3s-.5,0-.7.2c-.2.1-.2.3-.2.6h-1.7c0-.4.1-.7.3-1,.2-.3.6-.6,1-.7.4-.2.9-.3,1.4-.3.8,0,1.4.2,1.9.6.5.4.7.9.7,1.6v2.8c0,.6,0,1.1.2,1.4h0c0,0-1.7,0-1.7,0ZM304.4,270.3c.2,0,.5,0,.7-.2.2-.1.4-.3.5-.5v-1.1h-.6c-.8,0-1.3.3-1.4.9h0c0,.3,0,.5.2.6.1.1.3.2.6.2ZM310.4,271.4h-1.7v-6.3h1.7v6.3ZM308.6,263.4c0-.2,0-.5.2-.6.2-.2.4-.2.7-.2s.5,0,.7.2c.2.2.3.4.3.6s0,.5-.3.6c-.2.2-.4.2-.7.2s-.5,0-.7-.2c-.2-.2-.2-.4-.2-.6Z"/>
            <path class="cls-21" d="M273.3,277.3l2.2,6.2,2.2-6.2h2.3v8.5h-1.8v-2.3l.2-4-2.3,6.4h-1.2l-2.3-6.4.2,4v2.3h-1.8v-8.5h2.3ZM285.9,283.6c0-.3-.1-.6-.4-.8-.2-.2-.7-.4-1.3-.6-.6-.2-1.1-.4-1.4-.6-1-.5-1.5-1.2-1.5-2.1s.1-.9.4-1.2c.3-.4.6-.6,1.1-.8.5-.2,1-.3,1.6-.3s1.2.1,1.6.3c.5.2.8.5,1.1.9.3.4.4.8.4,1.4h-1.8c0-.4-.1-.7-.4-.9-.2-.2-.6-.3-1-.3s-.8,0-1,.3c-.2.2-.4.4-.4.7s.1.5.4.7.7.4,1.2.5c1,.3,1.7.7,2.2,1.1.5.4.7,1,.7,1.7s-.3,1.3-.8,1.8c-.6.4-1.3.6-2.2.6s-1.3-.1-1.8-.4c-.5-.2-1-.6-1.2-1s-.4-.9-.4-1.5h1.8c0,.9.6,1.4,1.7,1.4s.7,0,1-.2c.2-.2.4-.4.4-.7ZM290.6,284.4h3.7v1.4h-5.5v-8.5h1.8v7.1ZM304,285.8h-5.8v-1.2l2.8-3c.4-.4.7-.8.8-1.1.2-.3.3-.6.3-.9,0-.4,0-.7-.3-.9-.2-.2-.5-.3-.8-.3s-.7.1-.9.4-.3.6-.3,1h-1.7c0-.5.1-1,.4-1.4.2-.4.6-.8,1-1,.5-.2,1-.4,1.5-.4.9,0,1.6.2,2,.6.5.4.7,1,.7,1.8s-.1.9-.3,1.3-.6.9-1.1,1.5l-1.9,2h3.7v1.4Z"/>
            <path class="cls-12" d="M490.3,178.3h0c3.8,0,6.8,3.1,6.8,6.8v101.8c0,1.8-.7,3.5-2,4.8-1.3,1.3-3,2-4.8,2h-89.7c-3.8,0-6.8-3.1-6.8-6.8v-101.8c0-3.8,3.1-6.8,6.8-6.8h89.7Z"/>
            <path class="cls-9" d="M490.3,178.3h0c3.8,0,6.8,3.1,6.8,6.8v101.8c0,1.8-.7,3.5-2,4.8-1.3,1.3-3,2-4.8,2h-89.7c-3.8,0-6.8-3.1-6.8-6.8v-101.8c0-3.8,3.1-6.8,6.8-6.8h89.7Z"/>
            <path class="cls-21" d="M421.8,277.2c0-.4-.2-.8-.5-1-.3-.2-.9-.5-1.7-.8-.8-.3-1.5-.5-1.9-.8-1.3-.7-1.9-1.6-1.9-2.8s.2-1.2.5-1.6c.4-.5.9-.9,1.5-1.1.6-.3,1.4-.4,2.2-.4s1.5.1,2.2.4c.6.3,1.1.7,1.5,1.2.4.5.5,1.1.5,1.8h-2.3c0-.5-.2-.9-.5-1.2-.3-.3-.8-.4-1.4-.4s-1,.1-1.3.4c-.3.2-.5.6-.5,1s.2.7.6.9.9.5,1.6.7c1.3.4,2.3.9,2.9,1.5.6.6.9,1.3.9,2.2s-.4,1.8-1.1,2.3c-.7.6-1.7.8-3,.8s-1.7-.2-2.4-.5c-.7-.3-1.3-.8-1.6-1.3-.4-.6-.6-1.2-.6-1.9h2.3c0,1.2.8,1.9,2.2,1.9s1-.1,1.3-.3c.3-.2.5-.5.5-1ZM428.3,269.7v2.1h1.4v1.7h-1.4v4.2c0,.3,0,.5.2.7.1.1.4.2.7.2s.5,0,.7,0v1.7c-.4.1-.9.2-1.4.2-1.6,0-2.4-.8-2.4-2.4v-4.5h-1.2v-1.7h1.2v-2.1h2.3ZM430.4,275.9c0-.8.2-1.6.5-2.2.3-.7.8-1.2,1.4-1.5.6-.4,1.3-.5,2.1-.5,1.1,0,2.1.3,2.8,1,.7.7,1.1,1.6,1.2,2.8v.6c0,1.3-.3,2.3-1.1,3.1-.7.8-1.7,1.2-2.9,1.2s-2.2-.4-2.9-1.2c-.7-.8-1.1-1.8-1.1-3.2h0ZM432.6,276.1c0,.8.2,1.4.5,1.8.3.4.7.6,1.3.6s1-.2,1.3-.6c.3-.4.5-1.1.5-2s-.2-1.4-.5-1.8c-.3-.4-.7-.7-1.3-.7s-1,.2-1.3.6c-.3.4-.5,1.1-.5,2ZM444.5,273.9c-.3,0-.6,0-.8,0-.9,0-1.4.3-1.7.9v5.5h-2.2v-8.5h2.1v1c.5-.8,1.2-1.2,2-1.2s.5,0,.7,0v2.2ZM450.3,280.2c-.1-.2-.2-.5-.2-.8-.6.6-1.3.9-2.1.9s-1.5-.2-2.1-.7c-.5-.5-.8-1.1-.8-1.8s.3-1.6,1-2.1c.7-.5,1.6-.7,2.9-.7h1v-.5c0-.4-.1-.7-.3-.9-.2-.2-.5-.4-.9-.4s-.7,0-.9.3c-.2.2-.3.4-.3.7h-2.3c0-.5.2-.9.5-1.4.3-.4.7-.7,1.3-1,.6-.2,1.2-.4,1.9-.4,1,0,1.9.3,2.5.8.6.5.9,1.3.9,2.2v3.7c0,.8.1,1.4.3,1.8h0c0,.1-2.3.1-2.3.1ZM448.4,278.6c.3,0,.6,0,.9-.2.3-.1.5-.3.6-.6v-1.5h-.8c-1.1,0-1.7.4-1.8,1.2h0c0,.4,0,.6.3.8.2.2.5.3.8.3ZM453.6,275.9c0-1.3.3-2.3.9-3.1.6-.8,1.4-1.2,2.5-1.2s1.6.3,2.2,1v-.8h2.1v8.2c0,.7-.2,1.4-.5,1.9-.3.6-.8,1-1.4,1.2-.6.3-1.3.4-2.1.4s-1.2-.1-1.8-.4c-.6-.2-1-.6-1.3-1l1-1.4c.6.6,1.2,1,2,1s1.1-.2,1.4-.5c.3-.3.5-.8.5-1.4v-.5c-.5.6-1.2.9-2,.9s-1.8-.4-2.5-1.2c-.6-.8-.9-1.9-.9-3.2h0ZM455.9,276.1c0,.8.2,1.4.5,1.8.3.4.7.7,1.3.7s1.2-.3,1.5-.8v-3.5c-.3-.5-.8-.8-1.5-.8s-1,.2-1.3.7c-.3.4-.5,1.1-.5,2ZM467,280.4c-1.2,0-2.2-.4-3-1.1-.8-.8-1.2-1.8-1.2-3v-.2c0-.8.2-1.6.5-2.3.3-.7.8-1.2,1.4-1.5.6-.4,1.3-.5,2.1-.5,1.2,0,2.1.4,2.7,1.1.7.7,1,1.8,1,3.1v.9h-5.4c0,.6.3,1,.7,1.3.4.3.8.5,1.4.5.9,0,1.6-.3,2-.9l1.1,1.2c-.3.5-.8.9-1.4,1.1-.6.3-1.2.4-1.9.4ZM466.7,273.4c-.4,0-.8.2-1.1.5-.3.3-.4.7-.5,1.3h3.1v-.2c0-.5-.1-.9-.4-1.2-.3-.3-.6-.4-1.1-.4Z"/>
            <path class="cls-12" d="M622,178.3h0c3.8,0,6.8,3.1,6.8,6.8v101.8c0,1.8-.7,3.5-2,4.8-1.3,1.3-3,2-4.8,2h-89.7c-3.8,0-6.8-3.1-6.8-6.8v-101.8c0-3.8,3.1-6.8,6.8-6.8h89.7Z"/>
            <path class="cls-9" d="M622,178.3h0c3.8,0,6.8,3.1,6.8,6.8v101.8c0,1.8-.7,3.5-2,4.8-1.3,1.3-3,2-4.8,2h-89.7c-3.8,0-6.8-3.1-6.8-6.8v-101.8c0-3.8,3.1-6.8,6.8-6.8h89.7Z"/>
            <path class="cls-12" d="M796.8,181.8h0c0-2.3,1.8-4.1,4.1-4.1h124c1.1,0,2.1.4,2.9,1.2.8.8,1.2,1.8,1.2,2.9v38.3c0,2.3-1.8,4.1-4.1,4.1h-124c-2.3,0-4.1-1.8-4.1-4.1v-38.3Z"/>
            <path class="cls-9" d="M796.8,181.8h0c0-2.3,1.8-4.1,4.1-4.1h124c1.1,0,2.1.4,2.9,1.2.8.8,1.2,1.8,1.2,2.9v38.3c0,2.3-1.8,4.1-4.1,4.1h-124c-2.3,0-4.1-1.8-4.1-4.1v-38.3Z"/>
            <path class="cls-21" d="M865,203.8c0-.3-.1-.6-.4-.8-.2-.2-.7-.4-1.3-.6-.6-.2-1.1-.4-1.4-.6-1-.5-1.5-1.2-1.5-2.1s.1-.9.4-1.2c.3-.4.6-.6,1.1-.8.5-.2,1-.3,1.6-.3s1.2.1,1.6.3c.5.2.8.5,1.1.9.3.4.4.8.4,1.4h-1.8c0-.4-.1-.7-.4-.9-.2-.2-.6-.3-1-.3s-.8,0-1,.3c-.2.2-.4.4-.4.7s.1.5.4.7.7.4,1.2.5c1,.3,1.7.7,2.2,1.1.5.4.7,1,.7,1.7s-.3,1.3-.8,1.8c-.6.4-1.3.6-2.2.6s-1.3-.1-1.8-.4c-.5-.2-1-.6-1.2-1-.3-.4-.4-.9-.4-1.5h1.8c0,.9.6,1.4,1.7,1.4s.7,0,1-.2c.2-.2.4-.4.4-.7ZM872.4,203.8c0-.3-.1-.6-.4-.8-.2-.2-.7-.4-1.3-.6-.6-.2-1.1-.4-1.4-.6-1-.5-1.5-1.2-1.5-2.1s.1-.9.4-1.2c.3-.4.6-.6,1.1-.8.5-.2,1-.3,1.6-.3s1.2.1,1.6.3c.5.2.8.5,1.1.9.3.4.4.8.4,1.4h-1.8c0-.4-.1-.7-.4-.9-.2-.2-.6-.3-1-.3s-.8,0-1,.3c-.2.2-.4.4-.4.7s.1.5.4.7.7.4,1.2.5c1,.3,1.7.7,2.2,1.1.5.4.7,1,.7,1.7s-.3,1.3-.8,1.8c-.6.4-1.3.6-2.2.6s-1.3-.1-1.8-.4c-.5-.2-1-.6-1.2-1-.3-.4-.4-.9-.4-1.5h1.8c0,.9.6,1.4,1.7,1.4s.7,0,1-.2c.2-.2.4-.4.4-.7ZM880.2,204.2h-3.1l-.6,1.8h-1.9l3.2-8.5h1.6l3.2,8.5h-1.9l-.6-1.8ZM877.6,202.8h2.1l-1.1-3.2-1.1,3.2ZM885.3,206h-1.8v-8.5h1.8v8.5Z"/>
            <path class="cls-12" d="M797,255.5h0c0-2.3,1.8-4.1,4.1-4.1h124c1.1,0,2.1.4,2.9,1.2.8.8,1.2,1.8,1.2,2.9v38.3c0,2.3-1.8,4.1-4.1,4.1h-124c-2.3,0-4.1-1.8-4.1-4.1v-38.3Z"/>
            <path class="cls-9" d="M797,255.5h0c0-2.3,1.8-4.1,4.1-4.1h124c1.1,0,2.1.4,2.9,1.2.8.8,1.2,1.8,1.2,2.9v38.3c0,2.3-1.8,4.1-4.1,4.1h-124c-2.3,0-4.1-1.8-4.1-4.1v-38.3Z"/>
            <path class="cls-21" d="M867.3,264v5.6c0,.9-.3,1.7-.9,2.2-.6.5-1.4.8-2.4.8s-1.8-.3-2.4-.8-.9-1.3-.9-2.2v-5.7h1.8v5.6c0,.6.1,1,.4,1.2.3.2.6.4,1.1.4,1,0,1.5-.5,1.5-1.6v-5.7h1.8ZM870.6,272.5h-1.8v-8.5h1.8v8.5ZM878.6,267.7h2.1v1.5h-2.1v2.4h-1.6v-2.4h-2.1v-1.5h2.1v-2.3h1.6v2.3Z"/>
            <path class="cls-21" d="M862.6,283.9v3h-1.8v-8.5h3.3c.6,0,1.2.1,1.7.4.5.2.9.6,1.1,1,.3.4.4.9.4,1.5,0,.8-.3,1.5-.9,2-.6.5-1.4.7-2.4.7h-1.5ZM862.6,282.5h1.6c.5,0,.8-.1,1-.3.2-.2.4-.5.4-.9s-.1-.8-.4-1c-.2-.3-.6-.4-1-.4h-1.6v2.7ZM870.3,286.9h-1.7v-9h1.7v9ZM875.4,286.9c0-.2-.1-.3-.2-.6-.4.5-.9.7-1.6.7s-1.1-.2-1.5-.5c-.4-.4-.6-.8-.6-1.4s.2-1.2.7-1.5c.5-.4,1.2-.5,2.2-.5h.8v-.4c0-.3,0-.5-.2-.7-.1-.2-.4-.3-.7-.3s-.5,0-.7.2c-.2.1-.2.3-.2.6h-1.7c0-.4.1-.7.3-1,.2-.3.6-.6,1-.7.4-.2.9-.3,1.4-.3.8,0,1.4.2,1.9.6.5.4.7.9.7,1.6v2.8c0,.6,0,1.1.2,1.4h0c0,0-1.7,0-1.7,0ZM874,285.7c.2,0,.5,0,.7-.2.2-.1.4-.3.5-.5v-1.1h-.6c-.8,0-1.3.3-1.4.9h0c0,.3,0,.5.2.6.1.1.3.2.6.2ZM880.4,284.5l1.2-4h1.8l-2.5,7.3v.3c-.5.8-1.1,1.2-2,1.2s-.5,0-.8-.1v-1.3h.3c.3,0,.6,0,.7-.2.2,0,.3-.2.4-.5l.2-.5-2.2-6.4h1.8l1.2,4ZM886.9,287c-.9,0-1.7-.3-2.3-.9-.6-.6-.9-1.3-.9-2.3v-.2c0-.6.1-1.2.4-1.7.2-.5.6-.9,1-1.2.5-.3,1-.4,1.5-.4.9,0,1.6.3,2,.8.5.5.8,1.3.8,2.3v.7h-4c0,.4.2.8.5,1,.3.2.6.4,1.1.4.6,0,1.2-.2,1.5-.7l.8.9c-.3.4-.6.7-1,.9-.4.2-.9.3-1.4.3ZM886.7,281.8c-.3,0-.6.1-.8.3-.2.2-.3.6-.4,1h2.4c0-.5-.1-.8-.3-1-.2-.2-.5-.3-.8-.3ZM894,282.2c-.2,0-.4,0-.6,0-.6,0-1.1.2-1.3.6v4.2h-1.7v-6.3h1.6v.8c.4-.6.9-.9,1.5-.9s.4,0,.5,0v1.6Z"/>
            <path class="cls-12" d="M207.1,319.7h0c0-2.3,1.8-4.1,4.1-4.1h715.9c1.1,0,2.1.4,2.9,1.2.8.8,1.2,1.8,1.2,2.9v38.3c0,2.3-1.8,4.1-4.1,4.1H211.2c-2.3,0-4.1-1.8-4.1-4.1v-38.3Z"/>
            <path class="cls-9" d="M207.1,319.7h0c0-2.3,1.8-4.1,4.1-4.1h715.9c1.1,0,2.1.4,2.9,1.2.8.8,1.2,1.8,1.2,2.9v38.3c0,2.3-1.8,4.1-4.1,4.1H211.2c-2.3,0-4.1-1.8-4.1-4.1v-38.3Z"/>
            <path class="cls-21" d="M464.3,339.3c0,.9-.2,1.7-.5,2.5-.3.7-.8,1.2-1.4,1.6-.6.4-1.3.6-2.1.6s-1.5-.2-2.1-.6c-.6-.4-1.1-.9-1.4-1.6-.3-.7-.5-1.5-.5-2.4v-.5c0-.9.2-1.8.5-2.5.3-.7.8-1.2,1.4-1.6.6-.4,1.3-.6,2.1-.6s1.5.2,2.1.6c.6.4,1.1.9,1.4,1.6.3.7.5,1.5.5,2.5v.4ZM462.3,338.9c0-1-.2-1.7-.5-2.2-.4-.5-.9-.8-1.5-.8s-1.2.3-1.5.8c-.4.5-.5,1.2-.5,2.2v.5c0,1,.2,1.7.5,2.2.4.5.9.8,1.5.8s1.2-.3,1.5-.8c.4-.5.5-1.3.5-2.2v-.5ZM471.9,340.4c0,1.1-.2,2-.7,2.6-.5.6-1.2.9-2,.9s-1.4-.3-1.8-.9v.8h-1.8v-10h1.9v3.6c.4-.5,1-.8,1.7-.8s1.5.3,2,1c.5.6.7,1.5.7,2.7h0ZM470.1,340.2c0-.7-.1-1.2-.3-1.5-.2-.3-.6-.5-1-.5s-1,.2-1.2.7v2.8c.2.5.6.7,1.2.7s1-.3,1.2-.9c0-.3.1-.7.1-1.3ZM476.9,341.9c0-.2-.1-.4-.3-.5-.2-.1-.6-.3-1.1-.4-1.7-.4-2.5-1.1-2.5-2.1,0-.6.3-1.1.8-1.6.5-.4,1.2-.6,2-.6s1.6.2,2.1.6c.5.4.8,1,.8,1.6h-1.9c0-.3,0-.5-.3-.7-.2-.2-.4-.3-.8-.3s-.6,0-.7.2c-.2.1-.3.3-.3.5,0,.2,0,.4.3.5.2.1.5.2,1,.3.5,0,.9.2,1.2.3,1,.4,1.5,1,1.5,1.9,0,.6-.3,1.2-.8,1.6-.5.4-1.3.6-2.1.6s-1.1-.1-1.6-.3c-.5-.2-.8-.5-1.1-.9-.3-.4-.4-.8-.4-1.2h1.8c0,.3.1.6.4.8.2.2.5.3.9.3s.6,0,.8-.2c.2-.1.3-.3.3-.5ZM483.2,344c-1,0-1.9-.3-2.5-.9-.6-.6-1-1.5-1-2.5v-.2c0-.7.1-1.3.4-1.9.3-.6.7-1,1.2-1.3.5-.3,1.1-.5,1.7-.5,1,0,1.7.3,2.3.9.6.6.8,1.5.8,2.6v.8h-4.5c0,.5.2.8.5,1.1.3.3.7.4,1.2.4.7,0,1.3-.3,1.7-.8l.9,1c-.3.4-.7.7-1.1.9-.5.2-1,.3-1.6.3ZM483,338.2c-.4,0-.7.1-.9.4-.2.2-.4.6-.5,1.1h2.6v-.2c0-.4-.1-.7-.3-1-.2-.2-.5-.3-.9-.3ZM491.1,338.6c-.2,0-.5,0-.7,0-.7,0-1.2.2-1.4.7v4.6h-1.9v-7h1.8v.8c.4-.6,1-1,1.6-1s.4,0,.6,0v1.8ZM494.8,341.5l1.3-4.8h2l-2.4,7h-1.8l-2.4-7h2l1.3,4.8ZM502.8,343.8c0-.2-.1-.4-.2-.6-.4.5-1,.8-1.8.8s-1.3-.2-1.7-.6c-.4-.4-.7-.9-.7-1.5s.3-1.3.8-1.7c.6-.4,1.4-.6,2.4-.6h.9v-.4c0-.3,0-.6-.2-.8-.2-.2-.4-.3-.8-.3s-.6,0-.8.2c-.2.1-.3.4-.3.6h-1.9c0-.4.1-.8.4-1.1.3-.4.6-.6,1.1-.8.5-.2,1-.3,1.5-.3.9,0,1.6.2,2.1.7.5.4.8,1.1.8,1.8v3c0,.7.1,1.2.3,1.5h0c0,.1-1.9.1-1.9.1ZM501.3,342.5c.3,0,.5,0,.8-.2.2-.1.4-.3.5-.5v-1.2h-.7c-.9,0-1.4.3-1.5,1h0c0,.3,0,.5.2.7.2.1.4.2.7.2ZM512.2,340.4c0,1.1-.2,2-.7,2.6-.5.6-1.2.9-2,.9s-1.4-.3-1.8-.9v.8h-1.8v-10h1.9v3.6c.4-.5,1-.8,1.7-.8s1.5.3,2,1c.5.6.7,1.5.7,2.7h0ZM510.4,340.2c0-.7-.1-1.2-.3-1.5-.2-.3-.6-.5-1-.5s-1,.2-1.2.7v2.8c.2.5.6.7,1.2.7s1-.3,1.2-.9c0-.3.1-.7.1-1.3ZM515.4,343.8h-1.9v-7h1.9v7ZM513.4,335c0-.3,0-.5.3-.7.2-.2.5-.3.8-.3s.6,0,.8.3c.2.2.3.4.3.7s0,.5-.3.7c-.2.2-.4.3-.8.3s-.6,0-.8-.3c-.2-.2-.3-.4-.3-.7ZM518.9,343.8h-1.9v-10h1.9v10ZM522.5,343.8h-1.9v-7h1.9v7ZM520.5,335c0-.3,0-.5.3-.7.2-.2.5-.3.8-.3s.6,0,.8.3c.2.2.3.4.3.7s0,.5-.3.7c-.2.2-.4.3-.8.3s-.6,0-.8-.3c-.2-.2-.3-.4-.3-.7ZM526.3,335.1v1.7h1.2v1.4h-1.2v3.5c0,.3,0,.4.2.6.1.1.3.2.6.2s.4,0,.5,0v1.4c-.4.1-.7.2-1.1.2-1.3,0-2-.7-2-2v-3.8h-1v-1.4h1v-1.7h1.9ZM531.1,341.2l1.3-4.4h2l-2.8,8.1-.2.4c-.4.9-1.1,1.4-2.1,1.4s-.5,0-.8-.1v-1.4h.3c.4,0,.6,0,.8-.2.2-.1.3-.3.4-.5l.2-.6-2.5-7.1h2l1.3,4.4ZM544.6,341.3l.9-4.5h1.8l-1.8,7h-1.6l-1.3-4.4-1.3,4.4h-1.6l-1.8-7h1.8l.9,4.5,1.3-4.5h1.4l1.3,4.5ZM550.3,343.8h-1.9v-7h1.9v7ZM548.3,335c0-.3,0-.5.3-.7.2-.2.5-.3.8-.3s.6,0,.8.3c.2.2.3.4.3.7s0,.5-.3.7c-.2.2-.4.3-.8.3s-.6,0-.8-.3c-.2-.2-.3-.4-.3-.7ZM554.1,335.1v1.7h1.2v1.4h-1.2v3.5c0,.3,0,.4.2.6.1.1.3.2.6.2s.4,0,.5,0v1.4c-.4.1-.7.2-1.1.2-1.3,0-2-.7-2-2v-3.8h-1v-1.4h1v-1.7h1.9ZM558.2,337.6c.5-.6,1.1-.9,1.9-.9,1.5,0,2.3.9,2.3,2.7v4.5h-1.9v-4.5c0-.4,0-.7-.3-.9-.2-.2-.5-.3-.9-.3s-.9.2-1.2.6v5h-1.9v-10h1.9v3.7ZM572.6,341.9h-3.4l-.6,2h-2.1l3.5-9.5h1.8l3.5,9.5h-2.1l-.7-2ZM569.7,340.3h2.4l-1.2-3.5-1.2,3.5ZM578.7,341l-.7.7v2.1h-1.9v-10h1.9v5.5l.4-.5,1.8-2.1h2.3l-2.5,2.9,2.8,4.1h-2.2l-1.8-2.8ZM587.3,343.8c0-.2-.1-.4-.2-.6-.4.5-1,.8-1.8.8s-1.3-.2-1.7-.6c-.4-.4-.7-.9-.7-1.5s.3-1.3.8-1.7c.6-.4,1.4-.6,2.4-.6h.9v-.4c0-.3,0-.6-.2-.8-.2-.2-.4-.3-.8-.3s-.6,0-.8.2c-.2.1-.3.4-.3.6h-1.9c0-.4.1-.8.4-1.1.3-.4.6-.6,1.1-.8.5-.2,1-.3,1.5-.3.9,0,1.6.2,2.1.7.5.4.8,1.1.8,1.8v3c0,.7.1,1.2.3,1.5h0c0,.1-1.9.1-1.9.1ZM585.8,342.5c.3,0,.5,0,.8-.2.2-.1.4-.3.5-.5v-1.2h-.7c-.9,0-1.4.3-1.5,1h0c0,.3,0,.5.2.7.2.1.4.2.7.2ZM592.1,336.8v.8c.6-.6,1.2-.9,2.1-.9s1.5.4,1.9,1.1c.5-.7,1.2-1.1,2.1-1.1s1.3.2,1.7.7c.4.4.6,1.1.6,2v4.5h-1.9v-4.5c0-.4,0-.7-.2-.9-.2-.2-.4-.3-.8-.3-.6,0-1,.3-1.2.8v4.8h-1.9v-4.5c0-.4,0-.7-.2-.9-.2-.2-.4-.3-.8-.3s-.9.2-1.2.7v5h-1.9v-7h1.8ZM606,343.8c0-.2-.1-.4-.2-.6-.4.5-1,.8-1.8.8s-1.3-.2-1.7-.6c-.4-.4-.7-.9-.7-1.5s.3-1.3.8-1.7c.6-.4,1.4-.6,2.4-.6h.9v-.4c0-.3,0-.6-.2-.8-.2-.2-.4-.3-.8-.3s-.6,0-.8.2c-.2.1-.3.4-.3.6h-1.9c0-.4.1-.8.4-1.1.3-.4.6-.6,1.1-.8.5-.2,1-.3,1.5-.3.9,0,1.6.2,2.1.7s.8,1.1.8,1.8v3c0,.7.1,1.2.3,1.5h0c0,.1-1.9.1-1.9.1ZM604.4,342.5c.3,0,.5,0,.8-.2.2-.1.4-.3.5-.5v-1.2h-.7c-.9,0-1.4.3-1.5,1h0c0,.3,0,.5.2.7.2.1.4.2.7.2ZM611,343.8h-1.9v-7h1.9v7ZM609,335c0-.3,0-.5.3-.7.2-.2.5-.3.8-.3s.6,0,.8.3c.2.2.3.4.3.7s0,.5-.3.7c-.2.2-.4.3-.8.3s-.6,0-.8-.3c-.2-.2-.3-.4-.3-.7ZM622.8,335.9h-2.9v7.9h-2v-7.9h-2.9v-1.6h7.7v1.6ZM627.3,338.6c-.2,0-.5,0-.7,0-.7,0-1.2.2-1.4.7v4.6h-1.9v-7h1.8v.8c.4-.6,1-1,1.6-1s.4,0,.6,0v1.8ZM632.1,343.8c0-.2-.1-.4-.2-.6-.4.5-1,.8-1.8.8s-1.3-.2-1.7-.6c-.4-.4-.7-.9-.7-1.5s.3-1.3.8-1.7c.6-.4,1.4-.6,2.4-.6h.9v-.4c0-.3,0-.6-.2-.8-.2-.2-.4-.3-.8-.3s-.6,0-.8.2c-.2.1-.3.4-.3.6h-1.9c0-.4.1-.8.4-1.1.3-.4.6-.6,1.1-.8.5-.2,1-.3,1.5-.3.9,0,1.6.2,2.1.7s.8,1.1.8,1.8v3c0,.7.1,1.2.3,1.5h0c0,.1-1.9.1-1.9.1ZM630.5,342.5c.3,0,.5,0,.8-.2.2-.1.4-.3.5-.5v-1.2h-.7c-.9,0-1.4.3-1.5,1h0c0,.3,0,.5.2.7.2.1.4.2.7.2ZM635.7,343.8v-5.7h-1v-1.4h1v-.6c0-.8.2-1.4.7-1.8.5-.4,1.1-.7,1.9-.7s.6,0,1,.1v1.5c-.2,0-.4,0-.6,0-.7,0-1.1.3-1.1,1v.6h2.3v-.3c0-.9.3-1.6.8-2,.5-.5,1.3-.7,2.3-.7s1.3.1,2.1.4l-.3,1.6c-.4-.1-.8-.2-1-.2-.2,0-.5,0-.8,0-.9,0-1.3.4-1.3,1.2v.3h1.4v1.4h-1.4v5.7h-1.9v-5.7h-2.3v5.7h-1.9ZM646,343.8h-1.9v-7h1.9v7ZM650.5,342.4c.3,0,.6,0,.8-.3s.3-.4.3-.8h1.8c0,.5-.1.9-.4,1.3-.2.4-.6.7-1,.9-.4.2-.9.3-1.5.3-1,0-1.8-.3-2.4-1-.6-.6-.9-1.5-.9-2.7h0c0-1.2.3-2.1.9-2.7.6-.6,1.4-1,2.4-1s1.6.2,2.1.8c.5.5.8,1.2.8,2h-1.8c0-.4-.1-.7-.3-.9-.2-.2-.5-.3-.9-.3s-.8.2-1,.5c-.2.3-.3.8-.3,1.5v.2c0,.7.1,1.2.3,1.6.2.3.6.5,1,.5ZM656.5,340.5v3.3h-2v-9.5h3.7c.7,0,1.3.1,1.9.4.5.3,1,.6,1.2,1.1.3.5.4,1,.4,1.6,0,.9-.3,1.7-1,2.2-.6.5-1.5.8-2.6.8h-1.7ZM656.5,338.9h1.8c.5,0,.9-.1,1.2-.4.3-.2.4-.6.4-1s-.1-.8-.4-1.1c-.3-.3-.6-.4-1.1-.5h-1.8v3ZM666.2,344c-1,0-1.9-.3-2.5-.9-.6-.6-1-1.5-1-2.5v-.2c0-.7.1-1.3.4-1.9.3-.6.7-1,1.2-1.3.5-.3,1.1-.5,1.7-.5,1,0,1.7.3,2.3.9.6.6.8,1.5.8,2.6v.8h-4.5c0,.5.2.8.5,1.1.3.3.7.4,1.2.4.7,0,1.3-.3,1.7-.8l.9,1c-.3.4-.7.7-1.1.9-.5.2-1,.3-1.6.3ZM666,338.2c-.4,0-.7.1-.9.4-.2.2-.4.6-.5,1.1h2.6v-.2c0-.4-.1-.7-.3-1-.2-.2-.5-.3-.9-.3ZM674.3,343.8c0-.2-.1-.4-.2-.6-.4.5-1,.8-1.8.8s-1.3-.2-1.7-.6c-.4-.4-.7-.9-.7-1.5s.3-1.3.8-1.7c.6-.4,1.4-.6,2.4-.6h.9v-.4c0-.3,0-.6-.2-.8-.2-.2-.4-.3-.8-.3s-.6,0-.8.2c-.2.1-.3.4-.3.6h-1.9c0-.4.1-.8.4-1.1.3-.4.6-.6,1.1-.8.5-.2,1-.3,1.5-.3.9,0,1.6.2,2.1.7.5.4.8,1.1.8,1.8v3c0,.7.1,1.2.3,1.5h0c0,.1-1.9.1-1.9.1ZM672.7,342.5c.3,0,.5,0,.8-.2.2-.1.4-.3.5-.5v-1.2h-.7c-.9,0-1.4.3-1.5,1h0c0,.3,0,.5.2.7.2.1.4.2.7.2ZM679.9,341l-.7.7v2.1h-1.9v-10h1.9v5.5l.4-.5,1.8-2.1h2.3l-2.5,2.9,2.8,4.1h-2.2l-1.8-2.8Z"/>
            <path class="cls-12" d="M753.8,178.3h0c3.8,0,6.8,3.1,6.8,6.8v101.8c0,1.8-.7,3.5-2,4.8-1.3,1.3-3,2-4.8,2h-89.7c-3.8,0-6.8-3.1-6.8-6.8v-101.8c0-3.8,3.1-6.8,6.8-6.8h89.7Z"/>
            <path class="cls-9" d="M753.8,178.3h0c3.8,0,6.8,3.1,6.8,6.8v101.8c0,1.8-.7,3.5-2,4.8-1.3,1.3-3,2-4.8,2h-89.7c-3.8,0-6.8-3.1-6.8-6.8v-101.8c0-3.8,3.1-6.8,6.8-6.8h89.7Z"/>
            <path class="cls-14" d="M163,238.4h22.1v-37.4h22.1"/>
            <path class="cls-7" d="M163,238.4h22.1v-37.4h22.1"/>
            <path class="cls-14" d="M163,238.4h22.1v35.2h22.1"/>
            <path class="cls-7" d="M163,238.4h22.1v35.2h22.1"/>
            <path class="cls-21" d="M547.7,279.7v-11.4h3.5c1,0,1.9.2,2.7.7s1.4,1.1,1.8,1.9c.4.8.7,1.8.7,2.8v.5c0,1.1-.2,2-.7,2.8s-1.1,1.5-1.8,1.9c-.8.4-1.7.7-2.7.7h-3.5ZM550,270.2v7.6h1.1c.9,0,1.6-.3,2.1-.9.5-.6.7-1.5.8-2.6v-.6c0-1.2-.2-2-.7-2.6-.5-.6-1.2-.9-2.1-.9h-1.2ZM561.8,279.9c-1.2,0-2.2-.4-3-1.1s-1.2-1.8-1.2-3v-.2c0-.8.2-1.6.5-2.3.3-.7.8-1.2,1.4-1.5.6-.4,1.3-.5,2.1-.5,1.2,0,2.1.4,2.7,1.1.7.7,1,1.8,1,3.1v.9h-5.4c0,.6.3,1,.7,1.3s.8.5,1.4.5c.9,0,1.6-.3,2-.9l1.1,1.2c-.3.5-.8.9-1.4,1.1-.6.3-1.2.4-1.9.4ZM561.6,272.9c-.4,0-.8.2-1.1.5-.3.3-.4.7-.5,1.3h3.1v-.2c0-.5-.1-.9-.4-1.2s-.6-.4-1.1-.4ZM569,279.7h-2.3v-12h2.3v12ZM573.2,279.7h-2.3v-8.5h2.3v8.5ZM570.8,269.1c0-.3.1-.6.3-.8.2-.2.5-.3.9-.3s.7.1.9.3.3.5.3.8-.1.6-.4.8c-.2.2-.5.3-.9.3s-.7-.1-.9-.3-.3-.5-.3-.8ZM578.2,276.9l1.6-5.7h2.4l-2.9,8.5h-2.2l-2.8-8.5h2.4l1.6,5.7ZM586.9,279.9c-1.2,0-2.2-.4-3-1.1s-1.2-1.8-1.2-3v-.2c0-.8.2-1.6.5-2.3.3-.7.8-1.2,1.4-1.5.6-.4,1.3-.5,2.1-.5,1.2,0,2.1.4,2.7,1.1.7.7,1,1.8,1,3.1v.9h-5.4c0,.6.3,1,.7,1.3s.8.5,1.4.5c.9,0,1.6-.3,2-.9l1.1,1.2c-.3.5-.8.9-1.4,1.1-.6.3-1.2.4-1.9.4ZM586.7,272.9c-.4,0-.8.2-1.1.5-.3.3-.4.7-.5,1.3h3.1v-.2c0-.5-.1-.9-.4-1.2s-.6-.4-1.1-.4ZM596.4,273.4c-.3,0-.6,0-.8,0-.9,0-1.4.3-1.7.9v5.5h-2.2v-8.5h2.1v1c.5-.8,1.2-1.2,2-1.2s.5,0,.7,0v2.2ZM600.8,276.5l1.6-5.2h2.4l-3.4,9.8-.2.5c-.5,1.1-1.3,1.7-2.5,1.7s-.7,0-1-.2v-1.7h.3c.4,0,.7,0,1-.2.2-.1.4-.3.5-.6l.3-.7-3-8.5h2.4l1.6,5.2Z"/>
            <path class="cls-21" d="M681.3,274.8v3.7h-2.1v-10.4h4.1c.8,0,1.5.1,2.1.4.6.3,1,.7,1.4,1.2.3.5.5,1.1.5,1.8,0,1-.3,1.8-1,2.4-.7.6-1.7.9-2.9.9h-1.9ZM681.3,273h1.9c.6,0,1-.1,1.3-.4.3-.3.5-.7.5-1.1s-.2-.9-.5-1.2c-.3-.3-.7-.5-1.2-.5h-2v3.3ZM690.7,278.4h-2.1v-11h2.1v11ZM696.9,278.4c0-.2-.2-.4-.2-.7-.5.6-1.2.8-2,.8s-1.4-.2-1.9-.7-.8-1-.8-1.7.3-1.5.9-1.9c.6-.4,1.5-.7,2.6-.7h1v-.4c0-.4,0-.6-.3-.9-.2-.2-.5-.3-.9-.3s-.6,0-.8.2c-.2.2-.3.4-.3.7h-2.1c0-.4.1-.9.4-1.2.3-.4.7-.7,1.2-.9.5-.2,1.1-.3,1.7-.3.9,0,1.7.2,2.3.7s.8,1.2.8,2v3.3c0,.7.1,1.3.3,1.7h0c0,.1-2.1.1-2.1.1ZM695.2,277c.3,0,.6,0,.8-.2.3-.1.5-.3.6-.5v-1.3h-.8c-1,0-1.6.4-1.7,1.1h0c0,.4,0,.6.3.8.2.2.4.2.8.2ZM703,275.5l1.4-4.8h2.2l-3.1,9-.2.4c-.5,1-1.2,1.5-2.3,1.5s-.6,0-.9-.1v-1.6h.3c.4,0,.7,0,.9-.2.2-.1.3-.3.5-.6l.2-.6-2.7-7.8h2.2l1.4,4.8ZM714.5,274.6c0,1.2-.3,2.2-.8,2.9-.5.7-1.3,1-2.2,1s-1.5-.3-2-1v.8h-2v-11h2.1v4c.5-.6,1.1-.8,1.9-.8s1.7.3,2.2,1c.5.7.8,1.7.8,2.9h0ZM712.4,274.5c0-.8-.1-1.3-.4-1.7-.2-.4-.6-.5-1.1-.5s-1.1.3-1.4.8v3c.3.5.7.8,1.4.8s1.1-.3,1.3-1c.1-.3.2-.8.2-1.4ZM720.2,278.4c0-.2-.2-.4-.2-.7-.5.6-1.2.8-2,.8s-1.4-.2-1.9-.7-.8-1-.8-1.7.3-1.5.9-1.9c.6-.4,1.5-.7,2.6-.7h1v-.4c0-.4,0-.6-.3-.9-.2-.2-.5-.3-.9-.3s-.6,0-.8.2-.3.4-.3.7h-2.1c0-.4.1-.9.4-1.2.3-.4.7-.7,1.2-.9.5-.2,1.1-.3,1.7-.3.9,0,1.7.2,2.3.7s.8,1.2.8,2v3.3c0,.7.1,1.3.3,1.7h0c0,.1-2.1.1-2.1.1ZM718.5,277c.3,0,.6,0,.8-.2.3-.1.5-.3.6-.5v-1.3h-.8c-1,0-1.6.4-1.7,1.1h0c0,.4,0,.6.3.8s.4.2.8.2ZM726.8,276.9c.4,0,.7-.1.9-.3.2-.2.4-.5.4-.8h1.9c0,.5-.1,1-.4,1.4s-.7.8-1.2,1-1,.4-1.6.4c-1.1,0-2-.3-2.6-1-.6-.7-1-1.7-1-2.9h0c0-1.3.3-2.3,1-3,.6-.7,1.5-1.1,2.6-1.1s1.7.3,2.3.8c.6.6.9,1.3.9,2.2h-1.9c0-.4-.1-.7-.4-1-.2-.3-.5-.4-.9-.4s-.8.2-1.1.5c-.2.4-.4.9-.4,1.7v.2c0,.8.1,1.4.4,1.7s.6.5,1.1.5ZM734.1,275.3l-.8.8v2.4h-2.1v-11h2.1v6.1l.4-.5,2-2.3h2.5l-2.8,3.2,3,4.5h-2.4l-2-3.1Z"/>
            <path class="cls-14" d="M341.4,201.7h26.2v34.4h26.2"/>
            <path class="cls-7" d="M341.4,201.7h26.2v34.4h26.2"/>
            <path class="cls-14" d="M341.4,274.3h26.2v-38.3h26.2"/>
            <path class="cls-7" d="M341.4,274.3h26.2v-38.3h26.2"/>
            <path class="cls-14" d="M497.1,236h14.2c0,0,14.2,0,14.2,0"/>
            <path class="cls-7" d="M497.1,236h14.2c0,0,14.2,0,14.2,0"/>
            <path class="cls-14" d="M628.9,236h14.2c0,0,14.2,0,14.2,0"/>
            <path class="cls-7" d="M628.9,236h14.2c0,0,14.2,0,14.2,0"/>
            <g>
              <path class="cls-11" d="M254.8,339.6c-.2.1-.4.3-.5.5-1.2,1.1-2.3,2.3-3.4,3.4,0,0-.2.2-.3,0-1.3-1.4-2.9-1.6-4.7-1.5-.7,0-1.4.1-2.2.2-.2,0-.2,0-.3-.2-.2-.6,0-1.1.4-1.5,1.1-1.4,2.2-2.7,3.6-3.9.5-.5,1.1-.6,1.8-.4,2.1.5,4,1.5,5.5,3.1,0,0,.1.2.2.2h0Z"/>
              <path class="cls-22" d="M249.6,330.8c0,.9,0,1.8,0,2.7,0,.1,0,.3-.2.3-1.5-.1-2.6.7-3.7,1.6-1.6,1.3-2.8,2.9-4.1,4.5-1.7,2.2-3.2,4.4-5,6.5-1.4,1.7-2.9,3.1-4.8,4.1-1.6.8-3.4,1.3-5.3,1.2-.2,0-.2,0-.2-.2,0-1.8,0-3.6,0-5.4,0-.1,0-.2.2-.2,2,0,3.3-1.1,4.6-2.5,2.4-2.7,4.4-5.6,6.6-8.5,1.1-1.4,2.3-2.9,3.7-4.1,1.9-1.7,4-2.7,6.5-3,.5,0,.9,0,1.4,0,.2,0,.3,0,.3.3,0,.9,0,1.8,0,2.7Z"/>
              <path class="cls-11" d="M228.1,343.6c-1.2-.1-2.3-.5-3.4-1-1.2-.6-2.2-1.3-3.2-2.3-.1-.1-.1-.2,0-.3,1.3-1.3,2.6-2.6,3.9-3.9.1-.1.2-.1.3,0,.9,1.1,2.2,1.3,3.4,1.4,1.1.1,2.2.1,3.3,0,.2,0,.2,0,.2.2,0,0,0,0,0,0,.2.5,0,.9-.3,1.3-1,1.3-2.2,2.6-3.3,3.9-.2.2-.4.4-.7.6,0,0-.2.1-.3,0Z"/>
              <path class="cls-11" d="M241.6,343.3c.3,2.2.5,4.2.2,6.3-.4,2.6-1.4,4.9-3.3,6.7-.1.1-.2.1-.3,0-1.3-1.3-2.6-2.6-3.9-3.9-.1-.1-.1-.2,0-.3.5-.4.9-1,1.1-1.6,0,0,0-.1.1-.2,2-1.7,3.5-3.8,5.1-5.8.3-.4.6-.8.9-1.3Z"/>
              <path class="cls-11" d="M234.5,336.3c0-.5-.1-.9-.1-1.3-.2-2.2-.3-4.4.2-6.5.5-2,1.5-3.7,3-5.2.1-.1.2-.2.4,0,1.3,1.3,2.6,2.6,3.9,3.9.1.1.2.2,0,.3-.4.4-.8.7-.9,1.3,0,0,0,.1-.1.1-1.7,1.4-3,3-4.3,4.7-.6.7-1.1,1.5-1.7,2.2,0,.1-.2.2-.3.4Z"/>
              <path class="cls-22" d="M247.1,351.4c-.9,0-1.8,0-2.7,0-.2,0-.3,0-.3-.2,0-.6,0-1.1-.3-1.6,0-.2,0-.4,0-.6.1-1.5,0-2.9-.1-4.4,0-.5,0-.5.4-.5.9,0,1.8-.1,2.8-.2.5,0,.9.1,1.2.6,1.3,2,2.1,4.1,2.1,6.6,0,.3,0,.3-.3.3-.9,0-1.8,0-2.7,0Z"/>
              <path class="cls-22" d="M229,328.2c.9,0,1.7,0,2.6,0,.2,0,.3,0,.3.3,0,.6,0,1.1.3,1.7,0,0,0,.2,0,.3-.1,1.6,0,3.2.1,4.8,0,.2,0,.3-.2.3-1.2,0-2.3,0-3.5-.1-.3,0-.5-.1-.6-.4-1.3-1.9-2-3.9-2-6.2,0-.6,0-.6.6-.6s1.5,0,2.3,0Z"/>
            </g>
            <g class="bullet bullet-1">
            <path class="cls-13" d="M198.4,237.6h0c0-6.3,5.1-11.4,11.4-11.4h0c3,0,5.9,1.2,8,3.3,2.1,2.1,3.3,5,3.3,8h0c0,6.3-5.1,11.4-11.4,11.4h0c-6.3,0-11.4-5.1-11.4-11.4Z"/>
            <path class="cls-8" d="M198.4,237.6h0c0-6.3,5.1-11.4,11.4-11.4h0c3,0,5.9,1.2,8,3.3,2.1,2.1,3.3,5,3.3,8h0c0,6.3-5.1,11.4-11.4,11.4h0c-6.3,0-11.4-5.1-11.4-11.4Z"/>
            <path class="cls-21" d="M211,242.2v-8.5h0l-3.7,1.3v1.4l2.2-.8v6.5h1.6Z"/>
            </g>
            <g class="bullet bullet-2">
            <path class="cls-13" d="M384.5,238.4h0c0-6.3,5.1-11.4,11.4-11.4h0c3,0,5.9,1.2,8,3.3,2.1,2.1,3.3,5,3.3,8h0c0,6.3-5.1,11.4-11.4,11.4h0c-6.3,0-11.4-5.1-11.4-11.4Z"/>
            <path class="cls-8" d="M384.5,238.4h0c0-6.3,5.1-11.4,11.4-11.4h0c3,0,5.9,1.2,8,3.3,2.1,2.1,3.3,5,3.3,8h0c0,6.3-5.1,11.4-11.4,11.4h0c-6.3,0-11.4-5.1-11.4-11.4Z"/>
            <path class="cls-21" d="M398.7,243v-1.3h-3.8l1.6-1.7c.3-.3.5-.6.8-.8.2-.3.4-.5.6-.8.2-.2.3-.5.4-.8,0-.3.1-.5.1-.8s0-.7-.2-1c-.1-.3-.3-.6-.5-.8-.2-.2-.5-.4-.8-.5-.3-.1-.7-.2-1.1-.2s-.9,0-1.2.2c-.4.1-.7.3-.9.6-.3.2-.5.5-.6.9-.1.3-.2.7-.2,1.1h1.6c0-.2,0-.4,0-.6,0-.2.2-.3.3-.5.1-.1.2-.2.4-.3.2,0,.4,0,.6,0s.3,0,.5,0c.1,0,.3.1.4.2,0,.1.2.2.2.4,0,.1,0,.3,0,.5s0,.3,0,.4c0,.1-.1.3-.2.4,0,.2-.2.3-.4.5-.1.2-.3.4-.5.6l-2.8,3v1.1h5.8Z"/>
            </g>
            <g class="bullet bullet-3">
            <path class="cls-13" d="M520.9,237.6h0c0-6.3,5.1-11.4,11.4-11.4h0c3,0,5.9,1.2,8,3.3,2.1,2.1,3.3,5,3.3,8h0c0,6.3-5.1,11.4-11.4,11.4h0c-6.3,0-11.4-5.1-11.4-11.4Z"/>
            <path class="cls-8" d="M520.9,237.6h0c0-6.3,5.1-11.4,11.4-11.4h0c3,0,5.9,1.2,8,3.3,2.1,2.1,3.3,5,3.3,8h0c0,6.3-5.1,11.4-11.4,11.4h0c-6.3,0-11.4-5.1-11.4-11.4Z"/>
            <path class="cls-21" d="M531.2,237.2v1.3h.9c.2,0,.4,0,.6,0,.2,0,.3.1.5.2.1.1.2.2.3.4,0,.2.1.4.1.6s0,.3,0,.5c0,.1-.1.3-.2.4-.1.1-.3.2-.4.3-.2,0-.4,0-.6,0s-.4,0-.5,0c-.2,0-.3-.1-.4-.2-.1,0-.2-.2-.3-.3,0-.1,0-.3,0-.5h-1.6c0,.4,0,.8.2,1.1.2.3.4.6.7.8.3.2.6.3.9.5.3.1.7.2,1.1.2s.8,0,1.2-.2c.4-.1.7-.3.9-.5.3-.2.5-.5.6-.8.2-.3.2-.7.2-1.1s0-.4,0-.6c0-.2-.1-.4-.2-.6-.1-.2-.3-.3-.4-.5-.2-.1-.4-.2-.6-.3.2-.1.4-.2.5-.3.2-.1.3-.3.4-.5.1-.2.2-.3.2-.5,0-.2,0-.4,0-.5,0-.4,0-.7-.2-1-.1-.3-.3-.6-.6-.8-.2-.2-.6-.4-.9-.5-.3-.1-.7-.2-1.2-.2s-.8,0-1.1.2c-.3.1-.6.3-.9.5-.2.2-.4.5-.6.7s-.2.6-.2,1h1.6c0-.2,0-.3,0-.4s.1-.2.2-.3c.1,0,.2-.1.4-.2.1,0,.3,0,.5,0s.4,0,.5,0c.1,0,.3.1.4.2,0,0,.2.2.2.4,0,.1,0,.3,0,.5s0,.3,0,.5c0,.1-.1.3-.2.4-.1.1-.2.2-.4.3-.2,0-.4,0-.6,0h-.9Z"/>
            </g>
            <g class="bullet bullet-4">
            <path class="cls-13" d="M648.5,238h0c0-6.3,5.1-11.4,11.4-11.4h0c3,0,5.9,1.2,8,3.3,2.1,2.1,3.3,5,3.3,8h0c0,6.3-5.1,11.4-11.4,11.4h0c-6.3,0-11.4-5.1-11.4-11.4Z"/>
            <path class="cls-8" d="M648.5,238h0c0-6.3,5.1-11.4,11.4-11.4h0c3,0,5.9,1.2,8,3.3,2.1,2.1,3.3,5,3.3,8h0c0,6.3-5.1,11.4-11.4,11.4h0c-6.3,0-11.4-5.1-11.4-11.4Z"/>
            <path class="cls-21" d="M661.8,239.4v-5.4h-1.6l-3.6,5.7v1h3.6v1.9h1.6v-1.9h1v-1.3h-1ZM658.2,239.4l1.8-2.9.2-.3v3.2h-2Z"/>
            </g>
          </g>
          <g>
            <rect class="cls-6" x="46.3" y="237.2" width="20.1" height="13.9" rx="1.5" ry="1.5"/>
            <g>
              <g>
                <g>
                  <circle class="cls-21" cx="49.9" cy="229.5" r=".9"/>
                  <circle class="cls-21" cx="49.9" cy="233.2" r=".9"/>
                </g>
                <g>
                  <circle class="cls-21" cx="48.1" cy="231.3" r=".9"/>
                  <circle class="cls-21" cx="51.7" cy="231.3" r=".9"/>
                </g>
              </g>
              <circle class="cls-6" cx="49.9" cy="231.3" r="5.6"/>
            </g>
            <g>
              <g>
                <g>
                  <circle class="cls-21" cx="62.1" cy="229.5" r=".9"/>
                  <circle class="cls-21" cx="62.1" cy="233.2" r=".9"/>
                </g>
                <g>
                  <circle class="cls-21" cx="60.3" cy="231.3" r=".9"/>
                  <circle class="cls-21" cx="63.9" cy="231.3" r=".9"/>
                </g>
              </g>
              <circle class="cls-6" cx="62.1" cy="231.3" r="5.6"/>
            </g>
            <circle class="cls-21" cx="63.4" cy="248.1" r=".9"/>
            <g>
              <rect class="cls-6" x="66.6" y="240.2" width="5.2" height="7.9"/>
              <polygon class="cls-6" points="74.6 237.5 71.8 240.2 71.8 248 74.6 250.8 76.6 250.8 76.6 237.5 74.6 237.5"/>
            </g>
            <polygon class="cls-6" points="41.5 238.4 41.5 242.5 43.3 242.5 44.1 241.6 46.1 241.6 46.1 239.2 44.1 239.2 43.3 238.4 41.5 238.4"/>
          </g>
          <g>
            <path class="cls-21" d="M778.3,327.3v-3.3h2.3v-3.2h-9.1v3.2h2.3v3.3c-7.1,1.1-12.5,7.1-12.5,14.4s6.6,14.6,14.8,14.6,14.8-6.5,14.8-14.6c0-7.3-5.4-13.4-12.5-14.4h0ZM776.1,354.7c-7.2,0-13.1-5.8-13.1-13s5.9-13,13.1-13,13.1,5.8,13.1,13-5.9,13-13.1,13h0Z"/>
            <path class="cls-21" d="M783.2,335.1c-1.8-2-4.5-3.1-7.1-3.1v1.7c2.3,0,4.4.9,5.9,2.6l1.2-1.2Z"/>
            <path class="cls-21" d="M784.7,337.5l-7,2.7c-.4-.4-1-.7-1.6-.7-1.2,0-2.2,1-2.2,2.2s1,2.2,2.2,2.2,2.2-1,2.2-2.2l7-2.7-.6-1.6h0Z"/>
            <path class="cls-21" d="M768.4,325.5h-13v1.7h13v-1.7Z"/>
            <path class="cls-21" d="M764,329.3h-8.7v1.7h8.7v-1.7Z"/>
            <path class="cls-21" d="M761.3,333.1h-6v1.7h6v-1.7Z"/>
          </g>
          <g>
            <path class="cls-21" d="M575.6,228.8c0,6.4,5.2,11.6,11.6,11.6s11.6-5.2,11.6-11.6-5.2-11.6-11.6-11.6-11.6,5.2-11.6,11.6h0ZM583.6,237.6l4.9-5.3v-3.3l-3.2-.7-2.8-2.4-4,.3v5.1s2.9,1.4,2.9,1.4v3.5c-2.3-1.7-3.8-4.5-3.8-7.6s.3-2.6.8-3.7h.2c0,.1,2.5-1,2.5-1l1.7.5v-1.7l1.9-2-.2-1.2c.9-.3,1.8-.5,2.8-.5,1.5,0,2.8.4,4,.9l-2.3,1.1-.4,1.8h1.3l.8-.7.4,1.1h1.3l1.2-1.5,1.2.8c.4.4.7.9,1,1.4l-1.5.5-1.5,3.5.9,2,1.1.9-1.1,4.8c-1.7,1.5-3.9,2.4-6.3,2.4-1.3,0-2.5-.2-3.6-.7h0Z"/>
            <path class="cls-21" d="M590,242.8h-27.8c-2.6,0-4.6-2.1-4.6-4.6s1.5-4,3.6-4.5l1.8-.4-.2-1.8v-.3c0-.2-.1-.4-.1-.5,0-3.7,2.9-6.8,6.7-7h2c0-.1,0-2.1,0-2.1,0-.1,0-.3,0-.4,0-5.8,4.7-10.5,10.5-10.5s6.6,1.8,8.5,4.4h2.4c-2.1-3.8-6.2-6.5-10.9-6.5-6.9,0-12.5,5.6-12.5,12.5s0,.3,0,.5c-4.8.2-8.6,4.2-8.6,9s0,.7.1,1.1c-3,.7-5.2,3.3-5.2,6.5s3,6.7,6.7,6.7h27.8c2.6,0,4.9-1.1,6.5-2.8h-3.4c-1,.5-2,.8-3.2.8h0Z"/>
          </g>
          <g>
            <path class="cls-21" d="M224.4,200.3h2.7l-3.6-3.6-3.6,3.6h2.7c-.2,4.2,1.3,8.2,4.4,11.3l1.1-1.1c-2.7-2.7-4-6.4-3.8-10.2h0Z"/>
            <path class="cls-21" d="M252.6,201.4c.2-4.2-1.6-8.2-4.4-11.1l-1.1,1.1c2.7,2.7,4,6.2,4,10h-2.7l3.6,3.6,3.6-3.6h-2.9,0Z"/>
            <path class="cls-21" d="M237.1,214.3v-2.7l-3.6,3.6,3.6,3.6v-2.7h.7c4,0,7.8-1.6,10.7-4.4l-1.1-1.1c-2.9,2.7-6.4,4-10.2,3.8h0Z"/>
            <path class="cls-21" d="M238.2,190.3l3.6-3.6-3.6-3.6v2.9c-4,0-8.2,1.6-11.1,4.4l1.1,1.1c2.7-2.7,6.2-4.2,10-4v2.7h0Z"/>
            <path class="cls-21" d="M230.2,194.7v5.3h15.1v-5.3h-15.1ZM237.7,198.3h-5.6v-1.6h5.6v1.6Z"/>
            <path class="cls-21" d="M230.2,201.8v5.3h15.1v-5.3h-15.1ZM237.7,205.2h-5.6v-1.6h5.6v1.6Z"/>
          </g>
          <g>
            <path class="cls-21" d="M224.4,272.9h2.7l-3.6-3.6-3.6,3.6h2.7c-.2,4.2,1.3,8.2,4.4,11.3l1.1-1.1c-2.7-2.7-4-6.4-3.8-10.2h0Z"/>
            <path class="cls-21" d="M252.6,274c.2-4.2-1.6-8.2-4.4-11.1l-1.1,1.1c2.7,2.7,4,6.2,4,10h-2.7l3.6,3.6,3.6-3.6h-2.9,0Z"/>
            <path class="cls-21" d="M237.1,286.9v-2.7l-3.6,3.6,3.6,3.6v-2.7h.7c4,0,7.8-1.6,10.7-4.4l-1.1-1.1c-2.9,2.7-6.4,4-10.2,3.8h0Z"/>
            <path class="cls-21" d="M238.2,262.9l3.6-3.6-3.6-3.6v2.9c-4,0-8.2,1.6-11.1,4.4l1.1,1.1c2.7-2.7,6.2-4.2,10-4v2.7h0Z"/>
            <path class="cls-21" d="M230.2,267.4v5.3h15.1v-5.3h-15.1ZM237.7,270.9h-5.6v-1.6h5.6v1.6Z"/>
            <path class="cls-21" d="M230.2,274.5v5.3h15.1v-5.3h-15.1ZM237.7,277.8h-5.6v-1.6h5.6v1.6Z"/>
          </g>
          <g>
            <path class="cls-21" d="M824.8,191.1c-2.4,0-4.3,1.9-4.3,4.3s1.9,4.3,4.3,4.3,4.3-1.9,4.3-4.3c0-2.4-1.9-4.3-4.3-4.3h0ZM823.2,197.8v-4.9l4.1,2.4-4.1,2.4h0Z"/>
            <path class="cls-21" d="M838,199.4c-1.8,0-3.2,1.4-3.2,3.2s1.4,3.2,3.2,3.2,3.2-1.4,3.2-3.2-1.4-3.2-3.2-3.2ZM836.9,204.5v-3.6l3,1.8-3,1.8Z"/>
            <path class="cls-21" d="M838.1,191.7v-5.3h-26.6v16.7h-2.8v6.1h22.7v6.4h13.3v-23.9h-6.6ZM813.3,188.1h23.1v3.5h-5v11h-18.1v-14.5h0ZM810.4,207.4v-2.5h20.9v2.5h-20.9,0ZM842.9,213.8h-9.8v-20.4h9.8v20.4Z"/>
            <path class="cls-21" d="M838,213.3c.6,0,1-.5,1-1s-.5-1-1-1-1,.5-1,1,.5,1,1,1Z"/>
          </g>
          <g>
            <path class="cls-21" d="M824.8,264.8c-2.4,0-4.3,1.9-4.3,4.3s1.9,4.3,4.3,4.3,4.3-1.9,4.3-4.3c0-2.4-1.9-4.3-4.3-4.3h0ZM823.2,271.6v-4.9l4.1,2.4-4.1,2.4h0Z"/>
            <path class="cls-21" d="M838,273.2c-1.8,0-3.2,1.4-3.2,3.2s1.4,3.2,3.2,3.2,3.2-1.4,3.2-3.2-1.4-3.2-3.2-3.2ZM836.9,278.2v-3.6l3,1.8-3,1.8Z"/>
            <path class="cls-21" d="M838.1,265.4v-5.3h-26.6v16.7h-2.8v6.1h22.7v6.4h13.3v-23.9h-6.6ZM813.3,261.9h23.1v3.5h-5v11h-18.1v-14.5h0ZM810.4,281.1v-2.5h20.9v2.5h-20.9,0ZM842.9,287.5h-9.8v-20.4h9.8v20.4Z"/>
            <path class="cls-21" d="M838,287.1c.6,0,1-.5,1-1s-.5-1-1-1-1,.5-1,1,.5,1,1,1Z"/>
          </g>
          <g>
            <polygon class="cls-10" points="465.3 245.4 425.7 245.4 427.7 202.7 463.2 202.7 465.3 245.4"/>
            <g>
              <rect class="cls-21" x="426.7" y="246.1" width="9.8" height="3.5"/>
              <rect class="cls-21" x="454.4" y="246.1" width="9.8" height="3.5"/>
            </g>
            <rect class="cls-21" x="430.7" y="208.9" width="29.6" height="2.2"/>
            <rect class="cls-21" x="430.7" y="216.9" width="29.6" height="2.2"/>
          </g>
          <g>
            <path class="cls-1" d="M708.9,243c1.2,0,2.1-1,2.1-2.2,0-1.2-1-2.1-2.2-2.1-1.2,0-2.1,1-2.1,2.2,0,1.2,1,2.1,2.2,2.1Z"/>
            <path class="cls-1" d="M691.7,243c1.2,0,2.2-.9,2.2-2.1,0-1.2-1-2.2-2.1-2.2-1.2,0-2.2,1-2.2,2.1,0,1.2.9,2.2,2.1,2.2Z"/>
            <path class="cls-1" d="M695.6,248.2c0-.3-.1-.5-.2-.8-.2-.7-.6-1-1.3-1-1.6,0-3.2,0-4.8,0-.6,0-1.2.3-1.3.9-.1.8-.6,1-1.3,1-.9,0-1.3.7-1,1.5.2.5.4,1,.5,1.5.1.5.4.6.9.6,2.9,0,5.7,0,8.6,0s1.2,0,1.7-1.2c.8-2.1.3-2.5-1.8-2.5Z"/>
            <path class="cls-1" d="M713.6,248.2c-.5,0-.7-.1-.8-.6-.2-.9-.7-1.2-1.6-1.2-1.5,0-3,0-4.5,0-.7,0-1.3.3-1.4.9-.2.8-.5.9-1.3.9-.9,0-1.3.7-1.1,1.6.2.5.3,1,.5,1.5.1.5.4.7.9.7,1.5,0,3.1,0,4.6,0h3.2q2,0,2.7-1.9c.4-1.2,0-1.8-1.3-1.7Z"/>
            <path class="cls-21" d="M681.9,211.4v30h5.1v-1.2h-3.9v-27.6h51.6v27.6h-3.9v1.2h5.2v-30h-54Z"/>
            <path class="cls-21" d="M686.3,253.2c1.8,0,3.6,0,5.4,0,.9,0,1.9,0,2.8,0-.9,0-1.9,0-2.8,0-1.8,0-3.6,0-5.4,0Z"/>
            <path class="cls-21" d="M697.2,247.1c-.4,0-.6-.2-.8-.6-.4-.8-1.1-1.3-2-1.3-1.7,0-3.4,0-5.1,0-.8,0-1.6.4-2,1.2-.3.5-.6.7-1.1.8-1.4.4-2,1.6-1.6,3,.3.8.6,1.6.8,2.4.1.5.4.6.9.6,1.8,0,3.6,0,5.4,0,.9,0,1.9,0,2.8,0,.9,0,1.9,0,2.8,0,.5,0,.7-.1.8-.6.2-.8.4-1.7.8-2.4.6-1.2-.3-2.9-1.7-3.1ZM697.4,250.7c-.5,1.2-.4,1.2-1.7,1.2-2.9,0-5.7,0-8.6,0-.5,0-.7-.1-.9-.6-.1-.5-.3-1-.5-1.5-.3-.8.1-1.5,1-1.5.7,0,1.2-.1,1.3-1,.1-.6.6-.9,1.3-.9,1.6,0,3.2,0,4.8,0,.7,0,1.1.4,1.3,1,0,.2.1.5.2.8,2.1,0,2.6.4,1.8,2.5Z"/>
            <path class="cls-21" d="M706.2,253.1c.9,0,1.8,0,2.7,0,1.9,0,3.8,0,5.7,0-1.9,0-3.8,0-5.7,0-.9,0-1.8,0-2.7,0Z"/>
            <path class="cls-21" d="M714.3,247c-.2,0-.5-.3-.7-.5-.5-.9-1.3-1.4-2.3-1.4-1.6,0-3.2,0-4.8,0-1,0-1.7.5-2.2,1.3-.2.3-.5.5-.8.6-1.3.3-2.4,1.8-1.7,3.2.3.7.5,1.5.8,2.2.1.5.4.7,1,.7.9,0,1.8,0,2.7,0,.9,0,1.8,0,2.7,0,1.9,0,3.8,0,5.7,0,.4,0,.6-.1.7-.5.2-.8.4-1.6.8-2.4.7-1.4-.5-3-1.7-3.2ZM714.8,250q-.6,1.9-2.7,1.9h-3.2c-1.5,0-3.1,0-4.6,0-.5,0-.8-.2-.9-.7-.1-.5-.3-1-.5-1.5-.3-.9.1-1.6,1.1-1.6.7,0,1.1-.2,1.3-.9.1-.7.7-1,1.4-.9,1.5,0,3,0,4.5,0,.9,0,1.4.3,1.6,1.2.1.5.3.6.8.6,1.2,0,1.6.6,1.3,1.7Z"/>
            <path class="cls-21" d="M691.7,244.2c1.9,0,3.4-1.5,3.4-3.4,0-1.8-1.5-3.4-3.4-3.4-1.9,0-3.4,1.5-3.4,3.4,0,1.9,1.5,3.3,3.4,3.3ZM691.7,238.7c1.2,0,2.1,1,2.1,2.2,0,1.2-1,2.1-2.2,2.1-1.2,0-2.1-1-2.1-2.2,0-1.2,1-2.1,2.2-2.1Z"/>
            <path class="cls-21" d="M708.9,244.2c1.9,0,3.4-1.5,3.4-3.3,0-1.8-1.5-3.4-3.3-3.4-1.9,0-3.4,1.5-3.4,3.4,0,1.9,1.5,3.4,3.4,3.4ZM708.9,238.7c1.2,0,2.2,1,2.2,2.1,0,1.2-1,2.1-2.1,2.2-1.2,0-2.1-.9-2.2-2.1,0-1.2,1-2.2,2.1-2.2Z"/>
            <path class="cls-21" d="M721.4,251.9c1.6,0,3.1,0,4.7,0,1.1,0,2.1,0,3.2,0-1.1,0-2.1,0-3.2,0-1.6,0-3.1,0-4.7,0Z"/>
            <path class="cls-21" d="M731.6,247c-.3,0-.6-.3-.8-.6-.5-.8-1.3-1.3-2.2-1.3-1.6,0-3.3,0-4.9,0-.9,0-1.7.4-2.1,1.3-.2.4-.5.6-.9.7-1.4.4-2.1,1.7-1.7,3.1.3.8.5,1.7.9,2.5,0,.2.4.4.6.4,3.9,0,7.9,0,11.9,0,.3-1,.6-2,1-2.9.7-1.4-.5-2.9-1.7-3.2ZM732,250c-.2.6-.3,1.5-.7,1.8-.5.3-1.3.1-2,.1-1.1,0-2.1,0-3.2,0-1.6,0-3.1,0-4.7,0-.4,0-.6,0-.7-.5-.1-.5-.4-1.1-.5-1.6-.3-.9.1-1.6,1.1-1.6.7,0,1.1-.2,1.2-.9.1-.7.6-1,1.3-1,1.6,0,3.1,0,4.7,0,.8,0,1.3.4,1.5,1.2.1.5.4.7.9.7,1.2,0,1.6.6,1.2,1.7Z"/>
            <path class="cls-21" d="M726.1,244.2c1.8,0,3.4-1.5,3.4-3.4,0-1.8-1.5-3.4-3.4-3.4-1.9,0-3.4,1.5-3.4,3.4,0,1.9,1.5,3.3,3.4,3.3ZM726.1,238.7c1.2,0,2.2,1,2.2,2.1,0,1.2-1,2.1-2.2,2.1-1.2,0-2.1-.9-2.1-2.1,0-1.2,1-2.2,2.1-2.2Z"/>
            <path class="cls-21" d="M704.3,240.3h-7.9v1.1h7.9v-1.1Z"/>
            <path class="cls-21" d="M721.5,240.3h-7.9v1.1h7.9v-1.1Z"/>
          </g>
          <path class="cls-21" d="M386.4,326c-1.6-2.1-4-3.5-6.6-3.7-3.5-.5-7,1.2-9,4.2-.2.3-.6.4-.9.2,0,0-.1-.1-.2-.2-1.7-2.7-4.7-4.3-7.9-4.3-.4,0-.7,0-1.1,0-2.6.3-5,1.6-6.6,3.7-1.8,2.3-2.5,5.2-2,8.1.9,5.2,4.8,8.3,9,11.6,3.6,2.8,7.2,5.6,9.1,9.9,1.9-4.3,5.5-7.1,9.1-9.9,4.2-3.3,8.2-6.4,9-11.6.5-2.9-.2-5.8-2-8.1ZM385.3,336.1h-3.1l-2,6.2c-.1.4-.4.6-.8.6h0c-.4,0-.7-.2-.8-.6l-4-12.8-2.2,6c-.1.3-.4.6-.8.6h-2.6l-1.7,6.1c-.1.4-.4.6-.8.6-.4,0-.7-.2-.8-.6l-4.2-12.5-2,5.8c-.1.3-.4.6-.8.6h-3.6c-.5,0-.8-.4-.8-.8s.4-.8.8-.8h3s2.6-7.6,2.6-7.6c.1-.3.4-.6.8-.6s.7.2.8.6l4.2,12.3,1.2-4.1c.1-.4.4-.6.8-.6h2.6l2.8-7.8c.1-.3.4-.6.8-.6s0,0,0,0c.4,0,.7.2.8.6l4,12.7,1.4-4.3c.1-.4.4-.6.8-.6h3.7c.5,0,.8.4.8.8s-.4.8-.8.8Z"/>
        </g>
        <path class="cls-5" d="M851.7,327.9"/>
        <g>
          <g>
            <g class="cls-23">
              <path class="cls-20" d="M866,339.1c1-.3,1.8-1.3,1.8-2.4,0-1.4-1.1-2.6-2.6-2.6s-2.6,1.2-2.6,2.6.7,2.1,1.8,2.4c-1.7.4-2.9,1.8-2.9,3.6h7.5c0-1.8-1.3-3.2-2.9-3.6h0ZM863,336.6c0-1.2,1-2.2,2.2-2.2s2.2,1,2.2,2.2-1,2.2-2.2,2.2-2.2-1-2.2-2.2h0ZM865.2,339.4c1.7,0,3.1,1.2,3.3,2.9h-6.7c.2-1.6,1.6-2.9,3.3-2.9Z"/>
            </g>
            <circle class="cls-3" cx="865.2" cy="337.3" r="5.2"/>
          </g>
          <g>
            <g>
              <rect class="cls-21" x="850.8" y="332.2" width="4.9" height="1.6"/>
              <rect class="cls-21" x="850.8" y="334.7" width="3.6" height="1.6"/>
            </g>
            <rect class="cls-3" x="848.8" y="330.2" width="8.9" height="8.2"/>
          </g>
          <g>
            <rect class="cls-21" x="858.5" y="353" width="13.5" height="1.6"/>
            <g>
              <rect class="cls-21" x="862.3" y="349.2" width="1.5" height="4.3"/>
              <rect class="cls-21" x="866.6" y="349.2" width="1.5" height="4.3"/>
            </g>
          </g>
          <polyline class="cls-3" points="877.3 335.4 877.3 346.6 852.8 346.6 852.8 339.6"/>
          <polyline class="cls-3" points="874.1 328.3 877.3 328.3 877.3 332.3"/>
          <line class="cls-3" x1="852.1" y1="328.3" x2="871.2" y2="328.3"/>
          <path class="cls-3" d="M879.2,335.4v12.6c0,.5-.4.8-.8.8h-26.4c-.5,0-.8-.4-.8-.8v-8.4"/>
          <path class="cls-3" d="M874.1,326.2h4.3c.5,0,.8.4.8.8v5.3"/>
          <path class="cls-4" d="M874.1,326.2"/>
          <path class="cls-4" d="M871.5,326.2"/>
          <path class="cls-3" d="M851.1,328.9v-1.9c0-.5.4-.8.8-.8h19.3"/>
          <g>
            <g>
              <rect class="cls-21" x="872.1" y="323.1" width="1.3" height="1.3"/>
              <rect class="cls-21" x="873.5" y="323.1" width="1.3" height="1.3"/>
              <rect class="cls-21" x="875" y="323.1" width="1.3" height="1.3"/>
              <rect class="cls-21" x="876.4" y="323.1" width="1.3" height="1.3"/>
              <rect class="cls-21" x="877.9" y="323.1" width="1.3" height="1.3"/>
              <rect class="cls-21" x="879.3" y="323.1" width="1.3" height="1.3"/>
              <rect class="cls-21" x="880.7" y="323.1" width="1.3" height="1.3"/>
            </g>
            <g>
              <rect class="cls-21" x="872.1" y="333.2" width="1.3" height="1.3"/>
              <rect class="cls-21" x="873.5" y="333.2" width="1.3" height="1.3"/>
              <rect class="cls-21" x="875" y="333.2" width="1.3" height="1.3"/>
              <rect class="cls-21" x="876.4" y="333.2" width="1.3" height="1.3"/>
              <rect class="cls-21" x="877.9" y="333.2" width="1.3" height="1.3"/>
              <rect class="cls-21" x="879.3" y="333.2" width="1.3" height="1.3"/>
              <rect class="cls-21" x="880.7" y="333.2" width="1.3" height="1.3"/>
            </g>
            <g>
              <rect class="cls-21" x="872.1" y="323.1" width="1.3" height="1.3" transform="translate(1196.4 -549) rotate(90)"/>
              <rect class="cls-21" x="872.1" y="324.5" width="1.3" height="1.3" transform="translate(1197.9 -547.5) rotate(90)"/>
              <rect class="cls-21" x="872.1" y="326" width="1.3" height="1.3" transform="translate(1199.3 -546.1) rotate(90)"/>
              <rect class="cls-21" x="872.1" y="327.4" width="1.3" height="1.3" transform="translate(1200.8 -544.6) rotate(90)"/>
              <rect class="cls-21" x="872.1" y="328.9" width="1.3" height="1.3" transform="translate(1202.2 -543.2) rotate(90)"/>
              <rect class="cls-21" x="872.1" y="330.3" width="1.3" height="1.3" transform="translate(1203.7 -541.8) rotate(90)"/>
              <rect class="cls-21" x="872.1" y="331.8" width="1.3" height="1.3" transform="translate(1205.1 -540.3) rotate(90)"/>
            </g>
            <g>
              <rect class="cls-21" x="880.7" y="323.1" width="1.3" height="1.3" transform="translate(1205.1 -557.6) rotate(90)"/>
              <rect class="cls-21" x="880.7" y="324.5" width="1.3" height="1.3" transform="translate(1206.6 -556.2) rotate(90)"/>
              <rect class="cls-21" x="880.7" y="326" width="1.3" height="1.3" transform="translate(1208 -554.8) rotate(90)"/>
              <rect class="cls-21" x="880.7" y="327.4" width="1.3" height="1.3" transform="translate(1209.4 -553.3) rotate(90)"/>
              <rect class="cls-21" x="880.7" y="328.9" width="1.3" height="1.3" transform="translate(1210.9 -551.9) rotate(90)"/>
              <rect class="cls-21" x="880.7" y="330.3" width="1.3" height="1.3" transform="translate(1212.3 -550.4) rotate(90)"/>
              <rect class="cls-21" x="880.7" y="331.8" width="1.3" height="1.3" transform="translate(1213.8 -549) rotate(90)"/>
            </g>
          </g>
          <polygon class="cls-21" points="875.3 341.4 871 340.2 872.1 344.6 872.8 343.3 874.6 345 875.7 343.8 874 342.1 875.3 341.4"/>
        </g>
      </g>
    </g>
  </g>
</svg>