<svg viewBox="0 0 200 200" xmlns="http://www.w3.org/2000/svg"><path d="m173.36 170.09c-2.56-3.63-6.73-6.63-11.14-9.8-4.74-3.42-9.61-6.94-12.06-11 9.27-1.93 21-5.44 21.55-5.62a3.12 3.12 0 0 0 1.51-5 95.24 95.24 0 0 0 -37.7-25.53c-1-2-2.14-4.63-3.44-7.63-9.23-21.15-28.37-65.08-78.88-71-4.03-2.73-14.58-9.51-19.87-9.51-6.57 0-9.33 2.83-9.33 9.4 0 3.19 2.6 6.94 6.84 12.78 2.08 2.85 5.54 7.63 5.66 9.1-.05 5.12 5.87 21.72 11.85 28.72-.17.36-.34.72-.52 1.07-2.63 5.56-5.14 10.83-5.14 23.29 0 16.42 7.86 25 15.63 25 4.82 0 7.23-5.46 8.37-11.86 4.28 8.69 11.28 20 21.08 26.92a3.12 3.12 0 1 0 3.61-5.1c-15.53-11-23.75-35.67-23.83-35.92a3.12 3.12 0 0 0 -6.09.95c0 8.58-1.64 17.73-3.14 18.75-4.5 0-9.38-7.17-9.38-18.75 0-11.06 2-15.27 4.53-20.62.48-1 1-2 1.45-3.11a3.11 3.11 0 0 0 -.82-3.62c-4.81-4.15-11.41-21.61-11.41-25.76 0-3.19-2.59-6.94-6.84-12.78-2.08-2.85-5.54-7.63-5.65-9.1 0-3.13 0-3.13 3.13-3.13 2.54 0 10.8 4.58 17 8.83a3.31 3.31 0 0 0 1.43.53c47.5 5.16 65.14 45.61 74.62 67.36 1.6 3.67 3 6.82 4.22 9.13a3 3 0 0 0 1.76 1.47c15.59 5.3 27.23 15.18 32.68 20.47-5.34 1.49-13.82 3.76-19.69 4.74a3.19 3.19 0 0 0 -2.1 1.37 3.13 3.13 0 0 0 -.42 2.47c1.91 7.68 9.29 13 15.79 17.69 4 2.87 7.73 5.58 9.68 8.35a3.1 3.1 0 1 0 5.07-3.57z" fill="currentColor"/><path d="m52.06 50a3.14 3.14 0 0 0 3.13 3.14 3.13 3.13 0 0 1 3.13 3.13 3.14 3.14 0 0 0 6.27 0 9.38 9.38 0 0 0 -9.38-9.38 3.12 3.12 0 0 0 -3.15 3.11z" fill="#556f7b"/><path d="m173.36 170.09c-2.56-3.63-6.73-6.63-11.14-9.8-4.74-3.42-9.61-6.94-12.06-11 9.27-1.93 21-5.44 21.55-5.62a3.12 3.12 0 0 0 1.51-5 95.24 95.24 0 0 0 -37.7-25.53c-1-2-2.14-4.63-3.44-7.63-9.23-21.15-28.37-65.08-78.88-71-4.03-2.73-14.58-9.51-19.87-9.51-6.57 0-9.33 2.83-9.33 9.4 0 3.19 2.6 6.94 6.84 12.78 2.08 2.85 5.54 7.63 5.66 9.1-.05 5.12 5.87 21.72 11.85 28.72-.17.36-.34.72-.52 1.07-2.63 5.56-5.14 10.83-5.14 23.29 0 16.42 7.86 25 15.63 25 4.82 0 7.23-5.46 8.37-11.86 4.28 8.69 11.28 20 21.08 26.92a3.12 3.12 0 1 0 3.61-5.1c-15.53-11-23.75-35.67-23.83-35.92a3.12 3.12 0 0 0 -6.09.95c0 8.58-1.64 17.73-3.14 18.75-4.5 0-9.38-7.17-9.38-18.75 0-11.06 2-15.27 4.53-20.62.48-1 1-2 1.45-3.11a3.11 3.11 0 0 0 -.82-3.62c-4.81-4.15-11.41-21.61-11.41-25.76 0-3.19-2.59-6.94-6.84-12.78-2.08-2.85-5.54-7.63-5.65-9.1 0-3.13 0-3.13 3.13-3.13 2.54 0 10.8 4.58 17 8.83a3.31 3.31 0 0 0 1.43.53c47.5 5.16 65.14 45.61 74.62 67.36 1.6 3.67 3 6.82 4.22 9.13a3 3 0 0 0 1.76 1.47c15.59 5.3 27.23 15.18 32.68 20.47-5.34 1.49-13.82 3.76-19.69 4.74a3.19 3.19 0 0 0 -2.1 1.37 3.13 3.13 0 0 0 -.42 2.47c1.91 7.68 9.29 13 15.79 17.69 4 2.87 7.73 5.58 9.68 8.35a3.1 3.1 0 1 0 5.07-3.57zm-121.3-120.09a3.14 3.14 0 0 0 3.13 3.14 3.13 3.13 0 0 1 3.13 3.13 3.14 3.14 0 0 0 6.27 0 9.38 9.38 0 0 0 -9.38-9.38 3.12 3.12 0 0 0 -3.15 3.11z" fill="currentColor"/></svg>