<svg
	xmlns="http://www.w3.org/2000/svg" xml:space="preserve" style="fill-rule:evenodd;clip-rule:evenodd;stroke-linejoin:round;stroke-miterlimit:2" width="100%" height="100%" viewBox="0 0 164 210">
	<path d="M-332.714-15.994h1408.03v792h-1408.03z" style="fill:url(#a);fill-rule:nonzero;stroke:#fff;stroke-width:1px"/>
	<g>
		<g>
			<path d="M100.834 15.572v14.085c0 .53-.431.96-.961.96H64.162a.961.961 0 0 1-.961-.96V15.572c0-.53.431-.96.961-.96h35.711c.53 0 .961.43.961.96Z" style="fill:none;stroke:#fff;stroke-width:.29px;stroke-linecap:round;stroke-miterlimit:1.5;stroke-dasharray:.29,.58,0,0,0,0"/>
			<g>
				<path d="M73.619 23.877h5.651v.706h-5.651z" style="fill:none"/>
				<path d="M73.015 25.184c.031.032.07.06.113.077a.343.343 0 0 0 .134.029h2.476v.706l-.707.353v.353h2.826v-.353l-.707-.353v-.706h2.476c.191 0 .35-.163.35-.357v-4.588a.35.35 0 0 0-.35-.353h-6.364a.354.354 0 0 0-.35.353v4.588a.34.34 0 0 0 .025.134.413.413 0 0 0 .074.117h.004Zm.604-1.307h5.65v.706h-5.65v-.706Z" style="fill:#fff;fill-rule:nonzero"/>
				<path d="M92.178 22.326a.135.135 0 0 0-.094.037.137.137 0 0 0-.04.097c0 .034.014.067.04.094a.131.131 0 0 0 .188 0 .133.133 0 0 0 0-.191.133.133 0 0 0-.094-.037Z" style="fill:none;fill-rule:nonzero"/>
				<path d="M92.178 23.801a1.34 1.34 0 1 0 .001-2.681 1.34 1.34 0 0 0-.001 2.681Zm-.268-1.609.871-.335-.335.871-.871.335.335-.871Z" style="fill:none;fill-rule:nonzero"/>
				<path d="m92.781 21.857-.871.335-.335.871.871-.335.335-.871Zm-.509.697a.131.131 0 0 1-.188 0 .135.135 0 0 1-.04-.094c0-.037.014-.07.04-.097a.135.135 0 0 1 .094-.037c.037 0 .071.014.094.037a.133.133 0 0 1 0 .191Z" style="fill:#fff;fill-rule:nonzero"/>
				<path d="M88.492 25.476h7.372v.67h-7.372z" style="fill:#fff"/>
				<path d="M88.827 20.45v4.356h6.702V20.45a.332.332 0 0 0-.331-.335h-6.039a.337.337 0 0 0-.332.335Zm3.351.67a1.34 1.34 0 1 1 .001 2.68 1.34 1.34 0 0 1-.001-2.68Z" style="fill:#fff;fill-rule:nonzero"/>
				<circle cx="70.499" cy="22.973" r=".888" style="fill:none"/>
				<path d="M69.558 25.362a1.325 1.325 0 0 1 1.882 0c.249.248.391.588.391.941h.444a1.776 1.776 0 1 0-3.552 0h.444c0-.353.14-.693.391-.941ZM69.167 22.973a1.332 1.332 0 1 0 2.663 0 1.332 1.332 0 0 0-2.663 0Zm1.332-.887a.888.888 0 1 1 0 1.775.888.888 0 0 1 0-1.775Z" style="fill:#fff;fill-rule:nonzero"/>
				<circle cx="85.493" cy="22.973" r=".888" style="fill:none"/>
				<path d="M84.552 25.362a1.327 1.327 0 0 1 1.883 0c.248.248.39.588.39.941h.444a1.775 1.775 0 1 0-3.551 0h.444c0-.353.139-.693.39-.941ZM84.162 22.973a1.331 1.331 0 1 0 2.663.001 1.331 1.331 0 0 0-2.663-.001Zm1.331-.887a.887.887 0 1 1 .002 1.774.887.887 0 0 1-.002-1.774Z" style="fill:#fff;fill-rule:nonzero"/>
			</g>
			<g>
				<path d="M72.199 12h19.636v4.792H72.199z" style="fill:#fff"/>
				<g>
					<path d="M75.078 15.463c-.26 0-.462-.08-.607-.239-.145-.159-.218-.381-.218-.667v-1.284h.246v1.296c0 .216.05.382.15.498.1.116.243.174.429.174.19 0 .335-.058.435-.173.1-.115.15-.281.15-.499v-1.296h.246v1.287c0 .284-.073.505-.219.664-.146.159-.35.239-.612.239ZM76.866 15.463a.714.714 0 0 1-.45-.131.51.51 0 0 1-.192-.37h.231a.32.32 0 0 0 .129.225.482.482 0 0 0 .288.078c.106 0 .189-.02.249-.06.06-.04.09-.097.09-.171a.203.203 0 0 0-.051-.137c-.034-.039-.102-.071-.204-.097l-.246-.063a.638.638 0 0 1-.315-.167.379.379 0 0 1-.105-.268c0-.132.049-.237.147-.314a.629.629 0 0 1 .399-.115c.166 0 .301.04.405.12.104.08.163.191.177.333h-.231a.279.279 0 0 0-.114-.189.416.416 0 0 0-.246-.066.4.4 0 0 0-.228.055.18.18 0 0 0-.081.158c0 .052.02.097.059.135.039.038.104.07.196.096l.24.066a.657.657 0 0 1 .321.174.401.401 0 0 1 .108.282.366.366 0 0 1-.153.313c-.102.075-.243.113-.423.113ZM78.447 15.463a.723.723 0 0 1-.651-.387.866.866 0 0 1-.096-.414.87.87 0 0 1 .095-.413.68.68 0 0 1 .265-.277.77.77 0 0 1 .393-.099c.142 0 .266.031.371.093a.625.625 0 0 1 .243.261.863.863 0 0 1 .085.396l-.001.057a.499.499 0 0 1-.008.06H77.88v-.201h1.116l-.078.111c0-.184-.04-.326-.121-.425a.42.42 0 0 0-.344-.148.466.466 0 0 0-.367.157.619.619 0 0 0-.14.425c0 .182.047.327.14.436a.465.465 0 0 0 .373.164.504.504 0 0 0 .258-.065.378.378 0 0 0 .162-.184h.228a.66.66 0 0 1-.25.331.703.703 0 0 1-.41.122ZM79.512 15.433v-1.53h.225v.39h.015v1.14h-.24Zm.24-.798-.039-.363a.53.53 0 0 1 .192-.297.52.52 0 0 1 .42-.09v.231a.136.136 0 0 0-.042-.008l-.066-.001c-.152 0-.267.045-.346.136-.079.091-.119.222-.119.392ZM81.843 15.463a.682.682 0 0 1-.373-.104.727.727 0 0 1-.258-.285.878.878 0 0 1-.095-.412c0-.154.032-.29.095-.408a.723.723 0 0 1 .258-.279.684.684 0 0 1 .37-.102.7.7 0 0 1 .308.066.593.593 0 0 1 .337.471h-.222a.417.417 0 0 0-.138-.24.412.412 0 0 0-.279-.093.449.449 0 0 0-.255.072.473.473 0 0 0-.168.204.74.74 0 0 0-.06.309c0 .118.02.222.06.312.04.09.097.16.17.21.073.05.158.075.256.075a.403.403 0 0 0 .417-.33h.222a.633.633 0 0 1-.645.534ZM82.836 13.273h.24v2.16h-.24zM83.556 15.433v-1.53h.24v1.53h-.24Zm-.018-1.878v-.282h.276v.282h-.276ZM84.897 15.463a.723.723 0 0 1-.651-.387.866.866 0 0 1-.096-.414.87.87 0 0 1 .095-.413.68.68 0 0 1 .265-.277.77.77 0 0 1 .393-.099c.142 0 .266.031.371.093a.625.625 0 0 1 .243.261.863.863 0 0 1 .085.396l-.001.057a.499.499 0 0 1-.008.06H84.33v-.201h1.116l-.078.111c0-.184-.04-.326-.121-.425a.42.42 0 0 0-.344-.148.466.466 0 0 0-.367.157.619.619 0 0 0-.14.425c0 .182.047.327.14.436a.465.465 0 0 0 .373.164.504.504 0 0 0 .258-.065.378.378 0 0 0 .162-.184h.228a.66.66 0 0 1-.25.331.703.703 0 0 1-.41.122ZM85.962 15.433v-1.53h.225v.36h.015v1.17h-.24Zm1.095 0v-1.002c0-.116-.029-.203-.087-.261-.058-.058-.144-.087-.258-.087-.1 0-.188.022-.265.066a.466.466 0 0 0-.18.183.557.557 0 0 0-.065.273l-.039-.363a.607.607 0 0 1 .239-.27.678.678 0 0 1 .364-.099c.16 0 .289.045.386.136a.47.47 0 0 1 .145.359v1.065h-.24ZM88.329 15.46c-.17 0-.293-.039-.37-.116-.077-.077-.116-.188-.116-.334v-1.464l.24-.09v1.551c0 .086.022.149.066.189.044.04.116.06.216.06a.62.62 0 0 0 .104-.008.302.302 0 0 0 .07-.019v.204a.375.375 0 0 1-.085.019.938.938 0 0 1-.125.008Zm-.801-1.353v-.204h1.011v.204h-1.011ZM89.361 15.463a.714.714 0 0 1-.45-.131.51.51 0 0 1-.192-.37h.231a.32.32 0 0 0 .129.225.482.482 0 0 0 .288.078c.106 0 .189-.02.249-.06.06-.04.09-.097.09-.171a.203.203 0 0 0-.051-.137c-.034-.039-.102-.071-.204-.097l-.246-.063a.638.638 0 0 1-.315-.167.379.379 0 0 1-.105-.268c0-.132.049-.237.147-.314a.629.629 0 0 1 .399-.115c.166 0 .301.04.405.12.104.08.163.191.177.333h-.231a.279.279 0 0 0-.114-.189.416.416 0 0 0-.246-.066.4.4 0 0 0-.228.055.18.18 0 0 0-.081.158c0 .052.02.097.059.135.039.038.104.07.196.096l.24.066a.657.657 0 0 1 .321.174.401.401 0 0 1 .108.282.366.366 0 0 1-.153.313c-.102.075-.243.113-.423.113Z" style="fill-rule:nonzero"/>
				</g>
			</g>
		</g>
		<g>
			<path d="M82.017 30.617V50.87" style="fill:none"/>
			<path d="m83.517 47.87-1.5 3-1.5-3h3Z" style="fill:#fe9833"/>
			<path d="M82.017 30.617V48.47" style="fill:none;stroke:#fe9833;stroke-width:.5px;stroke-miterlimit:1.5"/>
		</g>
		<g>
			<path d="M152.035 18.737v7.756a.529.529 0 0 1-.529.528h-32.983a.528.528 0 0 1-.528-.528v-7.756c0-.292.236-.529.528-.529h32.983a.53.53 0 0 1 .529.529Z" style="fill:#fff;fill-opacity:.2"/>
			<g>
				<path d="M123.079 23.755c-.26 0-.462-.08-.607-.239-.145-.159-.218-.381-.218-.667v-1.284h.246v1.296c0 .216.05.382.15.498.1.116.243.174.429.174.19 0 .335-.058.435-.173.1-.115.15-.281.15-.499v-1.296h.246v1.287c0 .284-.073.505-.219.664-.146.159-.35.239-.612.239ZM124.867 23.755a.714.714 0 0 1-.45-.131.51.51 0 0 1-.192-.37h.231a.32.32 0 0 0 .129.225.482.482 0 0 0 .288.078c.106 0 .189-.02.249-.06.06-.04.09-.097.09-.171a.203.203 0 0 0-.051-.137c-.034-.039-.102-.071-.204-.097l-.246-.063a.638.638 0 0 1-.315-.167.379.379 0 0 1-.105-.268c0-.132.049-.237.147-.314a.629.629 0 0 1 .399-.115c.166 0 .301.04.405.12.104.08.163.191.177.333h-.231a.279.279 0 0 0-.114-.189.416.416 0 0 0-.246-.066.4.4 0 0 0-.228.055.18.18 0 0 0-.081.158c0 .052.02.097.059.135.039.038.104.07.196.096l.24.066a.657.657 0 0 1 .321.174.401.401 0 0 1 .108.282.366.366 0 0 1-.153.313c-.102.075-.243.113-.423.113ZM126.448 23.755a.723.723 0 0 1-.651-.387.866.866 0 0 1-.096-.414.87.87 0 0 1 .095-.413.68.68 0 0 1 .265-.277.77.77 0 0 1 .393-.099c.142 0 .266.031.371.093a.625.625 0 0 1 .243.261.863.863 0 0 1 .085.396l-.001.057a.499.499 0 0 1-.008.06h-1.263v-.201h1.116l-.078.111c0-.184-.04-.326-.121-.425a.42.42 0 0 0-.344-.148.466.466 0 0 0-.367.157.619.619 0 0 0-.14.425c0 .182.047.327.14.436a.465.465 0 0 0 .373.164.504.504 0 0 0 .258-.065.378.378 0 0 0 .162-.184h.228a.66.66 0 0 1-.25.331.703.703 0 0 1-.41.122ZM127.513 23.725v-1.53h.225v.39h.015v1.14h-.24Zm.24-.798-.039-.363a.53.53 0 0 1 .192-.297.52.52 0 0 1 .42-.09v.231a.136.136 0 0 0-.042-.008l-.066-.001c-.152 0-.267.045-.346.136-.079.091-.119.222-.119.392ZM128.593 22.24l-.075-.396a1.378 1.378 0 0 1-.024-.204c0-.032.007-.061.02-.086a.147.147 0 0 1 .052-.058.142.142 0 0 1 .078-.021c.03 0 .057.007.08.021.023.014.04.033.052.058a.197.197 0 0 1 .018.086 1.378 1.378 0 0 1-.024.204l-.075.396h-.102ZM129.538 23.755a.714.714 0 0 1-.45-.131.51.51 0 0 1-.192-.37h.231a.32.32 0 0 0 .129.225.482.482 0 0 0 .288.078c.106 0 .189-.02.249-.06.06-.04.09-.097.09-.171a.203.203 0 0 0-.051-.137c-.034-.039-.102-.071-.204-.097l-.246-.063a.638.638 0 0 1-.315-.167.379.379 0 0 1-.105-.268c0-.132.049-.237.147-.314a.629.629 0 0 1 .399-.115c.166 0 .301.04.405.12.104.08.163.191.177.333h-.231a.279.279 0 0 0-.114-.189.416.416 0 0 0-.246-.066.4.4 0 0 0-.228.055.18.18 0 0 0-.081.158c0 .052.02.097.059.135.039.038.104.07.196.096l.24.066a.657.657 0 0 1 .321.174.401.401 0 0 1 .108.282.366.366 0 0 1-.153.313c-.102.075-.243.113-.423.113ZM131.038 23.725v-1.53h.225v.36h.015v1.17h-.24Zm1.095 0v-1.002c0-.116-.029-.203-.087-.261-.058-.058-.144-.087-.258-.087-.1 0-.188.022-.265.066a.466.466 0 0 0-.18.183.557.557 0 0 0-.065.273l-.039-.363a.607.607 0 0 1 .239-.27.678.678 0 0 1 .364-.099c.16 0 .289.045.386.136a.47.47 0 0 1 .145.359v1.065h-.24ZM133.765 23.725a.735.735 0 0 1-.016-.117 2.508 2.508 0 0 1-.005-.168h-.015v-.732c0-.116-.026-.202-.079-.257-.053-.055-.139-.082-.257-.082a.484.484 0 0 0-.277.07.26.26 0 0 0-.116.2h-.231a.449.449 0 0 1 .186-.348.735.735 0 0 1 .447-.126c.19 0 .331.045.423.135.092.09.138.225.138.405v.735c0 .044.003.089.009.136.006.047.014.097.024.149h-.231Zm-.525.03a.57.57 0 0 1-.376-.116.388.388 0 0 1-.14-.316c0-.134.046-.238.138-.312a.871.871 0 0 1 .402-.156l.534-.09v.198l-.498.078a.6.6 0 0 0-.255.09.212.212 0 0 0-.087.183c0 .078.027.137.08.177.053.04.131.06.235.06a.552.552 0 0 0 .329-.092.28.28 0 0 0 .127-.238l.039.213a.412.412 0 0 1-.187.237.65.65 0 0 1-.341.084ZM134.425 23.725v-1.53h.225v.36h.015v1.17h-.24Zm1.032 0v-1.014c0-.116-.026-.201-.078-.255-.052-.054-.127-.081-.225-.081a.478.478 0 0 0-.424.249.557.557 0 0 0-.065.273l-.039-.363a.615.615 0 0 1 .234-.27.62.62 0 0 1 .339-.099c.148 0 .268.043.36.13a.463.463 0 0 1 .138.353v1.077h-.24Zm1.032 0v-1.014c0-.116-.026-.201-.078-.255-.052-.054-.127-.081-.225-.081a.478.478 0 0 0-.424.249.557.557 0 0 0-.065.273l-.06-.363a.604.604 0 0 1 .24-.27.656.656 0 0 1 .348-.099c.148 0 .269.043.363.13a.458.458 0 0 1 .141.353v1.077h-.24ZM137.818 23.755a.723.723 0 0 1-.651-.387.866.866 0 0 1-.096-.414.87.87 0 0 1 .095-.413.68.68 0 0 1 .265-.277.77.77 0 0 1 .393-.099c.142 0 .266.031.371.093a.625.625 0 0 1 .243.261.863.863 0 0 1 .085.396l-.001.057a.499.499 0 0 1-.008.06h-1.263v-.201h1.116l-.078.111c0-.184-.04-.326-.121-.425a.42.42 0 0 0-.344-.148.466.466 0 0 0-.367.157.619.619 0 0 0-.14.425c0 .182.047.327.14.436a.465.465 0 0 0 .373.164.504.504 0 0 0 .258-.065.378.378 0 0 0 .162-.184h.228a.66.66 0 0 1-.25.331.703.703 0 0 1-.41.122ZM140.002 23.755a.714.714 0 0 1-.45-.131.51.51 0 0 1-.192-.37h.231a.32.32 0 0 0 .129.225.482.482 0 0 0 .288.078c.106 0 .189-.02.249-.06.06-.04.09-.097.09-.171a.203.203 0 0 0-.051-.137c-.034-.039-.102-.071-.204-.097l-.246-.063a.638.638 0 0 1-.315-.167.379.379 0 0 1-.105-.268c0-.132.049-.237.147-.314a.629.629 0 0 1 .399-.115c.166 0 .301.04.405.12.104.08.163.191.177.333h-.231a.279.279 0 0 0-.114-.189.416.416 0 0 0-.246-.066.4.4 0 0 0-.228.055.18.18 0 0 0-.081.158c0 .052.02.097.059.135.039.038.104.07.196.096l.24.066a.657.657 0 0 1 .321.174.401.401 0 0 1 .108.282.366.366 0 0 1-.153.313c-.102.075-.243.113-.423.113ZM141.583 23.755a.723.723 0 0 1-.651-.387.866.866 0 0 1-.096-.414.87.87 0 0 1 .095-.413.68.68 0 0 1 .265-.277.77.77 0 0 1 .393-.099c.142 0 .266.031.371.093a.625.625 0 0 1 .243.261.863.863 0 0 1 .085.396l-.001.057a.499.499 0 0 1-.008.06h-1.263v-.201h1.116l-.078.111c0-.184-.04-.326-.121-.425a.42.42 0 0 0-.344-.148.466.466 0 0 0-.367.157.619.619 0 0 0-.14.425c0 .182.047.327.14.436a.465.465 0 0 0 .373.164.504.504 0 0 0 .258-.065.378.378 0 0 0 .162-.184h.228a.66.66 0 0 1-.25.331.703.703 0 0 1-.41.122ZM142.648 23.725v-1.53h.225v.39h.015v1.14h-.24Zm.24-.798-.039-.363a.53.53 0 0 1 .192-.297.52.52 0 0 1 .42-.09v.231a.136.136 0 0 0-.042-.008l-.066-.001c-.152 0-.267.045-.346.136-.079.091-.119.222-.119.392ZM144.22 23.725l-.633-1.53h.258l.528 1.368h-.096l.525-1.368h.246l-.633 1.53h-.195ZM145.93 23.755a.723.723 0 0 1-.651-.387.866.866 0 0 1-.096-.414.87.87 0 0 1 .095-.413.68.68 0 0 1 .265-.277.77.77 0 0 1 .393-.099c.142 0 .266.031.371.093a.625.625 0 0 1 .243.261.863.863 0 0 1 .085.396l-.001.057a.499.499 0 0 1-.008.06h-1.263v-.201h1.116l-.078.111c0-.184-.04-.326-.121-.425a.42.42 0 0 0-.344-.148.466.466 0 0 0-.367.157.619.619 0 0 0-.14.425c0 .182.047.327.14.436a.465.465 0 0 0 .373.164.504.504 0 0 0 .258-.065.378.378 0 0 0 .162-.184h.228a.66.66 0 0 1-.25.331.703.703 0 0 1-.41.122ZM146.995 23.725v-1.53h.225v.39h.015v1.14h-.24Zm.24-.798-.039-.363a.53.53 0 0 1 .192-.297.52.52 0 0 1 .42-.09v.231a.136.136 0 0 0-.042-.008l-.066-.001c-.152 0-.267.045-.346.136-.079.091-.119.222-.119.392Z" style="fill:#fff;fill-rule:nonzero"/>
			</g>
		</g>
		<g>
			<g>
				<path d="M152.035 48.728v140.98a8.406 8.406 0 0 1-8.402 8.402H20.402A8.406 8.406 0 0 1 12 189.708V48.728c0-4.637 3.765-8.402 8.402-8.402h123.231c4.637 0 8.402 3.765 8.402 8.402Z" style="fill:#fe9833;fill-opacity:.2"/>
				<path d="M152.035 48.728v140.975c0 4.637-3.765 8.402-8.402 8.402H20.402c-4.637 0-8.402-3.765-8.402-8.402V48.728c0-4.637 3.765-8.402 8.402-8.402h123.231c4.637 0 8.402 3.765 8.402 8.402Z" style="fill:none;stroke:#fe9833;stroke-width:.58px;stroke-linecap:round;stroke-miterlimit:1.5"/>
			</g>
			<g>
				<g>
					<g>
						<path d="m65.143 88.674-2.506 2.23-.28-3.342 2.786 1.112Z" style="fill:#fe9833"/>
						<path d="M82.017 67.43c0 12.352-13.758 11.929-18.49 21.245" style="fill:none;stroke:#fe9833;stroke-width:.5px;stroke-linejoin:miter;stroke-miterlimit:1.5"/>
						<path d="m101.678 87.562-.28 3.342-2.506-2.23 2.786-1.112Z" style="fill:#fe9833"/>
						<path d="M82.017 67.43c0 12.352 13.759 11.929 18.491 21.245" style="fill:none;stroke:#fe9833;stroke-width:.5px;stroke-linejoin:miter;stroke-miterlimit:1.5"/>
						<path d="m83.517 88.272-1.5 3-1.5-3h3Z" style="fill:#fe9833"/>
						<path d="M82.017 67.43v21.442" style="fill:none;stroke:#fe9833;stroke-width:.5px;stroke-linejoin:miter;stroke-miterlimit:1.5"/>
					</g>
					<g>
						<path d="m50.808 132.323-1.872 2.783-1.103-3.168 2.975.385Z" style="fill:#fe9833"/>
						<path d="M72.41 118.009c0 9.353-20.405 4.873-23.166 14.716" style="fill:none;stroke:#fe9833;stroke-width:.5px;stroke-linejoin:miter;stroke-miterlimit:1.5"/>
						<path d="m116.161 131.939-1.106 3.167-1.869-2.785 2.975-.382Z" style="fill:#fe9833"/>
						<path d="M91.797 118.009c0 9.353 20.216 4.873 22.953 14.716" style="fill:none;stroke:#fe9833;stroke-width:.5px;stroke-linejoin:miter;stroke-miterlimit:1.5"/>
						<path d="m105.895 123.458-.18-.18a2.248 2.248 0 1 0-3.18 3.18l3.36 3.36 3.36-3.36c.21-.21.37-.46.48-.73a2.14 2.14 0 0 0 0-1.72 2.205 2.205 0 0 0-1.21-1.22c-.28-.11-.57-.17-.86-.17-.29 0-.59.06-.87.17-.27.11-.52.28-.73.49l-.17.18Z" style="fill:#fe9833;fill-rule:nonzero"/>
						<g>
							<path d="M114.159 126.51v-2.16h.246v2.16h-.246Zm.219-1.122 1.122-1.038h.345l-1.146 1.038h-.321Zm1.17 1.122-1.176-1.122h.327l1.206 1.122h-.357ZM116.703 126.54a.722.722 0 0 1-.387-.103.73.73 0 0 1-.264-.284.866.866 0 0 1-.096-.414c0-.156.032-.293.095-.412a.683.683 0 0 1 .265-.278.77.77 0 0 1 .393-.099c.142 0 .266.031.371.093a.625.625 0 0 1 .243.261.863.863 0 0 1 .085.396l-.001.057a.499.499 0 0 1-.008.06h-1.263v-.201h1.116l-.078.111c0-.184-.04-.325-.121-.424a.42.42 0 0 0-.344-.149.467.467 0 0 0-.367.158.616.616 0 0 0-.14.424c0 .182.047.328.14.437a.465.465 0 0 0 .373.163.504.504 0 0 0 .258-.064.38.38 0 0 0 .162-.185h.228a.663.663 0 0 1-.25.332.703.703 0 0 1-.41.121ZM118.395 126.54a.722.722 0 0 1-.387-.103.73.73 0 0 1-.264-.284.866.866 0 0 1-.096-.414c0-.156.032-.293.095-.412a.683.683 0 0 1 .265-.278.77.77 0 0 1 .393-.099c.142 0 .266.031.371.093a.625.625 0 0 1 .243.261.863.863 0 0 1 .085.396l-.001.057a.499.499 0 0 1-.008.06h-1.263v-.201h1.116l-.078.111c0-.184-.04-.325-.121-.424a.42.42 0 0 0-.344-.149.467.467 0 0 0-.367.158.616.616 0 0 0-.14.424c0 .182.047.328.14.437a.465.465 0 0 0 .373.163.504.504 0 0 0 .258-.064.38.38 0 0 0 .162-.185h.228a.663.663 0 0 1-.25.332.703.703 0 0 1-.41.121ZM120.216 126.537a.608.608 0 0 1-.363-.105.527.527 0 0 1-.201-.297l.048-.006v.996h-.24v-2.145h.225v.357l-.033-.009a.5.5 0 0 1 .216-.277.676.676 0 0 1 .369-.101c.136 0 .255.033.356.099a.657.657 0 0 1 .235.276.956.956 0 0 1 .084.414c0 .16-.029.3-.087.42a.663.663 0 0 1-.243.279.668.668 0 0 1-.366.099Zm-.036-.21a.436.436 0 0 0 .357-.157c.086-.105.129-.249.129-.431 0-.18-.043-.321-.129-.424a.44.44 0 0 0-.357-.155.445.445 0 0 0-.36.158c-.088.105-.132.248-.132.43 0 .178.044.319.132.423a.447.447 0 0 0 .36.156ZM122.223 126.51a.735.735 0 0 1-.016-.117 2.508 2.508 0 0 1-.005-.168h-.015v-.732c0-.116-.026-.201-.079-.256-.053-.055-.139-.083-.257-.083a.484.484 0 0 0-.277.071.258.258 0 0 0-.116.199h-.231a.449.449 0 0 1 .186-.348.735.735 0 0 1 .447-.126c.19 0 .331.045.423.135.092.09.138.225.138.405v.735c0 .044.003.09.009.137.006.047.014.096.024.148h-.231Zm-.525.03a.57.57 0 0 1-.376-.115.39.39 0 0 1-.14-.317c0-.134.046-.238.138-.312a.871.871 0 0 1 .402-.156l.534-.09v.198l-.498.078a.6.6 0 0 0-.255.09.212.212 0 0 0-.087.183c0 .078.027.137.08.177.053.04.131.06.235.06.134 0 .244-.03.329-.091a.281.281 0 0 0 .127-.239l.039.213a.412.412 0 0 1-.187.237.65.65 0 0 1-.341.084ZM122.883 124.35h.24v2.16h-.24zM123.603 126.51v-1.53h.24v1.53h-.24Zm-.018-1.878v-.282h.276v.282h-.276ZM124.749 126.51l-.633-1.53h.258l.528 1.368h-.096l.525-1.368h.246l-.633 1.53h-.195ZM126.459 126.54a.722.722 0 0 1-.387-.103.73.73 0 0 1-.264-.284.866.866 0 0 1-.096-.414c0-.156.032-.293.095-.412a.683.683 0 0 1 .265-.278.77.77 0 0 1 .393-.099c.142 0 .266.031.371.093a.625.625 0 0 1 .243.261.863.863 0 0 1 .085.396l-.001.057a.499.499 0 0 1-.008.06h-1.263v-.201h1.116l-.078.111c0-.184-.04-.325-.121-.424a.42.42 0 0 0-.344-.149.467.467 0 0 0-.367.158.616.616 0 0 0-.14.424c0 .182.047.328.14.437a.465.465 0 0 0 .373.163.504.504 0 0 0 .258-.064.38.38 0 0 0 .162-.185h.228a.663.663 0 0 1-.25.332.703.703 0 0 1-.41.121ZM128.637 126.51v-.357l.03.009a.518.518 0 0 1-.208.276.634.634 0 0 1-.362.102.654.654 0 0 1-.361-.099.66.66 0 0 1-.24-.276.942.942 0 0 1-.086-.414c0-.16.029-.3.087-.42a.663.663 0 0 1 .243-.279.668.668 0 0 1 .366-.099c.144 0 .265.035.363.105.098.07.165.169.201.297l-.048.006v-1.011h.24v2.16h-.225Zm-.495-.18a.445.445 0 0 0 .362-.157c.087-.105.13-.249.13-.431a.634.634 0 0 0-.132-.423.447.447 0 0 0-.36-.156.438.438 0 0 0-.357.156c-.086.104-.129.248-.129.432 0 .18.043.322.129.425a.44.44 0 0 0 .357.154Z" style="fill:#fe9833;fill-rule:nonzero"/>
						</g>
					</g>
				</g>
				<g>
					<g>
						<path d="M126.275 82.932v30.413c0 1.144-.93 2.073-2.074 2.073H39.834a2.074 2.074 0 0 1-2.074-2.073V82.932c0-1.145.929-2.074 2.074-2.074h84.367c1.144 0 2.074.929 2.074 2.074Z" style="fill:none;stroke:#fe9833;stroke-width:.29px;stroke-linecap:round;stroke-miterlimit:1.5;stroke-dasharray:.86,.86,0,0,0,0"/>
						<g>
							<path d="m42.342 86.36.626-1.62h.162l-.61 1.62h-.178Zm1.287 0-.609-1.62h.173l.625 1.62h-.189Zm-.976-.655h.846v.162h-.846v-.162ZM44.646 86.38a.453.453 0 0 1-.272-.079.397.397 0 0 1-.151-.223l.036-.004v.747h-.18v-1.609h.169v.268l-.025-.007a.38.38 0 0 1 .162-.208.51.51 0 0 1 .277-.075c.102 0 .191.024.267.074a.484.484 0 0 1 .176.207.715.715 0 0 1 .063.31.71.71 0 0 1-.065.315.499.499 0 0 1-.182.21.507.507 0 0 1-.275.074Zm-.027-.158a.326.326 0 0 0 .268-.118.492.492 0 0 0 .097-.323.478.478 0 0 0-.097-.318.33.33 0 0 0-.268-.116.333.333 0 0 0-.27.118.489.489 0 0 0-.099.323c0 .134.033.239.099.317a.335.335 0 0 0 .27.117ZM46.01 86.38a.451.451 0 0 1-.272-.079.392.392 0 0 1-.151-.223l.036-.004v.747h-.18v-1.609h.169v.268l-.025-.007a.372.372 0 0 1 .162-.208.508.508 0 0 1 .277-.075.468.468 0 0 1 .443.281.715.715 0 0 1 .063.31c0 .12-.022.225-.065.315a.508.508 0 0 1-.183.21.504.504 0 0 1-.274.074Zm-.027-.158a.327.327 0 0 0 .268-.118.497.497 0 0 0 .096-.323.483.483 0 0 0-.096-.318.332.332 0 0 0-.268-.116.333.333 0 0 0-.27.118.489.489 0 0 0-.099.323c0 .134.033.239.099.317a.335.335 0 0 0 .27.117ZM47.646 86.382a.539.539 0 0 1-.338-.098.382.382 0 0 1-.144-.278h.173c.011.074.043.13.097.169a.361.361 0 0 0 .216.059c.08 0 .142-.015.187-.045a.145.145 0 0 0 .067-.129.147.147 0 0 0-.038-.102c-.025-.029-.076-.054-.153-.073l-.184-.047a.485.485 0 0 1-.237-.125.29.29 0 0 1-.078-.202c0-.099.036-.177.11-.235a.469.469 0 0 1 .299-.086c.125 0 .226.03.304.09.078.06.122.143.133.249h-.174a.208.208 0 0 0-.085-.141.314.314 0 0 0-.185-.05.3.3 0 0 0-.171.042.134.134 0 0 0-.06.118c0 .039.014.073.044.101a.334.334 0 0 0 .147.072l.18.05a.495.495 0 0 1 .241.13.302.302 0 0 1 .081.212c0 .1-.039.178-.115.235a.528.528 0 0 1-.317.084ZM48.831 86.382a.54.54 0 0 1-.488-.29.652.652 0 0 1-.072-.311c0-.117.024-.22.071-.309a.512.512 0 0 1 .199-.208.575.575 0 0 1 .295-.074c.106 0 .199.023.278.069a.472.472 0 0 1 .182.196.644.644 0 0 1 .064.297l-.001.043a.47.47 0 0 1-.006.045h-.947v-.151h.837l-.058.083a.494.494 0 0 0-.091-.318.316.316 0 0 0-.258-.111.35.35 0 0 0-.276.118.465.465 0 0 0-.104.318c0 .137.035.246.104.327a.35.35 0 0 0 .28.123.382.382 0 0 0 .194-.048.288.288 0 0 0 .121-.139h.171a.5.5 0 0 1-.495.34ZM49.63 86.36v-1.148h.169v.293h.011v.855h-.18Zm.18-.599-.029-.272a.397.397 0 0 1 .144-.223.389.389 0 0 1 .315-.067v.173a.114.114 0 0 0-.032-.006l-.049-.001c-.114 0-.201.034-.26.102a.44.44 0 0 0-.089.294ZM50.809 86.36l-.475-1.148h.194l.396 1.026h-.072l.394-1.026h.184l-.475 1.148h-.146ZM52.092 86.382a.541.541 0 0 1-.489-.29.652.652 0 0 1-.072-.311c0-.117.024-.22.071-.309a.518.518 0 0 1 .199-.208.575.575 0 0 1 .295-.074.54.54 0 0 1 .278.069c.079.047.14.112.182.196a.644.644 0 0 1 .064.297l-.001.043a.268.268 0 0 1-.005.045h-.948v-.151h.837l-.058.083a.488.488 0 0 0-.091-.318.316.316 0 0 0-.258-.111.347.347 0 0 0-.275.118.46.46 0 0 0-.105.318c0 .137.035.246.105.327a.348.348 0 0 0 .28.123.379.379 0 0 0 .193-.048.29.29 0 0 0 .122-.139h.171a.5.5 0 0 1-.495.34ZM52.89 86.36v-1.148h.169v.293h.011v.855h-.18Zm.18-.599-.029-.272a.397.397 0 0 1 .144-.223.392.392 0 0 1 .315-.067v.173a.106.106 0 0 0-.031-.006l-.05-.001c-.114 0-.2.034-.26.102a.44.44 0 0 0-.089.294ZM54.639 86.382a.508.508 0 0 1-.28-.078.54.54 0 0 1-.194-.213.665.665 0 0 1-.071-.31c0-.115.024-.217.071-.306a.543.543 0 0 1 .194-.209.51.51 0 0 1 .277-.076c.086 0 .163.016.231.049s.125.08.169.141a.47.47 0 0 1 .084.212h-.166a.317.317 0 0 0-.104-.18.312.312 0 0 0-.209-.069.335.335 0 0 0-.191.054.355.355 0 0 0-.126.153.554.554 0 0 0-.045.231c0 .089.015.167.045.234a.336.336 0 0 0 .319.214.312.312 0 0 0 .207-.069.298.298 0 0 0 .106-.178h.166a.48.48 0 0 1-.258.351.508.508 0 0 1-.225.049ZM55.383 84.74h.18v1.62h-.18zM56.297 86.382a.419.419 0 0 1-.2-.046.335.335 0 0 1-.138-.131.376.376 0 0 1-.049-.194v-.799h.18v.752c0 .087.021.152.064.195.043.044.104.066.183.066a.355.355 0 0 0 .323-.188.413.413 0 0 0 .049-.204l.029.272a.445.445 0 0 1-.176.203.495.495 0 0 1-.265.074Zm.423-.022v-.27h-.011v-.878h.18v1.148h-.169ZM57.633 86.382a.536.536 0 0 1-.337-.098.382.382 0 0 1-.144-.278h.173c.011.074.043.13.097.169a.361.361 0 0 0 .216.059.336.336 0 0 0 .187-.045.145.145 0 0 0 .067-.129.152.152 0 0 0-.038-.102c-.026-.029-.077-.054-.153-.073l-.185-.047a.481.481 0 0 1-.236-.125.29.29 0 0 1-.079-.202c0-.099.037-.177.111-.235a.469.469 0 0 1 .299-.086c.124 0 .226.03.304.09a.34.34 0 0 1 .132.249h-.173a.208.208 0 0 0-.085-.141.314.314 0 0 0-.185-.05.3.3 0 0 0-.171.042.135.135 0 0 0-.061.118c0 .039.015.073.044.101.03.029.079.053.148.072l.18.05a.492.492 0 0 1 .24.13.302.302 0 0 1 .081.212c0 .1-.038.178-.114.235a.531.531 0 0 1-.318.084ZM58.767 86.38c-.127 0-.22-.029-.277-.087-.058-.058-.087-.141-.087-.251v-1.098l.18-.067v1.163c0 .065.016.112.049.142.033.03.087.045.162.045a.442.442 0 0 0 .131-.02v.153a.665.665 0 0 1-.158.02Zm-.6-1.015v-.153h.758v.153h-.758ZM59.602 86.382a.54.54 0 0 1-.488-.29.652.652 0 0 1-.072-.311c0-.117.024-.22.071-.309a.505.505 0 0 1 .199-.208.572.572 0 0 1 .295-.074.479.479 0 0 1 .46.265.644.644 0 0 1 .064.297l-.001.043a.47.47 0 0 1-.006.045h-.947v-.151h.837l-.059.083a.488.488 0 0 0-.091-.318.312.312 0 0 0-.257-.111.35.35 0 0 0-.276.118.46.46 0 0 0-.105.318c0 .137.035.246.105.327a.35.35 0 0 0 .28.123.382.382 0 0 0 .194-.048.288.288 0 0 0 .121-.139h.171a.495.495 0 0 1-.188.249.522.522 0 0 1-.307.091ZM60.401 86.36v-1.148h.169v.293h.011v.855h-.18Zm.18-.599-.029-.272a.397.397 0 0 1 .144-.223.389.389 0 0 1 .315-.067v.173a.114.114 0 0 0-.032-.006l-.049-.001c-.114 0-.201.034-.26.102a.44.44 0 0 0-.089.294Z" style="fill:#fe9833;fill-rule:nonzero"/>
						</g>
					</g>
					<g>
						<g>
							<path d="M70.114 91.801v16.161a.898.898 0 0 1-.897.898h-13.16a.898.898 0 0 1-.897-.898V91.801c0-.495.402-.897.897-.897h13.16c.495 0 .897.402.897.897Z" style="fill:#fff;fill-opacity:.2"/>
							<g>
								<path d="m58.783 105.132.834-2.16h.216l-.813 2.16h-.237Zm1.716 0-.813-2.16h.231l.834 2.16h-.252Zm-1.302-.873h1.128v.216h-1.128v-.216ZM61.855 105.159a.608.608 0 0 1-.363-.105.527.527 0 0 1-.201-.297l.048-.006v.996h-.24v-2.145h.225v.357l-.033-.009a.5.5 0 0 1 .216-.277.676.676 0 0 1 .369-.101c.136 0 .254.033.355.099.101.066.18.158.236.276a.956.956 0 0 1 .084.414c0 .16-.029.3-.087.42a.663.663 0 0 1-.243.279.668.668 0 0 1-.366.099Zm-.036-.21a.436.436 0 0 0 .357-.157c.086-.105.129-.249.129-.431 0-.18-.043-.321-.129-.424a.44.44 0 0 0-.357-.155.445.445 0 0 0-.36.158c-.088.105-.132.248-.132.43 0 .178.044.319.132.423a.447.447 0 0 0 .36.156ZM63.673 105.159a.608.608 0 0 1-.363-.105.527.527 0 0 1-.201-.297l.048-.006v.996h-.24v-2.145h.225v.357l-.033-.009a.5.5 0 0 1 .216-.277.676.676 0 0 1 .369-.101c.136 0 .254.033.355.099.101.066.18.158.236.276a.956.956 0 0 1 .084.414c0 .16-.029.3-.087.42a.663.663 0 0 1-.243.279.668.668 0 0 1-.366.099Zm-.036-.21a.436.436 0 0 0 .357-.157c.086-.105.129-.249.129-.431 0-.18-.043-.321-.129-.424a.44.44 0 0 0-.357-.155.445.445 0 0 0-.36.158c-.088.105-.132.248-.132.43 0 .178.044.319.132.423a.447.447 0 0 0 .36.156ZM65.77 105.132v-1.914l.063.015a.453.453 0 0 1-.138.162 1.109 1.109 0 0 1-.51.222v-.231a1.058 1.058 0 0 0 .499-.229.577.577 0 0 0 .149-.185h.177v2.16h-.24Z" style="fill:#fff;fill-rule:nonzero"/>
							</g>
							<path d="M61.097 97.668h.924v.616h-.924zM61.097 94.587h.924v.616h-.924z" style="fill:none"/>
							<path d="M59.954 93.753a.314.314 0 0 0-.09.218v2.157h5.545v-2.157a.305.305 0 0 0-.308-.308h-4.929a.301.301 0 0 0-.218.09Zm1.143.834h.924v.617h-.924v-.617ZM59.864 98.9c0 .08.034.16.09.219a.317.317 0 0 0 .218.089h4.929c.083 0 .16-.034.219-.089a.328.328 0 0 0 .089-.219v-2.156h-5.545V98.9Zm1.233-1.232h.924v.616h-.924v-.616Z" style="fill:#fff;fill-rule:nonzero"/>
						</g>
						<g>
							<path d="M89.577 91.801v16.161a.898.898 0 0 1-.897.898H75.52a.898.898 0 0 1-.897-.898V91.801c0-.495.402-.897.897-.897h13.16c.495 0 .897.402.897.897Z" style="fill:#fff;fill-opacity:.2"/>
							<g>
								<path d="m78.015 105.132.834-2.16h.216l-.813 2.16h-.237Zm1.716 0-.813-2.16h.231l.834 2.16h-.252Zm-1.302-.873h1.128v.216h-1.128v-.216ZM81.087 105.159a.608.608 0 0 1-.363-.105.527.527 0 0 1-.201-.297l.048-.006v.996h-.24v-2.145h.225v.357l-.033-.009a.5.5 0 0 1 .216-.277.676.676 0 0 1 .369-.101c.136 0 .255.033.356.099a.657.657 0 0 1 .235.276.956.956 0 0 1 .084.414c0 .16-.029.3-.087.42a.663.663 0 0 1-.243.279.668.668 0 0 1-.366.099Zm-.036-.21a.436.436 0 0 0 .357-.157c.086-.105.129-.249.129-.431 0-.18-.043-.321-.129-.424a.44.44 0 0 0-.357-.155.445.445 0 0 0-.36.158c-.088.105-.132.248-.132.43 0 .178.044.319.132.423a.447.447 0 0 0 .36.156ZM82.905 105.159a.608.608 0 0 1-.363-.105.527.527 0 0 1-.201-.297l.048-.006v.996h-.24v-2.145h.225v.357l-.033-.009a.5.5 0 0 1 .216-.277.676.676 0 0 1 .369-.101c.136 0 .255.033.356.099a.657.657 0 0 1 .235.276.956.956 0 0 1 .084.414c0 .16-.029.3-.087.42a.663.663 0 0 1-.243.279.668.668 0 0 1-.366.099Zm-.036-.21a.436.436 0 0 0 .357-.157c.086-.105.129-.249.129-.431 0-.18-.043-.321-.129-.424a.44.44 0 0 0-.357-.155.445.445 0 0 0-.36.158c-.088.105-.132.248-.132.43 0 .178.044.319.132.423a.447.447 0 0 0 .36.156ZM84.447 105.132v-.21c.216-.178.397-.334.542-.468.145-.134.261-.253.348-.357.087-.104.149-.199.186-.286a.654.654 0 0 0 .055-.257.381.381 0 0 0-.111-.291.427.427 0 0 0-.306-.105.458.458 0 0 0-.324.114.517.517 0 0 0-.15.327h-.258a.722.722 0 0 1 .227-.475c.131-.121.305-.182.523-.182.202 0 .363.054.483.162.12.108.18.256.18.444a.85.85 0 0 1-.058.306 1.236 1.236 0 0 1-.192.321 3.477 3.477 0 0 1-.351.371 9.23 9.23 0 0 1-.539.457l-.057-.087h1.233v.216h-1.431Z" style="fill:#fff;fill-rule:nonzero"/>
							</g>
							<path d="M80.56 97.668h.924v.616h-.924zM80.56 94.587h.924v.616h-.924z" style="fill:none"/>
							<path d="M79.417 93.753a.317.317 0 0 0-.089.218v2.157h5.545v-2.157a.314.314 0 0 0-.09-.218.301.301 0 0 0-.218-.09h-4.929a.305.305 0 0 0-.219.09Zm1.143.834h.924v.617h-.924v-.617ZM79.328 98.9c0 .08.034.16.089.219a.322.322 0 0 0 .219.089h4.929c.083 0 .16-.034.218-.089a.324.324 0 0 0 .09-.219v-2.156h-5.545V98.9Zm1.232-1.232h.924v.616h-.924v-.616Z" style="fill:#fff;fill-rule:nonzero"/>
						</g>
						<g>
							<path d="M109.041 91.801v16.161a.898.898 0 0 1-.898.898H94.984a.898.898 0 0 1-.897-.898V91.801c0-.495.402-.897.897-.897h13.159c.496 0 .898.402.898.897Z" style="fill:#fff;fill-opacity:.2"/>
							<g>
								<path d="m97.435 105.132.834-2.16h.216l-.813 2.16h-.237Zm1.716 0-.813-2.16h.231l.834 2.16h-.252Zm-1.302-.873h1.128v.216h-1.128v-.216ZM100.507 105.159a.608.608 0 0 1-.363-.105.527.527 0 0 1-.201-.297l.048-.006v.996h-.24v-2.145h.225v.357l-.033-.009a.5.5 0 0 1 .216-.277.676.676 0 0 1 .369-.101c.136 0 .254.033.355.099.101.066.18.158.236.276a.956.956 0 0 1 .084.414c0 .16-.029.3-.087.42a.663.663 0 0 1-.243.279.668.668 0 0 1-.366.099Zm-.036-.21a.436.436 0 0 0 .357-.157c.086-.105.129-.249.129-.431 0-.18-.043-.321-.129-.424a.44.44 0 0 0-.357-.155.445.445 0 0 0-.36.158c-.088.105-.132.248-.132.43 0 .178.044.319.132.423a.447.447 0 0 0 .36.156ZM102.325 105.159a.608.608 0 0 1-.363-.105.527.527 0 0 1-.201-.297l.048-.006v.996h-.24v-2.145h.225v.357l-.033-.009a.5.5 0 0 1 .216-.277.676.676 0 0 1 .369-.101c.136 0 .254.033.355.099.101.066.18.158.236.276a.956.956 0 0 1 .084.414c0 .16-.029.3-.087.42a.663.663 0 0 1-.243.279.668.668 0 0 1-.366.099Zm-.036-.21a.436.436 0 0 0 .357-.157c.086-.105.129-.249.129-.431 0-.18-.043-.321-.129-.424a.44.44 0 0 0-.357-.155.445.445 0 0 0-.36.158c-.088.105-.132.248-.132.43 0 .178.044.319.132.423a.447.447 0 0 0 .36.156ZM104.635 105.162a.86.86 0 0 1-.38-.079.653.653 0 0 1-.264-.233.828.828 0 0 1-.124-.369h.258c.022.15.077.265.165.345.088.08.204.12.348.12a.455.455 0 0 0 .321-.108.38.38 0 0 0 .117-.294.443.443 0 0 0-.114-.316.4.4 0 0 0-.306-.122h-.27v-.21h.261a.38.38 0 0 0 .277-.1.359.359 0 0 0 .104-.269.344.344 0 0 0-.11-.273.431.431 0 0 0-.295-.096.474.474 0 0 0-.312.107.445.445 0 0 0-.153.304h-.261a.649.649 0 0 1 .37-.549.819.819 0 0 1 .362-.078c.13 0 .245.023.345.069a.528.528 0 0 1 .318.495.493.493 0 0 1-.257.453.547.547 0 0 1-.271.066l-.018-.063c.122 0 .227.026.316.077.089.051.158.12.207.208.049.088.074.19.074.306a.569.569 0 0 1-.339.533.842.842 0 0 1-.369.076Z" style="fill:#fff;fill-rule:nonzero"/>
							</g>
							<path d="M100.023 97.668h.924v.616h-.924zM100.023 94.587h.924v.616h-.924z" style="fill:none"/>
							<path d="M98.88 93.753a.317.317 0 0 0-.089.218v2.157h5.545v-2.157a.305.305 0 0 0-.308-.308h-4.929a.305.305 0 0 0-.219.09Zm1.143.834h.924v.617h-.924v-.617ZM98.791 98.9c0 .08.034.16.089.219a.322.322 0 0 0 .219.089h4.929c.083 0 .16-.034.219-.089a.328.328 0 0 0 .089-.219v-2.156h-5.545V98.9Zm1.232-1.232h.924v.616h-.924v-.616Z" style="fill:#fff;fill-rule:nonzero"/>
						</g>
					</g>
					<g>
						<g>
							<path d="M63.621 112.828h17.406v4.933H63.621z" style="fill:#fe9833"/>
							<g>
								<path d="m65.795 116.36.759-2.43h.21l-.759 2.43h-.21ZM67.484 116.21a.714.714 0 0 1-.45-.131.51.51 0 0 1-.192-.37h.231a.32.32 0 0 0 .129.225.482.482 0 0 0 .288.078c.106 0 .189-.02.249-.06.06-.04.09-.097.09-.171a.203.203 0 0 0-.051-.137c-.034-.039-.102-.071-.204-.097l-.246-.063a.638.638 0 0 1-.315-.167.379.379 0 0 1-.105-.268c0-.132.049-.237.147-.314a.629.629 0 0 1 .399-.115c.166 0 .301.04.405.12.104.08.163.191.177.333h-.231a.279.279 0 0 0-.114-.189.416.416 0 0 0-.246-.066.4.4 0 0 0-.228.055.18.18 0 0 0-.081.158c0 .052.019.097.058.135.039.038.105.07.197.096l.24.066a.657.657 0 0 1 .321.174.401.401 0 0 1 .108.282.366.366 0 0 1-.153.313c-.102.075-.243.113-.423.113ZM68.384 116.18v-1.53h.225v.39h.015v1.14h-.24Zm.24-.798-.039-.363a.53.53 0 0 1 .192-.297.52.52 0 0 1 .42-.09v.231a.136.136 0 0 0-.042-.008l-.066-.001c-.152 0-.268.045-.347.136-.079.091-.118.222-.118.392ZM69.956 116.18l-.633-1.53h.258l.528 1.368h-.096l.525-1.368h.246l-.633 1.53h-.195ZM70.787 116.36l.759-2.43h.21l-.759 2.43h-.21ZM72.341 116.18l-.468-1.53h.243l.36 1.311h-.06l.432-1.311h.195l.435 1.311h-.06l.429-1.311h.195l.435 1.311h-.06l.432-1.311h.195l.435 1.311h-.06l.432-1.311h.195l.435 1.311h-.06l.432-1.311h.195l.435 1.311h-.06l.357-1.311h.231l-.468 1.53h-.195l-.432-1.281h.063l-.438 1.281h-.195l-.432-1.281h.063l-.438 1.281h-.195l-.432-1.281h.063l-.438 1.281h-.195l-.432-1.281h.066l-.438 1.281h-.195l-.432-1.281h.063l-.438 1.281h-.195ZM78.056 116.36l.759-2.43h.21l-.759 2.43h-.21Z" style="fill:#fff;fill-rule:nonzero"/>
							</g>
						</g>
						<g>
							<path d="M83.008 112.828h17.406v4.933H83.008z" style="fill:#fe9833"/>
							<g>
								<path d="M85.837 116.18v-.216h.579c.18 0 .335-.037.465-.11a.746.746 0 0 0 .3-.307.965.965 0 0 0 .105-.459.924.924 0 0 0-.105-.45.729.729 0 0 0-.298-.297.968.968 0 0 0-.467-.105h-.579v-.216h.579c.226 0 .423.044.591.133a.964.964 0 0 1 .392.375c.093.161.139.35.139.566 0 .216-.047.405-.141.568a.988.988 0 0 1-.391.381 1.21 1.21 0 0 1-.587.137h-.582Zm-.147 0v-2.16h.246v2.16h-.246ZM88.108 116.18v-.204h.69a.446.446 0 0 0 .315-.108.377.377 0 0 0 .117-.291.41.41 0 0 0-.123-.312.459.459 0 0 0-.33-.117h-.669v-.198h.636a.47.47 0 0 0 .318-.099.35.35 0 0 0 .114-.279c0-.112-.035-.198-.106-.258s-.175-.09-.311-.09h-.651v-.204h.672c.198 0 .355.047.47.141a.47.47 0 0 1 .172.384.538.538 0 0 1-.069.273.492.492 0 0 1-.189.187.554.554 0 0 1-.276.068l.015-.063a.567.567 0 0 1 .503.289.603.603 0 0 1 .076.305.55.55 0 0 1-.082.301.55.55 0 0 1-.233.203.795.795 0 0 1-.348.072h-.711Zm-.162 0v-2.16h.246v2.16h-.246ZM91.534 116.795v-.972l.045.009a.518.518 0 0 1-.208.276.634.634 0 0 1-.362.102.661.661 0 0 1-.361-.098.649.649 0 0 1-.24-.276.95.95 0 0 1-.086-.415c0-.16.029-.3.087-.42a.663.663 0 0 1 .243-.279.668.668 0 0 1 .366-.099c.144 0 .265.035.363.105.098.07.165.169.201.297l-.033.006v-.381h.225v2.145h-.24Zm-.48-.795a.445.445 0 0 0 .362-.158c.087-.105.13-.248.13-.43a.634.634 0 0 0-.132-.423.447.447 0 0 0-.36-.156.438.438 0 0 0-.357.156c-.086.104-.129.248-.129.432 0 .18.043.321.129.424a.44.44 0 0 0 .357.155ZM92.752 116.21a.565.565 0 0 1-.267-.062.451.451 0 0 1-.183-.174.501.501 0 0 1-.066-.259v-1.065h.24v1.002c0 .116.029.203.086.261.057.058.138.087.244.087a.475.475 0 0 0 .431-.251.557.557 0 0 0 .064-.271l.039.363a.59.59 0 0 1-.234.27.656.656 0 0 1-.354.099Zm.564-.03v-.36h-.015v-1.17h.24v1.53h-.225ZM94.642 116.21a.723.723 0 0 1-.651-.387.866.866 0 0 1-.096-.414.87.87 0 0 1 .095-.413.68.68 0 0 1 .265-.277.77.77 0 0 1 .393-.099c.142 0 .266.031.371.093a.625.625 0 0 1 .243.261.863.863 0 0 1 .085.396l-.001.057a.499.499 0 0 1-.008.06h-1.263v-.201h1.116l-.078.111c0-.184-.04-.326-.121-.425a.42.42 0 0 0-.344-.148.466.466 0 0 0-.367.157.619.619 0 0 0-.14.425c0 .182.047.327.14.436a.465.465 0 0 0 .373.164.504.504 0 0 0 .258-.065.378.378 0 0 0 .162-.184h.228a.66.66 0 0 1-.25.331.703.703 0 0 1-.41.122ZM95.707 116.18v-1.53h.225v.39h.015v1.14h-.24Zm.24-.798-.039-.363a.53.53 0 0 1 .192-.297.52.52 0 0 1 .42-.09v.231a.136.136 0 0 0-.042-.008l-.066-.001c-.152 0-.267.045-.346.136-.079.091-.119.222-.119.392ZM96.964 116.795l.342-.795.054-.084.501-1.266h.246l-.888 2.145h-.255Zm.369-.6-.687-1.545h.264l.591 1.383-.168.162Z" style="fill:#fff;fill-rule:nonzero"/>
							</g>
						</g>
					</g>
				</g>
				<g>
					<path d="M78.903 138.503v49.833a3.4 3.4 0 0 1-3.398 3.398H22.366a3.4 3.4 0 0 1-3.397-3.398v-49.833a3.398 3.398 0 0 1 3.397-3.397h53.139a3.4 3.4 0 0 1 3.398 3.397Z" style="fill:none;stroke:#fe9833;stroke-width:.29px;stroke-linecap:round;stroke-miterlimit:1.5;stroke-dasharray:.86,.86,0,0,0,0"/>
					<g>
						<g>
							<g>
								<path d="M58.78 146.229v15.801c0 .594-.483 1.077-1.077 1.077H40.016a1.078 1.078 0 0 1-1.078-1.077v-15.801c0-.595.483-1.078 1.078-1.078h17.687c.594 0 1.077.483 1.077 1.078Z" style="fill:#fff;fill-opacity:.2"/>
								<g>
									<path d="M43.973 159.41c-.22 0-.411-.045-.573-.135a.933.933 0 0 1-.375-.38 1.196 1.196 0 0 1-.132-.577c0-.222.044-.418.131-.587a.989.989 0 0 1 .363-.397.994.994 0 0 1 .535-.144c.158 0 .302.03.431.09s.235.143.318.249a.74.74 0 0 1 .151.369h-.246a.51.51 0 0 0-.205-.354.712.712 0 0 0-.44-.132.755.755 0 0 0-.414.112.75.75 0 0 0-.274.314 1.075 1.075 0 0 0-.098.474c0 .182.034.338.101.469a.701.701 0 0 0 .291.302c.127.07.279.105.457.105a.95.95 0 0 0 .327-.053.749.749 0 0 0 .261-.163l.246.09c-.11.116-.236.203-.379.261a1.257 1.257 0 0 1-.476.087Zm.609-.348v-.699l.093.093h-.684v-.216h.837v.822h-.246ZM45.278 157.22h.24v2.16h-.24zM46.496 159.41a.565.565 0 0 1-.267-.062.451.451 0 0 1-.183-.174.501.501 0 0 1-.066-.259v-1.065h.24v1.002c0 .116.029.203.086.261.057.058.138.087.244.087a.475.475 0 0 0 .431-.251.557.557 0 0 0 .064-.271l.039.363a.59.59 0 0 1-.234.27.656.656 0 0 1-.354.099Zm.564-.03v-.36h-.015v-1.17h.24v1.53h-.225ZM48.278 159.41a.714.714 0 0 1-.45-.131.51.51 0 0 1-.192-.37h.231a.32.32 0 0 0 .129.225.482.482 0 0 0 .288.078c.106 0 .189-.02.249-.06.06-.04.09-.097.09-.171a.203.203 0 0 0-.051-.137c-.034-.039-.102-.071-.204-.097l-.246-.063a.638.638 0 0 1-.315-.167.379.379 0 0 1-.105-.268c0-.132.049-.237.147-.314a.629.629 0 0 1 .399-.115c.166 0 .301.04.405.12.104.08.163.191.177.333h-.231a.279.279 0 0 0-.114-.189.416.416 0 0 0-.246-.066.4.4 0 0 0-.228.055.18.18 0 0 0-.081.158c0 .052.02.097.059.135.039.038.104.07.196.096l.24.066a.657.657 0 0 1 .321.174.401.401 0 0 1 .108.282.366.366 0 0 1-.153.313c-.102.075-.243.113-.423.113ZM49.79 159.407c-.17 0-.293-.039-.37-.116-.077-.077-.116-.188-.116-.334v-1.464l.24-.09v1.551c0 .086.022.149.066.189.044.04.116.06.216.06a.62.62 0 0 0 .104-.008.302.302 0 0 0 .07-.019v.204a.375.375 0 0 1-.085.019.938.938 0 0 1-.125.008Zm-.801-1.353v-.204H50v.204h-1.011ZM50.903 159.41a.723.723 0 0 1-.651-.387.866.866 0 0 1-.096-.414.87.87 0 0 1 .095-.413.68.68 0 0 1 .265-.277.77.77 0 0 1 .393-.099c.142 0 .266.031.371.093a.625.625 0 0 1 .243.261.863.863 0 0 1 .085.396l-.001.057a.499.499 0 0 1-.008.06h-1.263v-.201h1.116l-.078.111c0-.184-.04-.326-.121-.425a.42.42 0 0 0-.344-.148.466.466 0 0 0-.367.157.619.619 0 0 0-.14.425c0 .182.047.327.14.436a.465.465 0 0 0 .373.164.504.504 0 0 0 .258-.065.378.378 0 0 0 .162-.184h.228a.66.66 0 0 1-.25.331.703.703 0 0 1-.41.122ZM51.968 159.38v-1.53h.225v.39h.015v1.14h-.24Zm.24-.798-.039-.363a.53.53 0 0 1 .192-.297.52.52 0 0 1 .42-.09v.231a.136.136 0 0 0-.042-.008l-.066-.001c-.152 0-.267.045-.346.136-.079.091-.119.222-.119.392ZM54.128 159.38v-1.914l.063.015a.453.453 0 0 1-.138.162 1.1 1.1 0 0 1-.51.222v-.231a1.058 1.058 0 0 0 .5-.23.57.57 0 0 0 .148-.184h.177v2.16h-.24Z" style="fill:#fff;fill-rule:nonzero"/>
								</g>
								<path d="m46.984 150.383-.6 2.4v-3h5.1v-.9a.29.29 0 0 0-.087-.21.3.3 0 0 0-.213-.09h-2.277l-.6-.6h-2.223a.305.305 0 0 0-.213.09.29.29 0 0 0-.087.21v4.8a.297.297 0 0 0 .3.3h4.866a.288.288 0 0 0 .183-.063.312.312 0 0 0 .108-.162l.693-2.775h-4.95Z" style="fill:#fff;fill-rule:nonzero"/>
							</g>
							<g>
								<path d="M43.886 170.272v15.801c0 .594-.483 1.077-1.078 1.077H25.121a1.078 1.078 0 0 1-1.077-1.077v-15.801c0-.595.483-1.078 1.077-1.078h17.687c.595 0 1.078.483 1.078 1.078Z" style="fill:#fff;fill-opacity:.2"/>
								<g>
									<path d="M29.079 183.453c-.22 0-.411-.045-.573-.135a.933.933 0 0 1-.375-.38 1.196 1.196 0 0 1-.132-.577c0-.222.043-.418.13-.587a.989.989 0 0 1 .363-.397.998.998 0 0 1 .536-.144c.158 0 .301.03.43.09s.235.143.318.249a.74.74 0 0 1 .152.369h-.246a.512.512 0 0 0-.206-.354.709.709 0 0 0-.439-.132.755.755 0 0 0-.414.112.752.752 0 0 0-.275.314 1.075 1.075 0 0 0-.097.474c0 .182.033.338.1.469a.701.701 0 0 0 .291.302c.127.07.28.105.458.105a.95.95 0 0 0 .327-.053.749.749 0 0 0 .261-.163l.246.09c-.11.116-.237.203-.38.261a1.252 1.252 0 0 1-.475.087Zm.609-.348v-.699l.093.093h-.684v-.216h.837v.822h-.246ZM30.384 181.263h.24v2.16h-.24zM31.602 183.453a.565.565 0 0 1-.267-.062.451.451 0 0 1-.183-.174.501.501 0 0 1-.066-.259v-1.065h.24v1.002c0 .116.028.203.085.261.057.058.139.087.245.087a.473.473 0 0 0 .43-.251.557.557 0 0 0 .065-.271l.039.363a.59.59 0 0 1-.234.27.656.656 0 0 1-.354.099Zm.564-.03v-.36h-.015v-1.17h.24v1.53h-.225ZM33.384 183.453a.714.714 0 0 1-.45-.131.51.51 0 0 1-.192-.37h.231a.32.32 0 0 0 .129.225.482.482 0 0 0 .288.078c.106 0 .189-.02.249-.06.06-.04.09-.097.09-.171a.203.203 0 0 0-.051-.137c-.034-.039-.102-.071-.204-.097l-.246-.063a.638.638 0 0 1-.315-.167.379.379 0 0 1-.105-.268c0-.132.049-.237.147-.314a.629.629 0 0 1 .399-.115c.166 0 .301.04.405.12.104.08.163.191.177.333h-.231a.279.279 0 0 0-.114-.189.416.416 0 0 0-.246-.066.4.4 0 0 0-.228.055.18.18 0 0 0-.081.158c0 .052.019.097.058.135.039.038.105.07.197.096l.24.066a.657.657 0 0 1 .321.174.401.401 0 0 1 .108.282.366.366 0 0 1-.153.313c-.102.075-.243.113-.423.113ZM34.896 183.45c-.17 0-.294-.039-.371-.116-.077-.077-.115-.188-.115-.334v-1.464l.24-.09v1.551c0 .086.022.149.066.189.044.04.116.06.216.06.04 0 .074-.003.103-.008a.312.312 0 0 0 .071-.019v.204a.386.386 0 0 1-.086.019.923.923 0 0 1-.124.008Zm-.801-1.353v-.204h1.011v.204h-1.011ZM36.009 183.453a.723.723 0 0 1-.651-.387.866.866 0 0 1-.096-.414.87.87 0 0 1 .094-.413.683.683 0 0 1 .266-.277.77.77 0 0 1 .393-.099c.142 0 .265.031.37.093a.625.625 0 0 1 .243.261.863.863 0 0 1 .077.513h-1.263v-.201h1.116l-.078.111c0-.184-.041-.326-.122-.425a.417.417 0 0 0-.343-.148.468.468 0 0 0-.368.157.618.618 0 0 0-.139.425c0 .182.046.327.139.436a.467.467 0 0 0 .374.164.504.504 0 0 0 .258-.065.378.378 0 0 0 .162-.184h.228a.663.663 0 0 1-.251.331.7.7 0 0 1-.409.122ZM37.074 183.423v-1.53h.225v.39h.015v1.14h-.24Zm.24-.798-.039-.363a.53.53 0 0 1 .192-.297.52.52 0 0 1 .42-.09v.231a.136.136 0 0 0-.042-.008l-.066-.001c-.152 0-.268.045-.347.136-.079.091-.118.222-.118.392ZM39.234 183.423v-1.914l.063.015a.453.453 0 0 1-.138.162 1.109 1.109 0 0 1-.51.222v-.231a1.058 1.058 0 0 0 .499-.23.573.573 0 0 0 .149-.184h.177v2.16h-.24Z" style="fill:#fff;fill-rule:nonzero"/>
								</g>
								<path d="m32.09 174.426-.6 2.4v-3h5.1v-.9a.29.29 0 0 0-.087-.21.3.3 0 0 0-.213-.09h-2.277l-.6-.6H31.19a.305.305 0 0 0-.213.09.29.29 0 0 0-.087.21v4.8a.297.297 0 0 0 .3.3h4.866a.288.288 0 0 0 .183-.063.312.312 0 0 0 .108-.162l.693-2.775h-4.95Z" style="fill:#fff;fill-rule:nonzero"/>
							</g>
							<g>
								<path d="M73.601 170.272v15.801c0 .594-.482 1.077-1.077 1.077H54.837a1.078 1.078 0 0 1-1.078-1.077v-15.801c0-.595.483-1.078 1.078-1.078h17.687c.595 0 1.077.483 1.077 1.078Z" style="fill:#fff;fill-opacity:.2"/>
								<g>
									<path d="M58.794 183.453c-.22 0-.411-.045-.573-.135a.933.933 0 0 1-.375-.38 1.196 1.196 0 0 1-.132-.577c0-.222.044-.418.131-.587a.989.989 0 0 1 .363-.397.994.994 0 0 1 .535-.144c.158 0 .302.03.431.09s.235.143.318.249a.74.74 0 0 1 .151.369h-.246a.51.51 0 0 0-.205-.354.712.712 0 0 0-.44-.132.755.755 0 0 0-.414.112.75.75 0 0 0-.274.314 1.075 1.075 0 0 0-.098.474c0 .182.034.338.101.469a.701.701 0 0 0 .291.302c.127.07.279.105.457.105a.95.95 0 0 0 .327-.053.749.749 0 0 0 .261-.163l.246.09c-.11.116-.236.203-.379.261a1.257 1.257 0 0 1-.476.087Zm.609-.348v-.699l.093.093h-.684v-.216h.837v.822h-.246ZM60.099 181.263h.24v2.16h-.24zM61.317 183.453a.565.565 0 0 1-.267-.062.451.451 0 0 1-.183-.174.501.501 0 0 1-.066-.259v-1.065h.24v1.002c0 .116.029.203.086.261.057.058.138.087.244.087a.475.475 0 0 0 .431-.251.557.557 0 0 0 .064-.271l.039.363a.59.59 0 0 1-.234.27.656.656 0 0 1-.354.099Zm.564-.03v-.36h-.015v-1.17h.24v1.53h-.225ZM63.099 183.453a.714.714 0 0 1-.45-.131.51.51 0 0 1-.192-.37h.231a.32.32 0 0 0 .129.225.482.482 0 0 0 .288.078c.106 0 .189-.02.249-.06.06-.04.09-.097.09-.171a.203.203 0 0 0-.051-.137c-.034-.039-.102-.071-.204-.097l-.246-.063a.638.638 0 0 1-.315-.167.379.379 0 0 1-.105-.268c0-.132.049-.237.147-.314a.629.629 0 0 1 .399-.115c.166 0 .301.04.405.12.104.08.163.191.177.333h-.231a.279.279 0 0 0-.114-.189.416.416 0 0 0-.246-.066.4.4 0 0 0-.228.055.18.18 0 0 0-.081.158c0 .052.02.097.059.135.039.038.104.07.196.096l.24.066a.657.657 0 0 1 .321.174.401.401 0 0 1 .108.282.366.366 0 0 1-.153.313c-.102.075-.243.113-.423.113ZM64.611 183.45c-.17 0-.293-.039-.37-.116-.077-.077-.116-.188-.116-.334v-1.464l.24-.09v1.551c0 .086.022.149.066.189.044.04.116.06.216.06a.62.62 0 0 0 .104-.008.302.302 0 0 0 .07-.019v.204a.375.375 0 0 1-.085.019.938.938 0 0 1-.125.008Zm-.801-1.353v-.204h1.011v.204H63.81ZM65.724 183.453a.723.723 0 0 1-.651-.387.866.866 0 0 1-.096-.414.87.87 0 0 1 .095-.413.68.68 0 0 1 .265-.277.77.77 0 0 1 .393-.099c.142 0 .266.031.371.093a.625.625 0 0 1 .243.261.863.863 0 0 1 .085.396l-.001.057a.499.499 0 0 1-.008.06h-1.263v-.201h1.116l-.078.111c0-.184-.04-.326-.121-.425a.42.42 0 0 0-.344-.148.466.466 0 0 0-.367.157.619.619 0 0 0-.14.425c0 .182.047.327.14.436a.465.465 0 0 0 .373.164.504.504 0 0 0 .258-.065.378.378 0 0 0 .162-.184h.228a.66.66 0 0 1-.25.331.703.703 0 0 1-.41.122ZM66.789 183.423v-1.53h.225v.39h.015v1.14h-.24Zm.24-.798-.039-.363a.53.53 0 0 1 .192-.297.52.52 0 0 1 .42-.09v.231a.136.136 0 0 0-.042-.008l-.066-.001c-.152 0-.267.045-.346.136-.079.091-.119.222-.119.392ZM68.949 183.423v-1.914l.063.015a.453.453 0 0 1-.138.162 1.1 1.1 0 0 1-.51.222v-.231a1.058 1.058 0 0 0 .5-.23.57.57 0 0 0 .148-.184h.177v2.16h-.24Z" style="fill:#fff;fill-rule:nonzero"/>
								</g>
								<path d="m61.805 174.426-.6 2.4v-3h5.1v-.9a.29.29 0 0 0-.087-.21.3.3 0 0 0-.213-.09h-2.277l-.6-.6h-2.223a.305.305 0 0 0-.213.09.29.29 0 0 0-.087.21v4.8a.297.297 0 0 0 .3.3h4.866a.288.288 0 0 0 .183-.063.312.312 0 0 0 .108-.162l.693-2.775h-4.95Z" style="fill:#fff;fill-rule:nonzero"/>
							</g>
						</g>
						<g>
							<path d="m42.402 165.395 1.484-3.008-3.297.619 1.813 2.389ZM37.261 169.296l-3.296.618 1.483-3.008 1.813 2.39Z" style="fill:#fe9833"/>
							<path d="m41.974 163.838-6.097 4.626" style="fill:none;stroke:#fe9833;stroke-width:.5px;stroke-linejoin:miter;stroke-miterlimit:1.5"/>
							<path d="m51.239 179.672 3-1.5-3-1.5v3ZM46.406 179.672l-3-1.5 3-1.5v3Z" style="fill:#fe9833"/>
							<path d="M51.839 178.172h-6.033" style="fill:none;stroke:#fe9833;stroke-width:.5px;stroke-linejoin:miter;stroke-miterlimit:1.5"/>
							<path d="m57.065 163.194-3.306-.567 1.53 2.985 1.776-2.418ZM62.151 166.929l1.529 2.985-3.305-.567 1.776-2.418Z" style="fill:#fe9833"/>
							<path d="m55.694 164.048 6.052 4.445" style="fill:none;stroke:#fe9833;stroke-width:.5px;stroke-linejoin:miter;stroke-miterlimit:1.5"/>
						</g>
					</g>
					<g>
						<path d="M24.854 140.63a.868.868 0 0 1-.43-.102.699.699 0 0 1-.281-.284.902.902 0 0 1-.099-.433c0-.167.032-.314.098-.44a.74.74 0 0 1 .272-.298.746.746 0 0 1 .402-.108c.118 0 .226.022.322.067a.634.634 0 0 1 .239.187c.062.079.1.172.114.277h-.185a.383.383 0 0 0-.154-.266.535.535 0 0 0-.33-.099.567.567 0 0 0-.31.084.565.565 0 0 0-.206.236.8.8 0 0 0-.073.355c0 .137.025.254.075.352.05.098.123.174.218.226a.7.7 0 0 0 .344.079.72.72 0 0 0 .245-.039.573.573 0 0 0 .196-.123l.184.068a.789.789 0 0 1-.285.195.929.929 0 0 1-.356.066Zm.457-.261v-.525l.069.07h-.513v-.162h.628v.617h-.184ZM25.833 138.987h.18v1.62h-.18zM26.746 140.63a.419.419 0 0 1-.2-.047.33.33 0 0 1-.137-.13.377.377 0 0 1-.05-.195v-.798h.18v.751c0 .087.021.152.064.196.043.043.104.065.184.065a.367.367 0 0 0 .191-.049.358.358 0 0 0 .131-.139.41.41 0 0 0 .049-.203l.029.272a.44.44 0 0 1-.175.202.49.49 0 0 1-.266.075Zm.423-.023v-.27h-.011v-.877h.18v1.147h-.169ZM28.083 140.63a.539.539 0 0 1-.338-.098.384.384 0 0 1-.144-.278h.173c.011.073.043.13.097.169a.361.361 0 0 0 .216.058c.08 0 .142-.015.187-.045a.145.145 0 0 0 .067-.128.151.151 0 0 0-.038-.103c-.025-.029-.076-.053-.153-.073l-.184-.047a.485.485 0 0 1-.237-.125.285.285 0 0 1-.078-.201.28.28 0 0 1 .11-.235.469.469 0 0 1 .299-.087c.125 0 .226.03.304.09.078.06.122.143.133.25h-.174a.208.208 0 0 0-.085-.142.314.314 0 0 0-.185-.049.3.3 0 0 0-.171.041.135.135 0 0 0-.06.118.14.14 0 0 0 .043.102.37.37 0 0 0 .148.072l.18.049a.496.496 0 0 1 .241.131.3.3 0 0 1 .081.211.276.276 0 0 1-.115.235.528.528 0 0 1-.317.085ZM29.217 140.627c-.128 0-.221-.029-.278-.086-.058-.058-.087-.142-.087-.251v-1.098l.18-.068v1.164c0 .064.017.111.05.141.033.03.087.045.162.045.03 0 .055-.002.077-.005a.23.23 0 0 0 .053-.015v.153a.288.288 0 0 1-.064.015.87.87 0 0 1-.093.005Zm-.601-1.014v-.153h.758v.153h-.758ZM30.051 140.63a.54.54 0 0 1-.488-.291.648.648 0 0 1-.072-.31.66.66 0 0 1 .071-.31.518.518 0 0 1 .199-.208.585.585 0 0 1 .295-.074c.106 0 .199.023.278.07a.473.473 0 0 1 .182.196.644.644 0 0 1 .064.297l-.001.042a.4.4 0 0 1-.006.045h-.947v-.15h.837l-.058.083a.493.493 0 0 0-.092-.319.312.312 0 0 0-.257-.111.35.35 0 0 0-.276.118.463.463 0 0 0-.104.319c0 .136.034.245.104.327a.35.35 0 0 0 .28.123.383.383 0 0 0 .194-.049.281.281 0 0 0 .121-.138h.171a.489.489 0 0 1-.188.248.523.523 0 0 1-.307.092ZM30.85 140.607v-1.147h.169v.292h.011v.855h-.18Zm.18-.598-.029-.273a.398.398 0 0 1 .144-.222.39.39 0 0 1 .315-.068v.173a.09.09 0 0 0-.032-.005l-.049-.001c-.114 0-.201.034-.26.102a.436.436 0 0 0-.089.294ZM31.707 140.607v-1.62h.185v1.62h-.185Zm.095-.695v-.162h.873v.162h-.873Zm0-.763v-.162h.936v.162h-.936ZM33.512 140.627c-.189 0-.34-.046-.451-.139a.576.576 0 0 1-.197-.398h.18a.413.413 0 0 0 .142.281.502.502 0 0 0 .324.094.439.439 0 0 0 .264-.066c.059-.044.089-.109.089-.195a.244.244 0 0 0-.061-.175.432.432 0 0 0-.189-.108l-.272-.095a.78.78 0 0 1-.306-.174.358.358 0 0 1-.099-.26.395.395 0 0 1 .25-.376.66.66 0 0 1 .276-.054.58.58 0 0 1 .39.127.527.527 0 0 1 .168.362h-.18a.404.404 0 0 0-.12-.248.392.392 0 0 0-.262-.079.42.42 0 0 0-.252.066.214.214 0 0 0-.09.184c0 .068.021.122.063.162a.515.515 0 0 0 .196.106l.29.101a.63.63 0 0 1 .283.177.42.42 0 0 1 .095.282c0 .135-.046.24-.139.314-.092.074-.223.111-.392.111ZM35.222 140.63a.508.508 0 0 1-.28-.078.543.543 0 0 1-.194-.214.664.664 0 0 1-.071-.309.64.64 0 0 1 .071-.306.536.536 0 0 1 .194-.209.512.512 0 0 1 .278-.077c.085 0 .162.017.23.05a.442.442 0 0 1 .253.353h-.166a.31.31 0 0 0-.104-.18.305.305 0 0 0-.209-.07.337.337 0 0 0-.191.054.355.355 0 0 0-.126.153.555.555 0 0 0-.045.232c0 .088.015.166.045.234.03.067.072.12.127.157a.33.33 0 0 0 .192.057.312.312 0 0 0 .207-.069.3.3 0 0 0 .106-.179h.167a.484.484 0 0 1-.259.351.509.509 0 0 1-.225.05ZM35.967 138.987h.18v1.62h-.18zM36.88 140.63a.419.419 0 0 1-.2-.047.33.33 0 0 1-.137-.13.377.377 0 0 1-.05-.195v-.798h.18v.751c0 .087.021.152.064.196.043.043.104.065.184.065a.367.367 0 0 0 .191-.049.358.358 0 0 0 .131-.139.41.41 0 0 0 .049-.203l.029.272a.44.44 0 0 1-.175.202.49.49 0 0 1-.266.075Zm.423-.023v-.27h-.011v-.877h.18v1.147h-.169ZM38.217 140.63a.539.539 0 0 1-.338-.098.384.384 0 0 1-.144-.278h.173c.011.073.043.13.097.169a.361.361 0 0 0 .216.058c.08 0 .142-.015.187-.045a.145.145 0 0 0 .067-.128.151.151 0 0 0-.038-.103c-.025-.029-.076-.053-.153-.073l-.184-.047a.485.485 0 0 1-.237-.125.285.285 0 0 1-.078-.201.28.28 0 0 1 .11-.235.469.469 0 0 1 .299-.087c.125 0 .226.03.304.09.078.06.122.143.133.25h-.174a.208.208 0 0 0-.085-.142.314.314 0 0 0-.185-.049.3.3 0 0 0-.171.041.135.135 0 0 0-.06.118.14.14 0 0 0 .043.102.37.37 0 0 0 .148.072l.18.049a.496.496 0 0 1 .241.131.3.3 0 0 1 .081.211.276.276 0 0 1-.115.235.528.528 0 0 1-.317.085ZM39.351 140.627c-.128 0-.221-.029-.278-.086-.058-.058-.087-.142-.087-.251v-1.098l.18-.068v1.164c0 .064.017.111.05.141.033.03.087.045.162.045.03 0 .055-.002.077-.005a.23.23 0 0 0 .053-.015v.153a.288.288 0 0 1-.064.015.87.87 0 0 1-.093.005Zm-.601-1.014v-.153h.758v.153h-.758ZM40.185 140.63a.54.54 0 0 1-.488-.291.648.648 0 0 1-.072-.31.66.66 0 0 1 .071-.31.518.518 0 0 1 .199-.208.585.585 0 0 1 .295-.074c.106 0 .199.023.278.07a.473.473 0 0 1 .182.196.644.644 0 0 1 .064.297l-.001.042a.4.4 0 0 1-.006.045h-.947v-.15h.837l-.058.083a.493.493 0 0 0-.092-.319.312.312 0 0 0-.257-.111.35.35 0 0 0-.276.118.463.463 0 0 0-.104.319c0 .136.034.245.104.327a.35.35 0 0 0 .28.123.383.383 0 0 0 .194-.049.281.281 0 0 0 .121-.138h.171a.489.489 0 0 1-.188.248.523.523 0 0 1-.307.092ZM40.984 140.607v-1.147h.169v.292h.011v.855h-.18Zm.18-.598-.029-.273a.398.398 0 0 1 .144-.222.39.39 0 0 1 .315-.068v.173a.09.09 0 0 0-.032-.005l-.049-.001c-.114 0-.201.034-.26.102a.436.436 0 0 0-.089.294Z" style="fill:#fe9833;fill-rule:nonzero"/>
					</g>
				</g>
				<g>
					<path d="M145.022 138.506v49.864c0 1.876-1.524 3.4-3.4 3.4H88.488a3.402 3.402 0 0 1-3.4-3.4v-49.864c0-1.877 1.523-3.4 3.4-3.4h53.134c1.876 0 3.4 1.523 3.4 3.4Z" style="fill:none;stroke:#fe9833;stroke-width:.29px;stroke-linecap:round;stroke-miterlimit:1.5;stroke-dasharray:.86,.86,0,0,0,0"/>
					<g>
						<g>
							<g>
								<path d="M124.914 146.229v15.801c0 .594-.482 1.077-1.077 1.077H106.12a1.078 1.078 0 0 1-1.078-1.077v-15.801c0-.595.483-1.078 1.078-1.078h17.717c.595 0 1.077.483 1.077 1.078Z" style="fill:#fff;fill-opacity:.2"/>
								<g>
									<path d="M110.665 159.41c-.22 0-.411-.045-.573-.135a.933.933 0 0 1-.375-.38 1.196 1.196 0 0 1-.132-.577c0-.222.044-.418.131-.587a.989.989 0 0 1 .363-.397.994.994 0 0 1 .535-.144c.158 0 .302.03.431.09s.235.143.318.249a.74.74 0 0 1 .151.369h-.246a.51.51 0 0 0-.205-.354.712.712 0 0 0-.44-.132.755.755 0 0 0-.414.112.75.75 0 0 0-.274.314 1.075 1.075 0 0 0-.098.474c0 .182.034.338.101.469a.701.701 0 0 0 .291.302c.127.07.279.105.457.105a.95.95 0 0 0 .327-.053.749.749 0 0 0 .261-.163l.246.09c-.11.116-.236.203-.379.261a1.257 1.257 0 0 1-.476.087Zm.609-.348v-.699l.093.093h-.684v-.216h.837v.822h-.246ZM112.888 159.38a.735.735 0 0 1-.016-.117 2.508 2.508 0 0 1-.005-.168h-.015v-.732c0-.116-.026-.202-.079-.257-.053-.055-.139-.082-.257-.082a.484.484 0 0 0-.277.07.26.26 0 0 0-.116.2h-.231a.449.449 0 0 1 .186-.348.735.735 0 0 1 .447-.126c.19 0 .331.045.423.135.092.09.138.225.138.405v.735c0 .044.003.089.009.136.006.047.014.097.024.149h-.231Zm-.525.03a.57.57 0 0 1-.376-.116.388.388 0 0 1-.14-.316c0-.134.046-.238.138-.312a.871.871 0 0 1 .402-.156l.534-.09v.198l-.498.078a.6.6 0 0 0-.255.09.212.212 0 0 0-.087.183c0 .078.027.137.08.177.053.04.131.06.235.06a.552.552 0 0 0 .329-.092.28.28 0 0 0 .127-.238l.039.213a.412.412 0 0 1-.187.237.65.65 0 0 1-.341.084ZM113.548 157.22h.24v2.16h-.24zM114.895 159.41a.723.723 0 0 1-.651-.387.866.866 0 0 1-.096-.414.87.87 0 0 1 .095-.413.68.68 0 0 1 .265-.277.77.77 0 0 1 .393-.099c.142 0 .266.031.371.093a.625.625 0 0 1 .243.261.863.863 0 0 1 .085.396l-.001.057a.499.499 0 0 1-.008.06h-1.263v-.201h1.116l-.078.111c0-.184-.04-.326-.121-.425a.42.42 0 0 0-.344-.148.466.466 0 0 0-.367.157.619.619 0 0 0-.14.425c0 .182.047.327.14.436a.465.465 0 0 0 .373.164.504.504 0 0 0 .258-.065.378.378 0 0 0 .162-.184h.228a.66.66 0 0 1-.25.331.703.703 0 0 1-.41.122ZM115.96 159.38v-1.53h.225v.39h.015v1.14h-.24Zm.24-.798-.039-.363a.53.53 0 0 1 .192-.297.52.52 0 0 1 .42-.09v.231a.136.136 0 0 0-.042-.008l-.066-.001c-.152 0-.267.045-.346.136-.079.091-.119.222-.119.392ZM117.979 159.38a.735.735 0 0 1-.016-.117 2.508 2.508 0 0 1-.005-.168h-.015v-.732c0-.116-.026-.202-.079-.257-.053-.055-.139-.082-.257-.082a.484.484 0 0 0-.277.07.26.26 0 0 0-.116.2h-.231a.449.449 0 0 1 .186-.348.735.735 0 0 1 .447-.126c.19 0 .331.045.423.135.092.09.138.225.138.405v.735c0 .044.003.089.009.136.006.047.014.097.024.149h-.231Zm-.525.03a.57.57 0 0 1-.376-.116.388.388 0 0 1-.14-.316c0-.134.046-.238.138-.312a.871.871 0 0 1 .402-.156l.534-.09v.198l-.498.078a.6.6 0 0 0-.255.09.212.212 0 0 0-.087.183c0 .078.027.137.08.177.053.04.131.06.235.06a.552.552 0 0 0 .329-.092.28.28 0 0 0 .127-.238l.039.213a.412.412 0 0 1-.187.237.65.65 0 0 1-.341.084ZM119.674 159.38v-1.914l.063.015a.453.453 0 0 1-.138.162 1.1 1.1 0 0 1-.51.222v-.231a1.058 1.058 0 0 0 .5-.23.57.57 0 0 0 .148-.184h.177v2.16h-.24Z" style="fill:#fff;fill-rule:nonzero"/>
								</g>
								<ellipse cx="114.978" cy="149.033" rx="2.97" ry="1.485" style="fill:#fff"/>
								<path d="M117.948 149.693c0 .819-1.33 1.485-2.97 1.485-1.64 0-2.97-.666-2.97-1.485v.99c0 .819 1.33 1.485 2.97 1.485 1.64 0 2.97-.666 2.97-1.485v-.99Z" style="fill:#fff;fill-rule:nonzero"/>
								<path d="M117.948 152.333v-.99c0 .819-1.33 1.485-2.97 1.485-1.64 0-2.97-.666-2.97-1.485v.99c0 .819 1.33 1.485 2.97 1.485 1.64 0 2.97-.666 2.97-1.485Z" style="fill:#fff;fill-rule:nonzero"/>
							</g>
							<g>
								<path d="M110.104 170.472v15.801c0 .594-.483 1.077-1.078 1.077H91.309a1.077 1.077 0 0 1-1.077-1.077v-15.801c0-.595.482-1.078 1.077-1.078h17.717c.595 0 1.078.483 1.078 1.078Z" style="fill:#fff;fill-opacity:.2"/>
								<g>
									<path d="M95.623 183.653c-.22 0-.411-.045-.573-.135a.933.933 0 0 1-.375-.38 1.196 1.196 0 0 1-.132-.577c0-.222.044-.418.131-.587a.989.989 0 0 1 .363-.397.994.994 0 0 1 .535-.144c.158 0 .302.03.431.09s.235.143.318.249a.74.74 0 0 1 .151.369h-.246a.51.51 0 0 0-.205-.354.712.712 0 0 0-.44-.132.755.755 0 0 0-.414.112.75.75 0 0 0-.274.314 1.075 1.075 0 0 0-.098.474c0 .182.034.338.101.469a.701.701 0 0 0 .291.302c.127.07.279.105.457.105a.95.95 0 0 0 .327-.053.749.749 0 0 0 .261-.163l.246.09c-.11.116-.236.203-.379.261a1.257 1.257 0 0 1-.476.087Zm.609-.348v-.699l.093.093h-.684v-.216h.837v.822h-.246ZM97.846 183.623a.735.735 0 0 1-.016-.117 2.508 2.508 0 0 1-.005-.168h-.015v-.732c0-.116-.026-.202-.079-.257-.053-.055-.139-.082-.257-.082a.484.484 0 0 0-.277.07.26.26 0 0 0-.116.2h-.231a.449.449 0 0 1 .186-.348.735.735 0 0 1 .447-.126c.19 0 .331.045.423.135.092.09.138.225.138.405v.735c0 .044.003.089.009.136.006.047.014.097.024.149h-.231Zm-.525.03a.57.57 0 0 1-.376-.116.388.388 0 0 1-.14-.316c0-.134.046-.238.138-.312a.871.871 0 0 1 .402-.156l.534-.09v.198l-.498.078a.6.6 0 0 0-.255.09.212.212 0 0 0-.087.183c0 .078.027.137.08.177.053.04.131.06.235.06a.552.552 0 0 0 .329-.092.28.28 0 0 0 .127-.238l.039.213a.412.412 0 0 1-.187.237.65.65 0 0 1-.341.084ZM98.506 181.463h.24v2.16h-.24zM99.853 183.653a.723.723 0 0 1-.651-.387.866.866 0 0 1-.096-.414.87.87 0 0 1 .095-.413.68.68 0 0 1 .265-.277.77.77 0 0 1 .393-.099c.142 0 .266.031.371.093a.625.625 0 0 1 .243.261.863.863 0 0 1 .085.396l-.001.057a.499.499 0 0 1-.008.06h-1.263v-.201h1.116l-.078.111c0-.184-.04-.326-.121-.425a.42.42 0 0 0-.344-.148.466.466 0 0 0-.367.157.619.619 0 0 0-.14.425c0 .182.047.327.14.436a.465.465 0 0 0 .373.164.504.504 0 0 0 .258-.065.378.378 0 0 0 .162-.184h.228a.66.66 0 0 1-.25.331.703.703 0 0 1-.41.122ZM100.918 183.623v-1.53h.225v.39h.015v1.14h-.24Zm.24-.798-.039-.363a.53.53 0 0 1 .192-.297.52.52 0 0 1 .42-.09v.231a.136.136 0 0 0-.042-.008l-.066-.001c-.152 0-.267.045-.346.136-.079.091-.119.222-.119.392ZM102.937 183.623a.735.735 0 0 1-.016-.117 2.508 2.508 0 0 1-.005-.168h-.015v-.732c0-.116-.026-.202-.079-.257-.053-.055-.139-.082-.257-.082a.484.484 0 0 0-.277.07.26.26 0 0 0-.116.2h-.231a.449.449 0 0 1 .186-.348.735.735 0 0 1 .447-.126c.19 0 .331.045.423.135.092.09.138.225.138.405v.735c0 .044.003.089.009.136.006.047.014.097.024.149h-.231Zm-.525.03a.57.57 0 0 1-.376-.116.388.388 0 0 1-.14-.316c0-.134.046-.238.138-.312a.871.871 0 0 1 .402-.156l.534-.09v.198l-.498.078a.6.6 0 0 0-.255.09.212.212 0 0 0-.087.183c0 .078.027.137.08.177.053.04.131.06.235.06a.552.552 0 0 0 .329-.092.28.28 0 0 0 .127-.238l.039.213a.412.412 0 0 1-.187.237.65.65 0 0 1-.341.084ZM104.077 183.623v-.21c.216-.178.397-.334.542-.468.145-.134.261-.253.348-.357.087-.104.149-.2.186-.287a.649.649 0 0 0 .055-.256.381.381 0 0 0-.111-.291.427.427 0 0 0-.306-.105.458.458 0 0 0-.324.114.517.517 0 0 0-.15.327h-.258a.724.724 0 0 1 .227-.476c.131-.121.305-.181.523-.181.202 0 .363.054.483.162.12.108.18.256.18.444a.85.85 0 0 1-.058.306 1.236 1.236 0 0 1-.192.321 3.478 3.478 0 0 1-.351.37 9.205 9.205 0 0 1-.539.458l-.057-.087h1.233v.216h-1.431Z" style="fill:#fff;fill-rule:nonzero"/>
								</g>
								<ellipse cx="100.168" cy="173.276" rx="2.97" ry="1.485" style="fill:#fff"/>
								<path d="M103.138 173.936c0 .819-1.33 1.485-2.97 1.485-1.641 0-2.97-.666-2.97-1.485v.99c0 .819 1.329 1.485 2.97 1.485 1.64 0 2.97-.666 2.97-1.485v-.99Z" style="fill:#fff;fill-rule:nonzero"/>
								<path d="M103.138 176.576v-.99c0 .819-1.33 1.485-2.97 1.485-1.641 0-2.97-.666-2.97-1.485v.99c0 .819 1.329 1.485 2.97 1.485 1.64 0 2.97-.666 2.97-1.485Z" style="fill:#fff;fill-rule:nonzero"/>
							</g>
							<g>
								<path d="M139.696 170.472v15.801c0 .594-.483 1.077-1.078 1.077h-17.717a1.077 1.077 0 0 1-1.077-1.077v-15.801c0-.595.482-1.078 1.077-1.078h17.717c.595 0 1.078.483 1.078 1.078Z" style="fill:#fff;fill-opacity:.2"/>
								<g>
									<path d="M125.172 183.653c-.22 0-.411-.045-.573-.135a.933.933 0 0 1-.375-.38 1.196 1.196 0 0 1-.132-.577c0-.222.043-.418.13-.587a.989.989 0 0 1 .363-.397.998.998 0 0 1 .536-.144c.158 0 .301.03.43.09s.235.143.318.249a.74.74 0 0 1 .152.369h-.246a.512.512 0 0 0-.206-.354.709.709 0 0 0-.439-.132.755.755 0 0 0-.414.112.752.752 0 0 0-.275.314 1.075 1.075 0 0 0-.097.474c0 .182.033.338.1.469a.701.701 0 0 0 .291.302c.127.07.28.105.458.105a.95.95 0 0 0 .327-.053.749.749 0 0 0 .261-.163l.246.09c-.11.116-.237.203-.38.261a1.252 1.252 0 0 1-.475.087Zm.609-.348v-.699l.093.093h-.684v-.216h.837v.822h-.246ZM127.395 183.623a.728.728 0 0 1-.017-.117 2.607 2.607 0 0 1-.004-.168h-.015v-.732c0-.116-.027-.202-.08-.257-.053-.055-.138-.082-.256-.082a.487.487 0 0 0-.278.07.259.259 0 0 0-.115.2h-.231a.449.449 0 0 1 .186-.348.735.735 0 0 1 .447-.126c.19 0 .331.045.423.135.092.09.138.225.138.405v.735c0 .044.003.089.009.136.006.047.014.097.024.149h-.231Zm-.525.03a.574.574 0 0 1-.377-.116.387.387 0 0 1-.139-.316c0-.134.046-.238.138-.312a.871.871 0 0 1 .402-.156l.534-.09v.198l-.498.078a.6.6 0 0 0-.255.09.212.212 0 0 0-.087.183c0 .078.026.137.079.177a.39.39 0 0 0 .236.06.549.549 0 0 0 .328-.092.28.28 0 0 0 .128-.238l.039.213a.414.414 0 0 1-.188.237.647.647 0 0 1-.34.084ZM128.055 181.463h.24v2.16h-.24zM129.402 183.653a.723.723 0 0 1-.651-.387.866.866 0 0 1-.096-.414.87.87 0 0 1 .094-.413.683.683 0 0 1 .266-.277.77.77 0 0 1 .393-.099c.142 0 .265.031.37.093a.625.625 0 0 1 .243.261.863.863 0 0 1 .077.513h-1.263v-.201h1.116l-.078.111c0-.184-.041-.326-.122-.425a.417.417 0 0 0-.343-.148.468.468 0 0 0-.368.157.618.618 0 0 0-.139.425c0 .182.046.327.139.436a.467.467 0 0 0 .374.164.504.504 0 0 0 .258-.065.378.378 0 0 0 .162-.184h.228a.663.663 0 0 1-.251.331.7.7 0 0 1-.409.122ZM130.467 183.623v-1.53h.225v.39h.015v1.14h-.24Zm.24-.798-.039-.363a.53.53 0 0 1 .192-.297.52.52 0 0 1 .42-.09v.231a.136.136 0 0 0-.042-.008l-.066-.001c-.152 0-.268.045-.347.136-.079.091-.118.222-.118.392ZM132.486 183.623a.728.728 0 0 1-.017-.117 2.607 2.607 0 0 1-.004-.168h-.015v-.732c0-.116-.027-.202-.08-.257-.053-.055-.138-.082-.256-.082a.487.487 0 0 0-.278.07.259.259 0 0 0-.115.2h-.231a.449.449 0 0 1 .186-.348.735.735 0 0 1 .447-.126c.19 0 .331.045.423.135.092.09.138.225.138.405v.735c0 .044.003.089.009.136.006.047.014.097.024.149h-.231Zm-.525.03a.574.574 0 0 1-.377-.116.387.387 0 0 1-.139-.316c0-.134.046-.238.138-.312a.871.871 0 0 1 .402-.156l.534-.09v.198l-.498.078a.6.6 0 0 0-.255.09.212.212 0 0 0-.087.183c0 .078.026.137.079.177a.39.39 0 0 0 .236.06.549.549 0 0 0 .328-.092.28.28 0 0 0 .128-.238l.039.213a.414.414 0 0 1-.188.237.647.647 0 0 1-.34.084ZM134.394 183.653a.86.86 0 0 1-.38-.08.65.65 0 0 1-.264-.232.828.828 0 0 1-.124-.369h.258c.022.15.077.265.165.345.088.08.204.12.348.12a.455.455 0 0 0 .321-.108.38.38 0 0 0 .117-.294.445.445 0 0 0-.114-.317.4.4 0 0 0-.306-.121h-.27v-.21h.261a.38.38 0 0 0 .277-.101.356.356 0 0 0 .104-.268.344.344 0 0 0-.11-.273.431.431 0 0 0-.295-.096.474.474 0 0 0-.312.106.447.447 0 0 0-.153.305h-.261a.646.646 0 0 1 .37-.549.819.819 0 0 1 .362-.078c.13 0 .245.023.345.069.1.046.178.111.234.196a.532.532 0 0 1 .084.299.493.493 0 0 1-.257.453.547.547 0 0 1-.271.066l-.018-.063c.122 0 .227.025.316.076a.54.54 0 0 1 .207.209c.049.088.074.19.074.306a.569.569 0 0 1-.339.532.842.842 0 0 1-.369.077Z" style="fill:#fff;fill-rule:nonzero"/>
								</g>
								<ellipse cx="129.76" cy="173.276" rx="2.97" ry="1.485" style="fill:#fff"/>
								<path d="M132.73 173.936c0 .819-1.33 1.485-2.97 1.485-1.641 0-2.97-.666-2.97-1.485v.99c0 .819 1.329 1.485 2.97 1.485 1.64 0 2.97-.666 2.97-1.485v-.99Z" style="fill:#fff;fill-rule:nonzero"/>
								<path d="M132.73 176.576v-.99c0 .819-1.33 1.485-2.97 1.485-1.641 0-2.97-.666-2.97-1.485v.99c0 .819 1.329 1.485 2.97 1.485 1.64 0 2.97-.666 2.97-1.485Z" style="fill:#fff;fill-rule:nonzero"/>
							</g>
						</g>
						<g>
							<path d="m108.522 165.395 1.483-3.008-3.297.619 1.814 2.389ZM103.381 169.296l-3.297.618 1.483-3.008 1.814 2.39Z" style="fill:#fe9833"/>
							<path d="m108.093 163.838-6.097 4.626" style="fill:none;stroke:#fe9833;stroke-width:.5px;stroke-linejoin:miter;stroke-miterlimit:1.5"/>
							<path d="m117.359 179.672 3-1.5-3-1.5v3ZM112.525 179.672l-3-1.5 3-1.5v3Z" style="fill:#fe9833"/>
							<path d="M117.959 178.172h-6.034" style="fill:none;stroke:#fe9833;stroke-width:.5px;stroke-linejoin:miter;stroke-miterlimit:1.5"/>
							<path d="m123.184 163.194-3.305-.567 1.529 2.985 1.776-2.418ZM128.27 166.929l1.53 2.985-3.306-.567 1.776-2.418Z" style="fill:#fe9833"/>
							<path d="m121.813 164.048 6.052 4.445" style="fill:none;stroke:#fe9833;stroke-width:.5px;stroke-linejoin:miter;stroke-miterlimit:1.5"/>
						</g>
					</g>
					<g>
						<path d="M90.354 140.607v-.162h.434a.698.698 0 0 0 .349-.082.556.556 0 0 0 .225-.231.716.716 0 0 0 .079-.344.685.685 0 0 0-.079-.337.541.541 0 0 0-.224-.223.716.716 0 0 0-.35-.079h-.434v-.162h.434c.17 0 .318.033.444.1a.722.722 0 0 1 .293.281c.07.121.105.263.105.425a.831.831 0 0 1-.106.426.746.746 0 0 1-.293.286.91.91 0 0 1-.44.102h-.437Zm-.11 0v-1.62h.184v1.62h-.184ZM92.618 140.607a.636.636 0 0 1-.013-.088 2.157 2.157 0 0 1-.003-.126h-.011v-.549c0-.087-.02-.151-.06-.192-.04-.041-.104-.062-.192-.062a.364.364 0 0 0-.208.053.193.193 0 0 0-.087.15h-.173a.336.336 0 0 1 .139-.261.552.552 0 0 1 .335-.095c.143 0 .249.034.318.101.069.068.103.169.103.304v.551a1.274 1.274 0 0 0 .025.214h-.173Zm-.394.023a.425.425 0 0 1-.282-.087.291.291 0 0 1-.105-.237c0-.101.034-.179.103-.234a.645.645 0 0 1 .302-.117l.4-.068v.149l-.373.058a.446.446 0 0 0-.191.068.157.157 0 0 0-.066.137c0 .058.02.103.06.133.04.03.099.045.177.045.1 0 .182-.023.246-.069a.21.21 0 0 0 .096-.179l.029.16a.311.311 0 0 1-.141.178.485.485 0 0 1-.255.063ZM93.54 140.627c-.127 0-.22-.029-.278-.086-.057-.058-.086-.142-.086-.251v-1.098l.18-.068v1.164c0 .064.016.111.049.141.033.03.087.045.162.045.03 0 .056-.002.078-.005a.245.245 0 0 0 .053-.015v.153a.303.303 0 0 1-.064.015.875.875 0 0 1-.094.005Zm-.601-1.014v-.153h.759v.153h-.759ZM94.634 140.607a.636.636 0 0 1-.013-.088 2.157 2.157 0 0 1-.003-.126h-.011v-.549c0-.087-.02-.151-.06-.192-.04-.041-.104-.062-.192-.062a.364.364 0 0 0-.208.053.193.193 0 0 0-.087.15h-.173a.336.336 0 0 1 .139-.261.552.552 0 0 1 .335-.095c.143 0 .249.034.318.101.069.068.103.169.103.304v.551a1.274 1.274 0 0 0 .025.214h-.173Zm-.394.023a.425.425 0 0 1-.282-.087.291.291 0 0 1-.105-.237c0-.101.034-.179.103-.234a.645.645 0 0 1 .302-.117l.4-.068v.149l-.373.058a.446.446 0 0 0-.191.068.157.157 0 0 0-.066.137c0 .058.02.103.06.133.04.03.099.045.177.045.1 0 .182-.023.246-.069a.21.21 0 0 0 .096-.179l.029.16a.311.311 0 0 1-.141.178.485.485 0 0 1-.255.063ZM95.696 140.627a.463.463 0 0 1-.273-.078.399.399 0 0 1-.15-.223l.024-.005v.286h-.168v-1.62h.18v.74l-.025-.006a.387.387 0 0 1 .156-.209.481.481 0 0 1 .271-.075c.102 0 .191.025.267.074.076.05.135.119.177.207a.72.72 0 0 1 .063.311.71.71 0 0 1-.066.315.49.49 0 0 1-.182.209.495.495 0 0 1-.274.074Zm-.027-.157c.114 0 .203-.04.267-.118a.494.494 0 0 0 .097-.323.482.482 0 0 0-.097-.319.328.328 0 0 0-.267-.115.333.333 0 0 0-.27.118.485.485 0 0 0-.099.323c0 .133.033.239.099.317a.335.335 0 0 0 .27.117ZM97.201 140.607a.52.52 0 0 1-.012-.088 1.468 1.468 0 0 1-.004-.126h-.011v-.549c0-.087-.02-.151-.06-.192-.039-.041-.104-.062-.192-.062a.366.366 0 0 0-.208.053.193.193 0 0 0-.087.15h-.173a.336.336 0 0 1 .139-.261.555.555 0 0 1 .336-.095c.142 0 .248.034.317.101.069.068.103.169.103.304v.551a.938.938 0 0 0 .025.214h-.173Zm-.394.023a.428.428 0 0 1-.282-.087.291.291 0 0 1-.105-.237c0-.101.035-.179.104-.234a.64.64 0 0 1 .301-.117l.401-.068v.149l-.374.058a.446.446 0 0 0-.191.068c-.044.031-.065.077-.065.137 0 .058.02.103.059.133.04.03.099.045.177.045a.41.41 0 0 0 .246-.069.21.21 0 0 0 .096-.179l.029.16a.314.314 0 0 1-.14.178.488.488 0 0 1-.256.063ZM98.081 140.63a.539.539 0 0 1-.338-.098.384.384 0 0 1-.144-.278h.173c.011.073.043.13.097.169a.361.361 0 0 0 .216.058c.08 0 .142-.015.187-.045a.145.145 0 0 0 .067-.128.151.151 0 0 0-.038-.103c-.025-.029-.076-.053-.153-.073l-.184-.047a.485.485 0 0 1-.237-.125.285.285 0 0 1-.078-.201.28.28 0 0 1 .11-.235.469.469 0 0 1 .299-.087c.125 0 .226.03.304.09.078.06.122.143.133.25h-.174a.208.208 0 0 0-.085-.142.314.314 0 0 0-.185-.049.3.3 0 0 0-.171.041.135.135 0 0 0-.06.118c0 .039.014.073.044.102a.357.357 0 0 0 .147.072l.18.049a.496.496 0 0 1 .241.131.3.3 0 0 1 .081.211.276.276 0 0 1-.115.235.528.528 0 0 1-.317.085ZM99.266 140.63a.54.54 0 0 1-.488-.291.648.648 0 0 1-.072-.31.66.66 0 0 1 .071-.31.518.518 0 0 1 .199-.208.585.585 0 0 1 .295-.074c.106 0 .199.023.278.07a.466.466 0 0 1 .182.196.644.644 0 0 1 .064.297l-.001.042a.4.4 0 0 1-.006.045h-.947v-.15h.837l-.058.083a.499.499 0 0 0-.091-.319.316.316 0 0 0-.258-.111.35.35 0 0 0-.276.118.468.468 0 0 0-.104.319c0 .136.035.245.104.327a.35.35 0 0 0 .28.123.383.383 0 0 0 .194-.049.281.281 0 0 0 .121-.138h.171a.492.492 0 0 1-.187.248.528.528 0 0 1-.308.092ZM100.97 140.63a.508.508 0 0 1-.28-.078.543.543 0 0 1-.194-.214.664.664 0 0 1-.071-.309.64.64 0 0 1 .071-.306.536.536 0 0 1 .194-.209.51.51 0 0 1 .277-.077c.086 0 .163.017.231.05a.442.442 0 0 1 .253.353h-.166a.31.31 0 0 0-.104-.18.307.307 0 0 0-.209-.07.335.335 0 0 0-.191.054.355.355 0 0 0-.126.153.555.555 0 0 0-.045.232c0 .088.015.166.045.234.03.067.072.12.127.157a.33.33 0 0 0 .192.057.312.312 0 0 0 .207-.069.3.3 0 0 0 .106-.179h.166a.47.47 0 0 1-.483.401ZM101.714 138.987h.18v1.62h-.18zM102.628 140.63a.419.419 0 0 1-.2-.047.333.333 0 0 1-.138-.13.377.377 0 0 1-.049-.195v-.798h.18v.751c0 .087.021.152.064.196a.248.248 0 0 0 .183.065.37.37 0 0 0 .192-.049.358.358 0 0 0 .131-.139.41.41 0 0 0 .049-.203l.029.272a.443.443 0 0 1-.176.202.487.487 0 0 1-.265.075Zm.423-.023v-.27h-.011v-.877h.18v1.147h-.169ZM103.964 140.63a.536.536 0 0 1-.337-.098.384.384 0 0 1-.144-.278h.173c.011.073.043.13.097.169a.361.361 0 0 0 .216.058.336.336 0 0 0 .187-.045.145.145 0 0 0 .067-.128.156.156 0 0 0-.038-.103c-.026-.029-.077-.053-.153-.073l-.185-.047a.481.481 0 0 1-.236-.125.286.286 0 0 1-.079-.201c0-.099.037-.178.111-.235a.469.469 0 0 1 .299-.087c.124 0 .226.03.304.09a.34.34 0 0 1 .132.25h-.173a.208.208 0 0 0-.085-.142.314.314 0 0 0-.185-.049.3.3 0 0 0-.171.041.136.136 0 0 0-.061.118.14.14 0 0 0 .044.102.37.37 0 0 0 .148.072l.18.049a.492.492 0 0 1 .24.131.3.3 0 0 1 .081.211.275.275 0 0 1-.114.235.531.531 0 0 1-.318.085ZM105.098 140.627c-.127 0-.22-.029-.277-.086-.058-.058-.087-.142-.087-.251v-1.098l.18-.068v1.164c0 .064.016.111.049.141.033.03.087.045.162.045.03 0 .056-.002.078-.005a.245.245 0 0 0 .053-.015v.153a.288.288 0 0 1-.064.015.875.875 0 0 1-.094.005Zm-.6-1.014v-.153h.758v.153h-.758ZM105.933 140.63a.54.54 0 0 1-.488-.291.648.648 0 0 1-.072-.31.66.66 0 0 1 .071-.31.511.511 0 0 1 .199-.208.582.582 0 0 1 .295-.074c.106 0 .199.023.278.07a.473.473 0 0 1 .182.196.644.644 0 0 1 .064.297l-.001.042a.4.4 0 0 1-.006.045h-.947v-.15h.837l-.059.083a.493.493 0 0 0-.091-.319.312.312 0 0 0-.257-.111.35.35 0 0 0-.276.118.463.463 0 0 0-.105.319c0 .136.035.245.105.327a.35.35 0 0 0 .28.123.383.383 0 0 0 .194-.049.281.281 0 0 0 .121-.138h.171a.489.489 0 0 1-.188.248.523.523 0 0 1-.307.092ZM106.732 140.607v-1.147h.169v.292h.011v.855h-.18Zm.18-.598-.029-.273a.398.398 0 0 1 .144-.222.39.39 0 0 1 .315-.068v.173a.09.09 0 0 0-.032-.005l-.049-.001c-.114 0-.201.034-.26.102a.436.436 0 0 0-.089.294Z" style="fill:#fe9833;fill-rule:nonzero"/>
					</g>
				</g>
				<g>
					<path d="M96.895 51.863v14.574a.994.994 0 0 1-.994.993h-27.92a.994.994 0 0 1-.994-.993V51.863c0-.548.445-.993.994-.993h27.92c.549 0 .994.445.994.993Z" style="fill:#fff;fill-opacity:.2"/>
					<g>
						<path d="M72.379 64.216v-2.16h.255l1.239 1.818-.036.006v-1.824h.234v2.16h-.255l-1.239-1.818.036-.006v1.824h-.234ZM75.205 64.246a.722.722 0 0 1-.662-.392.871.871 0 0 1-.094-.409c0-.154.032-.29.096-.408a.719.719 0 0 1 .66-.381.709.709 0 0 1 .661.381.853.853 0 0 1 .095.408.872.872 0 0 1-.095.409.724.724 0 0 1-.264.287.738.738 0 0 1-.397.105Zm0-.204a.473.473 0 0 0 .447-.288.73.73 0 0 0 .063-.312.619.619 0 0 0-.14-.423.468.468 0 0 0-.37-.159.47.47 0 0 0-.369.159.614.614 0 0 0-.141.423.73.73 0 0 0 .063.312.477.477 0 0 0 .447.288ZM77.434 64.216v-.357l.03.009a.52.52 0 0 1-.209.276.63.63 0 0 1-.361.102.657.657 0 0 1-.362-.099.66.66 0 0 1-.24-.276.942.942 0 0 1-.085-.414c0-.16.029-.3.087-.42a.663.663 0 0 1 .243-.279.668.668 0 0 1 .366-.099c.144 0 .265.035.363.105.098.07.165.169.201.297l-.048.006v-1.011h.24v2.16h-.225Zm-.495-.18a.443.443 0 0 0 .361-.158c.087-.105.131-.248.131-.43a.634.634 0 0 0-.132-.423.447.447 0 0 0-.36-.156.438.438 0 0 0-.357.156c-.086.104-.129.248-.129.432 0 .18.043.321.129.424a.44.44 0 0 0 .357.155ZM78.766 64.246a.723.723 0 0 1-.651-.387.866.866 0 0 1-.096-.414.87.87 0 0 1 .094-.413.683.683 0 0 1 .266-.277.77.77 0 0 1 .393-.099c.142 0 .265.031.37.093a.625.625 0 0 1 .243.261.863.863 0 0 1 .077.513h-1.263v-.201h1.116l-.078.111c0-.184-.041-.326-.122-.425a.417.417 0 0 0-.343-.148.468.468 0 0 0-.368.157.618.618 0 0 0-.139.425c0 .182.046.327.139.436a.467.467 0 0 0 .374.164.504.504 0 0 0 .258-.065.378.378 0 0 0 .162-.184h.228a.663.663 0 0 1-.251.331.7.7 0 0 1-.409.122ZM79.993 64.216v-.204h.69a.446.446 0 0 0 .315-.108.377.377 0 0 0 .117-.291.41.41 0 0 0-.123-.312.459.459 0 0 0-.33-.117h-.669v-.198h.636a.47.47 0 0 0 .318-.099.35.35 0 0 0 .114-.279.32.32 0 0 0-.107-.258c-.071-.06-.174-.09-.31-.09h-.651v-.204h.672c.198 0 .354.047.469.141a.47.47 0 0 1 .173.384.538.538 0 0 1-.069.273.492.492 0 0 1-.189.187.554.554 0 0 1-.276.068l.015-.063a.563.563 0 0 1 .502.289.604.604 0 0 1 .077.305.55.55 0 0 1-.083.301.548.548 0 0 1-.232.203.795.795 0 0 1-.348.072h-.711Zm-.162 0v-2.16h.246v2.16h-.246ZM82.66 64.216a.728.728 0 0 1-.017-.117 2.607 2.607 0 0 1-.004-.168h-.015v-.732c0-.116-.027-.202-.08-.257-.053-.055-.138-.082-.256-.082a.487.487 0 0 0-.278.07.259.259 0 0 0-.115.2h-.231a.449.449 0 0 1 .186-.348.735.735 0 0 1 .447-.126c.19 0 .331.045.423.135.092.09.138.225.138.405v.735c0 .044.003.089.009.136.006.047.014.097.024.149h-.231Zm-.525.03a.574.574 0 0 1-.377-.116.387.387 0 0 1-.139-.316c0-.134.046-.238.138-.312a.871.871 0 0 1 .402-.156l.534-.09v.198l-.498.078a.6.6 0 0 0-.255.09.212.212 0 0 0-.087.183c0 .078.026.137.079.177a.39.39 0 0 0 .236.06.549.549 0 0 0 .328-.092.28.28 0 0 0 .128-.238l.039.213a.414.414 0 0 1-.188.237.647.647 0 0 1-.34.084ZM83.32 62.056h.24v2.16h-.24zM84.979 64.216a.728.728 0 0 1-.017-.117 2.607 2.607 0 0 1-.004-.168h-.015v-.732c0-.116-.027-.202-.08-.257-.053-.055-.138-.082-.256-.082a.487.487 0 0 0-.278.07.259.259 0 0 0-.115.2h-.231a.449.449 0 0 1 .186-.348.735.735 0 0 1 .447-.126c.19 0 .331.045.423.135.092.09.138.225.138.405v.735c0 .044.003.089.009.136.006.047.014.097.024.149h-.231Zm-.525.03a.574.574 0 0 1-.377-.116.387.387 0 0 1-.139-.316c0-.134.046-.238.138-.312a.871.871 0 0 1 .402-.156l.534-.09v.198l-.498.078a.6.6 0 0 0-.255.09.212.212 0 0 0-.087.183c0 .078.026.137.079.177a.39.39 0 0 0 .236.06.549.549 0 0 0 .328-.092.28.28 0 0 0 .128-.238l.039.213a.414.414 0 0 1-.188.237.647.647 0 0 1-.34.084ZM85.639 64.216v-1.53h.225v.36h.015v1.17h-.24Zm1.095 0v-1.002c0-.116-.029-.203-.087-.261-.058-.058-.144-.087-.258-.087-.1 0-.189.022-.266.066a.466.466 0 0 0-.18.183.556.556 0 0 0-.064.273l-.039-.363a.605.605 0 0 1 .238-.27.682.682 0 0 1 .365-.099.54.54 0 0 1 .385.136.47.47 0 0 1 .146.359v1.065h-.24ZM88.042 64.246a.685.685 0 0 1-.374-.104.727.727 0 0 1-.258-.285.878.878 0 0 1-.094-.412c0-.154.031-.29.094-.408a.723.723 0 0 1 .258-.279.687.687 0 0 1 .371-.102c.114 0 .216.022.307.066a.593.593 0 0 1 .225.187.633.633 0 0 1 .113.284h-.222a.417.417 0 0 0-.138-.24.412.412 0 0 0-.279-.093.449.449 0 0 0-.255.072.473.473 0 0 0-.168.204.74.74 0 0 0-.06.309c0 .118.02.222.06.312a.444.444 0 0 0 .426.285.403.403 0 0 0 .417-.33h.222a.634.634 0 0 1-.645.534ZM89.656 64.246a.723.723 0 0 1-.651-.387.866.866 0 0 1-.096-.414.87.87 0 0 1 .094-.413.683.683 0 0 1 .266-.277.77.77 0 0 1 .393-.099c.142 0 .265.031.37.093a.625.625 0 0 1 .243.261.863.863 0 0 1 .077.513h-1.263v-.201h1.116l-.078.111c0-.184-.041-.326-.122-.425a.417.417 0 0 0-.343-.148.468.468 0 0 0-.368.157.618.618 0 0 0-.139.425c0 .182.046.327.139.436a.467.467 0 0 0 .374.164.504.504 0 0 0 .258-.065.378.378 0 0 0 .162-.184h.228a.663.663 0 0 1-.251.331.7.7 0 0 1-.409.122ZM90.721 64.216v-1.53h.225v.39h.015v1.14h-.24Zm.24-.798-.039-.363a.53.53 0 0 1 .192-.297.52.52 0 0 1 .42-.09v.231a.136.136 0 0 0-.042-.008l-.066-.001c-.152 0-.268.045-.347.136-.079.091-.118.222-.118.392Z" style="fill:#fff;fill-rule:nonzero"/>
					</g>
					<path d="M82.78 56.115h1.016v.508H82.78zM82.78 58.148h1.016v.508H82.78zM80.239 54.59h1.016v.508h-1.016z" style="fill:none"/>
					<path d="M82.526 57.131h1.524c.14 0 .254-.114.254-.254v-1.016a.254.254 0 0 0-.254-.254h-1.524a.255.255 0 0 0-.255.254v.254h-1.27v-.508h.508c.14 0 .254-.115.254-.254v-1.017a.254.254 0 0 0-.254-.254h-1.524a.255.255 0 0 0-.255.254v1.017c0 .139.115.254.255.254h.508v2.795c0 .14.114.254.254.254h1.524v.254c0 .14.115.254.255.254h1.524c.14 0 .254-.114.254-.254v-1.016a.254.254 0 0 0-.254-.254h-1.524a.255.255 0 0 0-.255.254v.254h-1.27v-1.525h1.27v.254c0 .14.115.254.255.254Zm.254-1.016h1.016v.508H82.78v-.508Zm0 2.033h1.016v.508H82.78v-.508Zm-2.541-3.049v-.509h1.016v.509h-1.016Z" style="fill:#fff;fill-rule:nonzero"/>
				</g>
			</g>
			<g>
				<path d="m19.906 48.305.834-2.16h.216l-.813 2.16h-.237Zm1.716 0-.813-2.16h.231l.834 2.16h-.252Zm-1.302-.873h1.128v.216H20.32v-.216ZM22.222 48.305v-2.22h.24v2.22h-.24Zm.999 0-.813-.795.783-.735h.33l-.879.804.015-.141.894.867h-.33ZM24.733 48.305a.735.735 0 0 1-.016-.117 2.508 2.508 0 0 1-.005-.168h-.015v-.732c0-.116-.026-.201-.079-.256-.053-.055-.139-.083-.257-.083a.484.484 0 0 0-.277.071.258.258 0 0 0-.116.199h-.231a.449.449 0 0 1 .186-.348.735.735 0 0 1 .447-.126c.19 0 .331.045.423.135.092.09.138.225.138.405v.735c0 .044.003.09.009.137.006.047.014.096.024.148h-.231Zm-.525.03a.57.57 0 0 1-.376-.115.39.39 0 0 1-.14-.317c0-.134.046-.238.138-.312a.871.871 0 0 1 .402-.156l.534-.09v.198l-.498.078a.6.6 0 0 0-.255.09.212.212 0 0 0-.087.183c0 .078.027.137.08.177.053.04.131.06.235.06.134 0 .244-.03.329-.091a.281.281 0 0 0 .127-.239l.039.213a.412.412 0 0 1-.187.237.65.65 0 0 1-.341.084ZM25.393 48.305v-1.53h.225v.36h.015v1.17h-.24Zm1.032 0v-1.014c0-.116-.026-.201-.078-.255-.052-.054-.127-.081-.225-.081a.478.478 0 0 0-.424.249.557.557 0 0 0-.065.273l-.039-.363a.615.615 0 0 1 .234-.27.62.62 0 0 1 .339-.099c.148 0 .268.044.36.131a.46.46 0 0 1 .138.352v1.077h-.24Zm1.032 0v-1.014c0-.116-.026-.201-.078-.255-.052-.054-.127-.081-.225-.081a.478.478 0 0 0-.424.249.557.557 0 0 0-.065.273l-.06-.363a.604.604 0 0 1 .24-.27.656.656 0 0 1 .348-.099c.148 0 .269.044.363.131a.456.456 0 0 1 .141.352v1.077h-.24ZM29.089 48.305a.735.735 0 0 1-.016-.117 2.508 2.508 0 0 1-.005-.168h-.015v-.732c0-.116-.026-.201-.079-.256-.053-.055-.139-.083-.257-.083a.484.484 0 0 0-.277.071.258.258 0 0 0-.116.199h-.231a.449.449 0 0 1 .186-.348.735.735 0 0 1 .447-.126c.19 0 .331.045.423.135.092.09.138.225.138.405v.735c0 .044.003.09.009.137.006.047.014.096.024.148h-.231Zm-.525.03a.57.57 0 0 1-.376-.115.39.39 0 0 1-.14-.317c0-.134.046-.238.138-.312a.871.871 0 0 1 .402-.156l.534-.09v.198l-.498.078a.6.6 0 0 0-.255.09.212.212 0 0 0-.087.183c0 .078.027.137.08.177.053.04.131.06.235.06.134 0 .244-.03.329-.091a.281.281 0 0 0 .127-.239l.039.213a.412.412 0 0 1-.187.237.65.65 0 0 1-.341.084ZM29.749 48.305v-1.53h.24v1.53h-.24Zm-.018-1.878v-.282h.276v.282h-.276ZM32.002 48.335a.978.978 0 0 1-.735-.313 1.04 1.04 0 0 1-.213-.351 1.277 1.277 0 0 1-.075-.446c0-.162.025-.31.075-.445.05-.135.121-.252.212-.351a.96.96 0 0 1 .324-.231c.125-.055.261-.083.409-.083.162 0 .308.033.437.099a.854.854 0 0 1 .318.279c.083.12.134.26.154.42h-.246a.654.654 0 0 0-.211-.421.655.655 0 0 0-.449-.155.73.73 0 0 0-.405.113.749.749 0 0 0-.27.312 1.055 1.055 0 0 0-.096.463c0 .176.032.331.096.464a.749.749 0 0 0 .27.312c.116.075.25.112.402.112a.671.671 0 0 0 .458-.156.64.64 0 0 0 .211-.42h.246c-.02.16-.071.3-.154.42a.854.854 0 0 1-.318.279.953.953 0 0 1-.44.099ZM33.292 46.145h.24v2.16h-.24zM34.648 48.335a.717.717 0 0 1-.661-.391.876.876 0 0 1-.095-.41c0-.154.032-.29.096-.408a.721.721 0 0 1 .66-.381.709.709 0 0 1 .662.381.853.853 0 0 1 .094.408.875.875 0 0 1-.094.41.721.721 0 0 1-.264.286.741.741 0 0 1-.398.105Zm0-.204a.473.473 0 0 0 .447-.288.73.73 0 0 0 .063-.312.618.618 0 0 0-.139-.423.47.47 0 0 0-.371-.159.47.47 0 0 0-.369.159.614.614 0 0 0-.141.423.73.73 0 0 0 .063.312.473.473 0 0 0 .447.288ZM36.262 48.335c-.1 0-.189-.02-.267-.061a.451.451 0 0 1-.183-.174.505.505 0 0 1-.066-.26v-1.065h.24v1.002c0 .116.029.203.086.261.057.058.138.087.244.087a.472.472 0 0 0 .431-.25.56.56 0 0 0 .064-.272l.039.363a.59.59 0 0 1-.234.27.656.656 0 0 1-.354.099Zm.564-.03v-.36h-.015v-1.17h.24v1.53h-.225ZM38.638 48.305v-.357l.03.009a.518.518 0 0 1-.208.276.634.634 0 0 1-.362.102.654.654 0 0 1-.361-.099.66.66 0 0 1-.24-.276.942.942 0 0 1-.086-.414c0-.16.029-.3.087-.42a.663.663 0 0 1 .243-.279.668.668 0 0 1 .366-.099c.144 0 .265.035.363.105.098.07.165.169.201.297l-.048.006v-1.011h.24v2.16h-.225Zm-.495-.18a.445.445 0 0 0 .362-.157c.087-.105.13-.249.13-.431a.634.634 0 0 0-.132-.423.447.447 0 0 0-.36-.156.438.438 0 0 0-.357.156c-.086.104-.129.248-.129.432 0 .18.043.322.129.425a.44.44 0 0 0 .357.154Z" style="fill:#fe9833;fill-rule:nonzero"/>
			</g>
		</g>
		<g>
			<path d="m114.995 18.968 3 1.5-3 1.5v-3Z" style="fill:#fff"/>
			<path d="M100.834 20.468h14.761" style="fill:none;stroke:#fff;stroke-width:.5px;stroke-miterlimit:1.5"/>
			<path d="m103.834 26.261-3-1.5 3-1.5v3Z" style="fill:#fff"/>
			<path d="M117.995 24.761h-14.761" style="fill:none;stroke:#fff;stroke-width:.5px;stroke-miterlimit:1.5"/>
		</g>
	</g>
	<g>
		<g class="bullet bullet-8">
			<circle cx="134.352" cy="125.43" r="2.22" style="fill:#fff"/>
			<circle cx="134.352" cy="125.43" r="1.918" style="fill:#1e9ad6"/>
			<path d="M134.885 125.012a.39.39 0 0 1-.062.217.432.432 0 0 1-.168.151.5.5 0 0 1 .194.163c.048.069.072.15.072.243 0 .15-.051.268-.153.355a.623.623 0 0 1-.415.13.62.62 0 0 1-.416-.131.439.439 0 0 1-.154-.354.42.42 0 0 1 .072-.244.48.48 0 0 1 .193-.162.398.398 0 0 1-.229-.368c0-.144.047-.258.143-.343a.567.567 0 0 1 .39-.128c.163 0 .293.042.389.127a.434.434 0 0 1 .144.344Zm-.3.75a.245.245 0 0 0-.063-.176.228.228 0 0 0-.171-.066.224.224 0 0 0-.17.066.238.238 0 0 0-.064.176c0 .072.021.129.062.173a.23.23 0 0 0 .174.066.227.227 0 0 0 .17-.063.24.24 0 0 0 .062-.176Zm-.034-.734a.235.235 0 0 0-.052-.158.185.185 0 0 0-.147-.06.188.188 0 0 0-.146.058.23.23 0 0 0-.052.16.24.24 0 0 0 .052.162c.035.04.084.061.147.061a.182.182 0 0 0 .146-.061.246.246 0 0 0 .052-.162Z" style="fill:#fff;fill-rule:nonzero"/>
		</g>
		<g class="bullet bullet-7">
			<circle cx="115.055" cy="169.394" r="2.22" style="fill:#fff"/>
			<circle cx="115.055" cy="169.394" r="1.918" style="fill:#1e9ad6"/>
			<path d="m115.657 168.759-.651 1.496h-.353l.653-1.413h-.838v-.271h1.189v.188Z" style="fill:#fff;fill-rule:nonzero"/>
		</g>
		<g class="bullet bullet-6">
			<circle cx="92.478" cy="126.557" r="2.22" style="fill:#fff"/>
			<circle cx="92.478" cy="126.557" r="1.918" style="fill:#1e9ad6"/>
			<path d="M92.852 125.642v.297h-.035a.618.618 0 0 0-.394.127.517.517 0 0 0-.179.344.49.49 0 0 1 .365-.148c.159 0 .284.057.378.17a.685.685 0 0 1 .139.447.668.668 0 0 1-.076.321.553.553 0 0 1-.218.224.63.63 0 0 1-.317.08.589.589 0 0 1-.464-.2c-.118-.133-.177-.311-.177-.533v-.13c0-.197.037-.372.112-.523a.815.815 0 0 1 .321-.351.938.938 0 0 1 .485-.125h.06Zm-.352.91a.282.282 0 0 0-.159.046.271.271 0 0 0-.105.12v.11c0 .121.024.215.071.283a.23.23 0 0 0 .2.102c.077 0 .14-.031.188-.092a.375.375 0 0 0 .072-.238.371.371 0 0 0-.073-.24.237.237 0 0 0-.194-.091Z" style="fill:#fff;fill-rule:nonzero"/>
		</g>
		<g class="bullet bullet-5">
			<circle cx="48.936" cy="169.161" r="2.22" style="fill:#fff"/>
			<circle cx="48.936" cy="169.161" r="1.918" style="fill:#1e9ad6"/>
			<path d="m48.384 169.188.105-.924h1.019v.301h-.723l-.045.391a.572.572 0 0 1 .274-.069c.173 0 .309.054.407.161.098.108.147.258.147.451a.66.66 0 0 1-.074.315.528.528 0 0 1-.213.216.656.656 0 0 1-.327.077.7.7 0 0 1-.306-.067.54.54 0 0 1-.223-.187.507.507 0 0 1-.087-.276h.357a.267.267 0 0 0 .08.176.25.25 0 0 0 .178.063.22.22 0 0 0 .188-.088.406.406 0 0 0 .066-.249c0-.103-.025-.182-.076-.237a.28.28 0 0 0-.216-.083.31.31 0 0 0-.208.068l-.035.032-.288-.071Z" style="fill:#fff;fill-rule:nonzero"/>
		</g>
		<g class="bullet bullet-4">
			<circle cx="71.557" cy="126.557" r="2.22" style="fill:#fff"/>
			<circle cx="71.557" cy="126.557" r="1.918" style="fill:#1e9ad6"/>
			<path d="M72.02 126.794h.206v.291h-.206v.394h-.361v-.394h-.746l-.016-.227.758-1.197h.365v1.133Zm-.763 0h.402v-.641l-.024.041-.378.6Z" style="fill:#fff;fill-rule:nonzero"/>
		</g>
		<g class="bullet bullet-3">
			<circle cx="82.017" cy="72.083" r="2.22" style="fill:#fff"/>
			<circle cx="82.017" cy="72.083" r="1.918" style="fill:#1e9ad6"/>
			<path d="M81.779 71.935h.193c.091 0 .159-.023.203-.068a.254.254 0 0 0 .067-.183.222.222 0 0 0-.066-.171.258.258 0 0 0-.18-.061.266.266 0 0 0-.174.057.18.18 0 0 0-.07.148h-.361c0-.095.026-.18.077-.255a.504.504 0 0 1 .215-.177.708.708 0 0 1 .304-.064c.192 0 .343.046.452.138a.47.47 0 0 1 .163.38.38.38 0 0 1-.076.23.489.489 0 0 1-.2.161.458.458 0 0 1 .23.165.45.45 0 0 1 .075.26.478.478 0 0 1-.177.388c-.117.098-.273.146-.467.146a.675.675 0 0 1-.445-.143.469.469 0 0 1-.173-.38h.361c0 .068.025.124.076.167a.283.283 0 0 0 .19.065.28.28 0 0 0 .201-.068.232.232 0 0 0 .073-.18c0-.182-.1-.272-.299-.272h-.192v-.283Z" style="fill:#fff;fill-rule:nonzero"/>
		</g>
		<g class="bullet bullet-2">
			<circle cx="82.017" cy="40.326" r="2.22" style="fill:#fff"/>
			<circle cx="82.017" cy="40.326" r="1.918" style="fill:#1e9ad6"/>
			<path d="M82.659 41.248h-1.247V41l.589-.626c.08-.089.14-.166.179-.231a.381.381 0 0 0 .058-.188.281.281 0 0 0-.061-.19c-.041-.046-.099-.069-.175-.069a.238.238 0 0 0-.193.084.333.333 0 0 0-.071.221h-.362c0-.11.027-.211.079-.303a.555.555 0 0 1 .225-.215.68.68 0 0 1 .328-.078c.187 0 .333.045.436.134.104.09.156.217.156.381 0 .09-.023.182-.07.275a1.556 1.556 0 0 1-.24.326l-.413.436h.782v.291Z" style="fill:#fff;fill-rule:nonzero"/>
		</g>
		<g class="bullet bullet-1">
			<circle cx="109.972" cy="30.014" r="2.22" style="fill:#fff"/>
			<circle cx="109.972" cy="30.014" r="1.918" style="fill:#1e9ad6"/>
			<path d="M110.226 30.925h-.361v-1.392l-.431.134v-.293l.753-.27h.039v1.821Z" style="fill:#fff;fill-rule:nonzero"/>
		</g>
	</g>
	<defs>
		<radialGradient id="a" cx="0" cy="0" r="1" gradientTransform="translate(140.261 77.097) scale(571.153)" gradientUnits="userSpaceOnUse">
			<stop offset="0" style="stop-color:#0c4d82;stop-opacity:1"/>
			<stop offset=".21" style="stop-color:#0f4b7f;stop-opacity:1"/>
			<stop offset=".43" style="stop-color:#134676;stop-opacity:1"/>
			<stop offset=".65" style="stop-color:#173d68;stop-opacity:1"/>
			<stop offset=".88" style="stop-color:#163055;stop-opacity:1"/>
			<stop offset="1" style="stop-color:#14274a;stop-opacity:1"/>
		</radialGradient>
	</defs>
</svg>