<?xml version="1.0" encoding="utf-8"?>
<!-- Generator: Adobe Illustrator 23.0.4, SVG Export Plug-In . SVG Version: 6.00 Build 0)  -->
<svg version="1.1" id="Layer_1" xmlns="http://www.w3.org/2000/svg" xmlns:xlink="http://www.w3.org/1999/xlink" x="0px" y="0px"
	 viewBox="0 0 100 100" style="enable-background:new 0 0 100 100;" xml:space="preserve">
<style type="text/css">
	.st0-08d0ba26c2c8e84caa7a7b977c272443{fill:none;stroke:#010101;stroke-width:4.2437;stroke-linejoin:round;}
	.st1-08d0ba26c2c8e84caa7a7b977c272443{fill:currentColor;}
</style>
<title>proServices</title>
<g>
	<g id="Layer_1-2">
		<polygon class="st0-08d0ba26c2c8e84caa7a7b977c272443" points="68.4,26.3 73.9,15.6 84.8,10 90,15.2 84.4,26.1 73.7,31.6 60.6,44.7 55.4,39.4 		"/>
		<path class="st0-08d0ba26c2c8e84caa7a7b977c272443" d="M22.8,87.8c-2.9,2.9-7.7,2.9-10.6,0c-2.9-2.9-2.9-7.7,0-10.6l24.6-24.6l10.6,10.6L22.8,87.8z"/>
		<path class="st1-08d0ba26c2c8e84caa7a7b977c272443" d="M88.5,81.4l-10-9.9c-0.5-0.5-1.1-0.9-1.8-1.1c-2.6-1-5.4,0.3-6.4,2.9c-0.4,1.1-0.4,2.3,0,3.5
			c0.3,0.7,0.6,1.3,1.1,1.8l10,10c-2,1-4.2,1.5-6.4,1.5c-7.9,0-14.4-6.1-14.9-14l-0.1-1c0-1.8,0.3-3.5,1-5.2L30.3,39
			c-1.7,0.6-3.4,1-5.2,1l-1-0.1c-8.2-0.5-14.4-7.5-14-15.7c0.1-2,0.6-3.9,1.5-5.7l10,9.9c0.5,0.5,1.1,0.9,1.8,1.1
			c0.6,0.2,1.1,0.3,1.7,0.3c2.8-0.1,5-2.4,4.9-5.2c0-1.2-0.5-2.4-1.4-3.3l-10-10c2-1,4.2-1.5,6.4-1.5C33,10,39.5,16.2,40,24l0.1,1
			c0,1.8-0.3,3.5-1,5.2l30.8,30.7c1.7-0.6,3.4-1,5.2-1l1,0.1c8.2,0.5,14.4,7.5,14,15.7C89.9,77.7,89.4,79.6,88.5,81.4z"/>
	</g>
</g>
</svg>
