<svg xmlns="http://www.w3.org/2000/svg" id="Layer_1" x="0" y="0" version="1.1" viewBox="0 0 100 100" xml:space="preserve">
  <title>Professional Services</title>
  <g>
    <path d="M68.4 26.3l5.5-10.7L84.8 10l5.2 5.2-5.6 10.9-10.7 5.5-13.1 13.1-5.2-5.3zM22.8 87.8c-2.9 2.9-7.7 2.9-10.6 0-2.9-2.9-2.9-7.7 0-10.6l24.6-24.6 10.6 10.6-24.6 24.6z" fill="none" stroke="#010101" stroke-width="4.2437" stroke-linejoin="round"/>
    <path fill="currentColor" d="M88.5 81.4l-10-9.9c-.5-.5-1.1-.9-1.8-1.1-2.6-1-5.4.3-6.4 2.9-.4 1.1-.4 2.3 0 3.5.3.7.6 1.3 1.1 1.8l10 10c-2 1-4.2 1.5-6.4 1.5-7.9 0-14.4-6.1-14.9-14l-.1-1c0-1.8.3-3.5 1-5.2L30.3 39c-1.7.6-3.4 1-5.2 1l-1-.1c-8.2-.5-14.4-7.5-14-15.7.1-2 .6-3.9 1.5-5.7l10 9.9c.5.5 1.1.9 1.8 1.1.6.2 1.1.3 1.7.3 2.8-.1 5-2.4 4.9-5.2 0-1.2-.5-2.4-1.4-3.3l-10-10c2-1 4.2-1.5 6.4-1.5 8 .2 14.5 6.4 15 14.2l.1 1c0 1.8-.3 3.5-1 5.2l30.8 30.7c1.7-.6 3.4-1 5.2-1l1 .1c8.2.5 14.4 7.5 14 15.7-.2 2-.7 3.9-1.6 5.7z"/>
  </g>
</svg>