<svg xmlns="http://www.w3.org/2000/svg" viewBox="0 0 200 200">
  <title>StackScripts</title>
  <g fill="currentColor">
    <path d="M147.68 34.74c-.8 6.72-1.61 13-2.17 19-1.32 14-2.52 28.06-3.77 42.1-.54 6-1.05 12-1.49 18.06-1 14.09-2 28.14-2.91 42.23-.46 6.92-4 11-10 11.22-5.16.19-8.21-2.81-8.33-8V152c1.07-6.33.48-7.65-5.95-7.65H65.81c-1.52 0-3.06-.15-5.33-.27.49-8.11.83-15.86 1.46-23.59.61-7.33.2-14.64.79-22 1.1-14.06 3.49-28.14 4.54-42.23.32-4.23.71-8.48 1.42-12.66.88-5.11 5.67-8.29 13-8.43 9-.2 18-.69 27-.69z"/>
    <path d="M112.77 151.11v17.36H47.79a30.35 30.35 0 01-6.6-.93c-6.65-1.52-10.08-7.26-7.88-13.55a5.45 5.45 0 013.25-2.68c1.42-.47 3.11-.15 4.7-.15h71.51zM153.45 52l1.71-15c2.89-1.71 9.44-2.57 12.74-.2 5.67 4.11 2.76 9.69 3.11 15.24z"/>
  </g>
  <path fill="#010101" d="M162.72 28.23c-3.38-.14-6.75 0-10.12 0H80.38c-10.61 0-17.34 5.79-19 16.06q-.59 3.66-.86 7.36c-2 25.77-3.88 51.51-5.86 77.28-.39 5.06-1 10.12-1.62 15.35-6.84 0-13.15.17-19.43-.05-4-.14-6.63 1.27-6.6 5.33v4c-.25 14 4.1 21.35 18.33 22 1.57.07 4.72.12 4.72.12h63.52l12.93-.05a19.73 19.73 0 009.44-1.74 12.45 12.45 0 007.36-10v-.1c.07-.63.14-1.24.22-1.83l4-48v-.44l.58-7.19h-.07c.22-2.32.41-4.52.63-6.67l1.33-16.1c.17-2.13.34-4.21.53-6.26.52-6.14 1-12 1.52-18.07H177l-.2-3.59V44.15c.05-9.34-4.69-15.53-14.08-15.92zm-55.11 140.21H48.28a30.53 30.53 0 01-6.61-.93C35 166 31.6 160.23 33.8 153.94a5.45 5.45 0 013.25-2.68c1.42-.47 3.11-.15 4.7-.15h66.79a3.5 3.5 0 013.5 3.5v9.46a4.37 4.37 0 01-4.38 4.37zm37.87-114.73c-1.32 14-2.52 28.06-3.76 42.1-.54 6-1.05 12-1.49 18.06-1 14.09-2 28.14-2.91 42.23-.47 6.92-4 11-10 11.22-5.16.19-8.22-2.81-8.34-8V152c1.08-6.33.49-7.65-5.94-7.65H65.78c-1.51 0-3.05-.15-5.33-.27.49-8.11 5.77-73.73 6.8-87.79.32-4.23.71-8.49 1.42-12.67.88-5.11 5.67-8.36 12.95-8.5h27l39.11-.1c-.85 6.73-1.73 12.75-2.25 18.69zm25.4-1.71h-16.94l1.59-15c2.89-1.71 8.95-2.57 12.25-.2 5.67 4.07 2.76 9.65 3.1 15.2z"/>
  <g fill="none" stroke="#fff" stroke-linecap="round" stroke-miterlimit="10" stroke-width="5.13">
    <path d="M77.74 53.1h54.39M76.56 67.79h54.4M75.39 82.48h54.37M74.22 97.15h54.37M73.04 111.84h54.37M71.87 126.51h54.37"/>
  </g>
</svg>