<svg viewBox="0 0 200 200" xmlns="http://www.w3.org/2000/svg"><g stroke="#32363b" stroke-linecap="round" stroke-linejoin="round" stroke-width="4.37"><path d="m172.55 36.55-33.22 18.97-.93 11.77-25.22 56.94-15 9.9 1.82 40.87 28.27-16.3 44.28-108.41z" fill="#32363b"/><path d="m80.22 57.5v-13.06l-.14-.08-21.96 10.9.93 13.15 27.42 59.67 14.85-8.4-1.32-16.03z" fill="#32363b"/><path d="m152.76 25-32.96 19.3h-.02v.02 13.18l-19.78 46.15v15.43l-13.2 7.65-26.37-59.41v-11.61l19.79-11.39-32.99-19.32-19.78 11.55v14.14l44.53 108.15 28.02 16.16v-40.62l13.18-7.65-.16-.1 26.55-59.31v-11.59-.02l32.98-19.16z" fill="currentColor"/></g></svg>