<svg viewBox="0 0 200 200" xmlns="http://www.w3.org/2000/svg"><path d="m106.33 166.14 4.18-2c10.3-4.84 15.29-9 18.39-15.38 3.37-6.73 4.39-15 4.39-35.51v-50.58h28.93v59c0 20-1.51 29.66-6 38.14-4.29 8.4-10 13.58-21 19.09l-.95.47zm-17.15-20.14c-31.18 0-47.74-14.38-47.74-41.65 0-26.39 17.43-43.44 44.4-43.44a42.75 42.75 0 0 1 8.47.72v-36.84h28.91v117.53l-1.78.34c-12.7 2.4-22.05 3.34-32.26 3.34zm-1-61c-11.18 0-17.37 6.72-17.37 18.87 0 11.8 6 18 17.24 18a51.91 51.91 0 0 0 6.26-.37v-35.76a22.44 22.44 0 0 0 -6.09-.74zm45.11-30.57v-29.51h28.89v29.54z" fill="currentColor"/><path d="m121 27v113.51c-12.6 2.38-21.83 3.34-31.86 3.34-29.94 0-45.55-13.54-45.55-39.5 0-25 16.57-41.25 42.21-41.25a39.28 39.28 0 0 1 10.7 1.27v-37.37zm-33 97.11a59.59 59.59 0 0 0 8.45-.63v-39.37a24.22 24.22 0 0 0 -8.28-1.27c-12.42 0-19.59 7.64-19.59 21 0 13.06 6.84 20.22 19.42 20.22m72-97v25.21h-24.48v-25.16h24.48m0 37.74v56.86c0 19.59-1.44 29-5.74 37.12-4 7.8-9.24 12.75-20.07 18.15l-22.79-10.83c10.83-5.09 16.09-9.55 19.43-16.4 3.5-7 4.61-15.13 4.61-36.47v-48.43zm-34.59-42.24h-33.28v36.46a50.79 50.79 0 0 0 -6.29-.34c-13.74 0-25.42 4.32-33.78 12.5s-12.81 19.64-12.81 33.12c0 14.24 4.4 25.28 13.06 32.79 8.48 7.35 20.88 11.08 36.87 11.08 10.36 0 19.83-1 32.67-3.41l3.56-.67zm-37.36 97.11c-10.13 0-15-5.19-15-15.85 0-7.6 2.64-16.65 15.22-16.65a23.08 23.08 0 0 1 3.91.28v32.05c-1.42.12-2.68.17-4.08.17zm76.36-97h-33.27v33.93h33.27v-33.92zm0 37.75h-33.3v52.8c0 22.29-1.34 28.89-4.15 34.51-2.92 6-7.46 9.74-17.38 14.4l-8.37 3.94 8.36 4 22.78 10.83 1.92.92 1.91-1c11.5-5.73 17.46-11.17 22-20s6.23-18.72 6.23-39.14v-61.25z" fill="#32363b"/></svg>