<svg xmlns="http://www.w3.org/2000/svg" viewBox="0 0 100.94 100.94">
  <title>Dedicated CPU</title>
  <defs>
    <clipPath id="clip-path-38jezwxvqdescowygzr1ovfc747dyexp">
      <rect width="56.11" height="56.11" x="22.41" y="22.41" fill="none" rx="3.3"/>
    </clipPath>
    <style>
    </style>
  </defs>
  <g>
    <g>
      <path fill="#010101" d="M76.64 13H24.3A11.26 11.26 0 0013 24.3v52.34a11.26 11.26 0 0011.3 11.25h52.34a11.25 11.25 0 0011.25-11.25V24.3A11.26 11.26 0 0076.64 13zm7.48 63.24a7.84 7.84 0 01-7.84 7.84H24.66a7.84 7.84 0 01-7.84-7.84V24.66a7.84 7.84 0 017.84-7.84h51.62a7.84 7.84 0 017.84 7.84z"/>
      <g clip-path="url(#clip-path-38jezwxvqdescowygzr1ovfc747dyexp)">
        <path fill="currentColor" d="M11.46 13.04h81.6v72.58h-81.6z"/>
      </g>
      <path d="M.79 25.07H8.6M.79 31.42H8.6M.79 37.77H8.6M.79 44.12H8.6M.79 50.47H8.6M.79 56.82H8.6M.79 63.17H8.6M.79 69.51H8.6M.79 75.86H8.6M100.15 25.07h-7.81M100.15 31.42h-7.81M100.15 37.77h-7.81M100.15 44.12h-7.81M100.15 50.47h-7.81M100.15 56.82h-7.81M100.15 63.17h-7.81M100.15 69.51h-7.81M100.15 75.86h-7.81M75.86.79V8.6M69.51.79V8.6M63.17.79V8.6M56.82.79V8.6M50.47.79V8.6M44.12.79V8.6M37.77.79V8.6M31.42.79V8.6M25.07.79V8.6M75.86 100.15v-7.81M69.51 100.15v-7.81M63.17 100.15v-7.81M56.82 100.15v-7.81M50.47 100.15v-7.81M44.12 100.15v-7.81M37.77 100.15v-7.81M31.42 100.15v-7.81M25.07 100.15v-7.81" class="cls-5-37b100197264e8a6c96428f93347d043-37b100197264e8a6c96428f93347d043"/>
    </g>
  </g>
</svg>