<svg viewBox="0 0 200 200" xmlns="http://www.w3.org/2000/svg"><g stroke="#32363b" stroke-linecap="round" stroke-linejoin="round"><path d="m115.28 156.09c1.17 4.57-2 13.93-4 18.42l-18.62.49c-2.3-4.38-5.92-13.57-5-18.19l-16.54-6.34c-2.4 4.05-11.23 8.46-15.87 10.17l-13.47-12.79c1.47-4.73 5.41-13.78 9.33-16.39l-7.2-16.18c-4.57 1.17-13.93-2-18.42-4l-.49-18.62c4.38-2.3 13.57-5.92 18.19-5l6.34-16.54c-4.05-2.4-8.46-11.23-10.17-15.87l12.79-13.47c4.73 1.47 13.78 5.41 16.39 9.33l16.18-7.2c-1.17-4.57 2-13.93 4-18.42l18.62-.49c2.3 4.38 5.92 13.57 5 18.19l16.54 6.34c2.4-4.05 11.23-8.46 15.87-10.17l13.49 12.79c-1.47 4.73-5.41 13.78-9.33 16.39l7.2 16.18c4.57-1.17 13.93 2 18.42 4l.49 18.59c-4.38 2.3-13.57 5.92-18.19 5l-6.34 16.54c4.05 2.4 8.46 11.23 10.17 15.87l-12.79 13.49c-4.73-1.47-13.78-5.41-16.39-9.33zm22.1-57.09a37.39 37.39 0 1 0 -36.38 38.38 37.4 37.4 0 0 0 36.38-38.38z" fill="#fff" fill-rule="evenodd" stroke-width="4.37"/><path d="m125.79 94.62-25.27-8.92a1.55 1.55 0 0 0 -1 0l-25.31 8.92a1.57 1.57 0 0 0 0 3l25.26 9a1.45 1.45 0 0 0 1.06 0l25.26-9a1.57 1.57 0 0 0 0-3z" fill="currentColor" stroke-width="4"/><g fill="#32363b" stroke-width="1.86"><path d="m123.06 114.61v-13.72l-3.14 1.11v12.6a3.16 3.16 0 0 0 0 5.48v7.72a1.57 1.57 0 1 0 3.14 0v-7.72a3.16 3.16 0 0 0 0-5.48z"/><path d="m100 108.8a4.73 4.73 0 0 1 -1.58-.27l-14.2-5v6.92c0 1.69 1.76 3.12 5.25 4.25a37 37 0 0 0 21.06 0c3.49-1.13 5.25-2.56 5.25-4.25v-6.92l-14.2 5a4.73 4.73 0 0 1 -1.58.27z"/></g></g></svg>