<svg viewBox="0 0 200 200" xmlns="http://www.w3.org/2000/svg"><path d="m76.95 68.44h46.1v63.11h-46.1z" fill="currentColor" transform="matrix(.70710678 -.70710678 .70710678 .70710678 -41.42 100)"/><path d="m44.16 44.16a23.08 23.08 0 0 1 32.6 0l11.35 11.35-32.6 32.6-11.35-11.35a23.07 23.07 0 0 1 0-32.6z" fill="currentColor" fill-rule="evenodd"/><path d="m155.84 155.84a23.07 23.07 0 0 1 -32.6 0l-11.35-11.35 32.6-32.6 11.35 11.35a23.07 23.07 0 0 1 0 32.6z" fill="currentColor" fill-rule="evenodd"/><g fill="#32363b"><path d="m144.34 100 17.37-17.37a31.35 31.35 0 1 0 -44.34-44.34l-17.37 17.36-17.37-17.36a31.35 31.35 0 0 0 -44.34 44.34l17.36 17.37-17.36 17.37a31.35 31.35 0 0 0 44.34 44.34l17.37-17.36 17.37 17.36a31.35 31.35 0 1 0 44.34-44.34zm-83-6 32.66-32.61 44.61 44.61-32.61 32.62zm61.86-49.83a23.05 23.05 0 0 1 32.6 32.6l-17.33 17.36-32.6-32.6zm-79.08 0a23.08 23.08 0 0 1 32.6 0l11.39 11.34-32.6 32.6-11.35-11.35a23.07 23.07 0 0 1 0-32.6zm32.6 111.68a23.05 23.05 0 0 1 -32.6-32.6l17.37-17.37 32.6 32.6zm79.08 0a23.07 23.07 0 0 1 -32.6 0l-11.35-11.35 32.6-32.6 11.35 11.35a23.07 23.07 0 0 1 .04 32.59z" fill-rule="evenodd"/><circle cx="94.18" cy="82.33" r="4.15"/><path d="m108.86 97a4.16 4.16 0 1 0 -5.86 0 4.16 4.16 0 0 0 5.86 0z" fill-rule="evenodd"/><path d="m120.6 108.76a4.15 4.15 0 1 0 -5.87 0 4.15 4.15 0 0 0 5.87 0z" fill-rule="evenodd"/><circle cx="82.33" cy="94.18" r="4.15"/><path d="m91.14 103a4.15 4.15 0 1 0 5.86 0 4.15 4.15 0 0 0 -5.86 0z" fill-rule="evenodd"/><path d="m108.76 114.73a4.15 4.15 0 1 0 0 5.87 4.15 4.15 0 0 0 0-5.87z" fill-rule="evenodd"/></g></svg>