<svg viewBox="0 0 200 200" xmlns="http://www.w3.org/2000/svg"><path d="m100 36.48 37.62 63.52-37.62 63.52-37.62-63.52zm0-8.58-3.76 6.35-37.62 63.52-1.32 2.23 1.32 2.23 37.62 63.52 3.76 6.35 3.76-6.35 37.62-63.52 1.32-2.23-1.32-2.23-37.62-63.52z" fill="#32363b"/><g stroke="#32363b" stroke-linecap="round" stroke-width="4.37"><path d="m62.38 100h75.24" fill="currentColor"/><path d="m163.52 163.52-25.9-63.52 25.9-63.52" fill="none"/><path d="m36.48 36.48 25.9 63.52-25.9 63.52" fill="none"/></g><path d="m40.13 77.75h44.51v44.51h-44.51z" fill="currentColor" transform="matrix(.70710678 -.70710678 .70710678 .70710678 -52.44 73.4)"/><path d="m62.38 71.62 28.38 28.38-28.38 28.38-28.38-28.38zm0-6.19-3.09 3.1-28.38 28.38-3.1 3.09 3.1 3.09 28.38 28.38 3.09 3.1 3.09-3.1 28.38-28.38 3.15-3.09-3.1-3.09-28.43-28.38z" fill="#32363b"/><path d="m115.37 77.75h44.51v44.51h-44.51z" fill="currentColor" transform="matrix(.70710678 -.70710678 .70710678 .70710678 -30.4 126.6)"/><path d="m137.62 71.62 28.38 28.38-28.38 28.38-28.38-28.38zm0-6.19-3.09 3.1-28.38 28.38-3.1 3.09 3.1 3.09 28.38 28.38 3.09 3.1 3.09-3.1 28.38-28.38 3.1-3.09-3.1-3.09-28.38-28.38z" fill="#32363b"/><path d="m22.81 22.81h27.34v27.34h-27.34z" fill="currentColor"/><path d="m48 25v23h-23v-23zm4.37-4.38h-31.75v31.72h31.72v-31.72z" fill="#32363b"/><path d="m86.33 22.81h27.34v27.34h-27.34z" fill="currentColor"/><path d="m111.48 25v23h-23v-23zm4.38-4.38h-31.72v31.72h31.72z" fill="#32363b"/><path d="m86.33 149.84h27.34v27.34h-27.34z" fill="currentColor"/><path d="m111.48 152v23h-23v-23zm4.38-4.37h-31.72v31.72h31.72v-31.69z" fill="#32363b"/><path d="m149.84 22.81h27.34v27.34h-27.34z" fill="currentColor"/><path d="m175 25v23h-23v-23zm4.38-4.38h-31.72v31.72h31.72z" fill="#32363b"/><path d="m22.81 149.84h27.34v27.34h-27.34z" fill="currentColor"/><path d="m48 152v23h-23v-23zm4.37-4.37h-31.75v31.72h31.72v-31.69z" fill="#32363b"/><path d="m149.84 149.84h27.34v27.34h-27.34z" fill="currentColor"/><path d="m175 152v23h-23v-23zm4.38-4.37h-31.72v31.72h31.72v-31.69z" fill="#32363b"/></svg>