<svg viewBox="0 0 200 200" xmlns="http://www.w3.org/2000/svg"><g fill-rule="evenodd"><path d="m143.28 122.35h11.64l1.44-6.56h10.08a7.59 7.59 0 0 0 4.33-1.36 7.49 7.49 0 0 0 3.13-4.61l2.2-10c.41-1.9 1-4-.4-5.76s-2.92-1.7-4.74-1.7h-39.44a7.72 7.72 0 0 0 -3.6 1 5.42 5.42 0 0 0 -3.4-1h-18l1.48-6.61h-11.71l-1.44 6.49h-10.26a7.31 7.31 0 0 0 -4 1.2 5.84 5.84 0 0 0 -3.41-1h-33.81l1.55-6.75h-11.64l-6.71 30h11.63l3.5-15.36h3.93c.47 0 .38.26.3.62l-3.31 14.74h77.12a7.22 7.22 0 0 0 3.51-.87 5.72 5.72 0 0 0 3.6 1h17.86zm-50.37-22h-3.43c-.61 0-.77.27-.89.81l-1.29 5.79c-.12.55.16.64.65.64h3.34zm19.69.14h3.67c.7 0 .66.37.54.94l-1.26 5.67c-.15.65-.56.64-1.13.64h-3.73c-.55 0-.55-.32-.45-.76l1.25-5.67c.16-.71.43-.83 1.11-.83zm24.14 0h3.66c.71 0 .67.37.54.94l-1.26 5.67c-.14.65-.55.64-1.12.64h-3.73c-.55 0-.55-.32-.46-.76l1.26-5.67c.15-.71.43-.83 1.11-.83zm21.52 7.31h3.43c.61 0 .77-.28.89-.82l1.29-5.78c.12-.55-.16-.64-.65-.64h-3.34z" fill="#32363b"/><path d="m109.92 94.08h14.62a3.23 3.23 0 0 1 3.23 4.15l-2.61 11.77a5.48 5.48 0 0 1 -5.06 4.15h-14.63a3.24 3.24 0 0 1 -3.23-4.15l2.61-11.77a5.48 5.48 0 0 1 5.07-4.15zm2.65 4.73h7.23a1.71 1.71 0 0 1 1.71 2.19l-1.38 6.23a2.9 2.9 0 0 1 -2.68 2.19h-7.24a1.7 1.7 0 0 1 -1.7-2.19l1.37-6.23a2.91 2.91 0 0 1 2.69-2.19z" fill="#1f1917"/><path d="m134 94.08h14.63a3.24 3.24 0 0 1 3.23 4.15l-2.59 11.77a5.48 5.48 0 0 1 -5.07 4.15h-14.62a3.23 3.23 0 0 1 -3.23-4.15l2.65-11.77a5.5 5.5 0 0 1 5-4.15zm2.65 4.73h7.24a1.71 1.71 0 0 1 1.7 2.19l-1.37 6.23a2.91 2.91 0 0 1 -2.69 2.19h-7.23a1.71 1.71 0 0 1 -1.71-2.19l1.41-6.23a2.9 2.9 0 0 1 2.67-2.19z" fill="#1f1917"/><path d="m154 94.08h17.54a3.24 3.24 0 0 1 3.24 4.16l-2.61 11.76a5.48 5.48 0 0 1 -5.07 4.14h-17.55zm4.58 4.73h8.23a1.71 1.71 0 0 1 1.7 2.19l-1.38 6.23a2.91 2.91 0 0 1 -2.68 2.2h-8.23z" fill="#1f1917"/><path d="m100.12 114h-17.55a3.24 3.24 0 0 1 -3.24-4.15l2.61-11.76a5.49 5.49 0 0 1 5.06-4.16h17.55zm-4.59-4.73h-8.22a1.7 1.7 0 0 1 -1.71-2.19l1.4-6.24a2.92 2.92 0 0 1 2.68-2.19h8.23z" fill="#1f1917"/><path d="m77.22 114h-18.76a3.23 3.23 0 0 1 -3.23-4.15l.76-3.41.14-.66a5.5 5.5 0 0 1 5.07-4.15h13.13l.19-.87a1.7 1.7 0 0 0 -1.63-2.1h-15.2l1.05-4.72h18.85a3.23 3.23 0 0 1 3.15 4.15l-.35 1.6-.39 1.94-2.21 10zm-14.58-4.73h10l.65-2.92h-10a1.93 1.93 0 0 0 -1.78 1.47 1.13 1.13 0 0 0 1.11 1.46z" fill="#1f1917"/><g fill="currentColor"><path d="m109.92 94.08h14.62a3.23 3.23 0 0 1 3.23 4.15l-2.61 11.77a5.48 5.48 0 0 1 -5.06 4.15h-14.63a3.24 3.24 0 0 1 -3.23-4.15l2.61-11.77a5.48 5.48 0 0 1 5.07-4.15zm2.65 4.73h7.23a1.71 1.71 0 0 1 1.71 2.19l-1.38 6.23a2.9 2.9 0 0 1 -2.68 2.19h-7.24a1.7 1.7 0 0 1 -1.7-2.19l1.37-6.23a2.91 2.91 0 0 1 2.69-2.19z"/><path d="m134 94.08h14.63a3.24 3.24 0 0 1 3.23 4.15l-2.59 11.77a5.48 5.48 0 0 1 -5.07 4.15h-14.62a3.23 3.23 0 0 1 -3.23-4.15l2.65-11.77a5.5 5.5 0 0 1 5-4.15zm2.65 4.73h7.24a1.71 1.71 0 0 1 1.7 2.19l-1.37 6.23a2.91 2.91 0 0 1 -2.69 2.19h-7.23a1.71 1.71 0 0 1 -1.71-2.19l1.41-6.23a2.9 2.9 0 0 1 2.67-2.19z"/><path d="m154 94.08-5.93 26.78h5.62l1.49-6.72h11.92a5.48 5.48 0 0 0 5.07-4.14l2.61-11.76a3.24 3.24 0 0 0 -3.24-4.16zm4.58 4.73h8.23a1.71 1.71 0 0 1 1.7 2.19l-1.38 6.23a2.91 2.91 0 0 1 -2.68 2.2h-8.23z"/><path d="m100.43 87.21-1.5 6.72h-11.93a5.49 5.49 0 0 0 -5.07 4.15l-2.61 11.76a3.24 3.24 0 0 0 3.25 4.16h17.55l5.93-26.78zm-10.77 11.44h8.23l-2.36 10.61h-8.22a1.7 1.7 0 0 1 -1.71-2.19l1.4-6.23a2.92 2.92 0 0 1 2.66-2.19z"/><path d="m53.43 94.08h-11.94l1.51-6.87h-5.61l-2.28 10.27-.1.43-.09.33-1.89 8.52-1.57 7.24h5.63l1.61-7.23 1.3-5.77.27-1.2.22-1h8.21a1.72 1.72 0 0 1 1.7 2.2l-2.88 13h5.64l1.59-7.16 1.91-8.59a3.24 3.24 0 0 0 -3.23-4.17z"/><path d="m77.22 114h-18.76a3.23 3.23 0 0 1 -3.23-4.15l.76-3.41.14-.66a5.5 5.5 0 0 1 5.07-4.15h13.13l.19-.87a1.7 1.7 0 0 0 -1.63-2.1h-15.2l1.05-4.72h18.85a3.23 3.23 0 0 1 3.15 4.15l-.35 1.6-.39 1.94-2.21 10zm-14.58-4.73h10l.65-2.92h-10a1.93 1.93 0 0 0 -1.78 1.47 1.13 1.13 0 0 0 1.11 1.46z"/></g></g></svg>