<svg enable-background="new 0 0 76.5 83.5" viewBox="0 0 76.5 83.5" xmlns="http://www.w3.org/2000/svg"><path d="m66.7 49c-7.6 2.2-17.7 3.3-28.4 3.3s-20.8-1.2-28.5-3.3c-2.2-.6-4.2-1.3-5.9-2v22c0 5.2 15.3 9.4 34.3 9.4s34.3-4.2 34.3-9.4v-22c-1.7.7-3.6 1.3-5.8 2zm-6.3 19.7c-2.5 0-4.6-2.1-4.6-4.6s2.1-4.6 4.6-4.6 4.6 2.1 4.6 4.6-2.1 4.6-4.6 4.6zm-22.1-63.6c-19 0-34.3 4.2-34.3 9.4v25.4c3.6 2.4 14.8 6.1 34.3 6.1 19.4 0 30.7-3.7 34.3-6.1v-25.4c0-5.2-15.3-9.4-34.3-9.4zm22.1 31.7c-2.5 0-4.6-2.1-4.6-4.6s2.1-4.6 4.6-4.6 4.6 2.1 4.6 4.6-2.1 4.6-4.6 4.6zm-22.1-14.3c-20.9 0-32.3-4.9-32.3-7.4s11.4-7.4 32.3-7.4 32.3 4.9 32.3 7.4-11.5 7.4-32.3 7.4z" fill="currentColor" class="u-fill-current-color"/><path d="m63.6 4c-6.8-1.9-15.8-2.9-25.3-2.9s-18.5 1-25.3 2.9c-8.6 2.4-13 5.9-13 10.5v54.5c0 4.6 4.4 8.1 13 10.5 6.8 1.9 15.8 2.9 25.3 2.9s18.4-1 25.3-2.9c8.6-2.3 13-5.9 13-10.5v-54.5c0-4.6-4.4-8.1-13-10.5zm8.9 65c0 5.2-15.3 9.4-34.3 9.4s-34.3-4.2-34.3-9.4v-22c1.7.7 3.7 1.4 5.9 2 7.7 2.1 17.8 3.3 28.5 3.3s20.8-1.1 28.4-3.3c2.2-.7 4.1-1.3 5.8-2zm.1-29.1c-3.6 2.4-14.9 6.1-34.3 6.1-19.5 0-30.7-3.7-34.3-6.1v-25.4c0-5.2 15.3-9.4 34.3-9.4s34.3 4.2 34.3 9.4zm-34.3-17.4c-20.9 0-32.3-4.9-32.3-7.4s11.4-7.4 32.3-7.4 32.3 4.9 32.3 7.4-11.5 7.4-32.3 7.4z"/></svg>