<svg viewBox="0 0 200 200" xmlns="http://www.w3.org/2000/svg"><path d="m31.07 129.23a73.41 73.41 0 0 1 0-58.46 72 72 0 0 1 16-23.71 78.14 78.14 0 0 1 23.71-16 76.63 76.63 0 0 1 58.46.55 72 72 0 0 1 23.71 16 78.14 78.14 0 0 1 16 23.71 73.41 73.41 0 0 1 0 58.46 71.84 71.84 0 0 1 -16 23.71 78.17 78.17 0 0 1 -23.71 16 88.21 88.21 0 0 1 -29.23 5 77.07 77.07 0 0 1 -29.23-6.07 72 72 0 0 1 -23.71-16c-6.63-6.1-12.14-14.37-16-23.19zm3.3-56.8a68.38 68.38 0 0 0 -5.51 27.57 68.38 68.38 0 0 0 5.51 27.57c3.87 8.83 8.83 16.55 15.45 22.61a71.61 71.61 0 0 0 22.61 15.45 68.41 68.41 0 0 0 27.57 5.51 68.38 68.38 0 0 0 27.57-5.51c8.83-3.87 16.55-8.83 22.61-15.45a71.61 71.61 0 0 0 15.45-22.61 68.38 68.38 0 0 0 5.51-27.57 68.41 68.41 0 0 0 -5.51-27.57c-3.87-8.83-8.83-16.55-15.45-22.61-6.06-6.62-13.78-11.58-22.61-15.45a68.38 68.38 0 0 0 -27.57-5.51 68.38 68.38 0 0 0 -27.57 5.51c-8.83 3.87-16.55 8.83-22.61 15.45-6.62 6.06-11.58 13.78-15.45 22.61zm1.63 27.57a60.9 60.9 0 0 1 5.51-25.92l30.37 83.82a67.38 67.38 0 0 1 -26.48-23.16c-6.06-11.03-9.4-22.06-9.4-34.74zm10.51-35.29c6.06-8.83 13.23-16 22.61-21a61.2 61.2 0 0 1 30.88-7.71 62.34 62.34 0 0 1 43 17.09h-.55a10 10 0 0 0 -7.72 3.31 10.93 10.93 0 0 0 -3.31 7.72v2.21a2 2 0 0 0 .58 1.67c0 .56.55 1.11.55 1.66a2 2 0 0 1 .55 1.65c0 .56.55 1.11 1.1 1.66a6.81 6.81 0 0 0 1.1 1.65c0 .55.56 1.11 1.11 2.21a6.81 6.81 0 0 0 1.1 1.65c3.31 6.07 5.51 11.58 5.51 17.65v3.31a14.14 14.14 0 0 1 -1.1 3.86 35.31 35.31 0 0 1 -1.1 3.86 22.67 22.67 0 0 1 -1.66 5 16.81 16.81 0 0 1 -1.65 5l-6.62 21.5-23.17-68.99c2.76 0 5-.55 7.17-.55 1.1 0 1.65-.55 2.21-1.66a2.5 2.5 0 0 0 0-2.75c.55-.56-.56-.56-1.11-.56l-17.09 1.11c-4.41 0-9.93-.55-17.1-1.11a2 2 0 0 0 -1.65.56l-1.15 1.1v1.65a2 2 0 0 0 .56 1.11 2 2 0 0 0 1.65.55l6.62.55 9.92 27.57-13.75 41.91-23.15-68.93c2.75 0 5-.55 7.16-.55 1.11 0 1.66-.55 2.21-1.66a2.5 2.5 0 0 0 0-2.75c-.55-1.11-1.65-1.11-2.76-1.11l-17.09.56zm35.29 96.5 19.3-55.7 19.9 54.05c0 .55 0 .55.55 1.1-7.17 2.21-14.34 3.86-21.51 3.86-6.11-.52-12.17-1.1-18.24-3.31zm50.2-6.06 19.84-56.25q5-14.07 5-23.16a26.9 26.9 0 0 0 -.55-6.62 61.2 61.2 0 0 1 7.71 30.88 59.62 59.62 0 0 1 -8.82 32 58.63 58.63 0 0 1 -23.18 23.15z" fill="#32363b"/></svg>