<svg class="{{ . }}" viewBox="0 0 336.08 374.91" width="336.08" xmlns="http://www.w3.org/2000/svg" xmlns:xlink="http://www.w3.org/1999/xlink"><clipPath id="a"><path d="m262.92 174.44s0-.05 0-.08v-.14a.81.81 0 0 0 -.07-.22.69.69 0 0 0 -.05-.13 2.43 2.43 0 0 0 -.14-.2l-.08-.1a1.73 1.73 0 0 0 -.21-.17s0 0-.07-.05l-31.3-17.35a1.36 1.36 0 0 0 -1.38 0l-26.34 16.1-.12.09-.13.11a1.58 1.58 0 0 0 -.12.15 1.47 1.47 0 0 0 -.1.13l-.08.18a.78.78 0 0 0 -.05.14 1.55 1.55 0 0 0 0 .21s0 .09 0 .13l-.28 14-10.71-7.08a1.39 1.39 0 0 0 -1.48 0l-15.41 9.43-.67-15.68a.29.29 0 0 0 0-.09 1.2 1.2 0 0 0 0-.2.88.88 0 0 1 -.05-.15l-.08-.17a.64.64 0 0 0 -.1-.13.49.49 0 0 0 -.11-.14l-.13-.12a.71.71 0 0 0 -.09-.07l-16-10.78 15-7.81a1.37 1.37 0 0 0 .73-1.28l-2.52-59a1.52 1.52 0 0 0 0-.21s0-.06 0-.09a1.22 1.22 0 0 0 -.14-.33v-.06a1 1 0 0 0 -.19-.23l-.08-.07-.11-.1-.11-.05h-.05l-40.68-19.54a1.33 1.33 0 0 0 -1-.07l-55.19 17.19a.15.15 0 0 1 -.07 0 1.59 1.59 0 0 0 -.29.15.59.59 0 0 0 -.08.08 1.71 1.71 0 0 0 -.2.18l-.1.17a1 1 0 0 0 -.1.17 1.41 1.41 0 0 0 -.06.22v.13a1.47 1.47 0 0 0 0 .21v.19s0 0 0 0l12.31 59.48a1.42 1.42 0 0 0 .5.81l16.71 13-12.08 5.76h-.06-.06s0 0-.06.06a1 1 0 0 0 -.2.16l-.09.1a1.14 1.14 0 0 0 -.15.23.41.41 0 0 0 -.05.09 1.61 1.61 0 0 0 -.1.36v.07a1.27 1.27 0 0 0 0 .34l9.26 44.77a1.48 1.48 0 0 0 .4.72l11.63 11.14-7.71 4.72a1.13 1.13 0 0 0 -.27.22l-.06.07a1.56 1.56 0 0 0 -.17.25v.09a1.66 1.66 0 0 0 -.11.38 1.7 1.7 0 0 0 0 .39l7.18 34.67a1.35 1.35 0 0 0 .34.66l29 30.82a.81.81 0 0 0 .14.12v.05a1.64 1.64 0 0 0 .29.16 1.27 1.27 0 0 0 .47.09 1.47 1.47 0 0 0 .41-.07h.09.1a.78.78 0 0 0 .15-.1l.11-.06 37.45-29.76a1.38 1.38 0 0 0 .52-1.13l-.88-20.43 12.48 10.5.07.05a1.64 1.64 0 0 0 .22.14h.08.11a1.09 1.09 0 0 0 .4.07 1.34 1.34 0 0 0 .4-.06h.09.1a1.88 1.88 0 0 0 .18-.12h.09l29.93-23.87a1.36 1.36 0 0 0 .51-1l.91-15 9.11 6.34h.06l.08.05.16.07h.12a1.49 1.49 0 0 0 .36.05 1.34 1.34 0 0 0 .4-.06h.09.1l.2-.14h.07l24.42-19.46a1.46 1.46 0 0 0 .5-.9l4.33-32.05a.34.34 0 0 0 0-.1.43.43 0 0 0 .01-.21z"/></clipPath><path d="m262.92 174.44s0-.05 0-.08v-.14a.81.81 0 0 0 -.07-.22.69.69 0 0 0 -.05-.13 2.43 2.43 0 0 0 -.14-.2l-.08-.1a1.73 1.73 0 0 0 -.21-.17s0 0-.07-.05l-31.3-17.35a1.36 1.36 0 0 0 -1.38 0l-26.34 16.1-.12.09-.13.11a1.58 1.58 0 0 0 -.12.15 1.47 1.47 0 0 0 -.1.13l-.08.18a.78.78 0 0 0 -.05.14 1.55 1.55 0 0 0 0 .21s0 .09 0 .13l-.28 14-10.71-7.08a1.39 1.39 0 0 0 -1.48 0l-15.41 9.43-.67-15.68a.29.29 0 0 0 0-.09 1.2 1.2 0 0 0 0-.2.88.88 0 0 1 -.05-.15l-.08-.17a.64.64 0 0 0 -.1-.13.49.49 0 0 0 -.11-.14l-.13-.12a.71.71 0 0 0 -.09-.07l-16-10.78 15-7.81a1.37 1.37 0 0 0 .73-1.28l-2.52-59a1.52 1.52 0 0 0 0-.21s0-.06 0-.09a1.22 1.22 0 0 0 -.14-.33v-.06a1 1 0 0 0 -.19-.23l-.08-.07-.11-.1-.11-.05h-.05l-40.68-19.54a1.33 1.33 0 0 0 -1-.07l-55.19 17.19a.15.15 0 0 1 -.07 0 1.59 1.59 0 0 0 -.29.15.59.59 0 0 0 -.08.08 1.71 1.71 0 0 0 -.2.18l-.1.17a1 1 0 0 0 -.1.17 1.41 1.41 0 0 0 -.06.22v.13a1.47 1.47 0 0 0 0 .21v.19s0 0 0 0l12.31 59.48a1.42 1.42 0 0 0 .5.81l16.71 13-12.08 5.76h-.06-.06s0 0-.06.06a1 1 0 0 0 -.2.16l-.09.1a1.14 1.14 0 0 0 -.15.23.41.41 0 0 0 -.05.09 1.61 1.61 0 0 0 -.1.36v.07a1.27 1.27 0 0 0 0 .34l9.26 44.77a1.48 1.48 0 0 0 .4.72l11.63 11.14-7.71 4.72a1.13 1.13 0 0 0 -.27.22l-.06.07a1.56 1.56 0 0 0 -.17.25v.09a1.66 1.66 0 0 0 -.11.38 1.7 1.7 0 0 0 0 .39l7.18 34.67a1.35 1.35 0 0 0 .34.66l29 30.82a.81.81 0 0 0 .14.12v.05a1.64 1.64 0 0 0 .29.16 1.27 1.27 0 0 0 .47.09 1.47 1.47 0 0 0 .41-.07h.09.1a.78.78 0 0 0 .15-.1l.11-.06 37.45-29.76a1.38 1.38 0 0 0 .52-1.13l-.88-20.43 12.48 10.5.07.05a1.64 1.64 0 0 0 .22.14h.08.11a1.09 1.09 0 0 0 .4.07 1.34 1.34 0 0 0 .4-.06h.09.1a1.88 1.88 0 0 0 .18-.12h.09l29.93-23.87a1.36 1.36 0 0 0 .51-1l.91-15 9.11 6.34h.06l.08.05.16.07h.12a1.49 1.49 0 0 0 .36.05 1.34 1.34 0 0 0 .4-.06h.09.1l.2-.14h.07l24.42-19.46a1.46 1.46 0 0 0 .5-.9l4.33-32.05a.34.34 0 0 0 0-.1.43.43 0 0 0 .01-.21z"/><g clip-path="url(#a)"><g fill="#00a95c"><path d="m263.09 173.62-4.58 33.7-25.78 20.55 2.81-33.05z"/><path d="m190.8 226.78-.1 34.68 31.35-25.04 1.98-33.99z"/><path d="m176.74 236.1-41.85 30.71 4.66 35.6 38.71-30.83z"/><path d="m176.04 219.13-1.83-46.19-48.66 29.48 6.69 46.31z"/><path d="m170.63 93.78-57.64 23.38 9.5 64.33 35.17-19.51.12.34 15.92-8.03v-1.21z"/></g><path d="m235.54 194.83-2.8 32.87-9.83-6.88 1.09-18.39v-.05s0 0 0-.06a1.1 1.1 0 0 0 0-.18s0-.08 0-.12a1.17 1.17 0 0 0 -.12-.31s0 0 0 0a1 1 0 0 0 -.21-.29l-.06-.05a1.22 1.22 0 0 0 -.17-.15l-21.07-13.91.29-14.21zm-44.74 31.95-14.88-10.72.06 2.33a1.37 1.37 0 0 1 -.61 1.2l-9.93 6.69 10.8 8.82a.6.6 0 0 0 .08.08.84.84 0 0 1 .15.18.61.61 0 0 1 .07.1l.09.2a.56.56 0 0 1 0 .12 1.7 1.7 0 0 1 0 .22s0 0 0 .08l.6 14 13.36 11.25zm-89.41 7.43 7.51 35.68 30.71 32.7-4.72-35.78zm30.85 14.52-6.7-46.31-36.54-29.85 9 45.37zm-9.75-67.24-9.49-64.33-41.27-26.16 12.8 60.81z" fill="#546758"/></g></svg>