<svg viewBox="0 0 200 200" xmlns="http://www.w3.org/2000/svg"><path d="m161.36 25h-122.72a13.66 13.66 0 0 0 -13.64 13.64v122.72a13.66 13.66 0 0 0 13.64 13.64h122.72a13.66 13.66 0 0 0 13.64-13.64v-122.72a13.66 13.66 0 0 0 -13.64-13.64z" fill="#32363b"/><path d="m168.18 161.36a6.83 6.83 0 0 1 -6.82 6.82h-122.72a6.83 6.83 0 0 1 -6.82-6.82v-122.72a6.83 6.83 0 0 1 6.82-6.82h122.72a6.83 6.83 0 0 1 6.82 6.82z" fill="currentColor"/><g fill="#32363b"><path d="m86.36 83v-20.5a3.41 3.41 0 0 0 -3.36-3.41h-20.5a3.41 3.41 0 0 0 -3.41 3.41v20.5a3.41 3.41 0 0 0 3.41 3.41h20.5a3.4 3.4 0 0 0 3.36-3.41z"/><path d="m137.5 59.09h-20.45a3.41 3.41 0 0 0 -3.41 3.41v20.5a3.4 3.4 0 0 0 3.41 3.41h20.45a3.41 3.41 0 0 0 3.41-3.41v-20.5a3.41 3.41 0 0 0 -3.41-3.41z"/><path d="m130.68 100h-17v-10.23a3.41 3.41 0 0 0 -3.41-3.41h-20.5a3.41 3.41 0 0 0 -3.41 3.41v10.23h-17a3.4 3.4 0 0 0 -3.41 3.41v34.09a3.41 3.41 0 0 0 3.41 3.41h13.64a3.41 3.41 0 0 0 3.41-3.41v-10.23h27.28v10.23a3.41 3.41 0 0 0 3.41 3.41h13.63a3.41 3.41 0 0 0 3.41-3.41v-34.09a3.4 3.4 0 0 0 -3.46-3.41z"/></g></svg>