<svg viewBox="0 0 200 200" xmlns="http://www.w3.org/2000/svg"><path d="m173.69 84.7-71.21-57.92a4.43 4.43 0 0 0 -5 0l-71.17 57.92a3.55 3.55 0 0 0 -1.31 2.38 3.5 3.5 0 0 0 .78 2.6l13.46 16.56a3.56 3.56 0 0 0 2.76 1.31h.19a2.85 2.85 0 0 0 .29 0 3.56 3.56 0 0 0 2.24-.79l1.81-1.47v63.12a5.59 5.59 0 0 0 5.6 5.59h95.75a5.59 5.59 0 0 0 5.58-5.58v-63.13l1.81 1.47a3.58 3.58 0 0 0 2.6.77h.15.33a3.51 3.51 0 0 0 2.39-1.29l13.47-16.56a3.54 3.54 0 0 0 -.52-5zm-27.32 82.19h-27.6v-40.57a18.89 18.89 0 0 0 -5.49-13.3 18.67 18.67 0 0 0 -14.46-5.44c-9.87.6-17.59 9.1-17.59 19.36v39.95h-27.59v-67.37l46.36-37.71 46.36 37.71v67.37z" fill="#32363b"/><path d="m153.46 95.75v-.35h-.46l-50.52-41.11a3.54 3.54 0 0 0 -2.48-.76 3.49 3.49 0 0 0 -2.48.76l-50.52 41.11h-.44v.35l-3.72 3-8.84-10.75 66-53.7 66 53.7-8.8 10.82z" fill="currentColor"/></svg>