<svg viewBox="0 0 200 200" xmlns="http://www.w3.org/2000/svg"><path d="m87.84 141.2c-1.75 0-3.45 0-5.06-.13-18.67-1-37.08-3.9-45.31-17.67a18.13 18.13 0 0 1 0-14.18c3.31-8.07 12.25-14.55 26.53-19.22a223.05 223.05 0 0 1 59.38-10.78c1.75-.06 3.49-.1 5.16-.1 22.22 0 36.88 5.16 43.55 15.34 5.52 8.42 2.06 18.83-9 27.16-8 6-27.19 11.84-32.86 13.48-8.07 2.24-26.07 6.1-42.39 6.1z" fill="currentColor"/><path d="m128.55 81.27c21.44 0 35.48 4.83 41.72 14.34 4.9 7.49 1.71 16.54-8.51 24.22-6.16 4.6-20.65 9.8-32.14 13.12-8 2.25-25.7 6.06-41.78 6.06-1.71 0-3.37 0-4.94-.13-18-1-35.75-3.69-43.49-16.51a16 16 0 0 1 .07-12.37c3.08-7.32 11.8-13.52 25.21-17.94a221 221 0 0 1 58.77-10.68c1.73-.06 3.44-.09 5.09-.09m0-4.37c-1.73 0-3.47 0-5.24.09a225.15 225.15 0 0 0 -60 10.9c-39.83 13.09-27.76 36.53-27.76 36.53 9.14 15.41 30.17 17.87 47.11 18.81 1.69.09 3.43.14 5.18.14 15.79 0 33.48-3.54 43-6.23 10.55-3 26.37-8.44 33.57-13.83 12-9 15.76-20.62 9.55-30.11-7.96-12.09-25.33-16.32-45.41-16.32z" fill="#32363b"/><path d="m112.76 107.63c-18.84 0-41.53-2.13-44.08-3.66-2.74-2-6.68-12.58-5.86-14.62a55.56 55.56 0 0 0 6.53-14.35c.3-1 .62-2.29 1-3.67 1.4-5.41 3.5-13.59 6.61-16.49 2.29-2.13 5.49-3.08 10.39-3.08a70.49 70.49 0 0 1 7.51.49c8.42.92 33.63 5.49 39.52 7.57 8 2.84 11.84 7.24 12.14 13.85.1 2.23.21 4.21.31 6 .34 5.79.54 9.29-.25 13.09s-12.06 14-26 14.73c-2.15.08-4.77.14-7.82.14z" fill="currentColor"/><path d="m87.33 53.91a68.67 68.67 0 0 1 7.27.48c8.34.91 33.25 5.41 39 7.45 7.14 2.54 10.44 6.2 10.69 11.89.1 2.25.22 4.25.32 6 .33 5.62.52 9-.21 12.53-.19.9-2.24 4-7.1 7.19a34.58 34.58 0 0 1 -16.9 5.79c-2.08.13-4.65.19-7.66.19-17.31 0-39.16-1.92-42.91-3.35-1.88-1.75-5-9.27-4.93-11.94a58.17 58.17 0 0 0 6.53-14.58c.31-1.08.65-2.37 1-3.73 1.17-4.54 3.34-13 6-15.44 1.85-1.72 4.6-2.49 8.9-2.49m0-4.38c-4.94 0-8.91.9-11.88 3.67-4.39 4.1-6.62 15.7-8.2 21.15a53.45 53.45 0 0 1 -6.25 13.84c-1.88 2.69 3 15.06 6.44 17.58 2.93 2.13 28.66 4.06 45.34 4.06 3 0 5.69-.06 7.92-.2 14.59-.76 26.91-11.13 28-16.46s.4-10.11 0-19.63-7.5-13.65-13.59-15.82-31.42-6.71-40.03-7.71a74.42 74.42 0 0 0 -7.75-.51z" fill="#32363b"/><path d="m82.6 72.83c.88 9.61 11.4 21.17 26.13 21.17 0 0 15-2 24.13-10.49s1.06-14.59-1.4-16.11" fill="currentColor" stroke="#32363b" stroke-linecap="round" stroke-linejoin="round" stroke-width="4.37"/><path d="m148.45 91.58c-.18 0-.24.52-.47.82-1.93 3.16-7.68 8.55-20.74 8.55h-35.5c-22.38 0-28.89-6-30.53-10.37-.11-.41-.29-.94-.47-.94s-.29.94-.29.94l-1.7 16.23c0 7.44 19.28 13.47 44.06 13.47s46.05-3.51 46.05-13.47c0 0 .11-9.9.06-14.3 0-.46-.06-.93-.47-.93z" fill="#32363b"/></svg>