<svg viewBox="0 0 200 200" xmlns="http://www.w3.org/2000/svg"><g fill-rule="evenodd"><path d="m156.49 55.88-47.36-28.11a17.82 17.82 0 0 0 -18.27 0l-47.35 28.11a18.89 18.89 0 0 0 -9.13 16.27v56.22a18.88 18.88 0 0 0 9.13 16.26l47.36 28.11a17.86 17.86 0 0 0 18.26 0l47.36-28.11a18.88 18.88 0 0 0 9.13-16.26v-56.22a18.89 18.89 0 0 0 -9.13-16.27z" fill="#fefefe"/><path d="m92.52 169.86-47.35-28.11a15.57 15.57 0 0 1 -7.51-13.39v-56.21a15.58 15.58 0 0 1 7.5-13.39l47.36-28.11a14.61 14.61 0 0 1 15 0l47.35 28.11a15.48 15.48 0 0 1 7.28 10.83c-1.57-3.36-5.11-4.27-9.24-1.86l-44.8 27.68c-5.59 3.26-9.71 6.93-9.71 13.66v55.21c0 4 1.63 6.64 4.13 7.4a14.2 14.2 0 0 1 -10-1.82m64-114-47.4-28.09a17.82 17.82 0 0 0 -18.27 0l-47.35 28.11a18.89 18.89 0 0 0 -9.13 16.27v56.21a18.89 18.89 0 0 0 9.13 16.27l47.36 28.11a17.86 17.86 0 0 0 18.26 0l47.36-28.11a18.89 18.89 0 0 0 9.13-16.27v-56.21a18.89 18.89 0 0 0 -9.13-16.27" fill="#32363b"/><path d="m144.08 133.8-11.8 7.06a.86.86 0 0 0 -.54.76v3.09c0 .37.25.53.57.35l12-7.28c.31-.18.36-.53.36-.91v-2.72c0-.37-.25-.53-.56-.35" fill="currentColor"/><path d="m119 107.83c.38-.2.69 0 .7.54v4.08a7.53 7.53 0 0 1 4.53-.55c.29.08.42.47.3.95l-.89 3.61a1.6 1.6 0 0 1 -.41.72.94.94 0 0 1 -.24.18.49.49 0 0 1 -.35 0 6.09 6.09 0 0 0 -4.37.71 5.48 5.48 0 0 0 -3.23 4.86c0 1.86 1 2.42 4.25 2.47 4.38.08 6.27 2 6.31 6.4a15.65 15.65 0 0 1 -5.8 11.82l.08 4a1.46 1.46 0 0 1 -.69 1.23l-2.39 1.38c-.39.19-.7 0-.7-.53v-4a7.8 7.8 0 0 1 -5.45.52c-.25-.1-.35-.46-.25-.88l.86-3.66a1.49 1.49 0 0 1 .43-.75.72.72 0 0 1 .23-.17.47.47 0 0 1 .38 0 6.66 6.66 0 0 0 5-.63 6.56 6.56 0 0 0 3.71-5.67c0-2-1.14-2.91-3.84-2.93-3.44 0-6.64-.67-6.7-5.73a14.73 14.73 0 0 1 5.53-11.17v-4.07a1.44 1.44 0 0 1 .69-1.25z" fill="#fefefe"/></g></svg>