<svg xmlns="http://www.w3.org/2000/svg" id="Layer_1" x="0" y="0" version="1.1" viewBox="0 0 100 100" xml:space="preserve">
  <title>GPU</title>
  <g>
    <path d="M70.7 20.3H29.3c-4.9 0-8.9 4-8.9 8.9v41.5c0 4.9 4 8.9 8.9 8.9h41.5c4.9 0 8.9-4 8.9-8.9V29.3c0-5-4-9-9-9zm6 50.2c0 3.4-2.8 6.2-6.2 6.2h-41c-3.4 0-6.2-2.8-6.2-6.2v-41c0-3.4 2.8-6.2 6.2-6.2h40.9c3.4 0 6.2 2.8 6.2 6.2l.1 41zM16.8 30.5h-6.2c-.3 0-.6-.4-.6-.7 0-.3.3-.5.6-.6h6.2c.3 0 .7.2.7.6 0 .3-.2.7-.6.7h-.1zM16.8 35.5h-6.2c-.3 0-.6-.4-.6-.7 0-.3.3-.5.6-.6h6.2c.3 0 .7.2.7.6 0 .3-.2.7-.6.7h-.1zM16.8 40.6h-6.2c-.3 0-.6-.3-.6-.6s.3-.6.6-.6h6.2c.3 0 .6.3.6.6.1.3-.2.6-.6.6zM16.8 45.6h-6.2c-.3 0-.6-.3-.6-.6s.3-.6.6-.6h6.2c.3 0 .6.3.6.6s-.2.6-.6.6zM16.8 50.6h-6.2c-.3 0-.6-.3-.6-.6s.3-.6.6-.6h6.2c.3 0 .6.3.6.6s-.2.6-.6.6zM16.8 55.7h-6.2c-.3 0-.6-.3-.6-.6s.3-.6.6-.6h6.2c.3 0 .6.3.6.6s-.2.6-.6.6zM16.8 60.7h-6.2c-.3 0-.6-.3-.6-.6s.3-.6.6-.6h6.2c.3 0 .6.3.6.6s-.2.6-.6.6zM16.8 65.7h-6.2c-.3 0-.6-.3-.6-.6s.3-.6.6-.6h6.2c.3 0 .6.3.6.6s-.2.6-.6.6zM16.8 70.7h-6.2c-.3 0-.6-.3-.6-.6s.3-.6.6-.6h6.2c.3 0 .6.3.6.6 0 .4-.2.6-.6.6zM89.4 30.5h-6.2c-.3 0-.6-.4-.6-.7 0-.3.3-.5.6-.6h6.2c.3 0 .6.4.6.7-.1.3-.3.6-.6.6zM89.4 35.5h-6.2c-.3 0-.6-.4-.6-.7 0-.3.3-.5.6-.6h6.2c.3 0 .6.4.6.7-.1.4-.3.6-.6.6zM89.4 40.6h-6.2c-.3 0-.6-.3-.6-.6s.3-.6.6-.6h6.2c.3 0 .6.3.6.6s-.3.6-.6.6zM89.4 45.6h-6.2c-.3 0-.6-.3-.6-.6s.3-.6.6-.6h6.2c.3 0 .6.3.6.6s-.3.6-.6.6zM89.4 50.6h-6.2c-.3 0-.6-.3-.6-.6s.3-.6.6-.6h6.2c.3 0 .6.3.6.6s-.3.6-.6.6zM89.4 55.7h-6.2c-.3 0-.6-.3-.6-.6s.3-.6.6-.6h6.2c.3 0 .6.3.6.6s-.3.6-.6.6zM89.4 60.7h-6.2c-.3 0-.6-.3-.6-.6s.3-.6.6-.6h6.2c.3 0 .6.3.6.6s-.3.6-.6.6zM89.4 65.7h-6.2c-.3 0-.6-.3-.6-.6s.3-.6.6-.6h6.2c.3 0 .6.3.6.6s-.3.6-.6.6zM89.4 70.7h-6.2c-.3 0-.6-.3-.6-.6s.3-.6.6-.6h6.2c.3 0 .6.3.6.6 0 .4-.3.6-.6.6zM70.1 17.4c-.3 0-.6-.3-.6-.6v-6.2c0-.3.3-.6.6-.6s.6.3.6.6v6.2c.1.4-.2.6-.6.6zM65.1 17.4c-.3 0-.6-.3-.6-.6v-6.2c0-.3.3-.6.6-.6s.6.3.6.6v6.2c0 .4-.3.6-.6.6zM60.1 17.4c-.3 0-.6-.3-.6-.6v-6.2c0-.3.3-.6.6-.6s.6.2.7.6v6.2c-.1.4-.4.6-.7.6zM55 17.4c-.3 0-.6-.3-.6-.6v-6.2c0-.3.3-.6.6-.6s.6.3.6.6v6.2c.1.4-.2.6-.6.6zM50 17.4c-.3 0-.6-.3-.6-.6v-6.2c0-.3.3-.6.6-.6s.6.3.6.6v6.2c0 .4-.3.6-.6.6zM45 17.4c-.3 0-.6-.3-.6-.6v-6.2c0-.3.3-.6.6-.6s.6.3.6.6v6.2c0 .4-.3.6-.6.6zM39.9 17.4c-.3 0-.6-.3-.6-.6v-6.2c0-.3.3-.6.6-.6s.6.2.7.6v6.2c0 .4-.3.6-.7.6.1 0 0 0 0 0zM34.9 17.4c-.3 0-.6-.3-.6-.6v-6.2c0-.3.4-.6.7-.6.3 0 .5.3.6.6v6.2c-.1.4-.3.6-.7.6zM29.9 17.4c-.3 0-.6-.3-.6-.6v-6.2c0-.3.4-.6.7-.6.3 0 .5.3.6.6v6.2c-.1.4-.4.6-.7.6zM70.1 90c-.3 0-.6-.3-.6-.6v-6.2c0-.3.3-.6.6-.6s.6.3.6.6v6.2c.1.3-.2.6-.6.6zM65.1 90c-.3 0-.6-.3-.6-.6v-6.2c0-.3.3-.6.6-.6s.6.3.6.6v6.2c0 .3-.2.6-.6.6zM60.1 90c-.3 0-.6-.3-.6-.6v-6.2c0-.3.3-.6.6-.6s.6.3.6.6v6.2c0 .3-.3.6-.6.6zM55 90c-.3 0-.6-.3-.6-.6v-6.2c0-.3.3-.6.6-.6s.6.3.6.6v6.2c.1.3-.2.6-.6.6zM50 90c-.3 0-.6-.3-.6-.6v-6.2c0-.3.3-.6.6-.6s.6.3.6.6v6.2c0 .3-.2.6-.6.6zM45 90c-.3 0-.6-.3-.6-.6v-6.2c0-.3.3-.6.6-.6s.6.3.6.6v6.2c0 .3-.3.6-.6.6zM39.9 90c-.3 0-.6-.3-.6-.6v-6.2c0-.3.3-.6.6-.6s.6.3.6.6v6.2c.1.3-.2.6-.6.6zM34.9 90c-.3 0-.6-.3-.6-.6v-6.2c0-.3.4-.6.7-.6.3 0 .5.3.6.6v6.2c-.1.3-.3.6-.7.6zM29.9 90c-.3 0-.6-.3-.6-.6v-6.2c0-.3.4-.6.7-.6.3 0 .5.3.6.6v6.2c-.1.3-.4.6-.7.6z" fill="#010101"/>
    <path fill="currentColor" d="M69.6 27.8H30.4c-1.4 0-2.6 1.2-2.6 2.6v39.2c0 1.4 1.2 2.6 2.6 2.6h39.2c1.4 0 2.6-1.2 2.6-2.6V30.4c0-1.5-1.1-2.6-2.6-2.6zm-7.3 9.9l5.2-1.1c.2 0 .4.1.5.3 0 .1 0 .3-.1.4l-4 3.5c-.2.1-.4.1-.5 0 0 0 0-.1-.1-.1l-1.2-2.4c-.1-.2-.1-.5.2-.6zm-29.4-1.1l5.2 1.1c.2 0 .3.2.3.5v.1l-1.2 2.4c-.1.2-.3.3-.5.2 0 0-.1 0-.1-.1l-4-3.5c-.2-.1-.2-.4 0-.5 0-.1.1-.2.3-.2zM30 50.2c-.2-.1-.3-.3-.3-.5 0-.1.1-.2.3-.3l5.1-1.3c.2-.1.4.1.5.3V51.2c0 .2-.2.4-.4.4h-.1L30 50.2zm8.3 11.2l-5.2 1c-.2 0-.4-.1-.4-.3 0-.1 0-.3.1-.4l4-3.4c.2-.1.4-.1.5 0 0 0 0 .1.1.1l1.2 2.4c.1.2.1.4-.1.5-.1 0-.2.1-.2.1zm22.8-13.1L44.3 68.9c-.2.2-.5.2-.7.1-.1-.1-.2-.3-.2-.5 1-4.2 3.1-13.2 3.7-15.4.2-.7-.2-.7-.7-.7h-6.9c-.3 0-.5-.2-.5-.5 0-.1 0-.2.1-.3L55.5 31c.2-.2.5-.3.7-.1.2.1.2.3.2.5-1 4.3-3 13.5-3.4 15-.2.8.6 1 .8 1h6.9c.3 0 .5.2.5.5.1.2 0 .3-.1.4zm6.1 14l-5.2-1c-.2 0-.4-.2-.3-.5v-.1l1.2-2.4c.1-.2.3-.3.5-.2 0 0 .1 0 .1.1l4 3.4c.2.2.1.4 0 .6 0 .1-.2.1-.3.1zm3.1-12.2l-5.1 1.4c-.2.1-.4-.1-.5-.3V48.4c0-.2.2-.4.4-.4h.1l5.1 1.4c.2.1.3.3.2.5 0 .2-.1.2-.2.2z"/>
  </g>
</svg>