<?xml version="1.0" encoding="utf-8"?>
<!-- Generator: Adobe Illustrator 23.0.4, SVG Export Plug-In . SVG Version: 6.00 Build 0)  -->
<svg version="1.1" id="Layer_1" xmlns="http://www.w3.org/2000/svg" xmlns:xlink="http://www.w3.org/1999/xlink" x="0px" y="0px"
	 viewBox="0 0 100 100" style="enable-background:new 0 0 100 100;" xml:space="preserve">
<style type="text/css">
	.st0-8b211d58b2787616d1526898ce5e3fe2{fill:#010101;}
	.st1-8b211d58b2787616d1526898ce5e3fe2{fill:currentColor;}
</style>
<title>gpu</title>
<g>
	<g id="Layer_1-2">
		<path class="st0-8b211d58b2787616d1526898ce5e3fe2" d="M70.7,20.3H29.3c-4.9,0-8.9,4-8.9,8.9l0,0v41.5c0,4.9,4,8.9,8.9,8.9h41.5c4.9,0,8.9-4,8.9-8.9V29.3
			C79.7,24.3,75.7,20.3,70.7,20.3z M76.7,70.5c0,3.4-2.8,6.2-6.2,6.2l0,0H29.5c-3.4,0-6.2-2.8-6.2-6.2V29.5c0-3.4,2.8-6.2,6.2-6.2
			h40.9c3.4,0,6.2,2.8,6.2,6.2L76.7,70.5z"/>
		<path class="st0-8b211d58b2787616d1526898ce5e3fe2" d="M16.8,30.5h-6.2c-0.3,0-0.6-0.4-0.6-0.7c0-0.3,0.3-0.5,0.6-0.6h6.2c0.3,0,0.7,0.2,0.7,0.6
			c0,0.3-0.2,0.7-0.6,0.7C16.9,30.5,16.9,30.5,16.8,30.5z"/>
		<path class="st0-8b211d58b2787616d1526898ce5e3fe2" d="M16.8,35.5h-6.2c-0.3,0-0.6-0.4-0.6-0.7c0-0.3,0.3-0.5,0.6-0.6h6.2c0.3,0,0.7,0.2,0.7,0.6
			c0,0.3-0.2,0.7-0.6,0.7C16.9,35.5,16.9,35.5,16.8,35.5z"/>
		<path class="st0-8b211d58b2787616d1526898ce5e3fe2" d="M16.8,40.6h-6.2c-0.3,0-0.6-0.3-0.6-0.6c0,0,0,0,0,0c0-0.3,0.3-0.6,0.6-0.6c0,0,0,0,0,0h6.2
			c0.3,0,0.6,0.3,0.6,0.6c0,0,0,0,0,0C17.5,40.3,17.2,40.6,16.8,40.6C16.8,40.6,16.8,40.6,16.8,40.6z"/>
		<path class="st0-8b211d58b2787616d1526898ce5e3fe2" d="M16.8,45.6h-6.2c-0.3,0-0.6-0.3-0.6-0.6c0-0.3,0.3-0.6,0.6-0.6c0,0,0,0,0,0h6.2c0.3,0,0.6,0.3,0.6,0.6
			c0,0,0,0,0,0C17.4,45.3,17.2,45.6,16.8,45.6z"/>
		<path class="st0-8b211d58b2787616d1526898ce5e3fe2" d="M16.8,50.6h-6.2c-0.3,0-0.6-0.3-0.6-0.6c0-0.3,0.3-0.6,0.6-0.6c0,0,0,0,0,0h6.2c0.3,0,0.6,0.3,0.6,0.6
			c0,0,0,0,0,0C17.4,50.3,17.2,50.6,16.8,50.6z"/>
		<path class="st0-8b211d58b2787616d1526898ce5e3fe2" d="M16.8,55.7h-6.2c-0.3,0-0.6-0.3-0.6-0.6c0-0.3,0.3-0.6,0.6-0.6c0,0,0,0,0,0h6.2c0.3,0,0.6,0.3,0.6,0.6
			c0,0,0,0,0,0C17.4,55.4,17.2,55.7,16.8,55.7z"/>
		<path class="st0-8b211d58b2787616d1526898ce5e3fe2" d="M16.8,60.7h-6.2c-0.3,0-0.6-0.3-0.6-0.6s0.3-0.6,0.6-0.6h6.2c0.3,0,0.6,0.3,0.6,0.6S17.2,60.7,16.8,60.7z"/>
		<path class="st0-8b211d58b2787616d1526898ce5e3fe2" d="M16.8,65.7h-6.2c-0.3,0-0.6-0.3-0.6-0.6s0.3-0.6,0.6-0.6h6.2c0.3,0,0.6,0.3,0.6,0.6S17.2,65.7,16.8,65.7z"/>
		<path class="st0-8b211d58b2787616d1526898ce5e3fe2" d="M16.8,70.7h-6.2c-0.3,0-0.6-0.3-0.6-0.6c0-0.3,0.3-0.6,0.6-0.6h6.2c0.3,0,0.6,0.3,0.6,0.6
			C17.4,70.5,17.2,70.7,16.8,70.7z"/>
		<path class="st0-8b211d58b2787616d1526898ce5e3fe2" d="M89.4,30.5h-6.2c-0.3,0-0.6-0.4-0.6-0.7c0-0.3,0.3-0.5,0.6-0.6h6.2c0.3,0,0.6,0.4,0.6,0.7
			C89.9,30.2,89.7,30.5,89.4,30.5z"/>
		<path class="st0-8b211d58b2787616d1526898ce5e3fe2" d="M89.4,35.5h-6.2c-0.3,0-0.6-0.4-0.6-0.7c0-0.3,0.3-0.5,0.6-0.6h6.2c0.3,0,0.6,0.4,0.6,0.7
			C89.9,35.3,89.7,35.5,89.4,35.5z"/>
		<path class="st0-8b211d58b2787616d1526898ce5e3fe2" d="M89.4,40.6h-6.2c-0.3,0-0.6-0.3-0.6-0.6c0,0,0,0,0,0c0-0.3,0.3-0.6,0.6-0.6c0,0,0,0,0,0h6.2
			c0.3,0,0.6,0.3,0.6,0.6c0,0,0,0,0,0C90,40.3,89.7,40.6,89.4,40.6C89.4,40.6,89.4,40.6,89.4,40.6z"/>
		<path class="st0-8b211d58b2787616d1526898ce5e3fe2" d="M89.4,45.6h-6.2c-0.3,0-0.6-0.3-0.6-0.6c0,0,0,0,0,0c0-0.3,0.3-0.6,0.6-0.6c0,0,0,0,0,0h6.2
			c0.3,0,0.6,0.3,0.6,0.6c0,0,0,0,0,0C90,45.3,89.7,45.6,89.4,45.6C89.4,45.6,89.4,45.6,89.4,45.6z"/>
		<path class="st0-8b211d58b2787616d1526898ce5e3fe2" d="M89.4,50.6h-6.2c-0.3,0-0.6-0.3-0.6-0.6c0,0,0,0,0,0c0-0.3,0.3-0.6,0.6-0.6c0,0,0,0,0,0h6.2
			c0.3,0,0.6,0.3,0.6,0.6c0,0,0,0,0,0C90,50.3,89.7,50.6,89.4,50.6C89.4,50.6,89.4,50.6,89.4,50.6z"/>
		<path class="st0-8b211d58b2787616d1526898ce5e3fe2" d="M89.4,55.7h-6.2c-0.3,0-0.6-0.3-0.6-0.6c0,0,0,0,0,0c0-0.3,0.3-0.6,0.6-0.6c0,0,0,0,0,0h6.2
			c0.3,0,0.6,0.3,0.6,0.6c0,0,0,0,0,0C90,55.4,89.7,55.7,89.4,55.7C89.4,55.7,89.4,55.7,89.4,55.7z"/>
		<path class="st0-8b211d58b2787616d1526898ce5e3fe2" d="M89.4,60.7h-6.2c-0.3,0-0.6-0.3-0.6-0.6s0.3-0.6,0.6-0.6h6.2c0.3,0,0.6,0.3,0.6,0.6S89.7,60.7,89.4,60.7z"/>
		<path class="st0-8b211d58b2787616d1526898ce5e3fe2" d="M89.4,65.7h-6.2c-0.3,0-0.6-0.3-0.6-0.6s0.3-0.6,0.6-0.6h6.2c0.3,0,0.6,0.3,0.6,0.6S89.7,65.7,89.4,65.7z"/>
		<path class="st0-8b211d58b2787616d1526898ce5e3fe2" d="M89.4,70.7h-6.2c-0.3,0-0.6-0.3-0.6-0.6c0-0.3,0.3-0.6,0.6-0.6h6.2c0.3,0,0.6,0.3,0.6,0.6
			C90,70.5,89.7,70.7,89.4,70.7z"/>
		<path class="st0-8b211d58b2787616d1526898ce5e3fe2" d="M70.1,17.4c-0.3,0-0.6-0.3-0.6-0.6c0,0,0,0,0,0v-6.2c0-0.3,0.3-0.6,0.6-0.6c0.3,0,0.6,0.3,0.6,0.6v6.2
			C70.8,17.2,70.5,17.4,70.1,17.4C70.1,17.4,70.1,17.4,70.1,17.4z"/>
		<path class="st0-8b211d58b2787616d1526898ce5e3fe2" d="M65.1,17.4c-0.3,0-0.6-0.3-0.6-0.6c0,0,0,0,0,0v-6.2c0-0.3,0.3-0.6,0.6-0.6c0.3,0,0.6,0.3,0.6,0.6v6.2
			C65.7,17.2,65.4,17.4,65.1,17.4C65.1,17.4,65.1,17.4,65.1,17.4z"/>
		<path class="st0-8b211d58b2787616d1526898ce5e3fe2" d="M60.1,17.4c-0.3,0-0.6-0.3-0.6-0.6c0,0,0,0,0,0v-6.2c0-0.3,0.3-0.6,0.6-0.6c0,0,0,0,0,0
			c0.3,0,0.6,0.2,0.7,0.6c0,0,0,0,0,0v6.2C60.7,17.2,60.4,17.4,60.1,17.4C60.1,17.4,60.1,17.4,60.1,17.4z"/>
		<path class="st0-8b211d58b2787616d1526898ce5e3fe2" d="M55,17.4c-0.3,0-0.6-0.3-0.6-0.6c0,0,0,0,0,0v-6.2c0-0.3,0.3-0.6,0.6-0.6c0,0,0,0,0,0c0.3,0,0.6,0.3,0.6,0.6
			v6.2C55.7,17.2,55.4,17.4,55,17.4z"/>
		<path class="st0-8b211d58b2787616d1526898ce5e3fe2" d="M50,17.4c-0.3,0-0.6-0.3-0.6-0.6c0,0,0,0,0,0v-6.2c0-0.3,0.3-0.6,0.6-0.6c0,0,0,0,0,0c0.3,0,0.6,0.3,0.6,0.6
			v6.2C50.6,17.2,50.3,17.4,50,17.4z"/>
		<path class="st0-8b211d58b2787616d1526898ce5e3fe2" d="M45,17.4c-0.3,0-0.6-0.3-0.6-0.6c0,0,0,0,0,0v-6.2c0-0.3,0.3-0.6,0.6-0.6c0,0,0,0,0,0c0.3,0,0.6,0.3,0.6,0.6
			v6.2C45.6,17.2,45.3,17.4,45,17.4z"/>
		<path class="st0-8b211d58b2787616d1526898ce5e3fe2" d="M39.9,17.4c-0.3,0-0.6-0.3-0.6-0.6c0,0,0,0,0,0v-6.2c0-0.3,0.3-0.6,0.6-0.6c0,0,0,0,0,0
			c0.3,0,0.6,0.2,0.7,0.6c0,0,0,0,0,0v6.2C40.6,17.2,40.3,17.4,39.9,17.4C40,17.4,39.9,17.4,39.9,17.4z"/>
		<path class="st0-8b211d58b2787616d1526898ce5e3fe2" d="M34.9,17.4c-0.3,0-0.6-0.3-0.6-0.6v-6.2c0-0.3,0.4-0.6,0.7-0.6c0.3,0,0.5,0.3,0.6,0.6v6.2
			C35.5,17.2,35.3,17.4,34.9,17.4z"/>
		<path class="st0-8b211d58b2787616d1526898ce5e3fe2" d="M29.9,17.4c-0.3,0-0.6-0.3-0.6-0.6v-6.2c0-0.3,0.4-0.6,0.7-0.6c0.3,0,0.5,0.3,0.6,0.6v6.2
			C30.5,17.2,30.2,17.4,29.9,17.4z"/>
		<path class="st0-8b211d58b2787616d1526898ce5e3fe2" d="M70.1,90c-0.3,0-0.6-0.3-0.6-0.6c0,0,0,0,0,0v-6.2c0-0.3,0.3-0.6,0.6-0.6c0.3,0,0.6,0.3,0.6,0.6v6.2
			C70.8,89.7,70.5,90,70.1,90C70.1,90,70.1,90,70.1,90z"/>
		<path class="st0-8b211d58b2787616d1526898ce5e3fe2" d="M65.1,90c-0.3,0-0.6-0.3-0.6-0.6c0,0,0,0,0,0v-6.2c0-0.3,0.3-0.6,0.6-0.6c0.3,0,0.6,0.3,0.6,0.6v6.2
			C65.7,89.7,65.5,90,65.1,90C65.1,90,65.1,90,65.1,90z"/>
		<path class="st0-8b211d58b2787616d1526898ce5e3fe2" d="M60.1,90c-0.3,0-0.6-0.3-0.6-0.6c0,0,0,0,0,0v-6.2c0-0.3,0.3-0.6,0.6-0.6c0,0,0,0,0,0c0.3,0,0.6,0.3,0.6,0.6
			c0,0,0,0,0,0v6.2C60.7,89.7,60.4,90,60.1,90C60.1,90,60.1,90,60.1,90z"/>
		<path class="st0-8b211d58b2787616d1526898ce5e3fe2" d="M55,90c-0.3,0-0.6-0.3-0.6-0.6c0,0,0,0,0,0v-6.2c0-0.3,0.3-0.6,0.6-0.6c0,0,0,0,0,0c0.3,0,0.6,0.3,0.6,0.6
			c0,0,0,0,0,0v6.2C55.7,89.7,55.4,90,55,90C55,90,55,90,55,90z"/>
		<path class="st0-8b211d58b2787616d1526898ce5e3fe2" d="M50,90c-0.3,0-0.6-0.3-0.6-0.6c0,0,0,0,0,0v-6.2c0-0.3,0.3-0.6,0.6-0.6c0,0,0,0,0,0c0.3,0,0.6,0.3,0.6,0.6
			c0,0,0,0,0,0v6.2C50.6,89.7,50.4,90,50,90C50,90,50,90,50,90z"/>
		<path class="st0-8b211d58b2787616d1526898ce5e3fe2" d="M45,90c-0.3,0-0.6-0.3-0.6-0.6c0,0,0,0,0,0v-6.2c0-0.3,0.3-0.6,0.6-0.6c0,0,0,0,0,0c0.3,0,0.6,0.3,0.6,0.6
			c0,0,0,0,0,0v6.2C45.6,89.7,45.3,90,45,90C45,90,45,90,45,90z"/>
		<path class="st0-8b211d58b2787616d1526898ce5e3fe2" d="M39.9,90c-0.3,0-0.6-0.3-0.6-0.6c0,0,0,0,0,0v-6.2c0-0.3,0.3-0.6,0.6-0.6c0,0,0,0,0,0c0.3,0,0.6,0.3,0.6,0.6
			c0,0,0,0,0,0v6.2C40.6,89.7,40.3,90,39.9,90C39.9,90,39.9,90,39.9,90z"/>
		<path class="st0-8b211d58b2787616d1526898ce5e3fe2" d="M34.9,90c-0.3,0-0.6-0.3-0.6-0.6v-6.2c0-0.3,0.4-0.6,0.7-0.6c0.3,0,0.5,0.3,0.6,0.6v6.2
			C35.5,89.7,35.3,90,34.9,90C34.9,90,34.9,90,34.9,90z"/>
		<path class="st0-8b211d58b2787616d1526898ce5e3fe2" d="M29.9,90c-0.3,0-0.6-0.3-0.6-0.6v-6.2c0-0.3,0.4-0.6,0.7-0.6c0.3,0,0.5,0.3,0.6,0.6v6.2
			C30.5,89.7,30.2,90,29.9,90C29.9,90,29.9,90,29.9,90z"/>
		<path class="st1-8b211d58b2787616d1526898ce5e3fe2" d="M69.6,27.8H30.4c-1.4,0-2.6,1.2-2.6,2.6v39.2c0,1.4,1.2,2.6,2.6,2.6c0,0,0,0,0,0h39.2c1.4,0,2.6-1.2,2.6-2.6
			c0,0,0,0,0,0V30.4C72.2,28.9,71.1,27.8,69.6,27.8C69.6,27.8,69.6,27.8,69.6,27.8z M62.3,37.7l5.2-1.1c0.2,0,0.4,0.1,0.5,0.3
			c0,0.1,0,0.3-0.1,0.4l-4,3.5c-0.2,0.1-0.4,0.1-0.5,0c0,0,0-0.1-0.1-0.1l-1.2-2.4C62,38.1,62,37.8,62.3,37.7
			C62.3,37.7,62.3,37.7,62.3,37.7z M32.9,36.6l5.2,1.1c0.2,0,0.3,0.2,0.3,0.5c0,0,0,0.1,0,0.1l-1.2,2.4c-0.1,0.2-0.3,0.3-0.5,0.2
			c0,0-0.1,0-0.1-0.1l-4-3.5c-0.2-0.1-0.2-0.4,0-0.5C32.6,36.7,32.7,36.6,32.9,36.6L32.9,36.6z M30,50.2c-0.2-0.1-0.3-0.3-0.3-0.5
			c0-0.1,0.1-0.2,0.3-0.3l5.1-1.3c0.2-0.1,0.4,0.1,0.5,0.3c0,0,0,0.1,0,0.1v2.7c0,0.2-0.2,0.4-0.4,0.4c0,0-0.1,0-0.1,0L30,50.2z
			 M38.3,61.4l-5.2,1c-0.2,0-0.4-0.1-0.4-0.3c0-0.1,0-0.3,0.1-0.4l4-3.4c0.2-0.1,0.4-0.1,0.5,0c0,0,0,0.1,0.1,0.1l1.2,2.4
			c0.1,0.2,0.1,0.4-0.1,0.5C38.4,61.3,38.3,61.4,38.3,61.4z M61.1,48.3L44.3,68.9c-0.2,0.2-0.5,0.2-0.7,0.1
			c-0.1-0.1-0.2-0.3-0.2-0.5c1-4.2,3.1-13.2,3.7-15.4c0.2-0.7-0.2-0.7-0.7-0.7h-6.9c-0.3,0-0.5-0.2-0.5-0.5c0-0.1,0-0.2,0.1-0.3
			L55.5,31c0.2-0.2,0.5-0.3,0.7-0.1c0.2,0.1,0.2,0.3,0.2,0.5c-1,4.3-3,13.5-3.4,15c-0.2,0.8,0.6,1,0.8,1h6.9c0.3,0,0.5,0.2,0.5,0.5
			C61.3,48.1,61.2,48.2,61.1,48.3z M67.2,62.3l-5.2-1c-0.2,0-0.4-0.2-0.3-0.5c0,0,0-0.1,0-0.1l1.2-2.4c0.1-0.2,0.3-0.3,0.5-0.2
			c0,0,0.1,0,0.1,0.1l4,3.4c0.2,0.2,0.1,0.4,0,0.6C67.5,62.3,67.3,62.3,67.2,62.3z M70.3,50.1l-5.1,1.4c-0.2,0.1-0.4-0.1-0.5-0.3
			c0,0,0-0.1,0-0.1v-2.7c0-0.2,0.2-0.4,0.4-0.4c0,0,0.1,0,0.1,0l5.1,1.4c0.2,0.1,0.3,0.3,0.2,0.5C70.5,50.1,70.4,50.1,70.3,50.1
			L70.3,50.1z"/>
	</g>
</g>
</svg>
