<svg viewBox="0 0 200 200" xmlns="http://www.w3.org/2000/svg"><path d="m170.78 105.39h-27.94l-7.35-16.47-13.49 37.35-9.41-22.64-12.39 42.63-5.58 19.12-18.53-78.81-4.7-20.57-5 14.7-8.53 24.7h-28.23a4.31 4.31 0 0 1 -4.7-4.12c-.3-2.64 1.47-4.41 4.11-4.7h22.35l7.06-20.58 14.41-41.48 13.52 57.64 9.12 39.11 4.7-16.18 5.3-17.93 5.88-20 5.62 13.23 4.7 11.47 6.47-17.94 6.73-18.52 5 11.47 8.53 19.4h22.35a4.76 4.76 0 0 1 4.11 4.71c-.29 2.65-2 4.41-4.11 4.41z" fill="currentColor" stroke="#32363b" stroke-linecap="round" stroke-width="4.37"/></svg>