<svg viewBox="0 0 200 200" xmlns="http://www.w3.org/2000/svg"><g stroke="#32363b" stroke-width="4.5"><path d="m87 158.69h45.65v16.31h-45.65z" fill="#fff"/><path d="m175 60.87v91.3a6.53 6.53 0 0 1 -6.52 6.52h-117.39a6.53 6.53 0 0 1 -6.52-6.52v-97.82h123.91a6.53 6.53 0 0 1 6.52 6.52zm-22.83 81.52v-71.74h-84.78v71.74z" fill="currentColor" stroke-linecap="round"/><path d="m152.17 103.26v39.13h-84.78v-71.74h84.78z" fill="#fff"/></g><circle cx="73.91" cy="73.91" fill="#fff" r="47.9"/><path d="m73.91 28.26a45.65 45.65 0 1 1 -45.65 45.65 45.65 45.65 0 0 1 45.65-45.65m0-4.5a50.15 50.15 0 1 0 50.15 50.15 50.21 50.21 0 0 0 -50.15-50.15z" fill="#32363b"/><path d="m73.91 116.3c-4.56 0-9.42-6.13-12.64-16.3h25.29c-3.22 10.17-8.08 16.3-12.65 16.3zm-14.34-22.82a93.18 93.18 0 0 1 -1.89-16.31h32.47a94.13 94.13 0 0 1 -1.88 16.31zm-27.88-16.31h19.47a101.38 101.38 0 0 0 1.7 16.31h-16.52a42.1 42.1 0 0 1 -4.65-16.31zm42.22-45.65c4.57 0 9.43 6.14 12.65 16.31h-25.29c3.22-10.17 8.08-16.31 12.64-16.31zm14.35 22.83a93.07 93.07 0 0 1 1.89 16.3h-32.47a93.05 93.05 0 0 1 1.88-16.3zm-37.1 16.3h-19.47a42.11 42.11 0 0 1 4.65-16.3h16.52a101.37 101.37 0 0 0 -1.7 16.3zm45.51 6.52h19.47a42 42 0 0 1 -4.66 16.31h-16.48a102.53 102.53 0 0 0 1.67-16.31zm0-6.52a102.52 102.52 0 0 0 -1.67-16.3h16.51a42 42 0 0 1 4.66 16.3zm10.59-22.82h-13.86a50 50 0 0 0 -6.19-14.14 42.56 42.56 0 0 1 20.05 14.14zm-46.63-14.14a49.76 49.76 0 0 0 -6.21 14.14h-13.85a42.54 42.54 0 0 1 20-14.14zm-20.06 66.31h13.85a49.86 49.86 0 0 0 6.2 14.14 42.51 42.51 0 0 1 -20.05-14.14zm46.63 14.14a49.86 49.86 0 0 0 6.2-14.14h13.86a42.51 42.51 0 0 1 -20.05 14.14z" fill="currentColor"/><path d="m152.63 147.9a2.21 2.21 0 0 1 -1.59-.66l-14.71-14.71-5.39 5.39a2.26 2.26 0 0 1 -1.59.66 2.14 2.14 0 0 1 -.86-.18 2.22 2.22 0 0 1 -1.39-2.07v-23.33a2.25 2.25 0 0 1 2.25-2.25h23.28a2.25 2.25 0 0 1 1.59 3.84l-5.39 5.41 14.72 14.71a2.26 2.26 0 0 1 0 3.19l-9.33 9.32a2.21 2.21 0 0 1 -1.59.66z" fill="#fff"/><path d="m152.63 113-7 7 16.37 16.33-9.33 9.32-16.3-16.3-7 7v-23.35h23.28m0-4.5h-23.3a4.5 4.5 0 0 0 -4.5 4.5v23.29a4.48 4.48 0 0 0 2.77 4.15 4.57 4.57 0 0 0 1.73.35 4.5 4.5 0 0 0 3.18-1.32l3.8-3.8 13.12 13.12a4.49 4.49 0 0 0 6.36 0l9.33-9.32a4.5 4.5 0 0 0 0-6.37l-13.14-13.1 3.79-3.79a4.5 4.5 0 0 0 -3.18-7.69z" fill="#32363b"/><path d="m73.91 168.48h71.74v6.52h-71.74z" fill="#fff" stroke="#32363b" stroke-width="4.5"/></svg>