<svg viewBox="0 0 200 200" xmlns="http://www.w3.org/2000/svg"><path d="m173.56 46.88a3.26 3.26 0 0 0 -4.08-2.13 3.19 3.19 0 0 0 -1.33.8l-15.15 15.19-13.74-13.74 15.19-15.19a3.27 3.27 0 0 0 0-4.61 3.19 3.19 0 0 0 -1.33-.8 31.18 31.18 0 0 0 -38.92 39.6l-53.62 53.65a28.14 28.14 0 0 0 -34.27 35.58 3.25 3.25 0 0 0 4.07 2.14 3.36 3.36 0 0 0 1.34-.81l13.28-13.3 11.75 11.74-13.31 13.29a3.25 3.25 0 0 0 0 4.6 3.32 3.32 0 0 0 1.33.81 28.16 28.16 0 0 0 35.59-34.27l53.64-53.63a31.18 31.18 0 0 0 39.58-38.92z" fill="#32363b"/><path d="m161.25 73.64a24.61 24.61 0 0 1 -26.85 5.36 3.25 3.25 0 0 0 -3.54.71l-56.5 56.49a3.26 3.26 0 0 0 -.77 3.38 21.77 21.77 0 0 1 -5.08 22.54 21.48 21.48 0 0 1 -16 6.33l11.19-11.18a3.25 3.25 0 0 0 0-4.6l-16.37-16.32a3.25 3.25 0 0 0 -4.6 0l-11.18 11.18a21.64 21.64 0 0 1 28.86-21.12 3.23 3.23 0 0 0 3.38-.77l56.5-56.49a3.27 3.27 0 0 0 .7-3.54 24.67 24.67 0 0 1 24.52-34l-13.16 13.13a3.27 3.27 0 0 0 0 4.61l18.31 18.3a3.25 3.25 0 0 0 4.6 0l13.15-13.15a24.53 24.53 0 0 1 -7.16 19.14z" fill="currentColor"/></svg>