<svg viewBox="0 0 1080 1080" xmlns="http://www.w3.org/2000/svg"><g fill="#393e44"><path d="m972.8315 400.932c.0005-.0952.0073-.189.0073-.2842 0-34.0308-27.605-61.729-61.5967-61.895-.0488.5679-.0991 1.1348-.1616 1.6987-.0625-.5662-.1128-1.1357-.1621-1.7061-34.1255.0098-61.8853 27.7751-61.8853 61.9023 0 .1028.0073.2036.0078.3062.1665 33.9922 27.8643 61.5967 61.8955 61.5967s61.7407-27.6162 61.895-61.6187z"/><path d="m985.8389 400.6478c0 .0811-.0059.1604-.0059.2412 34.5928-3.406 61.6196-32.5771 61.6196-68.0654 0-37.7778-30.625-68.4028-68.4028-68.4028-35.1982 0-64.1738 26.5889-67.9692 60.7747.021.1858.0513.3687.0708.5549 41.2026.1169 74.6875 33.6677 74.6875 74.8975z"/><path d="m911.0806 278.9152c.0625-.564.1128-1.1309.1616-1.6987.168-1.9558.2725-3.9299.2725-5.9292 0-.1892-.0132-.3755-.0146-.5642-.0176-2.1951-.1289-4.3679-.3486-6.509-.0195-.1863-.0498-.3691-.0708-.5549-.0205.1848-.0508.3662-.0698.5515-.2202 2.1399-.3315 4.3115-.3496 6.5051-.0015.1914-.0142.3796-.0142.5715 0 1.9966.104 3.9683.2715 5.9219.0493.5703.0996 1.1399.1621 1.7061z"/><path d="m911.0806 698.0031c-.0205.1848-.0508.3662-.0698.5515-.2202 2.1399-.3315 4.3115-.3496 6.5051-.0015.1914-.0142.3796-.0142.5715 0 1.9966.104 3.9683.2715 5.9219.0493.5703.0996 1.1399.1621 1.7061.0625-.564.1128-1.1309.1616-1.6987.168-1.9558.2725-3.9299.2725-5.9292 0-.1892-.0132-.3755-.0146-.5642-.0176-2.1951-.1289-4.3679-.3486-6.509-.0195-.1863-.0498-.3691-.0708-.5549z"/><path d="m911.2422 773.097c-.0488.5679-.0991 1.1348-.1616 1.6987-.0625-.5662-.1128-1.1357-.1621-1.7061-34.1255.0098-61.8853 27.7751-61.8853 61.9023 0 .1028.0073.2036.0078.3062.1665 33.9922 27.8643 61.5967 61.8955 61.5967s61.7407-27.6162 61.895-61.6187c.0005-.0952.0073-.189.0073-.2842 0-34.0308-27.605-61.729-61.5967-61.895z"/><path d="m843.1113 698.765c-37.7773 0-68.4023 30.625-68.4023 68.4028 0 9.7368 2.0444 18.9932 5.7114 27.3777h-47.0923v-75.3896h-59.9102v-53.959h-182.2466v53.5781h-60.7456v75h-54.3506v-53.1885h-87.8389v-320.4333h87.8389v-53.3831h54.3506v75h60.7456v53.3831h182.2466v-53.3831h59.9102v-75h50.3975c10.6836 18.6484 29.8887 31.7893 52.313 34.093 0-.0723-.0054-.1431-.0054-.2153 0-41.3018 33.6016-74.9028 74.9033-74.9028.0249 0 .0493.002.0742.002.019-.1853.0493-.3667.0698-.5515-3.7949-34.1858-32.771-60.7747-67.9692-60.7747-37.7773 0-68.4023 30.625-68.4023 68.4028 0 9.7371 2.0444 18.9937 5.7119 27.3782h-47.0928v-75.3901h-59.9102v-53.3831h-182.2466v53.3831h-60.7456v75h-54.3506v-52.9932h-182.2465v53.3833h-50.0688v-145.6934h87.8394v-63.4299h-182.2467v63.4299h87.8389v152.2617h56.6372v53.3831h87.8394v163.7175h-57.6074c-5.0117-7.0723-12.9766-11.886-22.1118-12.6731 6.5181-26.4148-9.6118-53.1125-36.0283-59.6287-22.7754-5.6213-46.3535 5.5989-56.3589 26.8171-9.77-8.873-24.8813-8.1467-33.7563 1.623-3.9614 4.3638-6.1709 10.0383-6.2056 15.9314v.5884c-20.7383.2756-37.3262 17.312-37.0488 38.0522.2632 19.7788 15.8252 35.9619 35.5781 37.0005h134.1874v-.0918c16.6406-1.6377 28.8003-16.4553 27.1646-33.0947-.2744-2.7825-.9243-5.4502-1.8936-7.9561h54.0806v150.1475h-87.8394v113.335h182.2466v-53.1885h54.3506v75h60.7456v53.1885h182.2466v-52.8076h59.9102v-75h50.397c10.6836 18.6484 29.8892 31.7896 52.3135 34.0935 0-.0723-.0054-.1431-.0054-.2153 0-41.3018 33.6016-74.9028 74.9033-74.9028.0249 0 .0493.002.0742.002.019-.1853.0493-.3667.0698-.5515-3.7949-34.1858-32.771-60.7747-67.9692-60.7747zm-406.1172-407.385h54.1772v53.3835h182.2466v-53.3835h53.3418v143.8218h-53.3418v-53.3833h-182.2466v53.3833h-54.1772zm289.7656 578.1655h-53.3418v-53.959h-182.2466v53.5781h-54.1772v-143.8213h54.1772v53.1885h182.2466v-52.8076h53.3418z"/><path d="m979.0498 698.765c-35.1982 0-64.1738 26.5889-67.9692 60.7747.021.1858.0513.3687.0708.5549 41.2026.1169 74.6875 33.6677 74.6875 74.8975 0 .0811-.0059.1604-.0059.2412 34.5928-3.406 61.6196-32.5771 61.6196-68.0654 0-37.7778-30.625-68.4028-68.4028-68.4028z"/></g></svg>