<svg viewBox="0 0 200 200" xmlns="http://www.w3.org/2000/svg"><g fill="#32363b"><path d="m146.48 46.06h-13.57v-6.06c0-2-2.14-2.86-4.1-2.86h-10.54c-2.5-7.14-8.75-10.71-15.89-10.71a16.24 16.24 0 0 0 -15.89 10.7h-10.36c-2 0-3.93.89-3.93 2.86v6.07h-13.57a15.16 15.16 0 0 0 -15 14.46v102.31c0 7.86 7.14 13.57 15 13.57h87.85c7.86 0 15-5.71 15-13.57v-102.31a15.16 15.16 0 0 0 -15-14.46zm7.86 116.77c0 3.93-3.93 6.43-7.86 6.43h-87.85c-3.92 0-7.85-2.5-7.85-6.43v-102.31a8 8 0 0 1 7.85-7.32h13.57v9.11a3.76 3.76 0 0 0 3.93 3.39h52.68a3.92 3.92 0 0 0 4.1-3.39v-9.11h13.57a8 8 0 0 1 7.86 7.32z"/><path d="m140.06 113.91h-41.06a3.57 3.57 0 1 0 0 7.14h41.07a3.57 3.57 0 0 0 0-7.14z"/><path d="m140.06 85.34h-41.06a3.57 3.57 0 1 0 0 7.14h41.07a3.57 3.57 0 1 0 0-7.14z"/><path d="m140.06 142.48h-41.06a3.57 3.57 0 1 0 0 7.14h41.07a3.57 3.57 0 0 0 0-7.14z"/></g><path d="m79.35 44.27h9.82a3.93 3.93 0 0 0 3.39-3.21 10.37 10.37 0 0 1 9.82-8 10.18 10.18 0 0 1 9.64 8 3.92 3.92 0 0 0 3.57 3.21h10.18v14.29h-46.42z" fill="currentColor"/><path d="m88.81 106.23a3.58 3.58 0 0 0 -5-.18l-11.43 10.95-4.82-5a3.56 3.56 0 0 0 -5-.18 3.76 3.76 0 0 0 0 5.18l7.32 7.5a3.26 3.26 0 0 0 2.5 1.07 3.62 3.62 0 0 0 2.5-1.07l13.93-13.22a3.4 3.4 0 0 0 .21-4.79z" fill="currentColor"/><path d="m88.81 77.66a3.58 3.58 0 0 0 -5-.18l-11.43 10.9-4.82-5a3.56 3.56 0 0 0 -5-.18 3.76 3.76 0 0 0 0 5.18l7.32 7.5a3.22 3.22 0 0 0 2.5 1.12 3.62 3.62 0 0 0 2.5-1.07l13.93-13.27a3.4 3.4 0 0 0 .19-4.79z" fill="currentColor"/><path d="m88.81 134.8a3.58 3.58 0 0 0 -5-.18l-11.43 10.89-4.82-5a3.57 3.57 0 0 0 -5-.17 3.75 3.75 0 0 0 0 5.17l7.32 7.5a3.23 3.23 0 0 0 2.5 1.08 3.58 3.58 0 0 0 2.5-1.08l13.93-13.21a3.4 3.4 0 0 0 .19-4.8z" fill="currentColor"/></svg>