<svg viewBox="0 0 200 200" xmlns="http://www.w3.org/2000/svg"><g fill="#32363b"><path d="m173.2 35.88a5.08 5.08 0 0 0 -1 .49c-11 8.93-20.24 19.28-26.22 32.29-.23.51-.44 1-.65 1.55-1.1 2.69-1.09 2.69-4.37 2.36 1.22-2.62 2.49-5.18 3.61-7.8 2.39-5.58 4.58-11.26 4.73-17.42a8.82 8.82 0 0 0 -1.14-4.76c-3.78-6-19.56-23.5-23.49-29.35-3.75 0 4.06 36.6 5.81 48.09.63 4.11 1.68 8.16 2.53 12.22-3.78 1.31-3.76 1.3-5.92-1.56a129.1 129.1 0 0 0 -15.78-17.27c-6.56-6-14-9.33-23-9.31a124.44 124.44 0 0 0 -29.31 3.85 5.86 5.86 0 0 0 -1.19.66c8.11 7.51 17.27 13 27.06 17.51a133.46 133.46 0 0 0 30.54 9.57 68.69 68.69 0 0 1 -7.39 2 3.18 3.18 0 0 1 -2.2-.37 45.86 45.86 0 0 0 -12.9-5.91c-6-1.65-12.26-2.69-18.33-1.07a133.06 133.06 0 0 0 -17.38 6.37 32.5 32.5 0 0 0 -11.94 8.25 22.81 22.81 0 0 0 -1.51 2.27l49.12-4.13c.41 3.66.77 6.9 1.14 10.22.91-.24 1.57-.43 2.24-.59s1.22-.25 1.83-.37c-7.47 8.07-16.27 7.4-25.71 3.81.36 4 2.62 6.29 5.57 8.37-1 .19-1.63.31-2.29.45-6.67 1.37-13.44 2.38-20 4.21a47.9 47.9 0 0 1 -27-.28 18.45 18.45 0 0 0 -1.83-.34l-.77 1a5.64 5.64 0 0 1 1.6.59 95.15 95.15 0 0 0 19.56 12.09c6.46 2.94 13.4 3.92 20.26 5.24a5.62 5.62 0 0 1 2.07 1c1.4 1 2.6 2.37 4.12 3.14 2.33 1.24 4.79 2.05 7.33 3.05a5.72 5.72 0 0 0 -1.26.59c-.54.46-1.43 1-1.41 1.52a3.09 3.09 0 0 0 1.27 1.85 4 4 0 0 0 2.07.81 45.38 45.38 0 0 0 7.08.28c3.55-.28 7.06-.7 10.63 0 3.19.59 6.43.94 9.64 1.43 1.26.19 2.5.46 4.36.82-2.61 3-4.8 5.75-7.17 8.29-1.33 1.42-2.2 1.15-3.15-.64-.48-.91-.88-1.88-1.31-2.83l-28.48 7.06c2.9 4.46 6.84 5.64 11.74 4.6-.74 1.23-1.44 2.2-2 3.25-1.47 3.1-.66 5.73 2.42 7.2a13.21 13.21 0 0 0 5 1.38c3.92.17 7.86.07 11.78-.09 5.26-.22 10.39-.1 14.9 3.16.45.33 14.49 5.85 15.09 5.85 6.56 0 14.47-15.63 17.45-20.17a8.68 8.68 0 0 0 .57-1.18c-5.09-2.16-9.36-.43-13.44 2.42-2.87-3.41-6.37-3.08-9.82-1.87 1.05-4.67 2.07-9.24 3.2-14.31 5.27 1.55 10.7 3.13 16.12 4.75 1.19.35 2.32.92 3.53 1.23 2.53.66 3.13 0 2.55-2.48 0-.15-.08-.3-.09-.35 2.8 0 5.53.08 8.25 0 1.4 0 3.27-.09 3.48-1.75.09-.66-1.63-1.86-2.74-2.32-6.45-2.68-13.13-4.44-20.2-4.24-.56 0-1.11 0-1.67-.08 9.6-3.89 16.49-10.35 20.07-20s2.55-19.13-2.5-28.36h5.7c-1-4.95-1.88-9.73-2.88-14.49a21.61 21.61 0 0 0 -1.23-3.15 7.43 7.43 0 0 1 .72-.56 27.28 27.28 0 0 0 12-16.41c1-3.67 1.73-7.4 2.58-11.1v-7.99zm-56.43 106.54c-.83-.06-1.66-.08-2.47-.2-6.42-1-12.82-2.06-19.26-2.91a43.46 43.46 0 0 0 -6.35.05 4.3 4.3 0 0 1 -1.3-.09c-1.08-.36-2.14-.81-3.2-1.22l1.45-2.59a45.11 45.11 0 0 1 -5.83-1.92 13.76 13.76 0 0 1 -3.94-3c-1.14-1.23-.72-2.05 1-2.45a9.36 9.36 0 0 1 1.66-.24c10-.5 19.56 1.11 28.1 6.77q4.38 2.9 8.78 5.75c.65.43 1.36.77 2.05 1.15zm43.31 3.43c-3.24 2.66-6.45 1.58-9.65 1.43l.89 2.18a13.44 13.44 0 0 1 -3-.4c-5.65-2.32-11.66-3.15-17.58-4.33-1.31-.26-1.3-.28-1.61-2.22a45.06 45.06 0 0 1 30.95 3.34zm-16.68-10.21c-14.89 8.45-33.84 2.24-41.28-13.44a31.56 31.56 0 0 1 -3-16.57 1.93 1.93 0 0 1 1.57-2c1.79-.55 3.53-1.25 5.3-1.85 5-1.69 9.86-3.6 13.92-7.53a7.82 7.82 0 0 1 -.17 6.15c-.77 1.79-1.77 3.48-2.65 5.18h-13.09a34.46 34.46 0 0 0 .48 5.36c2.56 10.57 8.1 19 18 24.07 4.59 2.34 9.6 2.54 14.65 1.62a10.88 10.88 0 0 0 1.45-.51h-4.78c1.6-2.92-.08-4.9-1.91-6.7a23.64 23.64 0 0 0 -12.26-6.42c-2.09-.41-4.27-.6-6.06 1.7l-4.78-8.52c.12-.12.23-.24.34-.37 10.72 3.69 21.42 7.43 32.84 9l-2.22 4.75.25.12 1.72-2.43c1-1.47 2.13-2.62 4.22-2.55a4 4 0 0 0 2.7-1.4c1.72-2 3.18-4.31 4.82-6.42a19.81 19.81 0 0 1 2.13-2c-11.26-6.17-24.13-7.94-37.23-9.13 6.19-2.64 9.48-7.85 12.45-13.41a2.49 2.49 0 0 1 1.86-1q10.13 0 20.24.29a2.49 2.49 0 0 1 1.74 1 31.23 31.23 0 0 1 -11.25 43.01zm9.37-21a17.7 17.7 0 0 1 -6.11 8.71c-.29.24-1 .09-1.44 0-8.36-1-16.36-3.43-24.34-5.93-3.8-1.19-7.53-2.64-11.34-3.83a2.81 2.81 0 0 1 -2.27-2.57c-.16-1.46-.35-2.92-.57-4.68 15.63 2.06 31.14 2.79 46.07 8.28z"/><path d="m154.41 103.25a21.87 21.87 0 0 0 0 2.43c.14 1.31-.6 1.56-1.67 1.63-1.29.09-1.21-.76-1.22-1.58 0-1.56 0-3.12-.06-4.67 0-1.19.56-1.45 1.59-1.53 1.21-.09 1.34.56 1.31 1.48v2.24z"/><path d="m130.45 103.1c-1.78.08-2.42-.28-2-1.74a31.39 31.39 0 0 0 .81-4.41c.15-1.37.86-1.6 2-1.42s1 1 .82 1.83c-.29 1.54-.53 3.08-.9 4.6a3.49 3.49 0 0 1 -.73 1.14z"/></g></svg>