<svg viewBox="0 0 200 200" xmlns="http://www.w3.org/2000/svg"><path d="m81.6 110.49s0 0 0 .05l-.08.08h-.12s0 0 0 0h-.11a.09.09 0 0 1 0-.05l-.08-.08v-.11s0 0 0 0v-.11s0 0 0-.06l.08-.08s0 0 0 0h.12.11l.08.09s0 0 0 0v.1s0 .05 0 .05zm-.16-.25a.14.14 0 0 0 -.22 0 .15.15 0 0 0 0 .23.16.16 0 0 0 .22 0 .15.15 0 0 0 0-.23z" fill="#1793d1" fill-rule="evenodd"/><path d="m165.32 61.3h-3.14a21.77 21.77 0 1 0 -32.42 0h-29.76v-24.19a2.42 2.42 0 0 0 -2.42-2.42h-9.68a2.42 2.42 0 0 0 -2.42 2.42v24.19h-2.42v-33.87a2.41 2.41 0 0 0 -2.41-2.43h-9.65a2.42 2.42 0 0 0 -2.42 2.42v33.88h-2.45v-16.94a2.42 2.42 0 0 0 -2.42-2.42h-9.71a2.43 2.43 0 0 0 -2.42 2.42v16.94h-16.9a9.7 9.7 0 0 0 -9.68 9.7v72.58a9.7 9.7 0 0 0 9.68 9.68h49.87l-3.23 9.67h-7.93a2.42 2.42 0 0 0 -2.39 2.4v4.84h-24.23a2.42 2.42 0 0 0 0 4.84h106.46a2.42 2.42 0 1 0 0-4.84h-24.23v-4.84a2.42 2.42 0 0 0 -2.42-2.42h-7.93l-3.23-9.67h49.87a9.7 9.7 0 0 0 9.68-9.68v-72.56a9.7 9.7 0 0 0 -9.65-9.7zm-36.32-14.52a17 17 0 0 1 14.55-16.78v15.78l-11.14 11.14a16.84 16.84 0 0 1 -3.41-10.14zm-46 19.36h2.42v19.35h-2.36zm-16.93 0h2.42v19.35h-2.36zm20.29 96.77 3.23-9.67h20.7l3.23 9.67zm83.74-29h-140.26v-62.91a4.84 4.84 0 0 1 4.84-4.84h16.93v19.33h-2.42v-14.49a2.42 2.42 0 0 0 -2.42-2.42h-9.67a2.42 2.42 0 0 0 -2.42 2.42v16.91a2.42 2.42 0 0 0 2.42 2.42h77.42a2.42 2.42 0 0 0 2.42-2.42v-16.91a2.42 2.42 0 0 0 -2.42-2.42h-9.68a2.42 2.42 0 0 0 -2.42 2.42v14.49h-2.42v-19.35h36a21.73 21.73 0 0 0 19.91 0h9.4a4.84 4.84 0 0 1 4.85 4.86z" fill="#32363b"/><path d="m51.61 141.14h-14.51a2.42 2.42 0 1 0 0 4.84h14.51a2.42 2.42 0 0 0 0-4.84z" fill="#32363b"/><path d="m61.29 141.14h-2.42a2.42 2.42 0 0 0 0 4.84h2.42a2.42 2.42 0 1 0 0-4.84z" fill="#32363b"/><path d="m126.61 85.49a2.39 2.39 0 0 0 1.71-.71l9-9h20.77a2.42 2.42 0 0 0 0-4.84h-21.8a2.39 2.39 0 0 0 -1.71.71l-9.68 9.67a2.42 2.42 0 0 0 1.71 4.13z" fill="#32363b"/><path d="m158.06 112.11a7.26 7.26 0 0 0 -6.27 3.62l-25.33-14.73a7.26 7.26 0 0 0 -14.25.18l-25.48 19.07a7.25 7.25 0 0 0 -12.55.66l-25.18-10.5a7.25 7.25 0 1 0 -.59 5l25.19 10.5a7.26 7.26 0 0 0 14.2-.4l25.48-19.12a7.25 7.25 0 0 0 12.36-.31l25.36 14.76a7.26 7.26 0 1 0 7.1-8.73z" fill="#32363b"/><path d="m138.71 126.62h-16.94a2.42 2.42 0 1 0 0 4.84h16.94a2.42 2.42 0 1 0 0-4.84z" fill="#32363b"/><path d="m138.71 119.36h-7.26a2.42 2.42 0 1 0 0 4.84h7.26a2.42 2.42 0 0 0 0-4.84z" fill="#32363b"/><path d="m37.1 97.59h26.61a2.42 2.42 0 0 0 0-4.84h-26.61a2.42 2.42 0 1 0 0 4.84z" fill="#32363b"/><path d="m71 97.59h2.42a2.42 2.42 0 0 0 0-4.84h-2.42a2.42 2.42 0 1 0 0 4.84z" fill="#32363b"/><g fill="currentColor"><path d="m170.16 143.56a4.85 4.85 0 0 1 -4.84 4.84h-130.64a4.85 4.85 0 0 1 -4.84-4.84v-4.84h140.32z"/><path d="m148.39 30a17 17 0 0 1 14.34 14.34h-14.34z"/><path d="m147 49.2h15.76a16.92 16.92 0 0 1 -26.9 11.14z"/><path d="m44.35 112.12a2.43 2.43 0 1 1 -2.41-2.43 2.42 2.42 0 0 1 2.41 2.43z"/><path d="m80.65 126.62a2.42 2.42 0 0 1 -2.42-2.42 2.42 2.42 0 1 1 2.42 2.43z"/><path d="m119.35 104.85a2.42 2.42 0 1 1 2.42-2.42 2.41 2.41 0 0 1 -2.42 2.42z"/><path d="m158.06 121.78a2.42 2.42 0 1 1 2.42-2.42 2.41 2.41 0 0 1 -2.42 2.42z"/><path d="m90.32 39.53h4.84v45.97h-4.84z"/><path d="m73.39 29.85h4.84v55.65h-4.84z"/><path d="m56.45 46.78h4.84v38.71h-4.84z"/><path d="m39.52 73.4h4.84v12.1h-4.84z"/><path d="m107.26 73.4h4.84v12.1h-4.84z"/><path d="m75.81 167.75h48.39v2.42h-48.39z"/></g></svg>