<svg viewBox="0 0 200 200" xmlns="http://www.w3.org/2000/svg"><path d="m164.29 126.79v-85.72h-123.22v34.82h13.39a2.68 2.68 0 0 1 2.68 2.68v48.22zm-109.83-83a34.87 34.87 0 0 1 34.83 34.78 2.68 2.68 0 0 1 -5.36 0 29.5 29.5 0 0 0 -29.47-29.46 2.68 2.68 0 0 1 0-5.36zm0 10.71a24.14 24.14 0 0 1 24.11 24.07 2.68 2.68 0 1 1 -5.36 0 18.77 18.77 0 0 0 -18.75-18.75 2.68 2.68 0 0 1 0-5.36zm0 16.08a2.68 2.68 0 0 1 0-5.36 13.41 13.41 0 0 1 13.4 13.39 2.68 2.68 0 1 1 -5.36 0 8 8 0 0 0 -8.04-8.07z" fill="currentColor"/><path d="m25 141.2 2.61 1.31a24.25 24.25 0 0 0 21.56 0l2.62-1.31v-59.95h-26.79zm21.43-1h-2.68a2.68 2.68 0 1 1 0-5.36h2.68a2.68 2.68 0 0 1 0 5.36zm0-8h-2.68a2.68 2.68 0 1 1 0-5.35h2.68a2.68 2.68 0 1 1 0 5.35zm0-8h-2.68a2.68 2.68 0 0 1 0-5.36h2.68a2.68 2.68 0 0 1 0 5.36zm-2.68-37.5h2.68a2.68 2.68 0 1 1 0 5.35h-2.68a2.68 2.68 0 1 1 0-5.35zm2.68 18.75a8 8 0 1 1 -8-8 8 8 0 0 1 8 7.91zm-16.07-18.84h2.64a2.68 2.68 0 0 1 0 5.39h-2.64a2.68 2.68 0 1 1 0-5.35zm0 32.14h2.64a2.68 2.68 0 0 1 0 5.36h-2.64a2.68 2.68 0 0 1 0-5.36zm0 8h2.64a2.68 2.68 0 0 1 0 5.35h-2.64a2.68 2.68 0 1 1 0-5.35zm0 8h2.64a2.68 2.68 0 0 1 0 5.36h-2.64a2.68 2.68 0 1 1 0-5.36z" fill="#32363b"/><circle cx="38.39" cy="105.36" fill="currentColor" r="2.68"/><g fill="#32363b"><path d="m38.39 156.25a13.4 13.4 0 0 0 12.49-8.65 29.33 29.33 0 0 1 -25 0 13.39 13.39 0 0 0 12.51 8.65z"/><path d="m141.42 158.93h-14.63v2.68a2.68 2.68 0 0 1 -2.68 2.68h-42.86a2.68 2.68 0 0 1 -2.68-2.68v-2.68h-14.64l-7.14 10.71h91.78z"/><path d="m175 134.82v-101.82a2.68 2.68 0 0 0 -2.68-2.68h-139.32a2.68 2.68 0 0 0 -2.64 2.68v42.89h5.35v-40.18h133.93v96.43h-112.5v5.36h115.18a2.68 2.68 0 0 0 2.68-2.68z"/></g><path d="m83.93 142.86h37.5v16.07h-37.5z" fill="currentColor"/></svg>