<svg enable-background="new 0 0 300 300" viewBox="0 0 300 300" xmlns="http://www.w3.org/2000/svg"><path d="m98.1 18.2v20.3h-48.7v-14.3h-29.7v29.7h29.7v-14.3h48.6v41.7h-48.6v-14.4h-29.7v29.7h29.7v-14.4h48.6v110.8h-4.9c-.1-2.5-1.1-5-3-6.9-4.1-4.1-10.7-4.1-14.8 0-1.9 1.9-2.9 4.4-3 6.9h-22.9v-14.3h-29.7v29.7h29.7v-14.3h22.8c.1 2.5 1.1 5 3 6.9 4.1 4.1 10.7 4.1 14.8 0 1.9-1.9 2.9-4.4 3-6.9h4.9v90.7h184.1v-266.6zm183.1 265.5h-182.1v-264.5h182.1zm-41.7-181.6v-7.6h29.3v7.6zm0 10.3v-7.6h29.3v7.6zm35.1-44.8h-40.8v61.5h40.8zm-4 56.8h-32.9v-31.7h32.9zm0-35.5h-32.9v-13.1h32.9zm-31.1 33.7v-7.6h29.3v7.6zm-86 126.2h-29.3v-7.6h29.3zm0 20.5h-29.3v-7.6h29.3zm0-10.2h-29.3v-7.6h29.3zm66.2-191.3h-29.3v-7.6h29.3zm5.8-13.4h54.3v214.4h-120.6v-54.5h-40.8v61.5h40.8v-6h121.5v-216.4h-55.3v-20.1h-40.8v41.3h40.8v-20.2zm-70.2 216.7h-32.9v-31.7h32.9zm0-35.5h-32.9v-13.1h32.9zm66.2-165.7h-32.9v-11.5h32.9zm0-15.4h-32.9v-13.1h32.9zm-31.1 50.1h29.3v7.6h-29.3zm29.3 144.2h-29.3v-7.6h29.3zm-29.3-99.8h29.3v7.6h-29.3zm-31.2-83.3h14.1v33.3.5 43.8h11.3v20.1h40.8v-41.3h-40.8v20.1h-10.3v-42.7h10.3v19.5h40.8v-41.3h-40.8v20.8h-10.3v-33.8h-15.1v-10.8h-19.9v-12h45.3v-1h-46.3v13h-19.9v22.5h40.8zm29.4 64.6h32.9v13.1h-32.9zm0 16.9h32.9v11.5h-32.9zm0-61.3h32.9v13.1h-32.9zm0 16.9h32.9v11.5h-32.9zm-70.2 69h156.2v22.5h-156.2zm88.5 42.5h-22.3v41.3h40.8v-41.3h-17.5v-6.4h-93.1v-95h3.6v10.6h40.8v-22.5h-40.8v10.9h-4.6v97h93.1zm14.6 36.6h-32.9v-11.5h32.9zm0-15.3h-32.9v-13.1h32.9z"/></svg>