<svg viewBox="0 0 200 200" xmlns="http://www.w3.org/2000/svg"><path d="m99.61 175.27c28.49 0 51.8-22.44 51.8-50.06 0-17.27 6.9-36.26-55.68-99.28-7.34-7.34 14.67 49.21 3.88 49.21-28.48 0-51.79 22.44-51.79 50.07s23.31 50.06 51.79 50.06z" fill="currentColor"/><g fill-rule="evenodd"><path d="m138.46 119.59v-.86c.43 2.59.43 3.45 0 .86z" fill="currentColor"/><path d="m138.46 118.73c-1.73-9.06-9.06-42.73-28.06-59.13-4.31-3.89 4.75 17.26.44 27.62a32.35 32.35 0 0 0 -11.23-1.72 38.85 38.85 0 1 0 38.85 38.84 26.62 26.62 0 0 0 -.43-6z" fill="#32363b"/></g></svg>