<svg viewBox="0 0 200 200" xmlns="http://www.w3.org/2000/svg"><path d="m102.31 93.5h-25.7l-4.83 12h-46.78v55.91h87.62v-55.86h-5.48z" fill="#fff" stroke="#32363b" stroke-linecap="round" stroke-linejoin="round" stroke-width="4.37"/><path d="m169.52 51.41-4.82-12h-25.7l-4.82 12h-46.8v33.3h20.88l4.83 12.05h8.32v10.57h53.59v-55.92z" fill="currentColor"/><g fill="#32363b"><path d="m166.21 142.63h-21.21l4.29-4.29-6.21-6.21-14.9 14.87 14.9 14.9 6.21-6.22-4.29-4.26h30v-27.76h-8.79z"/><path d="m33.79 57.37h21.21l-4.29 4.29 6.21 6.21 14.9-14.87-14.9-14.9-6.21 6.22 4.29 4.26h-30v27.76h8.79z"/></g></svg>