<svg viewBox="0 0 200 200" xmlns="http://www.w3.org/2000/svg"><path d="m131.64 67.48h-13.18v-10h28.42a4.4 4.4 0 0 0 3.76-6.66l-5.64-9.44 5.72-9.77a4.39 4.39 0 0 0 -3.84-6.61h-32.82a4.4 4.4 0 0 0 -4.39 4.39v38.09h-41.31a31.38 31.38 0 0 0 -31.36 31.35v48a4.4 4.4 0 0 0 4.4 4.4h49.52v19.34a4.4 4.4 0 0 0 8.79 0v-19.3h10v19.34a4.4 4.4 0 0 0 8.79 0v-19.34h40.13a4.4 4.4 0 0 0 4.4-4.4v-48a31.38 31.38 0 0 0 -31.39-31.39zm-13.18-33.69h20.75l-3.16 5.4a4.39 4.39 0 0 0 0 4.48l3 5.06h-20.59zm35.74 108.69h-54.49v-43.65a31.26 31.26 0 0 0 -9.61-22.56h19.57v12a4.4 4.4 0 1 0 8.79 0v-12h13.18a22.59 22.59 0 0 1 22.56 22.56z" fill="#32363b"/><path d="m118.46 33.79h20.75l-3.16 5.4a4.39 4.39 0 0 0 0 4.48l3 5.06h-20.59z" fill="currentColor"/></svg>