<svg viewBox="0 0 200 200" xmlns="http://www.w3.org/2000/svg"><path d="m51.74 100.5-2.81-2.8a33.53 33.53 0 0 1 -8.41-33 20.07 20.07 0 1 1 24.23-22.88 33 33 0 0 1 31 8.81l1.25 1.21-14.82 14.82-1.18-1.21a12.32 12.32 0 1 0 -17.45 17.43l33.25 33.24-14.8 14.82-15.64-15.62z" fill="currentColor"/><path d="m68.36 84.08 15.64-15.62 14.8-14.82 2.8-2.81a33.62 33.62 0 0 1 32.85-8.41 20 20 0 1 1 22.43 22.63 33.25 33.25 0 0 1 -8.42 32.65l-1.2 1.2-14.42-14.82 1.21-1.2a12.32 12.32 0 1 0 -17.43-17.43l-2.8 2.81-14.82 14.82-15.62 15.62z" fill="#32363b"/><path d="m135.05 158.78a33.33 33.33 0 0 1 -33.25-8.21l-1.2-1.2 14.82-14.82 1.2 1.2a12.32 12.32 0 0 0 17.43-17.43l-2.81-2.8-14.82-14.82-15.62-15.62 14.82-14.82 33.45 33.44a33.57 33.57 0 0 1 8.81 31.45 20 20 0 0 1 -2.81 39.85 20.66 20.66 0 0 1 -20.02-16.22z" fill="currentColor"/><path d="m129.24 117.12-15.62 15.62-14.82 14.82-2.8 2.81a33.32 33.32 0 0 1 -31.44 8.81 20.06 20.06 0 1 1 -24.23-23.83 33.22 33.22 0 0 1 8.61-31.85l1.2-1.2 14.86 14.82-1.2 1.2a12.32 12.32 0 0 0 17.42 17.43l2.78-2.81 14.8-14.82 15.62-15.62z" fill="#32363b"/></svg>