<svg viewBox="0 0 200 200" xmlns="http://www.w3.org/2000/svg"><path d="m157 66.3c-2.1-22.06-26.39-34.79-45.6-23.83a39 39 0 0 0 -29-12.78 39.59 39.59 0 0 0 -39.4 36.6 26.31 26.31 0 0 0 8.62 51.29h96.68a26.31 26.31 0 0 0 8.7-51.28z" fill="#32363b"/><path d="m100 135.16a4.4 4.4 0 1 0 -4.39-4.4 4.39 4.39 0 0 0 4.39 4.4zm28 17.36a4.38 4.38 0 0 0 -6.21 0c-11.62 11.62-31.88 11.62-43.5 0a4.39 4.39 0 0 0 -6.29 6.21 39.54 39.54 0 0 0 55.92 0 4.38 4.38 0 0 0 .08-6.21zm-28 .21a21.83 21.83 0 0 0 15.54-6.44 4.39 4.39 0 1 0 -6.22-6.21 13.48 13.48 0 0 1 -18.64 0 4.39 4.39 0 1 0 -6.22 6.21 21.83 21.83 0 0 0 15.54 6.44z" fill="currentColor"/></svg>