<svg viewBox="0 0 200 200" xmlns="http://www.w3.org/2000/svg"><g fill="#32363b"><path d="m168.6 74.4-3.72-3.7c-9.67 8.64-19.4 17.22-29 25.93-24.21 21.94-32.23 21.94-56.71 1-16.88-14.51-34.17-28.47-51.29-42.63l-2.88 3.3 40.77 42.51-33.91 41.34 3.14 2.85 40-33.55c29.09 26.14 29.09 26.14 65.58 2.23l31.42 24.57 3-3.26-27.69-33.85z"/><path d="m168.6 74.4-21.29 26.74 27.69 33.86-3 3.26-31.36-24.56c-36.49 23.91-36.49 23.91-65.58-2.23l-40.06 33.53-3.16-2.87 33.91-41.34-40.75-42.49 2.88-3.3c17.12 14.16 34.41 28.12 51.28 42.58 24.48 21 32.5 21 56.71-1 9.61-8.71 19.34-17.29 29-25.93z"/></g></svg>