<svg viewBox="0 0 200 200" xmlns="http://www.w3.org/2000/svg"><path d="m100 175.82a11.65 11.65 0 0 1 -5.77-1.54l-18.4-10.87c-2.74-1.54-1.4-2.08-.51-2.38a36.16 36.16 0 0 0 8.31-3.78 1.34 1.34 0 0 1 1.37.12l14.11 8.36a1.7 1.7 0 0 0 1.69 0l55-31.72a1.76 1.76 0 0 0 .83-1.49v-63.46a1.76 1.76 0 0 0 -.86-1.52l-54.97-31.7a1.7 1.7 0 0 0 -1.69 0l-54.92 31.73a1.75 1.75 0 0 0 -.86 1.52v63.43a1.66 1.66 0 0 0 .86 1.46l15.06 8.69c8.19 4.07 13.19-.72 13.19-5.57v-62.62a1.57 1.57 0 0 1 1.61-1.58h7a1.6 1.6 0 0 1 1.61 1.58v62.65c0 10.89-6 17.15-16.28 17.15-3.19 0-5.69 0-12.65-3.46l-14.41-8.3a11.59 11.59 0 0 1 -5.77-10v-63.46a11.6 11.6 0 0 1 5.77-10l54.88-31.76a12 12 0 0 1 11.54 0l55 31.76a11.56 11.56 0 0 1 5.77 10v63.43a11.66 11.66 0 0 1 -5.77 10l-55 31.73a11.57 11.57 0 0 1 -5.74 1.6z" fill="#32363b"/><path d="m144.35 113.29c0-11.88-8-15-24.91-17.26-17.09-2.27-18.81-3.43-18.81-7.42 0-3.3 1.45-7.71 14.1-7.71 11.28 0 15.45 2.45 17.18 10.07a1.6 1.6 0 0 0 1.55 1.25h7.14a1.54 1.54 0 0 0 1.16-.51 1.65 1.65 0 0 0 .42-1.22c-1.1-13.13-9.83-19.23-27.45-19.23-15.68 0-25 6.61-25 17.71 0 12 9.32 15.36 24.35 16.85 18 1.75 19.41 4.4 19.41 8 0 6.13-5 8.75-16.52 8.75-14.56 0-17.74-3.66-18.82-10.9a1.57 1.57 0 0 0 -1.57-1.34h-7.15a1.57 1.57 0 0 0 -1.57 1.58c0 9.26 5 20.3 29.11 20.3 17.38 0 27.38-6.91 27.38-18.87z" fill="currentColor"/></svg>