<svg viewBox="0 0 200 200" xmlns="http://www.w3.org/2000/svg"><path d="m100 35.05-75 129.9h150z" fill="currentColor"/><path d="m100.05 44.08a35.2 35.2 0 0 0 -17.93 65.51 6 6 0 0 1 2.95 5.22v8.57a2.78 2.78 0 0 1 1.11-.22h27.64a2.78 2.78 0 0 1 1.11.22v-8.58a6.12 6.12 0 0 1 3-5.25 35.19 35.19 0 0 0 -17.89-65.47z" fill="#fff" stroke="#32363b" stroke-linecap="round" stroke-linejoin="round" stroke-width="3.26"/><path d="m104.41 124.84a1.69 1.69 0 0 1 -1.69-1.68v-15.11a6.89 6.89 0 0 1 1.44-4.21l2.41-3.13a3.5 3.5 0 0 0 .74-2.15v-15.77a1.69 1.69 0 0 1 3.37 0v15.77a7 7 0 0 1 -1.43 4.21l-2.42 3.13a3.55 3.55 0 0 0 -.73 2.15v15.11a1.69 1.69 0 0 1 -1.69 1.68z" fill="currentColor"/><path d="m95.59 124.84a1.69 1.69 0 0 1 -1.69-1.68v-15.11a3.55 3.55 0 0 0 -.73-2.15l-2.42-3.13a7 7 0 0 1 -1.43-4.21v-15.77a1.69 1.69 0 0 1 3.37 0v15.77a3.5 3.5 0 0 0 .74 2.15l2.41 3.12a6.94 6.94 0 0 1 1.44 4.22v15.11a1.69 1.69 0 0 1 -1.69 1.68z" fill="currentColor"/><path d="m124.55 72.38a24.5 24.5 0 0 0 -12.87-15.61 1.69 1.69 0 1 1 1.48-3 27.85 27.85 0 0 1 14.65 17.77 1.69 1.69 0 1 1 -3.26.87z" fill="#ededf4"/><g fill="#c8c8cc"><path d="m93.18 147.87v1.23a6.82 6.82 0 1 0 13.63 0v-1.23z" stroke="#32363b" stroke-linecap="round" stroke-linejoin="round" stroke-width="3.26"/><path d="m110.68 86.35h-21.36a1.69 1.69 0 1 1 0-3.37h21.36a1.69 1.69 0 1 1 0 3.37z"/><path d="m56.62 80.06h-5.8a1.69 1.69 0 1 1 0-3.38h5.8a1.69 1.69 0 1 1 0 3.38z"/><path d="m58.28 69.35-5.43-2.06a1.69 1.69 0 0 1 1.2-3.16l5.43 2.06a1.69 1.69 0 1 1 -1.2 3.16z"/><path d="m51.87 91.63a1.69 1.69 0 0 1 1-2.18l5.43-2.06a1.69 1.69 0 1 1 1.2 3.16l-5.43 2.06a1.69 1.69 0 0 1 -2.2-.98z"/><path d="m149.18 80.06h-5.8a1.69 1.69 0 0 1 0-3.38h5.8a1.69 1.69 0 0 1 0 3.38z"/><path d="m139.54 68.37a1.7 1.7 0 0 1 1-2.18l5.46-2.06a1.69 1.69 0 0 1 1.2 3.16l-5.43 2.06a1.69 1.69 0 0 1 -2.23-.98z"/><path d="m146 92.61-5.43-2.06a1.69 1.69 0 1 1 1.2-3.16l5.43 2.06a1.69 1.69 0 0 1 -1.2 3.16z"/></g><path d="m111.57 139.57h-23.14a2.94 2.94 0 0 0 -2.93 2.93v2.5a2.93 2.93 0 0 0 2.93 2.93h23.14a2.93 2.93 0 0 0 2.93-2.93v-2.5a2.94 2.94 0 0 0 -2.93-2.93z" fill="#fff" stroke="#32363b" stroke-linecap="round" stroke-linejoin="round" stroke-width="3.26"/><path d="m113.82 131.34h-27.64a2.93 2.93 0 0 0 -2.93 2.92v2.5a2.94 2.94 0 0 0 2.93 2.93h27.64a2.94 2.94 0 0 0 2.93-2.93v-2.5a2.93 2.93 0 0 0 -2.93-2.92z" fill="#c8c8cc" stroke="#32363b" stroke-linecap="round" stroke-linejoin="round" stroke-width="3.26"/><path d="m113.82 123.1h-27.64a2.93 2.93 0 0 0 -2.93 2.9v2.49a2.94 2.94 0 0 0 2.93 2.93h27.64a2.94 2.94 0 0 0 2.93-2.93v-2.49a2.93 2.93 0 0 0 -2.93-2.9z" fill="#fff" stroke="#32363b" stroke-linecap="round" stroke-linejoin="round" stroke-width="3.26"/></svg>