<?xml version="1.0" encoding="UTF-8"?><svg id="Layer_2" xmlns="http://www.w3.org/2000/svg" xmlns:xlink="http://www.w3.org/1999/xlink" viewBox="0 0 792 612"><defs><style>.cls-1{fill:rgba(241,139,33,.3);stroke:#f18b21;}.cls-1,.cls-2,.cls-3,.cls-4,.cls-5,.cls-6,.cls-7{stroke-miterlimit:10;}.cls-8{fill:#231f20;}.cls-2{fill:#dfe3e8;stroke:#000;}.cls-3{stroke-dasharray:5.33 5.33;}.cls-3,.cls-4{stroke:#939598;stroke-width:2px;}.cls-3,.cls-4,.cls-5{fill:none;}.cls-9{fill:#1a9ad7;}.cls-10{fill:#ec7323;}.cls-11{clip-path:url(#clippath-1);}.cls-5,.cls-6,.cls-7{stroke:#231f20;}.cls-5,.cls-7{stroke-width:1px;}.cls-12,.cls-6,.cls-7{fill:#fff;}.cls-13{fill:#939598;}.cls-14{fill:#51ad53;}.cls-15{clip-path:url(#clippath);}</style><clipPath id="clippath"><rect class="cls-7" x="85.92" y="254.57" width="264.53" height="32.11" rx="3.98" ry="3.98"/></clipPath><clipPath id="clippath-1"><rect class="cls-7" x="454.73" y="254.57" width="264.53" height="32.11" rx="3.98" ry="3.98"/></clipPath></defs><rect class="cls-6" x="85.92" y="308.03" width="264.53" height="139.42" rx="4.01" ry="4.01"/><circle class="cls-9" cx="143.88" cy="183.43" r="22.86"/><path class="cls-12" d="M146.51,184.65c3.33-1.11,5.73-4.22,5.73-7.91.02-4.63-3.73-8.38-8.36-8.38s-8.38,3.75-8.38,8.38c0,3.69,2.4,6.79,5.73,7.91-5.45,1.17-9.55,5.91-9.55,11.59h24.39c0-5.68-4.09-10.42-9.56-11.59h0ZM136.8,176.74c0-3.9,3.17-7.07,7.07-7.07s7.07,3.17,7.07,7.07-3.17,7.07-7.07,7.07-7.07-3.19-7.07-7.07h0ZM143.88,185.66c5.54,0,10.14,4.04,10.8,9.27h-21.6c.66-5.21,5.26-9.27,10.8-9.27Z"/><path class="cls-8" d="M117.14,221.83h-1.23v-7.11h1.23v7.11Z"/><path class="cls-8" d="M120.01,219.19v2.64h-1.24v-7.11h2.72c.79,0,1.42.21,1.89.62.47.41.7.96.7,1.64s-.23,1.24-.69,1.63c-.46.39-1.1.58-1.92.58h-1.47ZM120.01,218.19h1.48c.44,0,.77-.1,1.01-.31s.35-.51.35-.9-.12-.69-.35-.92-.56-.35-.97-.35h-1.52v2.48Z"/><path class="cls-8" d="M131.63,220.17h-2.75l-.58,1.66h-1.28l2.69-7.11h1.11l2.69,7.11h-1.29l-.58-1.66ZM129.23,219.18h2.06l-1.03-2.95-1.03,2.95Z"/><path class="cls-8" d="M133.96,219.15c0-.81.19-1.47.57-1.96s.88-.74,1.52-.74c.56,0,1.01.2,1.36.59v-2.71h1.19v7.5h-1.07l-.06-.55c-.35.43-.83.64-1.42.64s-1.12-.25-1.5-.75c-.38-.5-.57-1.18-.57-2.03ZM135.14,219.25c0,.54.1.96.31,1.26.21.3.5.45.88.45.49,0,.84-.22,1.06-.65v-2.26c-.22-.42-.57-.63-1.05-.63-.38,0-.68.15-.89.46s-.31.76-.31,1.37Z"/><path class="cls-8" d="M139.7,219.15c0-.81.19-1.47.57-1.96s.88-.74,1.52-.74c.56,0,1.01.2,1.36.59v-2.71h1.19v7.5h-1.07l-.06-.55c-.35.43-.83.64-1.42.64s-1.12-.25-1.5-.75c-.38-.5-.57-1.18-.57-2.03ZM140.88,219.25c0,.54.1.96.31,1.26.21.3.5.45.88.45.49,0,.84-.22,1.06-.65v-2.26c-.22-.42-.57-.63-1.05-.63-.38,0-.68.15-.89.46s-.31.76-.31,1.37Z"/><path class="cls-8" d="M148.43,217.63c-.16-.03-.32-.04-.48-.04-.54,0-.91.21-1.1.62v3.61h-1.19v-5.28h1.13l.03.59c.29-.46.68-.69,1.19-.69.17,0,.31.02.42.07v1.11Z"/><path class="cls-8" d="M151.57,221.92c-.75,0-1.36-.24-1.83-.71-.47-.47-.7-1.1-.7-1.89v-.15c0-.53.1-1,.31-1.41.2-.42.49-.74.86-.97s.78-.35,1.23-.35c.72,0,1.28.23,1.67.69.39.46.59,1.11.59,1.95v.48h-3.45c.04.44.18.78.44,1.04.25.25.58.38.96.38.54,0,.99-.22,1.33-.66l.64.61c-.21.32-.49.56-.85.73-.35.17-.75.26-1.19.26ZM151.43,217.4c-.33,0-.59.11-.79.34-.2.23-.33.55-.38.95h2.26v-.09c-.03-.4-.13-.7-.32-.9s-.44-.31-.77-.31Z"/><path class="cls-8" d="M157.64,220.39c0-.21-.09-.37-.26-.48-.17-.11-.46-.21-.87-.29s-.74-.19-1.01-.32c-.59-.29-.89-.7-.89-1.25,0-.46.19-.84.58-1.14s.87-.46,1.46-.46c.63,0,1.14.16,1.53.47.39.31.58.72.58,1.22h-1.19c0-.23-.08-.42-.25-.57s-.39-.23-.67-.23c-.26,0-.47.06-.64.18-.16.12-.25.28-.25.48,0,.18.08.32.23.42s.46.2.93.31.83.22,1.1.37c.26.14.46.31.59.51.13.2.19.44.19.72,0,.48-.2.86-.59,1.15s-.91.44-1.55.44c-.43,0-.82-.08-1.16-.23s-.6-.37-.79-.64-.28-.57-.28-.88h1.15c.02.28.12.5.32.65s.45.23.78.23.55-.06.71-.18.24-.27.24-.47Z"/><path class="cls-8" d="M162.88,220.39c0-.21-.09-.37-.26-.48-.17-.11-.46-.21-.87-.29s-.74-.19-1.01-.32c-.59-.29-.89-.7-.89-1.25,0-.46.19-.84.58-1.14s.87-.46,1.46-.46c.63,0,1.14.16,1.53.47.39.31.58.72.58,1.22h-1.19c0-.23-.08-.42-.25-.57s-.39-.23-.67-.23c-.26,0-.47.06-.64.18-.16.12-.25.28-.25.48,0,.18.08.32.23.42s.46.2.93.31.83.22,1.1.37c.26.14.46.31.59.51.13.2.19.44.19.72,0,.48-.2.86-.59,1.15s-.91.44-1.55.44c-.43,0-.82-.08-1.16-.23s-.6-.37-.79-.64-.28-.57-.28-.88h1.15c.02.28.12.5.32.65s.45.23.78.23.55-.06.71-.18.24-.27.24-.47Z"/><path class="cls-8" d="M170.71,221.83h-1.18v-5.71l-1.74.59v-1l2.77-1.02h.15v7.13Z"/><circle class="cls-9" cx="254.3" cy="183.43" r="22.86"/><path class="cls-12" d="M256.94,184.65c3.33-1.11,5.73-4.22,5.73-7.91.02-4.63-3.73-8.38-8.36-8.38s-8.38,3.75-8.38,8.38c0,3.69,2.4,6.79,5.73,7.91-5.45,1.17-9.55,5.91-9.55,11.59h24.39c0-5.68-4.09-10.42-9.56-11.59h0ZM247.23,176.74c0-3.9,3.17-7.07,7.07-7.07s7.07,3.17,7.07,7.07-3.17,7.07-7.07,7.07-7.07-3.19-7.07-7.07h0ZM254.31,185.66c5.54,0,10.14,4.04,10.8,9.27h-21.6c.66-5.21,5.26-9.27,10.8-9.27Z"/><path class="cls-8" d="M227.57,221.83h-1.23v-7.11h1.23v7.11Z"/><path class="cls-8" d="M230.43,219.19v2.64h-1.24v-7.11h2.72c.79,0,1.42.21,1.89.62.47.41.7.96.7,1.64s-.23,1.24-.69,1.63c-.46.39-1.1.58-1.92.58h-1.47ZM230.43,218.19h1.48c.44,0,.77-.1,1.01-.31s.35-.51.35-.9-.12-.69-.35-.92-.56-.35-.97-.35h-1.52v2.48Z"/><path class="cls-8" d="M242.06,220.17h-2.75l-.58,1.66h-1.28l2.69-7.11h1.11l2.69,7.11h-1.29l-.58-1.66ZM239.65,219.18h2.06l-1.03-2.95-1.03,2.95Z"/><path class="cls-8" d="M244.38,219.15c0-.81.19-1.47.57-1.96s.88-.74,1.52-.74c.56,0,1.01.2,1.36.59v-2.71h1.19v7.5h-1.07l-.06-.55c-.35.43-.83.64-1.42.64s-1.12-.25-1.5-.75c-.38-.5-.57-1.18-.57-2.03ZM245.57,219.25c0,.54.1.96.31,1.26.21.3.5.45.88.45.49,0,.84-.22,1.06-.65v-2.26c-.22-.42-.57-.63-1.05-.63-.38,0-.68.15-.89.46s-.31.76-.31,1.37Z"/><path class="cls-8" d="M250.13,219.15c0-.81.19-1.47.57-1.96s.88-.74,1.52-.74c.56,0,1.01.2,1.36.59v-2.71h1.19v7.5h-1.07l-.06-.55c-.35.43-.83.64-1.42.64s-1.12-.25-1.5-.75c-.38-.5-.57-1.18-.57-2.03ZM251.31,219.25c0,.54.1.96.31,1.26.21.3.5.45.88.45.49,0,.84-.22,1.06-.65v-2.26c-.22-.42-.57-.63-1.05-.63-.38,0-.68.15-.89.46s-.31.76-.31,1.37Z"/><path class="cls-8" d="M258.86,217.63c-.16-.03-.32-.04-.48-.04-.54,0-.91.21-1.1.62v3.61h-1.19v-5.28h1.13l.03.59c.29-.46.68-.69,1.19-.69.17,0,.31.02.42.07v1.11Z"/><path class="cls-8" d="M262,221.92c-.75,0-1.36-.24-1.83-.71-.47-.47-.7-1.1-.7-1.89v-.15c0-.53.1-1,.31-1.41.2-.42.49-.74.86-.97s.78-.35,1.23-.35c.72,0,1.28.23,1.67.69.39.46.59,1.11.59,1.95v.48h-3.45c.04.44.18.78.44,1.04.25.25.58.38.96.38.54,0,.99-.22,1.33-.66l.64.61c-.21.32-.49.56-.85.73-.35.17-.75.26-1.19.26ZM261.86,217.4c-.33,0-.59.11-.79.34-.2.23-.33.55-.38.95h2.26v-.09c-.03-.4-.13-.7-.32-.9s-.44-.31-.77-.31Z"/><path class="cls-8" d="M268.07,220.39c0-.21-.09-.37-.26-.48-.17-.11-.46-.21-.87-.29s-.74-.19-1.01-.32c-.59-.29-.89-.7-.89-1.25,0-.46.19-.84.58-1.14s.87-.46,1.46-.46c.63,0,1.14.16,1.53.47.39.31.58.72.58,1.22h-1.19c0-.23-.08-.42-.25-.57s-.39-.23-.67-.23c-.26,0-.47.06-.64.18-.16.12-.25.28-.25.48,0,.18.08.32.23.42s.46.2.93.31.83.22,1.1.37c.26.14.46.31.59.51.13.2.19.44.19.72,0,.48-.2.86-.59,1.15s-.91.44-1.55.44c-.43,0-.82-.08-1.16-.23s-.6-.37-.79-.64-.28-.57-.28-.88h1.15c.02.28.12.5.32.65s.45.23.78.23.55-.06.71-.18.24-.27.24-.47Z"/><path class="cls-8" d="M273.31,220.39c0-.21-.09-.37-.26-.48-.17-.11-.46-.21-.87-.29s-.74-.19-1.01-.32c-.59-.29-.89-.7-.89-1.25,0-.46.19-.84.58-1.14s.87-.46,1.46-.46c.63,0,1.14.16,1.53.47.39.31.58.72.58,1.22h-1.19c0-.23-.08-.42-.25-.57s-.39-.23-.67-.23c-.26,0-.47.06-.64.18-.16.12-.25.28-.25.48,0,.18.08.32.23.42s.46.2.93.31.83.22,1.1.37c.26.14.46.31.59.51.13.2.19.44.19.72,0,.48-.2.86-.59,1.15s-.91.44-1.55.44c-.43,0-.82-.08-1.16-.23s-.6-.37-.79-.64-.28-.57-.28-.88h1.15c.02.28.12.5.32.65s.45.23.78.23.55-.06.71-.18.24-.27.24-.47Z"/><path class="cls-8" d="M282.7,221.83h-4.78v-.82l2.37-2.58c.34-.38.58-.7.73-.95.14-.26.22-.51.22-.77,0-.34-.1-.61-.29-.82-.19-.21-.45-.31-.77-.31-.38,0-.68.12-.89.35s-.32.56-.32.96h-1.19c0-.43.1-.82.3-1.17.2-.35.48-.62.84-.81.37-.19.79-.29,1.27-.29.69,0,1.23.17,1.63.52.4.35.6.83.6,1.44,0,.35-.1.73-.3,1.12-.2.39-.53.83-.98,1.33l-1.74,1.86h3.3v.95Z"/><path class="cls-8" d="M202.02,435.06h-2.75l-.58,1.66h-1.28l2.69-7.11h1.11l2.69,7.11h-1.29l-.58-1.66ZM199.61,434.07h2.06l-1.03-2.95-1.03,2.95Z"/><path class="cls-8" d="M209.95,434.96l1.09-5.35h1.23l-1.64,7.11h-1.18l-1.35-5.19-1.38,5.19h-1.19l-1.64-7.11h1.23l1.1,5.34,1.36-5.34h1.04l1.34,5.35Z"/><path class="cls-8" d="M216.93,434.89c0-.31-.11-.55-.33-.72-.22-.17-.62-.34-1.19-.51-.57-.17-1.03-.37-1.37-.58-.65-.41-.97-.94-.97-1.59,0-.57.23-1.04.7-1.42.47-.37,1.07-.56,1.82-.56.5,0,.94.09,1.32.27.39.18.69.44.91.78s.33.71.33,1.12h-1.23c0-.37-.12-.66-.35-.87-.23-.21-.57-.31-1-.31-.4,0-.72.09-.94.26-.22.17-.33.41-.33.72,0,.26.12.48.36.65.24.17.64.34,1.19.51.55.17,1,.35,1.33.56s.58.45.74.72c.16.27.23.59.23.96,0,.59-.23,1.06-.68,1.41-.45.35-1.07.53-1.85.53-.51,0-.99-.1-1.42-.29-.43-.19-.77-.45-1.01-.79-.24-.34-.36-.73-.36-1.17h1.24c0,.4.13.72.4.94.27.22.65.33,1.15.33.43,0,.75-.09.97-.26.22-.17.33-.4.33-.69Z"/><path class="cls-8" d="M225.9,433.54h-2.92v2.19h3.41v.99h-4.65v-7.11h4.61v1h-3.38v1.96h2.92v.98Z"/><path class="cls-8" d="M232.78,434.4c-.07.76-.35,1.35-.84,1.77s-1.14.64-1.95.64c-.57,0-1.07-.13-1.5-.4-.43-.27-.76-.65-1-1.14-.23-.5-.36-1.07-.37-1.72v-.66c0-.67.12-1.26.36-1.77.24-.51.58-.91,1.02-1.18.45-.28.96-.42,1.54-.42.78,0,1.42.21,1.89.64s.76,1.03.83,1.8h-1.23c-.06-.51-.21-.88-.45-1.11-.24-.23-.59-.34-1.05-.34-.54,0-.95.2-1.24.59-.29.39-.43.97-.44,1.73v.63c0,.77.14,1.35.41,1.76.28.4.68.61,1.21.61.49,0,.85-.11,1.09-.33.24-.22.4-.58.46-1.09h1.23Z"/><path class="cls-8" d="M238.67,436.72h-4.78v-.82l2.37-2.58c.34-.38.58-.7.73-.96.14-.25.22-.51.22-.77,0-.34-.1-.61-.29-.82-.19-.21-.45-.31-.77-.31-.38,0-.68.12-.89.35s-.32.55-.32.96h-1.19c0-.43.1-.82.3-1.17.2-.35.48-.62.84-.81.37-.19.79-.29,1.27-.29.69,0,1.23.17,1.63.52.4.35.6.83.6,1.44,0,.35-.1.73-.3,1.12-.2.39-.53.83-.98,1.33l-1.74,1.86h3.3v.95Z"/><path class="cls-10" d="M193.8,375.27h48.76v48.76h-48.76v-48.76Z"/><path class="cls-12" d="M210.26,407.58h15.24v-15.24h-15.24v15.24ZM226.71,392.34h2.44v1.22h-2.44v2.44h2.44v1.22h-2.44v1.83h2.44v1.22h-2.44v2.44h2.44v1.22h-2.44v2.44h2.44v1.22h-2.44v.08c0,.63-.51,1.14-1.14,1.14h-.08v2.44h-1.22v-2.44h-2.44v2.44h-1.22v-2.44h-1.83v2.44h-1.22v-2.44h-2.44v2.44h-1.22v-2.44h-2.44v2.44h-1.22v-2.44h-.08c-.63,0-1.14-.51-1.14-1.14v-.08h-1.83v-1.22h1.83v-2.44h-1.83v-1.22h1.83v-2.44h-1.83v-1.22h1.83v-1.83h-1.83v-1.22h1.83v-2.44h-1.83v-1.22h1.83v-.08c0-.63.51-1.14,1.14-1.14h.08v-2.44h1.22v2.44h2.44v-2.44h1.22v2.44h2.44v-2.44h1.22v2.44h1.83v-2.44h1.22v2.44h2.44v-2.44h1.22v2.44h.08c.63,0,1.14.51,1.14,1.14v.08h0ZM218.79,415.42s-.03.08-.08.08h-16.3s-.08-.03-.08-.08v-16.3s.03-.08.08-.08h3.58v-1.22h-3.58c-.71,0-1.29.58-1.29,1.29v16.3c0,.71.58,1.29,1.29,1.29h16.3c.71,0,1.29-.58,1.29-1.29v-2.97h-1.22v2.97h0ZM235.25,383.88v16.3c0,.71-.58,1.29-1.29,1.29h-3.58v-1.22h3.58s.08-.03.08-.08v-16.3s-.03-.08-.08-.08h-16.3s-.08.03-.08.08v3.58h-1.22v-3.58c0-.71.58-1.29,1.29-1.29h16.3c.71,0,1.29.58,1.29,1.29h0Z"/><rect class="cls-12" x="85.92" y="254.57" width="264.53" height="32.11" rx="3.98" ry="3.98"/><g class="cls-15"><rect class="cls-8" x="84.21" y="252.12" width="32.19" height="36.27"/></g><rect class="cls-5" x="85.92" y="254.57" width="264.53" height="32.11" rx="3.98" ry="3.98"/><path class="cls-8" d="M158.21,271.89h-2.75l-.58,1.66h-1.28l2.69-7.11h1.11l2.69,7.11h-1.29l-.58-1.66ZM155.81,270.9h2.06l-1.03-2.95-1.03,2.95Z"/><path class="cls-8" d="M166.14,271.79l1.09-5.35h1.23l-1.64,7.11h-1.18l-1.35-5.19-1.38,5.19h-1.19l-1.64-7.11h1.23l1.1,5.34,1.36-5.34h1.04l1.34,5.35Z"/><path class="cls-8" d="M173.13,271.72c0-.31-.11-.55-.33-.72-.22-.17-.62-.34-1.19-.51s-1.03-.36-1.37-.58c-.65-.41-.97-.94-.97-1.59,0-.57.23-1.04.7-1.42.47-.37,1.07-.56,1.82-.56.5,0,.94.09,1.32.27s.69.44.91.78.33.71.33,1.12h-1.23c0-.37-.12-.66-.35-.87-.23-.21-.57-.31-1-.31-.4,0-.72.09-.94.26-.22.17-.33.41-.33.72,0,.26.12.48.36.65s.64.34,1.19.51,1,.35,1.33.56.58.45.74.72.23.59.23.95c0,.59-.23,1.06-.68,1.41-.45.35-1.07.52-1.85.52-.51,0-.99-.1-1.42-.29-.43-.19-.77-.45-1.01-.79-.24-.34-.36-.73-.36-1.17h1.24c0,.4.13.72.4.94s.65.33,1.15.33c.43,0,.75-.09.97-.26.22-.17.33-.4.33-.69Z"/><path class="cls-8" d="M181.65,271.72c0-.31-.11-.55-.33-.72-.22-.17-.62-.34-1.19-.51s-1.03-.36-1.37-.58c-.65-.41-.97-.94-.97-1.59,0-.57.23-1.04.7-1.42.47-.37,1.07-.56,1.82-.56.5,0,.94.09,1.32.27s.69.44.91.78.33.71.33,1.12h-1.23c0-.37-.12-.66-.35-.87-.23-.21-.57-.31-1-.31-.4,0-.72.09-.94.26-.22.17-.33.41-.33.72,0,.26.12.48.36.65s.64.34,1.19.51,1,.35,1.33.56.58.45.74.72.23.59.23.95c0,.59-.23,1.06-.68,1.41-.45.35-1.07.52-1.85.52-.51,0-.99-.1-1.42-.29-.43-.19-.77-.45-1.01-.79-.24-.34-.36-.73-.36-1.17h1.24c0,.4.13.72.4.94s.65.33,1.15.33c.43,0,.75-.09.97-.26.22-.17.33-.4.33-.69Z"/><path class="cls-8" d="M186.32,273.65c-.75,0-1.36-.24-1.83-.71-.47-.47-.7-1.1-.7-1.89v-.15c0-.53.1-1,.31-1.41.2-.42.49-.74.86-.97s.78-.35,1.23-.35c.72,0,1.28.23,1.67.69.39.46.59,1.11.59,1.95v.48h-3.45c.04.44.18.78.44,1.04.25.25.58.38.96.38.54,0,.99-.22,1.33-.66l.64.61c-.21.32-.49.56-.85.73-.35.17-.75.26-1.19.26ZM186.18,269.12c-.33,0-.59.11-.79.34-.2.23-.33.55-.38.95h2.26v-.09c-.03-.4-.13-.7-.32-.9s-.44-.31-.77-.31Z"/><path class="cls-8" d="M191.66,272.7c.3,0,.54-.09.74-.26s.3-.39.31-.64h1.12c-.01.33-.12.64-.31.92s-.45.51-.78.68-.68.25-1.06.25c-.74,0-1.33-.24-1.76-.72s-.65-1.14-.65-1.98v-.12c0-.8.21-1.45.64-1.93s1.02-.73,1.76-.73c.63,0,1.14.18,1.54.55.39.37.6.85.62,1.44h-1.12c-.01-.3-.12-.55-.31-.75-.19-.2-.44-.29-.74-.29-.38,0-.68.14-.89.42s-.31.7-.32,1.27v.19c0,.57.1,1,.31,1.28.21.28.5.42.9.42Z"/><path class="cls-8" d="M198.06,273.03c-.35.41-.84.62-1.48.62-.57,0-1.01-.17-1.3-.5-.29-.34-.44-.82-.44-1.46v-3.42h1.19v3.41c0,.67.28,1.01.83,1.01s.96-.21,1.17-.62v-3.79h1.19v5.28h-1.12l-.03-.52Z"/><path class="cls-8" d="M203.29,269.35c-.16-.03-.32-.04-.48-.04-.54,0-.91.21-1.1.62v3.61h-1.19v-5.28h1.13l.03.59c.29-.46.68-.69,1.19-.69.17,0,.31.02.42.07v1.11Z"/><path class="cls-8" d="M204.11,266.89c0-.18.06-.33.17-.45.12-.12.28-.18.5-.18s.38.06.5.18.18.27.18.45-.06.33-.18.45-.28.18-.5.18-.38-.06-.5-.18c-.12-.12-.17-.27-.17-.45ZM205.37,273.55h-1.19v-5.28h1.19v5.28Z"/><path class="cls-8" d="M208.26,266.98v1.28h.93v.88h-.93v2.95c0,.2.04.35.12.44.08.09.22.13.43.13.14,0,.28-.02.42-.05v.92c-.27.07-.53.11-.78.11-.91,0-1.37-.5-1.37-1.51v-2.99h-.87v-.88h.87v-1.28h1.19Z"/><path class="cls-8" d="M212.24,271.85l1.07-3.58h1.26l-2.1,6.08c-.32.89-.87,1.33-1.64,1.33-.17,0-.36-.03-.57-.09v-.92h.22c.3.01.52-.04.68-.15.15-.11.27-.29.36-.55l.17-.45-1.86-5.25h1.28l1.12,3.58Z"/><path class="cls-8" d="M223.31,272.63c-.26.34-.61.59-1.07.76s-.97.26-1.55.26-1.12-.14-1.58-.41-.81-.66-1.06-1.16c-.25-.5-.38-1.09-.39-1.76v-.56c0-1.07.26-1.91.77-2.52s1.23-.91,2.15-.91c.79,0,1.42.2,1.88.59s.75.96.84,1.69h-1.21c-.14-.86-.63-1.28-1.49-1.28-.55,0-.97.2-1.26.6-.29.4-.44.98-.45,1.75v.55c0,.77.16,1.36.49,1.79.32.42.77.64,1.35.64.63,0,1.08-.14,1.35-.43v-1.39h-1.46v-.94h2.7v2.72Z"/><path class="cls-8" d="M227.47,269.35c-.16-.03-.32-.04-.48-.04-.54,0-.91.21-1.1.62v3.61h-1.19v-5.28h1.13l.03.59c.29-.46.68-.69,1.19-.69.17,0,.31.02.42.07v1.11Z"/><path class="cls-8" d="M228.08,270.86c0-.52.1-.98.31-1.4s.49-.73.86-.96.8-.33,1.28-.33c.71,0,1.29.23,1.74.69.45.46.68,1.07.72,1.83v.28c0,.52-.1.99-.29,1.4-.2.41-.49.73-.86.95-.37.22-.8.34-1.29.34-.75,0-1.34-.25-1.79-.74-.45-.5-.67-1.16-.67-1.98v-.06ZM229.26,270.96c0,.54.11.97.34,1.28s.54.46.94.46.71-.16.93-.47c.22-.31.33-.77.33-1.37,0-.53-.11-.96-.34-1.27-.23-.31-.54-.47-.93-.47s-.7.15-.92.46-.34.77-.34,1.38Z"/><path class="cls-8" d="M237.27,273.03c-.35.41-.84.62-1.48.62-.57,0-1.01-.17-1.3-.5-.29-.34-.44-.82-.44-1.46v-3.42h1.19v3.41c0,.67.28,1.01.83,1.01s.96-.21,1.17-.62v-3.79h1.19v5.28h-1.12l-.03-.52Z"/><path class="cls-8" d="M244.37,270.96c0,.82-.19,1.47-.56,1.96s-.87.73-1.49.73c-.58,0-1.04-.19-1.39-.57v2.5h-1.19v-7.31h1.09l.05.54c.35-.42.82-.63,1.42-.63.64,0,1.15.24,1.52.72.37.48.55,1.15.55,2v.07ZM243.19,270.86c0-.53-.11-.95-.31-1.25-.21-.31-.51-.46-.9-.46-.49,0-.83.2-1.04.6v2.34c.21.41.57.62,1.05.62.38,0,.67-.15.89-.46.21-.3.32-.77.32-1.38Z"/><path class="cls-12" d="M106.91,266.66c.01-.11.04-.22.04-.34,0-3.36-2.73-6.09-6.1-6.09s-6.09,2.73-6.09,6.09c0,.11.02.22.04.34h-1.36v14.36h14.94v-14.36h-1.47ZM100.85,261.17c2.84,0,5.15,2.32,5.15,5.15,0,.1,0,.2-.01.3h-1.71c.01-.1.01-.2.01-.3,0-1.89-1.54-3.44-3.44-3.44s-3.45,1.54-3.45,3.44c0,.1,0,.2.01.3h-1.72c0-.1-.01-.2-.01-.3,0-2.84,2.32-5.15,5.15-5.15h0ZM98.35,266.32c0-1.38,1.12-2.5,2.5-2.5s2.5,1.12,2.5,2.5c0,.11-.02.22-.05.34h-4.9c-.02-.11-.05-.21-.05-.34h0ZM107.45,280.09h-13.07v-12.5h13.07v12.5Z"/><path class="cls-12" d="M99.74,274.45v4.07h2.34v-4.07c.73-.41,1.24-1.17,1.24-2.09,0-1.33-1.08-2.41-2.41-2.41s-2.41,1.08-2.41,2.41c0,.9.51,1.68,1.24,2.09h0Z"/><rect class="cls-1" x="95.6" y="322.87" width="97.85" height="35.51" rx="3.98" ry="3.98"/><path class="cls-8" d="M127.46,341.71c0-.31-.11-.55-.33-.72-.22-.17-.62-.34-1.19-.51s-1.03-.36-1.37-.58c-.65-.41-.97-.94-.97-1.59,0-.57.23-1.04.7-1.42.47-.37,1.07-.56,1.82-.56.5,0,.94.09,1.32.27s.69.44.91.78c.22.34.33.71.33,1.12h-1.23c0-.37-.12-.66-.35-.87-.23-.21-.57-.31-1-.31-.4,0-.72.09-.94.26-.22.17-.33.41-.33.72,0,.26.12.48.36.65.24.17.64.34,1.19.51.55.17,1,.35,1.33.56.33.21.58.45.74.72.16.27.23.59.23.95,0,.59-.23,1.06-.68,1.41-.45.35-1.07.53-1.85.53-.51,0-.99-.1-1.42-.29-.43-.19-.77-.45-1.01-.79-.24-.33-.36-.73-.36-1.17h1.24c0,.4.13.72.4.94s.65.33,1.15.33c.43,0,.75-.09.97-.26.22-.17.33-.4.33-.69Z"/><path class="cls-8" d="M132.13,343.64c-.75,0-1.36-.24-1.83-.71-.47-.47-.7-1.1-.7-1.89v-.15c0-.53.1-1,.31-1.41.2-.42.49-.74.86-.97s.78-.35,1.23-.35c.72,0,1.28.23,1.67.69.39.46.59,1.11.59,1.95v.48h-3.45c.04.44.18.78.44,1.04.25.25.58.38.96.38.54,0,.99-.22,1.33-.66l.64.61c-.21.32-.49.56-.85.73-.35.17-.75.26-1.19.26ZM131.99,339.11c-.33,0-.59.11-.79.34-.2.23-.33.54-.38.95h2.26v-.09c-.03-.4-.13-.7-.32-.9-.19-.2-.44-.31-.77-.31Z"/><path class="cls-8" d="M138.08,339.34c-.16-.03-.32-.04-.48-.04-.54,0-.91.21-1.1.62v3.61h-1.19v-5.28h1.13l.03.59c.29-.46.68-.69,1.19-.69.17,0,.31.02.42.07v1.11Z"/><path class="cls-8" d="M141.03,342.04l1.12-3.78h1.23l-1.83,5.28h-1.03l-1.85-5.28h1.23l1.13,3.78Z"/><path class="cls-8" d="M144.19,336.89c0-.18.06-.33.17-.45.12-.12.28-.18.5-.18s.38.06.5.18.18.27.18.45-.06.33-.18.45c-.12.12-.28.18-.5.18s-.38-.06-.5-.18c-.12-.12-.17-.27-.17-.45ZM145.45,343.54h-1.19v-5.28h1.19v5.28Z"/><path class="cls-8" d="M148.95,342.69c.3,0,.54-.09.74-.26s.3-.39.31-.64h1.12c-.01.33-.12.64-.31.92-.19.29-.45.51-.78.68s-.68.25-1.06.25c-.74,0-1.33-.24-1.76-.72s-.65-1.14-.65-1.98v-.12c0-.8.21-1.45.64-1.93.43-.48,1.02-.72,1.76-.72.63,0,1.14.18,1.54.55.39.37.6.85.62,1.44h-1.12c-.01-.3-.12-.55-.31-.75-.19-.2-.44-.29-.74-.29-.38,0-.68.14-.89.42-.21.28-.31.7-.32,1.27v.19c0,.57.1,1,.31,1.28.21.28.5.42.9.42Z"/><path class="cls-8" d="M154.45,343.64c-.75,0-1.36-.24-1.83-.71-.47-.47-.7-1.1-.7-1.89v-.15c0-.53.1-1,.31-1.41.2-.42.49-.74.86-.97s.78-.35,1.23-.35c.72,0,1.28.23,1.67.69.39.46.59,1.11.59,1.95v.48h-3.45c.04.44.18.78.44,1.04.25.25.58.38.96.38.54,0,.99-.22,1.33-.66l.64.61c-.21.32-.49.56-.85.73-.35.17-.75.26-1.19.26ZM154.31,339.11c-.33,0-.59.11-.79.34-.2.23-.33.54-.38.95h2.26v-.09c-.03-.4-.13-.7-.32-.9-.19-.2-.44-.31-.77-.31Z"/><path class="cls-8" d="M164.08,341.89h-2.75l-.58,1.66h-1.28l2.69-7.11h1.11l2.69,7.11h-1.29l-.58-1.66ZM161.67,340.89h2.06l-1.03-2.95-1.03,2.95Z"/><rect class="cls-1" x="202.71" y="322.87" width="97.85" height="35.51" rx="3.98" ry="3.98"/><path class="cls-8" d="M234.57,341.71c0-.31-.11-.55-.33-.72-.22-.17-.62-.34-1.19-.51s-1.03-.36-1.37-.58c-.65-.41-.97-.94-.97-1.59,0-.57.23-1.04.7-1.42.47-.37,1.07-.56,1.82-.56.5,0,.94.09,1.32.27s.69.44.91.78c.22.34.33.71.33,1.12h-1.23c0-.37-.12-.66-.35-.87-.23-.21-.57-.31-1-.31-.4,0-.72.09-.94.26-.22.17-.33.41-.33.72,0,.26.12.48.36.65.24.17.64.34,1.19.51.55.17,1,.35,1.33.56.33.21.58.45.74.72.16.27.23.59.23.95,0,.59-.23,1.06-.68,1.41-.45.35-1.07.53-1.85.53-.51,0-.99-.1-1.42-.29-.43-.19-.77-.45-1.01-.79-.24-.33-.36-.73-.36-1.17h1.24c0,.4.13.72.4.94s.65.33,1.15.33c.43,0,.75-.09.97-.26.22-.17.33-.4.33-.69Z"/><path class="cls-8" d="M239.24,343.64c-.75,0-1.36-.24-1.83-.71-.47-.47-.7-1.1-.7-1.89v-.15c0-.53.1-1,.31-1.41.2-.42.49-.74.86-.97s.78-.35,1.23-.35c.72,0,1.28.23,1.67.69.39.46.59,1.11.59,1.95v.48h-3.45c.04.44.18.78.44,1.04.25.25.58.38.96.38.54,0,.99-.22,1.33-.66l.64.61c-.21.32-.49.56-.85.73-.35.17-.75.26-1.19.26ZM239.1,339.11c-.33,0-.59.11-.79.34-.2.23-.33.54-.38.95h2.26v-.09c-.03-.4-.13-.7-.32-.9-.19-.2-.44-.31-.77-.31Z"/><path class="cls-8" d="M245.19,339.34c-.16-.03-.32-.04-.48-.04-.54,0-.91.21-1.1.62v3.61h-1.19v-5.28h1.13l.03.59c.29-.46.68-.69,1.19-.69.17,0,.31.02.42.07v1.11Z"/><path class="cls-8" d="M248.14,342.04l1.12-3.78h1.23l-1.83,5.28h-1.03l-1.85-5.28h1.23l1.13,3.78Z"/><path class="cls-8" d="M251.3,336.89c0-.18.06-.33.17-.45.12-.12.28-.18.5-.18s.38.06.5.18.18.27.18.45-.06.33-.18.45c-.12.12-.28.18-.5.18s-.38-.06-.5-.18c-.12-.12-.17-.27-.17-.45ZM252.56,343.54h-1.19v-5.28h1.19v5.28Z"/><path class="cls-8" d="M256.06,342.69c.3,0,.54-.09.74-.26s.3-.39.31-.64h1.12c-.01.33-.12.64-.31.92-.19.29-.45.51-.78.68s-.68.25-1.06.25c-.74,0-1.33-.24-1.76-.72s-.65-1.14-.65-1.98v-.12c0-.8.21-1.45.64-1.93.43-.48,1.02-.72,1.76-.72.63,0,1.14.18,1.54.55.39.37.6.85.62,1.44h-1.12c-.01-.3-.12-.55-.31-.75-.19-.2-.44-.29-.74-.29-.38,0-.68.14-.89.42-.21.28-.31.7-.32,1.27v.19c0,.57.1,1,.31,1.28.21.28.5.42.9.42Z"/><path class="cls-8" d="M261.56,343.64c-.75,0-1.36-.24-1.83-.71-.47-.47-.7-1.1-.7-1.89v-.15c0-.53.1-1,.31-1.41.2-.42.49-.74.86-.97s.78-.35,1.23-.35c.72,0,1.28.23,1.67.69.39.46.59,1.11.59,1.95v.48h-3.45c.04.44.18.78.44,1.04.25.25.58.38.96.38.54,0,.99-.22,1.33-.66l.64.61c-.21.32-.49.56-.85.73-.35.17-.75.26-1.19.26ZM261.42,339.11c-.33,0-.59.11-.79.34-.2.23-.33.54-.38.95h2.26v-.09c-.03-.4-.13-.7-.32-.9-.19-.2-.44-.31-.77-.31Z"/><path class="cls-8" d="M267.21,343.54v-7.11h2.44c.8,0,1.42.16,1.84.48s.63.8.63,1.44c0,.33-.09.62-.26.88s-.43.46-.77.61c.38.1.68.3.89.59.21.29.32.63.32,1.04,0,.67-.21,1.18-.64,1.54-.43.36-1.04.54-1.84.54h-2.59ZM268.44,339.43h1.21c.38,0,.68-.09.9-.26.22-.17.32-.42.32-.74,0-.35-.1-.61-.3-.76-.2-.16-.51-.23-.93-.23h-1.2v2ZM268.44,340.33v2.22h1.37c.39,0,.69-.1.91-.29s.33-.46.33-.8c0-.74-.38-1.12-1.13-1.13h-1.47Z"/><rect class="cls-1" x="309.81" y="322.87" width="30.95" height="35.51" rx="3.98" ry="3.98"/><path class="cls-8" d="M322.71,342.29c.22,0,.39.06.51.19.12.13.18.28.18.47s-.06.34-.18.46c-.12.12-.29.18-.51.18s-.38-.06-.5-.18-.19-.28-.19-.46.06-.35.18-.47c.12-.12.29-.19.51-.19Z"/><path class="cls-8" d="M325.4,342.29c.22,0,.39.06.51.19.12.13.18.28.18.47s-.06.34-.18.46c-.12.12-.29.18-.51.18s-.38-.06-.5-.18-.19-.28-.19-.46.06-.35.18-.47c.12-.12.29-.19.51-.19Z"/><path class="cls-8" d="M328.09,342.29c.22,0,.39.06.51.19.12.13.18.28.18.47s-.06.34-.18.46c-.12.12-.29.18-.51.18s-.38-.06-.5-.18-.19-.28-.19-.46.06-.35.18-.47c.12-.12.29-.19.51-.19Z"/><rect class="cls-2" x="117.36" y="301.21" width="54.34" height="14.05" rx="2.21" ry="2.21"/><path class="cls-8" d="M132.37,308.52v2.64h-1.24v-7.11h2.72c.79,0,1.42.21,1.89.62.47.41.7.96.7,1.64s-.23,1.24-.69,1.63c-.46.39-1.1.58-1.92.58h-1.47ZM132.37,307.52h1.48c.44,0,.77-.1,1.01-.31.23-.21.35-.51.35-.9s-.12-.69-.35-.92c-.23-.23-.56-.35-.97-.35h-1.52v2.48Z"/><path class="cls-8" d="M137.19,308.46c0-.52.1-.98.31-1.4.21-.41.49-.73.86-.96.37-.22.8-.33,1.28-.33.71,0,1.29.23,1.74.69.45.46.68,1.07.72,1.83v.28c0,.52-.1.99-.29,1.4-.2.41-.49.73-.86.95-.37.22-.8.34-1.29.34-.75,0-1.34-.25-1.79-.74-.45-.5-.67-1.16-.67-1.99v-.06ZM138.38,308.57c0,.54.11.97.34,1.28.22.31.54.46.94.46s.71-.16.93-.47c.22-.31.33-.77.33-1.37,0-.53-.11-.96-.34-1.27-.23-.31-.54-.47-.93-.47s-.7.15-.92.46c-.23.31-.34.77-.34,1.38Z"/><path class="cls-8" d="M145.98,306.96c-.16-.03-.32-.04-.48-.04-.54,0-.91.21-1.1.63v3.61h-1.19v-5.28h1.13l.03.59c.29-.46.68-.69,1.19-.69.17,0,.31.02.42.07v1.11Z"/><path class="cls-8" d="M148.59,304.59v1.28h.93v.88h-.93v2.95c0,.2.04.35.12.44.08.09.22.13.43.13.14,0,.28-.02.42-.05v.92c-.27.08-.53.11-.78.11-.91,0-1.37-.5-1.37-1.51v-2.99h-.87v-.88h.87v-1.28h1.19Z"/><path class="cls-8" d="M155.48,306.61l1.49-2.57h1.43l-2.15,3.53,2.2,3.58h-1.44l-1.53-2.61-1.53,2.61h-1.44l2.2-3.58-2.15-3.53h1.43l1.49,2.57Z"/><line class="cls-2" x1="122.66" y1="301.49" x2="122.66" y2="314.98"/><line class="cls-2" x1="166.39" y1="301.49" x2="166.39" y2="314.98"/><rect class="cls-2" x="224.47" y="301.21" width="54.34" height="14.05" rx="2.21" ry="2.21"/><path class="cls-8" d="M239.6,308.52v2.64h-1.24v-7.11h2.72c.79,0,1.42.21,1.89.62.47.41.7.96.7,1.64s-.23,1.24-.69,1.63c-.46.39-1.1.58-1.92.58h-1.47ZM239.6,307.52h1.48c.44,0,.77-.1,1.01-.31s.35-.5.35-.9-.12-.69-.35-.92c-.23-.23-.56-.35-.97-.35h-1.52v2.48Z"/><path class="cls-8" d="M244.42,308.46c0-.52.1-.98.31-1.4.21-.41.49-.73.86-.96.37-.22.8-.33,1.28-.33.71,0,1.29.23,1.74.69s.68,1.07.72,1.83v.28c0,.52-.09.99-.29,1.4s-.49.73-.86.95c-.37.22-.8.34-1.29.34-.75,0-1.34-.25-1.79-.75-.45-.5-.67-1.16-.67-1.98v-.06ZM245.61,308.57c0,.54.11.97.34,1.28s.54.46.94.46.71-.16.94-.47c.22-.31.33-.77.33-1.37,0-.53-.11-.96-.34-1.27s-.54-.47-.94-.47-.7.15-.92.46c-.23.31-.34.77-.34,1.38Z"/><path class="cls-8" d="M253.21,306.96c-.16-.03-.32-.04-.48-.04-.54,0-.91.21-1.1.62v3.61h-1.19v-5.28h1.13l.03.59c.29-.46.68-.69,1.19-.69.17,0,.31.02.42.07v1.11Z"/><path class="cls-8" d="M255.82,304.59v1.28h.93v.88h-.93v2.95c0,.2.04.35.12.44.08.09.22.13.43.13.14,0,.28-.02.42-.05v.92c-.27.08-.53.11-.78.11-.91,0-1.37-.5-1.37-1.51v-2.99h-.87v-.88h.87v-1.28h1.19Z"/><path class="cls-8" d="M262.58,307.41l1.64-3.37h1.37l-2.38,4.49v2.62h-1.24v-2.62l-2.39-4.49h1.37l1.64,3.37Z"/><line class="cls-2" x1="229.77" y1="301.49" x2="229.77" y2="314.98"/><line class="cls-2" x1="273.5" y1="301.49" x2="273.5" y2="314.98"/><rect class="cls-2" x="311.16" y="301.21" width="28.26" height="14.05" rx="2.21" ry="2.21"/><path class="cls-8" d="M322.55,309.9c.22,0,.39.06.51.19.12.13.18.28.18.47s-.06.34-.18.46-.29.18-.51.18-.38-.06-.5-.18-.19-.28-.19-.46.06-.35.18-.47c.12-.12.29-.19.51-.19Z"/><path class="cls-8" d="M325.24,309.9c.22,0,.39.06.51.19.12.13.18.28.18.47s-.06.34-.18.46-.29.18-.51.18-.38-.06-.5-.18-.19-.28-.19-.46.06-.35.18-.47c.12-.12.29-.19.51-.19Z"/><path class="cls-8" d="M327.93,309.9c.22,0,.39.06.51.19.12.13.18.28.18.47s-.06.34-.18.46-.29.18-.51.18-.38-.06-.5-.18-.19-.28-.19-.46.06-.35.18-.47c.12-.12.29-.19.51-.19Z"/><line class="cls-2" x1="316.46" y1="301.49" x2="316.46" y2="314.98"/><line class="cls-2" x1="334.11" y1="301.49" x2="334.11" y2="314.98"/><line class="cls-4" x1="143.88" y1="227.81" x2="143.88" y2="230.31"/><line class="cls-3" x1="143.88" y1="235.63" x2="143.88" y2="286.25"/><line class="cls-4" x1="143.88" y1="288.91" x2="143.88" y2="291.41"/><polygon class="cls-13" points="140.91 289.39 143.88 300.45 146.84 289.39 140.91 289.39"/><line class="cls-4" x1="254.3" y1="227.81" x2="254.3" y2="230.31"/><line class="cls-3" x1="254.3" y1="235.63" x2="254.3" y2="286.25"/><line class="cls-4" x1="254.3" y1="288.91" x2="254.3" y2="291.41"/><polygon class="cls-13" points="251.34 289.39 254.3 300.45 257.27 289.39 251.34 289.39"/><rect class="cls-6" x="454.73" y="308.03" width="264.53" height="139.42" rx="4.01" ry="4.01"/><circle class="cls-9" cx="512.69" cy="183.43" r="22.86"/><path class="cls-12" d="M515.32,184.65c3.33-1.11,5.73-4.22,5.73-7.91.02-4.63-3.73-8.38-8.36-8.38s-8.38,3.75-8.38,8.38c0,3.69,2.4,6.79,5.73,7.91-5.45,1.17-9.55,5.91-9.55,11.59h24.39c0-5.68-4.09-10.42-9.56-11.59h0ZM505.62,176.74c0-3.9,3.17-7.07,7.07-7.07s7.07,3.17,7.07,7.07-3.17,7.07-7.07,7.07-7.07-3.19-7.07-7.07h0ZM512.69,185.66c5.54,0,10.14,4.04,10.8,9.27h-21.6c.66-5.21,5.26-9.27,10.8-9.27Z"/><path class="cls-8" d="M485.95,221.83h-1.23v-7.11h1.23v7.11Z"/><path class="cls-8" d="M488.82,219.19v2.64h-1.24v-7.11h2.72c.79,0,1.42.21,1.89.62.47.41.7.96.7,1.64s-.23,1.24-.69,1.63c-.46.39-1.1.58-1.92.58h-1.47ZM488.82,218.19h1.48c.44,0,.77-.1,1.01-.31s.35-.51.35-.9-.12-.69-.35-.92-.56-.35-.97-.35h-1.52v2.48Z"/><path class="cls-8" d="M500.45,220.17h-2.75l-.58,1.66h-1.28l2.69-7.11h1.11l2.69,7.11h-1.29l-.58-1.66ZM498.04,219.18h2.06l-1.03-2.95-1.03,2.95Z"/><path class="cls-8" d="M502.77,219.15c0-.81.19-1.47.57-1.96s.88-.74,1.52-.74c.56,0,1.01.2,1.36.59v-2.71h1.19v7.5h-1.07l-.06-.55c-.35.43-.83.64-1.42.64s-1.12-.25-1.5-.75c-.38-.5-.57-1.18-.57-2.03ZM503.96,219.25c0,.54.1.96.31,1.26.21.3.5.45.88.45.49,0,.84-.22,1.06-.65v-2.26c-.22-.42-.57-.63-1.05-.63-.38,0-.68.15-.89.46s-.31.76-.31,1.37Z"/><path class="cls-8" d="M508.51,219.15c0-.81.19-1.47.57-1.96s.88-.74,1.52-.74c.56,0,1.01.2,1.36.59v-2.71h1.19v7.5h-1.07l-.06-.55c-.35.43-.83.64-1.42.64s-1.12-.25-1.5-.75c-.38-.5-.57-1.18-.57-2.03ZM509.7,219.25c0,.54.1.96.31,1.26.21.3.5.45.88.45.49,0,.84-.22,1.06-.65v-2.26c-.22-.42-.57-.63-1.05-.63-.38,0-.68.15-.89.46s-.31.76-.31,1.37Z"/><path class="cls-8" d="M517.24,217.63c-.16-.03-.32-.04-.48-.04-.54,0-.91.21-1.1.62v3.61h-1.19v-5.28h1.13l.03.59c.29-.46.68-.69,1.19-.69.17,0,.31.02.42.07v1.11Z"/><path class="cls-8" d="M520.39,221.92c-.75,0-1.36-.24-1.83-.71-.47-.47-.7-1.1-.7-1.89v-.15c0-.53.1-1,.31-1.41.2-.42.49-.74.86-.97s.78-.35,1.23-.35c.72,0,1.28.23,1.67.69.39.46.59,1.11.59,1.95v.48h-3.45c.04.44.18.78.44,1.04.25.25.58.38.96.38.54,0,.99-.22,1.33-.66l.64.61c-.21.32-.49.56-.85.73-.35.17-.75.26-1.19.26ZM520.24,217.4c-.33,0-.59.11-.79.34-.2.23-.33.55-.38.95h2.26v-.09c-.03-.4-.13-.7-.32-.9s-.44-.31-.77-.31Z"/><path class="cls-8" d="M526.45,220.39c0-.21-.09-.37-.26-.48-.17-.11-.46-.21-.87-.29s-.74-.19-1.01-.32c-.59-.29-.89-.7-.89-1.25,0-.46.19-.84.58-1.14s.87-.46,1.46-.46c.63,0,1.14.16,1.53.47.39.31.58.72.58,1.22h-1.19c0-.23-.08-.42-.25-.57s-.39-.23-.67-.23c-.26,0-.47.06-.64.18-.16.12-.25.28-.25.48,0,.18.08.32.23.42s.46.2.93.31.83.22,1.1.37c.26.14.46.31.59.51.13.2.19.44.19.72,0,.48-.2.86-.59,1.15s-.91.44-1.55.44c-.43,0-.82-.08-1.16-.23s-.6-.37-.79-.64-.28-.57-.28-.88h1.15c.02.28.12.5.32.65s.45.23.78.23.55-.06.71-.18.24-.27.24-.47Z"/><path class="cls-8" d="M531.69,220.39c0-.21-.09-.37-.26-.48-.17-.11-.46-.21-.87-.29s-.74-.19-1.01-.32c-.59-.29-.89-.7-.89-1.25,0-.46.19-.84.58-1.14s.87-.46,1.46-.46c.63,0,1.14.16,1.53.47.39.31.58.72.58,1.22h-1.19c0-.23-.08-.42-.25-.57s-.39-.23-.67-.23c-.26,0-.47.06-.64.18-.16.12-.25.28-.25.48,0,.18.08.32.23.42s.46.2.93.31.83.22,1.1.37c.26.14.46.31.59.51.13.2.19.44.19.72,0,.48-.2.86-.59,1.15s-.91.44-1.55.44c-.43,0-.82-.08-1.16-.23s-.6-.37-.79-.64-.28-.57-.28-.88h1.15c.02.28.12.5.32.65s.45.23.78.23.55-.06.71-.18.24-.27.24-.47Z"/><path class="cls-8" d="M539.52,221.83h-1.18v-5.71l-1.74.59v-1l2.77-1.02h.15v7.13Z"/><circle class="cls-9" cx="623.12" cy="183.43" r="22.86"/><path class="cls-12" d="M625.75,184.65c3.33-1.11,5.73-4.22,5.73-7.91.02-4.63-3.73-8.38-8.36-8.38s-8.38,3.75-8.38,8.38c0,3.69,2.4,6.79,5.73,7.91-5.45,1.17-9.55,5.91-9.55,11.59h24.39c0-5.68-4.09-10.42-9.56-11.59h0ZM616.05,176.74c0-3.9,3.17-7.07,7.07-7.07s7.07,3.17,7.07,7.07-3.17,7.07-7.07,7.07-7.07-3.19-7.07-7.07h0ZM623.12,185.66c5.54,0,10.14,4.04,10.8,9.27h-21.6c.66-5.21,5.26-9.27,10.8-9.27Z"/><path class="cls-8" d="M596.38,221.83h-1.23v-7.11h1.23v7.11Z"/><path class="cls-8" d="M599.25,219.19v2.64h-1.24v-7.11h2.72c.79,0,1.42.21,1.89.62.47.41.7.96.7,1.64s-.23,1.24-.69,1.63c-.46.39-1.1.58-1.92.58h-1.47ZM599.25,218.19h1.48c.44,0,.77-.1,1.01-.31s.35-.51.35-.9-.12-.69-.35-.92-.56-.35-.97-.35h-1.52v2.48Z"/><path class="cls-8" d="M610.88,220.17h-2.75l-.58,1.66h-1.28l2.69-7.11h1.11l2.69,7.11h-1.29l-.58-1.66ZM608.47,219.18h2.06l-1.03-2.95-1.03,2.95Z"/><path class="cls-8" d="M613.2,219.15c0-.81.19-1.47.57-1.96s.88-.74,1.52-.74c.56,0,1.01.2,1.36.59v-2.71h1.19v7.5h-1.07l-.06-.55c-.35.43-.83.64-1.42.64s-1.12-.25-1.5-.75c-.38-.5-.57-1.18-.57-2.03ZM614.38,219.25c0,.54.1.96.31,1.26.21.3.5.45.88.45.49,0,.84-.22,1.06-.65v-2.26c-.22-.42-.57-.63-1.05-.63-.38,0-.68.15-.89.46s-.31.76-.31,1.37Z"/><path class="cls-8" d="M618.94,219.15c0-.81.19-1.47.57-1.96s.88-.74,1.52-.74c.56,0,1.01.2,1.36.59v-2.71h1.19v7.5h-1.07l-.06-.55c-.35.43-.83.64-1.42.64s-1.12-.25-1.5-.75c-.38-.5-.57-1.18-.57-2.03ZM620.13,219.25c0,.54.1.96.31,1.26.21.3.5.45.88.45.49,0,.84-.22,1.06-.65v-2.26c-.22-.42-.57-.63-1.05-.63-.38,0-.68.15-.89.46s-.31.76-.31,1.37Z"/><path class="cls-8" d="M627.67,217.63c-.16-.03-.32-.04-.48-.04-.54,0-.91.21-1.1.62v3.61h-1.19v-5.28h1.13l.03.59c.29-.46.68-.69,1.19-.69.17,0,.31.02.42.07v1.11Z"/><path class="cls-8" d="M630.81,221.92c-.75,0-1.36-.24-1.83-.71-.47-.47-.7-1.1-.7-1.89v-.15c0-.53.1-1,.31-1.41.2-.42.49-.74.86-.97s.78-.35,1.23-.35c.72,0,1.28.23,1.67.69.39.46.59,1.11.59,1.95v.48h-3.45c.04.44.18.78.44,1.04.25.25.58.38.96.38.54,0,.99-.22,1.33-.66l.64.61c-.21.32-.49.56-.85.73-.35.17-.75.26-1.19.26ZM630.67,217.4c-.33,0-.59.11-.79.34-.2.23-.33.55-.38.95h2.26v-.09c-.03-.4-.13-.7-.32-.9s-.44-.31-.77-.31Z"/><path class="cls-8" d="M636.88,220.39c0-.21-.09-.37-.26-.48-.17-.11-.46-.21-.87-.29s-.74-.19-1.01-.32c-.59-.29-.89-.7-.89-1.25,0-.46.19-.84.58-1.14s.87-.46,1.46-.46c.63,0,1.14.16,1.53.47.39.31.58.72.58,1.22h-1.19c0-.23-.08-.42-.25-.57s-.39-.23-.67-.23c-.26,0-.47.06-.64.18-.16.12-.25.28-.25.48,0,.18.08.32.23.42s.46.2.93.31.83.22,1.1.37c.26.14.46.31.59.51.13.2.19.44.19.72,0,.48-.2.86-.59,1.15s-.91.44-1.55.44c-.43,0-.82-.08-1.16-.23s-.6-.37-.79-.64-.28-.57-.28-.88h1.15c.02.28.12.5.32.65s.45.23.78.23.55-.06.71-.18.24-.27.24-.47Z"/><path class="cls-8" d="M642.12,220.39c0-.21-.09-.37-.26-.48-.17-.11-.46-.21-.87-.29s-.74-.19-1.01-.32c-.59-.29-.89-.7-.89-1.25,0-.46.19-.84.58-1.14s.87-.46,1.46-.46c.63,0,1.14.16,1.53.47.39.31.58.72.58,1.22h-1.19c0-.23-.08-.42-.25-.57s-.39-.23-.67-.23c-.26,0-.47.06-.64.18-.16.12-.25.28-.25.48,0,.18.08.32.23.42s.46.2.93.31.83.22,1.1.37c.26.14.46.31.59.51.13.2.19.44.19.72,0,.48-.2.86-.59,1.15s-.91.44-1.55.44c-.43,0-.82-.08-1.16-.23s-.6-.37-.79-.64-.28-.57-.28-.88h1.15c.02.28.12.5.32.65s.45.23.78.23.55-.06.71-.18.24-.27.24-.47Z"/><path class="cls-8" d="M651.52,221.83h-4.78v-.82l2.37-2.58c.34-.38.58-.7.73-.95.14-.26.22-.51.22-.77,0-.34-.1-.61-.29-.82-.19-.21-.45-.31-.77-.31-.38,0-.68.12-.89.35s-.32.56-.32.96h-1.19c0-.43.1-.82.3-1.17.2-.35.48-.62.84-.81.37-.19.79-.29,1.27-.29.69,0,1.23.17,1.63.52.4.35.6.83.6,1.44,0,.35-.1.73-.3,1.12-.2.39-.53.83-.98,1.33l-1.74,1.86h3.3v.95Z"/><path class="cls-8" d="M530.87,435.73h3.23v.99h-4.46v-7.11h1.24v6.12Z"/><path class="cls-8" d="M535.01,430.06c0-.18.06-.33.17-.45.12-.12.28-.18.5-.18s.38.06.5.18c.12.12.18.27.18.45s-.06.33-.18.45c-.12.12-.28.18-.5.18s-.38-.06-.5-.18c-.12-.12-.17-.27-.17-.45ZM536.27,436.72h-1.19v-5.28h1.19v5.28Z"/><path class="cls-8" d="M538.75,431.43l.03.61c.39-.47.9-.71,1.54-.71,1.1,0,1.66.63,1.68,1.89v3.49h-1.19v-3.42c0-.34-.07-.58-.22-.75-.14-.16-.38-.24-.71-.24-.48,0-.83.22-1.07.65v3.76h-1.19v-5.28h1.12Z"/><path class="cls-8" d="M543.07,434.03c0-.52.1-.98.31-1.4s.49-.73.86-.96c.37-.22.8-.33,1.28-.33.71,0,1.29.23,1.74.69.45.46.68,1.07.72,1.83v.28c0,.52-.1.99-.29,1.4-.2.41-.49.73-.86.95-.37.22-.8.34-1.29.34-.75,0-1.34-.25-1.79-.75-.45-.5-.67-1.16-.67-1.98v-.06ZM544.25,434.13c0,.54.11.97.34,1.28s.54.46.94.46.71-.16.93-.47c.22-.31.33-.77.33-1.37,0-.53-.11-.96-.34-1.27-.23-.31-.54-.47-.93-.47s-.7.15-.92.46-.34.77-.34,1.38Z"/><path class="cls-8" d="M548.87,434.04c0-.81.19-1.47.57-1.96s.88-.74,1.52-.74c.56,0,1.01.2,1.36.59v-2.71h1.19v7.5h-1.07l-.06-.55c-.35.43-.83.64-1.42.64s-1.12-.25-1.5-.75c-.38-.5-.57-1.18-.57-2.03ZM550.05,434.14c0,.54.1.96.31,1.26.21.3.5.45.88.45.49,0,.84-.22,1.06-.65v-2.26c-.22-.42-.57-.63-1.05-.63-.38,0-.68.15-.89.46-.21.3-.31.76-.31,1.38Z"/><path class="cls-8" d="M557.13,436.82c-.75,0-1.36-.24-1.83-.71-.47-.47-.7-1.1-.7-1.89v-.15c0-.53.1-1,.31-1.41.2-.42.49-.74.86-.97.37-.23.78-.35,1.23-.35.72,0,1.28.23,1.67.69.39.46.59,1.11.59,1.95v.48h-3.45c.04.44.18.78.44,1.04.25.25.58.38.96.38.54,0,.99-.22,1.33-.66l.64.61c-.21.32-.49.56-.85.73-.35.17-.75.26-1.19.26ZM556.99,432.29c-.33,0-.59.11-.79.34-.2.23-.33.54-.38.95h2.26v-.09c-.03-.4-.13-.7-.32-.9-.19-.2-.44-.3-.77-.3Z"/><path class="cls-8" d="M568.2,434.4c-.07.76-.35,1.35-.84,1.77s-1.14.64-1.95.64c-.57,0-1.07-.13-1.5-.4-.43-.27-.76-.65-1-1.14-.23-.5-.36-1.07-.37-1.72v-.66c0-.67.12-1.26.36-1.77.24-.51.58-.91,1.02-1.18.45-.28.96-.42,1.54-.42.78,0,1.42.21,1.89.64s.76,1.03.83,1.8h-1.23c-.06-.51-.21-.88-.45-1.11-.24-.23-.59-.34-1.05-.34-.54,0-.95.2-1.24.59-.29.39-.43.97-.44,1.73v.63c0,.77.14,1.35.41,1.76.28.4.68.61,1.21.61.49,0,.85-.11,1.09-.33.24-.22.4-.58.46-1.09h1.23Z"/><path class="cls-8" d="M569.11,434.03c0-.52.1-.98.31-1.4s.49-.73.86-.96c.37-.22.8-.33,1.28-.33.71,0,1.29.23,1.74.69.45.46.68,1.07.72,1.83v.28c0,.52-.1.99-.29,1.4-.2.41-.49.73-.86.95-.37.22-.8.34-1.29.34-.75,0-1.34-.25-1.79-.75-.45-.5-.67-1.16-.67-1.98v-.06ZM570.3,434.13c0,.54.11.97.34,1.28s.54.46.94.46.71-.16.93-.47c.22-.31.33-.77.33-1.37,0-.53-.11-.96-.34-1.27-.23-.31-.54-.47-.93-.47s-.7.15-.92.46-.34.77-.34,1.38Z"/><path class="cls-8" d="M576.25,431.43l.03.55c.37-.43.88-.65,1.52-.65.71,0,1.19.27,1.45.81.38-.54.92-.81,1.62-.81.58,0,1.02.16,1.3.48.28.32.43.8.44,1.43v3.47h-1.19v-3.44c0-.34-.07-.58-.22-.74s-.39-.23-.73-.23c-.27,0-.49.07-.66.22-.17.15-.29.33-.36.57v3.62s-1.18,0-1.18,0v-3.48c-.02-.62-.33-.93-.95-.93-.48,0-.81.19-1.01.58v3.83h-1.19v-5.28h1.12Z"/><path class="cls-8" d="M588.56,434.13c0,.82-.19,1.47-.56,1.96-.37.49-.87.73-1.49.73-.58,0-1.04-.19-1.39-.57v2.5h-1.19v-7.31h1.09l.05.54c.35-.42.82-.63,1.42-.63.64,0,1.15.24,1.52.72.37.48.55,1.15.55,2v.07ZM587.38,434.03c0-.53-.11-.95-.31-1.25-.21-.31-.51-.46-.9-.46-.49,0-.83.2-1.04.6v2.34c.21.41.57.62,1.05.62.38,0,.67-.15.89-.46.21-.3.32-.77.32-1.38Z"/><path class="cls-8" d="M592.87,436.2c-.35.41-.84.62-1.48.62-.57,0-1.01-.17-1.3-.5-.29-.34-.44-.82-.44-1.46v-3.42h1.19v3.41c0,.67.28,1.01.83,1.01s.96-.21,1.17-.62v-3.79h1.19v5.28h-1.12l-.03-.52Z"/><path class="cls-8" d="M596.86,430.15v1.28h.93v.88h-.93v2.95c0,.2.04.35.12.44.08.09.22.13.43.13.14,0,.28-.02.42-.05v.92c-.27.07-.53.11-.78.11-.91,0-1.37-.5-1.37-1.51v-2.99h-.87v-.88h.87v-1.28h1.19Z"/><path class="cls-8" d="M601,436.82c-.75,0-1.36-.24-1.83-.71-.47-.47-.7-1.1-.7-1.89v-.15c0-.53.1-1,.31-1.41.2-.42.49-.74.86-.97.37-.23.78-.35,1.23-.35.72,0,1.28.23,1.67.69.39.46.59,1.11.59,1.95v.48h-3.45c.04.44.18.78.44,1.04.25.25.58.38.96.38.54,0,.99-.22,1.33-.66l.64.61c-.21.32-.49.56-.85.73-.35.17-.75.26-1.19.26ZM600.86,432.29c-.33,0-.59.11-.79.34-.2.23-.33.54-.38.95h2.26v-.09c-.03-.4-.13-.7-.32-.9-.19-.2-.44-.3-.77-.3Z"/><path class="cls-8" d="M607.95,436.72h-1.23v-7.11h1.23v7.11Z"/><path class="cls-8" d="M610.56,431.43l.03.61c.39-.47.9-.71,1.54-.71,1.1,0,1.66.63,1.68,1.89v3.49h-1.19v-3.42c0-.34-.07-.58-.22-.75-.14-.16-.38-.24-.71-.24-.48,0-.83.22-1.07.65v3.76h-1.19v-5.28h1.12Z"/><path class="cls-8" d="M618.03,435.28c0-.21-.09-.37-.26-.48-.17-.11-.46-.21-.87-.29-.4-.08-.74-.19-1.01-.32-.59-.29-.89-.7-.89-1.25,0-.46.19-.84.58-1.14.38-.31.87-.46,1.46-.46.63,0,1.14.16,1.53.47.39.31.58.72.58,1.22h-1.19c0-.23-.08-.42-.25-.57s-.39-.23-.67-.23c-.26,0-.47.06-.64.18-.16.12-.25.28-.25.48,0,.18.08.32.23.42.15.1.46.2.93.3s.83.22,1.1.37c.26.14.46.31.59.51.13.2.19.44.19.72,0,.47-.2.86-.59,1.15-.39.29-.91.44-1.55.44-.43,0-.82-.08-1.16-.23s-.6-.37-.79-.64-.28-.57-.28-.88h1.15c.02.28.12.5.32.65s.45.23.78.23.55-.06.71-.18c.16-.12.24-.27.24-.47Z"/><path class="cls-8" d="M621.89,430.15v1.28h.93v.88h-.93v2.95c0,.2.04.35.12.44.08.09.22.13.43.13.14,0,.28-.02.42-.05v.92c-.27.07-.53.11-.78.11-.91,0-1.37-.5-1.37-1.51v-2.99h-.87v-.88h.87v-1.28h1.19Z"/><path class="cls-8" d="M626.98,436.72c-.05-.1-.1-.27-.14-.49-.38.39-.84.59-1.39.59s-.96-.15-1.3-.45-.5-.68-.5-1.12c0-.56.21-1,.63-1.3.42-.3,1.02-.45,1.79-.45h.73v-.35c0-.27-.08-.49-.23-.66-.15-.16-.39-.25-.7-.25-.27,0-.49.07-.66.2-.17.14-.26.31-.26.52h-1.19c0-.29.1-.56.29-.81.19-.25.45-.45.78-.59.33-.14.7-.21,1.11-.21.62,0,1.11.16,1.48.47.37.31.56.75.57,1.31v2.38c0,.47.07.85.2,1.14v.08h-1.21ZM625.67,435.86c.23,0,.46-.06.66-.17.21-.11.36-.27.47-.46v-1h-.64c-.44,0-.77.08-.99.23-.22.15-.33.37-.33.65,0,.23.08.41.23.54.15.14.35.2.61.2Z"/><path class="cls-8" d="M630.42,431.43l.03.61c.39-.47.9-.71,1.54-.71,1.1,0,1.66.63,1.68,1.89v3.49h-1.19v-3.42c0-.34-.07-.58-.22-.75-.14-.16-.38-.24-.71-.24-.48,0-.83.22-1.07.65v3.76h-1.19v-5.28h1.12Z"/><path class="cls-8" d="M637.15,435.87c.3,0,.54-.09.74-.26.2-.17.3-.39.31-.64h1.12c-.01.33-.12.64-.31.92-.19.29-.45.51-.78.68s-.68.25-1.06.25c-.74,0-1.33-.24-1.76-.72s-.65-1.14-.65-1.98v-.12c0-.8.21-1.45.64-1.93s1.02-.72,1.76-.72c.63,0,1.14.18,1.54.55.39.37.6.85.62,1.44h-1.12c-.01-.3-.12-.55-.31-.75-.19-.2-.44-.29-.74-.29-.38,0-.68.14-.89.42s-.31.7-.32,1.27v.19c0,.57.1,1,.31,1.28.21.28.5.42.9.42Z"/><path class="cls-8" d="M642.65,436.82c-.75,0-1.36-.24-1.83-.71-.47-.47-.7-1.1-.7-1.89v-.15c0-.53.1-1,.31-1.41.2-.42.49-.74.86-.97.37-.23.78-.35,1.23-.35.72,0,1.28.23,1.67.69.39.46.59,1.11.59,1.95v.48h-3.45c.04.44.18.78.44,1.04.25.25.58.38.96.38.54,0,.99-.22,1.33-.66l.64.61c-.21.32-.49.56-.85.73-.35.17-.75.26-1.19.26ZM642.51,432.29c-.33,0-.59.11-.79.34-.2.23-.33.54-.38.95h2.26v-.09c-.03-.4-.13-.7-.32-.9-.19-.2-.44-.3-.77-.3Z"/><rect class="cls-12" x="454.73" y="254.57" width="264.53" height="32.11" rx="3.98" ry="3.98"/><g class="cls-11"><rect class="cls-8" x="453.03" y="252.12" width="32.19" height="36.27"/></g><rect class="cls-5" x="454.73" y="254.57" width="264.53" height="32.11" rx="3.98" ry="3.98"/><path class="cls-8" d="M520.88,272.56h3.23v.99h-4.46v-7.11h1.24v6.12Z"/><path class="cls-8" d="M525.02,266.89c0-.18.06-.33.17-.45.12-.12.28-.18.5-.18s.38.06.5.18.18.27.18.45-.06.33-.18.45-.28.18-.5.18-.38-.06-.5-.18c-.12-.12-.17-.27-.17-.45ZM526.28,273.55h-1.19v-5.28h1.19v5.28Z"/><path class="cls-8" d="M528.76,268.27l.03.61c.39-.47.9-.71,1.54-.71,1.1,0,1.66.63,1.68,1.89v3.49h-1.19v-3.42c0-.34-.07-.58-.22-.74-.14-.16-.38-.24-.71-.24-.48,0-.83.22-1.07.65v3.76h-1.19v-5.28h1.12Z"/><path class="cls-8" d="M533.08,270.86c0-.52.1-.98.31-1.4s.49-.73.86-.96.8-.33,1.28-.33c.71,0,1.29.23,1.74.69.45.46.68,1.07.72,1.83v.28c0,.52-.1.99-.29,1.4-.2.41-.49.73-.86.95-.37.22-.8.34-1.29.34-.75,0-1.34-.25-1.79-.74-.45-.5-.67-1.16-.67-1.98v-.06ZM534.27,270.96c0,.54.11.97.34,1.28s.54.46.94.46.71-.16.93-.47c.22-.31.33-.77.33-1.37,0-.53-.11-.96-.34-1.27-.23-.31-.54-.47-.93-.47s-.7.15-.92.46-.34.77-.34,1.38Z"/><path class="cls-8" d="M538.88,270.87c0-.81.19-1.47.57-1.96s.88-.74,1.52-.74c.56,0,1.01.2,1.36.59v-2.71h1.19v7.5h-1.07l-.06-.55c-.35.43-.83.64-1.42.64s-1.12-.25-1.5-.75c-.38-.5-.57-1.18-.57-2.03ZM540.07,270.97c0,.54.1.96.31,1.26.21.3.5.45.88.45.49,0,.84-.22,1.06-.65v-2.26c-.22-.42-.57-.63-1.05-.63-.38,0-.68.15-.89.46s-.31.76-.31,1.37Z"/><path class="cls-8" d="M547.15,273.65c-.75,0-1.36-.24-1.83-.71-.47-.47-.7-1.1-.7-1.89v-.15c0-.53.1-1,.31-1.41.2-.42.49-.74.86-.97s.78-.35,1.23-.35c.72,0,1.28.23,1.67.69.39.46.59,1.11.59,1.95v.48h-3.45c.04.44.18.78.44,1.04.25.25.58.38.96.38.54,0,.99-.22,1.33-.66l.64.61c-.21.32-.49.56-.85.73-.35.17-.75.26-1.19.26ZM547.01,269.12c-.33,0-.59.11-.79.34-.2.23-.33.55-.38.95h2.26v-.09c-.03-.4-.13-.7-.32-.9s-.44-.31-.77-.31Z"/><path class="cls-8" d="M558.22,271.23c-.07.76-.35,1.35-.84,1.77s-1.14.64-1.95.64c-.57,0-1.07-.13-1.5-.4-.43-.27-.76-.65-1-1.15s-.36-1.07-.37-1.72v-.66c0-.67.12-1.26.36-1.77s.58-.9,1.02-1.18c.45-.28.96-.42,1.54-.42.78,0,1.42.21,1.89.64s.76,1.03.83,1.8h-1.23c-.06-.51-.21-.88-.45-1.11-.24-.23-.59-.34-1.05-.34-.54,0-.95.2-1.24.59-.29.39-.43.97-.44,1.73v.63c0,.77.14,1.35.41,1.76.28.4.68.61,1.21.61.49,0,.85-.11,1.09-.33s.4-.58.46-1.09h1.23Z"/><path class="cls-8" d="M560.58,273.55h-1.19v-7.5h1.19v7.5Z"/><path class="cls-8" d="M561.72,270.86c0-.52.1-.98.31-1.4s.49-.73.86-.96.8-.33,1.28-.33c.71,0,1.29.23,1.74.69.45.46.68,1.07.72,1.83v.28c0,.52-.1.99-.29,1.4-.2.41-.49.73-.86.95-.37.22-.8.34-1.29.34-.75,0-1.34-.25-1.79-.74-.45-.5-.67-1.16-.67-1.98v-.06ZM562.91,270.96c0,.54.11.97.34,1.28s.54.46.94.46.71-.16.93-.47c.22-.31.33-.77.33-1.37,0-.53-.11-.96-.34-1.27-.23-.31-.54-.47-.93-.47s-.7.15-.92.46-.34.77-.34,1.38Z"/><path class="cls-8" d="M570.92,273.03c-.35.41-.84.62-1.48.62-.57,0-1.01-.17-1.3-.5-.29-.34-.44-.82-.44-1.46v-3.42h1.19v3.41c0,.67.28,1.01.83,1.01s.96-.21,1.17-.62v-3.79h1.19v5.28h-1.12l-.03-.52Z"/><path class="cls-8" d="M573.16,270.87c0-.81.19-1.47.57-1.96s.88-.74,1.52-.74c.56,0,1.01.2,1.36.59v-2.71h1.19v7.5h-1.07l-.06-.55c-.35.43-.83.64-1.42.64s-1.12-.25-1.5-.75c-.38-.5-.57-1.18-.57-2.03ZM574.35,270.97c0,.54.1.96.31,1.26.21.3.5.45.88.45.49,0,.84-.22,1.06-.65v-2.26c-.22-.42-.57-.63-1.05-.63-.38,0-.68.15-.89.46s-.31.76-.31,1.37Z"/><path class="cls-8" d="M585.73,270.54h-2.86v3.01h-1.24v-7.11h4.52v1h-3.28v2.11h2.86v.99Z"/><path class="cls-8" d="M587.11,266.89c0-.18.06-.33.17-.45.12-.12.28-.18.5-.18s.38.06.5.18.18.27.18.45-.06.33-.18.45-.28.18-.5.18-.38-.06-.5-.18c-.12-.12-.17-.27-.17-.45ZM588.37,273.55h-1.19v-5.28h1.19v5.28Z"/><path class="cls-8" d="M592.51,269.35c-.16-.03-.32-.04-.48-.04-.54,0-.91.21-1.1.62v3.61h-1.19v-5.28h1.13l.03.59c.29-.46.68-.69,1.19-.69.17,0,.31.02.42.07v1.11Z"/><path class="cls-8" d="M595.65,273.65c-.75,0-1.36-.24-1.83-.71-.47-.47-.7-1.1-.7-1.89v-.15c0-.53.1-1,.31-1.41.2-.42.49-.74.86-.97s.78-.35,1.23-.35c.72,0,1.28.23,1.67.69.39.46.59,1.11.59,1.95v.48h-3.45c.04.44.18.78.44,1.04.25.25.58.38.96.38.54,0,.99-.22,1.33-.66l.64.61c-.21.32-.49.56-.85.73-.35.17-.75.26-1.19.26ZM595.51,269.12c-.33,0-.59.11-.79.34-.2.23-.33.55-.38.95h2.26v-.09c-.03-.4-.13-.7-.32-.9s-.44-.31-.77-.31Z"/><path class="cls-8" d="M603.33,271.91l.84-3.65h1.16l-1.44,5.28h-.98l-1.13-3.63-1.11,3.63h-.98l-1.45-5.28h1.16l.85,3.61,1.08-3.61h.89l1.1,3.65Z"/><path class="cls-8" d="M609.24,273.55c-.05-.1-.1-.27-.14-.49-.38.39-.84.59-1.39.59s-.96-.15-1.3-.45-.5-.68-.5-1.12c0-.56.21-1,.63-1.3.42-.3,1.02-.45,1.79-.45h.73v-.35c0-.27-.08-.49-.23-.66s-.39-.25-.7-.25c-.27,0-.49.07-.66.2s-.26.31-.26.52h-1.19c0-.29.1-.56.29-.81s.45-.45.78-.59c.33-.14.7-.21,1.11-.21.62,0,1.11.16,1.48.47s.56.75.57,1.31v2.38c0,.48.07.85.2,1.14v.08h-1.21ZM607.93,272.69c.23,0,.46-.06.66-.17.21-.11.36-.27.47-.46v-1h-.64c-.44,0-.77.08-.99.23s-.33.37-.33.65c0,.23.08.41.23.54.15.14.35.2.61.2Z"/><path class="cls-8" d="M612.8,273.55h-1.19v-7.5h1.19v7.5Z"/><path class="cls-8" d="M615.39,273.55h-1.19v-7.5h1.19v7.5Z"/><path class="cls-12" d="M475.73,266.66c.01-.11.04-.22.04-.34,0-3.36-2.73-6.09-6.1-6.09s-6.09,2.73-6.09,6.09c0,.11.02.22.04.34h-1.36v14.36h14.94v-14.36h-1.47ZM469.67,261.17c2.84,0,5.15,2.32,5.15,5.15,0,.1,0,.2-.01.3h-1.71c.01-.1.01-.2.01-.3,0-1.89-1.54-3.44-3.44-3.44s-3.45,1.54-3.45,3.44c0,.1,0,.2.01.3h-1.72c0-.1-.01-.2-.01-.3,0-2.84,2.32-5.15,5.15-5.15h0ZM467.17,266.32c0-1.38,1.12-2.5,2.5-2.5s2.5,1.12,2.5,2.5c0,.11-.02.22-.05.34h-4.9c-.02-.11-.05-.21-.05-.34h0ZM476.26,280.09h-13.07v-12.5h13.07v12.5Z"/><path class="cls-12" d="M468.56,274.45v4.07h2.34v-4.07c.73-.41,1.24-1.17,1.24-2.09,0-1.33-1.08-2.41-2.41-2.41s-2.41,1.08-2.41,2.41c0,.9.51,1.68,1.24,2.09h0Z"/><rect class="cls-1" x="464.42" y="322.87" width="97.85" height="35.51" rx="3.98" ry="3.98"/><path class="cls-8" d="M496.28,341.71c0-.31-.11-.55-.33-.72-.22-.17-.62-.34-1.19-.51s-1.03-.36-1.37-.58c-.65-.41-.97-.94-.97-1.59,0-.57.23-1.04.7-1.42.47-.37,1.07-.56,1.82-.56.5,0,.94.09,1.32.27s.69.44.91.78c.22.34.33.71.33,1.12h-1.23c0-.37-.12-.66-.35-.87-.23-.21-.57-.31-1-.31-.4,0-.72.09-.94.26-.22.17-.33.41-.33.72,0,.26.12.48.36.65.24.17.64.34,1.19.51.55.17,1,.35,1.33.56.33.21.58.45.74.72.16.27.23.59.23.95,0,.59-.23,1.06-.68,1.41-.45.35-1.07.53-1.85.53-.51,0-.99-.1-1.42-.29-.43-.19-.77-.45-1.01-.79-.24-.33-.36-.73-.36-1.17h1.24c0,.4.13.72.4.94s.65.33,1.15.33c.43,0,.75-.09.97-.26.22-.17.33-.4.33-.69Z"/><path class="cls-8" d="M500.95,343.64c-.75,0-1.36-.24-1.83-.71-.47-.47-.7-1.1-.7-1.89v-.15c0-.53.1-1,.31-1.41.2-.42.49-.74.86-.97s.78-.35,1.23-.35c.72,0,1.28.23,1.67.69.39.46.59,1.11.59,1.95v.48h-3.45c.04.44.18.78.44,1.04.25.25.58.38.96.38.54,0,.99-.22,1.33-.66l.64.61c-.21.32-.49.56-.85.73-.35.17-.75.26-1.19.26ZM500.8,339.11c-.33,0-.59.11-.79.34-.2.23-.33.54-.38.95h2.26v-.09c-.03-.4-.13-.7-.32-.9-.19-.2-.44-.31-.77-.31Z"/><path class="cls-8" d="M506.89,339.34c-.16-.03-.32-.04-.48-.04-.54,0-.91.21-1.1.62v3.61h-1.19v-5.28h1.13l.03.59c.29-.46.68-.69,1.19-.69.17,0,.31.02.42.07v1.11Z"/><path class="cls-8" d="M509.85,342.04l1.12-3.78h1.23l-1.83,5.28h-1.03l-1.85-5.28h1.23l1.13,3.78Z"/><path class="cls-8" d="M513,336.89c0-.18.06-.33.17-.45.12-.12.28-.18.5-.18s.38.06.5.18.18.27.18.45-.06.33-.18.45c-.12.12-.28.18-.5.18s-.38-.06-.5-.18c-.12-.12-.17-.27-.17-.45ZM514.26,343.54h-1.19v-5.28h1.19v5.28Z"/><path class="cls-8" d="M517.77,342.69c.3,0,.54-.09.74-.26s.3-.39.31-.64h1.12c-.01.33-.12.64-.31.92-.19.29-.45.51-.78.68s-.68.25-1.06.25c-.74,0-1.33-.24-1.76-.72s-.65-1.14-.65-1.98v-.12c0-.8.21-1.45.64-1.93.43-.48,1.02-.72,1.76-.72.63,0,1.14.18,1.54.55.39.37.6.85.62,1.44h-1.12c-.01-.3-.12-.55-.31-.75-.19-.2-.44-.29-.74-.29-.38,0-.68.14-.89.42-.21.28-.31.7-.32,1.27v.19c0,.57.1,1,.31,1.28.21.28.5.42.9.42Z"/><path class="cls-8" d="M523.26,343.64c-.75,0-1.36-.24-1.83-.71-.47-.47-.7-1.1-.7-1.89v-.15c0-.53.1-1,.31-1.41.2-.42.49-.74.86-.97s.78-.35,1.23-.35c.72,0,1.28.23,1.67.69.39.46.59,1.11.59,1.95v.48h-3.45c.04.44.18.78.44,1.04.25.25.58.38.96.38.54,0,.99-.22,1.33-.66l.64.61c-.21.32-.49.56-.85.73-.35.17-.75.26-1.19.26ZM523.12,339.11c-.33,0-.59.11-.79.34-.2.23-.33.54-.38.95h2.26v-.09c-.03-.4-.13-.7-.32-.9-.19-.2-.44-.31-.77-.31Z"/><path class="cls-8" d="M532.89,341.89h-2.75l-.58,1.66h-1.28l2.69-7.11h1.11l2.69,7.11h-1.29l-.58-1.66ZM530.48,340.89h2.06l-1.03-2.95-1.03,2.95Z"/><rect class="cls-1" x="571.52" y="322.87" width="97.85" height="35.51" rx="3.98" ry="3.98"/><path class="cls-8" d="M603.39,341.71c0-.31-.11-.55-.33-.72-.22-.17-.62-.34-1.19-.51s-1.03-.36-1.37-.58c-.65-.41-.97-.94-.97-1.59,0-.57.23-1.04.7-1.42.47-.37,1.07-.56,1.82-.56.5,0,.94.09,1.32.27s.69.44.91.78c.22.34.33.71.33,1.12h-1.23c0-.37-.12-.66-.35-.87-.23-.21-.57-.31-1-.31-.4,0-.72.09-.94.26-.22.17-.33.41-.33.72,0,.26.12.48.36.65.24.17.64.34,1.19.51.55.17,1,.35,1.33.56.33.21.58.45.74.72.16.27.23.59.23.95,0,.59-.23,1.06-.68,1.41-.45.35-1.07.53-1.85.53-.51,0-.99-.1-1.42-.29-.43-.19-.77-.45-1.01-.79-.24-.33-.36-.73-.36-1.17h1.24c0,.4.13.72.4.94s.65.33,1.15.33c.43,0,.75-.09.97-.26.22-.17.33-.4.33-.69Z"/><path class="cls-8" d="M608.06,343.64c-.75,0-1.36-.24-1.83-.71-.47-.47-.7-1.1-.7-1.89v-.15c0-.53.1-1,.31-1.41.2-.42.49-.74.86-.97s.78-.35,1.23-.35c.72,0,1.28.23,1.67.69.39.46.59,1.11.59,1.95v.48h-3.45c.04.44.18.78.44,1.04.25.25.58.38.96.38.54,0,.99-.22,1.33-.66l.64.61c-.21.32-.49.56-.85.73-.35.17-.75.26-1.19.26ZM607.91,339.11c-.33,0-.59.11-.79.34-.2.23-.33.54-.38.95h2.26v-.09c-.03-.4-.13-.7-.32-.9-.19-.2-.44-.31-.77-.31Z"/><path class="cls-8" d="M614,339.34c-.16-.03-.32-.04-.48-.04-.54,0-.91.21-1.1.62v3.61h-1.19v-5.28h1.13l.03.59c.29-.46.68-.69,1.19-.69.17,0,.31.02.42.07v1.11Z"/><path class="cls-8" d="M616.96,342.04l1.12-3.78h1.23l-1.83,5.28h-1.03l-1.85-5.28h1.23l1.13,3.78Z"/><path class="cls-8" d="M620.11,336.89c0-.18.06-.33.17-.45.12-.12.28-.18.5-.18s.38.06.5.18.18.27.18.45-.06.33-.18.45c-.12.12-.28.18-.5.18s-.38-.06-.5-.18c-.12-.12-.17-.27-.17-.45ZM621.37,343.54h-1.19v-5.28h1.19v5.28Z"/><path class="cls-8" d="M624.88,342.69c.3,0,.54-.09.74-.26s.3-.39.31-.64h1.12c-.01.33-.12.64-.31.92-.19.29-.45.51-.78.68s-.68.25-1.06.25c-.74,0-1.33-.24-1.76-.72s-.65-1.14-.65-1.98v-.12c0-.8.21-1.45.64-1.93.43-.48,1.02-.72,1.76-.72.63,0,1.14.18,1.54.55.39.37.6.85.62,1.44h-1.12c-.01-.3-.12-.55-.31-.75-.19-.2-.44-.29-.74-.29-.38,0-.68.14-.89.42-.21.28-.31.7-.32,1.27v.19c0,.57.1,1,.31,1.28.21.28.5.42.9.42Z"/><path class="cls-8" d="M630.37,343.64c-.75,0-1.36-.24-1.83-.71-.47-.47-.7-1.1-.7-1.89v-.15c0-.53.1-1,.31-1.41.2-.42.49-.74.86-.97s.78-.35,1.23-.35c.72,0,1.28.23,1.67.69.39.46.59,1.11.59,1.95v.48h-3.45c.04.44.18.78.44,1.04.25.25.58.38.96.38.54,0,.99-.22,1.33-.66l.64.61c-.21.32-.49.56-.85.73-.35.17-.75.26-1.19.26ZM630.23,339.11c-.33,0-.59.11-.79.34-.2.23-.33.54-.38.95h2.26v-.09c-.03-.4-.13-.7-.32-.9-.19-.2-.44-.31-.77-.31Z"/><path class="cls-8" d="M636.02,343.54v-7.11h2.44c.8,0,1.42.16,1.84.48s.63.8.63,1.44c0,.33-.09.62-.26.88s-.43.46-.77.61c.38.1.68.3.89.59.21.29.32.63.32,1.04,0,.67-.21,1.18-.64,1.54-.43.36-1.04.54-1.84.54h-2.59ZM637.25,339.43h1.21c.38,0,.68-.09.9-.26.22-.17.32-.42.32-.74,0-.35-.1-.61-.3-.76-.2-.16-.51-.23-.93-.23h-1.2v2ZM637.25,340.33v2.22h1.37c.39,0,.69-.1.91-.29s.33-.46.33-.8c0-.74-.38-1.12-1.13-1.13h-1.47Z"/><rect class="cls-1" x="678.62" y="322.87" width="30.95" height="35.51" rx="3.98" ry="3.98"/><path class="cls-8" d="M691.52,342.29c.22,0,.39.06.51.19.12.13.18.28.18.47s-.06.34-.18.46c-.12.12-.29.18-.51.18s-.38-.06-.5-.18-.19-.28-.19-.46.06-.35.18-.47c.12-.12.29-.19.51-.19Z"/><path class="cls-8" d="M694.21,342.29c.22,0,.39.06.51.19.12.13.18.28.18.47s-.06.34-.18.46c-.12.12-.29.18-.51.18s-.38-.06-.5-.18-.19-.28-.19-.46.06-.35.18-.47c.12-.12.29-.19.51-.19Z"/><path class="cls-8" d="M696.9,342.29c.22,0,.39.06.51.19.12.13.18.28.18.47s-.06.34-.18.46c-.12.12-.29.18-.51.18s-.38-.06-.5-.18-.19-.28-.19-.46.06-.35.18-.47c.12-.12.29-.19.51-.19Z"/><rect class="cls-2" x="486.17" y="301.21" width="54.34" height="14.05" rx="2.21" ry="2.21"/><path class="cls-8" d="M501.18,308.52v2.64h-1.24v-7.11h2.72c.79,0,1.42.21,1.89.62.47.41.7.96.7,1.64s-.23,1.24-.69,1.63c-.46.39-1.1.58-1.92.58h-1.47ZM501.18,307.52h1.48c.44,0,.77-.1,1.01-.31.23-.21.35-.51.35-.9s-.12-.69-.35-.92c-.23-.23-.56-.35-.97-.35h-1.52v2.48Z"/><path class="cls-8" d="M506.01,308.46c0-.52.1-.98.31-1.4.21-.41.49-.73.86-.96.37-.22.8-.33,1.28-.33.71,0,1.29.23,1.74.69.45.46.68,1.07.72,1.83v.28c0,.52-.1.99-.29,1.4-.2.41-.49.73-.86.95-.37.22-.8.34-1.29.34-.75,0-1.34-.25-1.79-.74-.45-.5-.67-1.16-.67-1.99v-.06ZM507.19,308.57c0,.54.11.97.34,1.28.22.31.54.46.94.46s.71-.16.93-.47c.22-.31.33-.77.33-1.37,0-.53-.11-.96-.34-1.27-.23-.31-.54-.47-.93-.47s-.7.15-.92.46c-.23.31-.34.77-.34,1.38Z"/><path class="cls-8" d="M514.79,306.96c-.16-.03-.32-.04-.48-.04-.54,0-.91.21-1.1.63v3.61h-1.19v-5.28h1.13l.03.59c.29-.46.68-.69,1.19-.69.17,0,.31.02.42.07v1.11Z"/><path class="cls-8" d="M517.41,304.59v1.28h.93v.88h-.93v2.95c0,.2.04.35.12.44.08.09.22.13.43.13.14,0,.28-.02.42-.05v.92c-.27.08-.53.11-.78.11-.91,0-1.37-.5-1.37-1.51v-2.99h-.87v-.88h.87v-1.28h1.19Z"/><path class="cls-8" d="M524.29,306.61l1.49-2.57h1.43l-2.15,3.53,2.2,3.58h-1.44l-1.53-2.61-1.53,2.61h-1.44l2.2-3.58-2.15-3.53h1.43l1.49,2.57Z"/><line class="cls-2" x1="491.48" y1="301.49" x2="491.48" y2="314.98"/><line class="cls-2" x1="535.2" y1="301.49" x2="535.2" y2="314.98"/><rect class="cls-2" x="593.28" y="301.21" width="54.34" height="14.05" rx="2.21" ry="2.21"/><path class="cls-8" d="M608.41,308.52v2.64h-1.24v-7.11h2.72c.79,0,1.42.21,1.89.62.47.41.7.96.7,1.64s-.23,1.24-.69,1.63c-.46.39-1.1.58-1.92.58h-1.47ZM608.41,307.52h1.48c.44,0,.77-.1,1.01-.31s.35-.5.35-.9-.12-.69-.35-.92c-.23-.23-.56-.35-.97-.35h-1.52v2.48Z"/><path class="cls-8" d="M613.24,308.46c0-.52.1-.98.31-1.4.21-.41.49-.73.86-.96.37-.22.8-.33,1.28-.33.71,0,1.29.23,1.74.69s.68,1.07.72,1.83v.28c0,.52-.09.99-.29,1.4s-.49.73-.86.95c-.37.22-.8.34-1.29.34-.75,0-1.34-.25-1.79-.75-.45-.5-.67-1.16-.67-1.98v-.06ZM614.42,308.57c0,.54.11.97.34,1.28s.54.46.94.46.71-.16.94-.47c.22-.31.33-.77.33-1.37,0-.53-.11-.96-.34-1.27s-.54-.47-.94-.47-.7.15-.92.46c-.23.31-.34.77-.34,1.38Z"/><path class="cls-8" d="M622.02,306.96c-.16-.03-.32-.04-.48-.04-.54,0-.91.21-1.1.62v3.61h-1.19v-5.28h1.13l.03.59c.29-.46.68-.69,1.19-.69.17,0,.31.02.42.07v1.11Z"/><path class="cls-8" d="M624.63,304.59v1.28h.93v.88h-.93v2.95c0,.2.04.35.12.44.08.09.22.13.43.13.14,0,.28-.02.42-.05v.92c-.27.08-.53.11-.78.11-.91,0-1.37-.5-1.37-1.51v-2.99h-.87v-.88h.87v-1.28h1.19Z"/><path class="cls-8" d="M631.4,307.41l1.64-3.37h1.37l-2.38,4.49v2.62h-1.24v-2.62l-2.39-4.49h1.37l1.64,3.37Z"/><line class="cls-2" x1="598.58" y1="301.49" x2="598.58" y2="314.98"/><line class="cls-2" x1="642.31" y1="301.49" x2="642.31" y2="314.98"/><rect class="cls-2" x="679.97" y="301.21" width="28.26" height="14.05" rx="2.21" ry="2.21"/><path class="cls-8" d="M691.36,309.9c.22,0,.39.06.51.19.12.13.18.28.18.47s-.06.34-.18.46-.29.18-.51.18-.38-.06-.5-.18-.19-.28-.19-.46.06-.35.18-.47c.12-.12.29-.19.51-.19Z"/><path class="cls-8" d="M694.05,309.9c.22,0,.39.06.51.19.12.13.18.28.18.47s-.06.34-.18.46-.29.18-.51.18-.38-.06-.5-.18-.19-.28-.19-.46.06-.35.18-.47c.12-.12.29-.19.51-.19Z"/><path class="cls-8" d="M696.74,309.9c.22,0,.39.06.51.19.12.13.18.28.18.47s-.06.34-.18.46-.29.18-.51.18-.38-.06-.5-.18-.19-.28-.19-.46.06-.35.18-.47c.12-.12.29-.19.51-.19Z"/><line class="cls-2" x1="685.27" y1="301.49" x2="685.27" y2="314.98"/><line class="cls-2" x1="702.92" y1="301.49" x2="702.92" y2="314.98"/><line class="cls-4" x1="512.69" y1="227.81" x2="512.69" y2="230.31"/><line class="cls-3" x1="512.69" y1="235.63" x2="512.69" y2="286.25"/><line class="cls-4" x1="512.69" y1="288.91" x2="512.69" y2="291.41"/><polygon class="cls-13" points="509.73 289.39 512.69 300.45 515.65 289.39 509.73 289.39"/><line class="cls-4" x1="623.12" y1="227.81" x2="623.12" y2="230.31"/><line class="cls-3" x1="623.12" y1="235.63" x2="623.12" y2="286.25"/><line class="cls-4" x1="623.12" y1="288.91" x2="623.12" y2="291.41"/><polygon class="cls-13" points="620.15 289.39 623.12 300.45 626.08 289.39 620.15 289.39"/><path class="cls-9" d="M589.14,423.96c-9.28-2.83-16.06-11.42-16.06-21.57s6.91-18.95,16.36-21.67c.97-.27.7-.92-.46-.92-12.55,0-22.75,10.12-22.75,22.59s10.18,22.56,22.75,22.56c1.16,0,1.21-.67.16-1Z"/><path class="cls-9" d="M577.4,407.66c-.05-.59-.11-1.21-.11-1.84,0-9.91,8.02-17.92,17.92-17.92,9.37,0,12.17,4.18,12.52,3.91.38-.3-3.4-8.58-14.39-8.58-9.91,0-17.92,8.02-17.92,17.92,0,2.29.43,4.48,1.21,6.48.32.86.84.86.76.03Z"/><path class="cls-9" d="M584.9,394.76c4.64-2.02,10.5-2.08,16.25-.08,3.86,1.35,6.1,3.27,6.29,3.18.3-.13-2.24-4.18-6.86-5.91-5.59-2.11-11.58-1-15.95,2.43-.49.38-.3.62.27.38Z"/><polygon class="cls-14" points="437.63 355.56 418.13 334.81 418.13 345.75 367.96 345.75 367.96 365.37 418.13 365.37 418.13 376.3 437.63 355.56"/></svg>