<svg viewBox="0 0 200 200" xmlns="http://www.w3.org/2000/svg"><rect fill="currentColor" height="26.73" rx="3.5" width="62.89" x="84.24" y="86.64"/><path d="m143.63 90.14v19.72h-55.89v-19.72zm0-7h-55.89a7 7 0 0 0 -7 7v19.72a7 7 0 0 0 7 7h55.89a7 7 0 0 0 7-7v-19.72a7 7 0 0 0 -7-7z" fill="#32363b"/><rect fill="currentColor" height="26.73" rx="3.5" width="62.89" x="52.87" y="60.06"/><path d="m112.26 63.57v19.72h-55.89v-19.72zm0-7h-55.89a7 7 0 0 0 -7 7v19.72a7 7 0 0 0 7 7h55.89a7 7 0 0 0 7-7v-19.72a7 7 0 0 0 -7-7z" fill="#32363b"/><rect fill="currentColor" height="26.73" rx="3.5" width="62.89" x="21.5" y="86.64"/><path d="m80.89 90.14v19.72h-55.89v-19.72zm0-7h-55.89a7 7 0 0 0 -7 7v19.72a7 7 0 0 0 7 7h55.89a7 7 0 0 0 7-7v-19.72a7 7 0 0 0 -7-7z" fill="#32363b"/><rect fill="currentColor" height="26.73" rx="3.5" width="62.89" x="52.87" y="113.21"/><path d="m112.26 116.71v19.72h-55.89v-19.72zm0-7h-55.89a7 7 0 0 0 -7 7v19.72a7 7 0 0 0 7 7h55.89a7 7 0 0 0 7-7v-19.72a7 7 0 0 0 -7-7z" fill="#32363b"/><rect fill="currentColor" height="26.73" rx="3.5" width="62.89" x="115.61" y="113.21"/><path d="m175 116.71v19.72h-55.89v-19.72zm0-7h-55.89a7 7 0 0 0 -7 7v19.72a7 7 0 0 0 7 7h55.89a7 7 0 0 0 7-7v-19.72a7 7 0 0 0 -7-7z" fill="#32363b"/></svg>