<svg viewBox="0 0 200 200" xmlns="http://www.w3.org/2000/svg"><path d="m126.39 25.71c-2.35 1.39-6.26 5.32-10.92 11l4.29 8.09a103.55 103.55 0 0 1 9.15-11.48l.36-.39-.36.39a95.78 95.78 0 0 0 -8.59 11.68 159.66 159.66 0 0 0 16.68-2.08c1.64-9.18-1.6-13.38-1.6-13.38s-4.16-6.69-9.01-3.83z" fill="#32363b"/><path d="m119.14 71.87h.09l-.62.07h-.1z" fill="#32363b"/><path d="m114.76 86.37-1.07.19c.36-.05.72-.12 1.07-.19z" fill="#32363b"/><path d="m85 118.88.14-.36c.94-2.49 1.88-4.91 2.8-7.27 1.06-2.65 2.06-5.25 3.06-7.7s2.16-5.15 3.2-7.55 2.17-5 3.22-7.41c.86-1.93 1.7-3.81 2.54-5.63l.83-1.79 1.62-3.45 1.47-3.06.48-1c0-.06.06-.11.08-.16h-.52l-.42-.82-.12.24c-.76 1.49-1.5 3-2.24 4.52l-1.28 2.66c-1.17 2.45-2.32 4.94-3.45 7.43s-2.27 5.1-3.41 7.64-2.15 5-3.18 7.48-2 5-3 7.43-2 5.12-3 7.64l-.66 1.7q-1.17 3-2.28 6l.65 1.3.6-.06.06-.18c.95-2.59 1.89-5.12 2.81-7.6z" fill="#fff"/><g fill="#32363b"><path d="m112 93.67-1.69.3.86-.13z"/><path d="m112 93.67-1.69.3.86-.13z"/><path d="m113.43 86.6h.27c.36 0 .72-.12 1.07-.19l-1.33.23z"/><path d="m113.43 86.6h.27c.36 0 .72-.12 1.07-.19l-1.33.23z"/><path d="m107.12 65.73q1.95-3.65 3.95-7.13t4.2-7l.25-.4c1.4-2.21 2.81-4.35 4.24-6.38l-4.29-8.09-1 1.2c-1.23 1.54-2.51 3.2-3.83 5-1.49 2-3 4.09-4.56 6.31-1.43 2-2.88 4.2-4.34 6.43-1.23 1.89-2.47 3.84-3.7 5.84l-.14.22 5.58 11c1.21-2.38 2.41-4.73 3.64-7z"/><path d="m81.71 127.82q-1.11 3-2.23 6.2v.1c-.1.29-.2.59-.31.89-.5 1.43-.94 2.71-1.94 5.62 1.64.75 3 2.72 4.21 5a9 9 0 0 0 -2.91-6.18c8.1.37 15.08-1.68 18.69-7.61a16.46 16.46 0 0 0 .88-1.67c-1.64 2.08-3.67 3-7.5 2.75 5.64-2.53 8.46-4.95 11-9 .6-1 1.17-2 1.76-3.15a17.63 17.63 0 0 1 -16.65 5.41l-4.51.5c-.2.38-.35.76-.49 1.14z"/><path d="m83.81 117.72c1-2.52 2-5.07 3-7.64s2-4.94 3-7.43 2.1-5 3.18-7.48 2.22-5.08 3.37-7.61 2.29-5 3.46-7.43c.42-.89.84-1.77 1.27-2.66q1.11-2.27 2.24-4.52l.12-.24-5.57-11c-.1.14-.19.3-.28.44-1.3 2.12-2.6 4.3-3.86 6.51s-2.5 4.51-3.74 6.82q-1.56 2.92-3 5.91l-.58 1.2c-1.22 2.51-2.32 4.92-3.31 7.25-1.11 2.63-2.11 5.16-3.01 7.53-.57 1.57-1.09 3.09-1.57 4.54-.39 1.24-.76 2.49-1.12 3.73-.83 2.92-1.55 5.83-2.14 8.74l5.61 11.06q1.11-3 2.28-6c.21-.58.43-1.15.65-1.72z"/><path d="m75.19 114.76a86.39 86.39 0 0 0 -1.45 10.58v.36c-1.75-2.8-6.44-5.54-6.43-5.51 3.36 4.86 5.9 9.68 6.28 14.43-1.79.36-4.26-.17-7.1-1.21 3 2.72 5.19 3.48 6.06 3.67-2.72.17-5.56 2-8.42 4.2 4.18-1.7 7.55-2.38 10-1.83-3.89 10.85-7.73 22.83-11.58 35.55a3.37 3.37 0 0 0 2.28-2.21c.68-2.31 5.23-17.42 12.35-37.28.2-.57.41-1.13.61-1.7l.18-.48q1.13-3.12 2.34-6.38c.18-.5.36-1 .55-1.49a0 0 0 0 0 0 0l-5.6-11.06c-.01.1-.04.24-.07.36z"/><path d="m104.36 73.64c-.15.32-.32.65-.48 1l-1.47 3.06-1.62 3.45-.79 1.77c-.84 1.82-1.68 3.69-2.54 5.63-1 2.37-2.13 4.85-3.22 7.41s-2.09 5-3.16 7.59-2 5-3.08 7.7c-.92 2.36-1.86 4.78-2.8 7.27l-.14.36c-.94 2.48-1.88 5-2.83 7.62l-.07.18 4.51-.5h-.27c5.4-.68 12.57-4.7 17.2-9.68a42.29 42.29 0 0 0 5.87-8.16 69.47 69.47 0 0 0 3.78-7.86c1.05-2.53 2-5.26 3-8.23a16.33 16.33 0 0 1 -4.25 1.42l-.83.17-.87.13c5-1.93 8.21-5.67 10.51-10.25a17.72 17.72 0 0 1 -6 2.65c-.35.08-.71.14-1.07.19h-.27a20.63 20.63 0 0 0 4.5-2.51c.28-.21.54-.42.8-.65a13.9 13.9 0 0 0 1.11-1.06c.23-.24.45-.49.66-.74a17.88 17.88 0 0 0 1.41-1.94l.4-.65c.16-.33.32-.64.48-1 .7-1.41 1.26-2.67 1.71-3.78.23-.55.42-1.06.59-1.54.07-.18.13-.37.19-.55.18-.53.32-1 .44-1.41.16-.63.27-1.12.33-1.48a4.66 4.66 0 0 1 -.59.4 21.28 21.28 0 0 1 -6.22 2.12l4.14-.45-4.14.45h-.1l-.63.1h.11l-14.17 1.56a1 1 0 0 0 -.13.21z"/><path d="m120.32 45c-1.26 1.93-2.64 4.13-4.12 6.62l-.2.38q-1.92 3.22-4.06 7.11c-1.23 2.23-2.52 4.63-3.85 7.21q-1.76 3.38-3.6 7.15l14.17-1.55c4.13-1.9 6-3.62 7.76-6.11.48-.68 1-1.4 1.43-2.14 1.46-2.27 2.89-4.77 4.16-7.26a72.53 72.53 0 0 0 3.15-6.92 35.06 35.06 0 0 0 1.25-3.76c.26-1 .46-1.91.62-2.81a160.37 160.37 0 0 1 -16.71 2.08z"/><path d="m111.16 93.83-.86.14z"/><path d="m111.16 93.83-.86.14z"/><path d="m111.16 93.83-.86.14z"/><path d="m113.42 86.6h.27z"/><path d="m113.42 86.6h.27z"/><path d="m113.42 86.6h.27z"/></g></svg>