<svg viewBox="0 0 200 200" xmlns="http://www.w3.org/2000/svg"><path d="m161.22 147.6c-4.4-1.8-6.28-4.19-6.1-7.76a11.85 11.85 0 0 0 -3.3-8.42c.68-2.59 2.66-11.54 0-19.32-2.86-8.33-11.57-21-20.57-33.55-3.68-5.13-3.85-10.71-4-17.17-.19-6.16-.41-13.15-3.85-20.92a21.63 21.63 0 0 0 -20.57-13.3 28.22 28.22 0 0 0 -15.65 4.76c-9 6.2-7.79 19.72-7 28.67.11 1.23.21 2.38.27 3.37.52 8.76 0 13.38-.58 14.78a59.93 59.93 0 0 1 -4.53 6.26c-2.17 2.85-4.63 6.09-6.65 9.11-2.4 3.64-4.35 9.19-6.22 14.56a71 71 0 0 1 -3.94 9.86 13.38 13.38 0 0 0 -1.3 10.08 10.36 10.36 0 0 0 -3.33 4.21c-1.33 2.85-4 4.39-9.69 5.47-2.59.53-4.37 1.62-5.31 3.24-1.36 2.36-.62 5.32.06 7.34 1 3 .37 4.86-.76 8.28-.26.79-.55 1.68-.85 2.66a4.79 4.79 0 0 0 .5 4.2c2.13 3.26 8.35 4.41 14.75 5.16 3.82.46 8 2 12 3.46s8.06 3 11.79 3.4a11.77 11.77 0 0 0 1.66.11 9.79 9.79 0 0 0 9-5.26 100.33 100.33 0 0 1 16.18-1.88 70 70 0 0 1 16.07 1.65 12.84 12.84 0 0 0 4.84 5.27 11.74 11.74 0 0 0 5.44 1.23 13.12 13.12 0 0 0 9.57-3.95c3.26-3.46 11.41-7.87 17.36-11.09l3.66-2c3.34-1.86 5.17-4.5 5-7.27a6.12 6.12 0 0 0 -3.95-5.24zm-74-.67c-.42-2.93-4.19-5.84-8.56-9.2-3.57-2.75-7.61-5.87-8.73-8.52-2.3-5.45-.49-15 2.68-20 1.57-2.48 2.84-6.22 4.08-9.85 1.33-3.91 2.71-8 4.26-9.73a24.83 24.83 0 0 0 5.1-12.38c2.29 2.19 5.84 5 9.12 5a5.49 5.49 0 0 0 1.47-.2c2.24-.65 5.54-2.56 8.74-4.4 2.75-1.59 6.14-3.55 7.42-3.73 2.19 3.14 14.92 31.31 16.22 40.35a42.62 42.62 0 0 1 -.61 15.39 11.25 11.25 0 0 0 -1.51-.11c-3.55 0-4.48 1.93-4.73 3.09-.63 3-.69 12.6-.7 14.76-1.28 1.62-7.76 9.29-17.07 10.67a74 74 0 0 1 -10.52.83 35.44 35.44 0 0 1 -5.19-.32l-4.69-5.35a5.69 5.69 0 0 0 3.22-6.3zm5.93-88.22-.43.2a7.81 7.81 0 0 0 -.1-1c-.51-2.91-2.46-5.03-4.62-5.03a3 3 0 0 0 -.5 0 3.87 3.87 0 0 0 -2.86 2.56c.48-3 2.2-5.26 4.23-5.26 2.38 0 4.4 3.22 4.4 7a10.73 10.73 0 0 1 -.12 1.53zm18.54 2.29a7.64 7.64 0 0 0 .33-2.22c0-3.45-2.19-6.16-5-6.16s-5 2.76-5 6.16q0 .34 0 .69l-.42-.16a9.27 9.27 0 0 1 -.48-3c0-4.12 2.64-7.48 5.88-7.48s6 3.37 6 7.49a8.85 8.85 0 0 1 -1.31 4.68zm-2.39 8c0 .21-.15.3-1.25.88-.55.28-1.24.64-2.11 1.17l-.58.35c-2.32 1.41-7.75 4.7-9.22 4.89-1 .14-1.63-.25-3-1.2l-1-.67c-2.54-1.64-4.14-3.42-4.33-4.17.81-.63 2.84-2.22 3.88-3.15 2.11-2 4.24-3.28 5.29-3.28h.15a52.5 52.5 0 0 1 6.51 2.32c1 .41 1.91.76 2.54 1 1.97.67 2.99 1.54 3.12 1.86zm17.7 91.66c1.11-5 2.39-11.82 2.19-15.83 0-.92-.13-1.91-.21-2.87a26.3 26.3 0 0 1 -.14-5.25l.15-.06c0 2.3.51 6.88 4.17 8.48a9.33 9.33 0 0 0 3.71.71 15.18 15.18 0 0 0 9.4-3.46 17.66 17.66 0 0 0 2.39-3.14 4 4 0 0 1 .16 1.48c-.22 3.39 1.43 7.88 4.56 9.53l.46.24c1.11.59 4.07 2.14 4.12 2.88a.56.56 0 0 1 -.19.24 42.23 42.23 0 0 1 -5.88 3.3c-4.48 2.29-9.56 4.89-11.84 7.28-3.21 3.38-6.84 5.65-9 5.65a2.37 2.37 0 0 1 -.72-.1c-2.45-.74-4.41-4.18-3.33-9.08zm-81.2-12.77a6.84 6.84 0 0 1 -.23-2.91c.15-.64 3.33-1.33 4.69-1.63a18.27 18.27 0 0 0 5.18-1.62c1.74-1.06 2.69-3 3.52-4.73.61-1.25 1.23-2.53 2-3a.52.52 0 0 1 .23 0c1.39 0 4.31 2.92 6 5.54.43.66 1.22 2 2.13 3.51 2.73 4.57 6.48 10.84 8.43 12.93 1.76 1.89 4.61 5.52 3.91 8.63-.51 2.42-3.25 4.38-3.89 4.81a3.63 3.63 0 0 1 -.87.08c-3.74 0-11.14-3.11-15.12-4.78l-.59-.25c-2.22-.93-5.85-1.52-9.35-2.08-2.79-.46-6.62-1.07-7.25-1.63s.08-2.45.61-4.1a26.1 26.1 0 0 0 1-3.7 13.46 13.46 0 0 0 -.43-5.07z" fill="#32363b"/><path d="m87.22 146.93c-.42-2.93-4.19-5.84-8.56-9.2-3.57-2.75-7.61-5.87-8.73-8.52-2.3-5.45-.49-15 2.68-20 1.57-2.48 2.84-6.22 4.08-9.85 1.33-3.91 2.71-8 4.26-9.73a24.83 24.83 0 0 0 5.1-12.38c2.29 2.19 5.84 5 9.12 5a5.49 5.49 0 0 0 1.47-.2c2.24-.65 5.54-2.56 8.74-4.4 2.75-1.59 6.14-3.55 7.42-3.73 2.19 3.14 14.92 31.31 16.22 40.35a42.62 42.62 0 0 1 -.61 15.39 11.25 11.25 0 0 0 -1.51-.11c-3.55 0-4.48 1.93-4.73 3.09-.63 3-.69 12.6-.7 14.76-1.28 1.62-7.76 9.29-17.07 10.67a74 74 0 0 1 -10.52.83 35.44 35.44 0 0 1 -5.19-.32l-4.69-5.35a5.69 5.69 0 0 0 3.22-6.3z" fill="#fff"/><g fill="currentColor"><path d="m127 160.66c1.11-5 2.39-11.82 2.19-15.83 0-.92-.13-1.91-.21-2.87a26.3 26.3 0 0 1 -.14-5.25l.15-.06c0 2.3.51 6.88 4.17 8.48a9.33 9.33 0 0 0 3.71.71 15.18 15.18 0 0 0 9.4-3.46 17.66 17.66 0 0 0 2.39-3.14 4 4 0 0 1 .16 1.48c-.22 3.39 1.43 7.88 4.56 9.53l.46.24c1.11.59 4.07 2.14 4.12 2.88a.56.56 0 0 1 -.19.24 42.23 42.23 0 0 1 -5.88 3.3c-4.48 2.29-9.56 4.89-11.84 7.28-3.21 3.38-6.84 5.65-9 5.65a2.37 2.37 0 0 1 -.72-.1c-2.45-.74-4.41-4.18-3.33-9.08z"/><path d="m45.77 147.89a6.84 6.84 0 0 1 -.23-2.91c.15-.64 3.33-1.33 4.69-1.63a18.27 18.27 0 0 0 5.18-1.62c1.74-1.06 2.69-3 3.52-4.73.61-1.25 1.23-2.53 2-3a.52.52 0 0 1 .23 0c1.39 0 4.31 2.92 6 5.54.43.66 1.22 2 2.13 3.51 2.73 4.57 6.48 10.84 8.43 12.93 1.76 1.89 4.61 5.52 3.91 8.63-.51 2.42-3.25 4.38-3.89 4.81a3.63 3.63 0 0 1 -.87.08c-3.74 0-11.14-3.11-15.12-4.78l-.59-.25c-2.22-.93-5.85-1.52-9.35-2.08-2.79-.46-6.62-1.07-7.25-1.63s.08-2.45.61-4.1a26.1 26.1 0 0 0 1-3.7 13.46 13.46 0 0 0 -.4-5.07z"/><path d="m109.3 69c0 .21-.15.3-1.25.88-.55.28-1.24.64-2.11 1.17l-.58.35c-2.32 1.41-7.75 4.7-9.22 4.89-1 .14-1.63-.25-3-1.2l-1-.67c-2.54-1.64-4.14-3.42-4.33-4.17.81-.63 2.84-2.22 3.88-3.15 2.11-2 4.24-3.28 5.29-3.28h.15a52.5 52.5 0 0 1 6.51 2.32c1 .41 1.91.76 2.54 1 1.97.67 2.99 1.54 3.12 1.86z"/></g></svg>