<svg viewBox="0 0 200 200" xmlns="http://www.w3.org/2000/svg"><path d="m100.72 143.43c-6.66 1-13.33 1.92-20.1 1.5-16.15-1-30.75-5.88-42.9-17-15.08-13.86-17-34.8-4.46-50.84a3.67 3.67 0 0 0 .61-4c-1.8-5.21-3.41-10.49-5.18-15.72-.71-2.09-.54-4 1.12-5.45s3.68-1.47 5.76-.44c5.87 2.9 11.81 5.68 17.7 8.56a3.56 3.56 0 0 0 3.15.26c14.29-5.69 29-6.51 44-3.67a83.31 83.31 0 0 1 20.94 8c2.61 2 5.32 3.82 7.82 5.91 16.77 14.07 19.29 35.85 6.15 52.56-3.81 4.84-8.59 8.58-13.6 12.06a88.29 88.29 0 0 1 -21.01 8.27zm-22.67-8.29c0 .53.4.36.69.36a59.9 59.9 0 0 0 20.49-1.45c10-2 19-6.29 26.22-13.56 10.24-10.27 12.06-23.83 4.64-35.1-7.24-11-18-16.63-30.62-19.34a52.57 52.57 0 0 0 -20.81-1.42 53.78 53.78 0 0 0 -20.49 5 7 7 0 0 1 -6.64-.12c-3.39-1.8-6.92-3.34-10.88-5.23 1.23 3.85 2.25 7.19 3.37 10.51a4.67 4.67 0 0 1 -1 5c-.81.9-1.6 1.82-2.36 2.77-8.39 10.45-8.79 23.2-.79 33.94 7.27 9.77 17.55 14.81 29.1 17.57 3 .71 6 1.59 9.14 1.11z" fill="#32363b"/><g fill="currentColor"><path d="m100.72 143.43a88.29 88.29 0 0 0 21-8.28c.38.15.8.47 1.15.42 6.46-1 12.91-2.22 18.85-5.12a7 7 0 0 1 6.86.21c3.32 1.77 6.77 3.29 10.65 5.15a80.3 80.3 0 0 0 -2.54-7.75c-1.65-3.75-1.05-6.58 1.76-9.77 9.8-11.14 9.88-25.23.18-36.48s-22.75-16-37.28-17.19a83.31 83.31 0 0 0 -20.94-8c22.86-4 43.95-.46 61.66 15.54 15.52 14 17.11 34.39 4.43 51a3.35 3.35 0 0 0 -.54 3.54c1.73 5.15 3.36 10.33 5.08 15.48.73 2.2.92 4.29-1 6s-4 1.27-6 .26c-5.58-2.71-11.22-5.34-16.76-8.14a5 5 0 0 0 -4.58-.24 76.14 76.14 0 0 1 -41 3.77 6.42 6.42 0 0 1 -.98-.4z"/><path d="m78.1 135.16a87.1 87.1 0 0 1 -10.55-8.65c-15.73-16-15-39.63 1.7-54.67a102.38 102.38 0 0 1 9.41-7.21 52.57 52.57 0 0 1 20.81 1.42 61 61 0 0 0 -19.47 8.75c-19.69 14-19.46 37.09.48 50.82 5.75 4 12.14 6.38 18.73 8.43a59.9 59.9 0 0 1 -20.49 1.45l-.69-.36z"/><path d="m99.36 121.06a25.1 25.1 0 0 1 -18.89-9.35c-2.37-2.88-2.34-5.69 0-7.51s4.73-1.22 7.09 1.62a16.79 16.79 0 0 0 25.85 0c2.29-2.76 4.91-3.33 7.14-1.55s2.2 4.74-.1 7.54c-4.91 5.88-12.17 9.26-21.09 9.25z"/><path d="m94.61 88.78a7 7 0 1 1 -6.81-7 7 7 0 0 1 6.81 7z"/><path d="m120.19 88.69a6.82 6.82 0 0 1 -6.77 7 7 7 0 1 1 -.11-13.93 6.78 6.78 0 0 1 6.88 6.93z"/></g></svg>