<?xml version="1.0" encoding="utf-8"?>
<!-- Generator: Adobe Illustrator 28.3.0, SVG Export Plug-In . SVG Version: 6.00 Build 0)  -->
<svg version="1.1" id="Layer_1" xmlns="http://www.w3.org/2000/svg" xmlns:xlink="http://www.w3.org/1999/xlink" x="0px" y="0px"
	 viewBox="0 0 792 612" style="enable-background:new 0 0 792 612;" xml:space="preserve">
<style type="text/css">
	.st0{fill:#010101;}
	.st1{fill:none;stroke:#6D6E71;stroke-width:5;stroke-miterlimit:10;}
	.st2{fill:#6D6E71;}
	.st3{fill:none;stroke:#BCBEC0;stroke-width:5;stroke-miterlimit:10;stroke-dasharray:8,8;}
	.st4{fill:#BCBEC0;}
	.st5{font-family:'Roboto-Regular';}
	.st6{font-size:17px;}
	.st7{fill:#18B057;}
	.st8{fill:none;stroke:#6D6E71;stroke-width:3;stroke-miterlimit:10;}
	.st9{fill:#1799D5;}
	.st10{fill:#FFFFFF;}
</style>
<g>
	<path class="st0" d="M109.5,318.2c0,19.1,15.5,34.5,34.5,34.5s34.5-15.5,34.5-34.5c0-19.1-15.5-34.5-34.5-34.5
		S109.5,299.2,109.5,318.2L109.5,318.2z M173.8,316H165c-0.1-3.2-0.5-6.2-1.1-9.1h7.8C172.9,309.7,173.5,312.8,173.8,316L173.8,316z
		 M114.2,320.5h8.7c0.2,3.3,0.5,6.2,1.2,9.1h-7.8C115.1,326.8,114.5,323.8,114.2,320.5z M127.4,320.5h14.3v9.1h-13.1
		C128,326.8,127.6,323.8,127.4,320.5z M141.7,334.2v13.7c-4.9-1.3-9.1-6.4-11.8-13.7H141.7z M146.2,347.8v-13.7H158
		C155.4,341.4,151.1,346.6,146.2,347.8z M146.2,329.6v-9.1h14.3c-0.2,3.3-0.5,6.3-1.2,9.1H146.2z M165,320.5h8.7
		c-0.3,3.2-0.9,6.2-2.1,9.1h-7.7C164.5,326.7,164.9,323.8,165,320.5z M160.6,316h-14.3v-9.1h13.1C160,309.7,160.4,312.8,160.6,316z
		 M146.2,302.4v-13.7c4.9,1.3,9.1,6.3,11.8,13.7H146.2z M141.7,288.7v13.7h-11.8C132.6,295.1,136.8,290,141.7,288.7z M141.7,306.9
		v9.1h-14.3c0.2-3.3,0.5-6.3,1.2-9.1H141.7z M123,316h-8.8c0.3-3.2,0.9-6.2,2.1-9.1h7.8C123.4,309.8,123.1,312.8,123,316L123,316z
		 M118.6,334.2h6.6c1.4,4.3,3.3,7.9,5.5,10.9C125.8,342.6,121.6,338.9,118.6,334.2z M157.2,345.1c2.3-3,4.2-6.6,5.5-10.9h6.6
		C166.3,338.9,162.2,342.6,157.2,345.1L157.2,345.1z M169.3,302.4h-6.7c-1.4-4.3-3.2-8-5.4-11C162.2,294,166.3,297.7,169.3,302.4z
		 M130.8,291.4c-2.3,3-4.1,6.7-5.4,11h-6.7C121.6,297.7,125.8,294,130.8,291.4z"/>
	<g>
		<g>
			<g>
				<g>
					<line class="st1" x1="187.9" y1="314.8" x2="384.3" y2="166.9"/>
					<g>
						<polygon class="st2" points="387.6,175.7 394.6,159.2 376.8,161.4 						"/>
					</g>
				</g>
			</g>
			<g>
				<g>
					<line class="st3" x1="187.9" y1="314.8" x2="384.3" y2="462.6"/>
					<g>
						<polygon class="st4" points="376.8,468.2 394.6,470.4 387.6,453.9 						"/>
					</g>
				</g>
			</g>
		</g>
		<g>
			<text transform="matrix(1 0 0 1 224.3203 213.6886)" class="st5 st6">Primary </text>
			<text transform="matrix(1 0 0 1 232.3203 234.0886)" class="st5 st6">origin</text>
			<text transform="matrix(1 0 0 1 221.7144 425.8355)" class="st5 st6">Fail-over</text>
		</g>
		<text transform="matrix(1 0 0 1 482.0159 163.1981)" class="st5 st6">Bucket in Osaka, Japan</text>
		<text transform="matrix(1 0 0 1 482.0156 476.3188)" class="st5 st6">Bucket in Washington D.C., USA</text>
		<text transform="matrix(1 0 0 1 445.7375 394.7539)" class="st5 st6">One-way replication</text>
		<text transform="matrix(1 0 0 1 489.9844 310.4982)" class="st5 st6">RClone in an instance</text>
		<text transform="matrix(1 0 0 1 511.5844 330.8982)" class="st5 st6">in Osaka, Japan</text>
		<text transform="matrix(1 0 0 1 96.0965 383.3813)" class="st5 st6">Akamai CDN</text>
		<g>
			<g>
				<g>
					<g>
						<path class="st7" d="M399.5,122h72v7h-72V122z"/>
						<path class="st0" d="M453.5,194.5h-36c-3.5,0-6.5-2.8-6.9-6.5l-6.6-54.4h63l-6.6,54.4C460,191.7,457.1,194.5,453.5,194.5
							L453.5,194.5z M407.7,136.9l6.1,50.7c0.2,2,1.9,3.6,3.7,3.6h36c1.9,0,3.4-1.6,3.7-3.6l6.1-50.7H407.7L407.7,136.9z"/>
						<path class="st7" d="M446,184.1C445.9,184.1,445.9,184.1,446,184.1c-2.8,0-4.9-2.3-4.9-4.9c0-2.6,2.3-4.8,4.9-4.8
							s4.8,2.3,4.8,4.9C450.9,182,448.7,184.1,446,184.1z"/>
					</g>
					<g>
						<path class="st7" d="M399.5,435.1h72v7h-72V435.1z"/>
						<path class="st0" d="M453.5,507.6h-36c-3.5,0-6.5-2.8-6.9-6.5l-6.6-54.4h63l-6.6,54.4C460,504.8,457.1,507.6,453.5,507.6
							L453.5,507.6z M407.7,450l6.1,50.7c0.2,2,1.9,3.6,3.7,3.6h36c1.9,0,3.4-1.6,3.7-3.6l6.1-50.7H407.7L407.7,450z"/>
						<path class="st7" d="M446,497.2C445.9,497.2,445.9,497.2,446,497.2c-2.8,0-4.9-2.3-4.9-4.9s2.3-4.8,4.9-4.8s4.8,2.3,4.8,4.9
							C450.9,495.2,448.7,497.2,446,497.2z"/>
					</g>
				</g>
				<g>
					<path class="st0" d="M435.5,352.9l-33-19.1v-38.1l33-19.1l33,19.1v38.1L435.5,352.9z M405.6,332.1l29.9,17.3l29.9-17.3v-34.5
						l-29.9-17.3l-29.9,17.3V332.1z"/>
					<path class="st7" d="M414.4,326.9v-24.3l21.1-12.2l21.1,12.2V327l-21.1,12.2L414.4,326.9z"/>
				</g>
			</g>
			<g>
				<g>
					<g>
						<line class="st8" x1="435.5" y1="207.2" x2="435.5" y2="254.6"/>
						<g>
							<polygon class="st2" points="430.1,253 435.5,262.4 440.8,253 							"/>
						</g>
					</g>
				</g>
				<g>
					<g>
						<line class="st8" x1="435.5" y1="367.2" x2="435.5" y2="414.6"/>
						<g>
							<polygon class="st2" points="430.1,413 435.5,422.4 440.8,413 							"/>
						</g>
					</g>
				</g>
			</g>
		</g>
	</g>
	<g>
		<g>
			<path class="st9" d="M93.3,337.9c-12.7,0-23.1-10.4-23.1-23.1s10.4-23.1,23.1-23.1s23.1,10.4,23.1,23.1S106.1,337.9,93.3,337.9z"
				/>
			<path class="st10" d="M93.3,293.7c11.6,0,21.1,9.4,21.1,21.1s-9.4,21.1-21.1,21.1c-11.6,0-21.1-9.4-21.1-21.1
				S81.7,293.7,93.3,293.7 M93.3,289.7c-13.8,0-25.1,11.3-25.1,25.1c0,13.8,11.3,25.1,25.1,25.1s25.1-11.3,25.1-25.1
				S107.2,289.7,93.3,289.7L93.3,289.7z"/>
		</g>
		<g>
			<path class="st10" d="M96.5,324.4h-3.8v-14.7l-4.6,1.4V308l8-2.9h0.4V324.4z"/>
		</g>
	</g>
	<g>
		<g>
			<path class="st9" d="M470.4,148.6c-12.7,0-23.1-10.4-23.1-23.1s10.4-23.1,23.1-23.1s23.1,10.4,23.1,23.1S483.1,148.6,470.4,148.6
				z"/>
			<path class="st10" d="M470.4,104.4c11.6,0,21.1,9.4,21.1,21.1s-9.4,21.1-21.1,21.1s-21.1-9.4-21.1-21.1S458.7,104.4,470.4,104.4
				 M470.4,100.4c-13.8,0-25.1,11.3-25.1,25.1s11.3,25.1,25.1,25.1s25.1-11.3,25.1-25.1S484.2,100.4,470.4,100.4L470.4,100.4z"/>
		</g>
		<g>
			<path class="st10" d="M477.2,135.2H464v-2.6l6.2-6.6c0.9-0.9,1.5-1.7,1.9-2.4c0.4-0.7,0.6-1.4,0.6-2c0-0.9-0.2-1.5-0.6-2
				s-1-0.7-1.8-0.7c-0.9,0-1.5,0.3-2,0.9s-0.7,1.4-0.7,2.3h-3.8c0-1.2,0.3-2.2,0.8-3.2c0.6-1,1.3-1.7,2.4-2.3s2.2-0.8,3.5-0.8
				c2,0,3.5,0.5,4.6,1.4c1.1,1,1.6,2.3,1.6,4c0,1-0.2,1.9-0.7,2.9s-1.3,2.1-2.5,3.4l-4.4,4.6h8.3v3.1H477.2z"/>
		</g>
	</g>
	<g>
		<g>
			<path class="st9" d="M470.4,461.7c-12.7,0-23.1-10.4-23.1-23.1s10.4-23.1,23.1-23.1s23.1,10.4,23.1,23.1S483.1,461.7,470.4,461.7
				z"/>
			<path class="st10" d="M470.4,417.5c11.6,0,21.1,9.4,21.1,21.1s-9.4,21.1-21.1,21.1s-21.1-9.4-21.1-21.1S458.7,417.5,470.4,417.5
				 M470.4,413.5c-13.8,0-25.1,11.3-25.1,25.1c0,13.8,11.3,25.1,25.1,25.1s25.1-11.3,25.1-25.1S484.2,413.5,470.4,413.5L470.4,413.5
				z"/>
		</g>
		<g>
			<path class="st10" d="M468.1,436.9h2c1,0,1.7-0.2,2.2-0.7s0.7-1.1,0.7-1.9s-0.2-1.4-0.7-1.8s-1.1-0.6-1.9-0.6
				c-0.7,0-1.3,0.2-1.8,0.6s-0.7,0.9-0.7,1.6h-3.8c0-1,0.3-1.9,0.8-2.7s1.3-1.4,2.3-1.9c1-0.4,2-0.7,3.2-0.7c2,0,3.6,0.5,4.8,1.5
				c1.2,1,1.7,2.3,1.7,4c0,0.9-0.3,1.7-0.8,2.4c-0.5,0.7-1.2,1.3-2.1,1.7c1.1,0.4,1.9,1,2.4,1.7c0.5,0.8,0.8,1.7,0.8,2.7
				c0,1.7-0.6,3.1-1.9,4.1c-1.2,1-2.9,1.5-4.9,1.5c-1.9,0-3.5-0.5-4.7-1.5s-1.8-2.4-1.8-4h3.8c0,0.7,0.3,1.3,0.8,1.8s1.2,0.7,2,0.7
				c0.9,0,1.6-0.2,2.1-0.7s0.8-1.1,0.8-1.9c0-1.9-1.1-2.9-3.2-2.9h-2L468.1,436.9L468.1,436.9z"/>
		</g>
	</g>
	<g>
		<g>
			<path class="st9" d="M470.4,301.6c-12.7,0-23.1-10.4-23.1-23.1s10.4-23.1,23.1-23.1s23.1,10.4,23.1,23.1S483.1,301.6,470.4,301.6
				z"/>
			<path class="st10" d="M470.4,257.5c11.6,0,21.1,9.4,21.1,21.1s-9.4,21.1-21.1,21.1s-21.1-9.4-21.1-21.1S458.7,257.5,470.4,257.5
				 M470.4,253.5c-13.8,0-25.1,11.3-25.1,25.1c0,13.8,11.3,25.1,25.1,25.1s25.1-11.3,25.1-25.1C495.5,264.7,484.2,253.5,470.4,253.5
				L470.4,253.5z"/>
		</g>
		<g>
			<path class="st10" d="M474.2,280.9h2.2v3.1h-2.2v4.2h-3.8V284h-7.9l-0.2-2.4l8-12.7h3.9V280.9z M466.2,280.9h4.3v-6.8l-0.3,0.4
				L466.2,280.9z"/>
		</g>
	</g>
	<g>
		<g>
			<path class="st9" d="M253.6,389.3c-12.7,0-23.1-10.4-23.1-23.1s10.4-23.1,23.1-23.1s23.1,10.4,23.1,23.1S266.3,389.3,253.6,389.3
				z"/>
			<path class="st10" d="M253.6,345.1c11.6,0,21.1,9.4,21.1,21.1s-9.4,21.1-21.1,21.1c-11.6,0-21.1-9.4-21.1-21.1
				S241.9,345.1,253.6,345.1 M253.6,341.1c-13.8,0-25.1,11.3-25.1,25.1c0,13.8,11.3,25.1,25.1,25.1c13.8,0,25.1-11.3,25.1-25.1
				S267.4,341.1,253.6,341.1L253.6,341.1z"/>
		</g>
		<g>
			<path class="st10" d="M247.6,366.2l1.1-9.8h10.8v3.2h-7.6l-0.5,4.1c0.9-0.5,1.9-0.7,2.9-0.7c1.8,0,3.3,0.6,4.3,1.7
				s1.6,2.7,1.6,4.8c0,1.2-0.3,2.4-0.8,3.3c-0.5,1-1.3,1.7-2.3,2.3c-1,0.5-2.1,0.8-3.5,0.8c-1.2,0-2.2-0.2-3.2-0.7s-1.8-1.1-2.4-2
				c-0.6-0.9-0.9-1.8-0.9-2.9h3.8c0.1,0.8,0.4,1.4,0.8,1.9c0.5,0.4,1.1,0.7,1.9,0.7c0.9,0,1.5-0.3,2-0.9c0.5-0.6,0.7-1.5,0.7-2.6
				s-0.3-1.9-0.8-2.5c-0.5-0.6-1.3-0.9-2.3-0.9c-0.9,0-1.6,0.2-2.2,0.7l-0.4,0.3L247.6,366.2z"/>
		</g>
	</g>
</g>
</svg>
