<svg xmlns="http://www.w3.org/2000/svg" xmlns:xlink="http://www.w3.org/1999/xlink" version="1.1" id="Layer_1" x="0px" y="0px" style="enable-background:new 0 0 792 612;" xml:space="preserve" viewBox="68.2 100.4 651.3 407.2" width="100%" height="100%">
<style type="text/css">
	.st0{fill:#010101;}
	.st1{fill:none;stroke:#6D6E71;stroke-width:5;stroke-miterlimit:10;}
	.st2{fill:#6D6E71;}
	.st3{fill:none;stroke:#BCBEC0;stroke-width:5;stroke-miterlimit:10;stroke-dasharray:8,8;}
	.st4{fill:#BCBEC0;}
	.st5{enable-background:new    ;}
	.st6{fill:#18B057;}
	.st7{fill:none;stroke:#6D6E71;stroke-width:3;stroke-miterlimit:10;}
	.st8{fill:#1799D5;}
	.st9{fill:#FFFFFF;}
</style>
<g>
	<path class="st0" d="M109.5,318.2c0,19.1,15.5,34.5,34.5,34.5s34.5-15.5,34.5-34.5c0-19.1-15.5-34.5-34.5-34.5   S109.5,299.2,109.5,318.2L109.5,318.2z M173.8,316H165c-0.1-3.2-0.5-6.2-1.1-9.1h7.8C172.9,309.7,173.5,312.8,173.8,316L173.8,316z    M114.2,320.5h8.7c0.2,3.3,0.5,6.2,1.2,9.1h-7.8C115.1,326.8,114.5,323.8,114.2,320.5z M127.4,320.5h14.3v9.1h-13.1   C128,326.8,127.6,323.8,127.4,320.5z M141.7,334.2v13.7c-4.9-1.3-9.1-6.4-11.8-13.7H141.7z M146.2,347.8v-13.7H158   C155.4,341.4,151.1,346.6,146.2,347.8z M146.2,329.6v-9.1h14.3c-0.2,3.3-0.5,6.3-1.2,9.1H146.2z M165,320.5h8.7   c-0.3,3.2-0.9,6.2-2.1,9.1h-7.7C164.5,326.7,164.9,323.8,165,320.5z M160.6,316h-14.3v-9.1h13.1C160,309.7,160.4,312.8,160.6,316z    M146.2,302.4v-13.7c4.9,1.3,9.1,6.3,11.8,13.7H146.2z M141.7,288.7v13.7h-11.8C132.6,295.1,136.8,290,141.7,288.7z M141.7,306.9   v9.1h-14.3c0.2-3.3,0.5-6.3,1.2-9.1H141.7z M123,316h-8.8c0.3-3.2,0.9-6.2,2.1-9.1h7.8C123.4,309.8,123.1,312.8,123,316L123,316z    M118.6,334.2h6.6c1.4,4.3,3.3,7.9,5.5,10.9C125.8,342.6,121.6,338.9,118.6,334.2z M157.2,345.1c2.3-3,4.2-6.6,5.5-10.9h6.6   C166.3,338.9,162.2,342.6,157.2,345.1L157.2,345.1z M169.3,302.4h-6.7c-1.4-4.3-3.2-8-5.4-11C162.2,294,166.3,297.7,169.3,302.4z    M130.8,291.4c-2.3,3-4.1,6.7-5.4,11h-6.7C121.6,297.7,125.8,294,130.8,291.4z"/>
	<g>
		<g>
			<g>
				<g>
					<line class="st1" x1="187.9" y1="314.8" x2="384.3" y2="166.9"/>
					<g>
						<polygon class="st2" points="387.6,175.7 394.6,159.2 376.8,161.4       "/>
					</g>
				</g>
			</g>
			<g>
				<g>
					<line class="st3" x1="187.9" y1="314.8" x2="384.3" y2="462.6"/>
					<g>
						<polygon class="st4" points="376.8,468.2 394.6,470.4 387.6,453.9       "/>
					</g>
				</g>
			</g>
		</g>
		<g>
			<g class="st5">
				<path d="M227.3,209v4.7h-1.6v-12.1h4.5c1.3,0,2.4,0.3,3.1,1c0.8,0.7,1.1,1.6,1.1,2.7c0,1.2-0.4,2.1-1.1,2.7      c-0.7,0.6-1.8,1-3.2,1H227.3z M227.3,207.7h2.9c0.9,0,1.5-0.2,2-0.6c0.5-0.4,0.7-1,0.7-1.7c0-0.7-0.2-1.3-0.7-1.7      s-1.1-0.7-1.9-0.7h-3V207.7z"/>
				<path d="M240.5,206.1c-0.2,0-0.5-0.1-0.8-0.1c-1,0-1.7,0.4-2.1,1.3v6.4h-1.5v-9h1.5l0,1c0.5-0.8,1.2-1.2,2.1-1.2      c0.3,0,0.5,0,0.7,0.1V206.1z"/>
				<path d="M242,202.3c0-0.2,0.1-0.5,0.2-0.6c0.2-0.2,0.4-0.3,0.7-0.3s0.5,0.1,0.7,0.3c0.2,0.2,0.2,0.4,0.2,0.6      c0,0.2-0.1,0.5-0.2,0.6s-0.4,0.2-0.7,0.2s-0.5-0.1-0.7-0.2C242,202.8,242,202.6,242,202.3z M243.6,213.7h-1.5v-9h1.5V213.7z"/>
				<path d="M247.5,204.7l0,1c0.7-0.8,1.5-1.2,2.7-1.2c1.3,0,2.1,0.5,2.6,1.4c0.3-0.4,0.7-0.8,1.2-1c0.5-0.3,1-0.4,1.7-0.4      c2,0,3,1,3,3.1v6h-1.5v-5.9c0-0.6-0.1-1.1-0.4-1.4s-0.8-0.5-1.5-0.5c-0.6,0-1,0.2-1.4,0.5c-0.4,0.3-0.6,0.8-0.7,1.4v6h-1.5v-5.9      c0-1.3-0.6-2-1.9-2c-1,0-1.7,0.4-2.1,1.3v6.6h-1.5v-9H247.5z"/>
				<path d="M266.5,213.7c-0.1-0.2-0.2-0.5-0.2-0.9c-0.7,0.7-1.6,1.1-2.6,1.1c-0.9,0-1.6-0.2-2.2-0.8c-0.6-0.5-0.9-1.1-0.9-1.9      c0-0.9,0.4-1.7,1.1-2.2c0.7-0.5,1.7-0.8,3-0.8h1.5v-0.7c0-0.5-0.2-1-0.5-1.3s-0.8-0.5-1.4-0.5c-0.5,0-1,0.1-1.4,0.4      c-0.4,0.3-0.6,0.6-0.6,1h-1.5c0-0.4,0.2-0.9,0.5-1.3c0.3-0.4,0.8-0.7,1.3-1c0.5-0.2,1.1-0.4,1.8-0.4c1,0,1.8,0.3,2.4,0.8      s0.9,1.2,0.9,2.1v4.1c0,0.8,0.1,1.5,0.3,2v0.1H266.5z M264,212.5c0.5,0,0.9-0.1,1.4-0.4s0.7-0.6,0.9-1v-1.8h-1.2      c-1.9,0-2.8,0.5-2.8,1.7c0,0.5,0.2,0.9,0.5,1.1S263.5,212.5,264,212.5z"/>
				<path d="M274.6,206.1c-0.2,0-0.5-0.1-0.8-0.1c-1,0-1.7,0.4-2.1,1.3v6.4h-1.5v-9h1.5l0,1c0.5-0.8,1.2-1.2,2.1-1.2      c0.3,0,0.5,0,0.7,0.1V206.1z"/>
				<path d="M279.1,211.4l2.1-6.7h1.6l-3.6,10.4c-0.6,1.5-1.4,2.2-2.7,2.2l-0.3,0l-0.6-0.1v-1.2l0.4,0c0.5,0,0.9-0.1,1.2-0.3      c0.3-0.2,0.5-0.6,0.7-1.2l0.3-0.9l-3.2-8.9h1.7L279.1,211.4z"/>
			</g>
			<g class="st5">
				<path d="M233.1,229.5c0-0.9,0.2-1.7,0.5-2.4c0.3-0.7,0.8-1.2,1.4-1.6c0.6-0.4,1.3-0.6,2.1-0.6c1.2,0,2.2,0.4,3,1.3      c0.8,0.8,1.1,2,1.1,3.4v0.1c0,0.9-0.2,1.7-0.5,2.4c-0.3,0.7-0.8,1.2-1.4,1.6c-0.6,0.4-1.3,0.6-2.1,0.6c-1.2,0-2.2-0.4-3-1.3      c-0.8-0.8-1.1-2-1.1-3.4V229.5z M234.6,229.7c0,1,0.2,1.8,0.7,2.4c0.5,0.6,1.1,0.9,1.9,0.9c0.8,0,1.4-0.3,1.9-0.9      s0.7-1.5,0.7-2.6c0-1-0.2-1.8-0.7-2.4c-0.5-0.6-1.1-0.9-1.9-0.9c-0.8,0-1.4,0.3-1.8,0.9C234.9,227.7,234.6,228.6,234.6,229.7z"/>
				<path d="M247.5,226.5c-0.2,0-0.5-0.1-0.8-0.1c-1,0-1.7,0.4-2.1,1.3v6.4h-1.5v-9h1.5l0,1c0.5-0.8,1.2-1.2,2.1-1.2      c0.3,0,0.5,0,0.7,0.1V226.5z"/>
				<path d="M248.9,222.7c0-0.2,0.1-0.5,0.2-0.6c0.2-0.2,0.4-0.3,0.7-0.3s0.5,0.1,0.7,0.3c0.2,0.2,0.2,0.4,0.2,0.6      c0,0.2-0.1,0.5-0.2,0.6s-0.4,0.2-0.7,0.2s-0.5-0.1-0.7-0.2C249,223.2,248.9,223,248.9,222.7z M250.6,234.1h-1.5v-9h1.5V234.1z"/>
				<path d="M252.7,229.5c0-1.4,0.3-2.5,1-3.3s1.5-1.2,2.6-1.2c1.1,0,2,0.4,2.6,1.2l0.1-1h1.4v8.8c0,1.2-0.3,2.1-1,2.7      c-0.7,0.7-1.6,1-2.8,1c-0.6,0-1.3-0.1-1.9-0.4s-1.1-0.7-1.4-1.1l0.8-0.9c0.7,0.8,1.5,1.2,2.4,1.2c0.7,0,1.3-0.2,1.7-0.6      c0.4-0.4,0.6-1,0.6-1.8v-0.8c-0.6,0.7-1.5,1.1-2.5,1.1c-1.1,0-1.9-0.4-2.6-1.3C253,232.1,252.7,231,252.7,229.5z M254.2,229.7      c0,1,0.2,1.8,0.6,2.4s1,0.9,1.7,0.9c1,0,1.7-0.4,2.1-1.3v-4.1c-0.5-0.9-1.2-1.3-2.1-1.3c-0.7,0-1.3,0.3-1.8,0.9      S254.2,228.6,254.2,229.7z"/>
				<path d="M262.6,222.7c0-0.2,0.1-0.5,0.2-0.6c0.2-0.2,0.4-0.3,0.7-0.3s0.5,0.1,0.7,0.3c0.2,0.2,0.2,0.4,0.2,0.6      c0,0.2-0.1,0.5-0.2,0.6s-0.4,0.2-0.7,0.2s-0.5-0.1-0.7-0.2C262.7,223.2,262.6,223,262.6,222.7z M264.3,234.1h-1.5v-9h1.5V234.1z      "/>
				<path d="M268.2,225.1l0,1.1c0.7-0.9,1.6-1.3,2.7-1.3c1.9,0,2.9,1.1,2.9,3.2v5.9h-1.5v-5.9c0-0.6-0.2-1.1-0.4-1.4      c-0.3-0.3-0.7-0.5-1.4-0.5c-0.5,0-0.9,0.1-1.3,0.4s-0.7,0.6-0.9,1v6.4h-1.5v-9H268.2z"/>
			</g>
			<g class="st5">
				<path d="M229.8,420.5h-5.1v5.3h-1.6v-12.1h7.5v1.3h-5.9v4.1h5.1V420.5z"/>
				<path d="M237.5,425.8c-0.1-0.2-0.2-0.5-0.2-0.9c-0.7,0.7-1.6,1.1-2.6,1.1c-0.9,0-1.6-0.2-2.2-0.8c-0.6-0.5-0.9-1.1-0.9-1.9      c0-0.9,0.4-1.7,1.1-2.2c0.7-0.5,1.7-0.8,3-0.8h1.5v-0.7c0-0.5-0.2-1-0.5-1.3s-0.8-0.5-1.4-0.5c-0.5,0-1,0.1-1.4,0.4      c-0.4,0.3-0.6,0.6-0.6,1h-1.5c0-0.4,0.2-0.9,0.5-1.3c0.3-0.4,0.8-0.7,1.3-1c0.5-0.2,1.1-0.4,1.8-0.4c1,0,1.8,0.3,2.4,0.8      s0.9,1.2,0.9,2.1v4.1c0,0.8,0.1,1.5,0.3,2v0.1H237.5z M235,424.7c0.5,0,0.9-0.1,1.4-0.4s0.7-0.6,0.9-1v-1.8h-1.2      c-1.9,0-2.8,0.5-2.8,1.7c0,0.5,0.2,0.9,0.5,1.1S234.5,424.7,235,424.7z"/>
				<path d="M241.2,414.5c0-0.2,0.1-0.5,0.2-0.6c0.2-0.2,0.4-0.3,0.7-0.3s0.5,0.1,0.7,0.3c0.2,0.2,0.2,0.4,0.2,0.6      c0,0.2-0.1,0.5-0.2,0.6s-0.4,0.2-0.7,0.2s-0.5-0.1-0.7-0.2C241.3,414.9,241.2,414.7,241.2,414.5z M242.9,425.8h-1.5v-9h1.5      V425.8z"/>
				<path d="M247,425.8h-1.5v-12.8h1.5V425.8z"/>
				<path d="M249.1,421.3c0-0.9,0.2-1.7,0.5-2.4c0.3-0.7,0.8-1.2,1.4-1.6c0.6-0.4,1.3-0.6,2.1-0.6c1.2,0,2.2,0.4,3,1.3      c0.8,0.8,1.1,2,1.1,3.4v0.1c0,0.9-0.2,1.7-0.5,2.4c-0.3,0.7-0.8,1.2-1.4,1.6c-0.6,0.4-1.3,0.6-2.1,0.6c-1.2,0-2.2-0.4-3-1.3      c-0.8-0.8-1.1-2-1.1-3.4V421.3z M250.6,421.4c0,1,0.2,1.8,0.7,2.4c0.5,0.6,1.1,0.9,1.9,0.9c0.8,0,1.4-0.3,1.9-0.9      s0.7-1.5,0.7-2.6c0-1-0.2-1.8-0.7-2.4c-0.5-0.6-1.1-0.9-1.9-0.9c-0.8,0-1.4,0.3-1.8,0.9C250.9,419.5,250.6,420.3,250.6,421.4z"/>
				<path d="M262,423.8l2.2-6.9h1.6l-3.2,9h-1.2l-3.3-9h1.6L262,423.8z"/>
				<path d="M270.9,426c-1.2,0-2.2-0.4-3-1.2s-1.1-1.9-1.1-3.2v-0.3c0-0.9,0.2-1.7,0.5-2.4c0.3-0.7,0.8-1.2,1.4-1.6      c0.6-0.4,1.3-0.6,2-0.6c1.2,0,2.1,0.4,2.7,1.2c0.6,0.8,1,1.9,1,3.3v0.6h-6.1c0,0.9,0.3,1.6,0.8,2.1c0.5,0.5,1.1,0.8,1.9,0.8      c0.5,0,1-0.1,1.4-0.3c0.4-0.2,0.7-0.5,1-0.9l0.9,0.7C273.5,425.4,272.4,426,270.9,426z M270.7,418c-0.6,0-1.1,0.2-1.6,0.7      s-0.7,1.1-0.8,1.9h4.5v-0.1c0-0.8-0.3-1.4-0.6-1.8S271.4,418,270.7,418z"/>
				<path d="M280.5,418.2c-0.2,0-0.5-0.1-0.8-0.1c-1,0-1.7,0.4-2.1,1.3v6.4h-1.5v-9h1.5l0,1c0.5-0.8,1.2-1.2,2.1-1.2      c0.3,0,0.5,0,0.7,0.1V418.2z"/>
			</g>
		</g>
		<g class="st5">
			<path d="M483.4,163.2v-12.1h4c1.3,0,2.3,0.3,3,0.8s1,1.3,1,2.4c0,0.6-0.2,1.1-0.5,1.5c-0.3,0.4-0.8,0.8-1.3,1     c0.7,0.2,1.2,0.5,1.5,1s0.6,1.1,0.6,1.8c0,1.1-0.4,1.9-1.1,2.6c-0.7,0.6-1.7,0.9-3,0.9H483.4z M485,156.3h2.4     c0.7,0,1.3-0.2,1.7-0.5c0.4-0.3,0.6-0.8,0.6-1.4c0-0.7-0.2-1.1-0.6-1.5c-0.4-0.3-1-0.5-1.8-0.5H485V156.3z M485,157.5v4.3h2.6     c0.7,0,1.3-0.2,1.8-0.6s0.6-0.9,0.6-1.6c0-1.5-0.8-2.2-2.4-2.2H485z"/>
			<path d="M499.3,162.3c-0.6,0.7-1.5,1.1-2.6,1.1c-1,0-1.7-0.3-2.2-0.8c-0.5-0.6-0.8-1.4-0.8-2.5v-5.8h1.5v5.8c0,1.4,0.6,2,1.7,2     c1.2,0,2-0.4,2.3-1.3v-6.5h1.5v9h-1.5L499.3,162.3z"/>
			<path d="M506.7,162.1c0.5,0,1-0.2,1.4-0.5c0.4-0.3,0.6-0.7,0.7-1.2h1.5c0,0.5-0.2,1-0.5,1.5c-0.3,0.5-0.8,0.8-1.3,1.1     c-0.5,0.3-1.1,0.4-1.7,0.4c-1.2,0-2.2-0.4-2.9-1.2c-0.7-0.8-1.1-1.9-1.1-3.3v-0.3c0-0.9,0.2-1.7,0.5-2.3c0.3-0.7,0.8-1.2,1.4-1.6     c0.6-0.4,1.3-0.6,2.1-0.6c1,0,1.8,0.3,2.5,0.9c0.7,0.6,1,1.4,1.1,2.3h-1.5c0-0.6-0.3-1.1-0.7-1.4c-0.4-0.4-0.9-0.6-1.5-0.6     c-0.8,0-1.4,0.3-1.8,0.8c-0.4,0.6-0.6,1.4-0.6,2.4v0.3c0,1,0.2,1.8,0.6,2.4C505.3,161.8,505.9,162.1,506.7,162.1z"/>
			<path d="M514.5,159l-1,1v3.2H512v-12.8h1.5v7.7l0.8-1l2.8-3h1.9l-3.5,3.8l3.9,5.2h-1.8L514.5,159z"/>
			<path d="M524.2,163.4c-1.2,0-2.2-0.4-3-1.2s-1.1-1.9-1.1-3.2v-0.3c0-0.9,0.2-1.7,0.5-2.4c0.3-0.7,0.8-1.2,1.4-1.6     c0.6-0.4,1.3-0.6,2-0.6c1.2,0,2.1,0.4,2.7,1.2c0.6,0.8,1,1.9,1,3.3v0.6h-6.1c0,0.9,0.3,1.6,0.8,2.1s1.1,0.8,1.9,0.8     c0.5,0,1-0.1,1.4-0.3c0.4-0.2,0.7-0.5,1-0.9l0.9,0.7C526.8,162.8,525.7,163.4,524.2,163.4z M524,155.3c-0.6,0-1.1,0.2-1.6,0.7     c-0.4,0.5-0.7,1.1-0.8,1.9h4.5v-0.1c0-0.8-0.3-1.4-0.6-1.8C525.2,155.5,524.7,155.3,524,155.3z"/>
			<path d="M531.6,152v2.2h1.7v1.2h-1.7v5.6c0,0.4,0.1,0.6,0.2,0.8s0.4,0.3,0.8,0.3c0.2,0,0.4,0,0.7-0.1v1.2     c-0.4,0.1-0.8,0.2-1.2,0.2c-0.7,0-1.2-0.2-1.6-0.6c-0.3-0.4-0.5-1-0.5-1.8v-5.6h-1.6v-1.2h1.6V152H531.6z"/>
			<path d="M539.3,151.8c0-0.2,0.1-0.5,0.2-0.6c0.2-0.2,0.4-0.3,0.7-0.3s0.5,0.1,0.7,0.3c0.2,0.2,0.2,0.4,0.2,0.6     c0,0.2-0.1,0.5-0.2,0.6c-0.2,0.2-0.4,0.2-0.7,0.2s-0.5-0.1-0.7-0.2S539.3,152.1,539.3,151.8z M540.9,163.2h-1.5v-9h1.5V163.2z"/>
			<path d="M544.8,154.2l0,1.1c0.7-0.9,1.6-1.3,2.7-1.3c1.9,0,2.9,1.1,2.9,3.2v5.9h-1.5v-5.9c0-0.6-0.2-1.1-0.4-1.4     c-0.3-0.3-0.7-0.5-1.4-0.5c-0.5,0-0.9,0.1-1.3,0.4c-0.4,0.3-0.7,0.6-0.9,1v6.4h-1.5v-9H544.8z"/>
			<path d="M566.5,157.5c0,1.2-0.2,2.2-0.6,3.1s-1,1.6-1.7,2s-1.6,0.7-2.6,0.7c-1,0-1.8-0.2-2.5-0.7c-0.7-0.5-1.3-1.1-1.7-2     c-0.4-0.9-0.6-1.9-0.6-3v-0.9c0-1.2,0.2-2.2,0.6-3.1c0.4-0.9,1-1.6,1.7-2c0.7-0.5,1.6-0.7,2.5-0.7c1,0,1.8,0.2,2.6,0.7     c0.7,0.5,1.3,1.1,1.7,2c0.4,0.9,0.6,1.9,0.6,3.1V157.5z M564.9,156.8c0-1.4-0.3-2.5-0.9-3.3c-0.6-0.8-1.4-1.2-2.4-1.2     c-1,0-1.8,0.4-2.4,1.2s-0.9,1.8-0.9,3.2v0.9c0,1.4,0.3,2.5,0.9,3.3s1.4,1.2,2.4,1.2c1,0,1.8-0.4,2.4-1.1s0.9-1.8,0.9-3.2V156.8z"/>
			<path d="M573.9,160.8c0-0.4-0.2-0.7-0.5-1c-0.3-0.2-0.9-0.4-1.6-0.6s-1.4-0.4-1.9-0.6c-0.5-0.2-0.8-0.5-1-0.8     c-0.2-0.3-0.3-0.7-0.3-1.1c0-0.7,0.3-1.4,0.9-1.9c0.6-0.5,1.4-0.8,2.4-0.8c1,0,1.8,0.3,2.5,0.8c0.6,0.5,1,1.2,1,2h-1.5     c0-0.4-0.2-0.8-0.5-1.1c-0.4-0.3-0.8-0.5-1.3-0.5c-0.6,0-1,0.1-1.3,0.4s-0.5,0.6-0.5,1c0,0.4,0.1,0.7,0.4,0.8     c0.3,0.2,0.8,0.4,1.6,0.5c0.8,0.2,1.4,0.4,1.9,0.6c0.5,0.2,0.8,0.5,1.1,0.9c0.2,0.3,0.3,0.7,0.3,1.2c0,0.8-0.3,1.4-1,1.9     c-0.6,0.5-1.5,0.7-2.5,0.7c-0.7,0-1.4-0.1-1.9-0.4c-0.6-0.3-1-0.6-1.3-1.1c-0.3-0.5-0.5-1-0.5-1.5h1.5c0,0.5,0.2,0.9,0.6,1.2     s0.9,0.5,1.5,0.5c0.6,0,1-0.1,1.4-0.4S573.9,161.2,573.9,160.8z"/>
			<path d="M583,163.2c-0.1-0.2-0.2-0.5-0.2-0.9c-0.7,0.7-1.6,1.1-2.6,1.1c-0.9,0-1.6-0.2-2.2-0.8c-0.6-0.5-0.9-1.1-0.9-1.9     c0-0.9,0.4-1.7,1.1-2.2c0.7-0.5,1.7-0.8,3-0.8h1.5V157c0-0.5-0.2-1-0.5-1.3c-0.3-0.3-0.8-0.5-1.4-0.5c-0.5,0-1,0.1-1.4,0.4     c-0.4,0.3-0.6,0.6-0.6,1h-1.5c0-0.4,0.2-0.9,0.5-1.3s0.8-0.7,1.3-1s1.1-0.4,1.8-0.4c1,0,1.8,0.3,2.4,0.8c0.6,0.5,0.9,1.2,0.9,2.1     v4.1c0,0.8,0.1,1.5,0.3,2v0.1H583z M580.4,162c0.5,0,0.9-0.1,1.4-0.4s0.7-0.6,0.9-1v-1.8h-1.2c-1.9,0-2.8,0.5-2.8,1.7     c0,0.5,0.2,0.9,0.5,1.1C579.5,161.9,579.9,162,580.4,162z"/>
			<path d="M589.2,159l-1,1v3.2h-1.5v-12.8h1.5v7.7l0.8-1l2.8-3h1.9l-3.5,3.8l3.9,5.2h-1.8L589.2,159z"/>
			<path d="M600.8,163.2c-0.1-0.2-0.2-0.5-0.2-0.9c-0.7,0.7-1.6,1.1-2.6,1.1c-0.9,0-1.6-0.2-2.2-0.8c-0.6-0.5-0.9-1.1-0.9-1.9     c0-0.9,0.4-1.7,1.1-2.2c0.7-0.5,1.7-0.8,3-0.8h1.5V157c0-0.5-0.2-1-0.5-1.3c-0.3-0.3-0.8-0.5-1.4-0.5c-0.5,0-1,0.1-1.4,0.4     c-0.4,0.3-0.6,0.6-0.6,1h-1.5c0-0.4,0.2-0.9,0.5-1.3s0.8-0.7,1.3-1s1.1-0.4,1.8-0.4c1,0,1.8,0.3,2.4,0.8c0.6,0.5,0.9,1.2,0.9,2.1     v4.1c0,0.8,0.1,1.5,0.3,2v0.1H600.8z M598.3,162c0.5,0,0.9-0.1,1.4-0.4s0.7-0.6,0.9-1v-1.8h-1.2c-1.9,0-2.8,0.5-2.8,1.7     c0,0.5,0.2,0.9,0.5,1.1C597.4,161.9,597.8,162,598.3,162z"/>
			<path d="M604.5,165.6l-0.9-0.6c0.5-0.7,0.8-1.5,0.8-2.2v-1.4h1.5v1.2c0,0.6-0.1,1.1-0.4,1.7C605.2,164.8,604.9,165.3,604.5,165.6     z"/>
			<path d="M617.4,151.1h1.6v8.6c0,1.2-0.3,2.1-1,2.7c-0.7,0.7-1.6,1-2.8,1c-1.2,0-2.1-0.3-2.8-0.9c-0.7-0.6-1-1.5-1-2.6h1.6     c0,0.7,0.2,1.2,0.6,1.6c0.4,0.4,0.9,0.6,1.6,0.6c0.7,0,1.2-0.2,1.6-0.6c0.4-0.4,0.6-1,0.6-1.7V151.1z"/>
			<path d="M627,163.2c-0.1-0.2-0.2-0.5-0.2-0.9c-0.7,0.7-1.6,1.1-2.6,1.1c-0.9,0-1.6-0.2-2.2-0.8s-0.9-1.1-0.9-1.9     c0-0.9,0.4-1.7,1.1-2.2s1.7-0.8,3-0.8h1.5V157c0-0.5-0.2-1-0.5-1.3c-0.3-0.3-0.8-0.5-1.4-0.5c-0.5,0-1,0.1-1.4,0.4     c-0.4,0.3-0.6,0.6-0.6,1h-1.5c0-0.4,0.2-0.9,0.5-1.3c0.3-0.4,0.8-0.7,1.3-1c0.5-0.2,1.1-0.4,1.8-0.4c1,0,1.8,0.3,2.4,0.8     c0.6,0.5,0.9,1.2,0.9,2.1v4.1c0,0.8,0.1,1.5,0.3,2v0.1H627z M624.4,162c0.5,0,0.9-0.1,1.4-0.4s0.7-0.6,0.9-1v-1.8h-1.2     c-1.9,0-2.8,0.5-2.8,1.7c0,0.5,0.2,0.9,0.5,1.1C623.5,161.9,623.9,162,624.4,162z"/>
			<path d="M638.3,158.8c0,1.4-0.3,2.5-0.9,3.3c-0.6,0.8-1.5,1.3-2.5,1.3c-1.1,0-1.9-0.3-2.6-1v4.3h-1.5v-12.4h1.4l0.1,1     c0.6-0.8,1.5-1.2,2.6-1.2c1.1,0,1.9,0.4,2.6,1.2c0.6,0.8,0.9,1.9,0.9,3.4V158.8z M636.8,158.6c0-1-0.2-1.8-0.6-2.4     c-0.4-0.6-1-0.9-1.8-0.9c-0.9,0-1.6,0.4-2.1,1.2v4.3c0.5,0.8,1.2,1.2,2.1,1.2c0.7,0,1.3-0.3,1.8-0.9     C636.5,160.7,636.8,159.8,636.8,158.6z"/>
			<path d="M645.8,163.2c-0.1-0.2-0.2-0.5-0.2-0.9c-0.7,0.7-1.6,1.1-2.6,1.1c-0.9,0-1.6-0.2-2.2-0.8c-0.6-0.5-0.9-1.1-0.9-1.9     c0-0.9,0.4-1.7,1.1-2.2c0.7-0.5,1.7-0.8,3-0.8h1.5V157c0-0.5-0.2-1-0.5-1.3c-0.3-0.3-0.8-0.5-1.4-0.5c-0.5,0-1,0.1-1.4,0.4     c-0.4,0.3-0.6,0.6-0.6,1h-1.5c0-0.4,0.2-0.9,0.5-1.3s0.8-0.7,1.3-1s1.1-0.4,1.8-0.4c1,0,1.8,0.3,2.4,0.8c0.6,0.5,0.9,1.2,0.9,2.1     v4.1c0,0.8,0.1,1.5,0.3,2v0.1H645.8z M643.2,162c0.5,0,0.9-0.1,1.4-0.4s0.7-0.6,0.9-1v-1.8h-1.2c-1.9,0-2.8,0.5-2.8,1.7     c0,0.5,0.2,0.9,0.5,1.1C642.3,161.9,642.7,162,643.2,162z"/>
			<path d="M650.9,154.2l0,1.1c0.7-0.9,1.6-1.3,2.7-1.3c1.9,0,2.9,1.1,2.9,3.2v5.9H655v-5.9c0-0.6-0.2-1.1-0.4-1.4     c-0.3-0.3-0.7-0.5-1.4-0.5c-0.5,0-0.9,0.1-1.3,0.4c-0.4,0.3-0.7,0.6-0.9,1v6.4h-1.5v-9H650.9z"/>
		</g>
		<g class="st5">
			<path d="M483.4,476.3v-12.1h4c1.3,0,2.3,0.3,3,0.8s1,1.3,1,2.4c0,0.6-0.2,1.1-0.5,1.5c-0.3,0.4-0.8,0.8-1.3,1     c0.7,0.2,1.2,0.5,1.5,1s0.6,1.1,0.6,1.8c0,1.1-0.4,1.9-1.1,2.6c-0.7,0.6-1.7,0.9-3,0.9H483.4z M485,469.4h2.4     c0.7,0,1.3-0.2,1.7-0.5s0.6-0.8,0.6-1.4c0-0.7-0.2-1.1-0.6-1.5c-0.4-0.3-1-0.5-1.8-0.5H485V469.4z M485,470.7v4.3h2.6     c0.7,0,1.3-0.2,1.8-0.6s0.6-0.9,0.6-1.6c0-1.5-0.8-2.2-2.4-2.2H485z"/>
			<path d="M499.3,475.4c-0.6,0.7-1.5,1.1-2.6,1.1c-1,0-1.7-0.3-2.2-0.8c-0.5-0.6-0.8-1.4-0.8-2.5v-5.8h1.5v5.8c0,1.4,0.6,2,1.7,2     c1.2,0,2-0.4,2.3-1.3v-6.5h1.5v9h-1.5L499.3,475.4z"/>
			<path d="M506.7,475.2c0.5,0,1-0.2,1.4-0.5c0.4-0.3,0.6-0.7,0.7-1.2h1.5c0,0.5-0.2,1-0.5,1.5s-0.8,0.8-1.3,1.1     c-0.5,0.3-1.1,0.4-1.7,0.4c-1.2,0-2.2-0.4-2.9-1.2c-0.7-0.8-1.1-1.9-1.1-3.3v-0.3c0-0.9,0.2-1.7,0.5-2.3c0.3-0.7,0.8-1.2,1.4-1.6     c0.6-0.4,1.3-0.6,2.1-0.6c1,0,1.8,0.3,2.5,0.9c0.7,0.6,1,1.4,1.1,2.3h-1.5c0-0.6-0.3-1.1-0.7-1.4c-0.4-0.4-0.9-0.6-1.5-0.6     c-0.8,0-1.4,0.3-1.8,0.8s-0.6,1.4-0.6,2.4v0.3c0,1,0.2,1.8,0.6,2.4S505.9,475.2,506.7,475.2z"/>
			<path d="M514.5,472.2l-1,1v3.2H512v-12.8h1.5v7.7l0.8-1l2.8-3h1.9l-3.5,3.8l3.9,5.2h-1.8L514.5,472.2z"/>
			<path d="M524.2,476.5c-1.2,0-2.2-0.4-3-1.2s-1.1-1.9-1.1-3.2v-0.3c0-0.9,0.2-1.7,0.5-2.4c0.3-0.7,0.8-1.2,1.4-1.6s1.3-0.6,2-0.6     c1.2,0,2.1,0.4,2.7,1.2c0.6,0.8,1,1.9,1,3.3v0.6h-6.1c0,0.9,0.3,1.6,0.8,2.1s1.1,0.8,1.9,0.8c0.5,0,1-0.1,1.4-0.3     c0.4-0.2,0.7-0.5,1-0.9l0.9,0.7C526.8,475.9,525.7,476.5,524.2,476.5z M524,468.4c-0.6,0-1.1,0.2-1.6,0.7s-0.7,1.1-0.8,1.9h4.5     v-0.1c0-0.8-0.3-1.4-0.6-1.8S524.7,468.4,524,468.4z"/>
			<path d="M531.6,465.2v2.2h1.7v1.2h-1.7v5.6c0,0.4,0.1,0.6,0.2,0.8c0.2,0.2,0.4,0.3,0.8,0.3c0.2,0,0.4,0,0.7-0.1v1.2     c-0.4,0.1-0.8,0.2-1.2,0.2c-0.7,0-1.2-0.2-1.6-0.6c-0.3-0.4-0.5-1-0.5-1.8v-5.6h-1.6v-1.2h1.6v-2.2H531.6z"/>
			<path d="M539.3,465c0-0.2,0.1-0.5,0.2-0.6c0.2-0.2,0.4-0.3,0.7-0.3s0.5,0.1,0.7,0.3c0.2,0.2,0.2,0.4,0.2,0.6     c0,0.2-0.1,0.5-0.2,0.6c-0.2,0.2-0.4,0.2-0.7,0.2s-0.5-0.1-0.7-0.2S539.3,465.2,539.3,465z M540.9,476.3h-1.5v-9h1.5V476.3z"/>
			<path d="M544.8,467.3l0,1.1c0.7-0.9,1.6-1.3,2.7-1.3c1.9,0,2.9,1.1,2.9,3.2v5.9h-1.5v-5.9c0-0.6-0.2-1.1-0.4-1.4     c-0.3-0.3-0.7-0.5-1.4-0.5c-0.5,0-0.9,0.1-1.3,0.4c-0.4,0.3-0.7,0.6-0.9,1v6.4h-1.5v-9H544.8z"/>
			<path d="M559.8,472.5l0.2,1.6l0.3-1.4l2.4-8.4h1.3l2.3,8.4l0.3,1.5l0.3-1.6l1.9-8.3h1.6l-2.9,12.1h-1.5l-2.5-8.8l-0.2-0.9     l-0.2,0.9l-2.6,8.8h-1.5l-2.9-12.1h1.6L559.8,472.5z"/>
			<path d="M577.3,476.3c-0.1-0.2-0.2-0.5-0.2-0.9c-0.7,0.7-1.6,1.1-2.6,1.1c-0.9,0-1.6-0.2-2.2-0.8c-0.6-0.5-0.9-1.1-0.9-1.9     c0-0.9,0.4-1.7,1.1-2.2c0.7-0.5,1.7-0.8,3-0.8h1.5v-0.7c0-0.5-0.2-1-0.5-1.3s-0.8-0.5-1.4-0.5c-0.5,0-1,0.1-1.4,0.4     c-0.4,0.3-0.6,0.6-0.6,1h-1.5c0-0.4,0.2-0.9,0.5-1.3c0.3-0.4,0.8-0.7,1.3-1c0.5-0.2,1.1-0.4,1.8-0.4c1,0,1.8,0.3,2.4,0.8     c0.6,0.5,0.9,1.2,0.9,2.1v4.1c0,0.8,0.1,1.5,0.3,2v0.1H577.3z M574.8,475.1c0.5,0,0.9-0.1,1.4-0.4s0.7-0.6,0.9-1V472h-1.2     c-1.9,0-2.8,0.5-2.8,1.7c0,0.5,0.2,0.9,0.5,1.1C573.9,475,574.3,475.1,574.8,475.1z"/>
			<path d="M586.2,473.9c0-0.4-0.2-0.7-0.5-1s-0.9-0.4-1.6-0.6s-1.4-0.4-1.9-0.6s-0.8-0.5-1-0.8c-0.2-0.3-0.3-0.7-0.3-1.1     c0-0.7,0.3-1.4,0.9-1.9s1.4-0.8,2.4-0.8c1,0,1.8,0.3,2.5,0.8c0.6,0.5,1,1.2,1,2h-1.5c0-0.4-0.2-0.8-0.5-1.1     c-0.4-0.3-0.8-0.5-1.3-0.5c-0.6,0-1,0.1-1.3,0.4c-0.3,0.2-0.5,0.6-0.5,1c0,0.4,0.1,0.7,0.4,0.8c0.3,0.2,0.8,0.4,1.6,0.5     c0.8,0.2,1.4,0.4,1.9,0.6c0.5,0.2,0.8,0.5,1.1,0.9c0.2,0.3,0.3,0.7,0.3,1.2c0,0.8-0.3,1.4-1,1.9s-1.5,0.7-2.5,0.7     c-0.7,0-1.4-0.1-1.9-0.4c-0.6-0.3-1-0.6-1.3-1.1c-0.3-0.5-0.5-1-0.5-1.5h1.5c0,0.5,0.2,0.9,0.6,1.2c0.4,0.3,0.9,0.5,1.5,0.5     c0.6,0,1-0.1,1.4-0.4C586.1,474.6,586.2,474.3,586.2,473.9z"/>
			<path d="M591.3,468.4c0.7-0.8,1.6-1.3,2.7-1.3c1.9,0,2.9,1.1,2.9,3.2v5.9h-1.5v-5.9c0-0.6-0.2-1.1-0.4-1.4     c-0.3-0.3-0.7-0.5-1.4-0.5c-0.5,0-0.9,0.1-1.3,0.4s-0.7,0.6-0.9,1v6.4h-1.5v-12.8h1.5V468.4z"/>
			<path d="M599.2,465c0-0.2,0.1-0.5,0.2-0.6c0.2-0.2,0.4-0.3,0.7-0.3s0.5,0.1,0.7,0.3c0.2,0.2,0.2,0.4,0.2,0.6     c0,0.2-0.1,0.5-0.2,0.6c-0.2,0.2-0.4,0.2-0.7,0.2s-0.5-0.1-0.7-0.2S599.2,465.2,599.2,465z M600.8,476.3h-1.5v-9h1.5V476.3z"/>
			<path d="M604.7,467.3l0,1.1c0.7-0.9,1.6-1.3,2.7-1.3c1.9,0,2.9,1.1,2.9,3.2v5.9h-1.5v-5.9c0-0.6-0.2-1.1-0.4-1.4     c-0.3-0.3-0.7-0.5-1.4-0.5c-0.5,0-0.9,0.1-1.3,0.4c-0.4,0.3-0.7,0.6-0.9,1v6.4h-1.5v-9H604.7z"/>
			<path d="M612.3,471.8c0-1.4,0.3-2.5,1-3.3c0.6-0.8,1.5-1.2,2.6-1.2c1.1,0,2,0.4,2.6,1.2l0.1-1h1.4v8.8c0,1.2-0.3,2.1-1,2.7     c-0.7,0.7-1.6,1-2.8,1c-0.6,0-1.3-0.1-1.9-0.4s-1.1-0.7-1.4-1.1l0.8-0.9c0.7,0.8,1.5,1.2,2.4,1.2c0.7,0,1.3-0.2,1.7-0.6     c0.4-0.4,0.6-1,0.6-1.8v-0.8c-0.6,0.7-1.5,1.1-2.5,1.1c-1.1,0-1.9-0.4-2.6-1.3C612.6,474.4,612.3,473.2,612.3,471.8z      M613.8,471.9c0,1,0.2,1.8,0.6,2.4c0.4,0.6,1,0.9,1.7,0.9c1,0,1.7-0.4,2.1-1.3v-4.1c-0.5-0.9-1.2-1.3-2.1-1.3     c-0.7,0-1.3,0.3-1.8,0.9S613.8,470.8,613.8,471.9z"/>
			<path d="M624.3,465.2v2.2h1.7v1.2h-1.7v5.6c0,0.4,0.1,0.6,0.2,0.8c0.2,0.2,0.4,0.3,0.8,0.3c0.2,0,0.4,0,0.7-0.1v1.2     c-0.4,0.1-0.8,0.2-1.2,0.2c-0.7,0-1.2-0.2-1.6-0.6c-0.3-0.4-0.5-1-0.5-1.8v-5.6h-1.6v-1.2h1.6v-2.2H624.3z"/>
			<path d="M627.2,471.7c0-0.9,0.2-1.7,0.5-2.4c0.3-0.7,0.8-1.2,1.4-1.6c0.6-0.4,1.3-0.6,2.1-0.6c1.2,0,2.2,0.4,3,1.3     c0.8,0.8,1.1,2,1.1,3.4v0.1c0,0.9-0.2,1.7-0.5,2.4c-0.3,0.7-0.8,1.2-1.4,1.6c-0.6,0.4-1.3,0.6-2.1,0.6c-1.2,0-2.2-0.4-3-1.3     c-0.8-0.8-1.1-2-1.1-3.4V471.7z M628.7,471.9c0,1,0.2,1.8,0.7,2.4c0.5,0.6,1.1,0.9,1.9,0.9c0.8,0,1.4-0.3,1.9-0.9     s0.7-1.5,0.7-2.6c0-1-0.2-1.8-0.7-2.4s-1.1-0.9-1.9-0.9c-0.8,0-1.4,0.3-1.8,0.9C628.9,469.9,628.7,470.8,628.7,471.9z"/>
			<path d="M638.7,467.3l0,1.1c0.7-0.9,1.6-1.3,2.7-1.3c1.9,0,2.9,1.1,2.9,3.2v5.9h-1.5v-5.9c0-0.6-0.2-1.1-0.4-1.4     c-0.3-0.3-0.7-0.5-1.4-0.5c-0.5,0-0.9,0.1-1.3,0.4c-0.4,0.3-0.7,0.6-0.9,1v6.4h-1.5v-9H638.7z"/>
			<path d="M651.1,476.3v-12.1h3.4c1.1,0,2,0.2,2.8,0.7c0.8,0.5,1.4,1.1,1.9,2c0.4,0.9,0.7,1.8,0.7,3v0.8c0,1.1-0.2,2.1-0.7,3     c-0.4,0.9-1.1,1.5-1.9,2c-0.8,0.5-1.8,0.7-2.9,0.7H651.1z M652.7,465.5v9.5h1.7c1.2,0,2.2-0.4,2.9-1.1c0.7-0.8,1-1.9,1-3.3v-0.7     c0-1.4-0.3-2.4-1-3.2s-1.6-1.1-2.7-1.2H652.7z"/>
			<path d="M661.2,475.5c0-0.3,0.1-0.5,0.2-0.7c0.2-0.2,0.4-0.3,0.7-0.3s0.6,0.1,0.7,0.3c0.2,0.2,0.2,0.4,0.2,0.7     c0,0.3-0.1,0.5-0.2,0.6s-0.4,0.3-0.7,0.3s-0.6-0.1-0.7-0.3C661.3,476,661.2,475.8,661.2,475.5z"/>
			<path d="M674.8,472.5c-0.1,1.3-0.6,2.3-1.4,3c-0.8,0.7-1.9,1-3.2,1c-1.4,0-2.6-0.5-3.4-1.5c-0.9-1-1.3-2.4-1.3-4.1v-1.2     c0-1.1,0.2-2.1,0.6-3c0.4-0.9,1-1.5,1.7-2c0.7-0.5,1.6-0.7,2.6-0.7c1.3,0,2.3,0.4,3.1,1.1s1.2,1.7,1.4,3h-1.6     c-0.1-1-0.4-1.7-0.9-2.1c-0.5-0.4-1.1-0.6-1.9-0.6c-1,0-1.8,0.4-2.4,1.1c-0.6,0.8-0.9,1.8-0.9,3.2v1.2c0,1.3,0.3,2.4,0.8,3.1     s1.3,1.2,2.3,1.2c0.9,0,1.6-0.2,2-0.6c0.5-0.4,0.8-1.1,0.9-2.1H674.8z"/>
			<path d="M676.7,475.5c0-0.3,0.1-0.5,0.2-0.7c0.2-0.2,0.4-0.3,0.7-0.3s0.6,0.1,0.7,0.3c0.2,0.2,0.2,0.4,0.2,0.7     c0,0.3-0.1,0.5-0.2,0.6s-0.4,0.3-0.7,0.3s-0.6-0.1-0.7-0.3C676.8,476,676.7,475.8,676.7,475.5z"/>
			<path d="M681.1,478.7l-0.9-0.6c0.5-0.7,0.8-1.5,0.8-2.2v-1.4h1.5v1.2c0,0.6-0.1,1.1-0.4,1.7S681.5,478.4,681.1,478.7z"/>
			<path d="M697.5,464.2v8.2c0,1.1-0.4,2.1-1.1,2.8c-0.7,0.7-1.7,1.1-2.9,1.2l-0.4,0c-1.3,0-2.4-0.4-3.2-1.1     c-0.8-0.7-1.2-1.7-1.2-2.9v-8.2h1.6v8.2c0,0.9,0.2,1.6,0.7,2c0.5,0.5,1.2,0.7,2.1,0.7c0.9,0,1.6-0.2,2.1-0.7s0.7-1.2,0.7-2v-8.2     H697.5z"/>
			<path d="M703.5,470.9c-1.4-0.4-2.4-0.9-3-1.4c-0.6-0.6-0.9-1.3-0.9-2.1c0-1,0.4-1.7,1.1-2.4c0.8-0.6,1.8-0.9,3-0.9     c0.8,0,1.6,0.2,2.2,0.5c0.7,0.3,1.2,0.8,1.5,1.3c0.4,0.6,0.5,1.2,0.5,1.9h-1.6c0-0.7-0.2-1.3-0.7-1.7c-0.5-0.4-1.1-0.6-2-0.6     c-0.8,0-1.4,0.2-1.8,0.5c-0.4,0.3-0.7,0.8-0.7,1.4c0,0.5,0.2,0.9,0.6,1.3c0.4,0.3,1.1,0.7,2.1,0.9c1,0.3,1.8,0.6,2.4,0.9     c0.6,0.3,1,0.7,1.3,1.2c0.3,0.5,0.4,1,0.4,1.6c0,1-0.4,1.8-1.1,2.4c-0.8,0.6-1.8,0.9-3.1,0.9c-0.8,0-1.6-0.2-2.3-0.5     c-0.7-0.3-1.3-0.8-1.7-1.3c-0.4-0.6-0.6-1.2-0.6-1.9h1.6c0,0.7,0.3,1.3,0.8,1.7c0.5,0.4,1.3,0.6,2.2,0.6c0.8,0,1.5-0.2,1.9-0.5     c0.4-0.3,0.7-0.8,0.7-1.4s-0.2-1-0.6-1.4C705.4,471.6,704.6,471.2,703.5,470.9z"/>
			<path d="M716.7,473.2h-5.1l-1.1,3.2h-1.6l4.6-12.1h1.4l4.6,12.1h-1.6L716.7,473.2z M712.2,471.9h4.1l-2.1-5.7L712.2,471.9z"/>
		</g>
		<g class="st5">
			<path d="M456.4,389.1c0,1.2-0.2,2.2-0.6,3.1s-1,1.6-1.7,2s-1.6,0.7-2.6,0.7c-1,0-1.8-0.2-2.5-0.7c-0.7-0.5-1.3-1.1-1.7-2     c-0.4-0.9-0.6-1.9-0.6-3v-0.9c0-1.2,0.2-2.2,0.6-3.1c0.4-0.9,1-1.6,1.7-2c0.7-0.5,1.6-0.7,2.5-0.7c1,0,1.8,0.2,2.6,0.7     c0.7,0.5,1.3,1.1,1.7,2c0.4,0.9,0.6,1.9,0.6,3.1V389.1z M454.9,388.3c0-1.4-0.3-2.5-0.9-3.3c-0.6-0.8-1.4-1.2-2.4-1.2     c-1,0-1.8,0.4-2.4,1.2c-0.6,0.8-0.9,1.8-0.9,3.2v0.9c0,1.4,0.3,2.5,0.9,3.3c0.6,0.8,1.4,1.2,2.4,1.2c1,0,1.8-0.4,2.4-1.1     s0.9-1.8,0.9-3.2V388.3z"/>
			<path d="M460,385.8l0,1.1c0.7-0.9,1.6-1.3,2.7-1.3c1.9,0,2.9,1.1,2.9,3.2v5.9h-1.5v-5.9c0-0.6-0.2-1.1-0.4-1.4     c-0.3-0.3-0.7-0.5-1.4-0.5c-0.5,0-0.9,0.1-1.3,0.4c-0.4,0.3-0.7,0.6-0.9,1v6.4h-1.5v-9H460z"/>
			<path d="M471.7,394.9c-1.2,0-2.2-0.4-3-1.2s-1.1-1.9-1.1-3.2v-0.3c0-0.9,0.2-1.7,0.5-2.4c0.3-0.7,0.8-1.2,1.4-1.6     c0.6-0.4,1.3-0.6,2-0.6c1.2,0,2.1,0.4,2.7,1.2c0.6,0.8,1,1.9,1,3.3v0.6h-6.1c0,0.9,0.3,1.6,0.8,2.1s1.1,0.8,1.9,0.8     c0.5,0,1-0.1,1.4-0.3c0.4-0.2,0.7-0.5,1-0.9l0.9,0.7C474.3,394.3,473.2,394.9,471.7,394.9z M471.5,386.9c-0.6,0-1.1,0.2-1.6,0.7     c-0.4,0.5-0.7,1.1-0.8,1.9h4.5v-0.1c0-0.8-0.3-1.4-0.6-1.8C472.7,387.1,472.1,386.9,471.5,386.9z"/>
			<path d="M480.2,390.2h-4.1V389h4.1V390.2z"/>
			<path d="M489.6,392.6l1.7-6.9h1.5l-2.6,9H489l-2.2-6.8l-2.1,6.8h-1.2l-2.6-9h1.5l1.8,6.7l2.1-6.7h1.2L489.6,392.6z"/>
			<path d="M500,394.8c-0.1-0.2-0.2-0.5-0.2-0.9c-0.7,0.7-1.6,1.1-2.6,1.1c-0.9,0-1.6-0.2-2.2-0.8c-0.6-0.5-0.9-1.1-0.9-1.9     c0-0.9,0.4-1.7,1.1-2.2c0.7-0.5,1.7-0.8,3-0.8h1.5v-0.7c0-0.5-0.2-1-0.5-1.3c-0.3-0.3-0.8-0.5-1.4-0.5c-0.5,0-1,0.1-1.4,0.4     c-0.4,0.3-0.6,0.6-0.6,1h-1.5c0-0.4,0.2-0.9,0.5-1.3s0.8-0.7,1.3-1s1.1-0.4,1.8-0.4c1,0,1.8,0.3,2.4,0.8c0.6,0.5,0.9,1.2,0.9,2.1     v4.1c0,0.8,0.1,1.5,0.3,2v0.1H500z M497.4,393.6c0.5,0,0.9-0.1,1.4-0.4s0.7-0.6,0.9-1v-1.8h-1.2c-1.9,0-2.8,0.5-2.8,1.7     c0,0.5,0.2,0.9,0.5,1.1C496.5,393.4,496.9,393.6,497.4,393.6z"/>
			<path d="M506.5,392.5l2.1-6.7h1.6l-3.6,10.4c-0.6,1.5-1.4,2.2-2.7,2.2l-0.3,0l-0.6-0.1V397l0.4,0c0.5,0,0.9-0.1,1.2-0.3     c0.3-0.2,0.5-0.6,0.7-1.2l0.3-0.9l-3.2-8.9h1.7L506.5,392.5z"/>
			<path d="M520.2,387.2c-0.2,0-0.5-0.1-0.8-0.1c-1,0-1.7,0.4-2,1.3v6.4h-1.5v-9h1.5l0,1c0.5-0.8,1.2-1.2,2.1-1.2     c0.3,0,0.5,0,0.7,0.1V387.2z"/>
			<path d="M525.1,394.9c-1.2,0-2.2-0.4-3-1.2s-1.1-1.9-1.1-3.2v-0.3c0-0.9,0.2-1.7,0.5-2.4c0.3-0.7,0.8-1.2,1.4-1.6     c0.6-0.4,1.3-0.6,2-0.6c1.2,0,2.1,0.4,2.7,1.2c0.6,0.8,1,1.9,1,3.3v0.6h-6.1c0,0.9,0.3,1.6,0.8,2.1s1.1,0.8,1.9,0.8     c0.5,0,1-0.1,1.4-0.3c0.4-0.2,0.7-0.5,1-0.9l0.9,0.7C527.8,394.3,526.6,394.9,525.1,394.9z M524.9,386.9c-0.6,0-1.1,0.2-1.6,0.7     c-0.4,0.5-0.7,1.1-0.8,1.9h4.5v-0.1c0-0.8-0.3-1.4-0.6-1.8C526.1,387.1,525.6,386.9,524.9,386.9z"/>
			<path d="M538,390.4c0,1.4-0.3,2.5-0.9,3.3c-0.6,0.8-1.5,1.3-2.5,1.3c-1.1,0-1.9-0.3-2.6-1v4.3h-1.5v-12.4h1.4l0.1,1     c0.6-0.8,1.5-1.2,2.6-1.2c1.1,0,1.9,0.4,2.6,1.2c0.6,0.8,0.9,1.9,0.9,3.4V390.4z M536.5,390.2c0-1-0.2-1.8-0.6-2.4     c-0.4-0.6-1-0.9-1.8-0.9c-0.9,0-1.6,0.4-2.1,1.2v4.3c0.5,0.8,1.2,1.2,2.1,1.2c0.7,0,1.3-0.3,1.8-0.9S536.5,391.3,536.5,390.2z"/>
			<path d="M541.6,394.8h-1.5V382h1.5V394.8z"/>
			<path d="M544.1,383.4c0-0.2,0.1-0.5,0.2-0.6c0.2-0.2,0.4-0.3,0.7-0.3s0.5,0.1,0.7,0.3c0.2,0.2,0.2,0.4,0.2,0.6     c0,0.2-0.1,0.5-0.2,0.6c-0.2,0.2-0.4,0.2-0.7,0.2s-0.5-0.1-0.7-0.2S544.1,383.6,544.1,383.4z M545.7,394.8h-1.5v-9h1.5V394.8z"/>
			<path d="M551.8,393.7c0.5,0,1-0.2,1.4-0.5c0.4-0.3,0.6-0.7,0.7-1.2h1.5c0,0.5-0.2,1-0.5,1.5c-0.3,0.5-0.8,0.8-1.3,1.1     c-0.5,0.3-1.1,0.4-1.7,0.4c-1.2,0-2.2-0.4-2.9-1.2c-0.7-0.8-1.1-1.9-1.1-3.3v-0.3c0-0.9,0.2-1.7,0.5-2.3c0.3-0.7,0.8-1.2,1.4-1.6     c0.6-0.4,1.3-0.6,2.1-0.6c1,0,1.8,0.3,2.5,0.9c0.7,0.6,1,1.4,1.1,2.3h-1.5c0-0.6-0.3-1.1-0.7-1.4c-0.4-0.4-0.9-0.6-1.5-0.6     c-0.8,0-1.4,0.3-1.8,0.8c-0.4,0.6-0.6,1.4-0.6,2.4v0.3c0,1,0.2,1.8,0.6,2.4C550.4,393.4,551,393.7,551.8,393.7z"/>
			<path d="M562.6,394.8c-0.1-0.2-0.2-0.5-0.2-0.9c-0.7,0.7-1.6,1.1-2.6,1.1c-0.9,0-1.6-0.2-2.2-0.8s-0.9-1.1-0.9-1.9     c0-0.9,0.4-1.7,1.1-2.2s1.7-0.8,3-0.8h1.5v-0.7c0-0.5-0.2-1-0.5-1.3c-0.3-0.3-0.8-0.5-1.4-0.5c-0.5,0-1,0.1-1.4,0.4     c-0.4,0.3-0.6,0.6-0.6,1H557c0-0.4,0.2-0.9,0.5-1.3c0.3-0.4,0.8-0.7,1.3-1c0.5-0.2,1.1-0.4,1.8-0.4c1,0,1.8,0.3,2.4,0.8     c0.6,0.5,0.9,1.2,0.9,2.1v4.1c0,0.8,0.1,1.5,0.3,2v0.1H562.6z M560.1,393.6c0.5,0,0.9-0.1,1.4-0.4s0.7-0.6,0.9-1v-1.8h-1.2     c-1.9,0-2.8,0.5-2.8,1.7c0,0.5,0.2,0.9,0.5,1.1C559.2,393.4,559.6,393.6,560.1,393.6z"/>
			<path d="M568.4,383.6v2.2h1.7v1.2h-1.7v5.6c0,0.4,0.1,0.6,0.2,0.8s0.4,0.3,0.8,0.3c0.2,0,0.4,0,0.7-0.1v1.2     c-0.4,0.1-0.8,0.2-1.2,0.2c-0.7,0-1.2-0.2-1.6-0.6c-0.3-0.4-0.5-1-0.5-1.8V387h-1.6v-1.2h1.6v-2.2H568.4z"/>
			<path d="M571.9,383.4c0-0.2,0.1-0.5,0.2-0.6c0.2-0.2,0.4-0.3,0.7-0.3s0.5,0.1,0.7,0.3c0.2,0.2,0.2,0.4,0.2,0.6     c0,0.2-0.1,0.5-0.2,0.6c-0.2,0.2-0.4,0.2-0.7,0.2s-0.5-0.1-0.7-0.2S571.9,383.6,571.9,383.4z M573.6,394.8H572v-9h1.5V394.8z"/>
			<path d="M575.6,390.2c0-0.9,0.2-1.7,0.5-2.4c0.3-0.7,0.8-1.2,1.4-1.6c0.6-0.4,1.3-0.6,2.1-0.6c1.2,0,2.2,0.4,3,1.3     c0.8,0.8,1.1,2,1.1,3.4v0.1c0,0.9-0.2,1.7-0.5,2.4s-0.8,1.2-1.4,1.6c-0.6,0.4-1.3,0.6-2.1,0.6c-1.2,0-2.2-0.4-3-1.3     c-0.8-0.8-1.1-2-1.1-3.4V390.2z M577.2,390.4c0,1,0.2,1.8,0.7,2.4c0.5,0.6,1.1,0.9,1.9,0.9c0.8,0,1.4-0.3,1.9-0.9     c0.5-0.6,0.7-1.5,0.7-2.6c0-1-0.2-1.8-0.7-2.4c-0.5-0.6-1.1-0.9-1.9-0.9c-0.8,0-1.4,0.3-1.8,0.9     C577.4,388.4,577.2,389.2,577.2,390.4z"/>
			<path d="M587.2,385.8l0,1.1c0.7-0.9,1.6-1.3,2.7-1.3c1.9,0,2.9,1.1,2.9,3.2v5.9h-1.5v-5.9c0-0.6-0.2-1.1-0.4-1.4     c-0.3-0.3-0.7-0.5-1.4-0.5c-0.5,0-0.9,0.1-1.3,0.4c-0.4,0.3-0.7,0.6-0.9,1v6.4h-1.5v-9H587.2z"/>
		</g>
		<g class="st5">
			<path d="M495.8,305.6H493v4.9h-1.6v-12.1h4c1.4,0,2.4,0.3,3.1,0.9c0.7,0.6,1.1,1.5,1.1,2.7c0,0.8-0.2,1.4-0.6,2     c-0.4,0.6-1,1-1.7,1.3l2.8,5.1v0.1h-1.7L495.8,305.6z M493,304.3h2.4c0.8,0,1.4-0.2,1.9-0.6c0.5-0.4,0.7-1,0.7-1.6     c0-0.7-0.2-1.3-0.7-1.7s-1.1-0.6-1.9-0.6H493V304.3z"/>
			<path d="M510.7,306.7c-0.1,1.3-0.6,2.3-1.4,3c-0.8,0.7-1.9,1-3.2,1c-1.4,0-2.6-0.5-3.4-1.5c-0.9-1-1.3-2.4-1.3-4.1v-1.2     c0-1.1,0.2-2.1,0.6-3c0.4-0.9,1-1.5,1.7-2c0.7-0.5,1.6-0.7,2.6-0.7c1.3,0,2.3,0.4,3.1,1.1s1.2,1.7,1.4,3h-1.6     c-0.1-1-0.4-1.7-0.9-2.1c-0.5-0.4-1.1-0.6-1.9-0.6c-1,0-1.8,0.4-2.4,1.1c-0.6,0.8-0.9,1.8-0.9,3.2v1.2c0,1.3,0.3,2.4,0.8,3.1     s1.3,1.2,2.3,1.2c0.9,0,1.6-0.2,2-0.6c0.5-0.4,0.8-1.1,0.9-2.1H510.7z"/>
			<path d="M514.3,310.5h-1.5v-12.8h1.5V310.5z"/>
			<path d="M516.4,305.9c0-0.9,0.2-1.7,0.5-2.4c0.3-0.7,0.8-1.2,1.4-1.6c0.6-0.4,1.3-0.6,2.1-0.6c1.2,0,2.2,0.4,3,1.3     c0.8,0.8,1.1,2,1.1,3.4v0.1c0,0.9-0.2,1.7-0.5,2.4c-0.3,0.7-0.8,1.2-1.4,1.6c-0.6,0.4-1.3,0.6-2.1,0.6c-1.2,0-2.2-0.4-3-1.3     c-0.8-0.8-1.1-2-1.1-3.4V305.9z M517.9,306.1c0,1,0.2,1.8,0.7,2.4c0.5,0.6,1.1,0.9,1.9,0.9c0.8,0,1.4-0.3,1.9-0.9     c0.5-0.6,0.7-1.5,0.7-2.6c0-1-0.2-1.8-0.7-2.4c-0.5-0.6-1.1-0.9-1.9-0.9c-0.8,0-1.4,0.3-1.8,0.9     C518.2,304.1,517.9,305,517.9,306.1z"/>
			<path d="M528,301.5l0,1.1c0.7-0.9,1.6-1.3,2.7-1.3c1.9,0,2.9,1.1,2.9,3.2v5.9H532v-5.9c0-0.6-0.2-1.1-0.4-1.4     c-0.3-0.3-0.7-0.5-1.4-0.5c-0.5,0-0.9,0.1-1.3,0.4s-0.7,0.6-0.9,1v6.4h-1.5v-9H528z"/>
			<path d="M539.6,310.7c-1.2,0-2.2-0.4-3-1.2s-1.1-1.9-1.1-3.2V306c0-0.9,0.2-1.7,0.5-2.4s0.8-1.2,1.4-1.6s1.3-0.6,2-0.6     c1.2,0,2.1,0.4,2.7,1.2c0.6,0.8,1,1.9,1,3.3v0.6H537c0,0.9,0.3,1.6,0.8,2.1c0.5,0.5,1.1,0.8,1.9,0.8c0.5,0,1-0.1,1.4-0.3     c0.4-0.2,0.7-0.5,1-0.9l0.9,0.7C542.2,310.1,541.1,310.7,539.6,310.7z M539.4,302.6c-0.6,0-1.1,0.2-1.6,0.7     c-0.4,0.5-0.7,1.1-0.8,1.9h4.5v-0.1c0-0.8-0.3-1.4-0.6-1.8C540.6,302.8,540.1,302.6,539.4,302.6z"/>
			<path d="M549.1,299.1c0-0.2,0.1-0.5,0.2-0.6c0.2-0.2,0.4-0.3,0.7-0.3s0.5,0.1,0.7,0.3c0.2,0.2,0.2,0.4,0.2,0.6     c0,0.2-0.1,0.5-0.2,0.6c-0.2,0.2-0.4,0.2-0.7,0.2s-0.5-0.1-0.7-0.2C549.2,299.6,549.1,299.4,549.1,299.1z M550.8,310.5h-1.5v-9     h1.5V310.5z"/>
			<path d="M554.7,301.5l0.1,1.1c0.7-0.9,1.6-1.3,2.7-1.3c1.9,0,2.9,1.1,2.9,3.2v5.9h-1.5v-5.9c0-0.6-0.2-1.1-0.4-1.4     c-0.3-0.3-0.7-0.5-1.4-0.5c-0.5,0-0.9,0.1-1.3,0.4c-0.4,0.3-0.7,0.6-0.9,1v6.4h-1.5v-9H554.7z"/>
			<path d="M572.4,310.5c-0.1-0.2-0.2-0.5-0.2-0.9c-0.7,0.7-1.6,1.1-2.6,1.1c-0.9,0-1.6-0.2-2.2-0.8c-0.6-0.5-0.9-1.1-0.9-1.9     c0-0.9,0.4-1.7,1.1-2.2s1.7-0.8,3-0.8h1.5v-0.7c0-0.5-0.2-1-0.5-1.3s-0.8-0.5-1.4-0.5c-0.5,0-1,0.1-1.4,0.4     c-0.4,0.3-0.6,0.6-0.6,1h-1.5c0-0.4,0.2-0.9,0.5-1.3s0.8-0.7,1.3-1s1.1-0.4,1.8-0.4c1,0,1.8,0.3,2.4,0.8c0.6,0.5,0.9,1.2,0.9,2.1     v4.1c0,0.8,0.1,1.5,0.3,2v0.1H572.4z M569.8,309.3c0.5,0,0.9-0.1,1.4-0.4s0.7-0.6,0.9-1v-1.8h-1.2c-1.9,0-2.8,0.5-2.8,1.7     c0,0.5,0.2,0.9,0.5,1.1C568.9,309.2,569.3,309.3,569.8,309.3z"/>
			<path d="M577.5,301.5l0,1.1c0.7-0.9,1.6-1.3,2.7-1.3c1.9,0,2.9,1.1,2.9,3.2v5.9h-1.5v-5.9c0-0.6-0.2-1.1-0.4-1.4     c-0.3-0.3-0.7-0.5-1.4-0.5c-0.5,0-0.9,0.1-1.3,0.4s-0.7,0.6-0.9,1v6.4h-1.5v-9H577.5z"/>
			<path d="M589.7,299.1c0-0.2,0.1-0.5,0.2-0.6c0.2-0.2,0.4-0.3,0.7-0.3s0.5,0.1,0.7,0.3c0.2,0.2,0.2,0.4,0.2,0.6     c0,0.2-0.1,0.5-0.2,0.6s-0.4,0.2-0.7,0.2s-0.5-0.1-0.7-0.2C589.7,299.6,589.7,299.4,589.7,299.1z M591.3,310.5h-1.5v-9h1.5V310.5     z"/>
			<path d="M595.2,301.5l0,1.1c0.7-0.9,1.6-1.3,2.7-1.3c1.9,0,2.9,1.1,2.9,3.2v5.9h-1.5v-5.9c0-0.6-0.2-1.1-0.4-1.4     c-0.3-0.3-0.7-0.5-1.4-0.5c-0.5,0-0.9,0.1-1.3,0.4s-0.7,0.6-0.9,1v6.4h-1.5v-9H595.2z"/>
			<path d="M608.4,308.1c0-0.4-0.2-0.7-0.5-1c-0.3-0.2-0.9-0.4-1.6-0.6c-0.8-0.2-1.4-0.4-1.8-0.6c-0.5-0.2-0.8-0.5-1-0.8     c-0.2-0.3-0.3-0.7-0.3-1.1c0-0.7,0.3-1.4,0.9-1.9c0.6-0.5,1.4-0.8,2.4-0.8c1,0,1.8,0.3,2.5,0.8c0.6,0.5,1,1.2,1,2h-1.5     c0-0.4-0.2-0.8-0.5-1.1c-0.4-0.3-0.8-0.5-1.3-0.5c-0.6,0-1,0.1-1.3,0.4c-0.3,0.2-0.5,0.6-0.5,1c0,0.4,0.1,0.7,0.4,0.8     c0.3,0.2,0.8,0.4,1.6,0.5c0.8,0.2,1.4,0.4,1.9,0.6c0.5,0.2,0.8,0.5,1.1,0.9c0.2,0.3,0.3,0.7,0.3,1.2c0,0.8-0.3,1.4-1,1.9     s-1.5,0.7-2.5,0.7c-0.7,0-1.4-0.1-1.9-0.4c-0.6-0.3-1-0.6-1.3-1.1c-0.3-0.5-0.5-1-0.5-1.5h1.5c0,0.5,0.2,0.9,0.6,1.2     s0.9,0.5,1.5,0.5c0.6,0,1-0.1,1.4-0.4S608.4,308.5,608.4,308.1z"/>
			<path d="M614,299.3v2.2h1.7v1.2H614v5.6c0,0.4,0.1,0.6,0.2,0.8c0.1,0.2,0.4,0.3,0.8,0.3c0.2,0,0.4,0,0.7-0.1v1.2     c-0.4,0.1-0.8,0.2-1.2,0.2c-0.7,0-1.2-0.2-1.6-0.6c-0.3-0.4-0.5-1-0.5-1.8v-5.6h-1.6v-1.2h1.6v-2.2H614z"/>
			<path d="M623,310.5c-0.1-0.2-0.2-0.5-0.2-0.9c-0.7,0.7-1.6,1.1-2.6,1.1c-0.9,0-1.6-0.2-2.2-0.8s-0.9-1.1-0.9-1.9     c0-0.9,0.4-1.7,1.1-2.2s1.7-0.8,3-0.8h1.5v-0.7c0-0.5-0.2-1-0.5-1.3c-0.3-0.3-0.8-0.5-1.4-0.5c-0.5,0-1,0.1-1.4,0.4     c-0.4,0.3-0.6,0.6-0.6,1h-1.5c0-0.4,0.2-0.9,0.5-1.3c0.3-0.4,0.8-0.7,1.3-1c0.5-0.2,1.1-0.4,1.8-0.4c1,0,1.8,0.3,2.4,0.8     s0.9,1.2,0.9,2.1v4.1c0,0.8,0.1,1.5,0.3,2v0.1H623z M620.5,309.3c0.5,0,0.9-0.1,1.4-0.4s0.7-0.6,0.9-1v-1.8h-1.2     c-1.9,0-2.8,0.5-2.8,1.7c0,0.5,0.2,0.9,0.5,1.1S620,309.3,620.5,309.3z"/>
			<path d="M628.2,301.5l0,1.1c0.7-0.9,1.6-1.3,2.7-1.3c1.9,0,2.9,1.1,2.9,3.2v5.9h-1.5v-5.9c0-0.6-0.2-1.1-0.4-1.4     c-0.3-0.3-0.7-0.5-1.4-0.5c-0.5,0-0.9,0.1-1.3,0.4c-0.4,0.3-0.7,0.6-0.9,1v6.4h-1.5v-9H628.2z"/>
			<path d="M639.7,309.4c0.5,0,1-0.2,1.4-0.5c0.4-0.3,0.6-0.7,0.7-1.2h1.5c0,0.5-0.2,1-0.5,1.5s-0.8,0.8-1.3,1.1s-1.1,0.4-1.7,0.4     c-1.2,0-2.2-0.4-2.9-1.2c-0.7-0.8-1.1-1.9-1.1-3.3v-0.3c0-0.9,0.2-1.7,0.5-2.3c0.3-0.7,0.8-1.2,1.4-1.6s1.3-0.6,2.1-0.6     c1,0,1.8,0.3,2.5,0.9c0.7,0.6,1,1.4,1.1,2.3h-1.5c0-0.6-0.3-1.1-0.7-1.4c-0.4-0.4-0.9-0.6-1.5-0.6c-0.8,0-1.4,0.3-1.8,0.8     c-0.4,0.6-0.6,1.4-0.6,2.4v0.3c0,1,0.2,1.8,0.6,2.4S638.9,309.4,639.7,309.4z"/>
			<path d="M648.7,310.7c-1.2,0-2.2-0.4-3-1.2s-1.1-1.9-1.1-3.2V306c0-0.9,0.2-1.7,0.5-2.4c0.3-0.7,0.8-1.2,1.4-1.6s1.3-0.6,2-0.6     c1.2,0,2.1,0.4,2.7,1.2c0.6,0.8,1,1.9,1,3.3v0.6h-6.1c0,0.9,0.3,1.6,0.8,2.1s1.1,0.8,1.9,0.8c0.5,0,1-0.1,1.4-0.3     c0.4-0.2,0.7-0.5,1-0.9l0.9,0.7C651.4,310.1,650.2,310.7,648.7,310.7z M648.5,302.6c-0.6,0-1.1,0.2-1.6,0.7s-0.7,1.1-0.8,1.9h4.5     v-0.1c0-0.8-0.3-1.4-0.6-1.8S649.2,302.6,648.5,302.6z"/>
		</g>
		<g class="st5">
			<path d="M512.8,319.5c0-0.2,0.1-0.5,0.2-0.6c0.2-0.2,0.4-0.3,0.7-0.3s0.5,0.1,0.7,0.3c0.2,0.2,0.2,0.4,0.2,0.6     c0,0.2-0.1,0.5-0.2,0.6c-0.2,0.2-0.4,0.2-0.7,0.2s-0.5-0.1-0.7-0.2C512.8,320,512.8,319.8,512.8,319.5z M514.4,330.9h-1.5v-9h1.5     V330.9z"/>
			<path d="M518.3,321.9l0,1.1c0.7-0.9,1.6-1.3,2.7-1.3c1.9,0,2.9,1.1,2.9,3.2v5.9h-1.5V325c0-0.6-0.2-1.1-0.4-1.4     c-0.3-0.3-0.7-0.5-1.4-0.5c-0.5,0-0.9,0.1-1.3,0.4c-0.4,0.3-0.7,0.6-0.9,1v6.4h-1.5v-9H518.3z"/>
			<path d="M540,325.2c0,1.2-0.2,2.2-0.6,3.1s-1,1.6-1.7,2s-1.6,0.7-2.6,0.7c-1,0-1.8-0.2-2.5-0.7c-0.7-0.5-1.3-1.1-1.7-2     c-0.4-0.9-0.6-1.9-0.6-3v-0.9c0-1.2,0.2-2.2,0.6-3.1c0.4-0.9,1-1.6,1.7-2c0.7-0.5,1.6-0.7,2.5-0.7c1,0,1.8,0.2,2.6,0.7     c0.7,0.5,1.3,1.1,1.7,2c0.4,0.9,0.6,1.9,0.6,3.1V325.2z M538.4,324.5c0-1.4-0.3-2.5-0.9-3.3c-0.6-0.8-1.4-1.2-2.4-1.2     c-1,0-1.8,0.4-2.4,1.2c-0.6,0.8-0.9,1.8-0.9,3.2v0.9c0,1.4,0.3,2.5,0.9,3.3c0.6,0.8,1.4,1.2,2.4,1.2c1,0,1.8-0.4,2.4-1.1     s0.9-1.8,0.9-3.2V324.5z"/>
			<path d="M547.4,328.5c0-0.4-0.2-0.7-0.5-1s-0.9-0.4-1.6-0.6c-0.8-0.2-1.4-0.4-1.9-0.6c-0.5-0.2-0.8-0.5-1-0.8     c-0.2-0.3-0.3-0.7-0.3-1.1c0-0.7,0.3-1.4,0.9-1.9c0.6-0.5,1.4-0.8,2.4-0.8c1,0,1.8,0.3,2.5,0.8c0.6,0.5,1,1.2,1,2h-1.5     c0-0.4-0.2-0.8-0.5-1.1c-0.4-0.3-0.8-0.5-1.3-0.5c-0.6,0-1,0.1-1.3,0.4s-0.5,0.6-0.5,1c0,0.4,0.1,0.7,0.4,0.8     c0.3,0.2,0.8,0.4,1.6,0.5c0.8,0.2,1.4,0.4,1.9,0.6c0.5,0.2,0.8,0.5,1.1,0.9s0.3,0.7,0.3,1.2c0,0.8-0.3,1.4-1,1.9     c-0.6,0.5-1.5,0.7-2.5,0.7c-0.7,0-1.4-0.1-1.9-0.4c-0.6-0.3-1-0.6-1.3-1.1c-0.3-0.5-0.5-1-0.5-1.5h1.5c0,0.5,0.2,0.9,0.6,1.2     c0.4,0.3,0.9,0.5,1.5,0.5c0.6,0,1-0.1,1.4-0.4C547.2,329.2,547.4,328.9,547.4,328.5z"/>
			<path d="M556.5,330.9c-0.1-0.2-0.2-0.5-0.2-0.9c-0.7,0.7-1.6,1.1-2.6,1.1c-0.9,0-1.6-0.2-2.2-0.8s-0.9-1.1-0.9-1.9     c0-0.9,0.4-1.7,1.1-2.2s1.7-0.8,3-0.8h1.5v-0.7c0-0.5-0.2-1-0.5-1.3c-0.3-0.3-0.8-0.5-1.4-0.5c-0.5,0-1,0.1-1.4,0.4     c-0.4,0.3-0.6,0.6-0.6,1h-1.5c0-0.4,0.2-0.9,0.5-1.3c0.3-0.4,0.8-0.7,1.3-1c0.5-0.2,1.1-0.4,1.8-0.4c1,0,1.8,0.3,2.4,0.8     c0.6,0.5,0.9,1.2,0.9,2.1v4.1c0,0.8,0.1,1.5,0.3,2v0.1H556.5z M553.9,329.7c0.5,0,0.9-0.1,1.4-0.4s0.7-0.6,0.9-1v-1.8H555     c-1.9,0-2.8,0.5-2.8,1.7c0,0.5,0.2,0.9,0.5,1.1C553,329.6,553.4,329.7,553.9,329.7z"/>
			<path d="M562.7,326.7l-1,1v3.2h-1.5v-12.8h1.5v7.7l0.8-1l2.8-3h1.9l-3.5,3.8l3.9,5.2h-1.8L562.7,326.7z"/>
			<path d="M574.3,330.9c-0.1-0.2-0.2-0.5-0.2-0.9c-0.7,0.7-1.6,1.1-2.6,1.1c-0.9,0-1.6-0.2-2.2-0.8s-0.9-1.1-0.9-1.9     c0-0.9,0.4-1.7,1.1-2.2s1.7-0.8,3-0.8h1.5v-0.7c0-0.5-0.2-1-0.5-1.3c-0.3-0.3-0.8-0.5-1.4-0.5c-0.5,0-1,0.1-1.4,0.4     c-0.4,0.3-0.6,0.6-0.6,1h-1.5c0-0.4,0.2-0.9,0.5-1.3c0.3-0.4,0.8-0.7,1.3-1c0.5-0.2,1.1-0.4,1.8-0.4c1,0,1.8,0.3,2.4,0.8     c0.6,0.5,0.9,1.2,0.9,2.1v4.1c0,0.8,0.1,1.5,0.3,2v0.1H574.3z M571.8,329.7c0.5,0,0.9-0.1,1.4-0.4s0.7-0.6,0.9-1v-1.8h-1.2     c-1.9,0-2.8,0.5-2.8,1.7c0,0.5,0.2,0.9,0.5,1.1C570.9,329.6,571.3,329.7,571.8,329.7z"/>
			<path d="M578,333.3l-0.9-0.6c0.5-0.7,0.8-1.5,0.8-2.2v-1.4h1.5v1.2c0,0.6-0.1,1.1-0.4,1.7C578.7,332.5,578.4,333,578,333.3z"/>
			<path d="M590.9,318.8h1.6v8.6c0,1.2-0.3,2.1-1,2.7s-1.6,1-2.8,1c-1.2,0-2.1-0.3-2.8-0.9c-0.7-0.6-1-1.5-1-2.6h1.6     c0,0.7,0.2,1.2,0.6,1.6c0.4,0.4,0.9,0.6,1.6,0.6c0.7,0,1.2-0.2,1.6-0.6c0.4-0.4,0.6-1,0.6-1.7V318.8z"/>
			<path d="M600.5,330.9c-0.1-0.2-0.2-0.5-0.2-0.9c-0.7,0.7-1.6,1.1-2.6,1.1c-0.9,0-1.6-0.2-2.2-0.8c-0.6-0.5-0.9-1.1-0.9-1.9     c0-0.9,0.4-1.7,1.1-2.2c0.7-0.5,1.7-0.8,3-0.8h1.5v-0.7c0-0.5-0.2-1-0.5-1.3c-0.3-0.3-0.8-0.5-1.4-0.5c-0.5,0-1,0.1-1.4,0.4     c-0.4,0.3-0.6,0.6-0.6,1h-1.5c0-0.4,0.2-0.9,0.5-1.3s0.8-0.7,1.3-1s1.1-0.4,1.8-0.4c1,0,1.8,0.3,2.4,0.8c0.6,0.5,0.9,1.2,0.9,2.1     v4.1c0,0.8,0.1,1.5,0.3,2v0.1H600.5z M597.9,329.7c0.5,0,0.9-0.1,1.4-0.4s0.7-0.6,0.9-1v-1.8H599c-1.9,0-2.8,0.5-2.8,1.7     c0,0.5,0.2,0.9,0.5,1.1C597,329.6,597.4,329.7,597.9,329.7z"/>
			<path d="M611.8,326.5c0,1.4-0.3,2.5-0.9,3.3c-0.6,0.8-1.5,1.3-2.5,1.3c-1.1,0-1.9-0.3-2.6-1v4.3h-1.5v-12.4h1.4l0.1,1     c0.6-0.8,1.5-1.2,2.6-1.2c1.1,0,1.9,0.4,2.6,1.2c0.6,0.8,0.9,1.9,0.9,3.4V326.5z M610.2,326.3c0-1-0.2-1.8-0.6-2.4     c-0.4-0.6-1-0.9-1.8-0.9c-0.9,0-1.6,0.4-2.1,1.2v4.3c0.5,0.8,1.2,1.2,2.1,1.2c0.7,0,1.3-0.3,1.8-0.9S610.2,327.5,610.2,326.3z"/>
			<path d="M619.3,330.9c-0.1-0.2-0.2-0.5-0.2-0.9c-0.7,0.7-1.6,1.1-2.6,1.1c-0.9,0-1.6-0.2-2.2-0.8s-0.9-1.1-0.9-1.9     c0-0.9,0.4-1.7,1.1-2.2s1.7-0.8,3-0.8h1.5v-0.7c0-0.5-0.2-1-0.5-1.3c-0.3-0.3-0.8-0.5-1.4-0.5c-0.5,0-1,0.1-1.4,0.4     c-0.4,0.3-0.6,0.6-0.6,1h-1.5c0-0.4,0.2-0.9,0.5-1.3c0.3-0.4,0.8-0.7,1.3-1c0.5-0.2,1.1-0.4,1.8-0.4c1,0,1.8,0.3,2.4,0.8     c0.6,0.5,0.9,1.2,0.9,2.1v4.1c0,0.8,0.1,1.5,0.3,2v0.1H619.3z M616.7,329.7c0.5,0,0.9-0.1,1.4-0.4s0.7-0.6,0.9-1v-1.8h-1.2     c-1.9,0-2.8,0.5-2.8,1.7c0,0.5,0.2,0.9,0.5,1.1C615.8,329.6,616.2,329.7,616.7,329.7z"/>
			<path d="M624.4,321.9l0,1.1c0.7-0.9,1.6-1.3,2.7-1.3c1.9,0,2.9,1.1,2.9,3.2v5.9h-1.5V325c0-0.6-0.2-1.1-0.4-1.4     c-0.3-0.3-0.7-0.5-1.4-0.5c-0.5,0-0.9,0.1-1.3,0.4c-0.4,0.3-0.7,0.6-0.9,1v6.4H623v-9H624.4z"/>
		</g>
		<g class="st5">
			<path d="M104.2,380.2h-5.1l-1.1,3.2h-1.6l4.6-12.1h1.4l4.6,12.1h-1.6L104.2,380.2z M99.6,378.9h4.1l-2.1-5.7L99.6,378.9z"/>
			<path d="M110.9,379.2l-1,1v3.2h-1.5v-12.8h1.5v7.7l0.8-1l2.8-3h1.9l-3.5,3.8l3.9,5.2H114L110.9,379.2z"/>
			<path d="M122.5,383.4c-0.1-0.2-0.2-0.5-0.2-0.9c-0.7,0.7-1.6,1.1-2.6,1.1c-0.9,0-1.6-0.2-2.2-0.8c-0.6-0.5-0.9-1.1-0.9-1.9     c0-0.9,0.4-1.7,1.1-2.2c0.7-0.5,1.7-0.8,3-0.8h1.5v-0.7c0-0.5-0.2-1-0.5-1.3s-0.8-0.5-1.4-0.5c-0.5,0-1,0.1-1.4,0.4     c-0.4,0.3-0.6,0.6-0.6,1h-1.5c0-0.4,0.2-0.9,0.5-1.3c0.3-0.4,0.8-0.7,1.3-1c0.5-0.2,1.1-0.4,1.8-0.4c1,0,1.8,0.3,2.4,0.8     s0.9,1.2,0.9,2.1v4.1c0,0.8,0.1,1.5,0.3,2v0.1H122.5z M120,382.2c0.5,0,0.9-0.1,1.4-0.4s0.7-0.6,0.9-1V379h-1.2     c-1.9,0-2.8,0.5-2.8,1.7c0,0.5,0.2,0.9,0.5,1.1S119.5,382.2,120,382.2z"/>
			<path d="M127.7,374.4l0,1c0.7-0.8,1.5-1.2,2.7-1.2c1.3,0,2.1,0.5,2.6,1.4c0.3-0.4,0.7-0.8,1.2-1c0.5-0.3,1-0.4,1.7-0.4     c2,0,3,1,3,3.1v6h-1.5v-5.9c0-0.6-0.1-1.1-0.4-1.4s-0.8-0.5-1.5-0.5c-0.6,0-1,0.2-1.4,0.5c-0.4,0.3-0.6,0.8-0.7,1.4v6h-1.5v-5.9     c0-1.3-0.6-2-1.9-2c-1,0-1.7,0.4-2.1,1.3v6.6h-1.5v-9H127.7z"/>
			<path d="M146.7,383.4c-0.1-0.2-0.2-0.5-0.2-0.9c-0.7,0.7-1.6,1.1-2.6,1.1c-0.9,0-1.6-0.2-2.2-0.8c-0.6-0.5-0.9-1.1-0.9-1.9     c0-0.9,0.4-1.7,1.1-2.2c0.7-0.5,1.7-0.8,3-0.8h1.5v-0.7c0-0.5-0.2-1-0.5-1.3s-0.8-0.5-1.4-0.5c-0.5,0-1,0.1-1.4,0.4     c-0.4,0.3-0.6,0.6-0.6,1H141c0-0.4,0.2-0.9,0.5-1.3c0.3-0.4,0.8-0.7,1.3-1c0.5-0.2,1.1-0.4,1.8-0.4c1,0,1.8,0.3,2.4,0.8     s0.9,1.2,0.9,2.1v4.1c0,0.8,0.1,1.5,0.3,2v0.1H146.7z M144.1,382.2c0.5,0,0.9-0.1,1.4-0.4s0.7-0.6,0.9-1V379h-1.2     c-1.9,0-2.8,0.5-2.8,1.7c0,0.5,0.2,0.9,0.5,1.1S143.6,382.2,144.1,382.2z"/>
			<path d="M150.4,372c0-0.2,0.1-0.5,0.2-0.6c0.2-0.2,0.4-0.3,0.7-0.3s0.5,0.1,0.7,0.3c0.2,0.2,0.2,0.4,0.2,0.6     c0,0.2-0.1,0.5-0.2,0.6s-0.4,0.2-0.7,0.2s-0.5-0.1-0.7-0.2C150.4,372.5,150.4,372.3,150.4,372z M152,383.4h-1.5v-9h1.5V383.4z"/>
			<path d="M167.8,379.5c-0.1,1.3-0.6,2.3-1.4,3c-0.8,0.7-1.9,1-3.2,1c-1.4,0-2.6-0.5-3.4-1.5c-0.9-1-1.3-2.4-1.3-4.1v-1.2     c0-1.1,0.2-2.1,0.6-3c0.4-0.9,1-1.5,1.7-2c0.7-0.5,1.6-0.7,2.6-0.7c1.3,0,2.3,0.4,3.1,1.1s1.2,1.7,1.4,3h-1.6     c-0.1-1-0.4-1.7-0.9-2.1c-0.5-0.4-1.1-0.6-1.9-0.6c-1,0-1.8,0.4-2.4,1.1c-0.6,0.8-0.9,1.8-0.9,3.2v1.2c0,1.3,0.3,2.4,0.8,3.1     s1.3,1.2,2.3,1.2c0.9,0,1.6-0.2,2-0.6c0.5-0.4,0.8-1.1,0.9-2.1H167.8z"/>
			<path d="M170,383.4v-12.1h3.4c1.1,0,2,0.2,2.8,0.7s1.4,1.1,1.9,2c0.4,0.9,0.7,1.8,0.7,3v0.8c0,1.1-0.2,2.1-0.7,3     c-0.4,0.9-1.1,1.5-1.9,2c-0.8,0.5-1.8,0.7-2.9,0.7H170z M171.6,372.6v9.5h1.7c1.2,0,2.2-0.4,2.9-1.1c0.7-0.8,1-1.9,1-3.3V377     c0-1.4-0.3-2.4-1-3.2c-0.6-0.8-1.6-1.1-2.7-1.2H171.6z"/>
			<path d="M190.4,383.4h-1.6l-6.1-9.3v9.3h-1.6v-12.1h1.6l6.1,9.4v-9.4h1.6V383.4z"/>
		</g>
		<g>
			<g>
				<g>
					<g>
						<path class="st6" d="M399.5,122h72v7h-72V122z"/>
						<path class="st0" d="M453.5,194.5h-36c-3.5,0-6.5-2.8-6.9-6.5l-6.6-54.4h63l-6.6,54.4C460,191.7,457.1,194.5,453.5,194.5        L453.5,194.5z M407.7,136.9l6.1,50.7c0.2,2,1.9,3.6,3.7,3.6h36c1.9,0,3.4-1.6,3.7-3.6l6.1-50.7H407.7L407.7,136.9z"/>
						<path class="st6" d="M446,184.1C445.9,184.1,445.9,184.1,446,184.1c-2.8,0-4.9-2.3-4.9-4.9c0-2.6,2.3-4.8,4.9-4.8        s4.8,2.3,4.8,4.9C450.9,182,448.7,184.1,446,184.1z"/>
					</g>
					<g>
						<path class="st6" d="M399.5,435.1h72v7h-72V435.1z"/>
						<path class="st0" d="M453.5,507.6h-36c-3.5,0-6.5-2.8-6.9-6.5l-6.6-54.4h63l-6.6,54.4C460,504.8,457.1,507.6,453.5,507.6        L453.5,507.6z M407.7,450l6.1,50.7c0.2,2,1.9,3.6,3.7,3.6h36c1.9,0,3.4-1.6,3.7-3.6l6.1-50.7H407.7L407.7,450z"/>
						<path class="st6" d="M446,497.2C445.9,497.2,445.9,497.2,446,497.2c-2.8,0-4.9-2.3-4.9-4.9s2.3-4.8,4.9-4.8s4.8,2.3,4.8,4.9        C450.9,495.2,448.7,497.2,446,497.2z"/>
					</g>
				</g>
				<g>
					<path class="st0" d="M435.5,352.9l-33-19.1v-38.1l33-19.1l33,19.1v38.1L435.5,352.9z M405.6,332.1l29.9,17.3l29.9-17.3v-34.5       l-29.9-17.3l-29.9,17.3V332.1z"/>
					<path class="st6" d="M414.4,326.9v-24.3l21.1-12.2l21.1,12.2V327l-21.1,12.2L414.4,326.9z"/>
				</g>
			</g>
			<g>
				<g>
					<g>
						<line class="st7" x1="435.5" y1="207.2" x2="435.5" y2="254.6"/>
						<g>
							<polygon class="st2" points="430.1,253 435.5,262.4 440.8,253        "/>
						</g>
					</g>
				</g>
				<g>
					<g>
						<line class="st7" x1="435.5" y1="367.2" x2="435.5" y2="414.6"/>
						<g>
							<polygon class="st2" points="430.1,413 435.5,422.4 440.8,413        "/>
						</g>
					</g>
				</g>
			</g>
		</g>
	</g>
	<g>
		<g>
			<path class="st8" d="M93.3,337.9c-12.7,0-23.1-10.4-23.1-23.1s10.4-23.1,23.1-23.1s23.1,10.4,23.1,23.1S106.1,337.9,93.3,337.9z"/>
			<path class="st9" d="M93.3,293.7c11.6,0,21.1,9.4,21.1,21.1s-9.4,21.1-21.1,21.1c-11.6,0-21.1-9.4-21.1-21.1     S81.7,293.7,93.3,293.7 M93.3,289.7c-13.8,0-25.1,11.3-25.1,25.1c0,13.8,11.3,25.1,25.1,25.1s25.1-11.3,25.1-25.1     S107.2,289.7,93.3,289.7L93.3,289.7z"/>
		</g>
		<g>
			<path class="st9" d="M96.5,324.4h-3.8v-14.7l-4.6,1.4V308l8-2.9h0.4V324.4z"/>
		</g>
	</g>
	<g>
		<g>
			<path class="st8" d="M470.4,148.6c-12.7,0-23.1-10.4-23.1-23.1s10.4-23.1,23.1-23.1s23.1,10.4,23.1,23.1S483.1,148.6,470.4,148.6     z"/>
			<path class="st9" d="M470.4,104.4c11.6,0,21.1,9.4,21.1,21.1s-9.4,21.1-21.1,21.1s-21.1-9.4-21.1-21.1S458.7,104.4,470.4,104.4      M470.4,100.4c-13.8,0-25.1,11.3-25.1,25.1s11.3,25.1,25.1,25.1s25.1-11.3,25.1-25.1S484.2,100.4,470.4,100.4L470.4,100.4z"/>
		</g>
		<g>
			<path class="st9" d="M477.2,135.2H464v-2.6l6.2-6.6c0.9-0.9,1.5-1.7,1.9-2.4c0.4-0.7,0.6-1.4,0.6-2c0-0.9-0.2-1.5-0.6-2     s-1-0.7-1.8-0.7c-0.9,0-1.5,0.3-2,0.9s-0.7,1.4-0.7,2.3h-3.8c0-1.2,0.3-2.2,0.8-3.2c0.6-1,1.3-1.7,2.4-2.3s2.2-0.8,3.5-0.8     c2,0,3.5,0.5,4.6,1.4c1.1,1,1.6,2.3,1.6,4c0,1-0.2,1.9-0.7,2.9s-1.3,2.1-2.5,3.4l-4.4,4.6h8.3v3.1L477.2,135.2L477.2,135.2z"/>
		</g>
	</g>
	<g>
		<g>
			<path class="st8" d="M470.4,461.7c-12.7,0-23.1-10.4-23.1-23.1s10.4-23.1,23.1-23.1s23.1,10.4,23.1,23.1S483.1,461.7,470.4,461.7     z"/>
			<path class="st9" d="M470.4,417.5c11.6,0,21.1,9.4,21.1,21.1s-9.4,21.1-21.1,21.1s-21.1-9.4-21.1-21.1S458.7,417.5,470.4,417.5      M470.4,413.5c-13.8,0-25.1,11.3-25.1,25.1c0,13.8,11.3,25.1,25.1,25.1s25.1-11.3,25.1-25.1S484.2,413.5,470.4,413.5L470.4,413.5     z"/>
		</g>
		<g>
			<path class="st9" d="M468.1,436.9h2c1,0,1.7-0.2,2.2-0.7s0.7-1.1,0.7-1.9s-0.2-1.4-0.7-1.8s-1.1-0.6-1.9-0.6     c-0.7,0-1.3,0.2-1.8,0.6s-0.7,0.9-0.7,1.6h-3.8c0-1,0.3-1.9,0.8-2.7s1.3-1.4,2.3-1.9c1-0.4,2-0.7,3.2-0.7c2,0,3.6,0.5,4.8,1.5     c1.2,1,1.7,2.3,1.7,4c0,0.9-0.3,1.7-0.8,2.4c-0.5,0.7-1.2,1.3-2.1,1.7c1.1,0.4,1.9,1,2.4,1.7c0.5,0.8,0.8,1.7,0.8,2.7     c0,1.7-0.6,3.1-1.9,4.1c-1.2,1-2.9,1.5-4.9,1.5c-1.9,0-3.5-0.5-4.7-1.5s-1.8-2.4-1.8-4h3.8c0,0.7,0.3,1.3,0.8,1.8s1.2,0.7,2,0.7     c0.9,0,1.6-0.2,2.1-0.7s0.8-1.1,0.8-1.9c0-1.9-1.1-2.9-3.2-2.9h-2L468.1,436.9L468.1,436.9z"/>
		</g>
	</g>
	<g>
		<g>
			<path class="st8" d="M470.4,301.6c-12.7,0-23.1-10.4-23.1-23.1s10.4-23.1,23.1-23.1s23.1,10.4,23.1,23.1S483.1,301.6,470.4,301.6     z"/>
			<path class="st9" d="M470.4,257.5c11.6,0,21.1,9.4,21.1,21.1s-9.4,21.1-21.1,21.1s-21.1-9.4-21.1-21.1S458.7,257.5,470.4,257.5      M470.4,253.5c-13.8,0-25.1,11.3-25.1,25.1c0,13.8,11.3,25.1,25.1,25.1s25.1-11.3,25.1-25.1C495.5,264.7,484.2,253.5,470.4,253.5     L470.4,253.5z"/>
		</g>
		<g>
			<path class="st9" d="M474.2,280.9h2.2v3.1h-2.2v4.2h-3.8V284h-7.9l-0.2-2.4l8-12.7h3.9V280.9z M466.2,280.9h4.3v-6.8l-0.3,0.4     L466.2,280.9z"/>
		</g>
	</g>
	<g>
		<g>
			<path class="st8" d="M253.6,389.3c-12.7,0-23.1-10.4-23.1-23.1s10.4-23.1,23.1-23.1s23.1,10.4,23.1,23.1S266.3,389.3,253.6,389.3     z"/>
			<path class="st9" d="M253.6,345.1c11.6,0,21.1,9.4,21.1,21.1s-9.4,21.1-21.1,21.1c-11.6,0-21.1-9.4-21.1-21.1     S241.9,345.1,253.6,345.1 M253.6,341.1c-13.8,0-25.1,11.3-25.1,25.1c0,13.8,11.3,25.1,25.1,25.1c13.8,0,25.1-11.3,25.1-25.1     S267.4,341.1,253.6,341.1L253.6,341.1z"/>
		</g>
		<g>
			<path class="st9" d="M247.6,366.2l1.1-9.8h10.8v3.2h-7.6l-0.5,4.1c0.9-0.5,1.9-0.7,2.9-0.7c1.8,0,3.3,0.6,4.3,1.7     s1.6,2.7,1.6,4.8c0,1.2-0.3,2.4-0.8,3.3c-0.5,1-1.3,1.7-2.3,2.3c-1,0.5-2.1,0.8-3.5,0.8c-1.2,0-2.2-0.2-3.2-0.7s-1.8-1.1-2.4-2     c-0.6-0.9-0.9-1.8-0.9-2.9h3.8c0.1,0.8,0.4,1.4,0.8,1.9c0.5,0.4,1.1,0.7,1.9,0.7c0.9,0,1.5-0.3,2-0.9c0.5-0.6,0.7-1.5,0.7-2.6     s-0.3-1.9-0.8-2.5c-0.5-0.6-1.3-0.9-2.3-0.9c-0.9,0-1.6,0.2-2.2,0.7l-0.4,0.3L247.6,366.2z"/>
		</g>
	</g>
</g>
</svg>