<svg viewBox="0 0 200 200" xmlns="http://www.w3.org/2000/svg"><path d="m72.44 150.72a50.72 50.72 0 1 1 0-101.44h55.13a50.72 50.72 0 1 1 0 101.44zm1.22-78.13a27.41 27.41 0 1 0 0 54.82h52.69a27.41 27.41 0 1 0 0-54.82z" fill="currentColor"/><path d="m127.57 52.57a47.43 47.43 0 1 1 0 94.86h-55.13a47.43 47.43 0 1 1 0-94.86zm-53.91 78.13h52.69a30.7 30.7 0 1 0 0-61.4h-52.69a30.7 30.7 0 1 0 0 61.4m53.91-84.7h-55.13a54 54 0 1 0 0 108h55.13a54 54 0 1 0 0-108zm-53.91 78.12a24.12 24.12 0 1 1 0-48.24h52.69a24.12 24.12 0 1 1 0 48.24z" fill="#32363b"/></svg>