<?xml version="1.0" encoding="utf-8"?>
<!-- Generator: Adobe Illustrator 23.0.4, SVG Export Plug-In . SVG Version: 6.00 Build 0)  -->
<svg version="1.1" id="Layer_1" xmlns="http://www.w3.org/2000/svg" xmlns:xlink="http://www.w3.org/1999/xlink" x="0px" y="0px"
	 viewBox="0 0 120 100" style="enable-background:new 0 0 120 100;" xml:space="preserve">
<style type="text/css">
	.st0-d4e5fb34f7a7ebf4b5745ada77ece4f5{fill:#010101;}
	.st1-d4e5fb34f7a7ebf4b5745ada77ece4f5{fill:currentColor;}
</style>
<title>automaticBackups</title>
<g>
	<g id="Layer_1-2">
		<path class="st0-d4e5fb34f7a7ebf4b5745ada77ece4f5" d="M101.5,90L101.5,90H23.3C11.2,89.3,2,79,2.6,66.9c0.1-2.7,0.8-5.3,1.9-7.8c8.7,20.1,32,29.4,52.1,20.7
			c12.6-5.4,21.5-17,23.5-30.6h0.3c6.3,0,11.4-5.1,11.4-11.4c0-3-1.2-5.9-3.3-8.1L78.4,19.7c0.6,0.1,1.3,0.2,1.9,0.4
			c15.4,3.8,24.8,19.3,21,34.7c0,0,0,0,0,0c9.7,0.9,16.9,9.4,16,19.2C116.6,82.4,110,89.1,101.5,90z"/>
		<path class="st0-d4e5fb34f7a7ebf4b5745ada77ece4f5" d="M40.9,60.3c7.1,0,13.4-4.4,15.8-11.1c-2.6-0.3-5.1-1.4-6.9-3.3c-2.8-2.8-4-6.9-3-10.8
			c-6-4.8-14.7-3.8-19.5,2.2c-1.8,2.3-2.9,5.1-3,8C25.1,53.8,32.3,60.3,40.9,60.3z"/>
		<path class="st1-d4e5fb34f7a7ebf4b5745ada77ece4f5" d="M84.1,34.1L72.9,22.8c-2.1-2.1-5.4-2.1-7.5,0c0,0,0,0,0,0L54.1,34.1c-2.1,2.1-2.1,5.4,0,7.5
			c2.1,2.1,5.4,2.1,7.5,0l2.3-2.3v4.2c0,12.7-10.2,23-22.9,23c-11.3,0-20.9-8.2-22.7-19.3C18.1,46,18,44.7,18,43.5
			c0-12.7,10.3-23,22.9-23c2.9,0,5.3-2.4,5.3-5.3c0-2.9-2.4-5.3-5.3-5.3C22.4,10,7.4,25,7.4,43.5S22.4,77,40.9,77
			c18.5,0,33.5-15,33.5-33.5c0,0,0,0,0,0v-4.2l2.3,2.3c2.1,2.1,5.4,2.1,7.5,0C86.2,39.5,86.2,36.1,84.1,34.1L84.1,34.1L84.1,34.1z"
			/>
	</g>
</g>
</svg>
