<svg viewBox="0 0 200 200" xmlns="http://www.w3.org/2000/svg"><path d="m145.91 90.91a19.83 19.83 0 0 0 -5.84 14.14 15.22 15.22 0 0 1 -12.07 14.87l-.77.12c-.41.06-.77.12-1.15.15s-.8.06-1.18.06a20.13 20.13 0 0 0 -5.82.85 19.74 19.74 0 0 0 -8.29 5 13.22 13.22 0 0 1 -1.27 1.12c-.15.12-.3.21-.44.33-.3.23-.62.44-1 .65-.15.09-.32.2-.5.29-.35.21-.71.39-1.06.56a2.74 2.74 0 0 0 -.42.21 12.56 12.56 0 0 1 -1.35.53l-.3.12-.18.06a15.46 15.46 0 0 1 -8.53 0l-.23-.06-.24-.09c-.47-.15-.94-.35-1.41-.53l-.39-.18a10.36 10.36 0 0 1 -1.09-.59l-.44-.26c-.36-.21-.68-.45-1-.68a4.5 4.5 0 0 1 -.38-.3c-.44-.35-.86-.74-1.27-1.12a19.93 19.93 0 0 0 -8.29-5 20.13 20.13 0 0 0 -5.82-.85c-.41 0-.8 0-1.18-.06s-.74-.09-1.15-.15l-.77-.12a15.22 15.22 0 0 1 -12.08-14.87 19.83 19.83 0 0 0 -5.85-14.11 15.17 15.17 0 0 1 0-21.49 19.84 19.84 0 0 0 5.85-14.17 15.19 15.19 0 0 1 15.16-15.17 19.84 19.84 0 0 0 14.14-5.84 15.25 15.25 0 0 1 21.49 0 19.83 19.83 0 0 0 14.14 5.84 15.19 15.19 0 0 1 15.17 15.17 19.84 19.84 0 0 0 5.84 14.14 15.16 15.16 0 0 1 -.03 21.43z" fill="currentColor"/><path d="m149.31 66a15.08 15.08 0 0 1 -4.46-10.75 20 20 0 0 0 -20-20 15.13 15.13 0 0 1 -10.75-4.46 20 20 0 0 0 -28.24 0 15.08 15.08 0 0 1 -10.73 4.51 20 20 0 0 0 -20 20 15 15 0 0 1 -4.44 10.7 20 20 0 0 0 0 28.27 15.08 15.08 0 0 1 4.46 10.75 20 20 0 0 0 14.32 19.18l-11.6 43.33 17.5-9.74 10.27 17.21 10.71-40a20.81 20.81 0 0 0 7.27 0l10.74 40 10.27-17.21 17.5 9.74-11.6-43.33a20 20 0 0 0 14.32-19.2 15.13 15.13 0 0 1 4.46-10.75 20 20 0 0 0 0-28.25zm-3.4 24.88a19.83 19.83 0 0 0 -5.84 14.14 15.22 15.22 0 0 1 -12.07 14.9l-.77.12c-.41.06-.77.12-1.15.15s-.8.06-1.18.06a20.13 20.13 0 0 0 -5.82.85 19.74 19.74 0 0 0 -8.29 5 13.22 13.22 0 0 1 -1.27 1.12c-.15.12-.3.21-.44.33-.3.23-.62.44-1 .65-.15.09-.32.2-.5.29-.35.21-.71.39-1.06.56a2.74 2.74 0 0 0 -.42.21 12.56 12.56 0 0 1 -1.35.53l-.3.12-.18.06a15.46 15.46 0 0 1 -8.53 0l-.23-.06-.24-.09c-.47-.15-.94-.35-1.41-.53l-.39-.18a10.36 10.36 0 0 1 -1.09-.59l-.44-.26c-.36-.21-.68-.45-1-.68a4.5 4.5 0 0 1 -.38-.3c-.44-.35-.86-.74-1.27-1.12a19.93 19.93 0 0 0 -8.29-5 20.13 20.13 0 0 0 -5.82-.85c-.41 0-.8 0-1.18-.06s-.74-.09-1.15-.15l-.77-.12a15.22 15.22 0 0 1 -12.08-14.87 19.83 19.83 0 0 0 -5.85-14.11 15.17 15.17 0 0 1 0-21.49 19.84 19.84 0 0 0 5.85-14.17 15.19 15.19 0 0 1 15.16-15.17 19.84 19.84 0 0 0 14.14-5.84 15.25 15.25 0 0 1 21.49 0 19.83 19.83 0 0 0 14.14 5.84 15.19 15.19 0 0 1 15.17 15.17 19.84 19.84 0 0 0 5.84 14.14 15.16 15.16 0 0 1 -.03 21.43z" fill="#32363b"/><path d="m100 44.21a36 36 0 1 0 36 36 36 36 0 0 0 -36-36zm0 67.12a31.17 31.17 0 1 1 31.17-31.16 31.21 31.21 0 0 1 -31.17 31.16z" fill="#32363b"/><path d="m100 55.64-5.33 16.47h-17.32l14 10.18-5.35 16.47 14-10.18 14 10.18-5.37-16.47 14-10.18h-17.24z" fill="#fff"/></svg>