<svg viewBox="0 0 200 200" xmlns="http://www.w3.org/2000/svg"><path d="m71.28 39.69a2.19 2.19 0 1 0 -2.19-2.19 2.19 2.19 0 0 0 2.19 2.19z" fill="#32363b"/><path d="m101.88 115.8a13.81 13.81 0 1 1 13.8-13.8 13.81 13.81 0 0 1 -13.8 13.8z" fill="currentColor"/><path d="m101.88 90.06a11.94 11.94 0 1 1 -11.88 11.94 11.94 11.94 0 0 1 11.93-11.94m0-3.74a15.68 15.68 0 1 0 15.62 15.68 15.69 15.69 0 0 0 -15.67-15.68z" fill="#32363b"/><path d="m71.49 171a15.63 15.63 0 0 1 -8-2c-9-5.17-11.81-20.15-7.64-40.28-19.52-6.42-31.13-16.31-31.13-26.72s11.56-20.25 31-26.65c-4.21-20.06-1.43-35 7.55-40.19a15.85 15.85 0 0 1 8-2c8.57 0 19.36 5.49 30.54 15.49 11.19-10.12 22.03-15.65 30.58-15.65a15.57 15.57 0 0 1 7.93 2c9 5.17 11.81 20.15 7.63 40.28 19.55 6.41 31.15 16.31 31.15 26.72s-11.53 20.26-31 26.64c4.21 20.06 1.43 35-7.56 40.19a15.81 15.81 0 0 1 -8 2c-8.58 0-19.37-5.49-30.54-15.49-11.15 10.09-21.95 15.66-30.51 15.66zm-4.83-39.29c-.48 2.42-.83 4.59-1.07 6.6-1.47 12.21.77 19.44 3.47 21a5.32 5.32 0 0 0 2.42.54c5.49 0 13.82-4.56 22.51-12.28a154.19 154.19 0 0 1 -10.79-13.14 153.71 153.71 0 0 1 -16.54-2.76zm43.34 15.74c8.69 7.67 17 12.19 22.57 12.19a4.8 4.8 0 0 0 2.39-.48c2.71-1.59 4.92-8.83 3.42-21-.24-2-.6-4.16-1.08-6.52a148.13 148.13 0 0 1 -16.59 2.79 146.06 146.06 0 0 1 -10.71 13.02zm-11.79-12.07q1.88 2.22 3.76 4.25c1.26-1.38 2.51-2.8 3.71-4.24-1.22 0-2.48 0-3.8 0-1.16.04-2.37.03-3.67-.01zm-8.85-11.61c4.33.33 8.55.5 12.55.5s8.36-.18 12.61-.52c2.2-3.2 4.39-6.71 6.69-10.68 2-3.5 4-7.24 5.8-11.1-1.84-3.85-3.8-7.57-5.83-11.08-2.15-3.68-4.4-7.25-6.72-10.61-4.33-.33-8.54-.5-12.55-.5s-8.36.18-12.61.52c-2.2 3.21-4.39 6.7-6.68 10.7-2.15 3.76-4.1 7.49-5.81 11.1 1.83 3.83 3.79 7.56 5.84 11.08 2.14 3.66 4.4 7.23 6.71 10.59zm43.3-8.28c-.6 1.11-1.18 2.15-1.76 3.16s-1.27 2.18-1.89 3.21q2.75-.49 5.42-1.1-.83-2.64-1.77-5.27zm-63.21 5.3c1.72.38 3.51.74 5.35 1.07-.63-1-1.25-2.06-1.86-3.1s-1.18-2-1.78-3.12q-.93 2.64-1.71 5.15zm-10.91-34.58c-2.38.81-4.37 1.56-6.15 2.32-11.34 4.81-16.5 10.35-16.5 13.47s5.16 8.62 16.49 13.45c1.93.82 4 1.61 6.25 2.36a148.36 148.36 0 0 1 5.85-15.75 152.28 152.28 0 0 1 -5.94-15.85zm80.77 15.72a152.28 152.28 0 0 1 5.94 15.85c2.38-.8 4.37-1.55 6.15-2.32 11.34-4.81 16.52-10.35 16.54-13.48s-5.17-8.61-16.5-13.44c-2-.83-4.06-1.62-6.27-2.36a149.87 149.87 0 0 1 -5.86 15.75zm-69.94-18.72q.82 2.66 1.77 5.27c.58-1.07 1.17-2.11 1.76-3.14s1.26-2.18 1.89-3.21c-1.79.32-3.62.69-5.42 1.08zm59.63-1.08c.61 1 1.24 2.05 1.86 3.12s1.16 2 1.76 3.1c.62-1.76 1.2-3.48 1.71-5.15q-2.57-.57-5.33-1.07zm-57.69-37.78a4.86 4.86 0 0 0 -2.39.48c-2.71 1.59-4.92 8.84-3.42 21 .28 2.16.64 4.33 1.08 6.49a145.36 145.36 0 0 1 16.58-2.78 146.2 146.2 0 0 1 10.71-13.03c-8.27-7.3-16.23-11.75-21.75-12.16zm49.32 25.21a153.52 153.52 0 0 1 16.53 2.76c.49-2.42.84-4.59 1.07-6.6 1.47-12.21-.77-19.44-3.47-21a5 5 0 0 0 -2.4-.5h-.75c-5.53.4-13.5 4.88-21.78 12.24a152.7 152.7 0 0 1 10.8 13.1zm-18.72-1h3.67c-1.25-1.48-2.5-2.9-3.75-4.24-1.27 1.37-2.51 2.79-3.72 4.23 1.22.02 2.48.01 3.8.01z" fill="currentColor"/><path d="m132.4 35.19a13.42 13.42 0 0 1 6.81 1.74c8.63 5 10.58 20.43 6.18 39.87 19.08 5.84 31.52 15.26 31.52 25.2s-12.38 19.32-31.34 25.16c4.44 19.38 2.51 34.82-6.08 39.78a13.65 13.65 0 0 1 -6.91 1.71c-8.41 0-19.42-5.93-30.55-16.27-11.13 10.4-22.13 16.39-30.54 16.39a13.46 13.46 0 0 1 -6.88-1.71c-8.61-4.95-10.61-20.42-6.18-39.87-19.07-5.84-31.52-15.26-31.52-25.19s12.38-19.3 31.4-25.17c-4.43-19.38-2.51-34.83 6.09-39.78a13.64 13.64 0 0 1 6.91-1.74c8.4 0 19.41 5.93 30.54 16.27 11.15-10.4 22.15-16.39 30.55-16.39m6.45 39.81c.67-3.09 1.22-6.12 1.56-9 1.4-11.68-.4-20.76-4.56-23.15a7.09 7.09 0 0 0 -3.49-.79c-6.35 0-15.7 5.09-25.65 14.34a148.76 148.76 0 0 1 12.72 15.29 147.42 147.42 0 0 1 19.42 3.31m-73.93 0a141.77 141.77 0 0 1 19.44-3.36 144.13 144.13 0 0 1 12.64-15.26c-10-9.2-19.35-14.25-25.68-14.25a6.82 6.82 0 0 0 -3.52.8c-4.13 2.41-5.9 11.49-4.46 23.17a88.56 88.56 0 0 0 1.58 8.9m28.49-4c2.78-.15 5.63-.21 8.5-.21s5.66.09 8.41.21a126.48 126.48 0 0 0 -8.5-9.78 119.85 119.85 0 0 0 -8.41 9.78m8.5 55.5c4.65 0 9.27-.22 13.82-.62 2.54-3.63 5-7.55 7.37-11.68s4.4-8.1 6.33-12.19c-1.93-4.1-4-8.17-6.36-12.17s-4.86-8-7.4-11.62c-4.52-.37-9.14-.58-13.76-.58s-9.26.21-13.82.61c-2.54 3.64-5 7.55-7.37 11.68s-4.43 8.1-6.33 12.2c1.93 4.09 4 8.16 6.36 12.17s4.87 8 7.4 11.61c4.53.37 9.14.59 13.76.59m31.09-32.82c1.59-4.07 3-8.13 4.12-12.08-4-1-8.19-1.77-12.53-2.41 1.5 2.32 3 4.71 4.4 7.15s2.75 4.89 4 7.34m-62.16.09q1.88-3.66 4-7.34c1.41-2.47 2.91-4.89 4.4-7.24-4.37.64-8.59 1.46-12.59 2.41 1.16 4 2.57 8.07 4.22 12.17m73 26.78c3-.94 5.84-2 8.47-3.08 10.82-4.59 17.82-10.67 17.85-15.47s-7-10.86-17.82-15.48c-2.69-1.13-5.57-2.17-8.59-3.11a144.4 144.4 0 0 1 -6.79 18.52 147.1 147.1 0 0 1 6.88 18.62m-83.71 0a144.41 144.41 0 0 1 6.78-18.53 148.66 148.66 0 0 1 -6.93-18.58c-3 .94-5.84 2-8.47 3.08-10.83 4.59-17.83 10.68-17.83 15.48s7 10.85 17.82 15.47c2.66 1.13 5.54 2.17 8.57 3.12m64.51 4.21c4.37-.64 8.59-1.46 12.6-2.44-1.17-4-2.57-8.07-4.22-12.17-1.26 2.45-2.57 4.92-4 7.37s-2.9 4.89-4.4 7.24m-45.37 0q-2.25-3.48-4.41-7.15c-1.43-2.45-2.75-4.89-4-7.34-1.59 4.07-3 8.14-4.13 12.08 4 1 8.19 1.77 12.54 2.41m53.29 37a6.78 6.78 0 0 0 3.5-.8c4.13-2.42 5.9-11.5 4.47-23.18a87.77 87.77 0 0 0 -1.59-8.9 143.7 143.7 0 0 1 -19.45 3.37 143.78 143.78 0 0 1 -12.63 15.25c10 9.21 19.36 14.25 25.69 14.25m-61.06.21c6.36 0 15.71-5.07 25.68-14.34a149.68 149.68 0 0 1 -12.72-15.28 148.6 148.6 0 0 1 -19.39-3.38 90.34 90.34 0 0 0 -1.56 9c-1.41 11.68.4 20.76 4.55 23.15a7.31 7.31 0 0 0 3.46.82m30.45-28.74c-2.84 0-5.66-.09-8.41-.21a126.75 126.75 0 0 0 8.5 9.78 116.31 116.31 0 0 0 8.41-9.78c-2.78.15-5.62.21-8.5.21m30.5-102.42c-8.72 0-19.47 5.26-30.56 14.89-11.06-9.55-21.84-14.76-30.53-14.76a18 18 0 0 0 -9.1 2.32c-9.69 5.59-12.9 20.29-9 40.64-19.55 6.79-30.67 16.92-30.67 28.1s11.17 21.37 30.81 28.14c-3.88 20.4-.64 35.13 9.08 40.71a17.68 17.68 0 0 0 9.06 2.3c8.72 0 19.47-5.26 30.55-14.89 11.07 9.55 21.81 14.76 30.54 14.76a18 18 0 0 0 9.09-2.29c9.7-5.59 12.9-20.29 9-40.64 8.28-2.89 15.28-6.5 20.4-10.56 6.69-5.29 10.23-11.35 10.23-17.53 0-11.23-11.17-21.38-30.82-28.15 3.88-20.4.64-35.13-9.08-40.71a17.7 17.7 0 0 0 -9-2.33zm-19.4 25.84c8.38-7.09 15-9.95 18.8-10.24h.6a3 3 0 0 1 1.35.24c1.37.86 3.81 6.69 2.35 18.81-.15 1.33-.36 2.74-.63 4.25-4.36-.92-8.91-1.65-13.61-2.21-2.93-3.86-5.86-7.5-8.86-10.85zm-44.7 13.08c-.24-1.39-.46-2.78-.63-4.16-1.5-12.19 1-18 2.33-18.84a2.93 2.93 0 0 1 1.31-.19h.69c3.82.31 10.4 3.16 18.73 10.16-3.07 3.43-6 7-8.78 10.8-4.75.56-9.32 1.31-13.66 2.23zm22.22 12.67c3.84-.28 7.66-.43 11.39-.43s7.43.14 11.34.41c2.08 3.07 4.1 6.29 6 9.62 1.84 3.17 3.61 6.51 5.29 10-1.68 3.48-3.46 6.84-5.28 10-2 3.55-4 6.73-6 9.66-3.84.29-7.66.43-11.39.43s-7.43-.14-11.34-.41c-2.07-3.06-4.1-6.29-6-9.61s-3.61-6.53-5.29-10c1.57-3.27 3.34-6.63 5.28-10 2-3.55 4-6.73 6-9.66zm51.17 19.53c1.87-4.36 3.5-8.69 4.88-12.94 1.4.5 2.75 1 4 1.57 11.33 4.83 15.15 9.88 15.15 11.44s-3.85 6.63-15.19 11.44c-1.19.51-2.47 1-3.91 1.53-1.4-4.29-3.06-8.65-5-13zm-84.47 13.07c-1.4-.5-2.73-1-4-1.56-11.33-4.84-15.15-9.89-15.15-11.44s3.82-6.64 15.16-11.45c1.19-.51 2.48-1 3.91-1.53 1.41 4.29 3.07 8.65 5 13-1.87 4.36-3.5 8.69-4.88 12.94zm64.64 21.46c4.75-.56 9.33-1.31 13.67-2.23.26 1.46.47 2.83.62 4.14 1.51 12.24-1 18.09-2.33 18.89a2.79 2.79 0 0 1 -1.3.2c-3.69 0-10.57-2.74-19.44-10.2 3.07-3.43 6-7 8.78-10.8zm-50.38 21.15a3 3 0 0 1 -1.35-.26c-1.34-.77-3.84-6.6-2.37-18.81.16-1.34.37-2.75.63-4.26 4.36.92 8.92 1.66 13.62 2.21 2.88 3.86 5.85 7.49 8.86 10.85-8.84 7.48-15.69 10.24-19.39 10.27z" fill="#32363b"/></svg>