<?xml version="1.0" encoding="utf-8"?>
<!-- Generator: Adobe Illustrator 24.2.1, SVG Export Plug-In . SVG Version: 6.00 Build 0)  -->
<svg version="1.1" xmlns="http://www.w3.org/2000/svg" xmlns:xlink="http://www.w3.org/1999/xlink" x="0px" y="0px"
	 viewBox="0 0 512 512" style="enable-background:new 0 0 512 512;" xml:space="preserve" fill="currentColor">
<style type="text/css">
	.st0-bde0e396c08fee7433ba2f8e3593050d{fill:#32363B;}
</style>
<g>
	<path class="st0-bde0e396c08fee7433ba2f8e3593050d" d="M368.1,194c-27.6,0-50-22.4-50-50s22.4-50,50-50c27.5,0,49.9,22.4,50,50C418.1,171.6,395.7,194,368.1,194z"/>
	<g>
		<path class="st1-bde0e396c08fee7433ba2f8e3593050d" d="M368.1,175.7c-17.6,0-31.7-14.1-31.7-31.7s14.1-31.7,31.7-31.7s31.7,14.1,31.7,31.7l0,0
			C399.7,161.6,385.5,175.7,368.1,175.7z"/>
		<path class="st1-bde0e396c08fee7433ba2f8e3593050d" d="M132.1,268.5c-4.3-0.1-71.3-0.5-94.9-0.5H17.8l52.3-104.7c4-7.7,16.3-15.3,25-15.3h104.4l-8.6,17.3
			c-13.5,27.3-30.5,61.5-45.8,92.3l2.4,11.8L132.1,268.5z"/>
		<path class="st1-bde0e396c08fee7433ba2f8e3593050d" d="M37.2,256l43.6-87.2c1.9-3.7,10.1-8.8,14.3-8.8h85.1c-13.9,28.1-31.7,64-47.6,96l0.1,0.5
			C131.1,256.4,61,256,37.2,256z"/>
		<path class="st1-bde0e396c08fee7433ba2f8e3593050d" d="M244.1,475c0-23.6-0.4-90.5-0.5-95l-0.8-12.6h10.4c17.9-8.8,36.8-18.2,54.9-27.2
			c13.6-6.8,26.7-13.3,38.5-19.1l2.5-1.2h14.8l0.1,12v85.3c0,8.8-7.6,21.1-15.5,25l-104.4,52.3V475z"/>
		<path class="st1-bde0e396c08fee7433ba2f8e3593050d" d="M352,417.2c0,4.1-5.1,12.4-8.8,14.2L256.1,475c0-23.9-0.4-94.1-0.5-95.6h0.4c32-15.8,67.8-33.6,95.9-47.5h0.1
			V417.2z"/>
		<path class="st1-bde0e396c08fee7433ba2f8e3593050d" d="M19.9,479.7l0-0.5c0.1-11.6,1.3-41.8,9.8-70.8c16.6-56.6,48.7-68.4,72.7-68.4c18.4,0,37.2,7.5,49.3,19.5
			c16,16,26.1,46.7,14.7,74.5c-14.9,36.1-62.6,56.7-134.3,58l-12.6,0.2L19.9,479.7z"/>
		<path class="st1-bde0e396c08fee7433ba2f8e3593050d" d="M155.3,429.4c-12.8,31.1-57.6,49.4-123.4,50.6c0.1-3.6-1-128,70.5-128c15.1,0,31.1,6.3,40.8,16
			C156.1,380.9,164.6,406.8,155.3,429.4z"/>
	</g>
	<path class="st0-bde0e396c08fee7433ba2f8e3593050d" d="M248,506c-9.9,0-17.9-8.1-17.9-18V384c0-56.2-45.8-102-102-102H24.2c-9.9,0-18-8-18-17.9
		c0.1-2.7,0.7-5.5,1.9-8.2l49.3-98.7C63.8,144.6,80.9,134,95,134h107.5l1.8-2.8c25.4-40,52.4-69.3,82.6-89.5
		C322.6,17.7,363.1,6,410.5,6c24.3,0,49.5,0,81,6.8c3.1,0.6,7.1,4.6,7.8,7.8c6.9,31.9,6.8,56.9,6.7,81.1
		c0,47.2-11.7,87.5-35.8,123.4c-20.2,30.2-49.5,57.2-89.5,82.7l-2.8,1.8v107.8c0,14-10.6,31.2-23.2,37.4l-98.6,49.3
		C253.5,505.3,250.7,505.9,248,506z M249.6,379.7c0.1,3.3,0.5,70.6,0.5,95.3v9.7l95.8-47.9c5.6-2.7,12.1-13.2,12.1-19.6v-91.3h-7.4
		l-1.4,0.6c-11.8,5.8-24.9,12.3-38.5,19.1c-18.5,9.2-37.9,18.8-56.2,27.8h-5.4L249.6,379.7z M410.5,26c-61.2,0-111,21.9-152.3,66.8
		c-36,39.2-60.8,90.1-84.9,139.4c-4.4,9-8.9,18.3-13.4,27.2l-3.2,6.3l6.8,2.1c38.6,11.8,68.8,42,80.6,80.6l2.1,6.8l6.3-3.2
		c8.7-4.3,17.8-8.8,26.6-13c97-47.3,206.9-100.8,206.9-237.3c0.1-20.2,0.2-41.1-4.2-66.5l-0.7-4.2l-4.2-0.7
		C452.3,26,432,26,410.5,26z M95.1,154c-6.4,0-16.7,6.3-19.6,12.1l-48,95.9h9.7c24.7,0,92.5,0.4,95.2,0.5l7.8,0.5l-1.3-6.2
		c15.5-31.3,32.9-66.3,46.7-94.1l4.3-8.7H95.1z"/>
	<path class="st0-bde0e396c08fee7433ba2f8e3593050d" d="M6,506v-20h0.1l0.1-5.9c0.8-54,11.7-94.9,32.5-121.7c20.8-26.8,46.1-32.4,63.7-32.4c22,0,44.7,9.1,59.1,23.6
		c23.4,23.4,30.8,57.6,18.9,86.9c-7.7,19.1-23.5,35.4-45.5,47.1c-26.3,13.9-61,21.4-103.1,22.2l-5.9,0.1v0.1H6z M102.4,346
		c-31.5,0-54.7,22.2-67,64.1c-8.3,28.3-9.4,57.8-9.5,69.2l0,0.5l-0.2,6.3L32,486c33.5-0.6,61.7-5.5,83.7-14.5
		c22.9-9.4,38.1-22.8,45.1-39.8c10.3-25.1,0.8-53.7-13.4-67.9C136.7,353,119,346,102.4,346z"/>
</g>
</svg>
