<?xml version="1.0" encoding="utf-8"?>
<!-- Generator: Adobe Illustrator 24.2.1, SVG Export Plug-In . SVG Version: 6.00 Build 0)  -->
<svg version="1.1" xmlns="http://www.w3.org/2000/svg" xmlns:xlink="http://www.w3.org/1999/xlink" x="0px" y="0px"
	 viewBox="0 0 512 512" style="enable-background:new 0 0 512 512;" xml:space="preserve" fill="currentColor">
<style type="text/css">
	.st0-1c97bdbf978b6e1d6fbff0022b2ffa88{fill:#333233;}
	
</style>
<g id="Big_data">
	<path class="st0-1c97bdbf978b6e1d6fbff0022b2ffa88" d="M448,329.1V182.9c17.1-4.3,27.4-21.7,23.1-38.8s-21.7-27.4-38.8-23.1c-5,1.3-9.7,3.8-13.6,7.3L287.6,52.5
		c0.3-1.5,0.4-3,0.4-4.5c0-17.7-14.3-32-32-32s-32,14.3-32,32c0,1.5,0.2,3,0.5,4.5L93.3,128.2c-13.1-11.8-33.3-10.7-45.1,2.4
		s-10.7,33.3,2.4,45.1c3.8,3.4,8.4,5.9,13.4,7.2v146.3c-17.1,4.3-27.4,21.7-23.1,38.8s21.7,27.4,38.8,23.1c5-1.3,9.7-3.8,13.6-7.3
		l131.2,75.7c-0.3,1.5-0.4,3-0.4,4.5c0,17.7,14.3,32,32,32s32-14.3,32-32c0-1.5-0.2-3-0.5-4.5l131.2-75.7
		c13.1,11.8,33.3,10.7,45.1-2.4c11.8-13.1,10.7-33.3-2.4-45.1C457.6,332.9,453,330.4,448,329.1z M331.3,352l19.6-33.2l58.3,32.9
		l-0.1,0.2h-77.8V352z M102.9,352l-0.1-0.2l58.3-32.9l19.6,33.2h-77.8V352z M180.7,160l-19.6,33.2l-58.3-32.9l0.1-0.2L180.7,160z
		 M409.1,160l0.1,0.2l-58.3,32.9L331.3,160H409.1z M431.2,329.4L388,256l43.3-73.4c0.3,0.1,0.5,0.2,0.8,0.2v146.3
		C431.7,329.2,431.5,329.3,431.2,329.4z M417,337.8L359,305l19.6-33.3l38.7,65.6C417.3,337.5,417.2,337.7,417,337.8z M286.8,247.8
		l58.3-32.9l24.3,41.2l-24.3,41.2l-58.3-32.9C288.4,258.9,288.4,253.1,286.8,247.8L286.8,247.8z M417.4,174.6l-38.7,65.6L359,207
		l58-32.8C417.2,174.3,417.3,174.5,417.4,174.6z M337,201l-58,32.8c-4.1-4.2-9.3-7.2-15-8.7V160h48.8L337,201z M256,272
		c-8.8,0-16-7.2-16-16c0-8.8,7.2-16,16-16c8.8,0,16,7.2,16,16C272,264.8,264.8,272,256,272z M264,144V78.9c0.3-0.1,0.5-0.2,0.8-0.2
		l38.6,65.4H264V144z M248,78.9V144h-39.3l38.6-65.4C247.5,78.7,247.7,78.8,248,78.9z M248,160v65.1c-5.7,1.5-10.9,4.5-15,8.7
		L175,201l24.2-41H248z M94.6,337.4l38.7-65.6l19.6,33.3l-58,32.7C94.8,337.7,94.7,337.5,94.6,337.4z M142.6,256l24.3-41.2
		l58.3,32.9c-1.6,5.4-1.6,11.1,0,16.5l-58.3,32.9L142.6,256z M95,174.2l58,32.8l-19.6,33.3l-38.7-65.6
		C94.7,174.5,94.8,174.3,95,174.2z M80.8,182.6L124,256l-43.2,73.4c-0.3-0.1-0.5-0.2-0.8-0.2V182.9
		C80.3,182.8,80.5,182.7,80.8,182.6z M175,311l58-32.8c4.1,4.2,9.3,7.2,15,8.7V352h-48.8L175,311z M248,368v65.1
		c-0.3,0.1-0.5,0.2-0.8,0.2L208.7,368H248z M264,433.1V368h39.3l-38.5,65.4C264.5,433.3,264.3,433.2,264,433.1z M264,352v-65.1
		c5.7-1.5,10.9-4.5,15-8.7l58,32.8l-24.2,41L264,352L264,352z M440,136c8.8,0,16,7.2,16,16s-7.2,16-16,16s-16-7.2-16-16
		S431.2,136,440,136z M409.9,141.6c-0.3,0.8-0.5,1.6-0.8,2.4h-87.2l-43.3-73.4c1-1,1.9-2.1,2.7-3.2L409.9,141.6z M256,32
		c8.8,0,16,7.2,16,16s-7.2,16-16,16c-8.8,0-16-7.2-16-16S247.2,32,256,32z M233.4,70.6L190.1,144h-87.2c-0.2-0.8-0.5-1.6-0.8-2.4
		l128.6-74.2C231.5,68.5,232.4,69.6,233.4,70.6z M56,152c0-8.8,7.2-16,16-16s16,7.2,16,16s-7.2,16-16,16S56,160.8,56,152z M72,376
		c-8.8,0-16-7.2-16-16s7.2-16,16-16s16,7.2,16,16S80.8,376,72,376z M102.1,370.4c0.3-0.8,0.5-1.6,0.8-2.4h87.2l43.3,73.4
		c-1,1-1.9,2.1-2.7,3.2L102.1,370.4z M256,480c-8.8,0-16-7.2-16-16s7.2-16,16-16c8.8,0,16,7.2,16,16S264.8,480,256,480z
		 M278.6,441.4l43.3-73.4h87.2c0.2,0.8,0.5,1.6,0.8,2.4l-128.6,74.2C280.5,443.5,279.6,442.4,278.6,441.4z M440,376
		c-8.8,0-16-7.2-16-16s7.2-16,16-16s16,7.2,16,16S448.8,376,440,376z"/>
</g>
<circle class="st1-1c97bdbf978b6e1d6fbff0022b2ffa88" cx="256" cy="256" r="16"/>
<circle class="st1-1c97bdbf978b6e1d6fbff0022b2ffa88" cx="440" cy="152" r="16"/>
<circle class="st1-1c97bdbf978b6e1d6fbff0022b2ffa88" cx="256" cy="48" r="16"/>
<circle class="st1-1c97bdbf978b6e1d6fbff0022b2ffa88" cx="72" cy="152" r="16"/>
<circle class="st1-1c97bdbf978b6e1d6fbff0022b2ffa88" cx="72" cy="360" r="16"/>
<circle class="st1-1c97bdbf978b6e1d6fbff0022b2ffa88" cx="256" cy="464" r="16"/>
<circle class="st1-1c97bdbf978b6e1d6fbff0022b2ffa88" cx="440" cy="360" r="16"/>
</svg>
