<svg viewBox="0 0 519 656" xmlns="http://www.w3.org/2000/svg" xmlns:xlink="http://www.w3.org/1999/xlink"><radialGradient id="a" cx="449.286" cy="85.5395" fx="449.286" fy="85.5395" gradientUnits="userSpaceOnUse" r="45.111"><stop offset="0"/><stop offset="1" stop-opacity="0"/></radialGradient><radialGradient id="b" cx="375.4906" fx="375.4906" xlink:href="#a"/><path d="m401.1353 38.207c-.0859.9102-.4219 1.6201-1.0078 2.1299s-1.3652.7646-2.3379.7646c-.6797 0-1.2783-.1611-1.7959-.4834s-.917-.7803-1.1982-1.374-.4277-1.2832-.4395-2.0684v-.7969c0-.8047.1426-1.5137.4277-2.127s.6943-1.0859 1.2275-1.418 1.1494-.498 1.8486-.498c.9414 0 1.6992.2549 2.2734.7646s.9082 1.2314 1.002 2.165h-1.4766c-.0703-.6133-.249-1.0557-.5361-1.3271s-.708-.4072-1.2627-.4072c-.6445 0-1.1396.2354-1.4854.7065s-.5225 1.1626-.5303 2.0732v.7568c0 .9224.165 1.6265.4951 2.1113s.8135.7271 1.4502.7271c.582 0 1.0195-.1309 1.3125-.3926s.4785-.6973.5566-1.3066h1.4766z"/><path d="m403.8365 40.9844h-1.4238v-9h1.4238z"/><path d="m405.3892 32.998c0-.2188.0693-.4004.208-.5449s.3369-.2168.5947-.2168.457.0723.5977.2168.2109.3262.2109.5449c0 .2148-.0703.3936-.2109.5361s-.3398.2139-.5977.2139-.4561-.0713-.5947-.2139-.208-.3213-.208-.5361zm1.5118 7.9864h-1.4238v-6.3398h1.4238z"/><path d="m411.2428 41.1016c-.9023 0-1.6338-.2842-2.1943-.8525s-.8408-1.3252-.8408-2.2705v-.1758c0-.6328.1221-1.1982.3662-1.6963s.5869-.8857 1.0283-1.1631.9336-.416 1.4766-.416c.8633 0 1.5303.2754 2.001.8262s.7061 1.3301.7061 2.3379v.5742h-4.1426c.043.5234.2178.9375.5244 1.2422s.6924.457 1.1572.457c.6523 0 1.1836-.2637 1.5938-.791l.7676.7324c-.2539.3789-.5928.6729-1.0166.8818s-.8994.3135-1.4268.3135zm-.17-5.4317c-.3906 0-.7061.1367-.9463.4102s-.3936.6543-.46 1.1426h2.7129v-.1055c-.0312-.4766-.1582-.8369-.3809-1.0811s-.5312-.3662-.9258-.3662z"/><path d="m416.2115 34.6445.041.7324c.4688-.5664 1.084-.8496 1.8457-.8496 1.3203 0 1.9922.7559 2.0156 2.2676v4.1895h-1.4238v-4.1074c0-.4023-.0869-.7002-.2607-.8936s-.458-.29-.8525-.29c-.5742 0-1.002.2598-1.2832.7793v4.5117h-1.4238v-6.3398h1.3418z"/><path d="m423.3482 33.1035v1.541h1.1191v1.0547h-1.1191v3.5391c0 .2422.0479.417.1436.5244s.2666.1611.5127.1611c.1641 0 .3301-.0195.498-.0586v1.1016c-.3242.0898-.6367.1348-.9375.1348-1.0938 0-1.6406-.6035-1.6406-1.8105v-3.5918h-1.043v-1.0547h1.043v-1.541h1.4238z"/><path d="m429.108 39.2617c0-.2539-.1045-.4473-.3135-.5801s-.5557-.25-1.04-.3516-.8887-.2305-1.2129-.3867c-.7109-.3438-1.0664-.8418-1.0664-1.4941 0-.5469.2305-1.0039.6914-1.3711s1.0469-.5508 1.7578-.5508c.7578 0 1.3701.1875 1.8369.5625s.7002.8613.7002 1.459h-1.4238c0-.2734-.1016-.501-.3047-.6826s-.4727-.2725-.8086-.2725c-.3125 0-.5674.0723-.7646.2168s-.2959.3379-.2959.5801c0 .2188.0918.3887.2754.5098s.5547.2432 1.1133.3662.9971.2695 1.3154.4395.5547.374.709.6123.2314.5273.2314.8672c0 .5703-.2363 1.0322-.709 1.3857s-1.0918.5303-1.8574.5303c-.5195 0-.9824-.0938-1.3887-.2812s-.7227-.4453-.9492-.7734-.3398-.6816-.3398-1.0605h1.3828c.0195.3359.1465.5947.3809.7764s.5449.2725.9316.2725c.375 0 .6602-.0713.8555-.2139s.293-.3291.293-.5596z"/><path d="m244.2105 164.1997v6.9023c0 .6484-.1611 1.1436-.4834 1.4854s-.7939.5127-1.415.5127c-.2617 0-.5137-.0332-.7559-.0996v-1.125c.1484.0352.3164.0527.5039.0527.4727 0 .7148-.2578.7266-.7734v-6.9551zm-1.5468-1.6465c0-.2188.0693-.4004.208-.5449s.3369-.2168.5947-.2168.457.0723.5977.2168.2109.3262.2109.5449c0 .2148-.0703.3936-.2109.5361s-.3398.2139-.5977.2139-.4561-.0713-.5947-.2139-.208-.3213-.208-.5361z"/><path d="m245.734 162.5532c0-.2188.0693-.4004.208-.5449s.3369-.2168.5947-.2168.457.0723.5977.2168.2109.3262.2109.5449c0 .2148-.0703.3936-.2109.5361s-.3398.2139-.5977.2139-.4561-.0713-.5947-.2139-.208-.3213-.208-.5361zm1.5117 7.9864h-1.4238v-6.3398h1.4238z"/><path d="m250.5797 162.6587v1.541h1.1191v1.0547h-1.1191v3.5391c0 .2422.0479.417.1436.5244s.2666.1611.5127.1611c.1641 0 .3301-.0195.498-.0586v1.1016c-.3242.0898-.6367.1348-.9375.1348-1.0938 0-1.6406-.6035-1.6406-1.8105v-3.5918h-1.043v-1.0547h1.043v-1.541h1.4238z"/><path d="m256.3394 168.8169c0-.2539-.1045-.4473-.3135-.5801s-.5557-.25-1.04-.3516-.8887-.2305-1.2129-.3867c-.7109-.3438-1.0664-.8418-1.0664-1.4941 0-.5469.2305-1.0039.6914-1.3711s1.0469-.5508 1.7578-.5508c.7578 0 1.3701.1875 1.8369.5625s.7002.8613.7002 1.459h-1.4238c0-.2734-.1016-.501-.3047-.6826s-.4727-.2725-.8086-.2725c-.3125 0-.5674.0723-.7646.2168s-.2959.3379-.2959.5801c0 .2188.0918.3887.2754.5098s.5547.2432 1.1133.3662.9971.2695 1.3154.4395.5547.374.709.6123.2314.5273.2314.8672c0 .5703-.2363 1.0322-.709 1.3857s-1.0918.5303-1.8574.5303c-.5195 0-.9824-.0938-1.3887-.2812s-.7227-.4453-.9492-.7734-.3398-.6816-.3398-1.0605h1.3828c.0195.3359.1465.5947.3809.7764s.5449.2725.9316.2725c.375 0 .6602-.0713.8555-.2139s.293-.3291.293-.5596z"/><path d="m258.982 162.5532c0-.2188.0693-.4004.208-.5449s.3369-.2168.5947-.2168.457.0723.5977.2168.2109.3262.2109.5449c0 .2148-.0703.3936-.2109.5361s-.3398.2139-.5977.2139-.4561-.0713-.5947-.2139-.208-.3213-.208-.5361zm1.5117 7.9864h-1.4238v-6.3398h1.4238z"/><path d="m264.8062 167.4868h-3.0762v-1.1484h3.0762z"/><path d="m271.4508 166.9478c0 1.2266-.2295 2.1514-.6885 2.7744s-1.1572.9346-2.0947.9346c-.9219 0-1.6162-.3037-2.083-.9111s-.7061-1.5068-.7178-2.6982v-1.4766c0-1.2266.2295-2.1465.6885-2.7598s1.1592-.9199 2.1006-.9199c.9336 0 1.6299.2988 2.0889.8965s.6943 1.4922.7061 2.6836v1.4766zm-1.4239-1.5938c0-.8008-.1094-1.3877-.3281-1.7607s-.5664-.5596-1.043-.5596c-.4648 0-.8066.1768-1.0254.5303s-.334.9053-.3457 1.6553v1.9336c0 .7969.1113 1.3906.334 1.7812s.5723.5859 1.0488.5859c.457 0 .7949-.1807 1.0137-.542s.334-.9268.3457-1.6963z"/><path d="m276.566 170.5396h-1.418v-6.8535l-2.0918.7129v-1.1953l3.3281-1.2246h.1816v8.5605z"/><path d="m280.5094 169.0396c.2656 0 .4707.0752.6152.2256s.2168.3389.2168.5654c0 .2227-.0723.4072-.2168.5537s-.3496.2197-.6152.2197c-.2539 0-.4551-.0723-.6035-.2168s-.2227-.3301-.2227-.5566.0723-.415.2168-.5654.3477-.2256.6094-.2256z"/><path d="m282.7066 167.3228c0-.9766.2266-1.7607.6797-2.3525s1.0605-.8877 1.8223-.8877c.6719 0 1.2148.2344 1.6289.7031v-3.2461h1.4238v9h-1.2891l-.0703-.6562c-.4258.5156-.9941.7734-1.7051.7734-.7422 0-1.3428-.2988-1.8018-.8965s-.6885-1.4102-.6885-2.4375zm1.4239.123c0 .6445.124 1.1475.3721 1.5088s.6006.542 1.0576.542c.582 0 1.0078-.2598 1.2773-.7793v-2.707c-.2617-.5078-.6836-.7617-1.2656-.7617-.4609 0-.8164.1826-1.0664.5479s-.375.915-.375 1.6494z"/><path d="m289.4801 167.311c0-.6211.123-1.1807.3691-1.6787s.5918-.8809 1.0371-1.1484.957-.4014 1.5352-.4014c.8555 0 1.5498.2754 2.083.8262s.8213 1.2812.8643 2.1914l.0059.334c0 .625-.1201 1.1836-.3604 1.6758s-.584.873-1.0312 1.1426-.9639.4043-1.5498.4043c-.8945 0-1.6104-.2979-2.1475-.8936s-.8057-1.3896-.8057-2.3818v-.0703zm1.4238.1231c0 .6523.1348 1.1631.4043 1.5322s.6445.5537 1.125.5537.8545-.1875 1.1221-.5625.4014-.9238.4014-1.6465c0-.6406-.1377-1.1484-.4131-1.5234s-.6494-.5625-1.1221-.5625c-.4648 0-.834.1846-1.1074.5537s-.4102.9209-.4102 1.6553z"/><path d="m297.9176 164.1997.041.6621c.4453-.5195 1.0547-.7793 1.8281-.7793.8477 0 1.4277.3242 1.7402.9727.4609-.6484 1.1094-.9727 1.9453-.9727.6992 0 1.2197.1934 1.5615.5801s.5166.957.5244 1.7109v4.166h-1.4238v-4.125c0-.4023-.0879-.6973-.2637-.8848s-.4668-.2812-.873-.2812c-.3242 0-.5889.0869-.7939.2607s-.3486.4014-.4307.6826l.0059 4.3477h-1.4238v-4.1719c-.0195-.7461-.4004-1.1191-1.1426-1.1191-.5703 0-.9746.2324-1.2129.6973v4.5938h-1.4238v-6.3398h1.3418z"/><path d="m310.8082 170.5396c-.0625-.1211-.1172-.3184-.1641-.5918-.4531.4727-1.0078.709-1.6641.709-.6367 0-1.1562-.1816-1.5586-.5449s-.6035-.8125-.6035-1.3477c0-.6758.251-1.1943.7529-1.5557s1.2197-.542 2.1533-.542h.873v-.416c0-.3281-.0918-.5908-.2754-.7881s-.4629-.2959-.8379-.2959c-.3242 0-.5898.0811-.7969.2432s-.3105.3682-.3105.6182h-1.4238c0-.3477.1152-.6729.3457-.9756s.5439-.54.9404-.7119.8389-.2578 1.3271-.2578c.7422 0 1.334.1865 1.7754.5596s.668.8975.6797 1.5732v2.8594c0 .5703.0801 1.0254.2402 1.3652v.0996h-1.4531zm-1.5645-1.0254c.2812 0 .5459-.0684.7939-.2051s.4346-.3203.5596-.5508v-1.1953h-.7676c-.5273 0-.9238.0918-1.1895.2754s-.3984.4434-.3984.7793c0 .2734.0908.4912.2725.6533s.4248.2432.7295.2432z"/><path d="m313.5152 162.5532c0-.2188.0693-.4004.208-.5449s.3369-.2168.5947-.2168.457.0723.5977.2168.2109.3262.2109.5449c0 .2148-.0703.3936-.2109.5361s-.3398.2139-.5977.2139-.4561-.0713-.5947-.2139-.208-.3213-.208-.5361zm1.5117 7.9864h-1.4238v-6.3398h1.4238z"/><path d="m317.898 164.1997.041.7324c.4688-.5664 1.084-.8496 1.8457-.8496 1.3203 0 1.9922.7559 2.0156 2.2676v4.1895h-1.4238v-4.1074c0-.4023-.0869-.7002-.2607-.8936s-.458-.29-.8525-.29c-.5742 0-1.002.2598-1.2832.7793v4.5117h-1.4238v-6.3398h1.3418z"/><path d="m324.1383 169.0396c.2656 0 .4707.0752.6152.2256s.2168.3389.2168.5654c0 .2227-.0723.4072-.2168.5537s-.3496.2197-.6152.2197c-.2539 0-.4551-.0723-.6035-.2168s-.2227-.3301-.2227-.5566.0723-.415.2168-.5654.3477-.2256.6094-.2256z"/><path d="m329.2066 169.52c.3555 0 .6504-.1035.8848-.3105s.3594-.4629.375-.7676h1.3418c-.0156.3945-.1387.7627-.3691 1.1045s-.543.6123-.9375.8115-.8203.2988-1.2773.2988c-.8867 0-1.5898-.2871-2.1094-.8613s-.7793-1.3672-.7793-2.3789v-.1465c0-.9648.2578-1.7373.7734-2.3174s1.2188-.8701 2.1094-.8701c.7539 0 1.3682.2197 1.8428.6592s.7236 1.0166.7471 1.7314h-1.3418c-.0156-.3633-.1396-.6621-.3721-.8965s-.5283-.3516-.8877-.3516c-.4609 0-.8164.167-1.0664.501s-.377.8408-.3809 1.5205v.2285c0 .6875.124 1.2002.3721 1.5381s.6064.5068 1.0752.5068z"/><path d="m332.6168 167.311c0-.6211.123-1.1807.3691-1.6787s.5918-.8809 1.0371-1.1484.957-.4014 1.5352-.4014c.8555 0 1.5498.2754 2.083.8262s.8213 1.2812.8643 2.1914l.0059.334c0 .625-.1201 1.1836-.3604 1.6758s-.584.873-1.0312 1.1426-.9639.4043-1.5498.4043c-.8945 0-1.6104-.2979-2.1475-.8936s-.8057-1.3896-.8057-2.3818v-.0703zm1.4238.1231c0 .6523.1348 1.1631.4043 1.5322s.6445.5537 1.125.5537.8545-.1875 1.1221-.5625.4014-.9238.4014-1.6465c0-.6406-.1377-1.1484-.4131-1.5234s-.6494-.5625-1.1221-.5625c-.4648 0-.834.1846-1.1074.5537s-.4102.9209-.4102 1.6553z"/><path d="m341.0543 164.1997.041.6621c.4453-.5195 1.0547-.7793 1.8281-.7793.8477 0 1.4277.3242 1.7402.9727.4609-.6484 1.1094-.9727 1.9453-.9727.6992 0 1.2197.1934 1.5615.5801s.5166.957.5244 1.7109v4.166h-1.4238v-4.125c0-.4023-.0879-.6973-.2637-.8848s-.4668-.2812-.873-.2812c-.3242 0-.5889.0869-.7939.2607s-.3486.4014-.4307.6826l.0059 4.3477h-1.4238v-4.1719c-.0195-.7461-.4004-1.1191-1.1426-1.1191-.5703 0-.9746.2324-1.2129.6973v4.5938h-1.4238v-6.3398h1.3418z"/><circle cx="449.286" cy="85.5395" fill="url(#a)" opacity=".43" r="45.111"/><circle cx="449.286" cy="85.5395" fill="#0b153b" r="32.8888" stroke="#fff" stroke-miterlimit="10" stroke-width="2"/><path d="m451.9704 85.9396c3.3956-1.1378 5.8489-4.3022 5.8489-8.0711.0178-4.7289-3.8044-8.5511-8.5333-8.5511-4.7111 0-8.5511 3.8222-8.5511 8.5511 0 3.7689 2.4533 6.9333 5.8489 8.0711-5.5645 1.1911-9.7422 6.0267-9.7422 11.8222h24.8888c0-5.7956-4.1778-10.6311-9.76-11.8222z" fill="#fff"/><circle cx="375.4906" cy="85.5395" fill="url(#b)" opacity=".43" r="45.111"/><circle cx="375.4906" cy="85.5395" fill="#0b153b" r="32.8888" stroke="#fff" stroke-miterlimit="10" stroke-width="2"/><path d="m378.175 85.9396c3.3956-1.1378 5.8489-4.3022 5.8489-8.0711.0178-4.7289-3.8044-8.5511-8.5333-8.5511-4.7111 0-8.5511 3.8222-8.5511 8.5511 0 3.7689 2.4533 6.9333 5.8489 8.0711-5.5645 1.1911-9.7422 6.0267-9.7422 11.8222h24.8888c0-5.7956-4.1778-10.6311-9.76-11.8222z" fill="#fff"/><rect fill="#deebfd" height="184.4736" rx="5.8073" stroke="#6cafff" stroke-miterlimit="10" stroke-width="2" width="331.5549" x="176.8244" y="185.8727"/><path d="m412.3883 118.4284v44.935" fill="none" stroke="#000" stroke-miterlimit="10" stroke-width="2"/><path d="m407.4019 161.9044 4.9864 8.6352 4.9863-8.6352z"/><rect fill="#fff" height="34.6666" rx="2.9879" stroke="#288900" stroke-miterlimit="10" stroke-width="1.8891" width="139.573" x="351.0552" y="221.4282"/><path d="m401.8795 243.6504h-1.4824l-3.8027-6.0527v6.0527h-1.4824v-8.5312h1.4824l3.8145 6.0762v-6.0762h1.4707v8.5312z" fill="#0b153b"/><path d="m410.1705 242.543c-.3086.4023-.7363.707-1.2832.9141s-1.168.3105-1.8633.3105c-.7148 0-1.3477-.1621-1.8984-.4863s-.9756-.7881-1.2744-1.3916-.4541-1.3076-.4658-2.1123v-.668c0-1.2891.3086-2.2959.9258-3.0205s1.4785-1.0869 2.584-1.0869c.9492 0 1.7031.2354 2.2617.7061s.8945 1.1475 1.0078 2.0303h-1.4531c-.1641-1.0273-.7598-1.541-1.7871-1.541-.6641 0-1.1689.2393-1.5146.7173s-.5244 1.1797-.5361 2.1045v.6553c0 .9214.1943 1.6362.583 2.146.3887.5093.9287.7637 1.6201.7637.7578 0 1.2969-.1719 1.6172-.5156v-1.6699h-1.7578v-1.125h3.2344v3.2695z" fill="#0b153b"/><path d="m413.3638 243.6504h-1.4766v-8.5312h1.4766z" fill="#0b153b"/><path d="m421.9537 243.6504h-1.4824l-3.8027-6.0527v6.0527h-1.4824v-8.5312h1.4824l3.8145 6.0762v-6.0762h1.4707v8.5312z" fill="#0b153b"/><path d="m426.7408 238.2012 1.793-3.082h1.7109l-2.5781 4.2305 2.6367 4.3008h-1.7285l-1.834-3.1289-1.8398 3.1289h-1.7227l2.6426-4.3008-2.584-4.2305h1.7109z" fill="#0b153b"/><rect fill="#fff" height="34.6666" rx="2.9879" stroke="#6cafff" stroke-miterlimit="10" stroke-width="1.8891" width="139.573" x="197.4806" y="288.5391"/><g fill="#0b153b"><path d="m225.4605 307.2153v3.1641h-1.4824v-8.5312h3.2637c.9531 0 1.71.2485 2.2705.7451s.8408 1.1533.8408 1.9707c0 .8369-.2744 1.4878-.8232 1.9531-.5488.4658-1.3174.6982-2.3057.6982zm0-1.1953h1.7812c.5273 0 .9297-.124 1.207-.3721s.416-.6064.416-1.0752c0-.4609-.1406-.8291-.4219-1.1045s-.668-.417-1.1602-.4248h-1.8223v2.9766z"/><path d="m234.8297 305.3403c-.1875-.0312-.3809-.0469-.5801-.0469-.6523 0-1.0918.25-1.3184.75v4.3359h-1.4238v-6.3398h1.3594l.0352.709c.3438-.5508.8203-.8262 1.4297-.8262.2031 0 .3711.0273.5039.082l-.0059 1.3359z"/><path d="m235.2515 307.1509c0-.6211.123-1.1807.3691-1.6787s.5918-.8809 1.0371-1.1484.957-.4014 1.5352-.4014c.8555 0 1.5498.2754 2.083.8262s.8213 1.2812.8643 2.1914l.0059.334c0 .625-.1201 1.1836-.3604 1.6758s-.584.873-1.0312 1.1426-.9639.4043-1.5498.4043c-.8945 0-1.6104-.2979-2.1475-.8936s-.8057-1.3896-.8057-2.3818v-.0703zm1.4239.123c0 .6523.1348 1.1631.4043 1.5322s.6445.5537 1.125.5537.8545-.1875 1.1221-.5625.4014-.9238.4014-1.6465c0-.6406-.1377-1.1484-.4131-1.5234s-.6494-.5625-1.1221-.5625c-.4648 0-.834.1846-1.1074.5537s-.4102.9209-.4102 1.6553z"/><path d="m245.9039 308.6567c0-.2539-.1045-.4473-.3135-.5801s-.5557-.25-1.04-.3516-.8887-.2305-1.2129-.3867c-.7109-.3438-1.0664-.8418-1.0664-1.4941 0-.5469.2305-1.0039.6914-1.3711s1.0469-.5508 1.7578-.5508c.7578 0 1.3701.1875 1.8369.5625s.7002.8613.7002 1.459h-1.4238c0-.2734-.1016-.501-.3047-.6826s-.4727-.2725-.8086-.2725c-.3125 0-.5674.0723-.7646.2168s-.2959.3379-.2959.5801c0 .2188.0918.3887.2754.5098s.5547.2432 1.1133.3662.9971.2695 1.3154.4395.5547.374.709.6123.2314.5273.2314.8672c0 .5703-.2363 1.0322-.709 1.3857s-1.0918.5303-1.8574.5303c-.5195 0-.9824-.0938-1.3887-.2812s-.7227-.4453-.9492-.7734-.3398-.6816-.3398-1.0605h1.3828c.0195.3359.1465.5947.3809.7764s.5449.2725.9316.2725c.375 0 .6602-.0713.8555-.2139s.293-.3291.293-.5596z"/><path d="m248.2769 307.1509c0-.6211.123-1.1807.3691-1.6787s.5918-.8809 1.0371-1.1484.957-.4014 1.5352-.4014c.8555 0 1.5498.2754 2.083.8262s.8213 1.2812.8643 2.1914l.0059.334c0 .625-.1201 1.1836-.3604 1.6758s-.584.873-1.0312 1.1426-.9639.4043-1.5498.4043c-.8945 0-1.6104-.2979-2.1475-.8936s-.8057-1.3896-.8057-2.3818v-.0703zm1.4239.123c0 .6523.1348 1.1631.4043 1.5322s.6445.5537 1.125.5537.8545-.1875 1.1221-.5625.4014-.9238.4014-1.6465c0-.6406-.1377-1.1484-.4131-1.5234s-.6494-.5625-1.1221-.5625c-.4648 0-.834.1846-1.1074.5537s-.4102.9209-.4102 1.6553z"/><path d="m255.109 307.1626c0-.9766.2266-1.7607.6797-2.3525s1.0605-.8877 1.8223-.8877c.6719 0 1.2148.2344 1.6289.7031v-3.2461h1.4238v9h-1.2891l-.0703-.6562c-.4258.5156-.9941.7734-1.7051.7734-.7422 0-1.3428-.2988-1.8018-.8965s-.6885-1.4102-.6885-2.4375zm1.4238.123c0 .6445.124 1.1475.3721 1.5088s.6006.542 1.0576.542c.582 0 1.0078-.2598 1.2773-.7793v-2.707c-.2617-.5078-.6836-.7617-1.2656-.7617-.4609 0-.8164.1826-1.0664.5479s-.375.915-.375 1.6494z"/><path d="m264.3668 308.3403 1.2891-4.3008h1.5176l-2.5195 7.3008c-.3867 1.0664-1.043 1.5996-1.9688 1.5996-.207 0-.4355-.0352-.6855-.106v-1.1069l.2695.0176c.3594 0 .6299-.0654.8115-.1963s.3252-.3501.4307-.6587l.2051-.5444-2.2266-6.3057h1.5352l1.3418 4.3008z"/><path d="m271.3805 311.1118h-1.1191l3.3574-9.2637h1.1191z"/><path d="m281.7867 304.9302 1.793-3.082h1.7109l-2.5781 4.2305 2.6367 4.3008h-1.7285l-1.834-3.1289-1.8398 3.1289h-1.7227l2.6426-4.3008-2.584-4.2305h1.7109z"/><path d="m288.3668 301.8481 2.4609 6.5391 2.4551-6.5391h1.916v8.5312h-1.4766v-2.8125l.1465-3.7617-2.5195 6.5742h-1.0605l-2.5137-6.5684.1465 3.7559v2.8125h-1.4766v-8.5312z"/><path d="m298.4332 307.2153v3.1641h-1.4824v-8.5312h3.2637c.9531 0 1.71.2485 2.2705.7451s.8408 1.1533.8408 1.9707c0 .8369-.2744 1.4878-.8232 1.9531-.5488.4658-1.3174.6982-2.3057.6982zm0-1.1953h1.7812c.5273 0 .9297-.124 1.207-.3721s.416-.6064.416-1.0752c0-.4609-.1406-.8291-.4219-1.1045s-.668-.417-1.1602-.4248h-1.8223v2.9766z"/><path d="m306.1031 307.2153v3.1641h-1.4824v-8.5312h3.2637c.9531 0 1.71.2485 2.2705.7451s.8408 1.1533.8408 1.9707c0 .8369-.2744 1.4878-.8232 1.9531-.5488.4658-1.3174.6982-2.3057.6982zm0-1.1953h1.7812c.5273 0 .9297-.124 1.207-.3721s.416-.6064.416-1.0752c0-.4609-.1406-.8291-.4219-1.1045s-.668-.417-1.1602-.4248h-1.8223v2.9766z"/></g><rect fill="#fff" height="34.6666" rx="2.9879" stroke="#14146d" stroke-miterlimit="10" stroke-width="1.8891" width="139.573" x="351.0551" y="288.5391"/><path d="m408.2379 301.8481h1.4766v5.9824c0 .8164-.2549 1.4648-.7646 1.9453s-1.1826.7207-2.0186.7207c-.8906 0-1.5781-.2246-2.0625-.6738s-.7266-1.0742-.7266-1.875h1.4766c0 .4531.1123.7939.3369 1.0225s.5498.3428.9756.3428c.3984 0 .7158-.1318.9521-.3955s.3545-.6279.3545-1.0928z" fill="#0b153b"/><path d="m411.273 302.3931c0-.2188.0693-.4004.208-.5449s.3369-.2168.5947-.2168.457.0723.5977.2168.2109.3262.2109.5449c0 .2148-.0703.3936-.2109.5361s-.3398.2139-.5977.2139-.4561-.0713-.5947-.2139-.208-.3213-.208-.5361zm1.5117 7.9863h-1.4238v-6.3398h1.4238z" fill="#0b153b"/><path d="m416.939 309.3599c.3555 0 .6504-.1035.8848-.3105s.3594-.4629.375-.7676h1.3418c-.0156.3945-.1387.7627-.3691 1.1045s-.543.6123-.9375.8115-.8203.2988-1.2773.2988c-.8867 0-1.5898-.2871-2.1094-.8613s-.7793-1.3672-.7793-2.3789v-.1465c0-.9648.2578-1.7373.7734-2.3174s1.2188-.8701 2.1094-.8701c.7539 0 1.3682.2197 1.8428.6592s.7236 1.0166.7471 1.7314h-1.3418c-.0156-.3633-.1396-.6621-.3721-.8965s-.5283-.3516-.8877-.3516c-.4609 0-.8164.167-1.0664.501s-.377.8408-.3809 1.5205v.2285c0 .6875.124 1.2002.3721 1.5381s.6064.5068 1.0752.5068z" fill="#0b153b"/><path d="m420.3492 307.1509c0-.6211.123-1.1807.3691-1.6787s.5918-.8809 1.0371-1.1484.957-.4014 1.5352-.4014c.8555 0 1.5498.2754 2.083.8262s.8213 1.2812.8643 2.1914l.0059.334c0 .625-.1201 1.1836-.3604 1.6758s-.584.873-1.0312 1.1426-.9639.4043-1.5498.4043c-.8945 0-1.6104-.2979-2.1475-.8936s-.8057-1.3896-.8057-2.3818v-.0703zm1.4238.123c0 .6523.1348 1.1631.4043 1.5322s.6445.5537 1.125.5537.8545-.1875 1.1221-.5625.4014-.9238.4014-1.6465c0-.6406-.1377-1.1484-.4131-1.5234s-.6494-.5625-1.1221-.5625c-.4648 0-.834.1846-1.1074.5537s-.4102.9209-.4102 1.6553z" fill="#0b153b"/><path d="m427.9488 310.3794v-5.2852h-.9668v-1.0547h.9668v-.5801c0-.7031.1953-1.2461.5859-1.6289s.9375-.5742 1.6406-.5742c.25 0 .5156.0352.7969.1055l-.0352 1.1133c-.1562-.0312-.3379-.0469-.5449-.0469-.6797 0-1.0195.3496-1.0195 1.0488v.5625h1.2891v1.0547h-1.2891v5.2852z" fill="#0b153b"/><path d="m431.4351 307.1509c0-.6211.123-1.1807.3691-1.6787s.5918-.8809 1.0371-1.1484.957-.4014 1.5352-.4014c.8555 0 1.5498.2754 2.083.8262s.8213 1.2812.8643 2.1914l.0059.334c0 .625-.1201 1.1836-.3604 1.6758s-.584.873-1.0312 1.1426-.9639.4043-1.5498.4043c-.8945 0-1.6104-.2979-2.1475-.8936s-.8057-1.3896-.8057-2.3818v-.0703zm1.4239.123c0 .6523.1348 1.1631.4043 1.5322s.6445.5537 1.125.5537.8545-.1875 1.1221-.5625.4014-.9238.4014-1.6465c0-.6406-.1377-1.1484-.4131-1.5234s-.6494-.5625-1.1221-.5625c-.4648 0-.834.1846-1.1074.5537s-.4102.9209-.4102 1.6553z" fill="#0b153b"/><rect fill="#d9efce" height="41.5555" rx="5.5489" stroke="#69a547" stroke-miterlimit="10" stroke-width="2" width="163.9446" y="503.4276"/><path d="m75.3336 519.959h1.4766v5.9824c0 .8164-.2549 1.4648-.7646 1.9453s-1.1826.7207-2.0186.7207c-.8906 0-1.5781-.2246-2.0625-.6738s-.7266-1.0742-.7266-1.875h1.4766c0 .4531.1123.7939.3369 1.0225s.5498.3428.9756.3428c.3984 0 .7158-.1318.9521-.3955s.3545-.6279.3545-1.0928z" fill="#0b153b"/><path d="m81.5094 526.6328 2.168-6.6738h1.6289l-3.0703 8.5312h-1.4355l-3.0586-8.5312h1.623z" fill="#0b153b"/><path d="m86.2672 528.4902v-8.5312h2.9238c.9648 0 1.6992.1934 2.2031.5801s.7559.9629.7559 1.7285c0 .3906-.1055.7422-.3164 1.0547s-.5195.5547-.9258.7266c.4609.125.8174.3604 1.0693.7061s.3779.7607.3779 1.2451c0 .8008-.2568 1.416-.7705 1.8457s-1.249.6445-2.2061.6445h-3.1113zm1.4824-4.9394h1.4531c.4609 0 .8213-.1045 1.0811-.3135s.3896-.5049.3896-.8877c0-.4219-.1201-.7266-.3604-.9141s-.6143-.2812-1.1221-.2812h-1.4414v2.3965zm0 1.0898v2.666h1.6465c.4648 0 .8281-.1152 1.0898-.3457s.3926-.5508.3926-.9609c0-.8867-.4531-1.3398-1.3594-1.3594z" fill="#0b153b"/><rect fill="#d9efce" height="41.5555" rx="5.5489" stroke="#69a547" stroke-miterlimit="10" stroke-width="2" width="163.9446" x="177.5277" y="503.4276"/><path d="m252.8609 519.959h1.4766v5.9824c0 .8164-.2549 1.4648-.7646 1.9453s-1.1826.7207-2.0186.7207c-.8906 0-1.5781-.2246-2.0625-.6738s-.7266-1.0742-.7266-1.875h1.4766c0 .4531.1123.7939.3369 1.0225s.5498.3428.9756.3428c.3984 0 .7158-.1318.9521-.3955s.3545-.6279.3545-1.0928z" fill="#0b153b"/><path d="m259.0367 526.6328 2.168-6.6738h1.6289l-3.0703 8.5312h-1.4355l-3.0586-8.5312h1.623z" fill="#0b153b"/><path d="m263.7945 528.4902v-8.5312h2.9238c.9648 0 1.6992.1934 2.2031.5801s.7559.9629.7559 1.7285c0 .3906-.1055.7422-.3164 1.0547s-.5195.5547-.9258.7266c.4609.125.8174.3604 1.0693.7061s.3779.7607.3779 1.2451c0 .8008-.2568 1.416-.7705 1.8457s-1.249.6445-2.2061.6445h-3.1113zm1.4824-4.9394h1.4531c.4609 0 .8213-.1045 1.0811-.3135s.3896-.5049.3896-.8877c0-.4219-.1201-.7266-.3604-.9141s-.6143-.2812-1.1221-.2812h-1.4414v2.3965zm0 1.0898v2.666h1.6465c.4648 0 .8281-.1152 1.0898-.3457s.3926-.5508.3926-.9609c0-.8867-.4531-1.3398-1.3594-1.3594z" fill="#0b153b"/><rect fill="#d9efce" height="41.5555" rx="5.5489" stroke="#69a547" stroke-miterlimit="10" stroke-width="2" width="163.9446" x="355.0554" y="503.4276"/><path d="m430.3892 519.959h1.4766v5.9824c0 .8164-.2549 1.4648-.7646 1.9453s-1.1826.7207-2.0186.7207c-.8906 0-1.5781-.2246-2.0625-.6738s-.7266-1.0742-.7266-1.875h1.4766c0 .4531.1123.7939.3369 1.0225s.5498.3428.9756.3428c.3984 0 .7158-.1318.9521-.3955s.3545-.6279.3545-1.0928z" fill="#0b153b"/><path d="m436.565 526.6328 2.168-6.6738h1.6289l-3.0703 8.5312h-1.4355l-3.0586-8.5312h1.623z" fill="#0b153b"/><path d="m441.3228 528.4902v-8.5312h2.9238c.9648 0 1.6992.1934 2.2031.5801s.7559.9629.7559 1.7285c0 .3906-.1055.7422-.3164 1.0547s-.5195.5547-.9258.7266c.4609.125.8174.3604 1.0693.7061s.3779.7607.3779 1.2451c0 .8008-.2568 1.416-.7705 1.8457s-1.249.6445-2.2061.6445h-3.1113zm1.4825-4.9394h1.4531c.4609 0 .8213-.1045 1.0811-.3135s.3896-.5049.3896-.8877c0-.4219-.1201-.7266-.3604-.9141s-.6143-.2812-1.1221-.2812h-1.4414v2.3965zm0 1.0898v2.666h1.6465c.4648 0 .8281-.1152 1.0898-.3457s.3926-.5508.3926-.9609c0-.8867-.4531-1.3398-1.3594-1.3594z" fill="#0b153b"/><rect fill="none" height="41.5555" rx="5.5488" stroke="#69a547" stroke-dasharray="0 0 5.0178 5.0178" stroke-miterlimit="10" stroke-width="2" width="163.9446" y="563.3163"/><path d="m75.3336 579.8477h1.4766v5.9824c0 .8164-.2549 1.4648-.7646 1.9453s-1.1826.7207-2.0186.7207c-.8906 0-1.5781-.2246-2.0625-.6738s-.7266-1.0742-.7266-1.875h1.4766c0 .4531.1123.7939.3369 1.0225s.5498.3428.9756.3428c.3984 0 .7158-.1318.9521-.3955s.3545-.6279.3545-1.0928z" fill="#0b153b"/><path d="m81.5094 586.5215 2.168-6.6738h1.6289l-3.0703 8.5312h-1.4355l-3.0586-8.5312h1.623z" fill="#0b153b"/><path d="m86.2672 588.3789v-8.5312h2.9238c.9648 0 1.6992.1934 2.2031.5801s.7559.9629.7559 1.7285c0 .3906-.1055.7422-.3164 1.0547s-.5195.5547-.9258.7266c.4609.125.8174.3604 1.0693.7061s.3779.7607.3779 1.2451c0 .8008-.2568 1.416-.7705 1.8457s-1.249.6445-2.2061.6445h-3.1113zm1.4824-4.9394h1.4531c.4609 0 .8213-.1045 1.0811-.3135s.3896-.5049.3896-.8877c0-.4219-.1201-.7266-.3604-.9141s-.6143-.2812-1.1221-.2812h-1.4414v2.3965zm0 1.0898v2.666h1.6465c.4648 0 .8281-.1152 1.0898-.3457s.3926-.5508.3926-.9609c0-.8867-.4531-1.3398-1.3594-1.3594z" fill="#0b153b"/><rect fill="none" height="41.5555" rx="5.5489" stroke="#69a547" stroke-dasharray="0 0 5.0178 5.0178" stroke-miterlimit="10" stroke-width="2" width="163.9446" x="177.5277" y="563.3163"/><path d="m252.8609 579.8477h1.4766v5.9824c0 .8164-.2549 1.4648-.7646 1.9453s-1.1826.7207-2.0186.7207c-.8906 0-1.5781-.2246-2.0625-.6738s-.7266-1.0742-.7266-1.875h1.4766c0 .4531.1123.7939.3369 1.0225s.5498.3428.9756.3428c.3984 0 .7158-.1318.9521-.3955s.3545-.6279.3545-1.0928z" fill="#0b153b"/><path d="m259.0367 586.5215 2.168-6.6738h1.6289l-3.0703 8.5312h-1.4355l-3.0586-8.5312h1.623z" fill="#0b153b"/><path d="m263.7945 588.3789v-8.5312h2.9238c.9648 0 1.6992.1934 2.2031.5801s.7559.9629.7559 1.7285c0 .3906-.1055.7422-.3164 1.0547s-.5195.5547-.9258.7266c.4609.125.8174.3604 1.0693.7061s.3779.7607.3779 1.2451c0 .8008-.2568 1.416-.7705 1.8457s-1.249.6445-2.2061.6445h-3.1113zm1.4824-4.9394h1.4531c.4609 0 .8213-.1045 1.0811-.3135s.3896-.5049.3896-.8877c0-.4219-.1201-.7266-.3604-.9141s-.6143-.2812-1.1221-.2812h-1.4414v2.3965zm0 1.0898v2.666h1.6465c.4648 0 .8281-.1152 1.0898-.3457s.3926-.5508.3926-.9609c0-.8867-.4531-1.3398-1.3594-1.3594z" fill="#0b153b"/><rect fill="none" height="41.5555" rx="5.5489" stroke="#69a547" stroke-dasharray="0 0 5.0178 5.0178" stroke-miterlimit="10" stroke-width="2" width="163.9446" x="355.0554" y="563.3163"/><path d="m430.3892 579.8477h1.4766v5.9824c0 .8164-.2549 1.4648-.7646 1.9453s-1.1826.7207-2.0186.7207c-.8906 0-1.5781-.2246-2.0625-.6738s-.7266-1.0742-.7266-1.875h1.4766c0 .4531.1123.7939.3369 1.0225s.5498.3428.9756.3428c.3984 0 .7158-.1318.9521-.3955s.3545-.6279.3545-1.0928z" fill="#0b153b"/><path d="m436.565 586.5215 2.168-6.6738h1.6289l-3.0703 8.5312h-1.4355l-3.0586-8.5312h1.623z" fill="#0b153b"/><path d="m441.3228 588.3789v-8.5312h2.9238c.9648 0 1.6992.1934 2.2031.5801s.7559.9629.7559 1.7285c0 .3906-.1055.7422-.3164 1.0547s-.5195.5547-.9258.7266c.4609.125.8174.3604 1.0693.7061s.3779.7607.3779 1.2451c0 .8008-.2568 1.416-.7705 1.8457s-1.249.6445-2.2061.6445h-3.1113zm1.4825-4.9394h1.4531c.4609 0 .8213-.1045 1.0811-.3135s.3896-.5049.3896-.8877c0-.4219-.1201-.7266-.3604-.9141s-.6143-.2812-1.1221-.2812h-1.4414v2.3965zm0 1.0898v2.666h1.6465c.4648 0 .8281-.1152 1.0898-.3457s.3926-.5508.3926-.9609c0-.8867-.4531-1.3398-1.3594-1.3594z" fill="#0b153b"/><path d="m81.9722 483.5847v-75.4902h355.0555v75.4902" fill="none" stroke="#69a547" stroke-miterlimit="10" stroke-width="2"/><path d="m86.9586 482.1257-4.9864 8.6353-4.9863-8.6353z" fill="#69a547"/><path d="m432.0413 482.1257 4.9864 8.6353 4.9863-8.6353z" fill="#69a547"/><path d="m259.4998 408.0945v75.4902" fill="none" stroke="#69a547" stroke-miterlimit="10" stroke-width="2"/><path d="m254.5135 482.1257 4.9863 8.6353 4.9865-8.6353z" fill="#69a547"/><path d="m420.8416 408.0945v-67.4903" fill="none" stroke="#69a547" stroke-miterlimit="10" stroke-width="2"/><path d="m425.828 342.0631-4.9864-8.6352-4.9863 8.6352z" fill="#69a547"/><path d="m100.3892 503.4276v-79.3332h143.9997v-83.4902" fill="none" stroke="#ef544d" stroke-miterlimit="10" stroke-width="2"/><path d="m249.3752 342.0631-4.9863-8.6352-4.9864 8.6352z" fill="#ef544d"/><path d="m276.351 503.4276v-162.8234" fill="none" stroke="#ef544d" stroke-miterlimit="10" stroke-width="2"/><path d="m281.3374 342.0631-4.9864-8.6352-4.9863 8.6352z" fill="#ef544d"/><path d="m399.0553 503.4276v-79.3332h-89.7776v-83.4902" fill="none" stroke="#ef544d" stroke-miterlimit="10" stroke-width="2"/><path d="m314.264 342.0631-4.9863-8.6352-4.9864 8.6352z" fill="#ef544d"/><path d="m351.0551 238.7615h-74.7041v24.3792" fill="none" stroke="#000" stroke-miterlimit="10" stroke-width="2"/><path d="m271.3647 261.6817 4.9863 8.6353 4.9864-8.6353z"/></svg>