<svg viewBox="0 0 200 200" xmlns="http://www.w3.org/2000/svg"><path d="m96 117.92a23.73 23.73 0 0 0 -23.75 23.75 23.75 23.75 0 0 0 47.5 0 23.74 23.74 0 0 0 -23.75-23.75z" fill="currentColor"/><path d="m125.59 113.33a40.85 40.85 0 0 1 -6.25 61.67c19.58-5.83 35.83-20.83 42.92-38.33 10-24.59.83-42.92-15-60a37 37 0 0 1 .83 6.66 31.37 31.37 0 0 1 -22.5 30z" fill="#32363b"/><path d="m98.92 83.33a18.06 18.06 0 0 0 17.92 17.92c9.58 0 18.33-8.33 18.33-17.92a18 18 0 0 0 -17.91-17.91c-9.59 0-18.34 7.91-18.34 17.91z" fill="currentColor"/><path d="m64.76 167.5a40.72 40.72 0 0 1 26.24-66.67 32.09 32.09 0 0 1 -5.42-17.5 31.48 31.48 0 0 1 31.25-31.25 14.09 14.09 0 0 1 4.17.42c-10-8.75-20.41-17.92-28.33-27.5 4.17 42.92-38.75 27.08-55 66.67-10.41 26.25-.83 58.75 27.09 75.83z" fill="#32363b"/></svg>