<svg viewBox="0 0 200 200" xmlns="http://www.w3.org/2000/svg"><path d="m101.63 101.63a4.28 4.28 0 1 0 -4.28-4.28 4.3 4.3 0 0 0 4.28 4.28zm-12.84-11.82a4.3 4.3 0 0 0 4.28-4.28 4.17 4.17 0 0 0 -4.28-4.28 4.31 4.31 0 0 0 -4.28 4.28 4.18 4.18 0 0 0 4.28 4.28zm12.84 0a4.3 4.3 0 0 0 4.28-4.28 4.17 4.17 0 0 0 -4.28-4.28 4.3 4.3 0 0 0 -4.28 4.28 4.17 4.17 0 0 0 4.28 4.28zm12.84 0a4.3 4.3 0 0 0 4.28-4.28 4.17 4.17 0 0 0 -4.28-4.28 4.28 4.28 0 0 0 0 8.56zm-25.68-11.62a4.3 4.3 0 0 0 4.28-4.28 4.18 4.18 0 0 0 -4.28-4.28 4.31 4.31 0 0 0 -4.28 4.28 4.18 4.18 0 0 0 4.28 4.28zm12.84 0a4.3 4.3 0 0 0 4.28-4.28 4.18 4.18 0 0 0 -4.28-4.28 4.3 4.3 0 0 0 -4.28 4.28 4.17 4.17 0 0 0 4.28 4.28zm12.84 0a4.3 4.3 0 0 0 4.28-4.28 4.18 4.18 0 0 0 -4.28-4.28 4.28 4.28 0 0 0 0 8.56zm-12.84-11.61a4.3 4.3 0 0 0 4.28-4.28 4.17 4.17 0 0 0 -4.28-4.3 4.28 4.28 0 0 0 0 8.56zm12.84 0a4.3 4.3 0 0 0 4.28-4.28 4.17 4.17 0 0 0 -4.28-4.3 4.3 4.3 0 0 0 -4.28 4.28 4.45 4.45 0 0 0 4.28 4.3zm-25.68 0a4.3 4.3 0 0 0 4.28-4.28 4.17 4.17 0 0 0 -4.28-4.3 4.28 4.28 0 0 0 0 8.56zm11.21 106.79-75-146.74h150z" fill="#32363b" fill-rule="evenodd"/></svg>