<svg viewBox="0 0 850.45 865.96" xmlns="http://www.w3.org/2000/svg"><g fill="currentColor"><path d="m188.71 378.43a54.61 54.61 0 0 0 -42.71 17.69l-2.22 2.43h-143.78v18.62a50.3 50.3 0 0 0 50.24 50.24h93.51l2.22 2.44a54.79 54.79 0 0 0 40.29 17.74 54.61 54.61 0 0 0 2.45-109.16z"/><path d="m697.46 192.92h152.99v71h-152.99z"/><path d="m697.46 278.92h152.99v71h-152.99z"/><path d="m682.46 501.05h35.65v-136.13h-35.65v-187h35.65v-72.92a11.46 11.46 0 0 0 -11.45-11.5h-537.51a11.46 11.46 0 0 0 -11.45 11.5v159.41a13.81 13.81 0 0 0 13.79 13.79h114.72a40.67 40.67 0 0 1 40.63 40.63v228.3a40.68 40.68 0 0 1 -40.63 40.64h-114.72a13.8 13.8 0 0 0 -13.79 13.79v159.44a11.46 11.46 0 0 0 11.45 11.44h537.51a11.46 11.46 0 0 0 11.45-11.44v-73h-35.65zm-169.69 41.07a109.14 109.14 0 1 1 109.13-109.12 109.26 109.26 0 0 1 -109.13 109.12z"/></g><path d="m733.11 364.92h78.5v136.13h-78.5z" fill="currentColor"/><path d="m733.11 761a26.47 26.47 0 0 1 -26.45 26.44h-537.51a26.48 26.48 0 0 1 -26.45-26.44v-159.44a28.82 28.82 0 0 1 28.79-28.79h114.72a25.66 25.66 0 0 0 25.63-25.64v-228.3a25.66 25.66 0 0 0 -25.63-25.63h-114.72a28.83 28.83 0 0 1 -28.79-28.79v-159.41a26.48 26.48 0 0 1 26.45-26.5h537.51a26.47 26.47 0 0 1 26.45 26.5v73h78.5v-119.71a58.29 58.29 0 0 0 -58.29-58.29h-630.83a58.29 58.29 0 0 0 -58.29 58.29v325.26h73.05a69.61 69.61 0 1 1 0 98.86h-73v325.26a58.29 58.29 0 0 0 58.24 58.33h630.83a58.29 58.29 0 0 0 58.29-58.29v-119.66h-78.5z" fill="#32363b"/><path d="m697.46 516.05h152.99v71h-152.99z" fill="currentColor"/><path d="m697.46 602.05h152.99v71h-152.99z" fill="currentColor"/><path d="m512.77 316.34a116.64 116.64 0 1 0 116.63 116.66 116.77 116.77 0 0 0 -116.63-116.66zm7.5 15.28a101.19 101.19 0 0 1 58.83 24.38l-34.1 34.14a53.31 53.31 0 0 0 -24.73-10.26zm-50.34 69.13a53.43 53.43 0 0 0 -10.27 24.73h-48.25a101.18 101.18 0 0 1 24.41-58.83zm-23.5-44.75a101.19 101.19 0 0 1 58.84-24.42v48.26a53.3 53.3 0 0 0 -24.74 10.26zm13.23 84.44a53.46 53.46 0 0 0 10.27 24.74l-34.11 34.1a101.18 101.18 0 0 1 -24.41-58.84zm20.87 35.34a53.3 53.3 0 0 0 24.74 10.26v48.26a101.19 101.19 0 0 1 -58.84-24.42zm39.74 10.26a53.31 53.31 0 0 0 24.73-10.22l34.1 34.1a101.19 101.19 0 0 1 -58.83 24.42zm35.34-20.87a53.37 53.37 0 0 0 10.26-24.73h48.26a101.19 101.19 0 0 1 -24.42 58.84zm10.26-39.73a53.41 53.41 0 0 0 -10.26-24.73l34.1-34.1a101.19 101.19 0 0 1 24.42 58.83zm-167.87-106.44a8.28 8.28 0 1 1 -8.28-8.29 8.28 8.28 0 0 1 8.28 8.29zm229.51 0a8.28 8.28 0 1 0 8.28-8.29 8.28 8.28 0 0 0 -8.27 8.29zm-229.51 228a8.28 8.28 0 1 0 -8.28 8.28 8.28 8.28 0 0 0 8.28-8.28zm229.51 0a8.28 8.28 0 1 1 8.28 8.28 8.28 8.28 0 0 1 -8.27-8.28z" fill="currentColor class="u-fill-current-color"/></svg>
