<svg viewBox="0 0 200 200" xmlns="http://www.w3.org/2000/svg"><path d="m64.1 75.55h27.2l-4.2 16.1a9.81 9.81 0 0 1 -3.7 5.4 9.52 9.52 0 0 1 -6.1 2h-12.6a12.6 12.6 0 0 0 -7.6 2.5 12.92 12.92 0 0 0 -4.7 6.8 13 13 0 0 0 2.3 11.2 10.59 10.59 0 0 0 4.3 3.5 12.65 12.65 0 0 0 5.8 1.3h7.7a4.1 4.1 0 0 1 3.5 1.8 4.44 4.44 0 0 1 .8 3.9l-4.8 17.8h-8.4a33.93 33.93 0 0 1 -15.9-3.8 34.42 34.42 0 0 1 -12-10 36.09 36.09 0 0 1 -6.6-14.3 36.46 36.46 0 0 1 .4-16.4l.5-1.8a37.58 37.58 0 0 1 4.8-10.55 34.81 34.81 0 0 1 7.8-8.4 35.47 35.47 0 0 1 10-5.3 39 39 0 0 1 11.5-1.75z" fill="currentColor"/><path d="m77.7 148.05 23.7-88.7a9.81 9.81 0 0 1 3.7-5.4 9.52 9.52 0 0 1 6.1-2h25.2a33.93 33.93 0 0 1 15.9 3.8 34.42 34.42 0 0 1 12 10 37.52 37.52 0 0 1 6.6 14.3 35.13 35.13 0 0 1 -.5 16.4l-.5 1.8a37.58 37.58 0 0 1 -4.8 10.6 36.53 36.53 0 0 1 -7.7 8.4 33.35 33.35 0 0 1 -10 5.4 34.68 34.68 0 0 1 -11.5 1.9h-21.8l4.3-16.2a9.93 9.93 0 0 1 3.7-5.3 9.52 9.52 0 0 1 6.1-2h7a12.05 12.05 0 0 0 7.7-2.7 12.8 12.8 0 0 0 4.6-6.8 11.8 11.8 0 0 0 .1-5.9 12.67 12.67 0 0 0 -2.4-5.1 13 13 0 0 0 -4.3-3.7 12.73 12.73 0 0 0 -5.8-1.4h-13.6l-17.6 65.3a10.78 10.78 0 0 1 -3.5 5.3 9.52 9.52 0 0 1 -6.1 2z" fill="#32363b"/></svg>