<svg viewBox="0 0 200 200" xmlns="http://www.w3.org/2000/svg"><path d="m132.81 90.62a4.69 4.69 0 0 1 -4.69-4.68v-23.44a28.12 28.12 0 0 0 -56.24 0v23.44a4.69 4.69 0 0 1 -9.38 0v-23.44a37.5 37.5 0 0 1 75 0v23.44a4.69 4.69 0 0 1 -4.69 4.68z" fill="currentColor" stroke="#32363b" stroke-linecap="round" stroke-linejoin="round" stroke-width="4.37"/><path d="m142.19 175h-84.38a14.08 14.08 0 0 1 -14.06-14.06v-65.63a14.08 14.08 0 0 1 14.06-14.06h84.38a14.08 14.08 0 0 1 14.06 14.06v65.63a14.08 14.08 0 0 1 -14.06 14.06z" fill="currentColor" stroke="#32363b" stroke-linecap="round" stroke-linejoin="round" stroke-width="4.37"/><path d="m95.92 149.9a4.07 4.07 0 0 1 -4-5l8.17-35.39a4.08 4.08 0 0 1 8 1.83l-8.17 35.39a4.06 4.06 0 0 1 -4 3.17zm21.78-5.44a4.09 4.09 0 0 1 -2.74-7.13l10.24-9.21-10.2-9.21a4.09 4.09 0 0 1 5.47-6.08l13.53 12.25a4.1 4.1 0 0 1 0 6.08l-13.61 12.25a4.11 4.11 0 0 1 -2.73 1.05zm-35.4 0a4.11 4.11 0 0 1 -2.73-1.05l-13.57-12.25a4.1 4.1 0 0 1 0-6.08l13.61-12.25a4.09 4.09 0 0 1 5.39 6.08l-10.2 9.21 10.2 9.21a4.09 4.09 0 0 1 -2.74 7.12z" fill="#fff"/></svg>