<svg viewBox="0 0 200 200" xmlns="http://www.w3.org/2000/svg"><g fill="currentColor"><path d="m137.46 50a3.1 3.1 0 0 1 -3.09 3.09h-101.63a3.09 3.09 0 0 1 -3.09-3.09v-17.22a3.09 3.09 0 0 1 3.09-3.09h101.63a3.1 3.1 0 0 1 3.09 3.09z"/><path d="m137.46 87.53a3.1 3.1 0 0 1 -3.09 3.09h-101.63a3.09 3.09 0 0 1 -3.09-3.09v-17.25a3.09 3.09 0 0 1 3.09-3.09h101.63a3.1 3.1 0 0 1 3.09 3.09z"/><path d="m137.46 125a3.1 3.1 0 0 1 -3.09 3.09h-101.63a3.09 3.09 0 0 1 -3.09-3.09v-17.22a3.09 3.09 0 0 1 3.09-3.09h101.63a3.1 3.1 0 0 1 3.09 3.09z"/><path d="m171 71.22-10.4 10.39-7.39-7.38a2.34 2.34 0 1 0 -3.46 3.15 1.29 1.29 0 0 0 .16.17l9 9a2.35 2.35 0 0 0 3.32 0l12.05-12a2.35 2.35 0 0 0 -3.28-3.33z"/><path d="m158.9 49.09a2.35 2.35 0 0 0 3.32 0l12.05-12.09a2.35 2.35 0 0 0 -3.27-3.28l-10.4 10.39-7.39-7.38a2.34 2.34 0 0 0 -3.3 3.32z"/></g><path d="m123.4 39.06h-79.69a2.35 2.35 0 0 0 0 4.69h79.69a2.35 2.35 0 0 0 0-4.69z" fill="#fff"/><path d="m134.37 25h-101.63a7.8 7.8 0 0 0 -7.74 7.78v17.22a7.79 7.79 0 0 0 7.78 7.78h101.59a7.79 7.79 0 0 0 7.78-7.78v-17.22a7.8 7.8 0 0 0 -7.78-7.78zm3.09 25a3.1 3.1 0 0 1 -3.09 3.09h-101.63a3.09 3.09 0 0 1 -3.09-3.09v-17.22a3.09 3.09 0 0 1 3.09-3.09h101.63a3.1 3.1 0 0 1 3.09 3.09z" fill="#32363b"/><path d="m134.37 62.5h-101.63a7.8 7.8 0 0 0 -7.74 7.78v17.25a7.79 7.79 0 0 0 7.78 7.78h101.59a7.79 7.79 0 0 0 7.78-7.78v-17.25a7.8 7.8 0 0 0 -7.78-7.78zm3.09 25a3.1 3.1 0 0 1 -3.09 3.09h-101.63a3.09 3.09 0 0 1 -3.09-3.09v-17.22a3.09 3.09 0 0 1 3.09-3.09h101.63a3.1 3.1 0 0 1 3.09 3.09z" fill="#32363b"/><path d="m171 108.72-10.4 10.39-7.39-7.38a2.34 2.34 0 0 0 -3.3 3.32l9 9a2.35 2.35 0 0 0 3.32 0l12.05-12a2.34 2.34 0 1 0 -3.14-3.48 1.29 1.29 0 0 0 -.14.15z" fill="currentColor"/><path d="m123.4 137.5h-79.69a18.75 18.75 0 0 0 0 37.5h79.69a18.75 18.75 0 0 0 0-37.5zm0 32.81h-79.69a14.06 14.06 0 0 1 0-28.12h79.69a14.06 14.06 0 0 1 0 28.12z" fill="#32363b"/><path d="m90.58 147.57a2.34 2.34 0 0 0 -3.31 3.3l3 3h-18.44a2.34 2.34 0 0 0 0 4.68h18.45l-3 3a2.33 2.33 0 0 0 0 3.31 2.33 2.33 0 0 0 3.3 0l7-7a2.34 2.34 0 0 0 0-3.3z" fill="#32363b"/><path d="m134.37 100h-101.63a7.8 7.8 0 0 0 -7.74 7.78v17.22a7.79 7.79 0 0 0 7.78 7.78h101.59a7.79 7.79 0 0 0 7.78-7.78v-17.22a7.8 7.8 0 0 0 -7.78-7.78zm3.09 25a3.1 3.1 0 0 1 -3.09 3.09h-101.63a3.09 3.09 0 0 1 -3.09-3.09v-17.22a3.09 3.09 0 0 1 3.09-3.09h101.63a3.1 3.1 0 0 1 3.09 3.09z" fill="#32363b"/><circle cx="83.55" cy="78.91" fill="#fff" r="2.34"/><circle cx="69.49" cy="78.91" fill="#fff" r="2.34"/><circle cx="55.5" cy="78.91" fill="#32363b" r="2.34"/><circle cx="97.62" cy="78.91" fill="#fff" r="2.34"/><circle cx="111.68" cy="78.91" fill="#32363b" r="2.34"/><circle cx="83.55" cy="116.41" fill="#fff" r="2.34"/><circle cx="69.49" cy="116.41" fill="#fff" r="2.34"/><circle cx="55.5" cy="116.41" fill="#32363b" r="2.34"/><circle cx="97.62" cy="116.41" fill="#fff" r="2.34"/><circle cx="111.68" cy="116.41" fill="#32363b" r="2.34"/></svg>