<svg viewBox="0 0 1150 800" xmlns="http://www.w3.org/2000/svg" fill-rule="evenodd" clip-rule="evenodd"
    stroke-linejoin="round" stroke-miterlimit="2">
    <path fill="url(#prefix___Radial1)" fill-rule="nonzero" stroke="#fff" d="M0 0h1150v800H0z" />
    <path
        d="M65 52.5h270c8.284 0 15 6.716 15 15v665c0 8.284-6.716 15-15 15H65c-8.284 0-15-6.716-15-15v-665c0-8.284 6.716-15 15-15z"
        fill="#fff" fill-opacity=".2" fill-rule="nonzero" />
    <path
        d="M65 52.5h270c8.284 0 15 6.716 15 15v665c0 8.284-6.716 15-15 15H65c-8.284 0-15-6.716-15-15v-665c0-8.284 6.716-15 15-15zm0 0h0"
        fill="none" stroke="#fff" stroke-linecap="round" stroke-miterlimit="10" />
    <path
        d="M120 152.5h160c8.284 0 15 6.716 15 15v200c0 8.284-6.716 15-15 15H120c-8.284 0-15-6.716-15-15v-200c0-8.284 6.716-15 15-15zm0 0h0"
        fill="none" stroke="#fff" stroke-linecap="round" stroke-miterlimit="10" />
    <path fill="#fff"
        d="M172.544 187.5h3.973v8.699h-3.973zM223.484 187.5h3.973v8.699h-3.973zM210.749 187.5h3.973v8.699h-3.973zM185.278 187.5h3.973v8.699h-3.973zM198.014 187.5h3.973v8.699h-3.973zM172.544 258.801h3.973v8.699h-3.973zM223.484 258.801h3.973v8.699h-3.973zM210.749 258.801h3.973v8.699h-3.973zM185.278 258.801h3.973v8.699h-3.973zM198.014 258.801h3.973v8.699h-3.973zM160 250.981h8.698v3.973H160zM160 200.032h8.698v3.973H160zM160 212.769h8.698v3.973H160zM160 238.243h8.698v3.973H160zM160 225.506h8.698v3.973H160zM231.302 250.987H240v3.973h-8.698zM231.302 200.038H240v3.973h-8.698zM231.302 212.775H240v3.973h-8.698zM231.302 238.25H240v3.973h-8.698zM231.302 225.512H240v3.973h-8.698z" />
    <path d="M227.414 254.919h-54.828v-54.838h54.828v54.838zm-3.888-50.949h-47.052v47.06h47.052v-47.06z" fill="#fff"
        fill-rule="nonzero" />
    <path
        d="M120 442.5h160c8.284 0 15 6.716 15 15v230c0 8.284-6.716 15-15 15H120c-8.284 0-15-6.716-15-15v-230c0-8.284 6.716-15 15-15zm0 0h0"
        fill="none" stroke="#fff" stroke-linecap="round" stroke-miterlimit="10" />
    <path
        d="M226.588 545.494c2.115 2.016 2.115 5.284 0 7.3-2.114 2.015-5.542 2.015-7.656 0-2.115-2.016-2.115-5.284 0-7.3 2.114-2.016 5.542-2.016 7.656 0zM226.588 515.596c2.115 2.016 2.115 5.284 0 7.3-2.114 2.016-5.542 2.016-7.656 0-2.115-2.016-2.115-5.284 0-7.3 2.114-2.015 5.542-2.015 7.656 0z"
        fill="#fff" fill-rule="nonzero" />
    <path
        d="M160 501.073c0-2.458 1.774-5.03 5.519-7.073 6.466-3.527 19.477-6.044 34.483-6.044 15.002 0 28.009 2.517 34.479 6.044 3.745 2.043 5.519 4.615 5.519 7.073v53.837c0 2.446-1.774 5.011-5.526 7.044-6.466 3.502-19.474 6.002-34.472 6.002-15.002 0-28.01-2.5-34.476-6.002-3.752-2.033-5.526-4.598-5.526-7.044v-53.837zm74.625 53.837c0-.106-.017-6.971 0-6.961v-15.406c-.103.049-.206.098-.312.146-6.432 2.961-19.385 5.069-34.311 5.069-14.93 0-27.883-2.108-34.315-5.069-.106-.048-.209-.097-.312-.146v15.406c.017-.009 0 6.861 0 6.961 0 .517.446.928.995 1.393 1.05.885 2.598 1.681 4.524 2.419 6.562 2.516 17.164 4.109 29.108 4.109 11.94 0 22.542-1.593 29.104-4.109 1.926-.738 3.474-1.534 4.524-2.419.549-.465.995-.876.995-1.393zm0-46.844c-.017.01 0-6.886 0-6.993 0-.525-.446-.948-1.002-1.421-1.05-.891-2.598-1.693-4.52-2.435-6.566-2.532-17.164-4.136-29.101-4.136-11.941 0-22.539 1.604-29.105 4.136-1.922.742-3.47 1.544-4.52 2.435-.556.473-1.002.896-1.002 1.421 0 .102.017 7.002 0 6.993v11.971c.017-.007.031-.015.048-.023v6.172c-.028.031.093.269.192.372.165.17.36.333.59.497 1.057.758 2.616 1.437 4.555 2.068 6.593 2.147 17.243 3.51 29.242 3.51 11.995 0 22.645-1.363 29.238-3.51 1.939-.631 3.498-1.31 4.555-2.068.226-.163.425-.327.59-.497.1-.103.22-.345.189-.377v-6.169l.051.025v-11.971z"
        fill="#fff" fill-rule="nonzero" />
    <path
        d="M223.395 496.652c12.92 3.122 12.92 8.183 0 11.305s-33.867 3.122-46.787 0c-12.92-3.122-12.92-8.183 0-11.305s33.867-3.122 46.787 0z"
        fill="#fff" fill-rule="nonzero" />
    <path d="M200 382.5v60" fill="none" stroke="#fff" stroke-width="2" stroke-linecap="round" stroke-miterlimit="10" />
    <path
        d="M815 52.5h270c8.284 0 15 6.716 15 15v665c0 8.284-6.716 15-15 15H815c-8.284 0-15-6.716-15-15v-665c0-8.284 6.716-15 15-15z"
        fill="#26a8d4" fill-opacity=".2" fill-rule="nonzero" />
    <path
        d="M815 52.5h270c8.284 0 15 6.716 15 15v665c0 8.284-6.716 15-15 15H815c-8.284 0-15-6.716-15-15v-665c0-8.284 6.716-15 15-15zm0 0h0"
        fill="none" stroke="#41bbd4" stroke-linecap="round" stroke-miterlimit="10" />
    <path
        d="M870 152.5h160c8.284 0 15 6.716 15 15v200c0 8.284-6.716 15-15 15H870c-8.284 0-15-6.716-15-15v-200c0-8.284 6.716-15 15-15zm0 0h0"
        fill="none" stroke="#41bbd4" stroke-linecap="round" stroke-miterlimit="10" />
    <path
        d="M951.288 182.848l37.428 21.617a2.559 2.559 0 011.284 2.217v43.236c0 .917-.493 1.762-1.284 2.226l-37.428 21.608c-.8.464-1.776.464-2.568 0l-37.436-21.608a2.584 2.584 0 01-1.284-2.226v-43.236c0-.917.492-1.763 1.284-2.217l37.436-21.617a2.543 2.543 0 012.568 0zm-1.292 5.188l-34.861 20.137v40.263l34.861 20.128 34.869-20.128v-40.263l-34.869-20.137z"
        fill="#fff" fill-rule="nonzero" />
    <path d="M949.996 198.433l25.871 14.933v29.878l-25.871 14.939-25.865-14.939v-29.878l25.865-14.933z" fill="#19a553"
        fill-rule="nonzero" />
    <path
        d="M870 442.5h160c8.284 0 15 6.716 15 15v230c0 8.284-6.716 15-15 15H870c-8.284 0-15-6.716-15-15v-230c0-8.284 6.716-15 15-15zm0 0h0"
        fill="none" stroke="#41bbd4" stroke-linecap="round" stroke-miterlimit="10" />
    <path
        d="M974.93 535.934a6.085 6.085 0 00-8.602 0 6.085 6.085 0 000 8.602 6.085 6.085 0 008.602 0 6.085 6.085 0 000-8.602z"
        fill="#19a553" />
    <path
        d="M990 484.674v65.652c0 3.957-3.217 7.174-7.179 7.174h-65.643c-3.961 0-7.178-3.217-7.178-7.174v-65.652c0-3.957 3.217-7.174 7.178-7.174h65.643c3.962 0 7.179 3.217 7.179 7.174zm-5.405 0c0-.973-.795-1.772-1.774-1.772h-65.643c-.978 0-1.773.799-1.773 1.772v65.652c0 .973.795 1.772 1.773 1.772h65.643c.979 0 1.774-.799 1.774-1.772v-65.652z"
        fill="#fff" fill-rule="nonzero" />
    <path d="M950 382.5v60" fill="none" stroke="#41bbec" stroke-width="2" stroke-linecap="round"
        stroke-miterlimit="10" />
    <path d="M855 210.026l-521.7.297" fill="none" stroke="#41bbec" stroke-width="3" stroke-linecap="round"
        stroke-miterlimit="10" stroke-dasharray="12 12" />
    <path d="M299.7 210.342l33.607 12.581-.014-25.2-33.593 12.619z" fill="#41bbec" fill-rule="nonzero" stroke="#41bbec"
        stroke-width="3" stroke-linejoin="miter" stroke-miterlimit="10" />
    <path d="M295 325.344l521.7-.297" fill="none" stroke="#fff" stroke-width="3" stroke-linecap="round"
        stroke-miterlimit="10" />
    <path d="M850.3 325.028l-33.607-12.581.014 25.2 33.593-12.619z" fill="#fff" fill-rule="nonzero" stroke="#fff"
        stroke-width="3" stroke-linejoin="miter" stroke-miterlimit="10" />
    <path
        d="M596.213 126.192c11.716 11.716 11.716 30.711 0 42.426-11.716 11.716-30.711 11.716-42.426 0-11.716-11.715-11.716-30.71 0-42.426 11.715-11.716 30.711-11.716 42.426 0M596.213 368.647c11.716 11.716 11.716 30.711 0 42.427-11.716 11.715-30.711 11.715-42.426 0-11.716-11.716-11.716-30.711 0-42.427 11.716-11.716 30.711-11.716 42.426 0M374.215 304.098c11.715 11.716 11.715 30.711 0 42.426-11.716 11.716-30.711 11.716-42.427 0-11.715-11.715-11.715-30.71 0-42.426 11.716-11.716 30.711-11.716 42.427 0"
        fill="#1e9ad6" fill-rule="nonzero" stroke="#fff" stroke-width="3" stroke-linecap="round"
        stroke-miterlimit="10" />
    <g fill="#fff" fill-rule="nonzero">
        <path
            d="M184.714 311.231v-14.439h8.322v1.555h-6.485v4.524h5.47v1.555h-5.47v5.25h6.705v1.555h-8.542zM201.795 311.495c-1.206 0-2.287-.296-3.243-.888-.956-.592-1.708-1.447-2.257-2.565-.548-1.119-.822-2.459-.822-4.02 0-1.163.159-2.206.476-3.132.318-.926.768-1.714 1.351-2.365a5.89 5.89 0 012.038-1.487 6.24 6.24 0 012.535-.51c.875 0 1.652.175 2.33.526.679.351 1.228.77 1.649 1.257l-1.007 1.129a3.991 3.991 0 00-1.301-.959 3.893 3.893 0 00-1.631-.335c-.899 0-1.689.238-2.372.714-.682.477-1.215 1.151-1.598 2.022-.383.87-.575 1.904-.575 3.099 0 1.213.186 2.261.557 3.142.372.881.899 1.56 1.583 2.038.684.477 1.488.716 2.411.716.679 0 1.284-.132 1.816-.395a5.1 5.1 0 001.478-1.131l.958 1.076a6.331 6.331 0 01-1.917 1.527c-.707.361-1.527.541-2.459.541zM207.767 311.231v-1.108a99.133 99.133 0 003.578-3.657c.984-1.068 1.735-2.033 2.251-2.894.516-.861.774-1.669.774-2.425 0-.806-.218-1.464-.654-1.973-.436-.51-1.105-.764-2.008-.764-.584 0-1.127.161-1.628.483a6.084 6.084 0 00-1.355 1.198l-1.018-.99a8.035 8.035 0 011.874-1.573c.666-.395 1.449-.593 2.35-.593.864 0 1.612.171 2.242.513a3.568 3.568 0 011.458 1.438c.341.617.512 1.339.512 2.164 0 .905-.254 1.806-.761 2.703-.507.897-1.203 1.837-2.088 2.82-.885.983-1.897 2.057-3.037 3.223.38-.034.777-.063 1.192-.086.415-.023.804-.034 1.168-.034h4.214v1.555h-9.064z" />
    </g>
    <g fill="#fff" fill-rule="nonzero">
        <path
            d="M163.69 343.231v-10.692h1.803v10.692h-1.803zm.901-12.892c-.352 0-.641-.11-.869-.33-.227-.22-.341-.506-.341-.858s.114-.638.341-.858c.228-.22.517-.33.869-.33s.642.11.869.33c.228.22.341.506.341.858s-.113.638-.341.858c-.227.22-.517.33-.869.33zM169.11 343.231v-10.694h1.495l.153 1.542h.06a8.812 8.812 0 011.632-1.284c.574-.348 1.226-.522 1.955-.522 1.134 0 1.962.356 2.483 1.068.522.712.783 1.75.783 3.114v6.776h-1.81v-6.542c0-1.001-.158-1.725-.473-2.173-.315-.448-.83-.672-1.545-.672-.546 0-1.034.138-1.464.415-.429.276-.916.685-1.459 1.228v7.744h-1.81zM183.942 343.495a6.008 6.008 0 01-2.219-.408 5.23 5.23 0 01-1.771-1.125l.833-1.055c.467.377.954.668 1.461.872.507.205 1.093.307 1.756.307.702 0 1.228-.164 1.577-.492.349-.328.524-.718.524-1.169 0-.367-.118-.672-.354-.916a3.009 3.009 0 00-.903-.62c-.365-.17-.751-.328-1.156-.475a11.073 11.073 0 01-1.519-.674 3.68 3.68 0 01-1.176-.971c-.303-.389-.455-.875-.455-1.46 0-.863.327-1.585.981-2.165.653-.581 1.556-.871 2.708-.871.669 0 1.288.112 1.857.337a5.115 5.115 0 011.467.865l-.832 1.055a5.12 5.12 0 00-1.155-.623 3.692 3.692 0 00-1.317-.225c-.675 0-1.171.156-1.49.467-.319.311-.479.667-.479 1.067 0 .328.097.6.292.814.194.215.462.4.803.557.342.156.734.312 1.175.468.557.204 1.089.433 1.593.687.505.255.915.584 1.229.989.314.405.471.933.471 1.585 0 .578-.149 1.107-.448 1.588-.299.48-.739.865-1.32 1.156-.581.29-1.292.435-2.133.435zM193.29 343.434c-1.139 0-1.933-.332-2.383-.995-.45-.664-.674-1.524-.674-2.581v-5.852h-1.592v-1.365l1.672-.101.223-3.44h1.517v3.44h2.894v1.466h-2.894v5.886c0 .648.122 1.154.366 1.517.243.364.67.545 1.28.545.196 0 .395-.019.597-.056.202-.038.408-.11.618-.215l.385 1.281c-.278.137-.591.25-.938.338a4.352 4.352 0 01-1.071.132zM199.35 343.495c-.597 0-1.133-.119-1.608-.358a2.696 2.696 0 01-1.125-1.038c-.274-.454-.411-1.002-.411-1.644 0-1.201.528-2.11 1.584-2.727 1.056-.618 2.723-1.05 5-1.296a4.402 4.402 0 00-.192-1.276 1.937 1.937 0 00-.671-.983c-.323-.252-.775-.377-1.355-.377-.613 0-1.191.113-1.734.341a9.165 9.165 0 00-1.455.756l-.703-1.24a9.437 9.437 0 011.145-.65 7.685 7.685 0 011.428-.523 6.387 6.387 0 011.633-.204c.866 0 1.572.181 2.118.543.546.362.948.873 1.206 1.533.258.66.387 1.436.387 2.329v6.55h-1.503l-.142-1.273h-.071a9.385 9.385 0 01-1.651 1.085 4.055 4.055 0 01-1.88.452zm.502-1.507c.52 0 1.011-.115 1.473-.347.461-.231.95-.573 1.465-1.025v-2.883c-1.198.14-2.147.326-2.847.56-.699.233-1.2.518-1.501.854a1.727 1.727 0 00-.453 1.191c0 .591.182 1.014.547 1.268.364.255.803.382 1.316.382zM207.978 343.231v-10.694h1.495l.153 1.542h.06a8.812 8.812 0 011.632-1.284c.574-.348 1.226-.522 1.955-.522 1.134 0 1.962.356 2.483 1.068.522.712.782 1.75.782 3.114v6.776h-1.809v-6.542c0-1.001-.158-1.725-.473-2.173-.315-.448-.83-.672-1.545-.672a2.64 2.64 0 00-1.464.415c-.429.276-.916.685-1.46 1.228v7.744h-1.809zM224.259 343.495c-.958 0-1.817-.221-2.578-.663-.761-.441-1.362-1.08-1.804-1.914-.442-.835-.663-1.841-.663-3.018 0-1.191.238-2.205.714-3.043.476-.838 1.105-1.477 1.889-1.919a5.076 5.076 0 012.537-.662c.706 0 1.312.118 1.819.353.506.236.944.536 1.315.899l-.896 1.125a3.113 3.113 0 00-.939-.635 3.002 3.002 0 00-1.219-.236c-.64 0-1.211.173-1.713.519-.503.346-.902.826-1.198 1.441-.297.615-.445 1.334-.445 2.158 0 .816.14 1.529.421 2.141.28.612.67 1.089 1.168 1.433.497.343 1.078.514 1.741.514a3.38 3.38 0 001.377-.28 3.935 3.935 0 001.112-.722l.787 1.111a5.44 5.44 0 01-1.539 1.016 4.614 4.614 0 01-1.886.382zM233.902 343.495c-.961 0-1.832-.222-2.612-.667-.78-.444-1.397-1.084-1.853-1.919-.455-.835-.682-1.842-.682-3.022 0-1.162.232-2.162.696-3 .464-.837 1.063-1.482 1.798-1.934a4.387 4.387 0 012.335-.677c.914 0 1.689.207 2.323.621.635.415 1.116.997 1.443 1.747.327.75.491 1.633.491 2.647 0 .184-.007.366-.021.546-.013.18-.039.359-.077.536h-7.692v-1.426h6.158c0-1.038-.224-1.832-.673-2.381-.448-.55-1.09-.824-1.925-.824-.49 0-.968.137-1.433.411-.466.273-.851.713-1.155 1.317-.305.605-.458 1.405-.458 2.4 0 .907.16 1.668.478 2.283.319.615.749 1.079 1.29 1.392a3.47 3.47 0 001.775.47c.52 0 1.002-.071 1.445-.215a4.83 4.83 0 001.216-.584l.658 1.186c-.459.318-.979.58-1.56.785-.581.205-1.236.308-1.965.308z" />
    </g>
    <g fill="#fff" fill-rule="nonzero">
        <path
            d="M184.55 611.044v-14.439h8.322v1.555h-6.485v4.524h5.47v1.555h-5.47v5.25h6.705v1.555h-8.542zM196.097 611.044v-14.439h4.286c.978 0 1.841.119 2.589.357.747.238 1.33.615 1.749 1.133.419.518.629 1.2.629 2.046 0 .741-.181 1.394-.543 1.959-.361.564-.884.957-1.567 1.177v.088c.898.163 1.611.525 2.142 1.086.53.562.795 1.33.795 2.304 0 .962-.232 1.761-.694 2.397-.462.636-1.105 1.111-1.928 1.423-.823.313-1.771.469-2.844.469h-4.614zm1.837-8.295h2.138c1.228 0 2.114-.213 2.657-.639.544-.426.816-1.003.816-1.731 0-.847-.286-1.445-.858-1.794-.571-.348-1.415-.522-2.531-.522h-2.222v4.686zm0 6.837h2.513c1.24 0 2.204-.229 2.892-.688.688-.459 1.033-1.174 1.033-2.147 0-.89-.338-1.544-1.012-1.964-.675-.419-1.646-.629-2.913-.629h-2.513v5.428zM212.771 611.308c-1.022 0-1.96-.193-2.813-.578a7.162 7.162 0 01-2.238-1.574l1.035-1.184c.513.531 1.125.95 1.834 1.259a5.5 5.5 0 002.214.462c.952 0 1.693-.216 2.223-.647.531-.431.796-.997.796-1.7 0-.494-.107-.89-.322-1.187a2.635 2.635 0 00-.861-.75c-.36-.204-.769-.405-1.226-.603l-2.074-.907a8.066 8.066 0 01-1.361-.772 3.981 3.981 0 01-1.118-1.188c-.297-.479-.445-1.067-.445-1.766 0-.738.195-1.394.585-1.969.39-.574.926-1.028 1.61-1.362.683-.334 1.467-.501 2.35-.501.875 0 1.678.164 2.409.493.732.328 1.346.747 1.843 1.255l-.979 1.185a5.773 5.773 0 00-1.499-.961 4.376 4.376 0 00-1.774-.357c-.807 0-1.457.19-1.951.569-.493.379-.74.892-.74 1.539 0 .461.119.838.357 1.131.238.293.544.535.918.724.373.19.745.368 1.115.535l2.058.89c.573.244 1.084.53 1.531.857.448.326.801.73 1.058 1.21s.385 1.078.385 1.794c0 .76-.195 1.451-.586 2.074-.391.623-.956 1.116-1.695 1.481-.738.365-1.618.548-2.639.548z" />
    </g>
    <g fill="#fff" fill-rule="nonzero">
        <path
            d="M170.264 643.044l-3.858-10.694h1.865l2.023 6.075c.159.515.324 1.04.493 1.575.169.535.334 1.061.493 1.579h.088c.16-.518.325-1.044.494-1.579.169-.535.333-1.06.493-1.575l2.022-6.075h1.773l-3.782 10.694h-2.104zM182.363 643.308a4.76 4.76 0 01-2.443-.661c-.754-.441-1.362-1.079-1.822-1.914-.461-.834-.691-1.842-.691-3.022 0-1.19.23-2.204.691-3.044.46-.839 1.068-1.479 1.822-1.92a4.76 4.76 0 012.443-.661c.873 0 1.685.22 2.435.661.75.441 1.357 1.081 1.823 1.92.465.84.697 1.854.697 3.044 0 1.18-.232 2.188-.697 3.022-.466.835-1.073 1.473-1.823 1.914a4.72 4.72 0 01-2.435.661zm0-1.507c.613 0 1.152-.17 1.619-.51.466-.341.827-.818 1.083-1.433.255-.615.383-1.33.383-2.147 0-.817-.128-1.535-.383-2.154-.256-.619-.617-1.102-1.083-1.447a2.651 2.651 0 00-1.619-.518c-.614 0-1.151.173-1.613.518-.462.345-.823.828-1.083 1.447-.26.619-.39 1.337-.39 2.154s.13 1.532.39 2.147c.26.615.621 1.092 1.083 1.433.462.34.999.51 1.613.51zM192.032 643.247c-.453 0-.822-.093-1.104-.278a1.584 1.584 0 01-.62-.815c-.13-.359-.195-.796-.195-1.313v-13.465h1.807v13.597c0 .288.053.488.159.6a.504.504 0 00.379.168c.053 0 .105-.004.156-.011l.209-.034.254 1.365a2.367 2.367 0 01-.447.133 3.034 3.034 0 01-.598.053zM198.836 643.308c-1.124 0-1.949-.356-2.474-1.067-.525-.711-.788-1.748-.788-3.112v-6.776h1.807v6.539c0 .997.159 1.72.477 2.169.318.448.829.673 1.535.673.543 0 1.03-.143 1.46-.429.43-.285.899-.743 1.406-1.373v-7.579h1.807v10.691h-1.49l-.155-1.669h-.058a6.945 6.945 0 01-1.582 1.402c-.563.354-1.211.531-1.945.531zM207.655 643.044V632.35h1.495l.153 1.551h.06c.468-.509.98-.939 1.537-1.289a3.3 3.3 0 011.791-.526c.822 0 1.465.183 1.928.548.464.366.805.862 1.025 1.49a8.991 8.991 0 011.696-1.475 3.293 3.293 0 011.831-.563c1.106 0 1.925.356 2.456 1.068.531.712.797 1.75.797 3.114v6.776h-1.809v-6.542c0-1.001-.16-1.725-.48-2.173-.32-.448-.823-.672-1.51-.672-.415 0-.841.136-1.279.407-.437.271-.904.683-1.402 1.236v7.744h-1.809v-6.542c0-1.001-.16-1.725-.48-2.173-.319-.448-.823-.672-1.51-.672-.803 0-1.696.548-2.68 1.643v7.744h-1.81zM230.214 643.308c-.961 0-1.831-.222-2.611-.667-.78-.444-1.398-1.084-1.853-1.919-.455-.835-.683-1.842-.683-3.022 0-1.162.232-2.162.696-3 .465-.837 1.064-1.482 1.798-1.934a4.393 4.393 0 012.335-.677c.915 0 1.689.207 2.324.621.634.415 1.115.997 1.442 1.747.328.75.491 1.633.491 2.647 0 .184-.007.366-.02.546-.014.18-.04.359-.078.536h-7.691v-1.426h6.157c0-1.038-.224-1.832-.672-2.381-.449-.55-1.09-.824-1.926-.824-.49 0-.968.137-1.433.411-.465.273-.85.713-1.155 1.317-.305.605-.457 1.405-.457 2.4 0 .907.159 1.668.478 2.283.319.615.749 1.079 1.289 1.392.541.314 1.133.47 1.775.47.52 0 1.002-.071 1.446-.215a4.807 4.807 0 001.215-.584l.659 1.186a6.54 6.54 0 01-1.561.785c-.581.205-1.236.308-1.965.308z" />
    </g>
    <g fill="#fff" fill-rule="nonzero">
        <path
            d="M168.756 117.24l6.547-20.856h5.642l6.547 20.856h-4.979l-2.734-10.562a89.319 89.319 0 01-.859-3.335 265.2 265.2 0 00-.832-3.398h-.128a178.296 178.296 0 01-.781 3.405 88.866 88.866 0 01-.86 3.328l-2.748 10.562h-4.815zm4.319-4.965v-3.665h10.035v3.665h-10.035zM191.501 117.24l-3.782-20.856h4.9l1.398 9.736.408 3.299c.137 1.102.264 2.225.38 3.369h.128a260.262 260.262 0 011.209-6.668l2.217-9.736h4.185l2.117 9.736c.211 1.064.422 2.152.633 3.265.21 1.113.412 2.247.604 3.403h.128c.116-1.156.245-2.288.387-3.396.142-1.108.276-2.199.401-3.272l1.47-9.736h4.6l-3.745 20.856h-6.075l-1.938-9.467a93.085 93.085 0 01-.423-2.429c-.133-.827-.257-1.667-.373-2.519h-.128a76.756 76.756 0 01-.329 2.519 37.998 37.998 0 01-.439 2.429l-1.93 9.467h-6.003zM222.097 117.624c-1.399 0-2.767-.251-4.106-.754a10.618 10.618 0 01-3.619-2.288l2.497-3.065a8.297 8.297 0 002.544 1.502c.949.356 1.879.534 2.79.534.986 0 1.721-.18 2.205-.539.484-.359.726-.851.726-1.474 0-.447-.124-.803-.372-1.07-.249-.266-.596-.506-1.042-.719a28.693 28.693 0 00-1.593-.694l-2.711-1.13a9.252 9.252 0 01-2.051-1.224 5.847 5.847 0 01-1.562-1.867c-.397-.74-.596-1.614-.596-2.62 0-1.161.318-2.208.953-3.141.635-.933 1.511-1.679 2.626-2.238 1.116-.558 2.399-.837 3.85-.837 1.263 0 2.477.224 3.643.673a9.16 9.16 0 013.066 1.928l-2.474 3.066a8.853 8.853 0 00-2.108-1.186 5.915 5.915 0 00-2.127-.41c-.804 0-1.449.161-1.933.484-.485.323-.727.785-.727 1.386 0 .418.137.767.41 1.047.274.28.655.524 1.145.732l1.629.69 2.658 1.076c.863.345 1.601.772 2.213 1.282a5.264 5.264 0 011.422 1.841c.335.718.502 1.568.502 2.551a5.953 5.953 0 01-.918 3.206c-.613.983-1.507 1.772-2.684 2.367-1.176.594-2.595.891-4.256.891z" />
    </g>
    <g fill="#fff" fill-rule="nonzero">
        <path
            d="M920.665 311.231v-14.439h1.837v12.878h6.307v1.561h-8.144zM931.19 311.231v-10.692h1.804v10.692h-1.804zm.902-12.892c-.352 0-.641-.11-.869-.33-.227-.22-.341-.506-.341-.858s.114-.638.341-.858c.228-.22.517-.33.869-.33s.642.11.869.33c.228.22.341.506.341.858s-.113.638-.341.858c-.227.22-.517.33-.869.33zM936.615 311.231v-10.694h1.495l.153 1.542h.06a8.812 8.812 0 011.632-1.284c.574-.348 1.226-.522 1.955-.522 1.134 0 1.962.356 2.483 1.068.522.712.782 1.75.782 3.114v6.776h-1.81v-6.542c0-1.001-.157-1.725-.472-2.173-.315-.448-.83-.672-1.545-.672a2.64 2.64 0 00-1.464.415c-.43.276-.916.685-1.46 1.228v7.744h-1.809zM952.807 311.495c-.874 0-1.688-.22-2.442-.661-.755-.441-1.362-1.079-1.823-1.914-.46-.834-.69-1.842-.69-3.022 0-1.19.23-2.204.69-3.044.461-.839 1.068-1.479 1.823-1.92a4.754 4.754 0 012.442-.661c.874 0 1.686.22 2.436.661.749.441 1.357 1.081 1.822 1.92.465.84.698 1.854.698 3.044 0 1.18-.233 2.188-.698 3.022-.465.835-1.073 1.473-1.822 1.914a4.722 4.722 0 01-2.436.661zm0-1.507c.613 0 1.153-.17 1.619-.51.467-.341.828-.818 1.083-1.433.256-.615.384-1.33.384-2.147 0-.817-.128-1.535-.384-2.154-.255-.619-.616-1.102-1.083-1.447a2.649 2.649 0 00-1.619-.518c-.613 0-1.151.173-1.612.518-.462.345-.823.828-1.083 1.447-.261.619-.391 1.337-.391 2.154s.13 1.532.391 2.147c.26.615.621 1.092 1.083 1.433.461.34.999.51 1.612.51zM964.225 311.495c-1.336 0-2.404-.489-3.204-1.468-.8-.978-1.2-2.355-1.2-4.129 0-1.156.216-2.154.649-2.994.432-.839 1-1.488 1.703-1.945a4.098 4.098 0 012.275-.686c.629 0 1.17.108 1.624.325.453.216.911.521 1.373.914l-.077-1.834v-4.121h1.81v15.674h-1.495l-.153-1.262h-.06c-.413.413-.897.77-1.451 1.073a3.69 3.69 0 01-1.794.453zm.4-1.523c.498 0 .969-.122 1.414-.366.445-.245.888-.609 1.329-1.093v-5.606c-.451-.409-.888-.696-1.31-.862a3.51 3.51 0 00-1.298-.249c-.57 0-1.086.17-1.548.51-.461.34-.831.818-1.107 1.434-.277.615-.415 1.329-.415 2.142 0 1.279.256 2.281.767 3.004.511.724 1.234 1.086 2.168 1.086zM977.134 311.495c-.961 0-1.832-.222-2.611-.667-.78-.444-1.398-1.084-1.853-1.919-.456-.835-.683-1.842-.683-3.022 0-1.162.232-2.162.696-3 .464-.837 1.064-1.482 1.798-1.934a4.39 4.39 0 012.335-.677c.914 0 1.689.207 2.323.621.635.415 1.116.997 1.443 1.747.327.75.491 1.633.491 2.647 0 .184-.007.366-.02.546-.014.18-.04.359-.078.536h-7.692v-1.426h6.158c0-1.038-.224-1.832-.672-2.381-.449-.55-1.091-.824-1.926-.824-.49 0-.968.137-1.433.411-.465.273-.85.713-1.155 1.317-.305.605-.458 1.405-.458 2.4 0 .907.16 1.668.479 2.283.319.615.748 1.079 1.289 1.392a3.47 3.47 0 001.775.47c.52 0 1.002-.071 1.446-.215a4.84 4.84 0 001.215-.584l.659 1.186c-.459.318-.98.58-1.561.785-.581.205-1.236.308-1.965.308z" />
    </g>
    <g fill="#fff" fill-rule="nonzero">
        <path
            d="M913.689 343.231v-10.692h1.804v10.692h-1.803zm.902-12.892c-.352 0-.642-.11-.87-.33-.227-.22-.341-.506-.341-.858s.114-.638.341-.858c.228-.22.518-.33.87-.33.351 0 .641.11.869.33.227.22.341.506.341.858s-.114.638-.341.858c-.228.22-.518.33-.87.33zM919.11 343.231v-10.694h1.495l.153 1.542h.06a8.812 8.812 0 011.632-1.284c.574-.348 1.226-.522 1.955-.522 1.134 0 1.962.356 2.483 1.068.522.712.783 1.75.783 3.114v6.776h-1.81v-6.542c0-1.001-.158-1.725-.473-2.173-.315-.448-.83-.672-1.545-.672-.546 0-1.034.138-1.464.415-.429.276-.916.685-1.459 1.228v7.744h-1.81zM933.942 343.495a6.008 6.008 0 01-2.219-.408 5.23 5.23 0 01-1.771-1.125l.833-1.055c.467.377.954.668 1.461.872.507.205 1.093.307 1.756.307.702 0 1.228-.164 1.577-.492.349-.328.524-.718.524-1.169 0-.367-.118-.672-.354-.916a3.009 3.009 0 00-.903-.62c-.365-.17-.751-.328-1.156-.475a11.073 11.073 0 01-1.519-.674 3.68 3.68 0 01-1.176-.971c-.303-.389-.455-.875-.455-1.46 0-.863.327-1.585.981-2.165.653-.581 1.556-.871 2.708-.871.669 0 1.288.112 1.857.337a5.115 5.115 0 011.467.865l-.832 1.055a5.12 5.12 0 00-1.155-.623 3.692 3.692 0 00-1.317-.225c-.675 0-1.171.156-1.49.467-.319.311-.479.667-.479 1.067 0 .328.097.6.292.814.194.215.462.4.803.557.342.156.734.312 1.175.468.557.204 1.089.433 1.593.687.505.255.915.584 1.229.989.314.405.471.933.471 1.585 0 .578-.149 1.107-.448 1.588-.299.48-.739.865-1.32 1.156-.581.29-1.292.435-2.133.435zM943.29 343.434c-1.139 0-1.933-.332-2.383-.995-.45-.664-.674-1.524-.674-2.581v-5.852h-1.592v-1.365l1.672-.101.223-3.44h1.517v3.44h2.894v1.466h-2.894v5.886c0 .648.122 1.154.366 1.517.243.364.67.545 1.28.545.196 0 .395-.019.597-.056.202-.038.408-.11.618-.215l.385 1.281c-.278.137-.591.25-.938.338a4.352 4.352 0 01-1.071.132zM949.35 343.495c-.597 0-1.133-.119-1.608-.358a2.696 2.696 0 01-1.125-1.038c-.274-.454-.411-1.002-.411-1.644 0-1.201.528-2.11 1.584-2.727 1.056-.618 2.723-1.05 5-1.296a4.402 4.402 0 00-.192-1.276 1.937 1.937 0 00-.671-.983c-.323-.252-.775-.377-1.355-.377-.613 0-1.191.113-1.734.341a9.165 9.165 0 00-1.455.756l-.703-1.24a9.437 9.437 0 011.145-.65 7.685 7.685 0 011.428-.523 6.387 6.387 0 011.633-.204c.866 0 1.572.181 2.118.543.546.362.948.873 1.206 1.533.258.66.387 1.436.387 2.329v6.55h-1.503l-.142-1.273h-.071a9.385 9.385 0 01-1.651 1.085 4.055 4.055 0 01-1.88.452zm.502-1.507c.52 0 1.011-.115 1.473-.347.461-.231.95-.573 1.465-1.025v-2.883c-1.198.14-2.147.326-2.847.56-.699.233-1.2.518-1.501.854a1.727 1.727 0 00-.453 1.191c0 .591.182 1.014.547 1.268.364.255.803.382 1.316.382zM957.978 343.231v-10.694h1.495l.153 1.542h.06a8.812 8.812 0 011.632-1.284c.574-.348 1.226-.522 1.955-.522 1.134 0 1.962.356 2.483 1.068.522.712.782 1.75.782 3.114v6.776h-1.809v-6.542c0-1.001-.158-1.725-.473-2.173-.315-.448-.83-.672-1.545-.672a2.64 2.64 0 00-1.464.415c-.429.276-.916.685-1.46 1.228v7.744h-1.809zM974.259 343.495c-.958 0-1.817-.221-2.578-.663-.761-.441-1.362-1.08-1.804-1.914-.442-.835-.663-1.841-.663-3.018 0-1.191.238-2.205.714-3.043.476-.838 1.105-1.477 1.889-1.919a5.076 5.076 0 012.537-.662c.706 0 1.312.118 1.819.353.506.236.944.536 1.315.899l-.896 1.125a3.113 3.113 0 00-.939-.635 3.002 3.002 0 00-1.219-.236c-.64 0-1.211.173-1.713.519-.503.346-.902.826-1.198 1.441-.297.615-.445 1.334-.445 2.158 0 .816.14 1.529.421 2.141.28.612.67 1.089 1.168 1.433.497.343 1.078.514 1.741.514a3.38 3.38 0 001.377-.28 3.935 3.935 0 001.112-.722l.787 1.111a5.44 5.44 0 01-1.539 1.016 4.614 4.614 0 01-1.886.382zM983.902 343.495c-.961 0-1.832-.222-2.612-.667-.78-.444-1.397-1.084-1.853-1.919-.455-.835-.682-1.842-.682-3.022 0-1.162.232-2.162.696-3 .464-.837 1.063-1.482 1.798-1.934a4.387 4.387 0 012.335-.677c.914 0 1.689.207 2.323.621.635.415 1.116.997 1.443 1.747.327.75.491 1.633.491 2.647 0 .184-.007.366-.021.546-.013.18-.039.359-.077.536h-7.692v-1.426h6.158c0-1.038-.224-1.832-.673-2.381-.448-.55-1.09-.824-1.925-.824-.49 0-.968.137-1.433.411-.466.273-.851.713-1.155 1.317-.305.605-.458 1.405-.458 2.4 0 .907.16 1.668.478 2.283.319.615.749 1.079 1.29 1.392a3.47 3.47 0 001.775.47c.52 0 1.002-.071 1.445-.215a4.83 4.83 0 001.216-.584l.658 1.186c-.459.318-.979.58-1.56.785-.581.205-1.236.308-1.965.308z" />
    </g>
    <g fill="#fff" fill-rule="nonzero">
        <path
            d="M920.945 600.588v-14.439h1.837v12.878h6.307v1.561h-8.144zM931.47 600.588v-10.692h1.804v10.692h-1.804zm.902-12.892c-.352 0-.641-.11-.869-.33-.227-.22-.341-.506-.341-.858s.114-.638.341-.858c.228-.22.517-.33.869-.33s.642.11.869.33c.228.22.341.506.341.858s-.113.638-.341.858c-.227.22-.517.33-.869.33zM936.895 600.588v-10.694h1.495l.153 1.542h.06a8.812 8.812 0 011.632-1.284c.574-.348 1.226-.522 1.955-.522 1.134 0 1.962.356 2.483 1.068.522.712.782 1.75.782 3.114v6.776h-1.81v-6.542c0-1.001-.157-1.725-.472-2.173-.315-.448-.83-.672-1.545-.672a2.64 2.64 0 00-1.464.415c-.43.276-.916.685-1.46 1.228v7.744h-1.809zM953.087 600.852c-.874 0-1.688-.22-2.442-.661-.755-.441-1.362-1.079-1.823-1.914-.46-.834-.69-1.842-.69-3.022 0-1.19.23-2.204.69-3.043.461-.84 1.068-1.48 1.823-1.921a4.754 4.754 0 012.442-.661c.874 0 1.686.22 2.436.661.749.441 1.357 1.081 1.822 1.921.465.839.698 1.853.698 3.043 0 1.18-.233 2.188-.698 3.022-.465.835-1.073 1.473-1.822 1.914a4.722 4.722 0 01-2.436.661zm0-1.507c.613 0 1.153-.17 1.619-.51.467-.341.828-.818 1.083-1.433.256-.615.384-1.33.384-2.147 0-.817-.128-1.535-.384-2.154-.255-.619-.616-1.102-1.083-1.447a2.649 2.649 0 00-1.619-.518c-.613 0-1.151.173-1.612.518-.462.345-.823.828-1.083 1.447-.261.619-.391 1.337-.391 2.154s.13 1.532.391 2.147c.26.615.621 1.092 1.083 1.433.461.34.999.51 1.612.51zM964.505 600.852c-1.336 0-2.404-.489-3.204-1.468-.8-.978-1.2-2.355-1.2-4.129 0-1.156.216-2.154.649-2.994.432-.839 1-1.488 1.703-1.945a4.098 4.098 0 012.275-.686c.629 0 1.17.108 1.624.325.453.216.911.521 1.373.914l-.077-1.834v-4.121h1.81v15.674h-1.495l-.153-1.262h-.06c-.413.413-.897.77-1.451 1.073a3.69 3.69 0 01-1.794.453zm.4-1.523c.498 0 .969-.122 1.414-.366.445-.245.888-.609 1.329-1.093v-5.606c-.451-.409-.888-.696-1.31-.862a3.51 3.51 0 00-1.298-.249c-.57 0-1.086.17-1.548.51-.461.34-.831.818-1.107 1.434-.277.615-.415 1.329-.415 2.142 0 1.279.256 2.281.767 3.004.511.724 1.234 1.086 2.168 1.086zM977.414 600.852c-.961 0-1.832-.222-2.611-.667-.78-.444-1.398-1.084-1.853-1.919-.456-.835-.683-1.842-.683-3.022 0-1.162.232-2.162.696-2.999.464-.838 1.064-1.483 1.798-1.935a4.39 4.39 0 012.335-.677c.914 0 1.689.207 2.323.621.635.415 1.116.997 1.443 1.747.327.75.491 1.633.491 2.647 0 .184-.007.366-.02.546-.014.18-.04.359-.078.536h-7.692v-1.426h6.158c0-1.038-.224-1.832-.672-2.381-.449-.55-1.091-.824-1.926-.824-.49 0-.968.137-1.433.411-.465.273-.85.713-1.155 1.317-.305.605-.458 1.405-.458 2.4 0 .907.16 1.668.479 2.283.319.615.748 1.079 1.289 1.392a3.472 3.472 0 001.775.471c.52 0 1.002-.072 1.446-.216a4.84 4.84 0 001.215-.584l.659 1.186c-.459.318-.98.58-1.561.785-.581.205-1.236.308-1.965.308z" />
    </g>
    <g fill="#fff" fill-rule="nonzero">
        <path
            d="M889.536 632.588v-14.439h4.286c.979 0 1.841.119 2.589.357.747.238 1.33.615 1.749 1.133.419.518.629 1.2.629 2.046 0 .741-.181 1.394-.543 1.959-.361.564-.884.957-1.567 1.177v.088c.898.163 1.611.525 2.142 1.086.53.562.795 1.33.795 2.304 0 .962-.232 1.761-.694 2.397-.462.636-1.105 1.111-1.928 1.423-.823.313-1.771.469-2.844.469h-4.614zm1.837-8.295h2.138c1.228 0 2.114-.213 2.657-.639.544-.426.816-1.003.816-1.731 0-.847-.286-1.445-.858-1.794-.571-.348-1.415-.522-2.531-.522h-2.222v4.686zm0 6.837h2.513c1.24 0 2.204-.229 2.892-.688.688-.459 1.033-1.174 1.033-2.147 0-.89-.338-1.544-1.012-1.964-.675-.419-1.646-.629-2.913-.629h-2.513v5.428zM904.19 632.791c-.454 0-.822-.093-1.105-.278a1.584 1.584 0 01-.62-.815c-.13-.359-.195-.796-.195-1.313V616.92h1.807v13.597c0 .288.053.488.159.6a.504.504 0 00.379.168c.053 0 .105-.004.157-.011l.209-.034.253 1.365a2.378 2.378 0 01-.446.133 3.048 3.048 0 01-.598.053zM912.018 632.852a4.76 4.76 0 01-2.443-.661c-.754-.441-1.362-1.079-1.822-1.914-.461-.834-.691-1.842-.691-3.022 0-1.19.23-2.204.691-3.043.46-.84 1.068-1.48 1.822-1.921a4.76 4.76 0 012.443-.661c.873 0 1.685.22 2.435.661.75.441 1.357 1.081 1.822 1.921.466.839.698 1.853.698 3.043 0 1.18-.232 2.188-.698 3.022-.465.835-1.072 1.473-1.822 1.914a4.72 4.72 0 01-2.435.661zm0-1.507c.613 0 1.152-.17 1.619-.51.466-.341.827-.818 1.083-1.433.255-.615.383-1.33.383-2.147 0-.817-.128-1.535-.383-2.154-.256-.619-.617-1.102-1.083-1.447a2.651 2.651 0 00-1.619-.518c-.614 0-1.151.173-1.613.518-.462.345-.823.828-1.083 1.447-.26.619-.39 1.337-.39 2.154s.13 1.532.39 2.147c.26.615.621 1.092 1.083 1.433.462.34.999.51 1.613.51zM924.011 632.852c-.958 0-1.817-.221-2.578-.663-.76-.441-1.362-1.08-1.804-1.914-.442-.835-.663-1.841-.663-3.018 0-1.191.238-2.205.714-3.043.476-.838 1.105-1.477 1.889-1.919a5.076 5.076 0 012.537-.662c.706 0 1.312.118 1.819.353a4.69 4.69 0 011.315.899l-.896 1.125a3.088 3.088 0 00-.939-.635 2.999 2.999 0 00-1.219-.236c-.64 0-1.211.173-1.713.519-.502.346-.902.826-1.198 1.441-.297.615-.445 1.334-.445 2.158 0 .816.14 1.529.421 2.141.281.612.67 1.089 1.168 1.433.498.343 1.078.514 1.741.514a3.38 3.38 0 001.377-.28 3.935 3.935 0 001.112-.722l.787 1.111a5.44 5.44 0 01-1.539 1.016 4.61 4.61 0 01-1.886.382zM929.756 632.588v-15.674h1.793v10.599h.06l4.533-5.619h2.023l-3.566 4.314 4.036 6.38h-1.978l-3.118-5.14-1.99 2.317v2.823h-1.793zM949.182 632.852c-1.022 0-1.96-.193-2.813-.578a7.173 7.173 0 01-2.238-1.574l1.035-1.184c.513.531 1.125.95 1.834 1.259.71.308 1.448.462 2.214.462.952 0 1.693-.216 2.224-.647.53-.431.795-.997.795-1.7 0-.494-.107-.89-.322-1.187a2.635 2.635 0 00-.861-.75c-.36-.204-.769-.405-1.226-.603l-2.074-.907a8.02 8.02 0 01-1.36-.772 3.985 3.985 0 01-1.119-1.188c-.296-.479-.445-1.067-.445-1.766 0-.738.195-1.394.585-1.969.39-.574.926-1.028 1.61-1.362.683-.334 1.467-.501 2.35-.501.875 0 1.678.164 2.409.493.732.328 1.346.747 1.843 1.255l-.979 1.185a5.773 5.773 0 00-1.499-.961 4.376 4.376 0 00-1.774-.357c-.806 0-1.457.19-1.95.569-.494.379-.741.892-.741 1.539 0 .461.119.838.357 1.131.238.293.544.535.918.724.373.19.745.368 1.115.535l2.058.89c.573.244 1.084.53 1.532.857.447.326.8.73 1.057 1.21.257.48.386 1.078.386 1.794 0 .76-.196 1.451-.587 2.074-.391.623-.956 1.116-1.694 1.481-.739.365-1.619.548-2.64.548zM959.65 632.791c-1.139 0-1.934-.332-2.383-.995-.45-.664-.675-1.524-.675-2.581v-5.852h-1.591v-1.365l1.672-.101.223-3.44h1.517v3.44h2.894v1.466h-2.894v5.886c0 .648.121 1.154.365 1.517.244.364.67.545 1.28.545.197 0 .396-.019.598-.056.202-.038.408-.11.618-.215l.385 1.281c-.279.137-.592.25-.939.338a4.338 4.338 0 01-1.07.132zM967.632 632.852a4.76 4.76 0 01-2.443-.661c-.754-.441-1.362-1.079-1.822-1.914-.46-.834-.691-1.842-.691-3.022 0-1.19.231-2.204.691-3.043.46-.84 1.068-1.48 1.822-1.921a4.76 4.76 0 012.443-.661c.874 0 1.686.22 2.435.661.75.441 1.358 1.081 1.823 1.921.465.839.697 1.853.697 3.043 0 1.18-.232 2.188-.697 3.022-.465.835-1.073 1.473-1.823 1.914a4.716 4.716 0 01-2.435.661zm0-1.507c.613 0 1.153-.17 1.619-.51.466-.341.827-.818 1.083-1.433.256-.615.383-1.33.383-2.147 0-.817-.127-1.535-.383-2.154s-.617-1.102-1.083-1.447a2.649 2.649 0 00-1.619-.518c-.613 0-1.151.173-1.613.518-.461.345-.822.828-1.083 1.447-.26.619-.39 1.337-.39 2.154s.13 1.532.39 2.147c.261.615.622 1.092 1.083 1.433.462.34 1 .51 1.613.51zM975.372 632.588v-10.694h1.495l.153 1.948h.06c.364-.684.808-1.223 1.331-1.619.523-.395 1.093-.593 1.71-.593.235 0 .443.016.623.048s.353.089.518.172l-.398 1.543a3.747 3.747 0 00-.438-.099 3.555 3.555 0 00-.539-.033c-.452 0-.924.182-1.417.546-.493.364-.923 1.002-1.289 1.914v6.867h-1.809zM985.012 632.852c-.597 0-1.133-.119-1.608-.358a2.696 2.696 0 01-1.125-1.038c-.274-.454-.411-1.002-.411-1.644 0-1.201.528-2.11 1.584-2.727 1.056-.618 2.723-1.05 5-1.296a4.402 4.402 0 00-.192-1.276 1.937 1.937 0 00-.671-.983c-.323-.252-.775-.377-1.355-.377-.613 0-1.191.113-1.734.341a9.165 9.165 0 00-1.455.756l-.703-1.24a9.437 9.437 0 011.145-.65 7.685 7.685 0 011.428-.523 6.393 6.393 0 011.633-.204c.866 0 1.572.181 2.118.543.546.362.948.873 1.206 1.533.258.66.387 1.436.387 2.329v6.55h-1.503l-.142-1.273h-.071a9.385 9.385 0 01-1.651 1.085 4.055 4.055 0 01-1.88.452zm.503-1.507c.519 0 1.01-.115 1.472-.347.462-.231.95-.573 1.465-1.025v-2.883c-1.198.14-2.147.326-2.847.56-.699.233-1.2.518-1.501.854a1.727 1.727 0 00-.453 1.191c0 .591.182 1.014.547 1.268.364.255.803.382 1.317.382zM997.223 637.509c-.873 0-1.643-.112-2.31-.337-.667-.225-1.186-.55-1.558-.973-.371-.424-.557-.943-.557-1.557 0-.464.139-.903.417-1.317.277-.414.661-.781 1.151-1.101v-.088a2.31 2.31 0 01-.681-.696c-.184-.287-.276-.639-.276-1.056 0-.447.128-.842.383-1.185.255-.344.52-.61.794-.8v-.088c-.35-.283-.668-.674-.955-1.175-.287-.5-.43-1.066-.43-1.697 0-.779.184-1.454.553-2.025a3.712 3.712 0 011.464-1.32 4.335 4.335 0 011.996-.464c.298 0 .577.024.836.073.259.048.483.112.673.191h3.731v1.393h-2.228v.088c.26.232.476.523.647.876.171.352.256.77.256 1.253 0 .758-.175 1.413-.524 1.964-.35.551-.821.977-1.412 1.277a4.31 4.31 0 01-1.979.451 3.57 3.57 0 01-.805-.096 4.115 4.115 0 01-.789-.267 2.762 2.762 0 00-.48.525c-.134.192-.201.438-.201.738 0 .337.135.615.405.833.269.219.759.328 1.468.328h2.081c1.249 0 2.184.203 2.805.608.621.406.932 1.055.932 1.946 0 .662-.221 1.273-.663 1.833-.442.56-1.068 1.01-1.877 1.352-.81.342-1.766.513-2.867.513zm-.009-9.529c.41 0 .787-.103 1.13-.311.343-.207.619-.501.828-.881.209-.38.314-.83.314-1.349 0-.791-.221-1.405-.664-1.842a2.202 2.202 0 00-1.608-.655c-.631 0-1.167.218-1.609.655-.443.437-.664 1.051-.664 1.842 0 .519.105.969.314 1.349.209.38.485.674.828.881.343.208.72.311 1.131.311zm.264 8.282c.679 0 1.27-.103 1.774-.309.503-.206.897-.476 1.18-.811.283-.334.425-.688.425-1.06 0-.497-.184-.843-.552-1.037-.368-.194-.902-.291-1.603-.291h-1.846a6.999 6.999 0 01-1.389-.159c-.382.271-.659.56-.832.867a1.873 1.873 0 00-.259.926c0 .574.276 1.03.827 1.368.552.337 1.31.506 2.275.506zM1008.8 632.852c-.961 0-1.832-.222-2.612-.667-.78-.444-1.397-1.084-1.852-1.919-.456-.835-.683-1.842-.683-3.022 0-1.162.232-2.162.696-2.999.464-.838 1.063-1.483 1.798-1.935a4.387 4.387 0 012.335-.677c.914 0 1.689.207 2.323.621.635.415 1.116.997 1.443 1.747.327.75.491 1.633.491 2.647 0 .184-.007.366-.021.546-.013.18-.039.359-.077.536h-7.692v-1.426h6.158c0-1.038-.224-1.832-.673-2.381-.448-.55-1.09-.824-1.925-.824-.49 0-.968.137-1.433.411-.465.273-.851.713-1.155 1.317-.305.605-.458 1.405-.458 2.4 0 .907.16 1.668.479 2.283.318.615.748 1.079 1.289 1.392a3.472 3.472 0 001.775.471c.52 0 1.002-.072 1.446-.216a4.84 4.84 0 001.215-.584l.658 1.186c-.459.318-.979.58-1.56.785-.581.205-1.236.308-1.965.308z" />
    </g>
    <g fill="#fff" fill-rule="nonzero">
        <path
            d="M920.263 664.588l-4.525-14.439h1.946l2.243 7.805c.163.573.319 1.115.466 1.625.147.511.295 1.018.445 1.521l.478 1.609h.088c.169-.569.325-1.105.467-1.609a185.35 185.35 0 01.923-3.146l2.402-7.805h1.87l-4.674 14.439h-2.129zM932.756 664.852c-.873 0-1.688-.22-2.442-.661-.755-.441-1.362-1.079-1.823-1.914-.46-.834-.69-1.842-.69-3.022 0-1.19.23-2.204.69-3.043.461-.84 1.068-1.48 1.823-1.921a4.756 4.756 0 012.442-.661c.874 0 1.686.22 2.436.661.75.441 1.357 1.081 1.822 1.921.465.839.698 1.853.698 3.043 0 1.18-.233 2.188-.698 3.022-.465.835-1.072 1.473-1.822 1.914a4.722 4.722 0 01-2.436.661zm0-1.507c.613 0 1.153-.17 1.619-.51.467-.341.828-.818 1.083-1.433.256-.615.384-1.33.384-2.147 0-.817-.128-1.535-.384-2.154-.255-.619-.616-1.102-1.083-1.447a2.649 2.649 0 00-1.619-.518 2.62 2.62 0 00-1.612.518c-.462.345-.823.828-1.083 1.447-.26.619-.39 1.337-.39 2.154s.13 1.532.39 2.147c.26.615.621 1.092 1.083 1.433.462.34.999.51 1.612.51zM942.429 664.791c-.453 0-.822-.093-1.104-.278a1.584 1.584 0 01-.62-.815c-.13-.359-.195-.796-.195-1.313V648.92h1.807v13.597c0 .288.053.488.159.6a.504.504 0 00.379.168c.053 0 .105-.004.156-.011l.209-.034.254 1.365a2.378 2.378 0 01-.446.133 3.052 3.052 0 01-.599.053zM949.237 664.852c-1.125 0-1.95-.356-2.475-1.067-.525-.711-.787-1.748-.787-3.112v-6.776h1.806v6.539c0 .997.159 1.72.477 2.169.318.448.83.673 1.536.673a2.58 2.58 0 001.46-.429c.43-.285.899-.743 1.405-1.373v-7.579h1.808v10.691h-1.49l-.156-1.669h-.057a6.949 6.949 0 01-1.583 1.402c-.562.354-1.211.531-1.944.531zM958.059 664.588v-10.694h1.495l.153 1.551h.06c.468-.509.98-.939 1.537-1.289a3.3 3.3 0 011.791-.526c.822 0 1.465.183 1.928.548.464.366.805.862 1.025 1.49a8.991 8.991 0 011.696-1.475 3.293 3.293 0 011.831-.563c1.106 0 1.925.356 2.456 1.068.531.712.797 1.75.797 3.114v6.776h-1.809v-6.542c0-1.001-.16-1.725-.48-2.173-.32-.448-.823-.672-1.51-.672-.415 0-.841.136-1.279.407-.437.271-.904.683-1.402 1.236v7.744h-1.809v-6.542c0-1.001-.16-1.725-.48-2.173-.319-.448-.823-.672-1.51-.672-.803 0-1.696.548-2.68 1.643v7.744h-1.81zM980.622 664.852c-.961 0-1.832-.222-2.612-.667-.78-.444-1.397-1.084-1.853-1.919-.455-.835-.682-1.842-.682-3.022 0-1.162.232-2.162.696-2.999.464-.838 1.063-1.483 1.798-1.935a4.387 4.387 0 012.335-.677c.914 0 1.689.207 2.323.621.635.415 1.115.997 1.443 1.747.327.75.491 1.633.491 2.647 0 .184-.007.366-.021.546-.013.18-.039.359-.077.536h-7.692v-1.426h6.158c0-1.038-.224-1.832-.673-2.381-.448-.55-1.09-.824-1.925-.824-.49 0-.968.137-1.433.411-.466.273-.851.713-1.156 1.317-.304.605-.457 1.405-.457 2.4 0 .907.16 1.668.478 2.283.319.615.749 1.079 1.29 1.392a3.47 3.47 0 001.774.471c.521 0 1.003-.072 1.446-.216a4.83 4.83 0 001.216-.584l.658 1.186c-.459.318-.979.58-1.56.785-.581.205-1.237.308-1.965.308z" />
    </g>
    <g fill="#fff" fill-rule="nonzero">
        <path
            d="M904.269 117.24V96.384h4.715v16.896h8.238v3.96h-12.953zM920.456 117.24v-15.872h4.704v15.872h-4.704zm2.336-18.208c-.789 0-1.429-.224-1.92-.672-.491-.448-.736-1.045-.736-1.792 0-.747.245-1.344.736-1.792.491-.448 1.131-.672 1.92-.672.789 0 1.429.224 1.92.672.491.448.736 1.045.736 1.792 0 .747-.245 1.344-.736 1.792-.491.448-1.131.672-1.92.672zM929.291 117.24v-15.876h3.838l.339 2.01h.116a11.117 11.117 0 012.243-1.686c.825-.472 1.778-.708 2.858-.708 1.737 0 2.992.571 3.765 1.714.773 1.143 1.16 2.706 1.16 4.69v9.856h-4.704v-9.253c0-1.144-.156-1.93-.469-2.358-.312-.428-.813-.642-1.503-.642-.591 0-1.096.133-1.516.399-.421.266-.895.647-1.423 1.144v10.71h-4.704zM954.411 117.624a7.63 7.63 0 01-3.772-.983c-1.175-.656-2.129-1.603-2.862-2.842-.733-1.239-1.099-2.736-1.099-4.491 0-1.76.366-3.26 1.099-4.5.733-1.241 1.687-2.189 2.862-2.844a7.621 7.621 0 013.772-.984c1.339 0 2.595.328 3.769.984 1.173.655 2.127 1.603 2.862 2.844.735 1.24 1.102 2.74 1.102 4.5 0 1.755-.367 3.252-1.102 4.491-.735 1.239-1.689 2.186-2.862 2.842a7.614 7.614 0 01-3.769.983zm0-3.796c.648 0 1.19-.185 1.626-.554.435-.369.758-.893.969-1.573.212-.68.317-1.477.317-2.393 0-.916-.105-1.715-.317-2.397-.211-.682-.534-1.208-.969-1.578-.436-.371-.978-.556-1.626-.556-.649 0-1.189.185-1.623.556-.433.37-.756.896-.969 1.578-.214.682-.32 1.481-.32 2.397 0 .916.106 1.713.32 2.393.213.68.536 1.204.969 1.573.434.369.974.554 1.623.554zM971.04 117.624c-1.973 0-3.548-.741-4.727-2.222-1.178-1.482-1.767-3.513-1.767-6.094 0-1.731.315-3.216.944-4.457.629-1.24 1.448-2.196 2.456-2.866 1.009-.67 2.07-1.005 3.184-1.005.886 0 1.625.148 2.216.443a6.67 6.67 0 011.676 1.213l-.169-2.405v-5.409h4.704v22.418h-3.838l-.339-1.573h-.117a7.508 7.508 0 01-1.949 1.393c-.748.376-1.506.564-2.274.564zm1.224-3.849c.509 0 .973-.107 1.392-.322.419-.214.818-.581 1.197-1.1v-6.519c-.414-.382-.845-.645-1.293-.789a4.337 4.337 0 00-1.334-.216c-.508 0-.978.157-1.412.472-.433.315-.782.801-1.048 1.459-.266.657-.399 1.489-.399 2.495 0 1.549.257 2.69.772 3.422.515.732 1.223 1.098 2.125 1.098zM990.823 117.624c-1.52 0-2.889-.328-4.109-.985-1.22-.657-2.183-1.604-2.89-2.843-.707-1.239-1.06-2.738-1.06-4.499 0-1.719.361-3.198 1.083-4.436.722-1.239 1.656-2.195 2.801-2.868 1.145-.674 2.354-1.01 3.627-1.01 1.513 0 2.771.335 3.772 1.005 1.002.67 1.749 1.579 2.241 2.729.492 1.15.738 2.444.738 3.883 0 .413-.022.812-.066 1.198a9.785 9.785 0 01-.144.937h-10.404l-.035-3.246h6.597c0-.844-.2-1.538-.598-2.081-.399-.543-1.066-.814-2.001-.814-.514 0-1.017.139-1.511.417-.494.278-.9.759-1.22 1.444-.32.684-.467 1.632-.443 2.842.024 1.201.243 2.143.658 2.826.414.683.941 1.167 1.579 1.451a4.91 4.91 0 002.012.425c.611 0 1.203-.087 1.775-.261a7.788 7.788 0 001.694-.755l1.531 2.87a9.619 9.619 0 01-2.704 1.305 9.874 9.874 0 01-2.923.466z" />
    </g>
    <path
        d="M568.205 159.905v-2.739h5.844v-18.783h-4.648v-2.116c1.171-.209 2.191-.469 3.061-.78.87-.311 1.659-.675 2.366-1.094h2.511v22.773h5.269v2.739h-14.403zM566.651 402.36v-2.015c2.547-2.489 4.715-4.705 6.505-6.647 1.79-1.943 3.155-3.697 4.093-5.263.938-1.566 1.407-3.035 1.407-4.408 0-1.467-.396-2.663-1.188-3.589-.793-.926-2.01-1.389-3.651-1.389a5.366 5.366 0 00-2.96.879 11.018 11.018 0 00-2.464 2.178l-1.851-1.801c1.061-1.187 2.196-2.14 3.407-2.858 1.21-.719 2.634-1.078 4.272-1.078 1.572 0 2.931.31 4.078.931a6.505 6.505 0 012.65 2.615c.62 1.122.93 2.434.93 3.935 0 1.645-.46 3.284-1.382 4.915-.922 1.631-2.187 3.34-3.797 5.127a198.49 198.49 0 01-5.522 5.86 61.751 61.751 0 012.168-.157 39.257 39.257 0 012.123-.062h7.661v2.827h-16.479z"
        fill="#fff" fill-rule="nonzero" />
    <g fill="#fff" fill-rule="nonzero">
        <path
            d="M339.174 334.811V333.3a136.159 136.159 0 004.879-4.986c1.342-1.457 2.365-2.772 3.069-3.947.704-1.174 1.056-2.276 1.056-3.306 0-1.1-.297-1.997-.892-2.691-.594-.695-1.507-1.042-2.738-1.042-.797 0-1.537.22-2.22.659a8.26 8.26 0 00-1.847 1.634l-1.389-1.351c.796-.89 1.647-1.605 2.555-2.144.908-.539 1.976-.809 3.205-.809 1.178 0 2.198.233 3.057.699a4.877 4.877 0 011.988 1.961c.466.842.698 1.826.698 2.952 0 1.234-.345 2.462-1.037 3.685-.691 1.224-1.64 2.506-2.847 3.846a149.58 149.58 0 01-4.142 4.395c.518-.047 1.06-.086 1.626-.118a29.164 29.164 0 011.592-.046h5.746v2.12h-12.359zM358.72 335.171c-.814 0-1.545-.162-2.193-.487a3.687 3.687 0 01-1.534-1.417c-.374-.619-.561-1.366-.561-2.242 0-1.637.721-2.876 2.161-3.718 1.44-.842 3.713-1.431 6.818-1.767a6.037 6.037 0 00-.262-1.739 2.644 2.644 0 00-.915-1.342c-.441-.342-1.056-.514-1.848-.514-.836 0-1.624.155-2.364.465-.74.311-1.402.654-1.985 1.031l-.958-1.69c.447-.302.967-.597 1.561-.887.594-.29 1.243-.528 1.948-.713a8.681 8.681 0 012.226-.279c1.182 0 2.144.247 2.889.741.744.494 1.292 1.191 1.644 2.09.352.9.528 1.959.528 3.176v8.932h-2.05l-.193-1.735h-.097a12.822 12.822 0 01-2.252 1.479 5.516 5.516 0 01-2.563.616zm.685-2.054c.709 0 1.378-.158 2.008-.474.63-.315 1.296-.781 1.998-1.397v-3.932c-1.634.191-2.928.445-3.882.763-.954.318-1.637.707-2.048 1.165a2.356 2.356 0 00-.616 1.624c0 .806.248 1.383.745 1.73.496.347 1.095.521 1.795.521z" />
    </g>
    <defs>
        <radialGradient id="prefix___Radial1" cx="0" cy="0" r="1" gradientUnits="userSpaceOnUse"
            gradientTransform="matrix(466.487 0 0 576.922 386.301 94.031)">
            <stop offset="0" stop-color="#0c4d82" />
            <stop offset=".21" stop-color="#0f4b7f" />
            <stop offset=".43" stop-color="#134676" />
            <stop offset=".65" stop-color="#173d68" />
            <stop offset=".88" stop-color="#163055" />
            <stop offset="1" stop-color="#14274a" />
        </radialGradient>
    </defs>
</svg>