<svg viewBox="0 0 200 200" xmlns="http://www.w3.org/2000/svg"><path d="m126.73 97.24a41.41 41.41 0 0 1 -55.1 37.93l-3.13 4.55c1.75.69-17.59-11.89-16.29-10.6l3.86-3.73a41.44 41.44 0 0 1 29.2-70.93 34.68 34.68 0 0 1 4.2.25 38 38 0 0 1 1-5.6h-49.4a2.69 2.69 0 0 0 -2.68 2.68v120.53a2.69 2.69 0 0 0 2.68 2.68h88.39a2.68 2.68 0 0 0 2.68-2.68v-75.21a38.33 38.33 0 0 1 -4 .21c-.5 0-.95-.05-1.41-.08zm-82.2-42a2.77 2.77 0 0 1 2.92-.56 2.92 2.92 0 0 1 .88.56 2.8 2.8 0 0 1 .78 1.9 2.26 2.26 0 0 1 -.22 1 2.57 2.57 0 0 1 -2.46 1.66 2.25 2.25 0 0 1 -1-.21 3.17 3.17 0 0 1 -.88-.57 2.57 2.57 0 0 1 -.57-.88 2.74 2.74 0 0 1 -.21-1 2.8 2.8 0 0 1 .76-1.9zm81.47 113.63a2.71 2.71 0 1 1 .78-1.91 2.85 2.85 0 0 1 -.78 1.91z" fill="currentColor"/><path d="m78.54 114.81a1.71 1.71 0 0 0 -2.91-.91l-31.88 33.17 9.1 5.93 25.43-36.9a1.68 1.68 0 0 0 .26-1.29z" fill="#fff" stroke="#32363b" stroke-linecap="round" stroke-linejoin="round" stroke-width="4.37"/><path d="m128.13 25a33.48 33.48 0 1 0 33.48 33.48 33.48 33.48 0 0 0 -33.48-33.48z" fill="currentColor" stroke="#32363b" stroke-linecap="round" stroke-linejoin="round" stroke-width="4.37"/><circle cx="85.27" cy="95.98" fill="currentColor" r="5.36"/><path d="m126.79 78.57a18.75 18.75 0 0 1 -14.39-30.78h-3.05a2.68 2.68 0 1 1 0-5.36l10.72.13a2.88 2.88 0 0 1 1 .19c.08 0 .16.11.27.16a3.24 3.24 0 0 1 .53.35 1.76 1.76 0 0 1 .24.3 1.47 1.47 0 0 1 .33.48 1.73 1.73 0 0 1 .16.37c0 .09.07.18.1.27a.86.86 0 0 1 0 .32 1.05 1.05 0 0 1 .06.24v10.56a2.68 2.68 0 1 1 -5.36 0v-5.49a13.35 13.35 0 0 0 9.38 22.9 2.68 2.68 0 0 1 0 5.36z" fill="#fff"/><path d="m149.2 73.23a2.67 2.67 0 0 1 -2.32 1.32l-10.72-.13a2.88 2.88 0 0 1 -1-.19 1.7 1.7 0 0 1 -.27-.16 3.24 3.24 0 0 1 -.53-.35 2.17 2.17 0 0 1 -.24-.29 1.58 1.58 0 0 1 -.33-.48 1.8 1.8 0 0 1 -.16-.38c0-.09-.07-.18-.1-.27a.86.86 0 0 1 0-.32 1.05 1.05 0 0 1 -.06-.24v-10.58a2.68 2.68 0 0 1 5.36 0v5.49a13.35 13.35 0 0 0 -9.38-22.9 2.68 2.68 0 0 1 0-5.36 18.75 18.75 0 0 1 14.39 30.78h3.05a2.67 2.67 0 0 1 2.3 4z" fill="#fff"/><path d="m74.55 96a10.71 10.71 0 0 1 10.72-10.73h.54.31.22l.46.06a10.34 10.34 0 0 1 3.42 1.12l.35.2.12.07.27.17.18.11.18.13.25.18.09.07a10.84 10.84 0 0 1 2 2l.07.09.18.25.13.18.11.18c.06.09.12.18.17.27a.75.75 0 0 1 .07.12c.07.11.13.23.2.35a10.34 10.34 0 0 1 1.12 3.42.07.07 0 0 1 0 0l.06.46a1.7 1.7 0 0 1 0 .22v.31.54s0 .36 0 .54v.31a1.62 1.62 0 0 1 0 .22l-.06.47a10.29 10.29 0 0 1 -.97 3.69s0 0 0 .06l-.2.34a.75.75 0 0 1 -.07.12c0 .09-.11.18-.17.27l-.11.18a1.27 1.27 0 0 0 -.13.19l-.18.24-.07.09a10.55 10.55 0 0 1 -2 2l-.09.07-.25.18-.18.13-.19.12-.26.17-.12.06-.35.2a10.82 10.82 0 0 1 -3.42 1.12h-.47-.21-.31-.54a10.72 10.72 0 0 1 -10.87-10.54z" fill="#32363b"/><circle cx="85.27" cy="95.98" fill="currentColor" r="5.36"/></svg>