<svg xmlns="http://www.w3.org/2000/svg" xmlns:xlink="http://www.w3.org/1999/xlink" id="Layer_1" x="0" y="0" version="1.1" viewBox="0 0 120 100" xml:space="preserve">
	<title>Shared Linodes</title>
  <g>
    <path fill="#010101" d="M88 10H32c-6.6 0-12 5.3-12 12v56c0 6.6 5.4 12 12 12h56c6.6 0 12-5.4 12-12V22c0-6.6-5.4-12-12-12zm8 67.6c0 4.6-3.7 8.4-8.4 8.4H32.4c-4.6 0-8.4-3.7-8.4-8.4V22.4c0-4.6 3.7-8.4 8.4-8.4h55.2c4.6 0 8.4 3.7 8.4 8.4v55.2z"/>
    <defs>
      <path id="SVGID_1_77ee5f03b3bb44d0d912510a971d71dd" d="M33.5 20h52.9c1.9 0 3.5 1.6 3.5 3.5v52.9c0 1.9-1.6 3.5-3.5 3.5H33.5c-1.9 0-3.5-1.6-3.5-3.5V23.5c0-1.9 1.6-3.5 3.5-3.5z"/>
    </defs>
    <clipPath id="SVGID_2_77ee5f03b3bb44d0d912510a971d71dd">
      <use overflow="visible" xlink:href="#SVGID_1_77ee5f03b3bb44d0d912510a971d71dd"/>
    </clipPath>
    <g clip-path="url(#SVGID_2_77ee5f03b3bb44d0d912510a971d71dd)">
      <path fill="currentColor" d="M18.3 44.9h87.2v42.7H18.3z"/>
      <path d="M30.9 17.5v24.1M36.2 17.5v24.1M41.5 17.5v24.1M46.8 17.5v24.1M52.1 17.5v24.1M57.4 17.5v24.1M62.7 17.5v24.1M67.9 17.5v24.1M73.2 17.5v24.1M78.5 17.5v24.1M83.8 17.5v24.1M89.1 17.5v24.1" fill="none" stroke="#010101" stroke-miterlimit="10"/>
    </g>
    <path d="M6.9 22.9h8.3M6.9 33.7h8.3M6.9 44.6h8.3M6.9 55.4h8.3M6.9 66.3h8.3M6.9 77.1h8.3M113.1 22.9h-8.3M113.1 33.7h-8.3M113.1 44.6h-8.3M113.1 55.4h-8.3M113.1 66.3h-8.3M113.1 77.1h-8.3" class="st4-77ee5f03b3bb44d0d912510a971d71dd" fill="none" stroke="#010101" stroke-miterlimit="10" stroke-width="1.678" stroke-linecap="round"/>
  </g>
</svg>