<svg viewBox="0 0 200 200" xmlns="http://www.w3.org/2000/svg"><g fill="currentColor" stroke="#32363b" stroke-linecap="round" stroke-linejoin="round" stroke-width="4.57"><path d="m134.5 77.5h-39.19c.19.94.57 1.87.75 2.62a68.09 68.09 0 0 1 2.44 14.07c.19 1.87.19 3.93.19 5.81s0 3.94-.19 5.81a67.88 67.88 0 0 1 -2.44 14.06c-.18.94-.56 1.88-.75 2.63h39.19a22.5 22.5 0 0 0 0-45z"/><path d="m98.5 105.81c.19-1.87.19-3.94.19-5.81s0-3.94-.19-5.81a68 68 0 0 0 -2.44-14.06c-.19-.94-.56-1.88-.75-2.63h-60.56a76.8 76.8 0 0 0 0 45h60.56c.19-.94.56-1.88.75-2.63a68 68 0 0 0 2.44-14.06z"/><path d="m141.25 130h-48.75a78.07 78.07 0 0 1 -5.06 9.56 72.68 72.68 0 0 1 -9.94 12.75c-1.31 1.31-2.63 2.44-3.94 3.75a73.55 73.55 0 0 1 -8.62 6.56 74.15 74.15 0 0 0 41.25 12.38 75.15 75.15 0 0 0 62.43-33.37 38.2 38.2 0 0 0 -27.37-11.63z"/><path d="m87.44 139.56a78.07 78.07 0 0 0 5.06-9.56h-54.94a74.16 74.16 0 0 0 27.57 32.62 95.15 95.15 0 0 0 8.62-6.56c1.31-1.12 2.63-2.44 3.94-3.75a73.81 73.81 0 0 0 9.75-12.75z"/><path d="m77.5 47.69c-1.31-1.32-2.62-2.44-3.94-3.75a74.73 74.73 0 0 0 -8.62-6.57 76.7 76.7 0 0 0 -27.56 32.63h54.93a76 76 0 0 0 -5.06-9.56 58.75 58.75 0 0 0 -9.75-12.75z"/><path d="m106.19 25a74.23 74.23 0 0 0 -41.25 12.37 95.71 95.71 0 0 1 8.62 6.57c1.31 1.12 2.63 2.43 3.94 3.75a72.31 72.31 0 0 1 9.94 12.75 78.07 78.07 0 0 1 5.06 9.56h48.75a38.2 38.2 0 0 0 27.37-11.63 75.15 75.15 0 0 0 -62.43-33.37z"/></g></svg>