<svg viewBox="0 0 1920 1080" xmlns="http://www.w3.org/2000/svg" xmlns:xlink="http://www.w3.org/1999/xlink">
    <linearGradient id="a" gradientUnits="userSpaceOnUse" x1="722" x2="722" y1="953.3" y2="891.4">
        <stop offset="0" stop-color="#fcee1f" />
        <stop offset="1" stop-color="#f15b2a" />
    </linearGradient>
    <path d="m1708.3 539.4h-1094.4c-10.4 0-18.8-8.4-18.8-18.8v-456c0-10.4 8.4-18.8 18.8-18.8h1094.3c10.4 0 18.8 8.4 18.8 18.8v456c0 10.3-8.4 18.8-18.7 18.8z" fill="#4a9fcf" opacity=".3" />
    <path d="m349.8 539.4h-140.2c-9.2 0-16.6-7.4-16.6-16.6v-392.9c0-9.2 7.4-16.6 16.6-16.6h140.3c9.2 0 16.6 7.4 16.6 16.6v392.9c0 9.1-7.5 16.6-16.7 16.6z" style="fill:none;stroke-width:2.4;stroke:#0b153b;stroke-linecap:round;stroke-linejoin:round;stroke-dasharray:0 6" />
    <path d="m227.3 96.5h104.7v34.9h-104.7z" fill="#0b153b" />
    <path d="m259.2 116.5c-.2 1.6-.8 2.9-1.8 3.8s-2.4 1.3-4 1.3-3.3-.7-4.4-2-1.6-3-1.6-5.2v-1.5c0-1.4.3-2.7.8-3.8s1.2-1.9 2.2-2.5 2-.9 3.3-.9 2.9.5 3.9 1.4 1.6 2.2 1.7 3.8h-2c-.2-1.2-.6-2.1-1.1-2.7-.6-.6-1.4-.8-2.5-.8s-2.3.5-3 1.4-1.1 2.3-1.1 4.1v1.5c0 1.7.3 3 1 4s1.7 1.5 2.9 1.5 2-.3 2.6-.8 1-1.4 1.2-2.7h2-.1z" fill="#fff" />
    <path d="m263.8 121.4h-2v-16.2h2z" fill="#fff" />
    <path d="m266.9 106.9c0-.3 0-.6.3-.8.2-.2.5-.3.9-.3s.7 0 .9.3.3.5.3.8 0 .6-.3.8c-.2.2-.5.3-.9.3s-.7 0-.9-.3-.3-.5-.3-.8zm2.2 14.5h-2v-11.4h2z" fill="#fff" />
    <path d="m276.9 121.6c-1.6 0-2.8-.5-3.8-1.5s-1.5-2.4-1.5-4.1v-.4c0-1.1.2-2.1.7-3s1-1.6 1.8-2.1 1.6-.8 2.5-.8c1.5 0 2.6.5 3.5 1.5.8 1 1.2 2.4 1.2 4.2v.8h-7.7c0 1.1.4 2 1 2.7s1.4 1 2.4 1 1.3 0 1.8-.4.9-.7 1.3-1.1l1.2.9c-1 1.5-2.4 2.2-4.3 2.2h-.1zm-.2-10.2c-.8 0-1.5.3-2 .9s-.9 1.4-1 2.4h5.7c0-1.1-.3-1.9-.8-2.5-.5-.5-1.1-.8-1.9-.8z" fill="#fff" />
    <path d="m285.5 110v1.4c.9-1.1 2.1-1.6 3.5-1.6 2.4 0 3.6 1.4 3.7 4.1v7.6h-2v-7.6c0-.8-.2-1.4-.6-1.8s-.9-.6-1.7-.6-1.2.2-1.7.5-.9.8-1.1 1.3v8.2h-2v-11.4h1.9z" fill="#fff" />
    <path d="m298.3 107.2v2.8h2.1v1.5h-2.1v7.1c0 .5 0 .8.3 1s.5.3 1 .3.5 0 .9 0v1.6c-.5 0-1 .2-1.5.2-.9 0-1.5-.3-2-.8-.4-.5-.7-1.3-.7-2.3v-7.1h-2.1v-1.5h2.1v-2.8z" fill="#fff" />
    <path d="m309.3 118.4c0-.5-.2-.9-.6-1.2s-1.1-.5-2.1-.8c-1-.2-1.8-.5-2.4-.8s-1-.6-1.3-1.1c-.3-.4-.4-.9-.4-1.5 0-.9.4-1.7 1.2-2.4s1.8-1 3-1 2.3.3 3.2 1 1.2 1.5 1.2 2.6h-2c0-.5-.2-1-.7-1.4s-1-.6-1.7-.6-1.3.2-1.7.5-.6.7-.6 1.2.2.8.6 1.1c.4.2 1 .5 2 .7s1.8.5 2.4.8 1.1.7 1.3 1.1c.3.4.4.9.4 1.6 0 1-.4 1.8-1.2 2.5-.8.6-1.9.9-3.2.9s-1.7-.2-2.4-.5-1.3-.8-1.7-1.4-.6-1.2-.6-1.9h2c0 .7.3 1.2.8 1.6s1.1.6 1.9.6 1.3 0 1.8-.4c.4-.3.7-.7.7-1.2z" fill="#fff" />
    <path d="m245.7 160.1v-13.7h4.5c1.5 0 2.6.3 3.4.9s1.1 1.5 1.1 2.7-.2 1.2-.5 1.7c-.4.5-.9.9-1.5 1.1.7.2 1.3.6 1.8 1.2s.6 1.3.6 2.1c0 1.2-.4 2.2-1.2 2.9s-1.9 1.1-3.4 1.1zm1.8-7.9h2.7c.8 0 1.4-.2 1.9-.6s.7-.9.7-1.6-.2-1.3-.7-1.6-1.1-.5-2-.5h-2.7v4.4h.1zm0 1.5v4.9h3c.8 0 1.5-.2 2-.7.5-.4.7-1 .7-1.8 0-1.6-.9-2.5-2.7-2.5h-3z" fill="#0b153b" />
    <path d="m262.3 151.5h-.9c-1.1 0-1.9.5-2.3 1.5v7.2h-1.7v-10.2h1.7v1.2c.6-.9 1.4-1.4 2.5-1.4s.6 0 .8.1v1.6z" fill="#0b153b" />
    <path d="m263.2 154.9c0-1 .2-1.9.6-2.7s.9-1.4 1.6-1.8 1.5-.6 2.4-.6c1.4 0 2.5.5 3.4 1.4.9 1 1.3 2.2 1.3 3.8s-.2 2-.6 2.8-.9 1.4-1.6 1.8-1.5.7-2.4.7c-1.4 0-2.5-.5-3.4-1.4-.9-1-1.3-2.2-1.3-3.8zm1.8.2c0 1.1.3 2 .8 2.7s1.2 1 2.1 1 1.6-.3 2.1-1 .8-1.7.8-2.9-.3-2-.8-2.7-1.2-1-2.1-1-1.6.3-2.1 1-.8 1.7-.8 2.9z" fill="#0b153b" />
    <path d="m283.7 157.7 2-7.8h1.7l-3 10.2h-1.4l-2.5-7.7-2.4 7.7h-1.4l-3-10.2h1.7l2 7.6 2.4-7.6h1.4l2.4 7.8z" fill="#0b153b" />
    <path d="m295.1 157.4c0-.5-.2-.8-.5-1.1-.4-.3-1-.5-1.9-.7s-1.6-.4-2.1-.7-.9-.6-1.1-.9c-.2-.4-.4-.8-.4-1.3 0-.8.4-1.5 1.1-2.1s1.6-.9 2.7-.9 2.1.3 2.8.9 1.1 1.4 1.1 2.3h-1.7c0-.5-.2-.9-.6-1.2s-.9-.5-1.5-.5-1.1.1-1.5.4-.5.6-.5 1.1.2.7.5.9.9.4 1.8.6 1.6.4 2.1.7.9.6 1.2 1 .4.8.4 1.4c0 .9-.4 1.6-1.1 2.2-.7.5-1.7.8-2.8.8s-1.5-.1-2.2-.4c-.6-.3-1.1-.7-1.5-1.2s-.5-1.1-.5-1.7h1.7c0 .6.3 1 .7 1.4s1 .5 1.7.5 1.2-.1 1.6-.4.6-.6.6-1.1z" fill="#0b153b" />
    <path d="m303.3 160.3c-1.4 0-2.5-.5-3.4-1.4s-1.3-2.1-1.3-3.6v-.3c0-1 .2-1.9.6-2.7s.9-1.4 1.6-1.9c.7-.4 1.4-.7 2.3-.7 1.3 0 2.3.4 3.1 1.3.7.9 1.1 2.1 1.1 3.7v.7h-6.9c0 1 .3 1.8.9 2.4s1.3.9 2.1.9 1.1-.1 1.6-.4c.4-.3.8-.6 1.1-1l1.1.8c-.9 1.3-2.1 2-3.8 2v.2zm-.2-9.1c-.7 0-1.3.3-1.8.8s-.8 1.2-.9 2.1h5.1c0-1-.3-1.7-.7-2.2s-1-.7-1.7-.7z" fill="#0b153b" />
    <path d="m314.2 151.5h-.9c-1.1 0-1.9.5-2.3 1.5v7.2h-1.7v-10.2h1.7v1.2c.6-.9 1.4-1.4 2.5-1.4s.6 0 .8.1v1.6z" fill="#0b153b" />
    <path d="m271.7 280.5h-5.7l-1.3 3.6h-1.9l5.2-13.7h1.6l5.2 13.7h-1.9l-1.3-3.6zm-5.2-1.5h4.7l-2.3-6.4-2.3 6.4z" fill="#0b153b" />
    <path d="m285 279.1c0 1.5-.4 2.8-1.1 3.7s-1.7 1.4-2.9 1.4-2.2-.4-2.9-1.2v4.9h-1.7v-14.1h1.6v1.1c.8-.9 1.8-1.3 3-1.3s2.2.5 2.9 1.4 1.1 2.2 1.1 3.8zm-1.7-.2c0-1.1-.2-2.1-.7-2.7-.5-.7-1.2-1-2-1s-1.8.5-2.4 1.4v4.9c.5.9 1.3 1.4 2.4 1.4s1.5-.3 2-1 .7-1.6.7-2.9z" fill="#0b153b" />
    <path d="m295.8 279.1c0 1.5-.4 2.8-1.1 3.7s-1.7 1.4-2.9 1.4-2.2-.4-2.9-1.2v4.9h-1.7v-14.1h1.6v1.1c.8-.9 1.8-1.3 3-1.3s2.2.5 2.9 1.4 1.1 2.2 1.1 3.8zm-1.8-.2c0-1.1-.2-2.1-.7-2.7-.5-.7-1.2-1-2-1s-1.8.5-2.4 1.4v4.9c.5.9 1.3 1.4 2.4 1.4s1.5-.3 2-1 .7-1.6.7-2.9z" fill="#0b153b" />
    <path d="m252.4 421.3v-13.7h3.9c1.2 0 2.2.3 3.2.8s1.6 1.3 2.1 2.2.8 2.1.8 3.3v.9c0 1.3-.2 2.4-.7 3.4s-1.2 1.7-2.1 2.2-2 .8-3.2.8h-4zm1.8-12.2v10.7h1.9c1.4 0 2.5-.4 3.2-1.3.8-.9 1.2-2.1 1.2-3.7v-.8c0-1.6-.4-2.8-1.1-3.6s-1.8-1.3-3.1-1.3z" fill="#0b153b" />
    <path d="m269 421.5c-1.4 0-2.5-.5-3.4-1.4s-1.3-2.1-1.3-3.6v-.3c0-1 .2-1.9.6-2.7s.9-1.4 1.6-1.9c.7-.4 1.4-.7 2.3-.7 1.3 0 2.3.4 3.1 1.3.7.9 1.1 2.1 1.1 3.7v.7h-6.9c0 1 .3 1.8.9 2.4s1.3.9 2.1.9 1.1-.1 1.6-.4c.4-.3.8-.6 1.1-1l1.1.8c-.9 1.3-2.1 2-3.8 2v.2zm-.2-9.1c-.7 0-1.3.3-1.8.8s-.8 1.2-.9 2.1h5.1c0-1-.3-1.7-.7-2.2s-1-.7-1.7-.7z" fill="#0b153b" />
    <path d="m278.2 419 2.5-7.8h1.8l-3.6 10.2h-1.3l-3.7-10.2h1.8l2.6 7.8z" fill="#0b153b" />
    <path d="m284.2 408.5c0-.3 0-.5.3-.7s.4-.3.8-.3.6 0 .8.3c.2.2.3.4.3.7s0 .5-.3.7c-.2.2-.4.3-.8.3s-.6 0-.8-.3c-.2-.2-.3-.4-.3-.7zm1.8 12.8h-1.7v-10.2h1.7z" fill="#0b153b" />
    <path d="m292.9 420.1c.6 0 1.2-.2 1.6-.6s.7-.8.8-1.4h1.6c0 .6-.2 1.1-.6 1.7s-.9.9-1.5 1.3c-.6.3-1.3.5-2 .5-1.4 0-2.5-.5-3.3-1.4s-1.2-2.2-1.2-3.8v-.3c0-1 .2-1.9.5-2.6s.9-1.4 1.6-1.8 1.5-.6 2.4-.6 2.1.3 2.8 1 1.2 1.6 1.2 2.7h-1.6c0-.7-.3-1.2-.7-1.6s-1-.6-1.7-.6-1.6.3-2.1 1c-.5.6-.7 1.6-.7 2.8v.3c0 1.2.2 2.1.7 2.7s1.2.9 2.1.9v-.2z" fill="#0b153b" />
    <path d="m303.1 421.5c-1.4 0-2.5-.5-3.4-1.4s-1.3-2.1-1.3-3.6v-.3c0-1 .2-1.9.6-2.7s.9-1.4 1.6-1.9c.7-.4 1.4-.7 2.3-.7 1.3 0 2.3.4 3.1 1.3.7.9 1.1 2.1 1.1 3.7v.7h-6.9c0 1 .3 1.8.9 2.4s1.3.9 2.1.9 1.1-.1 1.6-.4c.4-.3.8-.6 1.1-1l1.1.8c-.9 1.3-2.1 2-3.8 2v.2zm-.2-9.1c-.7 0-1.3.3-1.8.8s-.8 1.2-.9 2.1h5.1c0-1-.3-1.7-.7-2.2s-1-.7-1.7-.7z" fill="#0b153b" />
    <path d="m316.9 229.2v-51.9h-74.4v51.9h26.3v4.7h-7.5v12.6h36.8v-12.6h-7.5v-4.7zm-70.8-48.3h67.2v44.7h-67.2zm48.4 61.9h-29.6v-5.3h29.6zm-7.5-8.9h-14.5v-4.7h14.5z" fill="#0b153b" />
    <path d="m298.7 368.4h-38v-68.5h38zm-34.4-3.6h30.8v-61.3h-30.8z" fill="#0b153b" />
    <circle cx="279.7" cy="357.6" fill="#0b153b" r="3.3" />
    <path d="m316.9 468.4h-74.4v-27.8h74.4zm-70.8-3.6h67.2v-20.6h-67.2z" fill="#0b153b" />
    <path d="m252.7 452.7h27.5v3.6h-27.5z" fill="#0b153b" />
    <path d="m316.9 502.2h-74.4v-27.8h74.4zm-70.8-3.6h67.2v-20.6h-67.2z" fill="#0b153b" />
    <path d="m252.7 486.5h27.5v3.6h-27.5z" fill="#0b153b" />
    <path d="m463.4 203.3v418.9" style="fill:none;stroke-width:2.4;stroke-linecap:round;stroke-linejoin:round;stroke-dasharray:0 6;stroke:#743db9" />
    <path d="m463.4 641.7-6.4-19.5h12.8z" fill="#743db9" />
    <path d="m428.9 641.7h68.9v68.9h-68.9z" fill="#743db9" />
    <path d="m464.6 756.1v-45.5h-2.4v45.5h-5.2l6.4 19.5 6.4-19.5z" fill="#4a9fcf" />
    <path d="m587 1032.6h-247.3c-18.8 0-34.1-15.3-34.1-34.1v-187.8c0-18.8 15.3-34.1 34.1-34.1h247.3c18.8 0 34.1 15.3 34.1 34.1v187.8c0 18.8-15.2 34.1-34.1 34.1z" style="fill:none;stroke:#0b153b;stroke-linecap:round;stroke-linejoin:round;stroke-dasharray:0 6.3;stroke-width:2.5" />
    <path d="m321.2 658.3h-3.2v5.5h-1.8v-13.7h4.5c1.5 0 2.7.3 3.6 1.1s1.2 1.7 1.2 3.1-.2 1.6-.7 2.2-1.1 1.1-1.9 1.4l3.2 5.8h-1.9l-3-5.5zm-3.2-1.5h2.8c.9 0 1.6-.2 2.1-.7s.8-1.1.8-1.9-.3-1.5-.8-1.9c-.5-.5-1.2-.7-2.2-.7h-2.8v5.2z" fill="#0b153b" />
    <path d="m332 664c-1.4 0-2.5-.5-3.4-1.4s-1.3-2.1-1.3-3.6v-.3c0-1 .2-1.9.6-2.7s.9-1.4 1.6-1.9 1.4-.7 2.3-.7c1.3 0 2.3.4 3.1 1.3.7.9 1.1 2.1 1.1 3.7v.7h-6.9c0 1 .3 1.8.9 2.4s1.3.9 2.1.9 1.1 0 1.6-.4c.4-.2.8-.6 1.1-1l1.1.8c-.9 1.3-2.1 2-3.8 2v.2zm-.2-9.1c-.7 0-1.3.3-1.8.8s-.8 1.2-.9 2.1h5.1c0-1-.3-1.7-.7-2.2s-1-.7-1.7-.7z" fill="#0b153b" />
    <path d="m344.3 663.8c-.1-.2-.2-.6-.2-1.1-.8.8-1.8 1.3-2.9 1.3s-1.8-.3-2.5-.8c-.6-.6-1-1.3-1-2.2s.4-1.9 1.2-2.5 1.9-.9 3.4-.9h1.7v-.8c0-.6-.2-1.1-.5-1.5-.4-.4-.9-.5-1.6-.5s-1.1.2-1.6.5c-.4.3-.6.7-.6 1.1h-1.7c0-.5.2-1 .5-1.5.4-.5.8-.8 1.5-1.1.6-.3 1.3-.4 2-.4 1.2 0 2.1.3 2.8.9s1 1.4 1 2.4v4.7c0 .9.1 1.7.4 2.2v.2zm-2.9-1.3c.5 0 1.1 0 1.6-.4s.8-.6 1.1-1.1v-2.1h-1.4c-2.1 0-3.2.6-3.2 1.9s.2 1 .5 1.3.8.5 1.4.5z" fill="#0b153b" />
    <path d="m350.3 663.8h-1.7v-14.4h1.7z" fill="#0b153b" />
    <path d="m367.8 650.1v9.3c0 1.3-.4 2.3-1.2 3.2s-1.9 1.3-3.3 1.4h-.5c-1.5 0-2.7-.4-3.6-1.2s-1.3-1.9-1.4-3.3v-9.3h1.8v9.3c0 1 .3 1.8.8 2.3s1.3.8 2.3.8 1.8-.3 2.3-.8.8-1.3.8-2.3v-9.3h2z" fill="#0b153b" />
    <path d="m376.3 661.1c0-.5-.2-.8-.5-1.1-.4-.3-1-.5-1.9-.7s-1.6-.4-2.1-.7-.9-.6-1.1-.9c-.2-.4-.4-.8-.4-1.3 0-.8.4-1.5 1.1-2.1s1.6-.9 2.7-.9 2.1.3 2.8.9 1.1 1.4 1.1 2.3h-1.7c0-.5-.2-.9-.6-1.2s-.9-.5-1.5-.5-1.1 0-1.5.4-.5.6-.5 1.1.2.7.5.9.9.4 1.8.6 1.6.4 2.1.7.9.6 1.2 1 .4.8.4 1.4c0 .9-.4 1.6-1.1 2.2s-1.7.8-2.8.8-1.5 0-2.2-.4c-.6-.3-1.1-.7-1.5-1.2s-.5-1.1-.5-1.7h1.7c0 .6.3 1 .7 1.4s1 .5 1.7.5 1.2 0 1.6-.4.6-.6.6-1.1z" fill="#0b153b" />
    <path d="m384.5 664c-1.4 0-2.5-.5-3.4-1.4s-1.3-2.1-1.3-3.6v-.3c0-1 .2-1.9.6-2.7s.9-1.4 1.6-1.9c.7-.4 1.4-.7 2.2-.7 1.3 0 2.3.4 3.1 1.3.7.9 1.1 2.1 1.1 3.7v.7h-6.9c0 1 .3 1.8.9 2.4s1.3.9 2.1.9 1.1 0 1.6-.4.8-.6 1.1-1l1.1.8c-.9 1.3-2.1 2-3.8 2zm-.2-9.1c-.7 0-1.3.3-1.8.8s-.8 1.2-.9 2.1h5.1c0-1-.3-1.7-.7-2.2s-1-.7-1.7-.7z" fill="#0b153b" />
    <path d="m395.4 655.2h-.9c-1.1 0-1.9.5-2.3 1.5v7.2h-1.7v-10.2h1.7v1.2c.6-.9 1.4-1.4 2.5-1.4s.6 0 .8 0v1.6h-.1z" fill="#0b153b" />
    <path d="m312.7 673.2 4.5 11.2 4.5-11.2h2.3v13.7h-1.8v-5.3l.2-5.8-4.5 11.1h-1.4l-4.5-11.1.2 5.7v5.3h-1.8v-13.7h2.3z" fill="#0b153b" />
    <path d="m326.5 681.7c0-1 .2-1.9.6-2.7s.9-1.4 1.6-1.8 1.5-.6 2.4-.6c1.4 0 2.5.5 3.4 1.4.9 1 1.3 2.2 1.3 3.8s-.2 2-.6 2.8-.9 1.4-1.6 1.8-1.5.7-2.4.7c-1.4 0-2.5-.5-3.4-1.4-.9-1-1.3-2.2-1.3-3.8zm1.7.2c0 1.1.3 2 .8 2.7s1.2 1 2.1 1 1.6-.3 2.1-1 .8-1.7.8-2.9-.3-2-.8-2.7-1.2-1-2.1-1-1.6.3-2.1 1-.8 1.7-.8 2.9z" fill="#0b153b" />
    <path d="m339.6 676.7v1.3c.8-1 1.8-1.5 3.1-1.5 2.1 0 3.2 1.2 3.3 3.6v6.7h-1.7v-6.7c0-.7-.2-1.3-.5-1.6-.3-.4-.8-.5-1.5-.5s-1.1.2-1.5.5-.8.7-1 1.2v7.2h-1.7v-10.2h1.6z" fill="#0b153b" />
    <path d="m348.5 674c0-.3 0-.5.3-.7.2-.2.4-.3.8-.3s.6 0 .8.3c.2.2.3.4.3.7s0 .5-.3.7c-.2.2-.4.3-.8.3s-.6 0-.8-.3c-.2-.2-.3-.4-.3-.7zm1.9 12.9h-1.7v-10.2h1.7z" fill="#0b153b" />
    <path d="m355.6 674.3v2.5h1.9v1.3h-1.9v6.3c0 .4 0 .7.3.9.2.2.5.3.9.3s.5 0 .8 0v1.4c-.5 0-.9.2-1.3.2-.8 0-1.4-.2-1.8-.7s-.6-1.1-.6-2v-6.3h-1.9v-1.3h1.9v-2.5h1.7z" fill="#0b153b" />
    <path d="m358.8 681.7c0-1 .2-1.9.6-2.7s.9-1.4 1.6-1.8 1.5-.6 2.4-.6c1.4 0 2.5.5 3.4 1.4.9 1 1.3 2.2 1.3 3.8s-.2 2-.6 2.8-.9 1.4-1.6 1.8-1.5.7-2.4.7c-1.4 0-2.5-.5-3.3-1.4s-1.3-2.2-1.3-3.8v-.2zm1.8.2c0 1.1.3 2 .8 2.7s1.2 1 2.1 1 1.6-.3 2.1-1 .8-1.7.8-2.9-.3-2-.8-2.7-1.2-1-2.1-1-1.6.3-2.1 1-.8 1.7-.8 2.9z" fill="#0b153b" />
    <path d="m375.2 678.3h-.9c-1.1 0-1.9.5-2.3 1.5v7.2h-1.7v-10.2h1.7v1.2c.6-.9 1.4-1.4 2.5-1.4s.6 0 .8 0v1.6h-.1z" fill="#0b153b" />
    <path d="m376.8 674c0-.3 0-.5.3-.7.2-.2.4-.3.8-.3s.6 0 .8.3c.2.2.3.4.3.7s0 .5-.3.7c-.2.2-.4.3-.8.3s-.6 0-.8-.3c-.2-.2-.3-.4-.3-.7zm1.9 12.9h-1.7v-10.2h1.7z" fill="#0b153b" />
    <path d="m383.1 676.7v1.3c.8-1 1.8-1.5 3.1-1.5 2.1 0 3.2 1.2 3.3 3.6v6.7h-1.7v-6.7c0-.7-.2-1.3-.5-1.6-.3-.4-.8-.5-1.5-.5s-1.1.2-1.5.5-.8.7-1 1.2v7.2h-1.7v-10.2h1.6z" fill="#0b153b" />
    <path d="m391.7 681.7c0-1.6.4-2.8 1.1-3.8s1.7-1.4 2.9-1.4 2.2.4 2.9 1.3v-1.1h1.7v9.9c0 1.3-.4 2.4-1.2 3.1s-1.8 1.1-3.1 1.1-1.5-.2-2.2-.5-1.2-.7-1.6-1.3l.9-1c.7.9 1.7 1.4 2.7 1.4s1.5-.2 2-.7.7-1.1.7-2v-.9c-.7.8-1.6 1.2-2.8 1.2s-2.2-.5-2.9-1.4-1.1-2.3-1.1-3.9zm1.7.2c0 1.1.2 2 .7 2.7s1.1 1 2 1 1.9-.5 2.4-1.5v-4.6c-.5-1-1.3-1.5-2.4-1.5s-1.5.3-2 1-.7 1.6-.7 2.9z" fill="#0b153b" />
    <path d="m370.2 818h63.7v63.7h-63.7z" fill="#743db9" />
    <path d="m492.8 818h63.7v63.7h-63.7z" fill="#743db9" />
    <path d="m383.4 919.2v-13.7h3.9c1.2 0 2.2.3 3.2.8s1.6 1.3 2.1 2.2.8 2.1.8 3.3v.9c0 1.3-.2 2.4-.7 3.4s-1.2 1.7-2.1 2.2-2 .8-3.2.8h-4zm1.8-12.2v10.7h1.9c1.4 0 2.5-.4 3.2-1.3.8-.9 1.2-2.1 1.2-3.7v-.8c0-1.6-.4-2.8-1.1-3.6-.7-.9-1.8-1.3-3.1-1.3z" fill="#0b153b" />
    <path d="m402.1 919.2c-.1-.2-.2-.6-.2-1.1-.8.8-1.8 1.3-2.9 1.3s-1.8-.3-2.5-.8c-.6-.6-1-1.3-1-2.2s.4-1.9 1.2-2.5 1.9-.9 3.4-.9h1.7v-.8c0-.6-.2-1.1-.5-1.5-.4-.4-.9-.5-1.6-.5s-1.1.2-1.6.5c-.4.3-.6.7-.6 1.1h-1.7c0-.5.2-1 .5-1.5s.8-.8 1.5-1.1c.6-.3 1.3-.4 2-.4 1.2 0 2.1.3 2.8.9s1 1.4 1 2.4v4.7c0 .9.1 1.7.4 2.2v.2zm-2.9-1.3c.5 0 1.1 0 1.6-.4s.8-.6 1.1-1.1v-2.1h-1.4c-2.1 0-3.2.6-3.2 1.9s.2 1 .5 1.3.8.5 1.4.5z" fill="#0b153b" />
    <path d="m408.6 906.6v2.5h1.9v1.3h-1.9v6.3c0 .4 0 .7.3.9.2.2.5.3.9.3s.5 0 .8 0v1.4c-.5 0-.9.2-1.3.2-.8 0-1.4-.2-1.8-.7s-.6-1.1-.6-2v-6.3h-1.9v-1.3h1.9v-2.5h1.7z" fill="#0b153b" />
    <path d="m418.8 919.2c-.1-.2-.2-.6-.2-1.1-.8.8-1.8 1.3-2.9 1.3s-1.8-.3-2.5-.8-1-1.3-1-2.2.4-1.9 1.2-2.5 1.9-.9 3.4-.9h1.7v-.8c0-.6-.2-1.1-.5-1.5-.4-.4-.9-.5-1.6-.5s-1.1.2-1.6.5c-.4.3-.6.7-.6 1.1h-1.7c0-.5.2-1 .5-1.5s.8-.8 1.5-1.1 1.3-.4 2-.4c1.2 0 2.1.3 2.8.9s1 1.4 1 2.4v4.7c0 .9.1 1.7.4 2.2v.2zm-2.9-1.3c.5 0 1.1 0 1.6-.4s.8-.6 1.1-1.1v-2.1h-1.4c-2.1 0-3.2.6-3.2 1.9s.2 1 .5 1.3.8.5 1.4.5z" fill="#0b153b" />
    <path d="m362.4 938.8h-5.7l-1.3 3.6h-1.9l5.2-13.7h1.6l5.2 13.7h-1.9l-1.3-3.6zm-5.2-1.5h4.7l-2.3-6.4-2.3 6.4z" fill="#0b153b" />
    <path d="m371.2 941.1c.6 0 1.2-.2 1.6-.6.5-.4.7-.8.8-1.4h1.6c0 .6-.2 1.1-.6 1.7s-.9.9-1.5 1.3c-.6.3-1.3.5-2 .5-1.4 0-2.5-.5-3.3-1.4s-1.2-2.2-1.2-3.8v-.3c0-1 .2-1.9.5-2.6s.9-1.4 1.6-1.8 1.5-.6 2.4-.6 2.1.3 2.8 1c.8.7 1.2 1.6 1.2 2.7h-1.6c0-.7-.3-1.2-.7-1.6s-1-.6-1.7-.6-1.6.3-2.1 1c-.5.6-.7 1.6-.7 2.8v.3c0 1.2.2 2.1.7 2.7s1.2.9 2.1.9v-.2z" fill="#0b153b" />
    <path d="m376.8 937.2c0-1.6.4-2.9 1.1-3.8s1.7-1.4 3-1.4 2.2.4 2.8 1.2v-1h1.7v14.1h-1.7v-4.8c-.7.8-1.6 1.1-2.8 1.1s-2.2-.5-2.9-1.4-1.1-2.2-1.1-3.8v-.2zm1.7.2c0 1.2.2 2.1.7 2.7.5.7 1.2 1 2 1s1.8-.5 2.4-1.4v-5c-.6-.9-1.3-1.3-2.3-1.3s-1.5.3-2 1-.7 1.7-.7 3z" fill="#0b153b" />
    <path d="m394.4 941.3c-.7.8-1.7 1.2-3 1.2s-1.9-.3-2.5-.9-.9-1.6-.9-2.8v-6.6h1.7v6.6c0 1.5.6 2.3 1.9 2.3s2.2-.5 2.6-1.5v-7.4h1.7v10.2h-1.7v-1h.2z" fill="#0b153b" />
    <path d="m398.7 929.5c0-.3 0-.5.3-.7.2-.2.4-.3.8-.3s.6 0 .8.3c.2.2.3.4.3.7s0 .5-.3.7c-.2.2-.4.3-.8.3s-.6 0-.8-.3c-.2-.2-.3-.4-.3-.7zm1.9 12.8h-1.7v-10.2h1.7z" fill="#0b153b" />
    <path d="m409.3 939.6c0-.5-.2-.8-.5-1.1-.4-.3-1-.5-1.9-.7s-1.6-.4-2.1-.7-.9-.6-1.1-.9c-.2-.4-.4-.8-.4-1.3 0-.8.4-1.5 1.1-2.1s1.6-.9 2.7-.9 2.1.3 2.8.9 1.1 1.4 1.1 2.3h-1.7c0-.5-.2-.9-.6-1.2s-.9-.5-1.5-.5-1.1 0-1.5.4-.5.6-.5 1.1.2.7.5.9.9.4 1.8.6 1.6.4 2.1.7.9.6 1.2 1 .4.8.4 1.4c0 .9-.4 1.6-1.1 2.2-.7.5-1.7.8-2.8.8s-1.5 0-2.2-.4-1.1-.7-1.5-1.2-.5-1.1-.5-1.7h1.7c0 .6.3 1 .7 1.4s1 .5 1.7.5 1.2 0 1.6-.4.6-.6.6-1.1z" fill="#0b153b" />
    <path d="m413.3 929.5c0-.3 0-.5.3-.7.2-.2.4-.3.8-.3s.6 0 .8.3c.2.2.3.4.3.7s0 .5-.3.7c-.2.2-.4.3-.8.3s-.6 0-.8-.3c-.2-.2-.3-.4-.3-.7zm1.9 12.8h-1.7v-10.2h1.7z" fill="#0b153b" />
    <path d="m420.4 929.7v2.5h1.9v1.3h-1.9v6.3c0 .4 0 .7.3.9.2.2.5.3.9.3s.5 0 .8 0v1.4c-.5 0-.9.2-1.3.2-.8 0-1.4-.2-1.8-.7s-.6-1.1-.6-2v-6.3h-1.9v-1.3h1.9v-2.5h1.7z" fill="#0b153b" />
    <path d="m424.3 929.5c0-.3 0-.5.3-.7s.4-.3.8-.3.6 0 .8.3.3.4.3.7 0 .5-.3.7c-.2.2-.4.3-.8.3s-.6 0-.8-.3c-.2-.2-.3-.4-.3-.7zm1.9 12.8h-1.7v-10.2h1.7z" fill="#0b153b" />
    <path d="m428.5 937.2c0-1 .2-1.9.6-2.7s.9-1.4 1.6-1.8 1.5-.6 2.4-.6c1.4 0 2.5.5 3.4 1.4.9 1 1.3 2.2 1.3 3.8s-.2 2-.6 2.8-.9 1.4-1.6 1.8-1.5.7-2.4.7c-1.4 0-2.5-.5-3.4-1.4-.9-1-1.3-2.2-1.3-3.8zm1.7.2c0 1.1.3 2 .8 2.7s1.2 1 2.1 1 1.6-.3 2.1-1 .8-1.7.8-2.9-.3-2-.8-2.7-1.2-1-2.1-1-1.6.3-2.1 1-.8 1.7-.8 2.9z" fill="#0b153b" />
    <path d="m441.6 932.2v1.3c.8-1 1.8-1.5 3.1-1.5 2.1 0 3.2 1.2 3.3 3.6v6.7h-1.7v-6.7c0-.7-.2-1.3-.5-1.6-.3-.4-.8-.5-1.5-.5s-1.1.2-1.5.5-.8.7-1 1.2v7.2h-1.7v-10.2h1.6z" fill="#0b153b" />
    <path d="m506 919.2v-13.7h3.9c1.2 0 2.2.3 3.2.8s1.6 1.3 2.1 2.2.8 2.1.8 3.3v.9c0 1.3-.2 2.4-.7 3.4s-1.2 1.7-2.1 2.2-2 .8-3.2.8h-4zm1.8-12.2v10.7h1.9c1.4 0 2.5-.4 3.2-1.3.8-.9 1.2-2.1 1.2-3.7v-.8c0-1.6-.4-2.8-1.1-3.6-.7-.9-1.8-1.3-3.1-1.3z" fill="#0b153b" />
    <path d="m524.6 919.2c0-.2-.2-.6-.2-1.1-.8.8-1.8 1.3-2.9 1.3s-1.8-.3-2.5-.8c-.6-.6-1-1.3-1-2.2s.4-1.9 1.2-2.5 1.9-.9 3.4-.9h1.7v-.8c0-.6-.2-1.1-.5-1.5-.4-.4-.9-.5-1.6-.5s-1.1.2-1.6.5c-.4.3-.6.7-.6 1.1h-1.7c0-.5.2-1 .5-1.5s.8-.8 1.5-1.1c.6-.3 1.3-.4 2-.4 1.2 0 2.1.3 2.8.9s1 1.4 1 2.4v4.7c0 .9 0 1.7.4 2.2v.2zm-2.8-1.3c.5 0 1.1 0 1.6-.4s.8-.6 1.1-1.1v-2.1h-1.4c-2.1 0-3.2.6-3.2 1.9s.2 1 .5 1.3.8.5 1.4.5z" fill="#0b153b" />
    <path d="m531.2 906.6v2.5h1.9v1.3h-1.9v6.3c0 .4 0 .7.3.9.2.2.5.3.9.3s.5 0 .8 0v1.4c-.5 0-.9.2-1.3.2-.8 0-1.4-.2-1.8-.7s-.6-1.1-.6-2v-6.3h-1.9v-1.3h1.9v-2.5h1.7z" fill="#0b153b" />
    <path d="m541.4 919.2c0-.2-.2-.6-.2-1.1-.8.8-1.8 1.3-2.9 1.3s-1.8-.3-2.5-.8-1-1.3-1-2.2.4-1.9 1.2-2.5 1.9-.9 3.4-.9h1.7v-.8c0-.6-.2-1.1-.5-1.5-.4-.4-.9-.5-1.6-.5s-1.1.2-1.6.5c-.4.3-.6.7-.6 1.1h-1.7c0-.5.2-1 .5-1.5s.8-.8 1.5-1.1 1.3-.4 2-.4c1.2 0 2.1.3 2.8.9s1 1.4 1 2.4v4.7c0 .9 0 1.7.4 2.2v.2zm-2.9-1.3c.5 0 1.1 0 1.6-.4s.8-.6 1.1-1.1v-2.1h-1.4c-2.1 0-3.2.6-3.2 1.9s.2 1 .5 1.3.8.5 1.4.5z" fill="#0b153b" />
    <path d="m497.1 938.8h-5.7l-1.3 3.6h-1.9l5.2-13.7h1.6l5.2 13.7h-1.9l-1.3-3.6zm-5.2-1.5h4.7l-2.3-6.4-2.3 6.4z" fill="#0b153b" />
    <path d="m503.4 932.2v1.3c.8-1 1.8-1.5 3.1-1.5 2.1 0 3.2 1.2 3.3 3.6v6.7h-1.7v-6.7c0-.7-.2-1.3-.5-1.6-.3-.4-.8-.5-1.5-.5s-1.1.2-1.5.5-.8.7-1 1.2v7.2h-1.7v-10.2h1.6z" fill="#0b153b" />
    <path d="m518.7 942.3c0-.2-.2-.6-.2-1.1-.8.8-1.8 1.3-2.9 1.3s-1.8-.3-2.5-.8c-.6-.6-1-1.3-1-2.2s.4-1.9 1.2-2.5 1.9-.9 3.4-.9h1.7v-.8c0-.6-.2-1.1-.5-1.5s-.9-.5-1.6-.5-1.1.2-1.6.5-.6.7-.6 1.1h-1.7c0-.5.2-1 .5-1.5.4-.5.8-.8 1.5-1.1.6-.3 1.3-.4 2-.4 1.2 0 2.1.3 2.8.9s1 1.4 1 2.4v4.7c0 .9 0 1.7.4 2.2v.2zm-2.9-1.3c.5 0 1.1 0 1.6-.4s.8-.6 1.1-1.1v-2.1h-1.4c-2.1 0-3.2.6-3.2 1.9s.2 1 .5 1.3.8.5 1.4.5z" fill="#0b153b" />
    <path d="m524.8 942.3h-1.7v-14.4h1.7z" fill="#0b153b" />
    <path d="m530.9 939.8 2.4-7.6h1.9l-4.1 11.7c-.6 1.7-1.6 2.5-3 2.5h-.3l-.6-.2v-1.4h.5c.6 0 1 0 1.4-.3.3-.2.6-.7.8-1.3l.4-1-3.6-10.1h1.9l2.5 7.6h-.2z" fill="#0b153b" />
    <path d="m542.6 939.6c0-.5-.2-.8-.5-1.1-.4-.3-1-.5-1.9-.7s-1.6-.4-2.1-.7-.9-.6-1.1-.9-.4-.8-.4-1.3c0-.8.4-1.5 1.1-2.1s1.6-.9 2.7-.9 2.1.3 2.8.9 1.1 1.4 1.1 2.3h-1.7c0-.5-.2-.9-.6-1.2s-.9-.5-1.5-.5-1.1 0-1.5.4-.5.6-.5 1.1.2.7.5.9.9.4 1.8.6 1.6.4 2.1.7.9.6 1.2 1 .4.8.4 1.4c0 .9-.4 1.6-1.1 2.2-.7.5-1.7.8-2.8.8s-1.5 0-2.2-.4c-.6-.3-1.1-.7-1.5-1.2s-.5-1.1-.5-1.7h1.7c0 .6.3 1 .7 1.4.4.3 1 .5 1.7.5s1.2 0 1.6-.4.6-.6.6-1.1z" fill="#0b153b" />
    <path d="m546.6 929.5c0-.3 0-.5.3-.7.2-.2.4-.3.8-.3s.6 0 .8.3c.2.2.3.4.3.7s0 .5-.3.7c-.2.2-.4.3-.8.3s-.6 0-.8-.3c-.2-.2-.3-.4-.3-.7zm1.9 12.8h-1.7v-10.2h1.7z" fill="#0b153b" />
    <path d="m557.2 939.6c0-.5-.2-.8-.5-1.1-.4-.3-1-.5-1.9-.7s-1.6-.4-2.1-.7-.9-.6-1.1-.9c-.2-.4-.4-.8-.4-1.3 0-.8.4-1.5 1.1-2.1s1.6-.9 2.7-.9 2.1.3 2.8.9 1.1 1.4 1.1 2.3h-1.7c0-.5-.2-.9-.6-1.2s-.9-.5-1.5-.5-1.1 0-1.5.4-.5.6-.5 1.1.2.7.5.9.9.4 1.8.6 1.6.4 2.1.7.9.6 1.2 1 .4.8.4 1.4c0 .9-.4 1.6-1.1 2.2-.7.5-1.7.8-2.8.8s-1.5 0-2.2-.4c-.6-.3-1.1-.7-1.5-1.2s-.5-1.1-.5-1.7h1.7c0 .6.3 1 .7 1.4s1 .5 1.7.5 1.2 0 1.6-.4.6-.6.6-1.1z" fill="#0b153b" />
    <path d="m360.4 987.5h-3.5v-7.3h-6.9v7.3h-3.5v-17.1h3.5v6.9h6.9v-6.9h3.5z" fill="#4a9fcf" />
    <path d="m368 982.7 2.3-7.9h3.6l-5.4 15.4c-.8 1.7-2 2.5-3.8 2.5s-1 0-1.5-.2v-2.6h.5c.6 0 1.1 0 1.4-.3.3-.2.6-.5.7-1l.4-1-4.5-12.7h3.7l2.4 7.9h.2z" fill="#4a9fcf" />
    <path d="m374.7 981.1c0-2 .4-3.6 1.3-4.7s2.1-1.8 3.6-1.8 2.3.5 3.1 1.4v-6.5h3.4v18h-3.1l-.2-1.4c-.8 1.1-1.9 1.6-3.3 1.6s-2.7-.6-3.6-1.8-1.4-2.8-1.4-4.9h.2zm3.4.2c0 1.2.2 2.1.6 2.7s1 1 1.8 1 1.8-.4 2.2-1.3v-5c-.4-.9-1.2-1.3-2.2-1.3-1.6 0-2.5 1.3-2.5 4h.1z" fill="#4a9fcf" />
    <path d="m395.9 978h-1.2c-1.3 0-2.1.4-2.5 1.3v8.3h-3.4v-12.7h3.2v1.5c.8-1.2 1.7-1.8 2.9-1.8s.7 0 1.1.2v3.3h-.1z" fill="#4a9fcf" />
    <path d="m396.6 981.1c0-1.3.2-2.4.7-3.4s1.2-1.8 2.1-2.3 2-.8 3.2-.8c1.7 0 3.1.5 4.2 1.6s1.7 2.5 1.8 4.3v.9c0 2-.5 3.5-1.6 4.7s-2.5 1.8-4.4 1.8-3.3-.6-4.4-1.8-1.6-2.8-1.6-4.8zm3.4.2c0 1.2.2 2.1.7 2.8s1.1 1 2 1 1.5-.3 1.9-.9.7-1.6.7-3-.2-2.1-.7-2.8-1.1-1-1.9-1-1.5.3-1.9 1c-.5.6-.7 1.7-.7 3h-.1z" fill="#4a9fcf" />
    <path d="m414.3 987.5h-3.4v-18h3.4z" fill="#4a9fcf" />
    <path d="m417.1 971.5c0-.5.2-.9.5-1.3.3-.3.8-.5 1.4-.5s1 .2 1.4.5c.3.3.5.7.5 1.3s-.2.9-.5 1.3c-.3.3-.8.5-1.4.5s-1-.2-1.4-.5c-.3-.3-.5-.8-.5-1.3zm3.6 16h-3.4v-12.7h3.4z" fill="#4a9fcf" />
    <path d="m428.3 978.6 2.1-3.8h3.6l-3.6 6.2 3.8 6.5h-3.6l-2.3-4-2.3 4h-3.7l3.8-6.5-3.6-6.2h3.6l2.1 3.8z" fill="#4a9fcf" />
    <path d="m448.3 981.6h-6.6v-2.7h6.6z" fill="#4a9fcf" />
    <path d="m469.4 973.3h-5.2v14.2h-3.5v-14.2h-5.2v-2.9h13.9z" fill="#4a9fcf" />
    <path d="m477.6 978h-1.2c-1.3 0-2.1.4-2.5 1.3v8.3h-3.4v-12.7h3.2v1.5c.8-1.2 1.7-1.8 2.9-1.8s.7 0 1.1.2v3.3h-.1z" fill="#4a9fcf" />
    <path d="m486.2 987.5c-.2-.3-.3-.7-.3-1.1-.8.9-1.9 1.4-3.2 1.4s-2.3-.4-3.1-1.1-1.2-1.6-1.2-2.7.5-2.4 1.5-3.1 2.4-1.1 4.3-1.1h1.6v-.7c0-.6-.2-1.1-.5-1.4-.3-.4-.8-.5-1.4-.5s-1 0-1.3.4-.5.7-.5 1.1h-3.4c0-.7.2-1.4.7-2s1.1-1.1 1.9-1.5 1.8-.5 2.8-.5c1.6 0 2.8.4 3.7 1.2s1.4 1.9 1.4 3.3v5.5c0 1.2.2 2.1.5 2.7v.2h-3.5zm-2.8-2.3c.5 0 1 0 1.4-.3s.7-.5.9-.9v-2.2h-1.3c-1.7 0-2.6.6-2.7 1.8v.2c0 .4.1.8.4 1 .3.3.7.4 1.2.4z" fill="#4a9fcf" />
    <path d="m492.7 987.5v-10.2h-1.9v-2.5h1.9v-1.1c0-1.4.4-2.5 1.2-3.3s2-1.2 3.4-1.2 1 0 1.7.2v2.6c-.3 0-.7 0-1.1 0-1.3 0-1.9.6-1.9 1.8v1h2.5v2.5h-2.5v10.2h-3.4z" fill="#4a9fcf" />
    <path d="m501.3 987.5v-10.2h-1.9v-2.5h1.9v-1.1c0-1.4.4-2.5 1.2-3.3s2-1.2 3.4-1.2 1 0 1.7.2v2.6c-.3 0-.7 0-1.1 0-1.3 0-1.9.6-1.9 1.8v1h2.5v2.5h-2.5v10.2h-3.4z" fill="#4a9fcf" />
    <path d="m509 971.5c0-.5.2-.9.5-1.3.3-.3.8-.5 1.4-.5s1 .2 1.4.5c.3.3.5.7.5 1.3s-.2.9-.5 1.3c-.3.3-.8.5-1.4.5s-1-.2-1.4-.5c-.3-.3-.5-.8-.5-1.3zm3.6 16h-3.4v-12.7h3.4z" fill="#4a9fcf" />
    <path d="m520.7 985c.6 0 1.1-.2 1.5-.5s.6-.8.6-1.4h3.2c0 .9-.2 1.6-.7 2.4s-1.1 1.3-1.9 1.7-1.7.6-2.7.6c-1.8 0-3.2-.6-4.3-1.7-1-1.2-1.6-2.8-1.6-4.8v-.2c0-2 .5-3.5 1.6-4.7s2.5-1.8 4.3-1.8 2.9.5 3.8 1.4 1.4 2.1 1.5 3.6h-3.2c0-.7-.2-1.2-.6-1.6s-.9-.6-1.6-.6-1.4.3-1.8.9-.6 1.5-.6 2.8v.4c0 1.3.2 2.3.6 2.8.4.6 1 .9 1.8.9v-.2z" fill="#4a9fcf" />
    <path d="m531.7 981.5v6h-3.5v-17.1h6.7c1.3 0 2.4.2 3.4.7s1.7 1.1 2.2 2 .8 1.8.8 3c0 1.7-.6 3-1.7 4s-2.7 1.5-4.8 1.5h-3.1zm0-2.9h3.1c.9 0 1.6-.2 2.1-.7.5-.4.7-1.1.7-1.9s-.2-1.5-.7-2-1.2-.8-2-.8h-3.2z" fill="#4a9fcf" />
    <path d="m549.1 987.8c-1.9 0-3.4-.6-4.6-1.7s-1.8-2.7-1.8-4.6v-.3c0-1.3.2-2.4.7-3.4s1.2-1.8 2.1-2.3 1.9-.8 3.1-.8c1.7 0 3.1.5 4.1 1.6s1.5 2.7 1.5 4.7v1.4h-8.1c0 .8.4 1.5 1 2s1.3.8 2.1.8c1.3 0 2.3-.5 3.1-1.4l1.7 1.9c-.5.7-1.2 1.3-2.1 1.7s-1.8.6-2.9.6v-.2zm-.3-10.5c-.7 0-1.2.2-1.6.7s-.7 1.1-.8 2h4.7v-.3c0-.8-.2-1.3-.6-1.8-.4-.4-.9-.6-1.7-.6z" fill="#4a9fcf" />
    <path d="m563.7 987.5c-.2-.3-.3-.7-.3-1.1-.8.9-1.9 1.4-3.2 1.4s-2.3-.4-3.1-1.1-1.2-1.6-1.2-2.7.5-2.4 1.5-3.1 2.4-1.1 4.3-1.1h1.6v-.7c0-.6-.2-1.1-.5-1.4-.3-.4-.8-.5-1.4-.5s-1 0-1.3.4-.5.7-.5 1.1h-3.4c0-.7.2-1.4.7-2s1.1-1.1 1.9-1.5 1.8-.5 2.8-.5c1.6 0 2.8.4 3.7 1.2s1.4 1.9 1.4 3.3v5.5c0 1.2.2 2.1.5 2.7v.2h-3.5zm-2.9-2.3c.5 0 1 0 1.4-.3s.7-.5.9-.9v-2.2h-1.3c-1.7 0-2.6.6-2.7 1.8v.2c0 .4 0 .8.4 1 .3.3.7.4 1.2.4z" fill="#4a9fcf" />
    <path d="m573.8 982.4-1.2 1.2v3.9h-3.4v-18h3.4v10l4-4.6h4.1l-4.6 5.3 5 7.4h-3.9l-3.3-5.1z" fill="#4a9fcf" />
    <path d="m638.4 1034.3c-.7 0-1.2-.5-1.2-1.2s.5-1.2 1.2-1.2c8.2 0 14.8-6.7 14.8-14.8v-101.4c0-5.5 8.8-10.8 13.2-13.2-4.5-2-13.2-6.7-13.2-12.9v-98.6c0-8.2-6.7-14.8-14.8-14.8s-1.2-.5-1.2-1.2.5-1.2 1.2-1.2c9.5 0 17.2 7.7 17.2 17.2v98.6c0 5.4 10.2 10.1 14.1 11.6s.8.6.8 1.1-.3.9-.7 1.1c-5.5 2.6-14.2 8.1-14.2 12.2v101.3c0 9.7-7.7 17.4-17.2 17.4z" fill="#4a9fcf" />
    <path d="m779.7 909.5c-.5.7-1.1 1.2-1.9 1.5s-1.8.5-2.9.5-2.1-.3-3-.8-1.5-1.3-2-2.2-.7-2.1-.7-3.4v-1.2c0-2.1.5-3.7 1.4-4.8s2.3-1.7 4.1-1.7 2.6.4 3.4 1.1c.9.7 1.4 1.8 1.6 3.1h-1.8c-.3-1.8-1.4-2.7-3.2-2.7s-2.1.4-2.7 1.3-.9 2.1-.9 3.7v1.1c0 1.5.4 2.8 1.1 3.7s1.7 1.4 2.8 1.4 1.3 0 1.8-.2c.5 0 .9-.4 1.3-.8v-3.1h-3.2v-1.5h5v5z" fill="#0b153b" />
    <path d="m787.3 902.7h-.9c-1.1 0-1.9.5-2.3 1.5v7.2h-1.7v-10.2h1.7v1.2c.6-.9 1.4-1.4 2.5-1.4s.6 0 .8 0v1.6z" fill="#0b153b" />
    <path d="m794.8 911.3c0-.2-.2-.6-.2-1.1-.8.8-1.8 1.3-2.9 1.3s-1.8-.3-2.5-.8c-.6-.6-1-1.3-1-2.2s.4-1.9 1.2-2.5 1.9-.9 3.4-.9h1.7v-.8c0-.6-.2-1.1-.5-1.5-.4-.4-.9-.5-1.6-.5s-1.1.2-1.6.5c-.4.3-.6.7-.6 1.1h-1.7c0-.5.2-1 .5-1.5.4-.5.8-.8 1.5-1.1.6-.3 1.3-.4 2-.4 1.2 0 2.1.3 2.8.9s1 1.4 1 2.4v4.7c0 .9 0 1.7.4 2.2v.2zm-2.9-1.3c.5 0 1.1 0 1.6-.4s.8-.6 1.1-1.1v-2.1h-1.4c-2.1 0-3.2.6-3.2 1.9s.2 1 .5 1.3.8.5 1.4.5z" fill="#0b153b" />
    <path d="m799.9 911.3v-8.8h-1.6v-1.3h1.6v-1c0-1.1.3-1.9.9-2.5s1.4-.9 2.5-.9.8 0 1.2.2v1.4h-1c-.6 0-1 .2-1.3.5s-.5.8-.5 1.4v1.1h2.2v1.3h-2.2v8.8h-1.7v-.2z" fill="#0b153b" />
    <path d="m812 911.3c0-.2-.2-.6-.2-1.1-.8.8-1.8 1.3-2.9 1.3s-1.8-.3-2.5-.8c-.6-.6-1-1.3-1-2.2s.4-1.9 1.2-2.5 1.9-.9 3.4-.9h1.7v-.8c0-.6-.2-1.1-.5-1.5-.4-.4-.9-.5-1.6-.5s-1.1.2-1.6.5c-.4.3-.6.7-.6 1.1h-1.7c0-.5.2-1 .5-1.5.4-.5.8-.8 1.5-1.1.6-.3 1.3-.4 2-.4 1.2 0 2.1.3 2.8.9s1 1.4 1 2.4v4.7c0 .9 0 1.7.4 2.2v.2zm-2.9-1.3c.5 0 1.1 0 1.6-.4s.8-.6 1.1-1.1v-2.1h-1.4c-2.1 0-3.2.6-3.2 1.9s.2 1 .5 1.3.8.5 1.4.5z" fill="#0b153b" />
    <path d="m817.8 901.2v1.3c.8-1 1.8-1.5 3.1-1.5 2.1 0 3.2 1.2 3.3 3.6v6.7h-1.7v-6.7c0-.7-.2-1.3-.5-1.6-.3-.4-.8-.5-1.5-.5s-1.1.2-1.5.5-.8.7-1 1.2v7.2h-1.7v-10.2h1.6z" fill="#0b153b" />
    <path d="m833.1 911.3c0-.2-.2-.6-.2-1.1-.8.8-1.8 1.3-2.9 1.3s-1.8-.3-2.5-.8c-.6-.6-1-1.3-1-2.2s.4-1.9 1.2-2.5 1.9-.9 3.4-.9h1.7v-.8c0-.6-.2-1.1-.5-1.5-.4-.4-.9-.5-1.6-.5s-1.1.2-1.6.5c-.4.3-.6.7-.6 1.1h-1.7c0-.5.2-1 .5-1.5.4-.5.8-.8 1.5-1.1.6-.3 1.3-.4 2-.4 1.2 0 2.1.3 2.8.9s1 1.4 1 2.4v4.7c0 .9 0 1.7.4 2.2v.2zm-2.9-1.3c.5 0 1.1 0 1.6-.4s.8-.6 1.1-1.1v-2.1h-1.4c-2.1 0-3.2.6-3.2 1.9s.2 1 .5 1.3.8.5 1.4.5z" fill="#0b153b" />
    <path d="m752.8 900.2c0-1.1-.3-2.5-.7-3.9s-1-3-1.7-4.7c-.8-1.6-1.9-3.4-3.2-5-.5-.7-1.1-1.3-1.7-1.9 1-3.8-1.1-7.1-1.1-7.1-3.7-.2-6 1.1-6.8 1.7 0 0-.3 0-.4-.2-.6-.2-1.3-.5-1.9-.7s-1.3-.4-2-.5c-.7-.2-1.4-.3-2.1-.4h-.4c-1.6-5.1-6.1-7.2-6.1-7.2-5.2 3.4-6.3 7.9-6.3 7.9v.2c-.3 0-.5.2-.8.2s-.8.2-1.1.4-.8.3-1.1.5c-.8.4-1.5.7-2.3 1.1-.7.4-1.4.8-2.1 1.3h-.2c-7-2.7-13.3.5-13.3.5-.5 7.5 2.8 12.2 3.5 13.1-.2.5-.3.9-.5 1.4-.5 1.7-.9 3.4-1.1 5.2v.8c-6.5 3.2-8.4 9.8-8.4 9.8 5.4 6.3 11.8 6.6 11.8 6.6.8 1.4 1.7 2.8 2.8 4.1s.9 1 1.4 1.6c-2 5.7.3 10.4.3 10.4 6.1.2 10-2.6 10.9-3.3.6.2 1.2.4 1.8.5 1.9.5 3.8.8 5.7.8h2.4c2.8 4.1 7.9 4.6 7.9 4.6 3.5-3.8 3.8-7.5 3.8-8.3v-.4c.7-.5 1.4-1.1 2.2-1.7 1.4-1.3 2.6-2.8 3.7-4.3 0 0 .2-.3.3-.4 4 .2 6.9-2.5 6.9-2.5-.7-4.2-3.1-6.3-3.5-6.6v-4.8l-.2-.4c0-.5-.2-.9-.2-1.4-.4-1.8-1.1-3.5-2-5.1s-2.1-2.9-3.4-4.1-2.8-2.1-4.3-2.8-3.1-1.1-4.8-1.3h-4c-.4 0-.8 0-1.2.2-1.6.3-3.1.9-4.5 1.7s-2.5 1.8-3.4 2.9-1.7 2.3-2.2 3.7-.8 2.6-.8 3.9v1.9c0 .7.2 1.3.4 1.9.4 1.2.9 2.3 1.6 3.2s1.5 1.7 2.4 2.3 1.8 1 2.8 1.3 1.9.4 2.7.4h2c.2 0 .4 0 .6-.2.4 0 .7-.3 1.1-.4.4-.2.7-.4.9-.5 0 0 .2 0 .2-.2.3-.2.4-.7 0-1-.2-.2-.6-.3-.9-.2h-.2c-.2 0-.5.2-.8.3s-.6.2-.9.2h-1.9c-.7 0-1.4-.3-2-.6-.7-.3-1.3-.7-1.9-1.3-.6-.5-1.1-1.1-1.5-1.9-.4-.7-.7-1.5-.8-2.3v-2.8c.3-1.8 1.2-3.5 2.6-4.9s.7-.7 1.1-.9c.4-.3.8-.5 1.3-.7.4-.2.9-.4 1.4-.5s1-.2 1.4-.2h1.5c.5 0 1.1 0 1.6.2 1 .2 2 .6 3 1.1 1.9 1.1 3.5 2.7 4.5 4.7s.8 2 1 3.2v4.3c0 .3 0 .6-.2.9 0 .6-.4 1.1-.5 1.7-.4 1.1-1 2.2-1.7 3.2-1.4 2-3.4 3.6-5.7 4.6s-2.3.9-3.5 1.1c-.6 0-1.2.2-1.8.2h-2.1c-1.3 0-2.6-.4-3.8-.7s-2.5-.8-3.6-1.4c-2.3-1.2-4.3-2.9-6-4.9s-1.5-2.1-2.1-3.2-1-2.3-1.4-3.5-.5-2.5-.6-3.7v-.9.5-1c0-.6 0-1.3.2-1.9 0-.7.2-1.3.3-1.9 0-.7.3-1.3.5-1.9.4-1.3.8-2.5 1.3-3.6 1.1-2.3 2.5-4.3 4.1-6s.8-.8 1.3-1.1c.2-.2.6-.5 1.1-.8s1-.6 1.5-.8c.2 0 .5-.2.8-.4 0 0 .2 0 .4-.2 0 0 .2 0 .4-.2.5-.2 1.1-.4 1.6-.6h.8c.3 0 .5 0 .8-.2h1.4l.2-.2h5c1.1 0 2.2.2 3.2.4 2 .4 4 1 5.8 1.9s3.4 1.9 4.7 3.1c0 0 .2 0 .2.2 0 0 .2 0 .2.2.2 0 .3.3.5.4.2 0 .3.3.5.4 0 .2.3.3.4.5.6.6 1.1 1.3 1.6 1.9 1 1.3 1.7 2.5 2.3 3.7v.4s0 .3.2.4 0 .3.2.4 0 .3.2.4c.2.5.4 1.1.6 1.6.3.8.5 1.6.7 2.2 0 .2.3.4.5.4.3 0 .5-.2.5-.5.4-.3.4-1.1.4-2z" fill="url(#a)" />
    <path d="m596.2 641.7h59.7v59.7h-59.7z" fill="#4a9fcf" />
    <path d="m663.4 731.1h6.5v1.5h-8.3v-13.7h1.8z" fill="#0b153b" />
    <path d="m671.2 727.4c0-1 .2-1.9.6-2.7s.9-1.4 1.6-1.8 1.5-.6 2.4-.6c1.4 0 2.5.5 3.4 1.4.9 1 1.3 2.2 1.3 3.8s-.2 2-.6 2.8-.9 1.4-1.6 1.8-1.5.7-2.4.7c-1.4 0-2.5-.5-3.4-1.4-.9-1-1.3-2.2-1.3-3.8zm1.8.2c0 1.1.3 2 .8 2.7s1.2 1 2.1 1 1.6-.3 2.1-1 .8-1.7.8-2.9-.3-2-.8-2.7-1.2-1-2.1-1-1.6.3-2.1 1-.8 1.7-.8 2.9z" fill="#0b153b" />
    <path d="m688.9 732.6c0-.2-.2-.6-.2-1.1-.8.8-1.8 1.3-2.9 1.3s-1.8-.3-2.5-.8c-.6-.6-1-1.3-1-2.2s.4-1.9 1.2-2.5 1.9-.9 3.4-.9h1.7v-.8c0-.6-.2-1.1-.5-1.5-.4-.4-.9-.5-1.6-.5s-1.1.2-1.6.5c-.4.3-.6.7-.6 1.1h-1.7c0-.5.2-1 .5-1.5s.8-.8 1.5-1.1c.6-.3 1.3-.4 2-.4 1.2 0 2.1.3 2.8.9s1 1.4 1 2.4v4.7c0 .9 0 1.7.4 2.2v.2zm-2.9-1.4c.5 0 1.1 0 1.6-.4s.8-.6 1.1-1.1v-2.1h-1.4c-2.1 0-3.2.6-3.2 1.9s.2 1 .5 1.3.8.5 1.4.5z" fill="#0b153b" />
    <path d="m692.7 727.4c0-1.6.4-2.8 1.1-3.8s1.7-1.4 2.9-1.4 2.1.4 2.8 1.2v-5.3h1.7v14.4h-1.6v-1.1c-.8.9-1.7 1.3-3 1.3s-2.1-.5-2.9-1.4c-.7-1-1.1-2.2-1.1-3.8zm1.7.2c0 1.2.2 2.1.7 2.7.5.7 1.1 1 2 1s1.9-.5 2.4-1.5v-4.7c-.5-1-1.3-1.4-2.4-1.4s-1.5.3-2 1-.7 1.6-.7 2.9z" fill="#0b153b" />
    <path d="m660 743.4h-4.4v12.2h-1.8v-12.2h-4.4v-1.5h10.6z" fill="#0b153b" />
    <path d="m665.1 755.8c-1.4 0-2.5-.5-3.4-1.4s-1.3-2.1-1.3-3.6v-.3c0-1 .2-1.9.6-2.7s.9-1.4 1.6-1.9c.7-.4 1.4-.7 2.2-.7 1.3 0 2.3.4 3.1 1.3.7.9 1.1 2.1 1.1 3.7v.7h-6.9c0 1 .3 1.8.9 2.4s1.3.9 2.1.9 1.1 0 1.6-.4c.4-.3.8-.6 1.1-1l1.1.8c-.9 1.3-2.1 2-3.8 2zm-.2-9.1c-.7 0-1.3.3-1.8.8s-.8 1.2-.9 2.1h5.1c0-1-.3-1.7-.7-2.2s-1-.7-1.7-.7z" fill="#0b153b" />
    <path d="m677 753c0-.5-.2-.8-.5-1.1-.4-.3-1-.5-1.9-.7s-1.6-.4-2.1-.7-.9-.6-1.1-.9-.4-.8-.4-1.3c0-.8.4-1.5 1.1-2.1s1.6-.9 2.7-.9 2.1.3 2.8.9 1.1 1.4 1.1 2.3h-1.7c0-.5-.2-.9-.6-1.2s-.9-.5-1.5-.5-1.1 0-1.5.4-.5.6-.5 1.1.2.7.5.9.9.4 1.8.6 1.6.4 2.1.7.9.6 1.2 1 .4.8.4 1.4c0 .9-.4 1.6-1.1 2.2-.7.5-1.7.8-2.8.8s-1.5 0-2.2-.4c-.6-.3-1.1-.7-1.5-1.2s-.5-1.1-.5-1.7h1.7c0 .6.3 1 .7 1.4.4.3 1 .5 1.7.5s1.2 0 1.6-.4.6-.6.6-1.1z" fill="#0b153b" />
    <path d="m683.3 743v2.5h1.9v1.3h-1.9v6.3c0 .4 0 .7.3.9.2.2.5.3.9.3s.5 0 .8 0v1.4c-.5 0-.9.2-1.3.2-.8 0-1.4-.2-1.8-.7s-.6-1.1-.6-2v-6.3h-1.9v-1.3h1.9v-2.5h1.7z" fill="#0b153b" />
    <path d="m687.3 742.8c0-.3 0-.5.3-.7.2-.2.4-.3.8-.3s.6 0 .8.3c.2.2.3.4.3.7s0 .5-.3.7c-.2.2-.4.3-.8.3s-.6 0-.8-.3c-.2-.2-.3-.4-.3-.7zm1.9 12.9h-1.7v-10.2h1.7z" fill="#0b153b" />
    <path d="m693.6 745.5v1.3c.8-1 1.8-1.5 3.1-1.5 2.1 0 3.2 1.2 3.3 3.6v6.7h-1.7v-6.7c0-.7-.2-1.3-.5-1.6-.3-.4-.8-.5-1.5-.5s-1.1.2-1.5.5-.8.7-1 1.2v7.2h-1.7v-10.2h1.6z" fill="#0b153b" />
    <path d="m702.1 750.5c0-1.6.4-2.8 1.1-3.8s1.7-1.4 2.9-1.4 2.2.4 2.9 1.3v-1.1h1.7v9.9c0 1.3-.4 2.4-1.2 3.1-.8.8-1.8 1.1-3.1 1.1s-1.5-.2-2.2-.5-1.2-.7-1.6-1.3l.9-1c.7.9 1.7 1.4 2.7 1.4s1.5-.2 2-.7.7-1.1.7-2v-.9c-.7.8-1.6 1.2-2.8 1.2s-2.2-.5-2.9-1.4-1.1-2.3-1.1-3.9zm1.8.2c0 1.1.2 2 .7 2.7s1.1 1 2 1 1.9-.5 2.4-1.5v-4.6c-.5-1-1.3-1.5-2.4-1.5s-1.5.3-2 1-.7 1.6-.7 2.9z" fill="#0b153b" />
    <path d="m626 284v353.9" style="fill:none;stroke-width:2.4;stroke-linecap:round;stroke-linejoin:round;stroke:#4a9fcf;stroke-dasharray:0 6" />
    <path d="m1708.3 539.4h-1094.4c-10.4 0-18.8-8.4-18.8-18.8v-456c0-10.4 8.4-18.8 18.8-18.8h1094.3c10.4 0 18.8 8.4 18.8 18.8v456c0 10.3-8.4 18.8-18.7 18.8z" fill="none" stroke="#4a9fcf" stroke-linecap="round" stroke-linejoin="round" stroke-width="2.4" />
    <path d="m836.3 236.1h68.9v68.9h-68.9z" fill="#743db9" />
    <path d="m1519.9 348.5h-552.1" style="fill:none;stroke-width:2.4;stroke:#0b153b;stroke-linecap:round;stroke-linejoin:round;stroke-dasharray:0 7.9" />
    <path d="m963.9 340.7v-215.2" style="fill:none;stroke-width:2.4;stroke:#0b153b;stroke-linecap:round;stroke-linejoin:round;stroke-dasharray:0 7.8" />
    <path d="m971.8 121.6h552.1" style="fill:none;stroke-width:2.4;stroke:#0b153b;stroke-linecap:round;stroke-linejoin:round;stroke-dasharray:0 7.9" />
    <path d="m1527.9 129.4v215.2" style="fill:none;stroke-width:2.4;stroke:#0b153b;stroke-linecap:round;stroke-linejoin:round;stroke-dasharray:0 7.8" />
    <path d="m1429 959.9h-358.2c-5.1 0-9.3-4.2-9.3-9.3v-331.1c0-5.1 4.2-9.3 9.3-9.3h358.2c5.1 0 9.3 4.2 9.3 9.3v331.1c0 5.2-4.1 9.3-9.3 9.3z" style="fill:none;stroke-width:2.4;stroke-linecap:round;stroke-linejoin:round;stroke:#f7931e;stroke-dasharray:0 8" />
    <path d="m1590.1 400.6h87v87h-87z" fill="#4a9fcf" />
    <path d="m836.5 270.6-19.5-6.4v5.2h-79.7v-5.2l-19.5 6.4 19.5 6.3v-5.1h79.7v5.1z" fill="#0b153b" />
    <g class="bullet bullet-2">
        <circle cx="777.2" cy="270.6" fill="#fff" r="24.5" />
    </g>
    <path d="m777.2 297.5c-14.9 0-26.9-12.1-26.9-26.9s12.1-26.9 26.9-26.9 26.9 12.1 26.9 26.9-12.1 26.9-26.9 26.9zm0-49.1c-12.2 0-22.1 9.9-22.1 22.1s9.9 22.1 22.1 22.1 22.1-9.9 22.1-22.1-9.9-22.1-22.1-22.1z" fill="#743db9" />
    <path d="m1024 270.6-19.6-6.4v5.2h-79.7v-5.2l-19.5 6.4 19.5 6.3v-5.1h79.7v5.1z" fill="#0b153b" />
    <g class="bullet bullet-3">
        <circle cx="964.6" cy="270.6" fill="#fff" r="24.5" />
    </g>
    <path d="m964.6 297.5c-14.9 0-26.9-12.1-26.9-26.9s12.1-26.9 26.9-26.9 26.9 12.1 26.9 26.9-12.1 26.9-26.9 26.9zm0-49.1c-12.2 0-22.1 9.9-22.1 22.1s9.9 22.1 22.1 22.1 22.1-9.9 22.1-22.1-9.9-22.1-22.1-22.1z" fill="#743db9" />
    <path d="m1192.9 269.4h-78v-5.2l-19.6 6.4 19.6 6.3v-5.1h78v5.1l19.6-6.3-19.6-6.4z" fill="#0b153b" />
    <path d="m1404.2 270.6-19.6-6.4v5.2h-78.1v-5.2l-19.5 6.4 19.5 6.3v-5.1h78.1v5.1z" fill="#0b153b" />
    <path d="m647 236.3h68.9v68.9h-68.9z" fill="#743db9" />
    <path d="m673.4 192.3h-5.7l-1.3 3.6h-1.9l5.2-13.7h1.6l5.2 13.7h-1.9l-1.3-3.6zm-5.2-1.4h4.7l-2.3-6.4-2.3 6.4z" fill="#0b153b" />
    <path d="m686.7 190.9c0 1.5-.4 2.8-1.1 3.7s-1.7 1.4-2.9 1.4-2.2-.4-2.9-1.2v4.9h-1.7v-14.1h1.6v1.1c.8-.9 1.8-1.3 3-1.3s2.2.5 2.9 1.4 1.1 2.2 1.1 3.8zm-1.7-.2c0-1.1-.2-2.1-.7-2.7-.5-.7-1.2-1-2-1s-1.8.5-2.4 1.4v4.9c.5.9 1.3 1.4 2.4 1.4s1.5-.3 2-1 .7-1.6.7-2.9z" fill="#0b153b" />
    <path d="m697.5 190.9c0 1.5-.4 2.8-1.1 3.7s-1.7 1.4-2.9 1.4-2.2-.4-2.9-1.2v4.9h-1.7v-14.1h1.6v1.1c.8-.9 1.8-1.3 3-1.3s2.2.5 2.9 1.4 1.1 2.2 1.1 3.8zm-1.7-.2c0-1.1-.2-2.1-.7-2.7-.5-.7-1.2-1-2-1s-1.8.5-2.4 1.4v4.9c.5.9 1.3 1.4 2.4 1.4s1.5-.3 2-1 .7-1.6.7-2.9z" fill="#0b153b" />
    <path d="m628.8 213.7v5.4h-1.8v-13.7h5c1.5 0 2.7.4 3.5 1.1.8.8 1.3 1.8 1.3 3s-.4 2.4-1.2 3.1-2 1.1-3.6 1.1zm0-1.5h3.2c1 0 1.7-.2 2.2-.7s.8-1.1.8-2-.3-1.5-.8-2-1.2-.7-2.1-.8h-3.3z" fill="#0b153b" />
    <path d="m643 219.2c-1.4 0-2.5-.5-3.4-1.4s-1.3-2.1-1.3-3.6v-.3c0-1 .2-1.9.6-2.7s.9-1.4 1.6-1.9c.7-.4 1.4-.7 2.2-.7 1.3 0 2.3.4 3.1 1.3.7.9 1.1 2.1 1.1 3.7v.7h-6.9c0 1 .3 1.8.9 2.4s1.3.9 2.1.9 1.1-.1 1.6-.4c.4-.3.8-.6 1.1-1l1.1.8c-.9 1.3-2.1 2-3.8 2zm-.2-9.1c-.7 0-1.3.3-1.8.8s-.8 1.2-.9 2.1h5.1c0-1-.3-1.7-.7-2.2s-1-.7-1.7-.7z" fill="#0b153b" />
    <path d="m653.9 210.4h-.9c-1.1 0-1.9.5-2.3 1.5v7.2h-1.7v-10.2h1.7v1.2c.6-.9 1.4-1.4 2.5-1.4s.6 0 .8.1v1.6z" fill="#0b153b" />
    <path d="m656.5 219v-8.8h-1.6v-1.3h1.6v-1c0-1.1.3-1.9.9-2.5s1.4-.9 2.5-.9.8 0 1.2.2v1.4h-1c-.6 0-1 .2-1.3.5s-.5.8-.5 1.4v1.1h2.2v1.3h-2.2v8.8h-1.7v-.2z" fill="#0b153b" />
    <path d="m661.9 213.8c0-1 .2-1.9.6-2.7s.9-1.4 1.6-1.8 1.5-.6 2.4-.6c1.4 0 2.5.5 3.4 1.4.9 1 1.3 2.2 1.3 3.8s-.2 2-.6 2.8-.9 1.4-1.6 1.8-1.5.7-2.4.7c-1.4 0-2.5-.5-3.4-1.4-.9-1-1.3-2.2-1.3-3.8zm1.7.2c0 1.1.3 2 .8 2.7s1.2 1 2.1 1 1.6-.3 2.1-1 .8-1.7.8-2.9-.3-2-.8-2.7-1.2-1-2.1-1-1.6.3-2.1 1-.8 1.7-.8 2.9z" fill="#0b153b" />
    <path d="m678.2 210.4h-.9c-1.1 0-1.9.5-2.3 1.5v7.2h-1.7v-10.2h1.7v1.2c.6-.9 1.4-1.4 2.5-1.4s.6 0 .8.1v1.6z" fill="#0b153b" />
    <path d="m681.4 208.8v1.1c.8-.9 1.8-1.3 3.1-1.3s2.4.5 2.9 1.6c.3-.5.8-.9 1.3-1.2s1.2-.5 1.9-.5c2.2 0 3.4 1.2 3.4 3.5v6.8h-1.7v-6.7c0-.7-.2-1.3-.5-1.6s-.9-.5-1.7-.5-1.2.2-1.6.6-.7.9-.7 1.6v6.7h-1.7v-6.7c0-1.5-.7-2.2-2.2-2.2s-1.9.5-2.3 1.5v7.4h-1.7v-10.2h1.6z" fill="#0b153b" />
    <path d="m703 219c0-.2-.2-.6-.2-1.1-.8.8-1.8 1.3-2.9 1.3s-1.8-.3-2.5-.8c-.6-.6-1-1.3-1-2.2s.4-1.9 1.2-2.5 1.9-.9 3.4-.9h1.7v-.8c0-.6-.2-1.1-.5-1.5s-.9-.5-1.6-.5-1.1.2-1.6.5-.6.7-.6 1.1h-1.7c0-.5.2-1 .5-1.5.4-.5.8-.8 1.5-1.1.6-.3 1.3-.4 2-.4 1.2 0 2.1.3 2.8.9s1 1.4 1 2.4v4.7c0 .9 0 1.7.4 2.2v.2zm-2.9-1.3c.5 0 1.1-.1 1.6-.4s.8-.6 1.1-1.1v-2.1h-1.4c-2.1 0-3.2.6-3.2 1.9s.2 1 .5 1.3.8.5 1.4.5z" fill="#0b153b" />
    <path d="m708.8 208.8v1.3c.8-1 1.8-1.5 3.1-1.5 2.1 0 3.2 1.2 3.3 3.6v6.7h-1.7v-6.7c0-.7-.2-1.3-.5-1.6-.3-.4-.8-.5-1.5-.5s-1.1.2-1.5.5-.8.7-1 1.2v7.2h-1.7v-10.2h1.6z" fill="#0b153b" />
    <path d="m721.8 217.8c.6 0 1.2-.2 1.6-.6s.7-.8.8-1.4h1.6c0 .6-.2 1.1-.6 1.7s-.9.9-1.5 1.3c-.6.3-1.3.5-2 .5-1.4 0-2.5-.5-3.3-1.4s-1.2-2.2-1.2-3.8v-.3c0-1 .2-1.9.5-2.6s.9-1.4 1.6-1.8 1.5-.6 2.4-.6 2.1.3 2.8 1 1.2 1.6 1.2 2.7h-1.6c0-.7-.3-1.2-.7-1.6s-1-.6-1.7-.6-1.6.3-2.1 1c-.5.6-.7 1.6-.7 2.8v.3c0 1.2.2 2.1.7 2.7s1.2.9 2.1.9v-.2z" fill="#0b153b" />
    <path d="m732.1 219.2c-1.4 0-2.5-.5-3.4-1.4s-1.3-2.1-1.3-3.6v-.3c0-1 .2-1.9.6-2.7s.9-1.4 1.6-1.9c.7-.4 1.4-.7 2.3-.7 1.3 0 2.3.4 3.1 1.3.7.9 1.1 2.1 1.1 3.7v.7h-6.9c0 1 .3 1.8.9 2.4s1.3.9 2.1.9 1.1-.1 1.6-.4c.4-.3.8-.6 1.1-1l1.1.8c-.9 1.3-2.1 2-3.8 2v.2zm-.3-9.1c-.7 0-1.3.3-1.8.8s-.8 1.2-.9 2.1h5.1c0-1-.3-1.7-.7-2.2s-1-.7-1.7-.7z" fill="#0b153b" />
    <path d="m844 195.9h-1.8v-13.7h1.8z" fill="#0b153b" />
    <path d="m848.6 185.7v1.1c.8-.9 1.8-1.3 3.1-1.3s2.4.5 2.9 1.6c.3-.5.8-.9 1.3-1.2s1.2-.5 1.9-.5c2.2 0 3.4 1.2 3.4 3.5v6.8h-1.7v-6.7c0-.7-.2-1.3-.5-1.6s-.9-.5-1.7-.5-1.2.2-1.6.6-.7.9-.7 1.6v6.7h-1.7v-6.7c0-1.5-.7-2.2-2.2-2.2s-1.9.5-2.3 1.5v7.4h-1.7v-10.2h1.6z" fill="#0b153b" />
    <path d="m870.1 195.9c0-.2-.2-.6-.2-1.1-.8.8-1.8 1.3-2.9 1.3s-1.8-.3-2.5-.8c-.6-.6-1-1.3-1-2.2s.4-1.9 1.2-2.5 1.9-.9 3.4-.9h1.7v-.8c0-.6-.2-1.1-.5-1.5s-.9-.5-1.6-.5-1.1.2-1.6.5-.6.7-.6 1.1h-1.7c0-.5.2-1 .5-1.5.4-.5.8-.8 1.5-1.1.6-.3 1.3-.4 2-.4 1.2 0 2.1.3 2.8.9s1 1.4 1 2.4v4.7c0 .9 0 1.7.4 2.2v.2zm-2.9-1.3c.5 0 1.1-.1 1.6-.4s.8-.6 1.1-1.1v-2.1h-1.4c-2.1 0-3.2.6-3.2 1.9s.2 1 .5 1.3.8.5 1.4.5z" fill="#0b153b" />
    <path d="m873.9 190.7c0-1.6.4-2.8 1.1-3.8s1.7-1.4 2.9-1.4 2.2.4 2.9 1.3v-1.1h1.7v9.9c0 1.3-.4 2.4-1.2 3.1s-1.8 1.1-3.1 1.1-1.5-.2-2.2-.5-1.2-.7-1.6-1.3l.9-1c.7.9 1.7 1.4 2.7 1.4s1.5-.2 2-.7.7-1.1.7-2v-.9c-.7.8-1.6 1.2-2.8 1.2s-2.2-.5-2.9-1.4-1.1-2.3-1.1-3.9zm1.8.2c0 1.1.2 2 .7 2.7s1.1 1 2 1 1.9-.5 2.4-1.5v-4.6c-.5-1-1.3-1.5-2.4-1.5s-1.5.3-2 1-.7 1.6-.7 2.9z" fill="#0b153b" />
    <path d="m889.3 196.1c-1.4 0-2.5-.5-3.4-1.4s-1.3-2.1-1.3-3.6v-.3c0-1 .2-1.9.6-2.7s.9-1.4 1.6-1.9c.7-.4 1.4-.7 2.3-.7 1.3 0 2.3.4 3.1 1.3.7.9 1.1 2.1 1.1 3.7v.7h-6.9c0 1 .3 1.8.9 2.4s1.3.9 2.1.9 1.1-.1 1.6-.4c.4-.3.8-.6 1.1-1l1.1.8c-.9 1.3-2.1 2-3.8 2v.2zm-.2-9.1c-.7 0-1.3.3-1.8.8s-.8 1.2-.9 2.1h5.1c0-1-.3-1.7-.7-2.2s-1-.7-1.7-.7z" fill="#0b153b" />
    <path d="m824.1 212.6c0 1.3-.2 2.5-.7 3.5s-1.1 1.8-1.9 2.3-1.8.8-2.9.8-2-.3-2.9-.8-1.5-1.3-1.9-2.3-.7-2.1-.7-3.4v-1c0-1.3.2-2.5.7-3.5s1.1-1.8 1.9-2.3 1.8-.8 2.9-.8 2.1.3 2.9.8 1.5 1.3 1.9 2.3.7 2.2.7 3.5zm-1.8-.9c0-1.6-.3-2.9-1-3.7-.7-.9-1.6-1.3-2.7-1.3s-2 .4-2.7 1.3-1 2.1-1 3.6v1c0 1.6.3 2.8 1 3.7s1.6 1.3 2.7 1.3 2.1-.4 2.7-1.3 1-2.1 1-3.7v-1z" fill="#0b153b" />
    <path d="m835.1 214c0 1.5-.4 2.8-1.1 3.7s-1.7 1.4-2.9 1.4-2.2-.4-2.9-1.2v4.9h-1.7v-14.1h1.6v1.1c.8-.9 1.8-1.3 3-1.3s2.2.5 2.9 1.4 1.1 2.2 1.1 3.8zm-1.8-.2c0-1.1-.2-2.1-.7-2.7-.5-.7-1.2-1-2-1s-1.8.5-2.4 1.4v4.9c.5.9 1.3 1.4 2.4 1.4s1.5-.3 2-1 .7-1.6.7-2.9z" fill="#0b153b" />
    <path d="m839.6 206.4v2.5h1.9v1.3h-1.9v6.3c0 .4 0 .7.3.9.2.2.5.3.9.3s.5 0 .8-.1v1.4c-.5.1-.9.2-1.3.2-.8 0-1.4-.2-1.8-.7s-.6-1.1-.6-2v-6.3h-1.9v-1.3h1.9v-2.5z" fill="#0b153b" />
    <path d="m843.6 206.1c0-.3 0-.5.3-.7s.4-.3.8-.3.6 0 .8.3c.2.2.3.4.3.7s0 .5-.3.7c-.2.2-.4.3-.8.3s-.6 0-.8-.3c-.2-.2-.3-.4-.3-.7zm1.9 12.9h-1.7v-10.2h1.7z" fill="#0b153b" />
    <path d="m849.9 208.8v1.1c.8-.9 1.8-1.3 3.1-1.3s2.4.5 2.9 1.6c.3-.5.8-.9 1.3-1.2s1.2-.5 1.9-.5c2.2 0 3.4 1.2 3.4 3.5v6.8h-1.7v-6.7c0-.7-.2-1.3-.5-1.6s-.9-.5-1.7-.5-1.2.2-1.6.6-.7.9-.7 1.6v6.7h-1.7v-6.7c0-1.5-.7-2.2-2.2-2.2s-1.9.5-2.3 1.5v7.4h-1.7v-10.2h1.6z" fill="#0b153b" />
    <path d="m865.1 206.1c0-.3 0-.5.3-.7s.4-.3.8-.3.6 0 .8.3.3.4.3.7 0 .5-.3.7c-.2.2-.4.3-.8.3s-.6 0-.8-.3c-.2-.2-.3-.4-.3-.7zm1.9 12.9h-1.7v-10.2h1.7z" fill="#0b153b" />
    <path d="m871.4 217.6h5.9v1.4h-8.1v-1.3l5.6-7.5h-5.5v-1.4h7.7v1.2l-5.7 7.5z" fill="#0b153b" />
    <path d="m885.6 219c0-.2-.2-.6-.2-1.1-.8.8-1.8 1.3-2.9 1.3s-1.8-.3-2.5-.8c-.6-.6-1-1.3-1-2.2s.4-1.9 1.2-2.5 1.9-.9 3.4-.9h1.7v-.8c0-.6-.2-1.1-.5-1.5s-.9-.5-1.6-.5-1.1.2-1.6.5-.6.7-.6 1.1h-1.7c0-.5.2-1 .5-1.5.4-.5.8-.8 1.5-1.1.6-.3 1.3-.4 2-.4 1.2 0 2.1.3 2.8.9s1 1.4 1 2.4v4.7c0 .9 0 1.7.4 2.2v.2zm-2.9-1.3c.5 0 1.1-.1 1.6-.4s.8-.6 1.1-1.1v-2.1h-1.4c-2.1 0-3.2.6-3.2 1.9s.2 1 .5 1.3.8.5 1.4.5z" fill="#0b153b" />
    <path d="m892.1 206.4v2.5h1.9v1.3h-1.9v6.3c0 .4 0 .7.3.9.2.2.5.3.9.3s.5 0 .8-.1v1.4c-.5.1-.9.2-1.3.2-.8 0-1.4-.2-1.8-.7s-.6-1.1-.6-2v-6.3h-1.9v-1.3h1.9v-2.5z" fill="#0b153b" />
    <path d="m896.1 206.1c0-.3 0-.5.3-.7s.4-.3.8-.3.6 0 .8.3.3.4.3.7 0 .5-.3.7c-.2.2-.4.3-.8.3s-.6 0-.8-.3c-.2-.2-.3-.4-.3-.7zm1.9 12.9h-1.7v-10.2h1.7z" fill="#0b153b" />
    <path d="m900.3 213.8c0-1 .2-1.9.6-2.7s.9-1.4 1.6-1.8 1.5-.6 2.4-.6c1.4 0 2.5.5 3.4 1.4.9 1 1.3 2.2 1.3 3.8s-.2 2-.6 2.8-.9 1.4-1.6 1.8-1.5.7-2.4.7c-1.4 0-2.5-.5-3.4-1.4-.9-1-1.3-2.2-1.3-3.8zm1.7.2c0 1.1.3 2 .8 2.7s1.2 1 2.1 1 1.6-.3 2.1-1 .8-1.7.8-2.9-.3-2-.8-2.7-1.2-1-2.1-1-1.6.3-2.1 1-.8 1.7-.8 2.9z" fill="#0b153b" />
    <path d="m913.4 208.8v1.3c.8-1 1.8-1.5 3.1-1.5 2.1 0 3.2 1.2 3.3 3.6v6.7h-1.7v-6.7c0-.7-.2-1.3-.5-1.6-.3-.4-.8-.5-1.5-.5s-1.1.2-1.5.5-.8.7-1 1.2v7.2h-1.7v-10.2h1.6z" fill="#0b153b" />
    <path d="m1025.5 236.3h68.9v68.9h-68.9z" fill="#743db9" />
    <path d="m1025.5 409.7h68.9v68.9h-68.9z" fill="#743db9" />
    <path d="m1059.9 308.7 6.4 19.5h-12.8z" fill="#0b153b" />
    <path d="m1059.9 321.7v72.4" fill="none" stroke="#0b153b" stroke-miterlimit="10" stroke-width="2.4" />
    <path d="m1059.9 407.1 6.4-19.5h-12.8z" fill="#0b153b" />
    <path d="m1046.6 195.9v-13.7h4.5c1.5 0 2.6.3 3.3.9s1.1 1.5 1.1 2.7-.2 1.2-.5 1.7c-.4.5-.9.9-1.5 1.1.7.2 1.3.6 1.8 1.2.4.6.6 1.3.6 2.1 0 1.2-.4 2.2-1.2 2.9s-1.9 1.1-3.4 1.1zm1.8-7.8h2.7c.8 0 1.4-.2 1.9-.6s.7-.9.7-1.6-.2-1.3-.7-1.6-1.1-.5-2-.5h-2.7v4.4zm0 1.4v4.9h3c.8 0 1.5-.2 2-.7.5-.4.7-1 .7-1.8 0-1.6-.9-2.5-2.7-2.5h-3z" fill="#0b153b" />
    <path d="m1057.8 190.7c0-1 .2-1.9.6-2.7s.9-1.4 1.6-1.8 1.5-.6 2.4-.6c1.4 0 2.5.5 3.4 1.4.9 1 1.3 2.2 1.3 3.8s-.2 2-.6 2.8-.9 1.4-1.6 1.8-1.5.7-2.4.7c-1.4 0-2.5-.5-3.4-1.4-.9-1-1.3-2.2-1.3-3.8zm1.7.2c0 1.1.3 2 .8 2.7s1.2 1 2.1 1 1.6-.3 2.1-1 .8-1.7.8-2.9-.3-2-.8-2.7-1.2-1-2.1-1-1.6.3-2.1 1-.8 1.7-.8 2.9z" fill="#0b153b" />
    <path d="m1071.6 183.3v2.5h1.9v1.3h-1.9v6.3c0 .4 0 .7.3.9.2.2.5.3.9.3s.5 0 .8-.1v1.4c-.5.1-.9.2-1.3.2-.8 0-1.4-.2-1.8-.7s-.6-1.1-.6-2v-6.3h-1.9v-1.3h1.9v-2.5z" fill="#0b153b" />
    <path d="m1006.5 205.3 4.5 11.2 4.5-11.2h2.3v13.7h-1.8v-5.3l.2-5.8-4.5 11.1h-1.4l-4.5-11.1.2 5.7v5.3h-1.8v-13.7h2.3z" fill="#0b153b" />
    <path d="m1027 219c0-.2-.2-.6-.2-1.1-.8.8-1.8 1.3-2.9 1.3s-1.8-.3-2.5-.8c-.6-.6-1-1.3-1-2.2s.4-1.9 1.2-2.5 1.9-.9 3.4-.9h1.7v-.8c0-.6-.2-1.1-.5-1.5s-.9-.5-1.6-.5-1.1.2-1.6.5c-.4.3-.6.7-.6 1.1h-1.7c0-.5.2-1 .5-1.5.4-.5.8-.8 1.5-1.1.6-.3 1.3-.4 2-.4 1.2 0 2.1.3 2.8.9s1 1.4 1 2.4v4.7c0 .9 0 1.7.4 2.2v.2zm-2.9-1.3c.5 0 1.1-.1 1.6-.4s.8-.6 1.1-1.1v-2.1h-1.4c-2.1 0-3.2.6-3.2 1.9s.2 1 .5 1.3.8.5 1.4.5z" fill="#0b153b" />
    <path d="m1032.8 208.8v1.3c.8-1 1.8-1.5 3.1-1.5 2.1 0 3.2 1.2 3.3 3.6v6.7h-1.7v-6.7c0-.7-.2-1.3-.5-1.6-.3-.4-.8-.5-1.5-.5s-1.1.2-1.5.5-.8.7-1 1.2v7.2h-1.7v-10.2h1.6z" fill="#0b153b" />
    <path d="m1048 219c0-.2-.2-.6-.2-1.1-.8.8-1.8 1.3-2.9 1.3s-1.8-.3-2.5-.8c-.6-.6-1-1.3-1-2.2s.4-1.9 1.2-2.5 1.9-.9 3.4-.9h1.7v-.8c0-.6-.2-1.1-.5-1.5s-.9-.5-1.6-.5-1.1.2-1.6.5-.6.7-.6 1.1h-1.7c0-.5.2-1 .5-1.5.4-.5.8-.8 1.5-1.1.6-.3 1.3-.4 2-.4 1.2 0 2.1.3 2.8.9s1 1.4 1 2.4v4.7c0 .9 0 1.7.4 2.2v.2zm-2.8-1.3c.5 0 1.1-.1 1.6-.4s.8-.6 1.1-1.1v-2.1h-1.4c-2.1 0-3.2.6-3.2 1.9s.2 1 .5 1.3.8.5 1.4.5z" fill="#0b153b" />
    <path d="m1051.8 213.8c0-1.6.4-2.8 1.1-3.8s1.7-1.4 2.9-1.4 2.2.4 2.9 1.3v-1.1h1.7v9.9c0 1.3-.4 2.4-1.2 3.1s-1.8 1.1-3.1 1.1-1.5-.2-2.2-.5-1.2-.7-1.6-1.3l.9-1c.7.9 1.7 1.4 2.7 1.4s1.5-.2 2-.7.7-1.1.7-2v-.9c-.7.8-1.6 1.2-2.8 1.2s-2.2-.5-2.9-1.4-1.1-2.3-1.1-3.9zm1.8.2c0 1.1.2 2 .7 2.7s1.1 1 2 1 1.9-.5 2.4-1.5v-4.6c-.5-1-1.3-1.5-2.4-1.5s-1.5.3-2 1-.7 1.6-.7 2.9z" fill="#0b153b" />
    <path d="m1067.3 219.2c-1.4 0-2.5-.5-3.4-1.4s-1.3-2.1-1.3-3.6v-.3c0-1 .2-1.9.6-2.7s.9-1.4 1.6-1.9c.7-.4 1.4-.7 2.3-.7 1.3 0 2.3.4 3.1 1.3.7.9 1.1 2.1 1.1 3.7v.7h-6.9c0 1 .3 1.8.9 2.4s1.3.9 2.1.9 1.1-.1 1.6-.4c.4-.3.8-.6 1.1-1l1.1.8c-.9 1.3-2.1 2-3.8 2v.2zm-.3-9.1c-.7 0-1.3.3-1.8.8s-.8 1.2-.9 2.1h5.1c0-1-.3-1.7-.7-2.2s-1-.7-1.7-.7z" fill="#0b153b" />
    <path d="m1074.9 208.8v1.1c.8-.9 1.8-1.3 3.1-1.3s2.4.5 2.9 1.6c.3-.5.8-.9 1.3-1.2s1.2-.5 1.9-.5c2.2 0 3.4 1.2 3.4 3.5v6.8h-1.7v-6.7c0-.7-.2-1.3-.5-1.6s-.9-.5-1.7-.5-1.2.2-1.6.6-.7.9-.7 1.6v6.7h-1.7v-6.7c0-1.5-.7-2.2-2.2-2.2s-1.9.5-2.3 1.5v7.4h-1.7v-10.2h1.6-.1z" fill="#0b153b" />
    <path d="m1094.3 219.2c-1.4 0-2.5-.5-3.4-1.4s-1.3-2.1-1.3-3.6v-.3c0-1 .2-1.9.6-2.7s.9-1.4 1.6-1.9c.7-.4 1.4-.7 2.2-.7 1.3 0 2.3.4 3.1 1.3.7.9 1.1 2.1 1.1 3.7v.7h-6.9c0 1 .3 1.8.9 2.4s1.3.9 2.1.9 1.1-.1 1.6-.4c.4-.3.8-.6 1.1-1l1.1.8c-.9 1.3-2.1 2-3.8 2zm-.2-9.1c-.7 0-1.3.3-1.8.8s-.8 1.2-.9 2.1h5.1c0-1-.3-1.7-.7-2.2s-1-.7-1.7-.7z" fill="#0b153b" />
    <path d="m1101.9 208.8v1.3c.8-1 1.8-1.5 3.1-1.5 2.1 0 3.2 1.2 3.3 3.6v6.7h-1.7v-6.7c0-.7-.2-1.3-.5-1.6-.3-.4-.8-.5-1.5-.5s-1.1.2-1.5.5-.8.7-1 1.2v7.2h-1.7v-10.2h1.6z" fill="#0b153b" />
    <path d="m1113.3 206.4v2.5h1.9v1.3h-1.9v6.3c0 .4 0 .7.3.9.2.2.5.3.9.3s.5 0 .8-.1v1.4c-.5.1-.9.2-1.3.2-.8 0-1.4-.2-1.8-.7s-.6-1.1-.6-2v-6.3h-1.9v-1.3h1.9v-2.5z" fill="#0b153b" />
    <path d="m984 379.3h-5.9v4.8h6.9v1.5h-8.7v-13.7h8.6v1.5h-6.8v4.4h5.9z" fill="#0b153b" />
    <path d="m986.4 380.5c0-1.6.4-2.8 1.1-3.8s1.7-1.4 2.9-1.4 2.1.4 2.8 1.2v-5.3h1.7v14.4h-1.6v-1.1c-.8.9-1.7 1.3-3 1.3s-2.1-.5-2.9-1.4-1.1-2.2-1.1-3.8zm1.7.2c0 1.2.2 2.1.7 2.7.5.7 1.1 1 2 1s1.9-.5 2.4-1.5v-4.7c-.5-1-1.3-1.4-2.4-1.4s-1.5.3-2 1-.7 1.6-.7 2.9z" fill="#0b153b" />
    <path d="m997.2 380.5c0-1.6.4-2.8 1.1-3.8s1.7-1.4 2.9-1.4 2.2.4 2.9 1.3v-1.1h1.7v9.9c0 1.3-.4 2.4-1.2 3.1-.8.8-1.8 1.1-3.1 1.1s-1.5-.2-2.2-.5-1.2-.7-1.6-1.3l.9-1c.7.9 1.7 1.4 2.7 1.4s1.5-.2 2-.7.7-1.1.7-2v-.9c-.7.8-1.6 1.2-2.8 1.2s-2.2-.5-2.9-1.4-1.1-2.3-1.1-3.9zm1.8.2c0 1.1.2 2 .7 2.7s1.1 1 2 1 1.9-.5 2.4-1.5v-4.6c-.5-1-1.3-1.5-2.4-1.5s-1.5.3-2 1-.7 1.6-.7 2.9z" fill="#0b153b" />
    <path d="m1012.7 385.9c-1.4 0-2.5-.5-3.4-1.4s-1.3-2.1-1.3-3.6v-.3c0-1 .2-1.9.6-2.7s.9-1.4 1.6-1.9c.7-.4 1.4-.7 2.2-.7 1.3 0 2.3.4 3.1 1.3.7.9 1.1 2.1 1.1 3.7v.7h-6.9c0 1 .3 1.8.9 2.4s1.3.9 2.1.9 1.1-.1 1.6-.4c.4-.3.8-.6 1.1-1l1.1.8c-.9 1.3-2.1 2-3.8 2zm-.3-9.2c-.7 0-1.3.3-1.8.8s-.8 1.2-.9 2.1h5.1c0-1-.3-1.7-.7-2.2s-1-.7-1.7-.7z" fill="#0b153b" />
    <path d="m934.5 404.4c-.2 1.4-.7 2.6-1.6 3.4s-2.1 1.2-3.6 1.2-2.9-.6-3.9-1.7-1.5-2.7-1.5-4.7v-1.3c0-1.3.2-2.4.7-3.4s1.1-1.7 1.9-2.2 1.8-.8 2.9-.8 2.6.4 3.5 1.2 1.4 1.9 1.5 3.4h-1.8c-.2-1.1-.5-1.9-1-2.4s-1.3-.7-2.2-.7-2.1.4-2.7 1.3c-.7.9-1 2.1-1 3.6v1.3c0 1.5.3 2.7.9 3.5.6.9 1.5 1.3 2.6 1.3s1.8-.2 2.3-.7.9-1.2 1.1-2.4h1.9z" fill="#0b153b" />
    <path d="m936.2 403.6c0-1 .2-1.9.6-2.7s.9-1.4 1.6-1.8 1.5-.6 2.4-.6c1.4 0 2.5.5 3.4 1.4.9 1 1.3 2.2 1.3 3.8s-.2 2-.6 2.8-.9 1.4-1.6 1.8-1.5.7-2.4.7c-1.4 0-2.5-.5-3.3-1.4s-1.3-2.2-1.3-3.8v-.2zm1.7.2c0 1.1.3 2 .8 2.7s1.2 1 2.1 1 1.6-.3 2.1-1 .8-1.7.8-2.9-.3-2-.8-2.7-1.2-1-2.1-1-1.6.3-2.1 1-.8 1.7-.8 2.9z" fill="#0b153b" />
    <path d="m949.3 398.6v1.1c.8-.9 1.8-1.3 3.1-1.3s2.4.5 2.9 1.6c.3-.5.8-.9 1.3-1.2s1.2-.5 1.9-.5c2.2 0 3.4 1.2 3.4 3.5v6.8h-1.7v-6.7c0-.7-.2-1.3-.5-1.6s-.9-.5-1.7-.5-1.2.2-1.6.6-.7.9-.7 1.6v6.7h-1.7v-6.7c0-1.5-.7-2.2-2.2-2.2s-1.9.5-2.3 1.5v7.4h-1.7v-10.2h1.6z" fill="#0b153b" />
    <path d="m973.1 403.8c0 1.5-.4 2.8-1.1 3.7s-1.7 1.4-2.9 1.4-2.2-.4-2.9-1.2v4.9h-1.7v-14.1h1.6v1.1c.8-.9 1.8-1.3 3-1.3s2.2.5 2.9 1.4 1.1 2.2 1.1 3.8zm-1.8-.2c0-1.1-.2-2.1-.7-2.7-.5-.7-1.2-1-2-1s-1.8.5-2.4 1.4v4.9c.5.9 1.3 1.4 2.4 1.4s1.5-.3 2-1 .7-1.6.7-2.9z" fill="#0b153b" />
    <path d="m981.6 407.8c-.7.8-1.7 1.2-3 1.2s-1.9-.3-2.5-.9-.9-1.6-.9-2.8v-6.6h1.7v6.6c0 1.5.6 2.3 1.9 2.3s2.2-.5 2.7-1.5v-7.4h1.7v10.2h-1.7v-1z" fill="#0b153b" />
    <path d="m988.3 396.1v2.5h1.9v1.3h-1.9v6.3c0 .4 0 .7.3.9.2.2.5.3.9.3s.5 0 .8-.1v1.4c-.5.1-.9.2-1.3.2-.8 0-1.4-.2-1.8-.7s-.6-1.1-.6-2v-6.3h-1.9v-1.3h1.9v-2.5z" fill="#0b153b" />
    <path d="m992.2 395.9c0-.3 0-.5.3-.7.2-.2.4-.3.8-.3s.6 0 .8.3c.2.2.3.4.3.7s0 .5-.3.7c-.2.2-.4.3-.8.3s-.6 0-.8-.3c-.2-.2-.3-.4-.3-.7zm1.9 12.9h-1.7v-10.2h1.7z" fill="#0b153b" />
    <path d="m998.5 398.6v1.3c.8-1 1.8-1.5 3.1-1.5 2.1 0 3.2 1.2 3.3 3.6v6.7h-1.7v-6.7c0-.7-.2-1.3-.5-1.6-.3-.4-.8-.5-1.5-.5s-1.1.2-1.5.5-.8.7-1 1.2v7.2h-1.7v-10.2h1.6z" fill="#0b153b" />
    <path d="m1007.1 403.6c0-1.6.4-2.8 1.1-3.8s1.7-1.4 2.9-1.4 2.2.4 2.9 1.3v-1.1h1.7v9.9c0 1.3-.4 2.4-1.2 3.1s-1.8 1.1-3.1 1.1-1.5-.2-2.2-.5-1.2-.7-1.6-1.3l.9-1c.7.9 1.7 1.4 2.7 1.4s1.5-.2 2-.7.7-1.1.7-2v-.9c-.7.8-1.6 1.2-2.8 1.2s-2.2-.5-2.9-1.4-1.1-2.3-1.1-3.9zm1.7.2c0 1.1.2 2 .7 2.7s1.1 1 2 1 1.9-.5 2.4-1.5v-4.6c-.5-1-1.3-1.5-2.4-1.5s-1.5.3-2 1-.7 1.6-.7 2.9z" fill="#0b153b" />
    <path d="m1215.5 236.1h68.9v68.9h-68.9z" fill="#743db9" />
    <path d="m1215.5 409.7h68.9v68.9h-68.9z" fill="#743db9" />
    <path d="m1241.9 192.3h-5.7l-1.3 3.6h-1.9l5.2-13.7h1.6l5.2 13.7h-1.9l-1.3-3.6zm-5.2-1.4h4.7l-2.3-6.4-2.3 6.4z" fill="#0b153b" />
    <path d="m1255.2 190.9c0 1.5-.4 2.8-1.1 3.7s-1.7 1.4-2.9 1.4-2.2-.4-2.9-1.2v4.9h-1.7v-14.1h1.6v1.1c.8-.9 1.8-1.3 3-1.3s2.2.5 2.9 1.4 1.1 2.2 1.1 3.8zm-1.7-.2c0-1.1-.2-2.1-.7-2.7s-1.2-1-2-1-1.8.5-2.4 1.4v4.9c.5.9 1.3 1.4 2.4 1.4s1.5-.3 2-1 .7-1.6.7-2.9z" fill="#0b153b" />
    <path d="m1266 190.9c0 1.5-.4 2.8-1.1 3.7s-1.7 1.4-2.9 1.4-2.2-.4-2.9-1.2v4.9h-1.7v-14.1h1.6v1.1c.8-.9 1.8-1.3 3-1.3s2.2.5 2.9 1.4 1.1 2.2 1.1 3.8zm-1.7-.2c0-1.1-.2-2.1-.7-2.7s-1.2-1-2-1-1.8.5-2.4 1.4v4.9c.5.9 1.3 1.4 2.4 1.4s1.5-.3 2-1 .7-1.6.7-2.9z" fill="#0b153b" />
    <path d="m1227.4 215.3c0-.7.2-1.3.5-1.8s1.1-1.2 2.1-1.9c-.6-.7-1-1.3-1.2-1.8s-.3-.9-.3-1.3c0-1 .3-1.9.9-2.4.6-.6 1.4-.9 2.5-.9s1.7.3 2.3.8.9 1.2.9 2.1 0 1.1-.4 1.5-.8 1-1.5 1.5l-1 .7 3 3.6c.4-.8.6-1.7.6-2.7h1.6c0 1.6-.4 2.9-1.2 4l2 2.3h-2.1l-.9-1.1c-.5.4-1 .7-1.6.9s-1.3.3-1.9.3c-1.3 0-2.4-.4-3.2-1.1s-1.2-1.6-1.2-2.8zm4.4 2.5c.9 0 1.8-.4 2.5-1.1l-3.3-4-.3.2c-1 .8-1.6 1.6-1.6 2.4s.2 1.3.7 1.8c.5.4 1.1.7 2 .7zm-1.5-9.4c0 .6.4 1.4 1.1 2.3l1.1-.8c.4-.3.7-.6.9-.9s.2-.6.2-1-.2-.8-.5-1c-.3-.3-.7-.4-1.2-.4s-.9.2-1.2.5-.5.8-.5 1.3z" fill="#0b153b" />
    <path d="m1252.3 215.4h-5.7l-1.3 3.6h-1.9l5.2-13.7h1.6l5.2 13.7h-1.9l-1.3-3.6zm-5.2-1.4h4.7l-2.3-6.4-2.3 6.4z" fill="#0b153b" />
    <path d="m1259.1 213.7v5.4h-1.8v-13.7h5c1.5 0 2.7.4 3.5 1.1.8.8 1.3 1.8 1.3 3s-.4 2.4-1.2 3.1-2 1.1-3.6 1.1zm0-1.5h3.2c1 0 1.7-.2 2.2-.7s.8-1.1.8-2-.3-1.5-.8-2-1.2-.7-2.1-.8h-3.3z" fill="#0b153b" />
    <path d="m1271.4 219h-1.8v-13.7h1.8z" fill="#0b153b" />
    <path d="m1241.2 365.6v9.3c0 1.3-.4 2.3-1.2 3.2-.8.8-1.9 1.3-3.3 1.4h-.5c-1.5 0-2.7-.4-3.6-1.2s-1.3-1.9-1.4-3.3v-9.3h1.8v9.3c0 1 .3 1.8.8 2.3s1.3.8 2.3.8 1.8-.3 2.3-.8.8-1.3.8-2.3v-9.3h2z" fill="#0b153b" />
    <path d="m1249.7 376.6c0-.5-.2-.8-.5-1.1-.4-.3-1-.5-1.9-.7s-1.6-.4-2.1-.7-.9-.6-1.1-.9c-.2-.4-.4-.8-.4-1.3 0-.8.4-1.5 1.1-2.1s1.6-.9 2.7-.9 2.1.3 2.8.9 1.1 1.4 1.1 2.3h-1.7c0-.5-.2-.9-.6-1.2s-.9-.5-1.5-.5-1.1.1-1.5.4-.5.6-.5 1.1.2.7.5.9.9.4 1.8.6 1.6.4 2.1.7.9.6 1.2 1 .4.8.4 1.4c0 .9-.4 1.6-1.1 2.2-.7.5-1.7.8-2.8.8s-1.5-.1-2.2-.4c-.6-.3-1.1-.7-1.5-1.2s-.5-1.1-.5-1.7h1.7c0 .6.3 1 .7 1.4s1 .5 1.7.5 1.2-.1 1.6-.4.6-.6.6-1.1z" fill="#0b153b" />
    <path d="m1257.9 379.5c-1.4 0-2.5-.5-3.4-1.4s-1.3-2.1-1.3-3.6v-.3c0-1 .2-1.9.6-2.7s.9-1.4 1.6-1.9c.7-.4 1.4-.7 2.2-.7 1.3 0 2.3.4 3.1 1.3.7.9 1.1 2.1 1.1 3.7v.7h-6.9c0 1 .3 1.8.9 2.4s1.3.9 2.1.9 1.1-.1 1.6-.4c.4-.3.8-.6 1.1-1l1.1.8c-.9 1.3-2.1 2-3.8 2zm-.2-9.1c-.7 0-1.3.3-1.8.8s-.8 1.2-.9 2.1h5.1c0-1-.3-1.7-.7-2.2s-1-.7-1.7-.7z" fill="#0b153b" />
    <path d="m1268.8 370.7h-.9c-1.1 0-1.9.5-2.3 1.5v7.2h-1.7v-10.2h1.7v1.2c.6-.9 1.4-1.4 2.5-1.4s.6 0 .8.1v1.6z" fill="#0b153b" />
    <path d="m1197.7 397.1v5.4h-1.8v-13.7h5c1.5 0 2.7.4 3.5 1.1.8.8 1.3 1.8 1.3 3s-.4 2.4-1.2 3.1-2 1.1-3.6 1.1zm0-1.5h3.2c1 0 1.7-.2 2.2-.7s.8-1.1.8-2-.3-1.5-.8-2-1.2-.7-2.1-.8h-3.3z" fill="#0b153b" />
    <path d="m1212.7 393.8h-.9c-1.1 0-1.9.5-2.3 1.5v7.2h-1.7v-10.2h1.7v1.2c.6-.9 1.4-1.4 2.5-1.4s.6 0 .8.1v1.6z" fill="#0b153b" />
    <path d="m1214.3 389.5c0-.3 0-.5.3-.7.2-.2.4-.3.8-.3s.6 0 .8.3.3.4.3.7 0 .5-.3.7c-.2.2-.4.3-.8.3s-.6 0-.8-.3c-.2-.2-.3-.4-.3-.7zm1.9 12.9h-1.7v-10.2h1.7z" fill="#0b153b" />
    <path d="m1218.5 397.2c0-1 .2-1.9.6-2.7s.9-1.4 1.6-1.8 1.5-.6 2.4-.6c1.4 0 2.5.5 3.4 1.4.9 1 1.3 2.2 1.3 3.8s-.2 2-.6 2.8-.9 1.4-1.6 1.8-1.5.7-2.4.7c-1.4 0-2.5-.5-3.3-1.4s-1.3-2.2-1.3-3.8v-.2zm1.7.2c0 1.1.3 2 .8 2.7s1.2 1 2.1 1 1.6-.3 2.1-1 .8-1.7.8-2.9-.3-2-.8-2.7-1.2-1-2.1-1-1.6.3-2.1 1-.8 1.7-.8 2.9z" fill="#0b153b" />
    <path d="m1234.8 393.8h-.9c-1.1 0-1.9.5-2.3 1.5v7.2h-1.7v-10.2h1.7v1.2c.6-.9 1.4-1.4 2.5-1.4s.6 0 .8.1v1.6z" fill="#0b153b" />
    <path d="m1236.4 389.5c0-.3 0-.5.3-.7.2-.2.4-.3.8-.3s.6 0 .8.3c.2.2.3.4.3.7s0 .5-.3.7c-.2.2-.4.3-.8.3s-.6 0-.8-.3c-.2-.2-.3-.4-.3-.7zm1.9 12.9h-1.7v-10.2h1.7z" fill="#0b153b" />
    <path d="m1243.5 389.8v2.5h1.9v1.3h-1.9v6.3c0 .4 0 .7.3.9.2.2.5.3.9.3s.5 0 .8-.1v1.4c-.5.1-.9.2-1.3.2-.8 0-1.4-.2-1.8-.7s-.6-1.1-.6-2v-6.3h-1.9v-1.3h1.9v-2.5z" fill="#0b153b" />
    <path d="m1247.4 389.5c0-.3 0-.5.3-.7s.4-.3.8-.3.6 0 .8.3c.2.2.3.4.3.7s0 .5-.3.7c-.2.2-.4.3-.8.3s-.6 0-.8-.3c-.2-.2-.3-.4-.3-.7zm1.9 12.9h-1.7v-10.2h1.7z" fill="#0b153b" />
    <path d="m1253.7 401h5.9v1.4h-8.1v-1.3l5.6-7.5h-5.5v-1.4h7.7v1.2l-5.7 7.5z" fill="#0b153b" />
    <path d="m1267.9 402.4c0-.2-.2-.6-.2-1.1-.8.8-1.8 1.3-2.9 1.3s-1.8-.3-2.5-.8c-.6-.6-1-1.3-1-2.2s.4-1.9 1.2-2.5 1.9-.9 3.4-.9h1.7v-.8c0-.6-.2-1.1-.5-1.5s-.9-.5-1.6-.5-1.1.2-1.6.5c-.4.3-.6.7-.6 1.1h-1.7c0-.5.2-1 .5-1.5.4-.5.8-.8 1.5-1.1.6-.3 1.3-.4 2-.4 1.2 0 2.1.3 2.8.9s1 1.4 1 2.4v4.7c0 .9 0 1.7.4 2.2v.2zm-2.9-1.3c.5 0 1.1-.1 1.6-.4s.8-.6 1.1-1.1v-2.1h-1.4c-2.1 0-3.2.6-3.2 1.9s.2 1 .5 1.3.8.5 1.4.5z" fill="#0b153b" />
    <path d="m1274.4 389.8v2.5h1.9v1.3h-1.9v6.3c0 .4 0 .7.3.9.2.2.5.3.9.3s.5 0 .8-.1v1.4c-.5.1-.9.2-1.3.2-.8 0-1.4-.2-1.8-.7s-.6-1.1-.6-2v-6.3h-1.9v-1.3h1.9v-2.5z" fill="#0b153b" />
    <path d="m1278.4 389.5c0-.3 0-.5.3-.7.2-.2.4-.3.8-.3s.6 0 .8.3c.2.2.3.4.3.7s0 .5-.3.7c-.2.2-.4.3-.8.3s-.6 0-.8-.3c-.2-.2-.3-.4-.3-.7zm1.8 12.9h-1.7v-10.2h1.7z" fill="#0b153b" />
    <path d="m1282.6 397.2c0-1 .2-1.9.6-2.7s.9-1.4 1.6-1.8 1.5-.6 2.4-.6c1.4 0 2.5.5 3.4 1.4.9 1 1.3 2.2 1.3 3.8s-.2 2-.6 2.8-.9 1.4-1.6 1.8-1.5.7-2.4.7c-1.4 0-2.5-.5-3.3-1.4s-1.3-2.2-1.3-3.8v-.2zm1.7.2c0 1.1.3 2 .8 2.7s1.2 1 2.1 1 1.6-.3 2.1-1 .8-1.7.8-2.9-.3-2-.8-2.7-1.2-1-2.1-1-1.6.3-2.1 1-.8 1.7-.8 2.9z" fill="#0b153b" />
    <path d="m1295.6 392.2v1.3c.8-1 1.8-1.5 3.1-1.5 2.1 0 3.2 1.2 3.3 3.6v6.7h-1.7v-6.7c0-.7-.2-1.3-.5-1.6-.3-.4-.8-.5-1.5-.5s-1.1.2-1.5.5-.8.7-1 1.2v7.2h-1.7v-10.2h1.6z" fill="#0b153b" />
    <path d="m1405.5 236.1h68.9v68.9h-68.9z" fill="#743db9" />
    <path d="m1417.4 219v-13.7h3.9c1.2 0 2.2.3 3.2.8s1.6 1.3 2.1 2.2.8 2.1.8 3.3v.9c0 1.3-.2 2.4-.7 3.4s-1.2 1.7-2.1 2.2-2 .8-3.2.8h-4zm1.8-12.2v10.7h1.9c1.4 0 2.5-.4 3.2-1.3s1.2-2.1 1.2-3.7v-.8c0-1.6-.4-2.8-1.1-3.6s-1.8-1.3-3.1-1.3z" fill="#0b153b" />
    <path d="m1430 219v-13.7h3.9c1.2 0 2.2.3 3.2.8s1.6 1.3 2.1 2.2.8 2.1.8 3.3v.9c0 1.3-.2 2.4-.7 3.4s-1.2 1.7-2.1 2.2-2 .8-3.2.8h-4zm1.8-12.2v10.7h1.9c1.4 0 2.5-.4 3.2-1.3.8-.9 1.2-2.1 1.2-3.7v-.8c0-1.6-.4-2.8-1.1-3.6-.7-.9-1.8-1.3-3.1-1.3z" fill="#0b153b" />
    <path d="m1441.9 213.8c0-1 .2-1.9.6-2.7s.9-1.4 1.6-1.8 1.5-.6 2.4-.6c1.4 0 2.5.5 3.4 1.4.9 1 1.3 2.2 1.3 3.8s-.2 2-.6 2.8-.9 1.4-1.6 1.8-1.5.7-2.4.7c-1.4 0-2.5-.5-3.3-1.4s-1.3-2.2-1.3-3.8v-.2zm1.7.2c0 1.1.3 2 .8 2.7s1.2 1 2.1 1 1.6-.3 2.1-1 .8-1.7.8-2.9-.3-2-.8-2.7-1.2-1-2.1-1-1.6.3-2.1 1-.8 1.7-.8 2.9z" fill="#0b153b" />
    <path d="m1457.6 212.9c-1.5-.4-2.7-1-3.4-1.6s-1.1-1.4-1.1-2.4.4-2 1.3-2.7 2-1.1 3.4-1.1 1.8.2 2.5.5c.7.4 1.3.9 1.7 1.5s.6 1.3.6 2.1h-1.8c0-.8-.3-1.5-.8-2s-1.3-.7-2.2-.7-1.6.2-2.1.6-.7.9-.7 1.6.2 1 .7 1.4 1.3.7 2.4 1.1c1.1.3 2 .7 2.7 1.1.6.4 1.1.8 1.4 1.3s.5 1.1.5 1.8c0 1.1-.4 2-1.3 2.7s-2 1-3.5 1-1.8-.2-2.6-.5-1.4-.9-1.9-1.5c-.4-.6-.7-1.3-.7-2.1h1.8c0 .8.3 1.5.9 2s1.4.7 2.4.7 1.7-.2 2.2-.6.8-.9.8-1.6-.2-1.2-.7-1.6-1.3-.7-2.6-1.1z" fill="#0b153b" />
    <path d="m1027.6 83.7h-10.8v7.3h12.7v4.5h-18.3v-27.4h18.3v4.6h-12.7v6.5h10.8z" fill="#4a9fcf" />
    <path d="m1032.8 95.5v-27.4h8.4c2.4 0 4.6.5 6.5 1.6s3.4 2.6 4.4 4.6 1.6 4.3 1.6 6.8v1.3c0 2.5-.5 4.8-1.6 6.8s-2.5 3.5-4.4 4.6-4.1 1.6-6.4 1.7zm5.6-22.8v18.3h2.7c2.2 0 3.9-.7 5.1-2.2s1.8-3.5 1.8-6.2v-1.4c0-2.8-.6-4.9-1.7-6.3s-2.8-2.2-5.1-2.2z" fill="#4a9fcf" />
    <path d="m1079.5 92.1c-1 1.2-2.5 2.2-4.3 2.8s-3.9 1-6.2 1-4.4-.5-6.2-1.6-3.2-2.5-4.1-4.5-1.5-4.3-1.5-6.9v-1.9c0-2.7.5-5.1 1.4-7.1s2.2-3.5 4-4.6 3.8-1.6 6.1-1.6 5.8.8 7.6 2.3 2.9 3.8 3.3 6.8h-5.5c-.3-1.6-.8-2.7-1.7-3.4s-2-1.1-3.5-1.1-3.4.7-4.4 2.2-1.5 3.6-1.5 6.4v1.7c0 2.9.5 5 1.6 6.5s2.7 2.2 4.8 2.2 3.6-.5 4.5-1.4v-4.7h-5.1v-4.2h10.8v11.1z" fill="#4a9fcf" />
    <path d="m1100.5 83.7h-10.8v7.3h12.7v4.5h-18.3v-27.4h18.3v4.6h-12.7v6.5h10.8z" fill="#4a9fcf" />
    <path d="m1120.9 85.9v9.6h-5.6v-27.4h10.7c2.1 0 3.9.4 5.4 1.1s2.8 1.8 3.6 3.2 1.3 3 1.3 4.7c0 2.7-.9 4.8-2.8 6.3s-4.4 2.3-7.6 2.3h-4.9v.2zm0-4.6h5c1.5 0 2.6-.4 3.4-1.1s1.2-1.7 1.2-3-.4-2.4-1.2-3.3c-.8-.8-1.9-1.3-3.3-1.3h-5.2v8.6z" fill="#4a9fcf" />
    <path d="m1145.7 91h12v4.5h-17.6v-27.4h5.6z" fill="#4a9fcf" />
    <path d="m1176.7 89.9h-9.9l-1.9 5.6h-6l10.2-27.4h5.2l10.2 27.4h-6l-1.9-5.6zm-8.3-4.6h6.8l-3.4-10.2z" fill="#4a9fcf" />
    <path d="m1205.5 72.7h-8.4v22.8h-5.6v-22.8h-8.3v-4.6h22.3z" fill="#4a9fcf" />
    <path d="m1225.2 84.4h-10.8v11.2h-5.6v-27.4h17.8v4.6h-12.2v7.1h10.8z" fill="#4a9fcf" />
    <path d="m1252.3 82.5c0 2.7-.5 5.1-1.4 7.1s-2.3 3.6-4.1 4.7-3.8 1.7-6.1 1.7-4.3-.5-6.1-1.6-3.2-2.6-4.1-4.7c-1-2-1.5-4.4-1.5-7v-1.4c0-2.7.5-5.1 1.5-7.1s2.3-3.6 4.1-4.7 3.8-1.6 6.1-1.6 4.3.5 6.1 1.6 3.1 2.7 4.1 4.7 1.5 4.4 1.5 7.1v1.2zm-5.7-1.3c0-2.9-.5-5-1.5-6.5s-2.5-2.2-4.4-2.2-3.4.7-4.4 2.2-1.5 3.6-1.6 6.5v1.3c0 2.8.5 5 1.5 6.5s2.5 2.3 4.4 2.3 3.3-.7 4.4-2.2 1.5-3.6 1.5-6.5v-1.3z" fill="#4a9fcf" />
    <path d="m1266.5 85.5h-4.5v10h-5.6v-27.4h10.2c3.2 0 5.7.7 7.5 2.2s2.6 3.5 2.6 6.1-.4 3.4-1.2 4.7-2 2.2-3.7 3l5.9 11.2v.3h-6.1l-5.1-10zm-4.5-4.5h4.5c1.4 0 2.5-.4 3.3-1.1s1.2-1.7 1.2-3-.4-2.3-1.1-3-1.9-1.1-3.4-1.1h-4.5z" fill="#4a9fcf" />
    <path d="m1288.3 68.2 7 19.8 7-19.8h7.4v27.4h-5.7v-7.5l.6-12.9-7.4 20.4h-3.9l-7.4-20.4.6 12.9v7.5h-5.6v-27.4z" fill="#4a9fcf" />
    <path d="m1195 144.3h-5.9v4.8h6.9v1.5h-8.7v-13.7h8.6v1.5h-6.8v4.4h5.9z" fill="#0b153b" />
    <path d="m1197.3 145.4c0-1.6.4-2.8 1.1-3.8s1.7-1.4 2.9-1.4 2.1.4 2.8 1.2v-5.3h1.7v14.4h-1.6v-1.1c-.8.9-1.7 1.3-3 1.3s-2.1-.5-2.9-1.4-1.1-2.2-1.1-3.8zm1.7.2c0 1.2.2 2.1.7 2.7.5.7 1.1 1 2 1s1.9-.5 2.4-1.5v-4.7c-.5-1-1.3-1.4-2.4-1.4s-1.5.3-2 1-.7 1.6-.7 2.9z" fill="#0b153b" />
    <path d="m1208.2 145.4c0-1.6.4-2.8 1.1-3.8s1.7-1.4 2.9-1.4 2.2.4 2.9 1.3v-1.1h1.7v9.9c0 1.3-.4 2.4-1.2 3.1s-1.8 1.1-3.1 1.1-1.5-.2-2.2-.5-1.2-.7-1.6-1.3l.9-1c.7.9 1.7 1.4 2.7 1.4s1.5-.2 2-.7.7-1.1.7-2v-.9c-.7.8-1.6 1.2-2.8 1.2s-2.2-.5-2.9-1.4-1.1-2.3-1.1-3.9zm1.7.2c0 1.1.2 2 .7 2.7s1.1 1 2 1 1.9-.5 2.4-1.5v-4.6c-.5-1-1.3-1.5-2.4-1.5s-1.5.3-2 1-.7 1.6-.7 2.9z" fill="#0b153b" />
    <path d="m1223.6 150.8c-1.4 0-2.5-.5-3.4-1.4s-1.3-2.1-1.3-3.6v-.3c0-1 .2-1.9.6-2.7s.9-1.4 1.6-1.9c.7-.4 1.4-.7 2.3-.7 1.3 0 2.3.4 3.1 1.3.7.9 1.1 2.1 1.1 3.7v.7h-6.9c0 1 .3 1.8.9 2.4s1.3.9 2.1.9 1.1-.1 1.6-.4c.4-.3.8-.6 1.1-1l1.1.8c-.9 1.3-2.1 2-3.8 2v.2zm-.2-9.1c-.7 0-1.3.3-1.8.8s-.8 1.2-.9 2.1h5.1c0-1-.3-1.7-.7-2.2s-1-.7-1.7-.7z" fill="#0b153b" />
    <path d="m1238.6 144.5c-1.5-.4-2.7-1-3.4-1.6s-1.1-1.4-1.1-2.4.4-2 1.3-2.7 2-1.1 3.4-1.1 1.8.2 2.5.5c.7.4 1.3.9 1.7 1.5s.6 1.3.6 2.1h-1.8c0-.8-.3-1.5-.8-2s-1.3-.7-2.2-.7-1.6.2-2.1.6-.7.9-.7 1.6.2 1 .7 1.4 1.3.7 2.4 1.1c1.1.3 2 .7 2.7 1.1.6.4 1.1.8 1.4 1.3s.5 1.1.5 1.8c0 1.1-.4 2-1.3 2.7s-2 1-3.5 1-1.8-.2-2.6-.5-1.4-.9-1.9-1.5c-.4-.6-.7-1.3-.7-2.1h1.8c0 .8.3 1.5.9 2s1.4.7 2.4.7 1.7-.2 2.2-.6.8-.9.8-1.6-.2-1.2-.7-1.6-1.3-.7-2.6-1.1z" fill="#0b153b" />
    <path d="m1250 150.8c-1.4 0-2.5-.5-3.4-1.4s-1.3-2.1-1.3-3.6v-.3c0-1 .2-1.9.6-2.7s.9-1.4 1.6-1.9c.7-.4 1.4-.7 2.3-.7 1.3 0 2.3.4 3.1 1.3.7.9 1.1 2.1 1.1 3.7v.7h-6.9c0 1 .3 1.8.9 2.4s1.3.9 2.1.9 1.1-.1 1.6-.4c.4-.3.8-.6 1.1-1l1.1.8c-.9 1.3-2.1 2-3.8 2v.2zm-.2-9.1c-.7 0-1.3.3-1.8.8s-.8 1.2-.9 2.1h5.1c0-1-.3-1.7-.7-2.2s-1-.7-1.7-.7z" fill="#0b153b" />
    <path d="m1260.9 142h-.9c-1.1 0-1.9.5-2.3 1.5v7.2h-1.7v-10.2h1.7v1.2c.6-.9 1.4-1.4 2.5-1.4s.6 0 .8.1v1.6z" fill="#0b153b" />
    <path d="m1266 148.3 2.5-7.8h1.8l-3.6 10.2h-1.3l-3.7-10.2h1.8l2.6 7.8z" fill="#0b153b" />
    <path d="m1276 150.8c-1.4 0-2.5-.5-3.4-1.4s-1.3-2.1-1.3-3.6v-.3c0-1 .2-1.9.6-2.7s.9-1.4 1.6-1.9c.7-.4 1.4-.7 2.3-.7 1.3 0 2.3.4 3.1 1.3.7.9 1.1 2.1 1.1 3.7v.7h-6.9c0 1 .3 1.8.9 2.4s1.3.9 2.1.9 1.1-.1 1.6-.4c.4-.3.8-.6 1.1-1l1.1.8c-.9 1.3-2.1 2-3.8 2v.2zm-.2-9.1c-.7 0-1.3.3-1.8.8s-.8 1.2-.9 2.1h5.1c0-1-.3-1.7-.7-2.2s-1-.7-1.7-.7z" fill="#0b153b" />
    <path d="m1286.9 142h-.9c-1.1 0-1.9.5-2.3 1.5v7.2h-1.7v-10.2h1.7v1.2c.6-.9 1.4-1.4 2.5-1.4s.6 0 .8.1v1.6z" fill="#0b153b" />
    <path d="m1294.5 147.9c0-.5-.2-.8-.5-1.1-.4-.3-1-.5-1.9-.7s-1.6-.4-2.1-.7-.9-.6-1.1-.9c-.2-.4-.4-.8-.4-1.3 0-.8.4-1.5 1.1-2.1s1.6-.9 2.7-.9 2.1.3 2.8.9 1.1 1.4 1.1 2.3h-1.7c0-.5-.2-.9-.6-1.2s-.9-.5-1.5-.5-1.1.1-1.5.4-.5.6-.5 1.1.2.7.5.9.9.4 1.8.6 1.6.4 2.1.7.9.6 1.2 1 .4.8.4 1.4c0 .9-.4 1.6-1.1 2.2-.7.5-1.7.8-2.8.8s-1.5-.1-2.2-.4-1.1-.7-1.5-1.2-.5-1.1-.5-1.7h1.7c0 .6.3 1 .7 1.4.4.3 1 .5 1.7.5s1.2-.1 1.6-.4.6-.6.6-1.1z" fill="#0b153b" />
    <circle cx="1025.5" cy="487.6" fill="#fff" r="24.5" />
    <path d="m1025.5 514.6c-14.9 0-26.9-12.1-26.9-26.9s12.1-26.9 26.9-26.9 26.9 12.1 26.9 26.9-12.1 26.9-26.9 26.9zm0-49.1c-12.2 0-22.1 9.9-22.1 22.1s9.9 22.1 22.1 22.1 22.1-9.9 22.1-22.1-9.9-22.1-22.1-22.1z" fill="#743db9" />
    <circle cx="1677.1" cy="493.2" fill="#fff" r="24.5" />
    <path d="m1677.1 520.2c-14.9 0-26.9-12.1-26.9-26.9s12.1-26.9 26.9-26.9 26.9 12.1 26.9 26.9-12 26.9-26.9 26.9zm0-49.1c-12.2 0-22.1 9.9-22.1 22.1s9.9 22.1 22.1 22.1 22.1-9.9 22.1-22.1-9.9-22.1-22.1-22.1z" fill="#4a9fcf" />
    <path d="m1381.9 723.2v-84.5-2h-130.7v-132.8h5.2l-6.4-19.6-6.4 19.6h5.2v132.8h-130.7v86.5h-5.2l6.4 19.6 6.4-19.6h-5.2v-84.1h63.1v161.8h-5.2l6.4 19.6 6.4-19.6h-5.2v-161.8h62.8v84.1h-5.2l6.4 19.6 6.4-19.6h-5.2v-84.1h62.9v161.1h-5.2l6.4 19.5 6.3-19.5h-5.1v-161.1h63v84.1h-5.1l6.4 19.6 6.3-19.6h-5.1z" fill="#0b153b" />
    <circle cx="1249.9" cy="681.9" fill="#fff" r="24.5" />
    <path d="m1249.9 708.9c-14.9 0-26.9-12.1-26.9-26.9s12.1-26.9 26.9-26.9 26.9 12.1 26.9 26.9-12 26.9-26.9 26.9zm0-49.1c-12.2 0-22.1 9.9-22.1 22.1s9.9 22.1 22.1 22.1 22.1-9.9 22.1-22.1-9.9-22.1-22.1-22.1z" fill="#4a9fcf" />
    <g fill="#0b153b">
        <path d="m1132.5 925.1c0 1.7-.3 3.1-.8 4.3s-1.3 2.1-2.2 2.8l3.1 2.4-1.5 1.4-3.6-2.9c-.6 0-1.2.2-1.8.2-1.3 0-2.5-.3-3.6-1s-1.9-1.6-2.4-2.8-.9-2.6-.9-4.3v-1.2c0-1.6.3-3.1.9-4.4s1.4-2.2 2.4-2.9 2.2-1 3.6-1 2.6.3 3.6 1 1.8 1.6 2.4 2.9.8 2.7.8 4.4zm-2.3-1.1c0-2-.4-3.6-1.2-4.7s-1.9-1.6-3.4-1.6-2.5.5-3.4 1.6c-.8 1.1-1.2 2.6-1.3 4.5v1.3c0 2 .4 3.5 1.2 4.6s2 1.7 3.4 1.7 2.6-.5 3.4-1.6 1.2-2.6 1.2-4.6v-1.3h.1z" />
        <path d="m1143.5 931.9c-.8 1-2.1 1.5-3.7 1.5s-2.4-.4-3.1-1.2-1.1-2-1.1-3.5v-8.3h2.2v8.2c0 1.9.8 2.9 2.3 2.9s2.8-.6 3.3-1.9v-9.2h2.2v12.7h-2.1v-1.3z" />
        <path d="m1154.2 933.4c-1.7 0-3.1-.6-4.2-1.7s-1.6-2.6-1.6-4.5v-.4c0-1.3.2-2.4.7-3.4s1.2-1.8 2-2.3 1.8-.8 2.8-.8c1.7 0 2.9.5 3.9 1.6s1.4 2.6 1.4 4.7v.9h-8.6c0 1.3.4 2.3 1.1 3 .7.8 1.6 1.2 2.7 1.2s1.4-.2 1.9-.5 1-.7 1.4-1.2l1.3 1c-1.1 1.6-2.7 2.5-4.8 2.5zm-.3-11.4c-.9 0-1.6.3-2.2 1-.6.6-1 1.5-1.1 2.7h6.4v-.2c0-1.1-.4-2-.9-2.6s-1.3-.9-2.2-.9z" />
        <path d="m1169.5 931.9c-.8 1-2.1 1.5-3.7 1.5s-2.4-.4-3.1-1.2-1.1-2-1.1-3.5v-8.3h2.2v8.2c0 1.9.8 2.9 2.3 2.9s2.8-.6 3.3-1.9v-9.2h2.2v12.7h-2.1v-1.3z" />
        <path d="m1180.2 933.4c-1.7 0-3.1-.6-4.2-1.7s-1.6-2.6-1.6-4.5v-.4c0-1.3.2-2.4.7-3.4s1.2-1.8 2-2.3 1.8-.8 2.8-.8c1.7 0 2.9.5 3.9 1.6s1.4 2.6 1.4 4.7v.9h-8.6c0 1.3.4 2.3 1.1 3 .7.8 1.6 1.2 2.7 1.2s1.4-.2 1.9-.5 1-.7 1.4-1.2l1.3 1c-1.1 1.6-2.7 2.5-4.8 2.5zm-.3-11.4c-.9 0-1.6.3-2.2 1-.6.6-1 1.5-1.1 2.7h6.4v-.2c0-1.1-.4-2-.9-2.6s-1.3-.9-2.2-.9z" />
        <path d="m1192.2 926.7h-5.7v-1.8h5.7z" />
        <path d="m1194.3 917c0-.4 0-.7.3-.9s.5-.4 1-.4.7 0 1 .4.3.5.3.9 0 .6-.3.9c-.2.2-.5.4-1 .4s-.7 0-1-.4-.3-.5-.3-.9zm2.3 16.1h-2.2v-12.7h2.2z" />
        <path d="m1203.1 917.3v3.1h2.4v1.7h-2.4v7.9c0 .5 0 .9.3 1.1.2.3.6.4 1.1.4s.6 0 1 0v1.8c-.6.2-1.1.2-1.7.2-1 0-1.7-.3-2.2-.9s-.7-1.4-.7-2.5v-7.9h-2.3v-1.7h2.3v-3.1h2.2z" />
        <path d="m1213.8 926.2c0-1.8.2-3.5.7-5.1s1.2-3.1 2.1-4.4 1.9-2.3 2.9-2.8l.4 1.4c-1.1.9-2.1 2.2-2.8 4s-1.1 3.8-1.2 6v1c0 3 .4 5.6 1.6 7.9s1.5 2.4 2.4 3.1l-.4 1.3c-1-.6-2-1.6-3-2.9-1.8-2.7-2.8-5.8-2.8-9.5z" />
        <path d="m1233.4 930.1 2.4-9.7h2.2l-3.7 12.7h-1.8l-3.1-9.6-3 9.6h-1.8l-3.7-12.7h2.2l2.5 9.5 3-9.5h1.8z" />
        <path d="m1248.1 933.1c0-.2-.2-.7-.3-1.3-1 1-2.2 1.6-3.6 1.6s-2.3-.4-3.1-1.1-1.2-1.6-1.2-2.7.5-2.4 1.5-3.1 2.4-1.1 4.2-1.1h2.1v-1c0-.8-.2-1.4-.7-1.8-.5-.5-1.1-.7-2-.7s-1.4.2-1.9.6-.8.9-.8 1.4h-2.2c0-.6.2-1.2.7-1.8s1.1-1.1 1.8-1.4 1.6-.5 2.5-.5c1.5 0 2.6.4 3.4 1.1s1.3 1.7 1.3 3v5.8c0 1.2 0 2.1.4 2.8v.2h-2.3zm-3.6-1.6c.7 0 1.3-.2 1.9-.5.6-.4 1.1-.8 1.3-1.4v-2.6h-1.7c-2.7 0-4 .8-4 2.3s.2 1.2.7 1.6 1 .6 1.8.6z" />
        <path d="m1253.3 917c0-.4 0-.7.3-.9s.5-.4 1-.4.7 0 1 .4.3.5.3.9 0 .6-.3.9c-.2.2-.5.4-1 .4s-.7 0-1-.4-.3-.5-.3-.9zm2.4 16.1h-2.2v-12.7h2.2z" />
        <path d="m1262.1 917.3v3.1h2.4v1.7h-2.4v7.9c0 .5 0 .9.3 1.1.2.3.6.4 1.1.4s.6 0 1 0v1.8c-.6.2-1.1.2-1.7.2-1 0-1.7-.3-2.2-.9s-.7-1.4-.7-2.5v-7.9h-2.3v-1.7h2.3v-3.1h2.2z" />
        <path d="m1267 917c0-.4 0-.7.3-.9s.5-.4 1-.4.7 0 1 .4.3.5.3.9 0 .6-.3.9c-.2.2-.5.4-1 .4s-.7 0-1-.4-.3-.5-.3-.9zm2.4 16.1h-2.2v-12.7h2.2z" />
        <path d="m1274.9 920.4v1.6c1-1.2 2.3-1.8 3.9-1.8 2.7 0 4 1.5 4.1 4.5v8.4h-2.2v-8.4c0-.9-.2-1.6-.6-2s-1.1-.7-1.9-.7-1.3.2-1.9.6c-.5.4-.9.9-1.2 1.5v9.1h-2.2v-12.7h2.1-.1z" />
        <path d="m1285.6 926.7c0-2 .5-3.6 1.4-4.7s2.1-1.8 3.6-1.8 2.8.5 3.6 1.6v-1.4h2.1v12.4c0 1.6-.5 2.9-1.5 3.9-1 .9-2.3 1.4-3.9 1.4s-1.8-.2-2.7-.6-1.5-.9-2-1.6l1.1-1.3c.9 1.2 2.1 1.7 3.4 1.7s1.9-.3 2.5-.9.9-1.4.9-2.5v-1.1c-.9 1-2.1 1.5-3.6 1.5s-2.7-.6-3.6-1.8-1.4-2.8-1.4-4.9zm2.2.2c0 1.4.3 2.6.9 3.4s1.4 1.2 2.5 1.2 2.4-.6 3-1.9v-5.8c-.7-1.2-1.7-1.8-3-1.8s-1.9.4-2.5 1.2-.9 2-.9 3.7z" />
        <path d="m1311.7 922.4h-1.1c-1.4 0-2.4.6-2.9 1.8v9h-2.2v-12.7h2.1v1.5c.7-1.1 1.8-1.7 3.1-1.7s.7 0 1 .2v2z" />
        <path d="m1312.9 926.6c0-1.2.2-2.4.7-3.4s1.2-1.8 2-2.3 1.9-.8 3-.8c1.7 0 3.1.6 4.2 1.8s1.6 2.8 1.6 4.8v.2c0 1.2-.2 2.3-.7 3.3s-1.2 1.7-2 2.3c-.9.5-1.9.8-3 .8-1.7 0-3.1-.6-4.2-1.8s-1.6-2.8-1.6-4.8v-.2zm2.2.3c0 1.4.3 2.5 1 3.4s1.5 1.3 2.6 1.3 2-.4 2.6-1.3 1-2.1 1-3.6-.3-2.5-1-3.4-1.5-1.3-2.6-1.3-1.9.4-2.6 1.3-1 2.1-1 3.7z" />
        <path d="m1326.6 926.6c0-1.2.2-2.4.7-3.4s1.2-1.8 2-2.3 1.9-.8 3-.8c1.7 0 3.1.6 4.2 1.8s1.6 2.8 1.6 4.8v.2c0 1.2-.2 2.3-.7 3.3s-1.2 1.7-2 2.3c-.9.5-1.9.8-3 .8-1.7 0-3.1-.6-4.2-1.8s-1.6-2.8-1.6-4.8v-.2zm2.2.3c0 1.4.3 2.5 1 3.4s1.5 1.3 2.6 1.3 2-.4 2.6-1.3c.7-.9 1-2.1 1-3.6s-.3-2.5-1-3.4-1.5-1.3-2.6-1.3-1.9.4-2.6 1.3-1 2.1-1 3.7z" />
        <path d="m1343 920.4v1.4c1-1.1 2.2-1.6 3.8-1.6s3 .7 3.6 2c.4-.6 1-1.1 1.7-1.5s1.5-.6 2.4-.6c2.8 0 4.2 1.5 4.3 4.4v8.5h-2.2v-8.4c0-.9-.2-1.6-.6-2-.4-.5-1.1-.7-2.1-.7s-1.5.2-2 .7-.8 1.1-.9 1.9v8.4h-2.2v-8.3c0-1.8-.9-2.8-2.7-2.8s-2.4.6-2.9 1.8v9.3h-2.2v-12.7h2.1v.2z" />
        <path d="m1369.4 929.7c0-.6-.2-1-.7-1.4s-1.2-.6-2.3-.8-2-.5-2.6-.8-1.1-.7-1.4-1.2-.5-1-.5-1.6c0-1 .4-1.9 1.3-2.6s2-1.1 3.4-1.1 2.6.4 3.5 1.1 1.3 1.7 1.3 2.9h-2.2c0-.6-.3-1.1-.8-1.5s-1.1-.6-1.9-.6-1.4.2-1.9.5c-.4.3-.7.8-.7 1.3s.2.9.6 1.2 1.2.5 2.2.8c1.1.2 2 .5 2.6.9.7.3 1.2.7 1.5 1.2s.5 1.1.5 1.7c0 1.1-.5 2-1.4 2.7s-2.1 1-3.5 1-1.9-.2-2.7-.5-1.4-.9-1.8-1.5-.7-1.3-.7-2.1h2.2c0 .7.3 1.3.9 1.7.5.4 1.3.6 2.2.6s1.5-.2 2-.5.7-.8.7-1.3h.2z" />
        <path d="m1379.4 926.3c0 1.7-.2 3.4-.7 5s-1.2 3.1-2.1 4.4-1.9 2.3-3 2.9l-.5-1.3c1.2-.9 2.2-2.4 2.9-4.3s1.1-4.1 1.1-6.5v-.4c0-1.6-.2-3.2-.5-4.6s-.8-2.7-1.4-3.8-1.3-2-2.1-2.6l.5-1.3c1 .6 2 1.5 3 2.9s1.6 2.8 2.1 4.4.7 3.3.7 5.2z" />
        <path d="m1528.7 434.4c0 1.3-.2 2.5-.7 3.5s-1.1 1.8-1.9 2.3-1.8.8-2.9.8-2-.3-2.9-.8-1.5-1.3-1.9-2.3-.7-2.1-.7-3.4v-1c0-1.3.2-2.5.7-3.5s1.1-1.8 1.9-2.3 1.8-.8 2.9-.8 2.1.3 2.9.8 1.5 1.3 1.9 2.3c.5 1 .7 2.2.7 3.5zm-1.8-.8c0-1.6-.3-2.9-1-3.7-.7-.9-1.6-1.3-2.7-1.3s-2 .4-2.7 1.3-1 2.1-1 3.6v1c0 1.6.3 2.8 1 3.7s1.6 1.3 2.7 1.3 2.1-.4 2.7-1.3 1-2.1 1-3.7v-1z" />
        <path d="m1536.1 432.2h-.9c-1.1 0-1.9.5-2.3 1.5v7.2h-1.7v-10.2h1.7v1.2c.6-.9 1.4-1.4 2.5-1.4s.6 0 .8.1v1.6z" />
        <path d="m1537.7 428c0-.3 0-.5.3-.7s.4-.3.8-.3.6 0 .8.3c.2.2.3.4.3.7s0 .5-.3.7c-.2.2-.4.3-.8.3s-.6 0-.8-.3c-.2-.2-.3-.4-.3-.7zm1.9 12.8h-1.7v-10.2h1.7z" />
        <path d="m1541.9 435.7c0-1.6.4-2.8 1.1-3.8s1.7-1.4 2.9-1.4 2.2.4 2.9 1.3v-1.1h1.7v9.9c0 1.3-.4 2.4-1.2 3.1-.8.8-1.8 1.1-3.1 1.1s-1.5-.2-2.2-.5-1.2-.7-1.6-1.3l.9-1c.7.9 1.7 1.4 2.7 1.4s1.5-.2 2-.7.7-1.1.7-2v-.9c-.7.8-1.6 1.2-2.8 1.2s-2.2-.5-2.9-1.4-1.1-2.3-1.1-3.9zm1.8.2c0 1.1.2 2 .7 2.7s1.1 1 2 1 1.9-.5 2.4-1.5v-4.6c-.5-1-1.3-1.5-2.4-1.5s-1.5.3-2 1-.7 1.6-.7 2.9z" />
        <path d="m1553.1 428c0-.3 0-.5.3-.7.2-.2.4-.3.8-.3s.6 0 .8.3c.2.2.3.4.3.7s0 .5-.3.7c-.2.2-.4.3-.8.3s-.6 0-.8-.3c-.2-.2-.3-.4-.3-.7zm1.9 12.8h-1.7v-10.2h1.7z" />
        <path d="m1559.4 430.7v1.3c.8-1 1.8-1.5 3.1-1.5 2.1 0 3.2 1.2 3.3 3.6v6.7h-1.7v-6.7c0-.7-.2-1.3-.5-1.6-.3-.4-.8-.5-1.5-.5s-1.1.2-1.5.5-.8.7-1 1.2v7.2h-1.7v-10.2h1.6z" />
        <path d="m1499.7 457.8c-1.5-.4-2.7-1-3.4-1.6s-1.1-1.4-1.1-2.4.4-2 1.3-2.7 2-1.1 3.4-1.1 1.8.2 2.5.5c.7.4 1.3.9 1.7 1.5s.6 1.3.6 2.1h-1.8c0-.8-.3-1.5-.8-2s-1.3-.7-2.2-.7-1.6.2-2.1.6-.7.9-.7 1.6.2 1 .7 1.4 1.3.7 2.4 1.1c1.1.3 2 .7 2.7 1.1.6.4 1.1.8 1.4 1.3s.5 1.1.5 1.8c0 1.1-.4 2-1.3 2.7s-2 1-3.5 1-1.8-.2-2.6-.5-1.4-.9-1.9-1.5c-.4-.6-.7-1.3-.7-2.1h1.8c0 .8.3 1.5.9 2s1.4.7 2.4.7 1.7-.2 2.2-.6.8-.9.8-1.6-.2-1.2-.7-1.6-1.3-.7-2.6-1.1z" />
        <path d="m1511.1 464.1c-1.4 0-2.5-.5-3.4-1.4s-1.3-2.1-1.3-3.6v-.3c0-1 .2-1.9.6-2.7s.9-1.4 1.6-1.9c.7-.4 1.4-.7 2.2-.7 1.3 0 2.3.4 3.1 1.3.7.9 1.1 2.1 1.1 3.7v.7h-6.9c0 1 .3 1.8.9 2.4s1.3.9 2.1.9 1.1-.1 1.6-.4c.4-.3.8-.6 1.1-1l1.1.8c-.9 1.3-2.1 2-3.8 2zm-.3-9.1c-.7 0-1.3.3-1.8.8s-.8 1.2-.9 2.1h5.1c0-1-.3-1.7-.7-2.2s-1-.7-1.7-.7z" />
        <path d="m1521.9 455.3h-.9c-1.1 0-1.9.5-2.3 1.5v7.2h-1.7v-10.2h1.7v1.2c.6-.9 1.4-1.4 2.5-1.4s.6 0 .8.1v1.6z" />
        <path d="m1527.1 461.6 2.5-7.8h1.8l-3.6 10.2h-1.3l-3.7-10.2h1.8l2.6 7.8z" />
        <path d="m1533 451.1c0-.3 0-.5.3-.7.2-.2.4-.3.8-.3s.6 0 .8.3.3.4.3.7 0 .5-.3.7c-.2.2-.4.3-.8.3s-.6 0-.8-.3c-.2-.2-.3-.4-.3-.7zm1.9 12.8h-1.7v-10.2h1.7z" />
        <path d="m1541.8 462.7c.6 0 1.2-.2 1.6-.6.5-.4.7-.8.8-1.4h1.6c0 .6-.2 1.1-.6 1.7-.4.5-.9.9-1.5 1.3-.6.3-1.3.5-2 .5-1.4 0-2.5-.5-3.3-1.4s-1.2-2.2-1.2-3.8v-.3c0-1 .2-1.9.5-2.6s.9-1.4 1.6-1.8 1.5-.6 2.4-.6 2.1.3 2.8 1 1.2 1.6 1.2 2.7h-1.6c0-.7-.3-1.2-.7-1.6s-1-.6-1.7-.6-1.6.3-2.1 1c-.5.6-.7 1.6-.7 2.8v.3c0 1.2.2 2.1.7 2.7s1.2.9 2.1.9v-.2z" />
        <path d="m1552 464.1c-1.4 0-2.5-.5-3.4-1.4s-1.3-2.1-1.3-3.6v-.3c0-1 .2-1.9.6-2.7s.9-1.4 1.6-1.9c.7-.4 1.4-.7 2.2-.7 1.3 0 2.3.4 3.1 1.3.7.9 1.1 2.1 1.1 3.7v.7h-6.9c0 1 .3 1.8.9 2.4s1.3.9 2.1.9 1.1-.1 1.6-.4c.4-.3.8-.6 1.1-1l1.1.8c-.9 1.3-2.1 2-3.8 2zm-.2-9.1c-.7 0-1.3.3-1.8.8s-.8 1.2-.9 2.1h5.1c0-1-.3-1.7-.7-2.2s-1-.7-1.7-.7z" />
        <path d="m1563.9 461.2c0-.5-.2-.8-.5-1.1-.4-.3-1-.5-1.9-.7s-1.6-.4-2.1-.7-.9-.6-1.1-.9c-.2-.4-.4-.8-.4-1.3 0-.8.4-1.5 1.1-2.1s1.6-.9 2.7-.9 2.1.3 2.8.9 1.1 1.4 1.1 2.3h-1.7c0-.5-.2-.9-.6-1.2s-.9-.5-1.5-.5-1.1.1-1.5.4-.5.6-.5 1.1.2.7.5.9.9.4 1.8.6 1.6.4 2.1.7.9.6 1.2 1 .4.8.4 1.4c0 .9-.4 1.6-1.1 2.2-.7.5-1.7.8-2.8.8s-1.5-.1-2.2-.4-1.1-.7-1.5-1.2-.5-1.1-.5-1.7h1.7c0 .6.3 1 .7 1.4s1 .5 1.7.5 1.2-.1 1.6-.4.6-.6.6-1.1z" />
        <path d="m559.6 188.4h-210.8v-5.2l-19.6 6.4 19.6 6.4v-5.2h209.6v127.9h-209.6v-5.1l-19.6 6.3 19.6 6.4v-5.2h209.6v166h-209.6v-5.2l-19.6 6.4 19.6 6.4v-5.2h210.8v-1.2h1.2v-298.7h-1.2z" />
        <path d="m626.4 276.9 19.6-6.3-19.6-6.4v5.2h-48.5v2.4h48.5z" />
        <path d="m1203.1 444.1-19.5-6.3v5.1h-59.4v-5.1l-19.6 6.3 19.6 6.4v-5.2h59.4v5.2z" />
        <path d="m1000.5 442.9h-436.9v2.4h436.9v5.2l19.6-6.4-19.6-6.3z" />
        <path d="m1634.8 378.2v-108.7h-140.8v-5.2l-19.6 6.4 19.6 6.4v-5.2h138.4v106.3h-5.2l6.4 19.6 6.4-19.6z" />
        <path d="m1441.1 168.2h-2.4v-21.4h-109.7v-2.4h112.1z" />
        <path d="m1061.1 168.2h-2.4v-23.8h97v2.4h-94.6z" />
    </g>
    <path d="m1261.7 294.5h-22.8c-.7 0-1.2-.5-1.2-1.2s.5-1.2 1.2-1.2h20.4v-30.4h-20.4c-.7 0-1.2-.5-1.2-1.2s.5-1.2 1.2-1.2h22.8zm-10.9-17.1v-1.1l-10.8-10.5c-.5-.5-1.2-.4-1.7 0-.5.5-.4 1.2 0 1.7l8.7 8.4h-19.6c-.7 0-1.2.5-1.2 1.2s.5 1.2 1.2 1.2h19.6l-8.7 8.4c-.5.5-.5 1.2 0 1.7s.5.4.9.4.6-.1.8-.3l10.8-10.5c0-.4-.1-.5 0-.6z" fill="#fff" />
    <path d="m1247.2 264c.3 1 .7 2 1.2 3s1.2 1.8 1.9 2.6c.6-.4 1.3-.6 2-.6s1.4.2 2 .5c.6.4 1.1.9 1.5 1.5.3.6.5 1.3.5 2 2.1.5 4.3.5 6.4 0 0-.7 0-1.4.5-2 .3-.6.8-1.1 1.5-1.5.6-.3 1.3-.5 2-.5s1.4.2 2 .6c1.5-1.5 2.6-3.4 3.2-5.5-.6-.3-1.2-.8-1.5-1.4-.4-.6-.6-1.3-.6-2s.2-1.4.6-2 .9-1.1 1.5-1.4c-.3-1-.7-2-1.2-3-.6-.9-1.2-1.8-1.9-2.6-.6.4-1.3.6-2 .6s-1.4-.2-2-.5c-.6-.4-1.1-.9-1.5-1.5-.3-.6-.5-1.3-.5-2-2.1-.5-4.3-.5-6.4 0 0 .7 0 1.4-.5 2-.3.6-.8 1.1-1.5 1.5-.6.3-1.3.5-2 .5s-1.4-.2-2-.6c-1.5 1.5-2.6 3.5-3.2 5.5.6.3 1.2.8 1.5 1.4.4.6.6 1.3.6 2s-.2 1.4-.6 2-.9 1-1.5 1.4z" fill="#fff" />
    <path d="m1250.2 256.3c.3-.6.6-1.1 1-1.7 1.5.3 3.1.1 4.5-.7s2.4-2 2.9-3.5c.6-.1 1.3-.1 1.9 0 .5 1.5 1.5 2.7 2.9 3.5s3 1 4.5.7c.4.5.7 1.1 1 1.7-1 1.1-1.6 2.6-1.6 4.2s.6 3.1 1.6 4.3c-.3.6-.6 1.1-1 1.7-1.5-.3-3.1-.1-4.5.7s-2.4 2-2.9 3.5c-.6.1-1.3.1-1.9 0-.5-1.5-1.5-2.7-2.9-3.5s-3-1-4.5-.7c-.4-.5-.7-1.1-1-1.7 1-1.1 1.6-2.7 1.6-4.3s-.6-3-1.6-4.2z" fill="#743db9" />
    <path d="m1259.5 265.2c-2.6 0-4.7-2.1-4.7-4.7s2.1-4.7 4.7-4.7 4.7 2.1 4.7 4.7-2.2 4.7-4.7 4.7zm0-7.1c-1.4 0-2.5 1.1-2.5 2.5s1.1 2.5 2.5 2.5 2.5-1.1 2.5-2.5-1.2-2.5-2.5-2.5z" fill="#fff" />
    <path d="m1082.6 248c-.3-.2-8.2-3.7-22.7-3.7s-22.3 3.5-22.7 3.7l-.7.3v32.5l23.4 16.3 23.4-16.3v-32.5zm-1.7 31.6-21 14.6-21-14.6v-29.7c2.2-.8 9.5-3.2 21-3.2s18.8 2.4 21 3.2zm-33-25.5v9.8h-3.1v-1.6h-2.4v5.5h2.4v-1.6h3.1v11.8h24v-11.8h3.1v1.6h2.4v-5.5h-2.4v1.6h-3.1v-9.8zm21.6 21.6h-19.2v-19.2h19.2zm-16.4-13.5h5v5h-5zm8.7 0h5v5h-5zm-8.7 7.4h13.6v3.5h-13.6z" fill="#fff" />
    <path d="m848.1 250.6v40h45.4v-40zm43 2.4v28.5l-10.6-10.6-7.5 7.5-14.3-14.3-8.2 8.2v-19.3zm-40.6 35.2v-12.4l8.2-8.2 14.3 14.3 7.5-7.5 10.6 10.6v3.3h-40.6zm22.9-17.5c3.4 0 6.1-2.8 6.1-6.1s-2.8-6.1-6.1-6.1-6.1 2.8-6.1 6.1 2.7 6.1 6.1 6.1zm0-9.9c2.1 0 3.7 1.7 3.7 3.7s-1.7 3.7-3.7 3.7-3.7-1.7-3.7-3.7 1.6-3.7 3.7-3.7z" fill="#fff" />
    <path d="m1072.3 465.6h-24.8l-12.4-21.5 12.4-21.5h24.8l12.4 21.5zm-23.4-2.4h22l11-19.1-11-19.1h-22l-11 19.1zm19.1-8.9h-17c-3.6 0-6.4-2.9-6.4-6.4s1.7-5.2 4.3-6.1c.8-2.4 3.1-4.2 5.7-4.3.4-4.4 4-7.8 8.5-7.8s8.5 3.8 8.5 8.5 0 1.7-.4 2.6c2.4 1.2 4 3.7 4 6.4s-3.2 7.1-7.2 7.1zm-13-14.5c-1.9 0-3.5 1.3-3.9 3.2l-.2.7-.7.2c-1.8.4-3.1 2-3.1 3.9s1.8 4 4 4h17c2.6 0 4.8-2.1 4.8-4.8s-1.4-4-3.5-4.6l-1.4-.4.6-1.3c.4-.9.6-1.8.6-2.7 0-3.4-2.7-6.1-6.1-6.1s-6.1 2.7-6.1 6.1v1.9l-1.4-.2h-.6z" fill="#fff" />
    <path d="m1273.6 444.1-14.9-13v9.1l-10.3-9.1v9.1l-10.3-9.1v9.1l-10.4-9.1v26.1l10.4-9.1v9.1l10.3-9.1v9.1l10.3-9.1v9.1z" fill="#fff" />
    <path d="m477.8 672.2-17.5 10.7 3.9 4.5zm-14.4-17.1c-13.6 0-24.7 11.1-24.7 24.7s6.9 17.1 6.9 17.1l.4.4h34.8l.4-.4c4.5-4.6 6.9-10.7 6.9-17.1 0-13.6-11.1-24.7-24.7-24.7zm-16 9.1 2.8 2.8 1.7-1.7-2.7-2.7c2.4-2 5.2-3.4 8.3-4.3v4h2.4v-4.5c1.1-.2 2.3-.3 3.4-.3s2.3 0 3.4.3v4.5h2.4v-4c3.2.9 6.1 2.4 8.6 4.5l-2.5 2.5 1.7 1.7 2.5-2.5c2.4 2.5 4.1 5.5 5.2 8.9h-4.9v2.4h5.4c.2 1.3.4 2.6.4 4s0 1.1-.1 1.7c-1.1-.3-2.3-.5-3.5-.5-7 0-12.7 5.7-12.7 12.7s0 .8.1 1.2h-12c0-.4.1-.8.1-1.2 0-7-5.7-12.7-12.7-12.7s-2.5.2-3.7.6c0-.6-.1-1.2-.1-1.8 0-1.4.1-2.7.4-4h5.2v-2.4h-4.5c1.1-3.5 3-6.6 5.4-9.2zm-5.9 19.8c1.1-.4 2.2-.6 3.4-.6 5.7 0 10.3 4.6 10.3 10.3s0 .8-.1 1.2h-8.1c-2.9-3.1-4.7-6.9-5.5-10.9zm38.3 10.9h-7.9c0-.4-.1-.8-.1-1.2 0-5.7 4.6-10.5 10.3-10.3s3.2.5 3.2.5c-.8 4.1-2.7 7.9-5.5 11zm-16.5-26.9c2.7 0 5.3 1 7.3 2.8l1.6-1.8c-2.5-2.2-5.6-3.4-8.9-3.4-6.2 0-11.6 4.2-13 10.3l2.3.6c1.2-5 5.6-8.5 10.7-8.5zm-7.7 10 2.4.5c.6-2.9 3.2-5.1 6.2-5.1s2.4.3 3.4 1l1.3-2c-1.4-.9-3-1.3-4.6-1.3-4.3 0-7.9 2.9-8.7 6.9z" fill="#fff" />
    <path d="m695.4 266.5-17.5 10.7 3.9 4.6zm-14.4-17c-13.6 0-24.7 11.1-24.7 24.7s2.5 12.5 6.9 17.1l.4.4h34.8l.4-.4c4.5-4.6 6.9-10.7 6.9-17.1 0-13.7-11.1-24.7-24.7-24.7zm-16 9.1 2.8 2.8 1.7-1.7-2.7-2.7c2.4-2 5.2-3.4 8.3-4.3v4h2.4v-4.5c1.1-.2 2.3-.3 3.4-.3s2.3.1 3.4.3v4.5h2.4v-4c3.2.9 6.1 2.4 8.6 4.5l-2.5 2.5 1.7 1.7 2.5-2.5c2.3 2.5 4.1 5.5 5.2 8.9h-4.9v2.4h5.4c.2 1.3.4 2.6.4 4v1.7c-1.1-.3-2.3-.5-3.5-.5-7 0-12.7 5.7-12.7 12.7s0 .8 0 1.2h-12v-1.2c0-7-5.7-12.7-12.7-12.7s-2.5.2-3.7.6v-1.8c0-1.4 0-2.7.4-4h5.2v-2.4h-4.7c1.3-3.5 3.2-6.7 5.6-9.2zm-5.9 19.8c1.1-.4 2.2-.6 3.4-.6 5.7 0 10.3 4.6 10.3 10.3s0 .8 0 1.2h-8.1c-2.9-3.1-4.7-6.9-5.5-10.9zm38.3 10.8h-7.9v-1.2c0-5.7 4.6-10.3 10.3-10.3s2.1.2 3.2.5c-.8 4.2-2.7 7.9-5.5 11zm-16.5-26.8c2.7 0 5.3 1 7.3 2.8l1.6-1.8c-2.5-2.2-5.6-3.4-8.9-3.4-6.2 0-11.6 4.2-13 10.3l2.3.6c1.2-5 5.6-8.5 10.7-8.5zm-7.7 10 2.4.5c.6-2.9 3.2-5.1 6.2-5.1s2.4.3 3.4 1l1.3-2c-1.4-.9-3-1.3-4.6-1.3-4.3 0-7.9 2.9-8.7 6.9z" fill="#fff" />
    <path d="m1633.6 419.8c-14.1 0-25.5 11.4-25.5 25.5s11.4 25.5 25.5 25.5 25.5-11.4 25.5-25.5-11.5-25.5-25.5-25.5zm21.3 16.7h-7.1c-1.1-5.4-3.3-9.8-6.1-12.8 6 2.3 10.8 6.9 13.2 12.8zm-8.6 8.8c0 2.2-.2 4.3-.5 6.4h-11v-12.7h11c.3 1.9.5 4.1.5 6.3zm-35.8 0c0-2.2.3-4.3.9-6.4h7.5c-.3 2-.5 4.1-.5 6.4s.2 4.3.5 6.4h-7.5c-.6-2.1-.9-4.2-.9-6.4zm10.4 0c0-2.2.2-4.3.5-6.4h11v12.7h-11c-.3-2-.5-4.1-.5-6.3zm11.5-23v14.2h-10.5c1.7-7.7 5.7-13.4 10.5-14.2zm0 31.7v14.2c-4.8-.8-8.8-6.5-10.5-14.2zm2.4 14.2v-14.2h10.5c-1.7 7.8-5.7 13.4-10.5 14.2zm0-31.7v-14.2c4.8.8 8.8 6.5 10.5 14.2zm-9.3-12.8c-2.8 3-4.9 7.4-6.1 12.8h-7.1c2.4-5.9 7.2-10.5 13.2-12.8zm-13.2 30.3h7.1c1.1 5.4 3.3 9.8 6.1 12.8-6-2.2-10.8-6.9-13.2-12.8zm29.4 12.9c2.8-3 4.9-7.4 6.1-12.8h7.1c-2.4 5.8-7.2 10.5-13.2 12.8zm13.6-13.9v-1.4h-7.1c.3-2 .5-4.1.5-6.4s-.2-4.3-.5-6.4h7.5c.6 2 .9 4.1.9 6.4s-.4 5.4-1.3 7.8z" fill="#fff" />
    <path d="m636.9 687.6h-22.8c-4.5 0-8.2-3.7-8.2-8.2s2.3-6.7 5.6-7.8c1.1-3.3 4.2-5.7 7.7-5.7.3-5.8 5.1-10.4 11-10.4s11 4.9 11 11-.2 2.5-.6 3.7c3.3 1.5 5.4 4.7 5.4 8.4s-4 9-9.1 9zm-17.5-19.4c-2.7 0-5.1 1.9-5.7 4.6l-.2.7-.7.2c-2.6.6-4.5 2.9-4.5 5.7s2.6 5.8 5.8 5.8h22.8c3.7 0 6.8-3 6.8-6.8s-2-5.7-5-6.5l-1.4-.4.6-1.3c.6-1.2.9-2.5.9-3.8 0-4.8-3.9-8.6-8.6-8.6s-8.6 3.9-8.6 8.6v2.1l-1.4-.2h-.8z" fill="#fff" />
    <path d="m1156 831.4h57.3v51.5h-57.3z" fill="none" stroke="#0b153b" stroke-miterlimit="10" stroke-width="2.4" />
    <path d="m1156 845.2h57.3" fill="none" stroke="#0b153b" stroke-miterlimit="10" stroke-width="2.4" />
    <path d="m1196.8 866.7c-.4-.7-.6-1.5-.6-2.3s.2-1.6.6-2.2c.4-.7 1-1.2 1.7-1.6-.3-1.2-.8-2.3-1.4-3.4s-1.4-2-2.2-2.9c-.7.4-1.4.7-2.2.7s-1.6-.2-2.3-.6-1.3-1-1.6-1.7c-.4-.7-.6-1.5-.5-2.3-2.4-.6-4.8-.6-7.2 0 0 .8 0 1.6-.5 2.3s-.9 1.3-1.6 1.7-1.5.6-2.3.6-1.6-.3-2.2-.7c-1.7 1.7-2.9 3.9-3.6 6.2.7.4 1.3.9 1.7 1.6s.6 1.5.6 2.3-.2 1.6-.6 2.2c-.4.7-1 1.2-1.7 1.6.3 1.2.8 2.3 1.4 3.3s1.3 2 2.2 2.9c.7-.4 1.4-.7 2.2-.7s1.6.2 2.3.6 1.3 1 1.6 1.7c.4.7.6 1.5.5 2.3 2.4.6 4.8.6 7.2 0 0-.8 0-1.6.5-2.3s.9-1.3 1.6-1.7 1.5-.6 2.3-.6 1.6.3 2.2.7c1.7-1.7 2.9-3.9 3.6-6.2-.7-.3-1.3-.8-1.7-1.5zm-1.7 2.5c-.3.6-.7 1.3-1.1 1.9-1.7-.4-3.5 0-5.1.8-1.5.9-2.7 2.3-3.2 4h-2.2c-.6-1.7-1.7-3.1-3.2-4s-3.3-1.2-5.1-.8c-.4-.6-.8-1.2-1.1-1.9 1.2-1.3 1.8-3 1.8-4.8s-.6-3.5-1.8-4.8c.3-.6.7-1.3 1.1-1.9 1.7.4 3.5 0 5.1-.8 1.5-.9 2.7-2.3 3.2-4h2.2c.6 1.7 1.7 3.1 3.2 4s3.3 1.2 5.1.8c.4.6.8 1.2 1.1 1.9-1.2 1.3-1.8 3-1.8 4.8s.7 3.5 1.8 4.8z" fill="#0b153b" />
    <path d="m1184.7 869.7c-2.9 0-5.3-2.4-5.3-5.3s2.4-5.3 5.3-5.3 5.3 2.4 5.3 5.3-2.4 5.3-5.3 5.3zm0-8c-1.5 0-2.8 1.2-2.8 2.8s1.2 2.8 2.8 2.8 2.8-1.2 2.8-2.8-1.3-2.8-2.8-2.8z" fill="#0b153b" />
    <circle cx="1163.4" cy="838.7" fill="#0b153b" r="2.3" />
    <circle cx="1171.1" cy="838.7" fill="#0b153b" r="2.3" />
    <path d="m1286.5 831.4h57.3v51.5h-57.3z" fill="none" stroke="#0b153b" stroke-miterlimit="10" stroke-width="2.4" />
    <path d="m1286.5 845.2h57.3" fill="none" stroke="#0b153b" stroke-miterlimit="10" stroke-width="2.4" />
    <path d="m1327.3 866.7c-.4-.7-.6-1.5-.6-2.3s.2-1.6.6-2.2c.4-.7 1-1.2 1.7-1.6-.3-1.2-.8-2.3-1.4-3.4s-1.4-2-2.2-2.9c-.7.4-1.4.7-2.2.7s-1.6-.2-2.3-.6-1.3-1-1.6-1.7c-.4-.7-.6-1.5-.5-2.3-2.4-.6-4.8-.6-7.2 0 0 .8 0 1.6-.5 2.3s-.9 1.3-1.6 1.7-1.5.6-2.3.6-1.6-.3-2.2-.7c-1.7 1.7-2.9 3.9-3.6 6.2.7.4 1.3.9 1.7 1.6s.6 1.5.6 2.3-.2 1.6-.6 2.2c-.4.7-1 1.2-1.7 1.6.3 1.2.8 2.3 1.4 3.3s1.3 2 2.2 2.9c.7-.4 1.4-.7 2.2-.7s1.6.2 2.3.6 1.3 1 1.6 1.7c.4.7.6 1.5.5 2.3 2.4.6 4.8.6 7.2 0 0-.8 0-1.6.5-2.3s.9-1.3 1.6-1.7 1.5-.6 2.3-.6 1.6.3 2.2.7c1.7-1.7 2.9-3.9 3.6-6.2-.7-.3-1.3-.8-1.7-1.5zm-1.7 2.5c-.3.6-.7 1.3-1.1 1.9-1.7-.4-3.5 0-5.1.8-1.5.9-2.7 2.3-3.2 4h-2.2c-.6-1.7-1.7-3.1-3.2-4s-3.3-1.2-5.1-.8c-.4-.6-.8-1.2-1.1-1.9 1.2-1.3 1.8-3 1.8-4.8s-.6-3.5-1.8-4.8c.3-.6.7-1.3 1.1-1.9 1.7.4 3.5 0 5.1-.8 1.5-.9 2.7-2.3 3.2-4h2.2c.6 1.7 1.7 3.1 3.2 4s3.3 1.2 5.1.8c.4.6.8 1.2 1.1 1.9-1.2 1.3-1.8 3-1.8 4.8s.6 3.5 1.8 4.8z" fill="#0b153b" />
    <path d="m1315.2 869.7c-2.9 0-5.3-2.4-5.3-5.3s2.4-5.3 5.3-5.3 5.3 2.4 5.3 5.3-2.4 5.3-5.3 5.3zm0-8c-1.5 0-2.8 1.2-2.8 2.8s1.2 2.8 2.8 2.8 2.8-1.2 2.8-2.8-1.3-2.8-2.8-2.8z" fill="#0b153b" />
    <circle cx="1293.9" cy="838.7" fill="#0b153b" r="2.3" />
    <circle cx="1301.6" cy="838.7" fill="#0b153b" r="2.3" />
    <path d="m1090.6 750.4h57.3v51.5h-57.3z" fill="none" stroke="#0b153b" stroke-miterlimit="10" stroke-width="2.4" />
    <path d="m1090.6 764.3h57.2" fill="none" stroke="#0b153b" stroke-miterlimit="10" stroke-width="2.4" />
    <path d="m1131.3 785.7c-.4-.7-.6-1.5-.6-2.3s.2-1.6.6-2.2c.4-.7 1-1.2 1.7-1.6-.3-1.2-.8-2.3-1.4-3.4s-1.4-2-2.2-2.9c-.7.4-1.4.7-2.2.7s-1.6-.2-2.3-.6-1.3-1-1.6-1.7c-.4-.7-.6-1.5-.5-2.3-2.4-.6-4.8-.6-7.2 0 0 .8 0 1.6-.5 2.3s-.9 1.3-1.6 1.7-1.5.6-2.3.6-1.6-.3-2.2-.7c-1.7 1.7-2.9 3.9-3.6 6.2.7.4 1.3.9 1.7 1.6s.6 1.5.6 2.3-.2 1.6-.6 2.2c-.4.7-1 1.2-1.7 1.6.3 1.2.8 2.3 1.4 3.3s1.3 2 2.2 2.9c.7-.4 1.4-.7 2.2-.7s1.6.2 2.3.6 1.3 1 1.6 1.7c.4.7.6 1.5.5 2.3 2.4.6 4.8.6 7.2 0 0-.8 0-1.6.5-2.3s.9-1.3 1.6-1.7 1.5-.6 2.3-.6 1.6.3 2.2.7c1.7-1.7 2.9-3.9 3.6-6.2-.7-.3-1.2-.8-1.7-1.5zm-1.6 2.6c-.3.6-.7 1.3-1.1 1.9-1.7-.4-3.5 0-5.1.8-1.5.9-2.7 2.3-3.2 4h-2.2c-.6-1.7-1.7-3.1-3.2-4s-3.3-1.2-5.1-.8c-.4-.6-.8-1.2-1.1-1.9 1.2-1.3 1.8-3 1.8-4.8s-.6-3.5-1.8-4.8c.3-.6.7-1.3 1.1-1.9 1.7.4 3.5 0 5.1-.8 1.5-.9 2.7-2.3 3.2-4h2.2c.6 1.7 1.7 3.1 3.2 4s3.3 1.2 5.1.8c.4.6.8 1.2 1.1 1.9-1.2 1.3-1.8 3-1.8 4.8s.6 3.4 1.8 4.8z" fill="#0b153b" />
    <path d="m1119.2 788.7c-2.9 0-5.2-2.4-5.2-5.2s2.3-5.2 5.2-5.2 5.2 2.3 5.2 5.2-2.3 5.2-5.2 5.2zm0-8.1c-1.6 0-2.8 1.3-2.8 2.8s1.3 2.8 2.8 2.8 2.8-1.3 2.8-2.8-1.2-2.8-2.8-2.8z" fill="#0b153b" />
    <circle cx="1098" cy="757.7" fill="#0b153b" r="2.3" />
    <circle cx="1105.6" cy="757.7" fill="#0b153b" r="2.3" />
    <path d="m1222.1 750.4h57.3v51.5h-57.3z" fill="none" stroke="#0b153b" stroke-miterlimit="10" stroke-width="2.4" />
    <path d="m1222.1 764.3h57.3" fill="none" stroke="#0b153b" stroke-miterlimit="10" stroke-width="2.4" />
    <path d="m1262.9 785.7c-.4-.7-.6-1.5-.6-2.3s.2-1.6.6-2.2c.4-.7 1-1.2 1.7-1.6-.3-1.2-.8-2.3-1.4-3.4s-1.4-2-2.2-2.9c-.7.4-1.4.7-2.2.7s-1.6-.2-2.3-.6-1.3-1-1.6-1.7c-.4-.7-.6-1.5-.5-2.3-2.4-.6-4.8-.6-7.2 0 0 .8 0 1.6-.5 2.3s-.9 1.3-1.6 1.7-1.5.6-2.3.6-1.6-.3-2.2-.7c-1.7 1.7-2.9 3.9-3.6 6.2.7.4 1.3.9 1.7 1.6s.6 1.5.6 2.3-.2 1.6-.6 2.2c-.4.7-1 1.2-1.7 1.6.3 1.2.8 2.3 1.4 3.3s1.3 2 2.2 2.9c.7-.4 1.4-.7 2.2-.7s1.6.2 2.3.6 1.3 1 1.6 1.7c.4.7.6 1.5.5 2.3 2.4.6 4.8.6 7.2 0 0-.8 0-1.6.5-2.3s.9-1.3 1.6-1.7 1.5-.6 2.3-.6 1.6.3 2.2.7c1.7-1.7 2.9-3.9 3.6-6.2-.7-.3-1.3-.8-1.7-1.5zm-1.7 2.6c-.3.6-.7 1.3-1.1 1.9-1.7-.4-3.5 0-5.1.8-1.5.9-2.7 2.3-3.2 4h-2.2c-.6-1.7-1.7-3.1-3.2-4s-3.3-1.2-5.1-.8c-.4-.6-.8-1.2-1.1-1.9 1.2-1.3 1.8-3 1.8-4.8s-.6-3.5-1.8-4.8c.3-.6.7-1.3 1.1-1.9 1.7.4 3.5 0 5.1-.8 1.5-.9 2.7-2.3 3.2-4h2.2c.6 1.7 1.7 3.1 3.2 4s3.3 1.2 5.1.8c.4.6.8 1.2 1.1 1.9-1.2 1.3-1.8 3-1.8 4.8s.6 3.4 1.8 4.8z" fill="#0b153b" />
    <path d="m1250.7 788.7c-2.9 0-5.2-2.4-5.2-5.2s2.4-5.2 5.2-5.2 5.1 2.3 5.2 5.2-2.3 5.2-5.2 5.2zm0-8.1c-1.6 0-2.8 1.3-2.8 2.8s1.3 2.8 2.8 2.8 2.8-1.3 2.8-2.8-1.2-2.8-2.8-2.8z" fill="#0b153b" />
    <circle cx="1229.5" cy="757.7" fill="#0b153b" r="2.3" />
    <circle cx="1237.2" cy="757.7" fill="#0b153b" r="2.3" />
    <path d="m1352 750.4h57.3v51.5h-57.3z" fill="none" stroke="#0b153b" stroke-miterlimit="10" stroke-width="2.4" />
    <path d="m1352 764.3h57.3" fill="none" stroke="#0b153b" stroke-miterlimit="10" stroke-width="2.4" />
    <path d="m1392.8 785.7c-.4-.7-.6-1.5-.6-2.3s.2-1.6.6-2.2c.4-.7 1-1.2 1.7-1.6-.3-1.2-.8-2.3-1.4-3.4s-1.4-2-2.2-2.9c-.7.4-1.4.7-2.2.7s-1.6-.2-2.3-.6-1.3-1-1.6-1.7c-.4-.7-.6-1.5-.5-2.3-2.4-.6-4.8-.6-7.2 0 0 .8 0 1.6-.5 2.3s-.9 1.3-1.6 1.7-1.5.6-2.3.6-1.6-.3-2.2-.7c-1.7 1.7-2.9 3.9-3.6 6.2.7.4 1.3.9 1.7 1.6s.6 1.5.6 2.3-.2 1.6-.6 2.2c-.4.7-1 1.2-1.7 1.6.3 1.2.8 2.3 1.4 3.3s1.3 2 2.2 2.9c.7-.4 1.4-.7 2.2-.7s1.6.2 2.3.6 1.3 1 1.6 1.7c.4.7.6 1.5.5 2.3 2.4.6 4.8.6 7.2 0 0-.8 0-1.6.5-2.3s.9-1.3 1.6-1.7 1.5-.6 2.3-.6 1.6.3 2.2.7c1.7-1.7 2.9-3.9 3.6-6.2-.7-.3-1.3-.8-1.7-1.5zm-1.7 2.6c-.3.6-.7 1.3-1.1 1.9-1.7-.4-3.5 0-5.1.8-1.5.9-2.7 2.3-3.2 4h-2.2c-.6-1.7-1.7-3.1-3.2-4s-3.3-1.2-5.1-.8c-.4-.6-.8-1.2-1.1-1.9 1.2-1.3 1.8-3 1.8-4.8s-.6-3.5-1.8-4.8c.3-.6.7-1.3 1.1-1.9 1.7.4 3.5 0 5.1-.8 1.5-.9 2.7-2.3 3.2-4h2.2c.6 1.7 1.7 3.1 3.2 4s3.3 1.2 5.1.8c.4.6.8 1.2 1.1 1.9-1.2 1.3-1.8 3-1.8 4.8s.6 3.4 1.8 4.8z" fill="#0b153b" />
    <path d="m1380.7 788.7c-2.9 0-5.2-2.4-5.2-5.2s2.4-5.2 5.2-5.2 5.2 2.3 5.2 5.2-2.4 5.2-5.2 5.2zm0-8.1c-1.6 0-2.8 1.3-2.8 2.8s1.3 2.8 2.8 2.8 2.8-1.3 2.8-2.8-1.3-2.8-2.8-2.8z" fill="#0b153b" />
    <circle cx="1359.4" cy="757.7" fill="#0b153b" r="2.3" />
    <circle cx="1367.1" cy="757.7" fill="#0b153b" r="2.3" />
    <path d="m1445.6 266.9c-1.9 0-3.4-1.5-3.4-3.4s1.5-3.4 3.4-3.4 3.4 1.5 3.4 3.4-1.6 3.4-3.4 3.4zm0-4.4c-.5 0-1 .4-1 1s.4 1 1 1 1-.4 1-1-.5-1-1-1zm-6.5 21.5c-.2 0-.4-.1-.6-.2-.4-.2-.6-.6-.6-1v-5.8l-5.8-5.8h-5.8c-.4 0-.8-.2-1-.6s-.2-.8 0-1.2l1.3-2.6c.6-1.1 2.3-4.5 6-4.5h2.9c4.2-5.2 10.4-8.7 15.6-8.7h3.1c.7 0 1.2.5 1.2 1.2v3.1c0 5.2-3.5 11.5-8.7 15.6v2.9c0 3.8-3.4 5.5-4.5 6l-2.6 1.3c0 .2-.3.3-.4.3zm-10.9-15.2h4.3c.3 0 .6.1.9.4l6.5 6.5c.2.2.4.5.4.9v4.3l.9-.5c2.2-1.1 3.2-2.3 3.2-3.9v-3.5c0-.4.2-.7.5-1 4.8-3.7 8.2-9.5 8.2-14.1v-1.9h-1.9c-4.6 0-10.4 3.4-14.1 8.2-.2.3-.6.5-1 .5h-3.5c-1.6 0-2.8 1-3.9 3.2zm4 4.2-1.4 1.4c-1.6 1.6-2.3 5.5-2.3 5.6v.5h.4c.2-.1 3.8-.6 5.7-2.4l1.4-1.4z" fill="#fff" />
    <path d="m1440.9 297.1-23.4-16.2v-32.5l.7-.3c.3-.2 8.2-3.7 22.7-3.7s22.4 3.6 22.7 3.7l.7.3v32.5zm-21-17.5 21 14.6 21-14.6v-29.7c-2.2-.8-9.5-3.2-21-3.2s-18.8 2.4-21 3.2z" fill="#fff" />
    <circle cx="497.8" cy="710.6" fill="#fff" r="24.5" />
    <path d="m497.8 737.6c-14.9 0-26.9-12.1-26.9-26.9s12.1-26.9 26.9-26.9 26.9 12.1 26.9 26.9-12 26.9-26.9 26.9zm0-49.1c-12.2 0-22.1 9.9-22.1 22.1s9.9 22.1 22.1 22.1 22.1-9.9 22.1-22.1-9.9-22.1-22.1-22.1z" fill="#743db9" />
    <path d="m783 279.6h-11.2v-1.6l5.9-6.6c.9-1 1.5-1.8 1.8-2.4s.5-1.3.5-1.9-.3-1.6-.8-2.2-1.3-.9-2.2-.9-1.9.3-2.5.9-.9 1.5-.9 2.6h-2.2c0-1.6.5-2.8 1.5-3.8s2.4-1.5 4.1-1.5 2.8.4 3.8 1.3 1.4 1.9 1.4 3.3-1.1 3.7-3.2 6l-4.6 5h8.6z" fill="#743db9" />
    <path d="m961.7 270h1.6c1 0 1.8-.3 2.4-.8s.9-1.2.9-2.1c0-2-1-3-3-3s-1.7.3-2.2.8c-.6.5-.8 1.2-.8 2.1h-2.2c0-1.4.5-2.5 1.5-3.4s2.2-1.3 3.8-1.3 2.9.4 3.8 1.3 1.4 2 1.4 3.6-.2 1.5-.7 2.2-1.1 1.2-2 1.6c.9.3 1.7.8 2.2 1.5s.8 1.5.8 2.5c0 1.5-.5 2.8-1.5 3.7s-2.3 1.4-3.9 1.4-2.9-.4-3.9-1.3-1.5-2-1.5-3.4h2.2c0 .9.3 1.6.9 2.2.6.5 1.4.8 2.4.8s1.9-.3 2.4-.8c.6-.5.8-1.3.8-2.4s-.3-1.8-.9-2.3-1.5-.8-2.6-.8h-1.6v-1.8z" fill="#743db9" />
    <path d="m1029.3 491h2.4v1.8h-2.4v4h-2.2v-4h-7.8v-1.3l7.7-11.9h2.3zm-7.5 0h5.3v-8.4l-5.4 8.4z" fill="#743db9" />
    <path d="m1246.1 682.7.9-8.5h8.8v2h-6.9l-.5 4.7c.8-.5 1.8-.7 2.9-.7 1.6 0 2.8.5 3.7 1.5s1.4 2.4 1.4 4.2-.5 3.2-1.4 4.2c-1 1-2.3 1.5-4 1.5s-2.7-.4-3.7-1.3c-1-.8-1.5-2-1.6-3.5h2.1c0 1 .5 1.7 1 2.2.6.5 1.3.7 2.2.7s1.8-.3 2.4-1 .9-1.6.9-2.9-.3-2.1-.9-2.8-1.5-1-2.5-1-1.7.2-2.2.6l-.6.5-1.7-.4z" fill="#4a9fcf" />
    <path d="m1683 486.4-7.1 15.9h-2.3l7.1-15.3h-9.3v-1.8h11.6z" fill="#4a9fcf" />
    <path d="m501 702.6v1.8h-.4c-1.7 0-3 .5-4 1.5s-1.6 2.3-1.7 4.1c.9-1 2.1-1.6 3.7-1.6s2.7.5 3.6 1.6 1.3 2.4 1.3 4.1-.5 3.2-1.4 4.2-2.2 1.6-3.9 1.6-3-.6-4-1.9-1.5-2.9-1.5-4.9v-.8c0-3.1.7-5.6 2-7.2s3.3-2.5 6-2.6h.4-.1zm-2.8 7.7c-.7 0-1.4.2-2.1.7s-1.1 1-1.3 1.7v.8c0 1.4.3 2.5 1 3.4s1.4 1.3 2.4 1.3 1.7-.4 2.3-1.1.8-1.7.8-2.8-.3-2.1-.9-2.8-1.3-1.1-2.3-1.1h.1z" fill="#743db9" />
    <g class="bullet bullet-1">
        <circle cx="561.4" cy="270.6" fill="#fff" r="24.5" />
    </g>
    <path d="m561.4 297.5c-14.9 0-26.9-12.1-26.9-26.9s12.1-26.9 26.9-26.9 26.9 12.1 26.9 26.9-12.1 26.9-26.9 26.9zm0-49.1c-12.2 0-22.1 9.9-22.1 22.1s9.9 22.1 22.1 22.1 22.1-9.9 22.1-22.1-9.9-22.1-22.1-22.1z" fill="#4a9fcf" />
    <g class="bullet bullet-1">
        <circle cx="559.6" cy="444.1" fill="#fff" r="24.5" />
    </g>
    <path d="m559.6 471.1c-14.9 0-26.9-12.1-26.9-26.9s12.1-26.9 26.9-26.9 26.9 12.1 26.9 26.9-12 26.9-26.9 26.9zm0-49.1c-12.2 0-22.1 9.9-22.1 22.1s9.9 22.1 22.1 22.1 22-9.9 22.1-22.1-9.9-22.1-22.1-22.1z" fill="#4a9fcf" />
    <path d="m563.4 279.6h-2.2v-14.5l-4.4 1.6v-2l6.2-2.3h.3v17.2z" fill="#4a9fcf" />
    <path d="m561.4 454.4h-2.2v-14.5l-4.4 1.6v-2l6.2-2.3h.3v17.2z" fill="#4a9fcf" />
    <path d="m399.1 834c4.1 0 7.4 3.3 7.4 7.4s-3.3 7.4-7.4 7.4-7.4-3.3-7.4-7.4 3.3-7.4 7.4-7.4zm-11.2 7.5c0 6.2 5 11.2 11.2 11.2s11.2-5 11.2-11.2-5-11.2-11.2-11.2-11.2 5-11.2 11.2zm-3.7 27.9h3.7c0-1.8.4-3.5 1.2-5.1s2-3 3.5-4 3.1-1.7 4.9-1.9 3.6 0 5.2.5v-3.9c-2.2-.6-4.5-.6-6.7-.2s-4.3 1.4-6.1 2.8-3.3 3.2-4.2 5.2-1.5 4.3-1.5 6.5zm34.9-7.3v-6.8c0-.2 0-.4-.2-.5-.1-.1-.3-.2-.5-.2h-10.6c-.2 0-.4 0-.5.2-.1.1-.2.3-.2.5v6.8h-2.3l7.8 7.1c.1.1.3.2.5.2s.4 0 .5-.2l7.8-7.1z" fill="#fff" />
    <path d="m534.2 840.9c0-6.1-5-11.1-11.1-11.1s-11.1 5-11.1 11.1 5 11.1 11.1 11.1 11.1-5 11.1-11.1zm-11.1 7.3c-4.1 0-7.4-3.3-7.4-7.4s3.3-7.4 7.4-7.4 7.4 3.3 7.4 7.4-3.3 7.4-7.4 7.4zm-14.8 20.4h3.7c0-1.8.4-3.5 1.2-5.1s2-2.9 3.5-4 3.1-1.7 4.9-1.9 3.5 0 5.2.5v-3.9c-2.2-.6-4.5-.6-6.7-.2s-4.3 1.4-6.1 2.8-3.2 3.2-4.2 5.2-1.5 4.3-1.5 6.5zm21.6-7.8-2.6 2.6 6.5 6.5 9.1-9.1-2.6-2.6-6.5 6.5z" fill="#fff" />
</svg>