<svg xmlns="http://www.w3.org/2000/svg" id="Layer_1" x="0" y="0" version="1.1" viewBox="0 0 120 100" xml:space="preserve">
  <title>Backups</title>
  <g>
    <path d="M101.5 90H23.3C11.2 89.3 2 79 2.6 66.9c.1-2.7.8-5.3 1.9-7.8 8.7 20.1 32 29.4 52.1 20.7 12.6-5.4 21.5-17 23.5-30.6h.3c6.3 0 11.4-5.1 11.4-11.4 0-3-1.2-5.9-3.3-8.1l-10.1-10c.6.1 1.3.2 1.9.4 15.4 3.8 24.8 19.3 21 34.7 9.7.9 16.9 9.4 16 19.2-.7 8.4-7.3 15.1-15.8 16z" fill="#010101"/>
    <path d="M40.9 60.3c7.1 0 13.4-4.4 15.8-11.1-2.6-.3-5.1-1.4-6.9-3.3-2.8-2.8-4-6.9-3-10.8-6-4.8-14.7-3.8-19.5 2.2-1.8 2.3-2.9 5.1-3 8 .8 8.5 8 15 16.6 15z" fill="#010101"/>
    <path fill="currentColor" d="M84.1 34.1L72.9 22.8c-2.1-2.1-5.4-2.1-7.5 0L54.1 34.1c-2.1 2.1-2.1 5.4 0 7.5 2.1 2.1 5.4 2.1 7.5 0l2.3-2.3v4.2c0 12.7-10.2 23-22.9 23-11.3 0-20.9-8.2-22.7-19.3-.2-1.2-.3-2.5-.3-3.7 0-12.7 10.3-23 22.9-23 2.9 0 5.3-2.4 5.3-5.3s-2.4-5.3-5.3-5.3C22.4 10 7.4 25 7.4 43.5S22.4 77 40.9 77s33.5-15 33.5-33.5v-4.2l2.3 2.3c2.1 2.1 5.4 2.1 7.5 0 2-2.1 2-5.5-.1-7.5z"/>
  </g>
</svg>