<svg viewBox="0 0 200 200" xmlns="http://www.w3.org/2000/svg"><path d="m99.76 172.71c39.72 0 71.91-33 71.91-73.8s-32.19-73.8-71.91-73.8-71.92 33.05-71.92 73.8 32.16 73.8 71.92 73.8z" fill="currentColor"/><g fill="#32363b"><path d="m154.27 142.66c4.13-8 9.73-12.64 12.77-18.16 4-7.33 11.63-27.95 5.89-44.58 2.63 10.41 1.81 21-6.57 26.3 2.71-7.33 4.41-23.43 1.61-37.93-1.82-9.42-7.57-17.87-11.31-20.5 3.45 2.66 6.22 12.16 6.15 16.52-7.22-12.47-19-24.39-36.82-29.43 13.84 9.36 19 17.31 22.28 24.38-3.7-3.88-10-7.93-14.31-8.27 6.41 4.89 17.14 19.4 16 41.38-1.64-3.54-4.66-9.08-6.79-11 2.3 21.59.28 26.22-1.11 32a19.21 19.21 0 0 0 -1.77-5.82s-.25 6.75-4.52 16.36c-3.24 7.28-6.58 9.53-8.06 9.27a.85.85 0 0 1 -.61-.22 6.16 6.16 0 0 0 0-2.56 5.16 5.16 0 0 0 -2.24 1.76 7 7 0 0 1 -1.42 1.48c-.11.08 1-1.42.89-1.35a19.61 19.61 0 0 0 -1.67 1.57c-2.1 2.23-4 4.71-5 4a3.34 3.34 0 0 0 1.84-2.66 15.69 15.69 0 0 1 -7.6 2.91c-1.92.29-10.08 1.81-20.93-3.75 1.58-.19 4-.76 5.76.33-1.81-2-6.17-1.6-9.29-2.61-2.73-.88-6.28-4.8-8.33-6.78 8.36 2.1 17.22.58 22.35-3s8.25-6.29 11-5.66 4.58-2.2 2.44-4.72a14.18 14.18 0 0 0 -14.36-4.09c-5.39 1.39-10 5.83-17.57 2.74-.46-.18-.93-.4-1.41-.64s1.58.29 1.07 0a33.83 33.83 0 0 1 -4.76-2.26c-.11-.09 1.1.22 1 .14-7.19-4.36-6.72-7.85-6.72-10a6.32 6.32 0 0 1 3-5.17 14.43 14.43 0 0 1 1.68.73s-.48-.75-.79-1.12l.22-.07a22.67 22.67 0 0 1 5.37 2.82c1.91-3.66.49-9.73.29-10.1.4-1.86 11.21-7.67 12-8.28a10.46 10.46 0 0 0 3-3.67 8.09 8.09 0 0 0 .79-4.32c-.08-1.42-.9-2.3-12.43-2.2a7.65 7.65 0 0 1 -6.45-3.65c-.25-.39-.47-.76-.67-1.09a11.42 11.42 0 0 1 -.6-1.3c1.38-5.13 6-12.42 10.12-14.64-7.68-2.52-17.03 4.52-19.68 8.25a.08.08 0 0 0 0 0 30.22 30.22 0 0 0 -17.25.27c-5.86-2.91-8.2-11.12-8.42-14.63-3.33 2.42-6.33 11.85-6.78 13.74a44.82 44.82 0 0 0 -.83 12.19c0 .42.06.82.05 1.2a34.85 34.85 0 0 0 -3.46 5.85c-2.21 4.43-4.48 11.23-6.31 21.8a52 52 0 0 1 3.69-8.5c-1.82 5.69-3.23 14.52-2.4 27.78a78.37 78.37 0 0 1 1.38-8.3 69.55 69.55 0 0 0 9.2 31.39c5.1 9 18.54 29.78 52.27 37.57a16.1 16.1 0 0 1 -6-3.29s12.6 4.15 21.79 3.8c-2.88-.51-3.45-1.94-3.45-1.94s32.69 1.89 44-13.92c-3.86 4.64-13.65 6-17.35 6 5.63-5.31 18.09-5.19 31.58-18.8 7.4-7.48 8.2-13.16 9-18.47-1.24 6.95-7.71 11.12-14.44 14.92z"/><path d="m98 72.09c.52-1.31 1.12-4.39-.59-5a16.58 16.58 0 0 0 -5-.55c.76.19 3 .64 3.53 1.69 1.09 2-1.48 6.83-1.85 7.86 1.18-.03 3.37-2.72 3.91-4z"/></g></svg>