<svg viewBox="0 0 200 200" xmlns="http://www.w3.org/2000/svg"><path d="m168.75 65.6a9.37 9.37 0 0 1 -9.36 9.4h-40.6c-1.91 0-1.31 0-15.62 16.55v-13.46a3.12 3.12 0 0 0 -3.12-3.09h-6.25a9.38 9.38 0 0 1 -9.37-9.37v-25a9.37 9.37 0 0 1 9.37-9.36h65.59a9.36 9.36 0 0 1 9.36 9.36z" fill="currentColor"/><path d="m136.84 129.4a9.38 9.38 0 0 0 -13.25 0c-11.31 11.31-11.37 12.12-13.71 11.49-27.52-7.52-44-25.92-50-48.06-.72-2.72-1.47-4.22 0-5.75 10.6-10.58 13.44-12.14 13.44-17.33s-2.75-6.62-20.4-24.26a9.37 9.37 0 0 0 -13.25 0c-7.68 7.62-14 12.3-14.55 22.45a102.59 102.59 0 0 0 98 107q4.47.19 8.94 0c10.12-.43 14.65-6.68 22.42-14.46a9.37 9.37 0 0 0 0-13.25z" fill="#32363b"/><g fill="#fff"><path d="m103.33 42.74-3.28 9.87-3.12-9.87a3.13 3.13 0 0 0 -5.94 2l6.25 18.73a3.12 3.12 0 0 0 5.93 0l6.25-18.73a3.21 3.21 0 1 0 -6.09-2z"/><path d="m125 40.61h-6.24a6.25 6.25 0 0 0 -6.25 6.25v12.49a6.25 6.25 0 0 0 6.25 6.25h6.24a6.25 6.25 0 0 0 6.25-6.25v-12.49a6.25 6.25 0 0 0 -6.25-6.25zm-6.24 18.74v-12.49h6.24v12.49z"/><path d="m134.4 43.74v18.74a3.13 3.13 0 0 0 6.25 0v-18.74a3.13 3.13 0 1 0 -6.25 0z"/><path d="m153.14 40.61h-6.25a3.13 3.13 0 0 0 -3.12 3.13v18.74a3.13 3.13 0 0 0 6.25 0v-3.13h3.12a9.37 9.37 0 1 0 0-18.74zm0 12.5h-3.14v-6.25h3.12a3.13 3.13 0 0 1 0 6.25z"/></g><path d="m159.39 25h-65.59a15.61 15.61 0 0 0 -15.61 15.61v25a15.61 15.61 0 0 0 15.61 15.6h3.13v18.79a3.11 3.11 0 0 0 3.12 3.12c2 0 1.09.41 20.17-21.86h39.17a15.61 15.61 0 0 0 15.61-15.66v-25a15.61 15.61 0 0 0 -15.61-15.6zm9.36 40.6a9.37 9.37 0 0 1 -9.36 9.4h-40.6c-1.91 0-1.31 0-15.62 16.55v-13.46a3.12 3.12 0 0 0 -3.12-3.09h-6.25a9.38 9.38 0 0 1 -9.37-9.37v-25a9.37 9.37 0 0 1 9.37-9.36h65.59a9.36 9.36 0 0 1 9.36 9.36z" fill="#32363b"/><path d="m150 155.91c-7.75 7.75-10.9 12.34-18.3 12.5a96.32 96.32 0 0 1 -100.35-92.08c-.12-2.71-.12-5.43 0-8.14.31-7.56 5.15-10.77 12.65-18.27a3.14 3.14 0 0 1 4.42 0 .6.6 0 0 0 .08.08l17.67 17.66a3.12 3.12 0 0 1 0 4.4l-10.69 10.62a9.39 9.39 0 0 0 -2.27 9.09c7.77 29 26 47.25 55 55a9.4 9.4 0 0 0 9.09-2.41l10.84-10.55a3.1 3.1 0 0 1 4.4 0l17.46 17.7a3.12 3.12 0 0 1 0 4.4z" fill="#fff"/></svg>