<svg xmlns="http://www.w3.org/2000/svg" viewBox="0 0 100 100">
  <title>DNS Manager</title>
  <path fill="#010101" d="M50 90c-22.1 0-40-17.9-40-40s17.9-40 40-40 40 17.9 40 40-17.9 40-40 40zm0-76.7c-20.3 0-36.7 16.4-36.7 36.7S29.7 86.7 50 86.7 86.7 70.3 86.7 50c0-20.3-16.4-36.7-36.7-36.7z"/>
  <path fill="currentColor" d="M80.8 47.9c-1-15.4-13.3-27.7-28.8-28.8V19h-4.1v.1c-15.4 1-27.7 13.3-28.8 28.8H19V52h.1c1 15.4 13.3 27.7 28.8 28.8v.1H52v-.1c15.4-1 27.7-13.3 28.8-28.8h.1l-.1-4.1zM36.7 28.4c-1.2 2.1-2.2 4.3-3 6.6-.1.3-.4.5-.7.5h-4.1c-.4 0-.8-.4-.8-.8 0-.2.1-.3.1-.4 2-2.8 4.5-5.1 7.4-7 .4-.2.8 0 1 .3.3.3.3.6.1.8zM25.8 39.7h5.8c.4 0 .8.3.8.8v.1c-.4 2.2-.7 4.4-.8 6.6 0 .4-.4.7-.8.7h-6.6c-.4 0-.8-.4-.8-.8.3-2.4.8-4.7 1.7-6.9.1-.3.4-.5.7-.5zm-1.7 12.4h6.6c.4 0 .7.3.8.7.1 2.2.4 4.4.8 6.6.1.4-.2.8-.6.9H25.8c-.3 0-.6-.2-.7-.5-.9-2.2-1.5-4.6-1.7-6.9-.1-.4.2-.8.7-.9v.1zm4.8 12.4H33c.3 0 .6.2.7.5.8 2.3 1.7 4.5 3 6.6.2.4.1.8-.3 1.1-.2.1-.6.1-.8 0-2.9-1.8-5.4-4.2-7.4-7-.3-.3-.3-.8 0-1.1.2-.1.4-.2.7-.1zm18 11.7c-3.6-1.5-6.6-5.4-8.6-10.7-.2-.4 0-.8.4-1 .1 0 .2-.1.3-.1h8.3c.4 0 .8.3.8.8v10.2c0 .4-.3.8-.8.8h-.4zm.3-15.9h-9.9c-.4 0-.7-.3-.8-.6-.5-2.2-.8-4.5-.9-6.8 0-.4.3-.8.7-.8H47.1c.4 0 .8.3.8.8v6.7c0 .4-.3.7-.7.7zm0-12.4H36.4c-.4 0-.8-.3-.8-.8V47c.1-2.3.4-4.6.9-6.8.1-.4.4-.6.8-.6h9.9c.4 0 .8.3.8.8v6.7c-.1.5-.4.8-.8.8zm0-12.4h-8.3c-.4 0-.8-.3-.8-.8v-.3c2-5.3 5.1-9.2 8.6-10.7.4-.2.8 0 1 .4 0 .1.1.2.1.3v10.3c.1.5-.2.9-.6.8 0 .1 0 .1 0 0zm23.9 0H67c-.3 0-.6-.2-.7-.5-.8-2.3-1.8-4.5-3-6.6-.2-.4-.1-.8.3-1.1.2-.1.6-.1.8 0 2.9 1.8 5.4 4.2 7.4 7 .3.3.3.8 0 1.1-.2.2-.4.2-.7.1zm-18-11.7c3.6 1.5 6.6 5.4 8.7 10.7.1.4-.1.8-.5 1h-8.5c-.4 0-.8-.3-.8-.8V24.6c0-.4.3-.8.8-.8h.3zm-.3 15.9h9.9c.4 0 .7.2.8.6.5 2.2.8 4.5.9 6.8 0 .4-.3.8-.7.8H52.8c-.4 0-.8-.3-.8-.8v-6.7c.1-.3.4-.7.8-.7zm0 12.4h10.7c.4 0 .8.4.8.8-.1 2.3-.4 4.6-.9 6.8-.1.4-.4.6-.8.6h-9.9c-.4 0-.8-.3-.8-.8v-6.8c.2-.3.5-.6.9-.6zm-.7 23.4V65.2c0-.4.3-.8.8-.8h8.3c.4 0 .8.3.8.8v.3c-2 5.3-5.1 9.2-8.7 10.7-.4.2-.8 0-1-.4-.2-.1-.3-.2-.2-.3zm11.2-3.9c1.2-2.1 2.2-4.3 3-6.6.1-.3.4-.5.7-.5h4.1c.4 0 .8.3.8.8 0 .2 0 .3-.1.4-2 2.8-4.5 5.1-7.4 7-.4.2-.8.1-1.1-.2-.3-.3-.2-.7 0-.9zm10.9-11.3h-5.8c-.4 0-.8-.3-.8-.8v-.1c.4-2.2.7-4.4.8-6.6 0-.4.4-.7.8-.7h6.6c.4 0 .8.4.8.8-.3 2.4-.8 4.7-1.7 6.9-.1.3-.4.5-.7.5zm-5.8-13.1c-.1-2.2-.4-4.4-.8-6.6-.1-.4.2-.8.6-.9H74.1c.3 0 .6.2.7.5.9 2.2 1.4 4.5 1.7 6.9 0 .4-.3.8-.7.8H69.1c-.3 0-.6-.3-.7-.7z"/>
</svg>