<svg viewBox="0 0 200 200" xmlns="http://www.w3.org/2000/svg"><g fill="currentColor" stroke="#32363b" stroke-linecap="round" stroke-linejoin="round" stroke-width="4.37"><path d="m166.63 48.59v13.41c0 11.8-29.4 21.43-65.63 21.43s-65.62-9.65-65.62-21.43v-13.41c0-11.8 29.39-21.43 65.62-21.43s65.63 9.63 65.63 21.43z"/><path d="m35.38 125.6v30.13c0 11.8 29.39 21.43 65.62 21.43s65.63-9.63 65.63-21.43v-30.13c-14.1 9.71-39.91 14.23-65.63 14.23s-51.53-4.52-65.62-14.23zm65.62-32.6c-25.72 0-51.53-4.52-65.62-14.23v30.14c0 11.8 29.39 21.43 65.62 21.43s65.63-9.63 65.63-21.43v-30.19c-14.1 9.71-39.91 14.28-65.63 14.28z"/></g></svg>