<svg viewBox="0 0 200 200" xmlns="http://www.w3.org/2000/svg"><path d="m137.05 71.42a9.17 9.17 0 0 1 -9.18 9.18h-55.34a9.18 9.18 0 0 1 -9.18-9.18v-29.27a9.18 9.18 0 0 1 9.18-9.15h55.34a9.17 9.17 0 0 1 9.18 9.18z" fill="#fff"/><path d="m124.27 142.68h8.68l-.16 18.85-8.52 4.5h-48.54v-2.55l-8.09-1 .16-19.77 7.93-2.38v-57.93h48.54z" fill="#fff"/><path d="m124.78 161.33h-9.13-39.65v-18.33l8.63-.14-.08-51.2h31.06l.19 51.34h9v18.37zm-56-117.33h62.45v22.64a10.56 10.56 0 0 1 -1.91 6h-58.64a10.63 10.63 0 0 1 -1.9-6zm73.48-13.57h-84.52a2.73 2.73 0 0 0 -2.54 2.57v32.92a25.82 25.82 0 0 0 15.8 23.69v42.77h-6.68l-.06 40.06a2.72 2.72 0 0 0 2.53 2.56h48.86 3.12a1.16 1.16 0 0 0 .18 0h15.42a2.59 2.59 0 0 0 2.54-2.53l-.31-40h-7.6v-42.86a25.82 25.82 0 0 0 15.8-23.69v-32.92a2.73 2.73 0 0 0 -2.54-2.54" fill="#32363b"/><path d="m71 93.43v-4.76a2.59 2.59 0 0 0 -2.54-2.53h-.79a2.64 2.64 0 0 1 -2.54-2.72v-8.32a2.59 2.59 0 0 1 2.54-2.53h25.33" fill="#32363b"/><path d="m84.93 55.44h-4.5v-14.38h4.5z" fill="#32363b"/><g fill="#fff"><path d="m84.93 39.38h-4.5v-14.38h4.5z"/><path d="m102.49 39.38h-4.49v-14.38h4.5z"/><path d="m120.05 39.38h-4.5v-14.38h4.5z"/></g><path d="m102.45 55.44h-4.45v-14.38h4.49z" fill="#32363b"/><path d="m120 55.44h-4.5v-14.38h4.5z" fill="#32363b"/><path d="m93.22 118.21c0-5.39-2.1-20.89 6.58-20.89s6.58 15.51 6.58 20.89z" fill="currentColor"/><path d="m93.22 118.21c0-5.39-2.1-20.89 6.58-20.89s6.58 15.51 6.58 20.89z" fill="none" stroke="#32363b" stroke-miterlimit="5" stroke-width="4.96"/></svg>