<svg viewBox="0 0 200 200" xmlns="http://www.w3.org/2000/svg"><g fill="#32363b"><path d="m100 148.61a48.61 48.61 0 1 1 48.61-48.61 48.67 48.67 0 0 1 -48.61 48.61zm0-88.43a39.82 39.82 0 1 0 39.82 39.82 39.86 39.86 0 0 0 -39.82-39.82z"/><path d="m95.61 25h8.78v17.6h-8.78z"/><path d="m58.69 37.25 7.61-4.4 8.8 15.24-7.61 4.4z"/><path d="m32.85 66.31 4.39-7.62 15.25 8.8-4.4 7.62z"/><path d="m25 95.61h17.6v8.78h-17.6z"/><path d="m32.85 133.69 15.24-8.8 4.4 7.61-15.25 8.8z"/><path d="m58.69 162.75 8.8-15.24 7.61 4.4-8.8 15.24z"/><path d="m95.61 157.4h8.78v17.6h-8.78z"/><path d="m124.89 151.91 7.61-4.4 8.8 15.24-7.61 4.4z"/><path d="m147.51 132.51 4.39-7.61 15.25 8.8-4.4 7.61z"/><path d="m157.4 95.61h17.6v8.78h-17.6z"/><path d="m147.51 67.49 15.24-8.8 4.4 7.62-15.25 8.79z"/><path d="m124.89 48.09 8.8-15.24 7.61 4.4-8.79 15.24z"/></g><path d="m95.6 114.79h8.8v8.79h-8.8z" fill="currentColor"/><path d="m89.37 108.55-6.21-6.21a23.78 23.78 0 0 1 33.68 0l-6.21 6.21a15 15 0 0 0 -21.26 0z" fill="currentColor"/><path d="m77 96.13-6.22-6.21a41.36 41.36 0 0 1 58.54 0l-6.22 6.21a32.57 32.57 0 0 0 -46.1 0z" fill="currentColor"/></svg>