<?xml version="1.0" encoding="UTF-8"?><svg id="Layer_2" xmlns="http://www.w3.org/2000/svg" xmlns:xlink="http://www.w3.org/1999/xlink" viewBox="0 0 792 612"><defs><style>.inbound-policies-cls-1,.inbound-policies-cls-2,.inbound-policies-cls-3,.inbound-policies-cls-4,.inbound-policies-cls-5,.inbound-policies-cls-6{stroke-miterlimit:10;}.inbound-policies-cls-1,.inbound-policies-cls-4,.inbound-policies-cls-6{fill:none;}.inbound-policies-cls-1,.inbound-policies-cls-5{stroke:#231f20;}.inbound-policies-cls-7{fill:#557ebf;}.inbound-policies-cls-2{fill:rgba(241,139,33,.3);stroke:#f18b21;}.inbound-policies-cls-8{fill:#231f20;}.inbound-policies-cls-9{fill:#ea4535;}.inbound-policies-cls-3{fill:#dfe3e8;stroke:#000;}.inbound-policies-cls-10{fill:#7ad1ec;}.inbound-policies-cls-11{fill:#1a9ad7;}.inbound-policies-cls-12{fill:#ed1c24;}.inbound-policies-cls-13{fill:#f9bc15;}.inbound-policies-cls-14,.inbound-policies-cls-5{fill:#fff;}.inbound-policies-cls-4{stroke:#ed1c24;}.inbound-policies-cls-4,.inbound-policies-cls-6{stroke-width:2px;}.inbound-policies-cls-15{fill:#36a852;}.inbound-policies-cls-6{stroke:#51ad53;}.inbound-policies-cls-16{fill:#51ad53;}.inbound-policies-cls-17{clip-path:url(#inbound-policies-clippath);}</style><clipPath id="inbound-policies-clippath"><rect class="inbound-policies-cls-5" x="124.64" y="211.89" width="532.12" height="77.06" rx="4.01" ry="4.01"/></clipPath></defs><path class="inbound-policies-cls-8" d="M363.96,192.74h-1.23v-7.11h1.23v7.11Z"/><path class="inbound-policies-cls-8" d="M366.83,190.1v2.64h-1.24v-7.11h2.72c.79,0,1.42.21,1.89.62.47.41.7.96.7,1.64s-.23,1.24-.69,1.63-1.1.58-1.92.58h-1.47ZM366.83,189.11h1.48c.44,0,.77-.1,1.01-.31.23-.21.35-.51.35-.9s-.12-.69-.35-.92-.56-.35-.97-.35h-1.52v2.48Z"/><path class="inbound-policies-cls-8" d="M378.46,191.08h-2.75l-.58,1.66h-1.28l2.69-7.11h1.11l2.69,7.11h-1.29l-.58-1.66ZM376.05,190.09h2.06l-1.03-2.95-1.03,2.95Z"/><path class="inbound-policies-cls-8" d="M380.78,190.06c0-.81.19-1.47.57-1.96.38-.49.88-.74,1.52-.74.56,0,1.01.2,1.36.59v-2.71h1.19v7.5h-1.07l-.06-.55c-.36.43-.83.64-1.42.64s-1.12-.25-1.5-.75c-.38-.5-.57-1.18-.57-2.03ZM381.96,190.16c0,.54.1.96.31,1.26s.5.45.88.45c.49,0,.84-.22,1.06-.65v-2.26c-.22-.42-.57-.63-1.05-.63-.38,0-.68.15-.89.46-.21.3-.31.76-.31,1.37Z"/><path class="inbound-policies-cls-8" d="M386.52,190.06c0-.81.19-1.47.57-1.96.38-.49.88-.74,1.52-.74.56,0,1.01.2,1.36.59v-2.71h1.19v7.5h-1.07l-.06-.55c-.36.43-.83.64-1.42.64s-1.12-.25-1.5-.75c-.38-.5-.57-1.18-.57-2.03ZM387.71,190.16c0,.54.1.96.31,1.26s.5.45.88.45c.49,0,.84-.22,1.06-.65v-2.26c-.22-.42-.57-.63-1.05-.63-.38,0-.68.15-.89.46-.21.3-.31.76-.31,1.37Z"/><path class="inbound-policies-cls-8" d="M395.25,188.54c-.16-.03-.32-.04-.48-.04-.54,0-.91.21-1.1.62v3.61h-1.19v-5.28h1.13l.03.59c.29-.46.68-.69,1.19-.69.17,0,.31.02.42.07v1.11Z"/><path class="inbound-policies-cls-8" d="M398.39,192.84c-.75,0-1.36-.24-1.83-.71-.47-.47-.7-1.1-.7-1.89v-.15c0-.53.1-1,.3-1.41s.49-.74.86-.97c.37-.23.78-.35,1.23-.35.72,0,1.28.23,1.67.69.39.46.59,1.11.59,1.95v.48h-3.45c.04.44.18.78.44,1.04s.58.38.96.38c.54,0,.99-.22,1.33-.66l.64.61c-.21.32-.49.56-.85.73-.35.17-.75.26-1.19.26ZM398.25,188.31c-.32,0-.59.11-.79.34-.2.23-.33.55-.38.95h2.26v-.09c-.03-.4-.13-.7-.32-.9s-.44-.31-.77-.31Z"/><path class="inbound-policies-cls-8" d="M404.46,191.3c0-.21-.09-.37-.26-.48-.18-.11-.46-.21-.87-.29-.4-.08-.74-.19-1.01-.32-.59-.29-.89-.7-.89-1.25,0-.46.19-.84.58-1.14.38-.31.87-.46,1.46-.46.63,0,1.14.16,1.53.47s.58.72.58,1.22h-1.19c0-.23-.08-.42-.25-.57-.17-.15-.39-.23-.67-.23-.26,0-.47.06-.64.18s-.25.28-.25.48c0,.18.08.32.23.42.15.1.46.2.93.31.47.1.83.22,1.1.37.26.14.46.31.59.51s.19.44.19.72c0,.48-.2.86-.59,1.15-.39.29-.91.44-1.55.44-.43,0-.82-.08-1.16-.23-.34-.16-.6-.37-.79-.64-.19-.27-.28-.57-.28-.88h1.15c.02.28.12.5.32.65s.45.23.78.23.55-.06.71-.18c.16-.12.24-.27.24-.47Z"/><path class="inbound-policies-cls-8" d="M409.7,191.3c0-.21-.09-.37-.26-.48-.18-.11-.46-.21-.87-.29-.4-.08-.74-.19-1.01-.32-.59-.29-.89-.7-.89-1.25,0-.46.19-.84.58-1.14.38-.31.87-.46,1.46-.46.63,0,1.14.16,1.53.47s.58.72.58,1.22h-1.19c0-.23-.08-.42-.25-.57-.17-.15-.39-.23-.67-.23-.26,0-.47.06-.64.18s-.25.28-.25.48c0,.18.08.32.23.42.15.1.46.2.93.31.47.1.83.22,1.1.37.26.14.46.31.59.51s.19.44.19.72c0,.48-.2.86-.59,1.15-.39.29-.91.44-1.55.44-.43,0-.82-.08-1.16-.23-.34-.16-.6-.37-.79-.64-.19-.27-.28-.57-.28-.88h1.15c.02.28.12.5.32.65s.45.23.78.23.55-.06.71-.18c.16-.12.24-.27.24-.47Z"/><path class="inbound-policies-cls-8" d="M417.53,192.74h-1.18v-5.71l-1.74.59v-1l2.77-1.02h.15v7.13Z"/><path class="inbound-policies-cls-8" d="M493.83,192.74h-1.23v-7.11h1.23v7.11Z"/><path class="inbound-policies-cls-8" d="M496.7,190.1v2.64h-1.23v-7.11h2.72c.79,0,1.43.21,1.89.62.47.41.7.96.7,1.64s-.23,1.24-.69,1.63c-.46.39-1.1.58-1.92.58h-1.47ZM496.7,189.11h1.48c.44,0,.78-.1,1.01-.31.23-.21.35-.51.35-.9s-.12-.69-.35-.92-.56-.35-.97-.35h-1.52v2.48Z"/><path class="inbound-policies-cls-8" d="M508.33,191.08h-2.75l-.58,1.66h-1.29l2.69-7.11h1.11l2.69,7.11h-1.29l-.58-1.66ZM505.92,190.09h2.06l-1.03-2.95-1.03,2.95Z"/><path class="inbound-policies-cls-8" d="M510.65,190.06c0-.81.19-1.47.57-1.96.38-.49.88-.74,1.52-.74.56,0,1.01.2,1.36.59v-2.71h1.19v7.5h-1.07l-.06-.55c-.35.43-.83.64-1.42.64s-1.12-.25-1.5-.75-.57-1.18-.57-2.03ZM511.84,190.16c0,.54.1.96.31,1.26.21.3.5.45.88.45.48,0,.84-.22,1.06-.65v-2.26c-.22-.42-.57-.63-1.05-.63-.38,0-.68.15-.89.46-.21.3-.31.76-.31,1.37Z"/><path class="inbound-policies-cls-8" d="M516.39,190.06c0-.81.19-1.47.57-1.96.38-.49.88-.74,1.52-.74.56,0,1.01.2,1.36.59v-2.71h1.19v7.5h-1.07l-.06-.55c-.35.43-.83.64-1.42.64s-1.12-.25-1.5-.75-.57-1.18-.57-2.03ZM517.58,190.16c0,.54.1.96.31,1.26.21.3.5.45.88.45.48,0,.84-.22,1.06-.65v-2.26c-.22-.42-.57-.63-1.05-.63-.38,0-.68.15-.89.46-.21.3-.31.76-.31,1.37Z"/><path class="inbound-policies-cls-8" d="M525.12,188.54c-.16-.03-.32-.04-.48-.04-.54,0-.91.21-1.1.62v3.61h-1.19v-5.28h1.13l.03.59c.29-.46.68-.69,1.19-.69.17,0,.31.02.42.07v1.11Z"/><path class="inbound-policies-cls-8" d="M528.27,192.84c-.75,0-1.36-.24-1.83-.71s-.7-1.1-.7-1.89v-.15c0-.53.1-1,.31-1.41.2-.42.49-.74.86-.97.37-.23.78-.35,1.23-.35.72,0,1.28.23,1.67.69s.59,1.11.59,1.95v.48h-3.45c.04.44.18.78.44,1.04.25.25.58.38.96.38.54,0,.99-.22,1.33-.66l.64.61c-.21.32-.49.56-.85.73s-.75.26-1.19.26ZM528.13,188.31c-.33,0-.59.11-.79.34-.2.23-.33.55-.38.95h2.26v-.09c-.03-.4-.13-.7-.32-.9s-.44-.31-.77-.31Z"/><path class="inbound-policies-cls-8" d="M534.34,191.3c0-.21-.09-.37-.26-.48s-.46-.21-.87-.29c-.4-.08-.74-.19-1.01-.32-.59-.29-.89-.7-.89-1.25,0-.46.19-.84.58-1.14.38-.31.87-.46,1.46-.46.63,0,1.14.16,1.53.47.39.31.58.72.58,1.22h-1.19c0-.23-.09-.42-.25-.57-.17-.15-.39-.23-.67-.23-.26,0-.47.06-.64.18-.16.12-.25.28-.25.48,0,.18.08.32.23.42.15.1.46.2.93.31.46.1.83.22,1.1.37s.46.31.59.51c.13.2.19.44.19.72,0,.48-.2.86-.59,1.15-.39.29-.91.44-1.55.44-.43,0-.82-.08-1.16-.23-.34-.16-.6-.37-.79-.64-.19-.27-.28-.57-.28-.88h1.15c.02.28.12.5.32.65s.46.23.78.23.55-.06.71-.18c.16-.12.24-.27.24-.47Z"/><path class="inbound-policies-cls-8" d="M539.58,191.3c0-.21-.09-.37-.26-.48s-.46-.21-.87-.29c-.4-.08-.74-.19-1.01-.32-.59-.29-.89-.7-.89-1.25,0-.46.19-.84.58-1.14.38-.31.87-.46,1.46-.46.63,0,1.14.16,1.53.47.39.31.58.72.58,1.22h-1.19c0-.23-.09-.42-.25-.57-.17-.15-.39-.23-.67-.23-.26,0-.47.06-.64.18-.16.12-.25.28-.25.48,0,.18.08.32.23.42.15.1.46.2.93.31.46.1.83.22,1.1.37s.46.31.59.51c.13.2.19.44.19.72,0,.48-.2.86-.59,1.15-.39.29-.91.44-1.55.44-.43,0-.82-.08-1.16-.23-.34-.16-.6-.37-.79-.64-.19-.27-.28-.57-.28-.88h1.15c.02.28.12.5.32.65s.46.23.78.23.55-.06.71-.18c.16-.12.24-.27.24-.47Z"/><path class="inbound-policies-cls-8" d="M548.97,192.74h-4.78v-.82l2.37-2.58c.34-.38.58-.7.73-.95.14-.26.22-.51.22-.77,0-.34-.1-.61-.29-.82-.19-.21-.45-.31-.77-.31-.38,0-.68.12-.89.35-.21.23-.32.56-.32.96h-1.19c0-.43.1-.82.3-1.17.2-.35.48-.62.84-.81.37-.19.79-.29,1.27-.29.69,0,1.23.17,1.63.52s.6.83.6,1.44c0,.35-.1.73-.3,1.12-.2.39-.53.83-.98,1.33l-1.74,1.86h3.3v.95Z"/><rect class="inbound-policies-cls-14" x="124.64" y="211.89" width="532.12" height="77.06" rx="4.01" ry="4.01"/><g class="inbound-policies-cls-17"><rect class="inbound-policies-cls-8" x="124.64" y="211.89" width="36.27" height="77.75"/><path class="inbound-policies-cls-14" d="M148.77,246.45c.01-.11.04-.22.04-.34,0-3.36-2.73-6.09-6.1-6.09s-6.09,2.73-6.09,6.09c0,.11.02.22.04.34h-1.36v14.36h14.94v-14.36h-1.47ZM142.71,240.96c2.84,0,5.15,2.31,5.15,5.15,0,.1,0,.2-.01.3h-1.71c.01-.1.01-.2.01-.3,0-1.89-1.54-3.44-3.44-3.44s-3.45,1.54-3.45,3.44c0,.1,0,.2.01.3h-1.72c0-.1-.01-.2-.01-.3,0-2.84,2.31-5.15,5.15-5.15h0ZM140.2,246.11c0-1.38,1.12-2.5,2.5-2.5s2.5,1.12,2.5,2.5c0,.11-.02.22-.05.34h-4.9c-.02-.11-.05-.21-.05-.34h0ZM149.3,259.87h-13.07v-12.5h13.07v12.5Z"/><path class="inbound-policies-cls-14" d="M141.6,254.24v4.07h2.34v-4.07c.73-.41,1.24-1.17,1.24-2.09,0-1.33-1.08-2.41-2.41-2.41s-2.41,1.08-2.41,2.41c0,.9.51,1.68,1.24,2.09h0Z"/></g><rect class="inbound-policies-cls-1" x="124.64" y="211.89" width="532.12" height="77.06" rx="4.01" ry="4.01"/><rect class="inbound-policies-cls-5" x="124.64" y="307.52" width="532.12" height="148.49" rx="4.01" ry="4.01"/><path class="inbound-policies-cls-8" d="M350.7,444.68c-.26.33-.61.59-1.07.76-.46.17-.97.26-1.55.26s-1.12-.14-1.58-.41c-.46-.27-.81-.66-1.06-1.16-.25-.5-.38-1.09-.39-1.76v-.56c0-1.07.26-1.91.77-2.52.51-.6,1.23-.91,2.15-.91.79,0,1.42.2,1.88.59.47.39.75.96.84,1.69h-1.21c-.14-.86-.63-1.28-1.49-1.28-.55,0-.97.2-1.26.6-.29.4-.44.98-.45,1.75v.55c0,.77.16,1.36.49,1.79.32.42.77.64,1.35.64.63,0,1.08-.14,1.35-.43v-1.39h-1.46v-.94h2.7v2.72Z"/><path class="inbound-policies-cls-8" d="M351.85,442.91c0-.52.1-.98.31-1.4s.49-.73.86-.96c.37-.22.8-.33,1.28-.33.71,0,1.29.23,1.74.69.45.46.68,1.07.72,1.83v.28c0,.52-.1.99-.29,1.4-.2.41-.49.73-.86.95-.37.22-.8.34-1.29.34-.75,0-1.34-.25-1.79-.75-.45-.5-.67-1.16-.67-1.98v-.06ZM353.04,443.01c0,.54.11.97.34,1.28s.54.46.94.46.71-.16.93-.47c.22-.31.33-.77.33-1.37,0-.53-.11-.96-.34-1.27-.23-.31-.54-.47-.93-.47s-.7.15-.92.46-.34.77-.34,1.38Z"/><path class="inbound-policies-cls-8" d="M357.62,442.91c0-.52.1-.98.31-1.4s.49-.73.86-.96c.37-.22.8-.33,1.28-.33.71,0,1.29.23,1.74.69.45.46.68,1.07.72,1.83v.28c0,.52-.1.99-.29,1.4-.2.41-.49.73-.86.95-.37.22-.8.34-1.29.34-.75,0-1.34-.25-1.79-.75-.45-.5-.67-1.16-.67-1.98v-.06ZM358.81,443.01c0,.54.11.97.34,1.28s.54.46.94.46.71-.16.93-.47c.22-.31.33-.77.33-1.37,0-.53-.11-.96-.34-1.27-.23-.31-.54-.47-.93-.47s-.7.15-.92.46-.34.77-.34,1.38Z"/><path class="inbound-policies-cls-8" d="M363.43,442.92c0-.82.19-1.48.58-1.97.39-.49.9-.73,1.54-.73.6,0,1.08.21,1.42.63l.05-.53h1.07v5.12c0,.69-.22,1.24-.65,1.64-.43.4-1.01.6-1.75.6-.39,0-.77-.08-1.13-.24-.37-.16-.65-.37-.84-.63l.56-.71c.36.43.81.65,1.35.65.39,0,.71-.11.93-.32.23-.21.34-.53.34-.94v-.36c-.34.38-.8.57-1.37.57-.62,0-1.12-.25-1.52-.74-.39-.49-.59-1.17-.59-2.04ZM364.61,443.02c0,.53.11.95.32,1.25.22.3.52.46.9.46.48,0,.83-.21,1.06-.62v-2.32c-.22-.4-.58-.6-1.05-.6-.39,0-.69.15-.91.46-.22.31-.32.76-.32,1.37Z"/><path class="inbound-policies-cls-8" d="M370.63,445.6h-1.19v-7.5h1.19v7.5Z"/><path class="inbound-policies-cls-8" d="M374.31,445.7c-.75,0-1.36-.24-1.83-.71-.47-.47-.7-1.1-.7-1.89v-.15c0-.53.1-1,.31-1.41.2-.42.49-.74.86-.97.37-.23.78-.35,1.23-.35.72,0,1.28.23,1.67.69.39.46.59,1.11.59,1.95v.48h-3.45c.04.44.18.78.44,1.04.25.25.58.38.96.38.54,0,.99-.22,1.33-.66l.64.61c-.21.32-.49.56-.85.73-.35.17-.75.26-1.19.26ZM374.17,441.17c-.33,0-.59.11-.79.34-.2.23-.33.54-.38.95h2.26v-.09c-.03-.4-.13-.7-.32-.9-.19-.2-.44-.3-.77-.3Z"/><path class="inbound-policies-cls-8" d="M385.38,443.29c-.07.76-.35,1.35-.84,1.77s-1.14.64-1.95.64c-.57,0-1.07-.13-1.5-.4-.43-.27-.76-.65-1-1.14-.23-.5-.36-1.07-.37-1.72v-.66c0-.67.12-1.26.36-1.77.24-.51.58-.91,1.02-1.18.45-.28.96-.42,1.54-.42.78,0,1.42.21,1.89.64s.76,1.03.83,1.8h-1.23c-.06-.51-.21-.88-.45-1.11-.24-.23-.59-.34-1.05-.34-.54,0-.95.2-1.24.59-.29.39-.43.97-.44,1.73v.63c0,.77.14,1.35.41,1.76.28.4.68.61,1.21.61.49,0,.85-.11,1.09-.33.24-.22.4-.58.46-1.09h1.23Z"/><path class="inbound-policies-cls-8" d="M387.74,445.6h-1.19v-7.5h1.19v7.5Z"/><path class="inbound-policies-cls-8" d="M388.88,442.91c0-.52.1-.98.31-1.4s.49-.73.86-.96c.37-.22.8-.33,1.28-.33.71,0,1.29.23,1.74.69.45.46.68,1.07.72,1.83v.28c0,.52-.1.99-.29,1.4-.2.41-.49.73-.86.95-.37.22-.8.34-1.29.34-.75,0-1.34-.25-1.79-.75-.45-.5-.67-1.16-.67-1.98v-.06ZM390.07,443.01c0,.54.11.97.34,1.28s.54.46.94.46.71-.16.93-.47c.22-.31.33-.77.33-1.37,0-.53-.11-.96-.34-1.27-.23-.31-.54-.47-.93-.47s-.7.15-.92.46-.34.77-.34,1.38Z"/><path class="inbound-policies-cls-8" d="M398.08,445.08c-.35.41-.84.62-1.48.62-.57,0-1.01-.17-1.3-.5-.29-.34-.44-.82-.44-1.46v-3.42h1.19v3.41c0,.67.28,1.01.83,1.01s.96-.21,1.17-.62v-3.79h1.19v5.28h-1.12l-.03-.52Z"/><path class="inbound-policies-cls-8" d="M400.32,442.92c0-.81.19-1.47.57-1.96s.88-.74,1.52-.74c.56,0,1.01.2,1.36.59v-2.71h1.19v7.5h-1.07l-.06-.55c-.35.43-.83.64-1.42.64s-1.12-.25-1.5-.75c-.38-.5-.57-1.18-.57-2.03ZM401.51,443.02c0,.54.1.96.31,1.26.21.3.5.45.88.45.49,0,.84-.22,1.06-.65v-2.26c-.22-.42-.57-.63-1.05-.63-.38,0-.68.15-.89.46-.21.3-.31.76-.31,1.38Z"/><path class="inbound-policies-cls-8" d="M414.43,445.6h-1.24l-3.17-5.04v5.04h-1.24v-7.11h1.24l3.18,5.06v-5.06h1.23v7.11Z"/><path class="inbound-policies-cls-8" d="M421.47,444.68c-.26.33-.61.59-1.07.76-.46.17-.97.26-1.55.26s-1.12-.14-1.58-.41c-.46-.27-.81-.66-1.06-1.16-.25-.5-.38-1.09-.39-1.76v-.56c0-1.07.26-1.91.77-2.52.51-.6,1.23-.91,2.15-.91.79,0,1.42.2,1.88.59.47.39.75.96.84,1.69h-1.21c-.14-.86-.63-1.28-1.49-1.28-.55,0-.97.2-1.26.6-.29.4-.44.98-.45,1.75v.55c0,.77.16,1.36.49,1.79.32.42.77.64,1.35.64.63,0,1.08-.14,1.35-.43v-1.39h-1.46v-.94h2.7v2.72Z"/><path class="inbound-policies-cls-8" d="M427.06,442.59h-2.86v3.01h-1.24v-7.11h4.52v1h-3.28v2.11h2.86v.99Z"/><path class="inbound-policies-cls-8" d="M434.37,443.84l1.09-5.35h1.23l-1.64,7.11h-1.18l-1.35-5.19-1.38,5.19h-1.19l-1.64-7.11h1.23l1.1,5.34,1.36-5.34h1.04l1.34,5.35Z"/><rect class="inbound-policies-cls-2" x="149.26" y="326" width="102.38" height="35.51" rx="3.98" ry="3.98"/><path class="inbound-policies-cls-8" d="M195.09,344.85c0-.31-.11-.55-.33-.72-.22-.17-.62-.34-1.19-.51s-1.03-.36-1.37-.58c-.65-.41-.97-.94-.97-1.59,0-.57.23-1.04.7-1.42.47-.37,1.07-.56,1.82-.56.5,0,.94.09,1.32.27s.69.44.91.78c.22.34.33.71.33,1.12h-1.23c0-.37-.12-.66-.35-.87-.23-.21-.57-.31-1-.31-.4,0-.72.09-.94.26-.22.17-.33.41-.33.72,0,.26.12.48.36.65.24.17.64.34,1.19.51.55.17,1,.35,1.33.56.33.21.58.45.74.72.16.27.23.59.23.95,0,.59-.23,1.06-.68,1.41-.45.35-1.07.53-1.85.53-.51,0-.99-.1-1.42-.29-.43-.19-.77-.45-1.01-.79-.24-.33-.36-.73-.36-1.17h1.24c0,.4.13.72.4.94s.65.33,1.15.33c.43,0,.75-.09.97-.26.22-.17.33-.4.33-.69Z"/><path class="inbound-policies-cls-8" d="M201.35,344.85c0-.31-.11-.55-.33-.72-.22-.17-.62-.34-1.19-.51s-1.03-.36-1.37-.58c-.65-.41-.97-.94-.97-1.59,0-.57.23-1.04.7-1.42.47-.37,1.07-.56,1.82-.56.5,0,.94.09,1.32.27s.69.44.91.78c.22.34.33.71.33,1.12h-1.23c0-.37-.12-.66-.35-.87-.23-.21-.57-.31-1-.31-.4,0-.72.09-.94.26-.22.17-.33.41-.33.72,0,.26.12.48.36.65.24.17.64.34,1.19.51.55.17,1,.35,1.33.56.33.21.58.45.74.72.16.27.23.59.23.95,0,.59-.23,1.06-.68,1.41-.45.35-1.07.53-1.85.53-.51,0-.99-.1-1.42-.29-.43-.19-.77-.45-1.01-.79-.24-.33-.36-.73-.36-1.17h1.24c0,.4.13.72.4.94s.65.33,1.15.33c.43,0,.75-.09.97-.26.22-.17.33-.4.33-.69Z"/><path class="inbound-policies-cls-8" d="M209.5,346.68h-1.23v-3.15h-3.18v3.15h-1.24v-7.11h1.24v2.96h3.18v-2.96h1.23v7.11Z"/><rect class="inbound-policies-cls-2" x="276.08" y="326" width="102.38" height="35.51" rx="3.98" ry="3.98"/><path class="inbound-policies-cls-8" d="M318.32,340.68h-1.23l-3.17-5.04v5.04h-1.23v-7.11h1.23l3.18,5.06v-5.06h1.22v7.11Z"/><path class="inbound-policies-cls-8" d="M325.36,339.76c-.26.33-.61.59-1.07.76-.46.17-.97.26-1.55.26s-1.12-.13-1.58-.41-.81-.66-1.06-1.16c-.25-.5-.38-1.09-.39-1.76v-.56c0-1.07.26-1.91.77-2.52.51-.6,1.23-.91,2.15-.91.79,0,1.42.2,1.88.59.47.39.75.96.84,1.69h-1.21c-.14-.86-.63-1.28-1.49-1.28-.55,0-.97.2-1.26.6-.29.4-.44.98-.45,1.75v.55c0,.77.16,1.36.49,1.79.32.42.77.64,1.35.64.63,0,1.08-.14,1.35-.43v-1.39h-1.46v-.94h2.7v2.72Z"/><path class="inbound-policies-cls-8" d="M328.14,340.68h-1.23v-7.11h1.23v7.11Z"/><path class="inbound-policies-cls-8" d="M335.41,340.68h-1.23l-3.17-5.04v5.04h-1.23v-7.11h1.23l3.18,5.06v-5.06h1.22v7.11Z"/><path class="inbound-policies-cls-8" d="M339.44,336.14l1.49-2.57h1.43l-2.15,3.53,2.2,3.58h-1.44l-1.53-2.61-1.53,2.61h-1.44l2.2-3.58-2.15-3.53h1.43l1.49,2.57Z"/><path class="inbound-policies-cls-8" d="M293.31,349.79c0-.75.1-1.47.3-2.14.2-.68.5-1.28.89-1.81.39-.53.8-.91,1.24-1.12l.23.69c-.46.35-.83.88-1.12,1.59-.29.71-.44,1.53-.47,2.45v.42c0,.99.13,1.87.41,2.64.28.77.67,1.36,1.17,1.77l-.23.66c-.44-.21-.85-.59-1.24-1.13-.39-.54-.69-1.14-.89-1.81-.2-.67-.3-1.41-.3-2.21Z"/><path class="inbound-policies-cls-8" d="M302.63,352.68h-1.23v-3.15h-3.18v3.15h-1.24v-7.11h1.24v2.96h3.18v-2.96h1.23v7.11Z"/><path class="inbound-policies-cls-8" d="M309.34,346.57h-2.22v6.11h-1.23v-6.11h-2.2v-1h5.64v1Z"/><path class="inbound-policies-cls-8" d="M315.78,346.57h-2.22v6.11h-1.23v-6.11h-2.2v-1h5.64v1Z"/><path class="inbound-policies-cls-8" d="M318.07,350.04v2.64h-1.23v-7.11h2.72c.79,0,1.43.21,1.89.62s.7.96.7,1.64-.23,1.24-.69,1.63c-.46.39-1.1.58-1.92.58h-1.47ZM318.07,349.05h1.48c.44,0,.78-.1,1.01-.31.23-.21.35-.5.35-.9s-.12-.69-.35-.92c-.23-.23-.56-.35-.97-.35h-1.52v2.48Z"/><path class="inbound-policies-cls-8" d="M323,353.29h-.93l2.8-7.72h.93l-2.8,7.72Z"/><path class="inbound-policies-cls-8" d="M332.51,352.68h-1.23v-3.15h-3.18v3.15h-1.24v-7.11h1.24v2.96h3.18v-2.96h1.23v7.11Z"/><path class="inbound-policies-cls-8" d="M339.22,346.57h-2.22v6.11h-1.23v-6.11h-2.2v-1h5.64v1Z"/><path class="inbound-policies-cls-8" d="M345.66,346.57h-2.22v6.11h-1.23v-6.11h-2.2v-1h5.64v1Z"/><path class="inbound-policies-cls-8" d="M347.95,350.04v2.64h-1.23v-7.11h2.72c.79,0,1.43.21,1.89.62s.7.96.7,1.64-.23,1.24-.69,1.63c-.46.39-1.1.58-1.92.58h-1.47ZM347.95,349.05h1.48c.44,0,.78-.1,1.01-.31.23-.21.35-.5.35-.9s-.12-.69-.35-.92c-.23-.23-.56-.35-.97-.35h-1.52v2.48Z"/><path class="inbound-policies-cls-8" d="M356.94,350.85c0-.31-.11-.55-.33-.72-.22-.17-.62-.34-1.19-.51-.57-.17-1.03-.36-1.37-.58-.65-.41-.97-.94-.97-1.59,0-.57.23-1.04.7-1.42s1.07-.56,1.82-.56c.5,0,.94.09,1.32.27.39.18.69.44.91.78.22.34.33.71.33,1.12h-1.23c0-.37-.12-.66-.35-.87-.23-.21-.57-.31-1-.31-.4,0-.72.09-.94.26s-.33.41-.33.72c0,.26.12.48.36.65.24.17.64.34,1.19.51.55.17,1,.35,1.33.56.34.21.58.45.74.72.16.27.23.59.23.95,0,.59-.23,1.06-.68,1.41-.45.35-1.07.53-1.85.53-.52,0-.99-.1-1.42-.29-.43-.19-.77-.45-1.01-.79-.24-.33-.36-.73-.36-1.17h1.23c0,.4.13.72.4.94.27.22.65.33,1.15.33.43,0,.75-.09.97-.26.22-.17.32-.4.32-.69Z"/><path class="inbound-policies-cls-8" d="M361.25,349.87c0,.72-.1,1.42-.3,2.09-.2.67-.5,1.29-.9,1.84-.4.55-.83.93-1.27,1.15l-.23-.66c.49-.38.88-.96,1.16-1.73.29-.78.43-1.66.43-2.66v-.11c0-.91-.12-1.73-.37-2.47-.25-.74-.6-1.34-1.06-1.79l-.15-.14.23-.66c.42.2.82.56,1.21,1.07s.69,1.09.9,1.73c.21.64.33,1.29.35,1.97v.38Z"/><rect class="inbound-policies-cls-2" x="402.93" y="326" width="102.38" height="35.51" rx="3.98" ry="3.98"/><path class="inbound-policies-cls-8" d="M428.92,344.04v2.64h-1.24v-7.11h2.72c.79,0,1.42.21,1.89.62.47.41.7.96.7,1.64s-.23,1.24-.69,1.63c-.46.39-1.1.58-1.92.58h-1.47ZM428.92,343.05h1.48c.44,0,.77-.1,1.01-.31.23-.21.35-.5.35-.9s-.12-.69-.35-.92c-.23-.23-.56-.35-.97-.35h-1.52v2.48Z"/><path class="inbound-policies-cls-8" d="M433.75,343.99c0-.52.1-.98.31-1.4.21-.41.49-.73.86-.96.37-.22.8-.33,1.28-.33.71,0,1.29.23,1.74.69.45.46.68,1.07.72,1.83v.28c0,.52-.1.99-.29,1.4-.2.41-.49.73-.86.95-.37.22-.8.34-1.29.34-.75,0-1.34-.25-1.79-.74-.45-.5-.67-1.16-.67-1.99v-.06ZM434.93,344.09c0,.54.11.97.34,1.28.22.31.54.46.94.46s.71-.16.93-.47c.22-.31.33-.77.33-1.37,0-.53-.11-.96-.34-1.27-.23-.31-.54-.47-.93-.47s-.7.15-.92.46c-.23.31-.34.77-.34,1.38Z"/><path class="inbound-policies-cls-8" d="M442.68,345.24c0-.21-.09-.37-.26-.48-.17-.11-.46-.21-.87-.29s-.74-.19-1.01-.32c-.59-.29-.89-.7-.89-1.25,0-.46.19-.84.58-1.14s.87-.46,1.46-.46c.63,0,1.14.16,1.53.47.39.31.58.72.58,1.22h-1.19c0-.23-.08-.42-.25-.57-.17-.15-.39-.23-.67-.23-.26,0-.47.06-.64.18-.16.12-.25.28-.25.48,0,.18.08.32.23.42s.46.2.93.31c.47.1.83.22,1.1.37.26.14.46.31.59.51.13.2.19.44.19.72,0,.48-.2.86-.59,1.16-.39.29-.91.44-1.55.44-.43,0-.82-.08-1.16-.23s-.6-.37-.79-.64-.28-.57-.28-.88h1.15c.02.28.12.5.32.65.2.15.45.23.78.23s.55-.06.71-.18c.16-.12.24-.27.24-.47Z"/><path class="inbound-policies-cls-8" d="M446.53,340.11v1.28h.93v.88h-.93v2.95c0,.2.04.35.12.44.08.09.22.13.43.13.14,0,.28-.02.42-.05v.92c-.27.08-.53.11-.78.11-.91,0-1.37-.5-1.37-1.51v-2.99h-.87v-.88h.87v-1.28h1.19Z"/><path class="inbound-policies-cls-8" d="M448.15,344c0-.82.19-1.48.58-1.97.39-.49.9-.73,1.54-.73.6,0,1.08.21,1.42.63l.05-.53h1.07v5.12c0,.69-.22,1.24-.65,1.64-.43.4-1.01.6-1.75.6-.39,0-.77-.08-1.13-.24-.37-.16-.65-.37-.84-.63l.56-.71c.36.43.81.65,1.35.65.39,0,.71-.11.93-.32.23-.21.34-.53.34-.94v-.36c-.34.38-.8.57-1.37.57-.62,0-1.12-.25-1.52-.74-.39-.49-.59-1.17-.59-2.04ZM449.33,344.1c0,.53.11.95.32,1.25.22.3.52.46.9.46.48,0,.83-.21,1.06-.62v-2.32c-.22-.4-.58-.6-1.05-.6-.39,0-.69.15-.91.46-.22.31-.32.76-.32,1.37Z"/><path class="inbound-policies-cls-8" d="M456.9,342.48c-.16-.03-.32-.04-.48-.04-.54,0-.91.21-1.1.62v3.61h-1.19v-5.28h1.13l.03.59c.29-.46.68-.69,1.19-.69.17,0,.31.02.42.07v1.11Z"/><path class="inbound-policies-cls-8" d="M460.04,346.78c-.75,0-1.36-.24-1.83-.71-.47-.47-.7-1.1-.7-1.89v-.15c0-.53.1-1,.31-1.41.2-.42.49-.74.86-.97s.78-.35,1.23-.35c.72,0,1.28.23,1.67.69.39.46.59,1.11.59,1.95v.48h-3.45c.04.44.18.78.44,1.04.25.25.58.38.96.38.54,0,.99-.22,1.33-.66l.64.61c-.21.32-.49.56-.85.73-.35.17-.75.26-1.19.26ZM459.9,342.25c-.33,0-.59.11-.79.34-.2.23-.33.54-.38.95h2.26v-.09c-.03-.4-.13-.7-.32-.9-.19-.2-.44-.31-.77-.31Z"/><path class="inbound-policies-cls-8" d="M467.11,344.85c0-.31-.11-.55-.33-.72-.22-.17-.62-.34-1.19-.51s-1.03-.36-1.37-.58c-.65-.41-.97-.94-.97-1.59,0-.57.23-1.04.7-1.42.47-.37,1.07-.56,1.82-.56.5,0,.94.09,1.32.27s.69.44.91.78c.22.34.33.71.33,1.12h-1.23c0-.37-.12-.66-.35-.87-.23-.21-.57-.31-1-.31-.4,0-.72.09-.94.26-.22.17-.33.41-.33.72,0,.26.12.48.36.65.24.17.64.34,1.19.51.55.17,1,.35,1.33.56.33.21.58.45.74.72.16.27.23.59.23.95,0,.59-.23,1.06-.68,1.41-.45.35-1.07.53-1.85.53-.51,0-.99-.1-1.42-.29-.43-.19-.77-.45-1.01-.79-.24-.33-.36-.73-.36-1.17h1.24c0,.4.13.72.4.94s.65.33,1.15.33c.43,0,.75-.09.97-.26.22-.17.33-.4.33-.69Z"/><path class="inbound-policies-cls-8" d="M475.2,343.31c0,.67-.11,1.26-.32,1.75-.21.49-.51.88-.9,1.17l1.22.95-.8.72-1.51-1.2c-.2.04-.41.06-.64.06-.57,0-1.08-.14-1.54-.42-.45-.28-.8-.68-1.04-1.2-.25-.52-.37-1.12-.37-1.8v-.4c0-.69.12-1.31.37-1.84.25-.53.59-.94,1.04-1.22.45-.28.96-.42,1.54-.42s1.1.14,1.55.42c.45.28.79.68,1.04,1.2.24.52.37,1.13.37,1.82v.4ZM473.96,342.94c0-.8-.15-1.41-.45-1.82s-.72-.62-1.27-.62-.95.21-1.25.63c-.3.42-.46,1.01-.46,1.77v.42c0,.77.15,1.37.45,1.8.3.43.72.65,1.27.65s.97-.21,1.27-.62c.29-.42.44-1.03.44-1.83v-.37Z"/><path class="inbound-policies-cls-8" d="M477.82,345.69h3.23v.99h-4.46v-7.11h1.24v6.12Z"/><rect class="inbound-policies-cls-2" x="529.77" y="326" width="102.38" height="35.51" rx="3.98" ry="3.98"/><path class="inbound-policies-cls-8" d="M571.67,343.94h-1.38v2.73h-1.24v-7.11h2.5c.82,0,1.45.18,1.9.55.45.37.67.9.67,1.6,0,.48-.12.87-.34,1.19-.23.32-.55.57-.96.74l1.6,2.96v.06h-1.32l-1.43-2.73ZM570.29,342.95h1.27c.42,0,.74-.11.98-.31.23-.21.35-.5.35-.86s-.11-.68-.33-.88c-.22-.21-.54-.32-.97-.32h-1.3v2.38Z"/><path class="inbound-policies-cls-8" d="M577.55,346.78c-.75,0-1.36-.24-1.83-.71-.47-.47-.7-1.1-.7-1.89v-.15c0-.53.1-1,.31-1.41.2-.42.49-.74.86-.97s.78-.35,1.23-.35c.72,0,1.28.23,1.67.69.39.46.59,1.11.59,1.95v.48h-3.45c.04.44.18.78.44,1.04.25.25.58.38.96.38.54,0,.99-.22,1.33-.66l.64.61c-.21.32-.49.56-.85.73-.35.17-.75.26-1.19.26ZM577.41,342.25c-.33,0-.59.11-.79.34-.2.23-.33.54-.38.95h2.26v-.09c-.03-.4-.13-.7-.32-.9-.19-.2-.44-.31-.77-.31Z"/><path class="inbound-policies-cls-8" d="M580.51,344c0-.81.19-1.47.57-1.96.38-.49.88-.74,1.52-.74.56,0,1.01.2,1.36.59v-2.71h1.19v7.5h-1.07l-.06-.55c-.35.43-.83.64-1.42.64s-1.12-.25-1.5-.75c-.38-.5-.57-1.17-.57-2.03ZM581.7,344.1c0,.54.1.96.31,1.26.21.3.5.45.88.45.49,0,.84-.22,1.06-.65v-2.26c-.22-.42-.57-.63-1.05-.63-.38,0-.68.15-.89.46-.21.3-.31.76-.31,1.38Z"/><path class="inbound-policies-cls-8" d="M586.44,340.02c0-.18.06-.33.17-.45.12-.12.28-.18.5-.18s.38.06.5.18.18.27.18.45-.06.33-.18.45c-.12.12-.28.18-.5.18s-.38-.06-.5-.18c-.12-.12-.17-.27-.17-.45ZM587.7,346.68h-1.19v-5.28h1.19v5.28Z"/><path class="inbound-policies-cls-8" d="M591.99,345.24c0-.21-.09-.37-.26-.48-.17-.11-.46-.21-.87-.29s-.74-.19-1.01-.32c-.59-.29-.89-.7-.89-1.25,0-.46.19-.84.58-1.14s.87-.46,1.46-.46c.63,0,1.14.16,1.53.47.39.31.58.72.58,1.22h-1.19c0-.23-.08-.42-.25-.57-.17-.15-.39-.23-.67-.23-.26,0-.47.06-.64.18-.16.12-.25.28-.25.48,0,.18.08.32.23.42s.46.2.93.31c.47.1.83.22,1.1.37.26.14.46.31.59.51.13.2.19.44.19.72,0,.48-.2.86-.59,1.16-.39.29-.91.44-1.55.44-.43,0-.82-.08-1.16-.23s-.6-.37-.79-.64-.28-.57-.28-.88h1.15c.02.28.12.5.32.65.2.15.45.23.78.23s.55-.06.71-.18c.16-.12.24-.27.24-.47Z"/><path class="inbound-policies-cls-8" d="M230.99,191.08h-2.75l-.58,1.66h-1.28l2.69-7.11h1.11l2.69,7.11h-1.29l-.58-1.66ZM228.58,190.09h2.06l-1.03-2.95-1.03,2.95Z"/><path class="inbound-policies-cls-8" d="M234.84,187.46l.03.61c.39-.47.9-.71,1.54-.71,1.1,0,1.66.63,1.68,1.89v3.49h-1.19v-3.42c0-.34-.07-.58-.22-.74s-.38-.24-.71-.24c-.48,0-.83.22-1.07.65v3.76h-1.19v-5.28h1.12Z"/><path class="inbound-policies-cls-8" d="M241.11,191.04l1.07-3.58h1.27l-2.1,6.08c-.32.89-.87,1.33-1.64,1.33-.17,0-.36-.03-.57-.09v-.92h.22c.3.01.53-.04.68-.15.15-.11.27-.29.36-.55l.17-.45-1.86-5.25h1.28l1.12,3.58Z"/><path class="inbound-policies-cls-8" d="M248.04,192.74h-1.23v-7.11h1.23v7.11Z"/><path class="inbound-policies-cls-8" d="M250.9,190.1v2.64h-1.23v-7.11h2.72c.79,0,1.43.21,1.89.62.47.41.7.96.7,1.64s-.23,1.24-.69,1.63c-.46.39-1.1.58-1.92.58h-1.47ZM250.9,189.11h1.48c.44,0,.78-.1,1.01-.31.23-.21.35-.51.35-.9s-.12-.69-.35-.92-.56-.35-.97-.35h-1.52v2.48Z"/><path class="inbound-policies-cls-8" d="M262.53,191.08h-2.75l-.58,1.66h-1.29l2.69-7.11h1.11l2.69,7.11h-1.29l-.58-1.66ZM260.12,190.09h2.06l-1.03-2.95-1.03,2.95Z"/><path class="inbound-policies-cls-8" d="M264.86,190.06c0-.81.19-1.47.57-1.96.38-.49.88-.74,1.52-.74.56,0,1.01.2,1.36.59v-2.71h1.19v7.5h-1.07l-.06-.55c-.36.43-.83.64-1.42.64s-1.12-.25-1.5-.75c-.38-.5-.57-1.18-.57-2.03ZM266.04,190.16c0,.54.1.96.31,1.26s.5.45.88.45c.49,0,.84-.22,1.06-.65v-2.26c-.22-.42-.57-.63-1.05-.63-.38,0-.68.15-.89.46-.21.3-.31.76-.31,1.37Z"/><path class="inbound-policies-cls-8" d="M270.6,190.06c0-.81.19-1.47.57-1.96.38-.49.88-.74,1.52-.74.56,0,1.01.2,1.36.59v-2.71h1.19v7.5h-1.07l-.06-.55c-.35.43-.83.64-1.42.64s-1.12-.25-1.5-.75-.57-1.18-.57-2.03ZM271.78,190.16c0,.54.1.96.31,1.26.21.3.5.45.88.45.48,0,.84-.22,1.06-.65v-2.26c-.22-.42-.57-.63-1.05-.63-.38,0-.68.15-.89.46-.21.3-.31.76-.31,1.37Z"/><path class="inbound-policies-cls-8" d="M279.33,188.54c-.16-.03-.32-.04-.48-.04-.54,0-.91.21-1.1.62v3.61h-1.19v-5.28h1.13l.03.59c.29-.46.68-.69,1.19-.69.17,0,.31.02.42.07v1.11Z"/><path class="inbound-policies-cls-8" d="M282.47,192.84c-.75,0-1.36-.24-1.83-.71s-.7-1.1-.7-1.89v-.15c0-.53.1-1,.31-1.41.2-.42.49-.74.86-.97.37-.23.78-.35,1.23-.35.72,0,1.28.23,1.67.69s.59,1.11.59,1.95v.48h-3.45c.04.44.18.78.44,1.04.25.25.58.38.96.38.54,0,.99-.22,1.33-.66l.64.61c-.21.32-.49.56-.85.73s-.75.26-1.19.26ZM282.33,188.31c-.33,0-.59.11-.79.34-.2.23-.33.55-.38.95h2.26v-.09c-.03-.4-.13-.7-.32-.9s-.44-.31-.77-.31Z"/><path class="inbound-policies-cls-8" d="M288.54,191.3c0-.21-.09-.37-.26-.48-.18-.11-.46-.21-.87-.29-.4-.08-.74-.19-1.01-.32-.59-.29-.89-.7-.89-1.25,0-.46.19-.84.58-1.14.38-.31.87-.46,1.46-.46.63,0,1.14.16,1.53.47s.58.72.58,1.22h-1.19c0-.23-.08-.42-.25-.57-.17-.15-.39-.23-.67-.23-.26,0-.47.06-.64.18s-.25.28-.25.48c0,.18.08.32.23.42.15.1.46.2.93.31.47.1.83.22,1.1.37.26.14.46.31.59.51s.19.44.19.72c0,.48-.2.86-.59,1.15-.39.29-.91.44-1.55.44-.43,0-.82-.08-1.16-.23-.34-.16-.6-.37-.79-.64-.19-.27-.28-.57-.28-.88h1.15c.02.28.12.5.32.65s.45.23.78.23.55-.06.71-.18c.16-.12.24-.27.24-.47Z"/><path class="inbound-policies-cls-8" d="M293.78,191.3c0-.21-.09-.37-.26-.48-.18-.11-.46-.21-.87-.29-.4-.08-.74-.19-1.01-.32-.59-.29-.89-.7-.89-1.25,0-.46.19-.84.58-1.14.38-.31.87-.46,1.46-.46.63,0,1.14.16,1.53.47s.58.72.58,1.22h-1.19c0-.23-.08-.42-.25-.57-.17-.15-.39-.23-.67-.23-.26,0-.47.06-.64.18s-.25.28-.25.48c0,.18.08.32.23.42.15.1.46.2.93.31.47.1.83.22,1.1.37.26.14.46.31.59.51s.19.44.19.72c0,.48-.2.86-.59,1.15-.39.29-.91.44-1.55.44-.43,0-.82-.08-1.16-.23-.34-.16-.6-.37-.79-.64-.19-.27-.28-.57-.28-.88h1.15c.02.28.12.5.32.65s.45.23.78.23.55-.06.71-.18c.16-.12.24-.27.24-.47Z"/><circle class="inbound-policies-cls-11" cx="390.7" cy="154.34" r="22.86"/><path class="inbound-policies-cls-14" d="M393.33,155.56c3.33-1.11,5.73-4.22,5.73-7.91.02-4.63-3.73-8.38-8.36-8.38s-8.38,3.75-8.38,8.38c0,3.69,2.4,6.79,5.73,7.91-5.45,1.17-9.55,5.91-9.55,11.59h24.39c0-5.68-4.09-10.42-9.56-11.59h0ZM383.63,147.65c0-3.9,3.17-7.07,7.07-7.07s7.07,3.17,7.07,7.07-3.17,7.07-7.07,7.07-7.07-3.19-7.07-7.07h0ZM390.7,156.57c5.54,0,10.14,4.04,10.8,9.27h-21.6c.66-5.21,5.26-9.27,10.8-9.27Z"/><circle class="inbound-policies-cls-11" cx="520.57" cy="154.34" r="22.86"/><path class="inbound-policies-cls-14" d="M523.21,155.56c3.33-1.11,5.73-4.22,5.73-7.91.02-4.63-3.73-8.38-8.36-8.38s-8.38,3.75-8.38,8.38c0,3.69,2.4,6.79,5.73,7.91-5.45,1.17-9.55,5.91-9.55,11.59h24.39c0-5.68-4.09-10.42-9.56-11.59h0ZM513.5,147.65c0-3.9,3.17-7.07,7.07-7.07s7.07,3.17,7.07,7.07-3.17,7.07-7.07,7.07-7.07-3.19-7.07-7.07h0ZM520.58,156.57c5.54,0,10.14,4.04,10.8,9.27h-21.6c.66-5.21,5.26-9.27,10.8-9.27Z"/><circle class="inbound-policies-cls-10" cx="260.83" cy="154.34" r="22.86"/><path class="inbound-policies-cls-14" d="M263.11,156.48c2.86-.95,4.93-3.62,4.93-6.79,0-3.98-3.23-7.21-7.21-7.21s-7.21,3.23-7.21,7.21c0,3.19,2.07,5.84,4.93,6.79-4.7,1.01-8.22,5.09-8.22,9.96h20.97c.02-4.87-3.5-8.94-8.2-9.96h0ZM255.01,149.69c0-3.21,2.61-5.82,5.82-5.82s5.82,2.61,5.82,5.82-2.61,5.82-5.82,5.82-5.82-2.61-5.82-5.82h0ZM260.83,157.62c4.53,0,8.3,3.23,8.99,7.45h-17.97c.68-4.22,4.45-7.45,8.99-7.45h0Z"/><path class="inbound-policies-cls-14" d="M254.04,155.05c-.54-.68-.95-1.45-1.26-2.26-2.34-.77-4.06-2.98-4.06-5.61,0-3.27,2.63-5.94,5.84-5.94.91,0,1.76.23,2.55.62.5-.23,1.01-.41,1.55-.54-1.16-.85-2.57-1.35-4.08-1.35-3.93,0-7.1,3.23-7.1,7.21,0,3.19,2.05,5.84,4.87,6.79-4.64,1.01-8.1,5.09-8.1,9.98h4.99c.1-.43.23-.85.37-1.26h-4.02c.6-4.18,4.12-7.39,8.45-7.64h0Z"/><path class="inbound-policies-cls-14" d="M267.62,155.05c.54-.68.95-1.43,1.26-2.26,2.34-.77,4.06-2.98,4.06-5.61,0-3.27-2.63-5.94-5.84-5.94-.91,0-1.76.23-2.55.62-.5-.23-1.01-.41-1.55-.54,1.16-.85,2.57-1.35,4.1-1.35,3.91,0,7.08,3.23,7.08,7.21,0,3.19-2.05,5.84-4.87,6.79,4.62,1.01,8.1,5.09,8.1,9.96h-4.99c-.1-.43-.23-.85-.37-1.26h4.02c-.58-4.16-4.12-7.37-8.45-7.62h0Z"/><path class="inbound-policies-cls-8" d="M350.7,260.47c-.26.34-.61.59-1.07.76-.46.17-.97.26-1.55.26s-1.12-.14-1.58-.41-.81-.66-1.06-1.16c-.25-.5-.38-1.09-.39-1.76v-.56c0-1.07.26-1.91.77-2.52.51-.6,1.23-.91,2.15-.91.79,0,1.42.2,1.88.59.47.39.75.96.84,1.69h-1.21c-.14-.86-.63-1.28-1.49-1.28-.55,0-.97.2-1.26.6-.29.4-.44.98-.45,1.75v.55c0,.77.16,1.36.49,1.79.32.42.77.64,1.35.64.63,0,1.08-.14,1.35-.43v-1.39h-1.46v-.94h2.7v2.72Z"/><path class="inbound-policies-cls-8" d="M351.85,258.7c0-.52.1-.98.31-1.4s.49-.73.87-.96.8-.33,1.28-.33c.71,0,1.29.23,1.73.69.45.46.69,1.07.72,1.83v.28c0,.52-.1.99-.29,1.4-.2.41-.49.73-.86.95s-.8.34-1.29.34c-.75,0-1.34-.25-1.79-.74-.45-.5-.67-1.16-.67-1.98v-.06ZM353.04,258.81c0,.54.11.97.34,1.28s.54.46.94.46.71-.16.93-.47c.22-.31.34-.77.34-1.37,0-.53-.12-.96-.35-1.27-.23-.31-.54-.47-.93-.47s-.7.15-.92.46c-.23.31-.34.77-.34,1.38Z"/><path class="inbound-policies-cls-8" d="M357.62,258.7c0-.52.1-.98.31-1.4s.49-.73.86-.96.8-.33,1.28-.33c.71,0,1.29.23,1.74.69.45.46.68,1.07.72,1.83v.28c0,.52-.1.99-.29,1.4-.2.41-.49.73-.86.95-.37.22-.8.34-1.29.34-.74,0-1.34-.25-1.79-.74s-.67-1.16-.67-1.98v-.06ZM358.81,258.81c0,.54.11.97.34,1.28s.54.46.94.46.71-.16.94-.47.33-.77.33-1.37c0-.53-.11-.96-.34-1.27-.23-.31-.54-.47-.94-.47s-.7.15-.92.46c-.23.31-.34.77-.34,1.38Z"/><path class="inbound-policies-cls-8" d="M363.43,258.71c0-.82.19-1.48.58-1.97.39-.49.9-.73,1.54-.73.6,0,1.08.21,1.42.63l.05-.53h1.07v5.12c0,.69-.21,1.24-.65,1.64s-1.01.6-1.75.6c-.39,0-.77-.08-1.13-.24s-.65-.37-.84-.63l.56-.71c.37.43.81.65,1.35.65.39,0,.71-.11.93-.32.23-.21.34-.53.34-.94v-.36c-.34.38-.8.57-1.37.57-.62,0-1.12-.25-1.52-.74-.39-.49-.59-1.17-.59-2.04ZM364.61,258.82c0,.53.11.95.32,1.25.22.3.52.46.9.46.48,0,.83-.21,1.06-.62v-2.32c-.22-.4-.58-.6-1.05-.6-.39,0-.7.15-.91.46-.21.31-.32.77-.32,1.37Z"/><path class="inbound-policies-cls-8" d="M370.63,261.39h-1.19v-7.5h1.19v7.5Z"/><path class="inbound-policies-cls-8" d="M374.31,261.49c-.75,0-1.36-.24-1.83-.71-.47-.47-.7-1.1-.7-1.89v-.15c0-.53.1-1,.3-1.41s.49-.74.86-.97c.37-.23.78-.35,1.23-.35.72,0,1.28.23,1.67.69.39.46.59,1.11.59,1.95v.48h-3.45c.04.44.18.78.44,1.04s.58.38.96.38c.54,0,.99-.22,1.33-.66l.64.61c-.21.32-.49.56-.85.73-.35.17-.75.26-1.19.26ZM374.17,256.96c-.32,0-.59.11-.79.34-.2.23-.33.55-.38.95h2.26v-.09c-.03-.4-.13-.7-.32-.9s-.44-.31-.77-.31Z"/><path class="inbound-policies-cls-8" d="M385.38,259.08c-.07.76-.35,1.35-.84,1.77s-1.14.64-1.95.64c-.57,0-1.07-.13-1.5-.4-.43-.27-.77-.65-1-1.15s-.36-1.07-.37-1.72v-.66c0-.67.12-1.26.36-1.77.24-.51.58-.9,1.02-1.18.45-.28.96-.42,1.54-.42.78,0,1.42.21,1.89.64s.76,1.03.83,1.8h-1.23c-.06-.51-.21-.88-.45-1.11-.24-.23-.59-.34-1.05-.34-.54,0-.95.2-1.24.59-.29.39-.44.97-.44,1.73v.63c0,.77.14,1.35.41,1.76.28.4.68.61,1.21.61.48,0,.85-.11,1.09-.33s.4-.58.46-1.09h1.23Z"/><path class="inbound-policies-cls-8" d="M387.74,261.39h-1.19v-7.5h1.19v7.5Z"/><path class="inbound-policies-cls-8" d="M388.88,258.7c0-.52.1-.98.31-1.4s.49-.73.87-.96.8-.33,1.28-.33c.71,0,1.29.23,1.73.69.45.46.69,1.07.72,1.83v.28c0,.52-.1.99-.29,1.4-.2.41-.49.73-.86.95s-.8.34-1.29.34c-.75,0-1.34-.25-1.79-.74-.45-.5-.67-1.16-.67-1.98v-.06ZM390.07,258.81c0,.54.11.97.34,1.28s.54.46.94.46.71-.16.93-.47c.22-.31.34-.77.34-1.37,0-.53-.12-.96-.35-1.27-.23-.31-.54-.47-.93-.47s-.7.15-.92.46c-.23.31-.34.77-.34,1.38Z"/><path class="inbound-policies-cls-8" d="M398.08,260.88c-.35.41-.84.62-1.48.62-.57,0-1.01-.17-1.3-.5-.29-.34-.44-.82-.44-1.46v-3.42h1.19v3.41c0,.67.28,1.01.83,1.01s.96-.21,1.17-.62v-3.79h1.19v5.28h-1.12l-.03-.52Z"/><path class="inbound-policies-cls-8" d="M400.32,258.71c0-.81.19-1.47.57-1.96.38-.49.88-.74,1.52-.74.56,0,1.01.2,1.36.59v-2.71h1.19v7.5h-1.07l-.06-.55c-.35.43-.83.64-1.42.64s-1.12-.25-1.5-.75-.57-1.18-.57-2.03ZM401.51,258.82c0,.54.1.96.31,1.26.21.3.5.45.88.45.48,0,.84-.22,1.06-.65v-2.26c-.22-.42-.57-.63-1.05-.63-.38,0-.68.15-.89.46-.21.3-.31.76-.31,1.37Z"/><path class="inbound-policies-cls-8" d="M414.43,261.39h-1.23l-3.17-5.04v5.04h-1.23v-7.11h1.23l3.18,5.06v-5.06h1.22v7.11Z"/><path class="inbound-policies-cls-8" d="M421.47,260.47c-.26.34-.61.59-1.07.76-.46.17-.97.26-1.55.26s-1.12-.14-1.58-.41-.81-.66-1.06-1.16c-.25-.5-.38-1.09-.39-1.76v-.56c0-1.07.26-1.91.77-2.52.51-.6,1.23-.91,2.15-.91.79,0,1.42.2,1.88.59.47.39.75.96.84,1.69h-1.21c-.14-.86-.63-1.28-1.49-1.28-.55,0-.97.2-1.26.6-.29.4-.44.98-.45,1.75v.55c0,.77.16,1.36.49,1.79.32.42.77.64,1.35.64.63,0,1.08-.14,1.35-.43v-1.39h-1.46v-.94h2.7v2.72Z"/><path class="inbound-policies-cls-8" d="M427.06,258.38h-2.86v3.01h-1.23v-7.11h4.52v1h-3.28v2.11h2.86v.99Z"/><path class="inbound-policies-cls-8" d="M434.37,259.64l1.09-5.35h1.22l-1.64,7.11h-1.18l-1.35-5.19-1.38,5.19h-1.19l-1.64-7.11h1.22l1.1,5.34,1.36-5.34h1.04l1.34,5.35Z"/><polyline class="inbound-policies-cls-6" points="240.96 201.29 240.96 279.15 200.45 279.15 200.45 291.2"/><polygon class="inbound-policies-cls-16" points="197.48 289.18 200.45 300.24 203.41 289.18 197.48 289.18"/><polyline class="inbound-policies-cls-6" points="514.04 201.29 514.04 256.27 470.54 256.27 470.54 291.2"/><polygon class="inbound-policies-cls-16" points="467.58 289.18 470.54 300.24 473.51 289.18 467.58 289.18"/><polyline class="inbound-policies-cls-6" points="526.31 201.29 526.31 256.27 594.84 256.27 594.84 291.2"/><polygon class="inbound-policies-cls-16" points="591.88 289.18 594.84 300.24 597.8 289.18 591.88 289.18"/><polyline class="inbound-policies-cls-6" points="395.99 201.29 395.99 219.76 582.14 219.76 582.14 291.2"/><polygon class="inbound-policies-cls-16" points="579.17 289.18 582.14 300.24 585.1 289.18 579.17 289.18"/><polyline class="inbound-policies-cls-6" points="250.8 201.29 250.8 279.15 299.87 279.15 299.87 291.2"/><polygon class="inbound-policies-cls-16" points="296.91 289.18 299.87 300.24 302.84 289.18 296.91 289.18"/><polyline class="inbound-policies-cls-6" points="260.83 201.29 260.83 270.12 354.68 270.12 354.68 291.2"/><polygon class="inbound-policies-cls-16" points="351.72 289.18 354.68 300.24 357.64 289.18 351.72 289.18"/><polyline class="inbound-policies-cls-4" points="271.46 201.29 271.46 247 443.55 247 443.55 299.24"/><rect class="inbound-policies-cls-12" x="437.05" y="298.24" width="13" height="2"/><polyline class="inbound-policies-cls-4" points="281.27 201.29 281.27 236.88 572.04 236.88 572.04 299.24"/><rect class="inbound-policies-cls-12" x="565.54" y="298.24" width="13" height="2"/><polyline class="inbound-policies-cls-4" points="384.3 201.29 384.3 228.94 460.77 228.94 460.77 299.24"/><rect class="inbound-policies-cls-12" x="454.27" y="298.24" width="13" height="2"/><rect class="inbound-policies-cls-3" x="177.81" y="300.46" width="45.27" height="14.05" rx="2.21" ry="2.21"/><path class="inbound-policies-cls-8" d="M200.01,310.41h-4.78v-.82l2.37-2.58c.34-.38.58-.7.73-.96.14-.25.22-.51.22-.77,0-.34-.1-.61-.29-.82-.19-.21-.45-.31-.77-.31-.38,0-.68.12-.89.35s-.32.55-.32.96h-1.19c0-.43.1-.82.3-1.17.2-.35.48-.62.84-.81.37-.19.79-.29,1.27-.29.69,0,1.23.17,1.63.52.4.35.6.83.6,1.44,0,.35-.1.73-.3,1.12-.2.39-.53.83-.98,1.33l-1.74,1.86h3.3v.95Z"/><path class="inbound-policies-cls-8" d="M205.83,310.41h-4.78v-.82l2.37-2.58c.34-.38.58-.7.73-.96.14-.25.22-.51.22-.77,0-.34-.1-.61-.29-.82-.19-.21-.45-.31-.77-.31-.38,0-.68.12-.89.35s-.32.55-.32.96h-1.19c0-.43.1-.82.3-1.17.2-.35.48-.62.84-.81.37-.19.79-.29,1.27-.29.69,0,1.23.17,1.63.52.4.35.6.83.6,1.44,0,.35-.1.73-.3,1.12-.2.39-.53.83-.98,1.33l-1.74,1.86h3.3v.95Z"/><line class="inbound-policies-cls-3" x1="183.12" y1="300.74" x2="183.12" y2="314.23"/><line class="inbound-policies-cls-3" x1="217.77" y1="300.74" x2="217.77" y2="314.23"/><rect class="inbound-policies-cls-3" x="431.48" y="300.46" width="45.27" height="14.05" rx="2.21" ry="2.21"/><path class="inbound-policies-cls-8" d="M443.31,306.88l.39-3.58h3.82v1.03h-2.83l-.2,1.7c.33-.19.7-.28,1.11-.28.68,0,1.2.22,1.58.65.38.43.56,1.02.56,1.75s-.21,1.3-.62,1.73c-.42.43-.99.64-1.71.64-.65,0-1.19-.18-1.62-.55-.43-.37-.66-.86-.7-1.46h1.15c.05.34.17.61.37.79.2.18.47.28.79.28.37,0,.65-.13.85-.39.21-.26.31-.62.31-1.06s-.11-.78-.34-1.03c-.22-.25-.53-.38-.93-.38-.21,0-.4.03-.55.09-.15.06-.31.17-.49.33l-.95-.23Z"/><path class="inbound-policies-cls-8" d="M452.96,307.87h.88v.95h-.88v1.58h-1.19v-1.58h-3.07l-.04-.72,3.07-4.8h1.23v4.58ZM449.91,307.87h1.86v-2.97l-.09.16-1.77,2.81Z"/><path class="inbound-policies-cls-8" d="M456.26,306.31h.72c.37,0,.65-.1.87-.28s.32-.45.32-.81-.09-.6-.27-.79c-.18-.19-.45-.28-.81-.28-.32,0-.58.09-.79.28-.21.18-.31.42-.31.72h-1.19c0-.36.1-.7.29-1,.2-.3.46-.53.81-.7.35-.17.74-.25,1.17-.25.71,0,1.27.18,1.67.54.4.36.61.85.61,1.49,0,.32-.1.62-.3.9-.2.28-.47.49-.79.64.39.13.69.34.89.63.21.29.31.63.31,1.03,0,.64-.22,1.15-.66,1.52-.44.38-1.01.57-1.72.57s-1.24-.18-1.68-.55c-.44-.36-.65-.85-.65-1.46h1.19c0,.31.11.57.31.76.21.2.49.29.85.29s.66-.1.87-.29c.21-.2.32-.48.32-.85s-.11-.66-.33-.86c-.22-.2-.55-.3-.99-.3h-.7v-.94Z"/><path class="inbound-policies-cls-8" d="M465.4,310.41h-4.78v-.82l2.37-2.58c.34-.38.59-.7.73-.96.14-.25.22-.51.22-.77,0-.34-.1-.61-.29-.82-.19-.21-.45-.31-.77-.31-.38,0-.68.12-.89.35-.21.23-.32.55-.32.96h-1.19c0-.43.1-.82.29-1.17.2-.35.48-.62.84-.81.37-.19.79-.29,1.27-.29.69,0,1.23.17,1.63.52.4.35.6.83.6,1.44,0,.35-.1.73-.3,1.12-.2.39-.53.83-.98,1.33l-1.74,1.86h3.3v.95Z"/><line class="inbound-policies-cls-3" x1="436.79" y1="300.74" x2="436.79" y2="314.23"/><line class="inbound-policies-cls-3" x1="471.44" y1="300.74" x2="471.44" y2="314.23"/><rect class="inbound-policies-cls-3" x="558.33" y="300.46" width="45.27" height="14.05" rx="2.21" ry="2.21"/><path class="inbound-policies-cls-8" d="M573.73,303.26v.98h-.15c-.66,0-1.19.19-1.59.55s-.63.86-.71,1.51c.38-.4.87-.6,1.46-.6.63,0,1.12.22,1.49.66.36.44.54,1.01.54,1.71s-.21,1.31-.64,1.75c-.42.45-.98.67-1.67.67s-1.29-.26-1.73-.79c-.44-.52-.66-1.21-.66-2.06v-.41c0-1.25.3-2.22.91-2.93.61-.71,1.48-1.06,2.62-1.06h.12ZM572.46,306.66c-.26,0-.5.07-.71.22-.22.15-.38.34-.48.59v.36c0,.53.11.95.33,1.26.22.31.51.47.86.47s.63-.13.83-.4.31-.61.31-1.04-.1-.78-.31-1.05-.49-.41-.83-.41Z"/><path class="inbound-policies-cls-8" d="M577.28,306.31h.72c.36,0,.65-.1.87-.28.21-.19.32-.45.32-.81s-.09-.6-.27-.79c-.18-.19-.45-.28-.81-.28-.32,0-.58.09-.79.28-.21.18-.31.42-.31.72h-1.19c0-.36.1-.7.29-1,.19-.3.46-.53.81-.7.35-.17.74-.25,1.17-.25.71,0,1.27.18,1.67.54.4.36.61.85.61,1.49,0,.32-.1.62-.3.9-.2.28-.47.49-.79.64.39.13.69.34.89.63.2.29.31.63.31,1.03,0,.64-.22,1.15-.66,1.52-.44.38-1.01.57-1.73.57s-1.24-.18-1.68-.55-.65-.85-.65-1.46h1.19c0,.31.11.57.31.76.21.2.49.29.85.29s.66-.1.87-.29.32-.48.32-.85-.11-.66-.33-.86-.55-.3-.99-.3h-.7v-.94Z"/><path class="inbound-policies-cls-8" d="M586.34,303.96l-2.84,6.45h-1.25l2.84-6.16h-3.68v-.95h4.93v.66Z"/><path class="inbound-policies-cls-8" d="M590.63,307.43c-.4.42-.86.63-1.39.63-.62,0-1.12-.22-1.49-.66-.37-.44-.56-1.01-.56-1.73,0-.47.09-.89.28-1.27s.46-.68.81-.89.75-.32,1.21-.32c.72,0,1.28.27,1.7.8s.63,1.25.63,2.14v.33c0,1.28-.29,2.26-.87,2.93s-1.44,1.02-2.59,1.03h-.14v-.98h.17c.7,0,1.24-.18,1.61-.5.37-.33.58-.83.63-1.52ZM589.48,307.13c.24,0,.46-.07.67-.21s.37-.33.48-.57v-.46c0-.52-.11-.95-.32-1.26s-.49-.48-.83-.48-.61.14-.82.42c-.2.28-.31.64-.31,1.07s.1.81.31,1.08.48.41.82.41Z"/><line class="inbound-policies-cls-3" x1="563.63" y1="300.74" x2="563.63" y2="314.23"/><line class="inbound-policies-cls-3" x1="598.28" y1="300.74" x2="598.28" y2="314.23"/><rect class="inbound-policies-cls-3" x="277.24" y="300.46" width="45.27" height="14.05" rx="2.21" ry="2.21"/><path class="inbound-policies-cls-8" d="M299.14,305.17c0,.35-.09.66-.27.93-.18.27-.42.49-.73.64.37.17.66.41.86.71.2.3.3.64.3,1.02,0,.62-.21,1.12-.63,1.49-.42.37-.99.55-1.69.55s-1.27-.18-1.7-.55c-.42-.37-.64-.86-.64-1.48,0-.38.1-.72.3-1.03s.49-.54.85-.7c-.31-.16-.55-.37-.72-.64-.18-.27-.27-.58-.27-.93,0-.61.2-1.09.59-1.44s.92-.53,1.58-.53,1.2.18,1.59.53.59.83.59,1.44ZM298.11,308.41c0-.35-.1-.64-.32-.85-.21-.22-.49-.32-.83-.32s-.62.11-.83.32c-.21.21-.31.5-.31.85s.1.63.31.83c.2.21.48.31.84.31s.64-.1.84-.3c.2-.2.3-.48.3-.84ZM297.96,305.22c0-.31-.09-.56-.27-.76-.18-.2-.42-.3-.72-.3s-.54.09-.72.29c-.18.19-.26.45-.26.78s.09.58.27.78c.18.19.42.29.72.29s.54-.1.72-.29c.18-.19.27-.45.27-.78Z"/><path class="inbound-policies-cls-8" d="M305.1,307.41c0,1.02-.19,1.79-.57,2.31-.38.52-.96.78-1.75.78s-1.35-.25-1.74-.76c-.39-.51-.59-1.25-.6-2.25v-1.23c0-1.02.19-1.79.57-2.3.38-.51.97-.77,1.75-.77s1.36.25,1.74.75c.38.5.58,1.24.59,2.24v1.23ZM303.91,306.08c0-.67-.09-1.16-.27-1.47-.18-.31-.47-.47-.87-.47s-.67.15-.85.44c-.18.29-.28.75-.29,1.38v1.61c0,.66.09,1.16.28,1.48s.48.49.87.49.66-.15.84-.45c.18-.3.28-.77.29-1.41v-1.61Z"/><line class="inbound-policies-cls-3" x1="282.54" y1="300.74" x2="282.54" y2="314.23"/><line class="inbound-policies-cls-3" x1="317.2" y1="300.74" x2="317.2" y2="314.23"/><rect class="inbound-policies-cls-3" x="332.05" y="300.46" width="45.27" height="14.05" rx="2.21" ry="2.21"/><path class="inbound-policies-cls-8" d="M350.4,307.87h.88v.95h-.88v1.58h-1.19v-1.58h-3.07l-.03-.72,3.07-4.8h1.23v4.58ZM347.36,307.87h1.86v-2.97l-.09.16-1.77,2.81Z"/><path class="inbound-policies-cls-8" d="M356.42,307.87h.88v.95h-.88v1.58h-1.19v-1.58h-3.07l-.03-.72,3.07-4.8h1.23v4.58ZM353.37,307.87h1.86v-2.97l-.09.16-1.77,2.81Z"/><path class="inbound-policies-cls-8" d="M359.72,306.31h.72c.36,0,.65-.1.87-.28.21-.19.32-.45.32-.81s-.09-.6-.27-.79c-.18-.19-.45-.28-.81-.28-.32,0-.58.09-.79.28-.21.18-.31.42-.31.72h-1.19c0-.36.1-.7.29-1,.19-.3.46-.53.81-.7.35-.17.74-.25,1.17-.25.71,0,1.27.18,1.67.54.4.36.61.85.61,1.49,0,.32-.1.62-.3.9-.2.28-.47.49-.79.64.39.13.69.34.89.63.2.29.31.63.31,1.03,0,.64-.22,1.15-.66,1.52-.44.38-1.01.57-1.73.57s-1.24-.18-1.68-.55-.65-.85-.65-1.46h1.19c0,.31.11.57.31.76.21.2.49.29.85.29s.66-.1.87-.29.32-.48.32-.85-.11-.66-.33-.86-.55-.3-.99-.3h-.7v-.94Z"/><line class="inbound-policies-cls-3" x1="337.35" y1="300.74" x2="337.35" y2="314.23"/><line class="inbound-policies-cls-3" x1="372" y1="300.74" x2="372" y2="314.23"/><path class="inbound-policies-cls-9" d="M397.65,399.46h1.58l4.49-4.49.22-1.91c-8.36-7.38-21.12-6.58-28.5,1.78-2.05,2.32-3.54,5.08-4.35,8.07.5-.21,1.05-.24,1.58-.09l8.98-1.48s.46-.76.69-.71c4-4.39,10.72-4.9,15.33-1.17h-.03Z"/><path class="inbound-policies-cls-7" d="M410.12,402.91c-1.03-3.8-3.15-7.22-6.1-9.83l-6.3,6.3c2.66,2.18,4.18,5.45,4.11,8.89v1.12c3.1,0,5.61,2.51,5.61,5.61s-2.51,5.61-5.61,5.61h-11.22l-1.12,1.13v6.73l1.12,1.12h11.22c8.06.06,14.64-6.42,14.71-14.48.04-4.88-2.37-9.46-6.42-12.2Z"/><path class="inbound-policies-cls-15" d="M379.37,429.53h11.22v-8.98h-11.22c-.8,0-1.59-.17-2.32-.5l-1.58.49-4.52,4.49-.39,1.58c2.54,1.92,5.63,2.95,8.81,2.93h0Z"/><path class="inbound-policies-cls-13" d="M379.37,400.39c-8.06.05-14.55,6.62-14.51,14.68.03,4.5,2.13,8.74,5.7,11.48l6.51-6.51c-2.82-1.28-4.08-4.6-2.8-7.42,1.28-2.82,4.6-4.08,7.42-2.8,1.24.56,2.24,1.56,2.8,2.8l6.51-6.51c-2.77-3.62-7.07-5.74-11.63-5.72Z"/></svg>