<svg viewBox="0 0 72 72" xmlns="http://www.w3.org/2000/svg"><path d="m11.18 21.67v28.66l24.82 14.33 24.82-14.33v-28.66l-24.82-14.33z" fill="#fff" stroke="#32363b" stroke-linecap="round" stroke-linejoin="round" stroke-width="2.51"/><path d="m20.18 45.14v-18.28l15.82-9.13 15.82 9.13v18.28l-15.82 9.13z" fill="currentColor" stroke="#32363b" stroke-miterlimit="10" stroke-width="1.18"/><g fill="#fff"><path d="m24.54 29.71h10.65v2.07h-10.65z"/><path d="m36.44 29.71h2.65v2.07h-2.65z"/><path d="m40.26 29.71h5.65v2.07h-5.65z"/><path d="m24.54 33.35h13.79v2.07h-13.79z"/><path d="m39.51 33.35h2.79v2.07h-2.79z"/><path d="m43.58 33.35h2.79v2.07h-2.79z"/><path d="m24.54 37h3.88v2.07h-3.88z"/><path d="m43.58 37h3.88v2.07h-3.88z"/><path d="m29.49 37h12.88v2.07h-12.88z"/><path d="m24.54 40.65h5.65v2.07h-5.65z"/></g></svg>