<svg viewBox="0 0 200 200" xmlns="http://www.w3.org/2000/svg"><path d="m170.26 118.44c-19.13 3.93-20.45-2.53-20.45-2.53 20.2-30 28.64-68 21.34-77.3-19.86-25.39-54.28-13.39-54.84-13.08h-.19a69.65 69.65 0 0 0 -12.77-1.34c-8.65-.13-15.21 2.27-20.19 6.06 0 0-61.38-25.28-58.51 31.79.6 12.14 17.4 91.87 37.44 67.8 7.32-8.81 14.4-16.26 14.4-16.26a18.63 18.63 0 0 0 12.12 3.11l.35-.29a13.5 13.5 0 0 0 .14 3.43c-5.17 5.76-3.65 6.77-14 8.9s-4.31 6-.31 7c4.85 1.22 16.08 2.93 23.66-7.68l-.31 1.2c2 1.61 3.44 10.53 3.2 18.62s-.38 13.64 1.21 18 3.21 14.13 16.77 11.13c11.33-2.43 17.21-8.73 18-19.23.58-7.46 1.9-6.36 2-13l1.05-3.16c1.22-10.13.19-13.39 7.17-11.88l1.69.16c5.14.23 11.87-.83 15.81-2.66 8.56-3.94 13.6-10.53 5.22-8.8z" fill="currentColor"/><path d="m170.25 118.28c-19 3.91-20.3-2.5-20.3-2.5 20.05-29.78 28.42-67.51 21.18-76.78-19.72-25.21-53.89-13.29-54.44-13h-.2a67.8 67.8 0 0 0 -12.67-1.33c-8.59-.14-15.1 2.25-20 6 0 0-60.94-25.1-58.09 31.56.6 12.06 17.28 91.22 37.17 67.31 7.27-8.74 14.3-16.13 14.3-16.13a18.47 18.47 0 0 0 12 3.08l.35-.29a13.76 13.76 0 0 0 .13 3.41c-5.12 5.72-3.62 6.72-13.86 8.84s-4.28 5.93-.31 6.93c4.81 1.21 16 2.91 23.5-7.63l-.31 1.2c2 1.6 3.41 10.46 3.18 18.49s-.39 13.54 1.19 17.83 3.16 14 16.62 11.09c11.25-2.4 17.08-8.66 17.89-19.08.58-7.42 1.89-6.32 2-12.94l1-3.14c1.21-10.06.19-13.29 7.12-11.79l1.68.15c5.1.24 11.79-.82 15.7-2.63 8.49-3.91 13.5-10.46 5.18-8.75z" fill="currentColor"/><g stroke="#32363b"><path d="m99.83 124c-.52 18.68.14 37.52 2 42.08s5.74 13.46 19.22 10.6c11.25-2.41 15.35-7.09 17.12-17.4 1.31-7.58 3.83-28.64 4.16-32.95" fill="none" stroke-linecap="round" stroke-linejoin="round" stroke-width="4.71"/><path d="m83.69 30.34s-61-24.92-58.12 31.74c.6 12.06 17.27 91.22 37.17 67.31 7.26-8.74 13.85-15.6 13.85-15.6" fill="none" stroke-linecap="round" stroke-linejoin="round" stroke-width="4.71"/><path d="m116.63 25.8c-2.12.65 33.91-13.18 54.39 13 7.22 9.24-1.16 47-21.21 76.75" fill="none" stroke-linecap="round" stroke-linejoin="round" stroke-width="4.71"/><path d="m149.81 115.55s1.31 6.43 20.3 2.5c8.32-1.71 3.31 4.82-5.12 8.74-6.93 3.22-22.46 4-22.71-.4-.65-11.46 8.17-8 7.53-10.84-.58-2.58-4.52-5.13-7.12-11.46-2.28-5.53-31.26-47.88 8-41.58 1.44-.29-10.25-37.37-47-38s-35.55 45.2-35.55 45.2" fill="none" stroke-linecap="round" stroke-linejoin="bevel" stroke-width="4.71"/><path d="m89.53 119.46c-5.12 5.72-3.62 6.72-13.87 8.84s-4.27 5.93-.31 6.93c4.82 1.21 16 2.91 23.5-7.63 2.29-3.21 0-8.34-3.16-9.65-1.5-.63-3.54-1.42-6.16 1.51z" fill="none" stroke-linecap="round" stroke-linejoin="round" stroke-width="4.71"/><path d="m89.2 119.36c-.52-3.37 1.1-7.38 2.85-12.06 2.62-7 8.65-14.06 3.82-36.36-3.61-16.62-27.7-3.46-27.72-1.21s1.1 11.42-.4 22.09c-2 13.92 8.86 25.71 21.32 24.52" fill="none" stroke-linecap="round" stroke-linejoin="round" stroke-width="4.71"/><path d="m83.46 69.4c-.11.77 1.41 2.83 3.39 3.1a3.66 3.66 0 0 0 3.78-2.1c.11-.77-1.41-1.62-3.39-1.88s-3.66.11-3.78.88z" fill="#fff" stroke-width="1.57"/><path d="m143.65 67.82c.11.77-1.41 2.83-3.39 3.1a3.67 3.67 0 0 1 -3.78-2.1c-.09-.77 1.41-1.61 3.39-1.88s3.66.11 3.78.88z" fill="#fff" stroke-width="1.57"/><path d="m150.72 62.51c.32 6-1.31 10.15-1.51 16.58-.3 9.34 4.45 20-2.71 30.74" fill="none" stroke-linecap="round" stroke-linejoin="round" stroke-width="4.71"/></g></svg>