<svg viewBox="0 0 200 200" xmlns="http://www.w3.org/2000/svg"><g stroke="#32363b" stroke-linecap="round" stroke-linejoin="round" stroke-width="6.21"><path d="m104.22 26.38a3 3 0 0 0 -3 2.95v64.91a3 3 0 0 0 3 3h64.91a3 3 0 0 0 3-3 67.94 67.94 0 0 0 -67.91-67.86z" fill="#fff"/><path d="m130.59 156.9-40.68-52.3v-63.9a3 3 0 0 0 -3-3c-34.17 0-62 30.44-62 67.86a67.93 67.93 0 0 0 67.86 67.85 50.38 50.38 0 0 0 37.36-12.41 3 3 0 0 0 .46-4.1z" fill="currentColor"/><path d="m172.05 108.56h-59.05a3 3 0 0 0 -3 3 2.91 2.91 0 0 0 .66 1.85l38.35 47.48a2.92 2.92 0 0 0 2.09 1.09h.21a3 3 0 0 0 2-.79 68.1 68.1 0 0 0 21.69-49.68 3 3 0 0 0 -2.95-2.95z" fill="#fff"/></g></svg>