<svg viewBox="0 0 200 200" xmlns="http://www.w3.org/2000/svg"><g fill-rule="evenodd"><g fill="#32363b"><path d="m30.66 149.45h52.24s-10-45.57 23.09-64c7.21-3.51 30.16-16.6 67.72 11.17 1.19-1 2.32-1.78 2.32-1.78s-34.4-34.33-72.69-30.49c-19.25 1.72-42.92 19.25-56.81 42.39s-15.87 42.71-15.87 42.71z"/><path d="m30.66 149.45h52.24s-10-45.57 23.09-64c7.21-3.51 30.16-16.6 67.72 11.17 1.19-1 2.32-1.78 2.32-1.78s-34.4-34.33-72.69-30.49c-19.25 1.72-42.92 19.25-56.81 42.39s-15.87 42.71-15.87 42.71z"/><path d="m30.66 149.45h52.24s-10-45.57 23.09-64c7.21-3.51 30.16-16.6 67.72 11.17 1.19-1 2.32-1.78 2.32-1.78s-34.4-34.33-72.69-30.49c-19.31 1.72-43 19.25-56.88 42.39s-15.8 42.71-15.8 42.71z"/></g><path d="m139.52 68 .26-4.43a32.44 32.44 0 0 0 -6.41-2.31l-.27 4.36c2.19.76 4.3 1.55 6.42 2.38z" fill="currentColor"/><path d="m133.24 82.05-.24 4.17a36.63 36.63 0 0 1 6.55.8l.26-4.11a48.54 48.54 0 0 0 -6.57-.86zm-24.48-20.63h.67l-1.33-4a53.8 53.8 0 0 0 -6.35.39l1.26 3.9c1.92-.22 3.84-.29 5.75-.29zm3.18 24.34 1.52 4.56a42.36 42.36 0 0 1 5.75-2.32l-1.45-4.37a47 47 0 0 0 -5.82 2.13zm-30-17.4-3-4.56c-1.66.86-3.38 1.79-5.16 2.84l3 4.63c1.76-1.05 3.41-2.05 5.13-2.91zm13.53 29.77 3.18 4.76a35.48 35.48 0 0 1 3.9-4.7l-3-4.5a36.14 36.14 0 0 0 -4.08 4.44zm-9.59 21.29 5.36 4.24a52.43 52.43 0 0 1 1.39-7.74l-4.77-3.77a62.58 62.58 0 0 0 -1.98 7.27zm-28.97-31.42-4.69-4.1c-1.72 1.65-3.38 3.3-4.9 5l5.09 4.36c1.39-1.81 2.92-3.6 4.5-5.26zm-20 29.56-7.61-2.78c-1.25 2.85-2.64 6.15-3.3 7.94l7.6 2.78c.89-2.24 2.28-5.5 3.34-7.93zm48 18.65a66.76 66.76 0 0 0 .79 8.33l7.94 2.85a86.92 86.92 0 0 1 -1.64-8.59z" fill="currentColor"/></g></svg>