<svg viewBox="0 0 200 200" xmlns="http://www.w3.org/2000/svg"><path d="m128.57 156a9.52 9.52 0 0 1 -9.52-9.52v-21.48h-4.76v-9.52h-28.58v9.52h-4.71v21.43a9.53 9.53 0 0 1 -19.05 0v2.38a14.29 14.29 0 0 0 28.58 0v14.29a9.53 9.53 0 0 1 -9.53 9.52h4.76a14.29 14.29 0 0 0 14.24-14.29 14.29 14.29 0 0 0 14.29 14.29h4.76a9.53 9.53 0 0 1 -9.53-9.52v-14.29a14.29 14.29 0 1 0 28.58 0v-2.38a9.53 9.53 0 0 1 -9.53 9.57z" fill="currentColor" stroke="#32363b" stroke-linecap="round" stroke-linejoin="round" stroke-width="4.37"/><path d="m123.81 165.48a16.69 16.69 0 0 0 16.67-16.67v-7.14a4.77 4.77 0 0 1 4.76-4.77 2.38 2.38 0 0 0 0-4.76 9.55 9.55 0 0 0 -9.53 9.53v7.14a11.91 11.91 0 0 1 -23.81 0v-11.91a2.38 2.38 0 0 0 -4.76 0v11.91a16.69 16.69 0 0 0 16.67 16.67z" fill="#32363b"/><g stroke="#32363b" stroke-linecap="round" stroke-linejoin="round" stroke-width="4.37"><path d="m141.67 70.23c-8.67-14.51-28.44-45.23-41.56-45.23h-.11c-13.14 0-32.94 30.72-41.57 45.23-2.6 4.38-1.17 9.54 3.57 12.77l38 25.36 38.14-25.36c4.7-3.23 6.13-8.39 3.53-12.77z" fill="currentColor"/><path d="m100 25c-13.14 0-32.94 30.72-41.57 45.23-2.6 4.38-1.17 9.54 3.57 12.77l38 25.36z" fill="currentColor"/><path d="m100 122.62a6.91 6.91 0 0 0 3-.66c4.75-2.3 11.46-3.77 14.88-4.42a2.37 2.37 0 0 0 2.17-2.13c-.25-27.41-6.05-90.41-20.05-90.41-14 0-19.8 63-20 90.41a2.37 2.37 0 0 0 2.18 2.13c3.41.65 10.12 2.12 14.87 4.42a6.91 6.91 0 0 0 3 .66" fill="currentColor"/><path d="m85.71 129.76a4.76 4.76 0 0 1 -4.71-4.76 4.76 4.76 0 0 1 4.76-4.76 4.77 4.77 0 0 1 4.72 4.76 4.77 4.77 0 0 1 -4.77 4.76z" fill="#fff"/><path d="m114.29 129.76a4.77 4.77 0 0 1 -4.77-4.76 4.77 4.77 0 0 1 4.77-4.76 4.76 4.76 0 0 1 4.76 4.76 4.76 4.76 0 0 1 -4.76 4.76z" fill="#fff"/></g><path d="m76.19 165.48a16.69 16.69 0 0 1 -16.67-16.67v-7.14a4.77 4.77 0 0 0 -4.76-4.77 2.38 2.38 0 0 1 0-4.76 9.55 9.55 0 0 1 9.53 9.53v7.14a11.91 11.91 0 0 0 23.81 0v-11.91a2.38 2.38 0 0 1 4.76 0v11.91a16.69 16.69 0 0 1 -16.67 16.67z" fill="#32363b"/><path d="m119.05 170.24h-4.76a11.92 11.92 0 0 1 -11.91-11.91v-16.66a2.38 2.38 0 0 0 -4.76 0v16.66a11.92 11.92 0 0 1 -11.91 11.91h-4.71a2.38 2.38 0 0 0 0 4.76h4.76a16.66 16.66 0 0 0 14.24-8.13 16.66 16.66 0 0 0 14.29 8.13h4.76a2.38 2.38 0 1 0 0-4.76z" fill="#32363b"/></svg>