<svg viewBox="0 0 200 200" xmlns="http://www.w3.org/2000/svg"><path d="m169 130.94a8.4 8.4 0 1 1 8.31-8.4 8.37 8.37 0 0 1 -8.31 8.4z" fill="currentColor" fill-rule="evenodd"/><path d="m169 116.32a6.22 6.22 0 1 1 -6.12 6.22 6.18 6.18 0 0 1 6.12-6.22m0-4.37a10.59 10.59 0 1 0 10.5 10.59 10.56 10.56 0 0 0 -10.5-10.54z" fill="#32363b"/><path d="m103.6 133.62c-6.86 0-12.24-1-16.25-3.08l.69 2h-22.51l-2.7-10h-16l-2.67 10h-22.08l22.15-65.12h21.65l13.8 40.58 16.48-1.14.25 2.07a12.71 12.71 0 0 0 1.75 5.64 6.43 6.43 0 0 0 5.71 2.75 5.69 5.69 0 0 0 4.13-1.32 3.72 3.72 0 0 0 1.28-2.79 3.65 3.65 0 0 0 -1.22-2.68c-.44-.44-2.06-1.59-7.68-3-7.93-2-13.47-4.57-16.94-7.93a17.72 17.72 0 0 1 -5.47-13.31 19.42 19.42 0 0 1 2.76-10 19.1 19.1 0 0 1 8.27-7.29c3.58-1.72 8.44-2.6 14.47-2.6 7.5 0 13.36 1.62 17.42 4.8a17 17 0 0 1 3.94 4.4v-8.18h30.42c6.75 0 11.93 1.86 15.4 5.54s5.19 8.78 5.19 15.3c0 6.71-1.89 12.06-5.62 15.92s-9.4 5.82-16.83 5.82h-7.11v22.56h-21.43v-7.17a21.15 21.15 0 0 1 -7.06 5.44 32.56 32.56 0 0 1 -14.19 2.79zm-45.53-28.62-3.19-11.46-3.18 11.46zm54-15.23a42.31 42.31 0 0 1 7.74 3.23 22.57 22.57 0 0 1 5 3.8v-7.8zm36.17 3.54c3.34 0 4.78-.7 5.4-1.28a4.21 4.21 0 0 0 1.3-3.24 4.94 4.94 0 0 0 -1.19-3.41c-.41-.48-1.55-1.25-4.83-1.25h-2.65v9.18zm-46.43-11.23a4.36 4.36 0 0 0 -3 .8 2.27 2.27 0 0 0 -.81 1.79c0 .14 0 .49.55 1 .17.17 1 .84 4.7 1.69 1.7.41 3.29.82 4.77 1.22l-.08-.53c-.34-2.22-1-3.8-2-4.69a6 6 0 0 0 -4.13-1.28z" fill="currentColor" fill-rule="evenodd"/><path d="m103.49 68.57q10.55 0 16.07 4.33t6.58 13.79l-16 1c-.42-2.73-1.32-4.73-2.69-6a8.06 8.06 0 0 0 -5.63-1.86 6.35 6.35 0 0 0 -4.47 1.39 4.45 4.45 0 0 0 -1.49 3.39 3.52 3.52 0 0 0 1.23 2.6c.8.81 2.7 1.54 5.7 2.23q11.14 2.67 16 5.38a16.34 16.34 0 0 1 8.3 9.74v-35h28.24q9.21 0 13.81 4.85t4.6 13.8q0 9.21-5 14.39t-15.28 5.18h-9.3v22.62h-17.16v-13.58a21 21 0 0 1 -2 4.57 18.78 18.78 0 0 1 -8.18 7.49q-5.25 2.55-13.24 2.55-14 0-19.41-6a23.11 23.11 0 0 1 -1.53-1.9l2.36 6.87h-17.79l-2.7-10h-19.35l-2.67 10h-17.35l20.66-60.79h18.52l13.83 40.67 16.08-1.11a14.64 14.64 0 0 0 2.14 6.63 8.61 8.61 0 0 0 7.5 3.68 7.8 7.8 0 0 0 5.61-1.88 5.93 5.93 0 0 0 2-4.37 5.82 5.82 0 0 0 -1.87-4.23c-1.26-1.25-4.15-2.43-8.7-3.53q-11.21-2.77-15.98-7.37a15.56 15.56 0 0 1 -4.8-11.74 17.18 17.18 0 0 1 2.46-8.86 16.82 16.82 0 0 1 7.41-6.5q4.94-2.37 13.52-2.38m40.6 27h4.16c3.28 0 5.57-.62 6.9-1.88a6.41 6.41 0 0 0 2-4.83 7.12 7.12 0 0 0 -1.77-4.91q-1.71-2-6.48-2h-4.84v13.52m-95.26 11.69h12.17l-6.13-21.85-6 21.85m54.66-43c-6.53-.01-11.53.91-15.46 2.79a21.19 21.19 0 0 0 -9.25 8.27 21.56 21.56 0 0 0 -3.07 11.08 22.79 22.79 0 0 0 .45 4.65l-7.74-22.8-1-3h-24.8l-1 3-20.66 60.8-2 5.78h26.86l.86-3.25 1.8-6.78h12.64l1.84 6.78.87 3.24h27.23l-.17-.49a46.24 46.24 0 0 0 12.67 1.52c6 0 11.07-1 15.15-3a25.06 25.06 0 0 0 3.91-2.36v4.31h25.81v-22.54h4.92c8 0 14.24-2.19 18.42-6.51s6.24-10.15 6.24-17.44c0-7.1-2-12.75-5.8-16.81s-9.6-6.22-17-6.22h-32.59v4.55c-.13-.11-.26-.22-.4-.32-4.46-3.46-10.77-5.26-18.77-5.26zm-2.77 20.16a5.44 5.44 0 0 1 1.09-.09 4 4 0 0 1 2.69.72 2.32 2.32 0 0 1 .42.53l-1.12-.27a22.66 22.66 0 0 1 -3.08-.89zm47.75 2h.46a6.43 6.43 0 0 1 3.19.5 2.77 2.77 0 0 1 .64 2 2.06 2.06 0 0 1 -.63 1.67s-.73.63-3.66.66v-4.8zm-27.06 5 1.25-.08v.86c-.41-.27-.82-.53-1.25-.78zm-40.2 14.3-3.38-9.93a19.73 19.73 0 0 0 4.07 5.5 24.77 24.77 0 0 0 5.61 4l-6.3.44zm-26.63-2.84.3-1.11.31 1.11zm49.29 12.27a4.25 4.25 0 0 1 -3.93-1.83 9.36 9.36 0 0 1 -1.25-3.85l1.12.29c5.48 1.32 6.64 2.34 6.68 2.39a1.41 1.41 0 0 1 .57 1.12 1.56 1.56 0 0 1 -.62 1.22 4 4 0 0 1 -2.57.66z" fill="#32363b"/></svg>